<svg xmlns="http://www.w3.org/2000/svg" x="0px" y="0px" viewBox="596 -596 1792 1792" style="enable-background:new 596 -596 1792 1792;">
<path d="M1835,245L1515-75c-7.3-6-15-9-23-9s-15.7,3-23,9l-319,319c-6.7,8-10,16-10,24c0,9.3,3,17,9,23s13.7,9,23,9h192v352
	c0,9.3,3,17,9,23s13.7,9,23,9h192c9.3,0,17-3,23-9s9-13.7,9-23V300h192c14.7,0,24.7-6.7,30-20C1847.3,267.3,1845,255.7,1835,245z
	 M1765-171c83.3,48.7,149.3,114.7,198,198s73,174.3,73,273s-24.3,189.7-73,273s-114.7,149.3-198,198s-174.3,73-273,73
	c-98.7,0-189.7-24.3-273-73c-83.3-48.7-149.3-114.7-198-198c-48.7-83.3-73-174.3-73-273s24.3-189.7,73-273
	c48.7-83.3,114.7-149.3,198-198s174.3-73,273-73C1590.7-244,1681.7-219.7,1765-171z M2157-85.5c-68.7-117.7-161.8-210.8-279.5-279.5
	S1631.3-468,1492-468s-267.8,34.3-385.5,103S895.7-203.2,827-85.5S724,160.7,724,300s34.3,267.8,103,385.5S988.8,896.3,1106.5,965
	s246.2,103,385.5,103s267.8-34.3,385.5-103s210.8-161.8,279.5-279.5c68.7-117.7,103-246.2,103-385.5S2225.7,32.2,2157-85.5z"/>
</svg>
