<svg xmlns="http://www.w3.org/2000/svg" x="0px" y="0px" viewBox="596 -596 1792 1792" style="enable-background:new 596 -596 1792 1792;">
<path d="M704.9,1087.1c-12.7-12.7-27.7-19-45-19c-17.3,0-32.3,6.3-45,19c-12.7,12.7-19,27.7-19,45c0,17.3,6.3,32.3,19,45
	c12.7,12.7,27.7,19,45,19c17.3,0,32.3-6.3,45-19c12.7-12.7,19-27.7,19-45C723.9,1114.7,717.6,1099.7,704.9,1087.1z M896.9,895.1
	c-12.7-12.7-27.7-19-45-19c-17.3,0-32.3,6.3-45,19c-12.7,12.7-19,27.7-19,45c0,17.3,6.3,32.3,19,45c12.7,12.7,27.7,19,45,19
	c17.3,0,32.3-6.3,45-19c12.7-12.7,19-27.7,19-45C915.9,922.7,909.6,907.7,896.9,895.1z M870.9,665.1l256,256l90-90l-256-256
	L870.9,665.1z M1280.9,511.1c-12.7-12.7-27.7-19-45-19c-17.3,0-32.3,6.3-45,19c-12.7,12.7-19,27.7-19,45c0,17.3,6.3,32.3,19,45
	c12.7,12.7,27.7,19,45,19c17.3,0,32.3-6.3,45-19c12.7-12.7,19-27.7,19-45C1299.9,538.7,1293.6,523.7,1280.9,511.1z M1961.4,12.6
	c-30.3-71-71.3-132.3-123-184s-113-92.7-184-123s-145.5-45.5-223.5-45.5s-152.5,15.2-223.5,45.5s-132.3,71.3-184,123
	c-51.7,51.7-92.7,113-123,184c-30.3,71-45.5,145.5-45.5,223.5c0,17.3,6.3,32.3,19,45c12.7,12.7,27.7,19,45,19c17.3,0,32.3-6.3,45-19
	c12.7-12.7,19-27.7,19-45c0-123.3,43.8-228.8,131.5-316.5s193.2-131.5,316.5-131.5s228.8,43.8,316.5,131.5s131.5,193.2,131.5,316.5
	c0,36.7-6,71.2-18,103.5s-24.5,57.2-37.5,74.5c-13,17.3-32.8,41.3-59.5,72c-22.7,26-40,47-52,63s-26.5,38.2-43.5,66.5
	c-17,28.3-29.3,58.7-37,91c-7.7,32.3-11.5,67.5-11.5,105.5c0,70.7-25,131-75,181s-110.3,75-181,75c-17.3,0-32.3,6.3-45,19
	c-12.7,12.7-19,27.7-19,45c0,17.3,6.3,32.3,19,45c12.7,12.7,27.7,19,45,19c106,0,196.5-37.5,271.5-112.5s112.5-165.5,112.5-271.5
	c0-27.3,2.5-52,7.5-74s13.8-43.3,26.5-64c12.7-20.7,23.8-37.3,33.5-50c9.7-12.7,24.8-30.7,45.5-54c23.3-27.3,41-48.8,53-64.5
	s26.7-38.2,44-67.5c17.3-29.3,29.8-60.5,37.5-93.5s11.5-69.2,11.5-108.5C2006.9,158.1,1991.8,83.6,1961.4,12.6z M1472.9,319.1
	c-12.7-12.7-27.7-19-45-19c-17.3,0-32.3,6.3-45,19c-12.7,12.7-19,27.7-19,45s6.3,32.3,19,45c12.7,12.7,27.7,19,45,19
	c17.3,0,32.3-6.3,45-19c12.7-12.7,19-27.7,19-45S1485.6,331.7,1472.9,319.1z M1676.9-12.9c-68.7-68.7-151.7-103-249-103
	c-97.3,0-180.3,34.3-249,103c-68.7,68.7-103,151.7-103,249c0,17.3,6.3,32.3,19,45s27.7,19,45,19c17.3,0,32.3-6.3,45-19
	c12.7-12.7,19-27.7,19-45c0-62,22-114.8,66-158.5s96.7-65.5,158-65.5c62,0,114.8,21.8,158.5,65.5c43.7,43.7,65.5,96.5,65.5,158.5
	c0,17.3,6.3,32.3,19,45s27.7,19,45,19s32.3-6.3,45-19s19-27.7,19-45C1779.9,138.7,1745.6,55.7,1676.9-12.9z M1907.9-403.9
	c-14-10.7-29.7-14.7-47-12s-31.7,11-43,25c-10.7,14-14.7,29.7-12,47s11,31.3,25,42c104,78,178.7,176.3,224,295
	c4.7,12.7,12.5,22.7,23.5,30s22.8,11,35.5,11c9.3,0,17-1.3,23-4c16.7-6.7,28.7-18,36-34c7.3-16,7.7-32.3,1-49
	C2118.6-195.6,2029.9-312.6,1907.9-403.9z M2042.9-582.9c-14-10.7-29.7-14.8-47-12.5s-31.3,10.8-42,25.5c-10.7,14-14.8,29.7-12.5,47
	c2.3,17.3,10.8,31.3,25.5,42c136.7,103.3,235.7,234.3,297,393c10.7,27.3,30.7,41,60,41c8,0,15.7-1.3,23-4c16.7-6.7,28.5-18,35.5-34
	s7.5-32.3,1.5-49C2313.3-316.6,2199.6-466.3,2042.9-582.9z"/>
</svg>
