<svg xmlns="http://www.w3.org/2000/svg" x="0px" y="0px" viewBox="596 -596 1792 1792" style="enable-background:new 596 -596 1792 1792;">
<path d="M2234,252l-651-651c-24.7-24.7-55-37-91-37c-36.7,0-66.7,12.3-90,37L751,252c-25.3,25.3-38,55.7-38,91
	c0,34.7,12.7,64.7,38,90l75,75c24,25.3,54,38,90,38s66-12.7,90-38l294-293v704c0,34.7,12.5,62.8,37.5,84.5
	c25,21.7,55.2,32.5,90.5,32.5h128c35.3,0,65.5-10.8,90.5-32.5c25-21.7,37.5-49.8,37.5-84.5V215l294,293c24,25.3,54,38,90,38
	c35.3,0,65.7-12.7,91-38l75-75c24.7-26,37-56,37-90C2271,308.3,2258.7,278,2234,252z"/>
</svg>
