<svg xmlns="http://www.w3.org/2000/svg" x="0px" y="0px" viewBox="596 -596 1792 1792" style="enable-background:new 596 -596 1792 1792;">
<path d="M1755.8,1015c-273.3,57.3-539.7,27.3-799-90c-72-32.7-172-88-300-166c-3.3-2.7-7.2-4.2-11.5-4.5c-4.3-0.3-8.2,0.3-11.5,2
	c-3.3,1.7-6,4-8,7s-2.3,7-1,12c1.3,5,4.7,10.5,10,16.5c22.7,27.3,50.7,56.5,84,87.5s77.5,66,132.5,105s112.5,73.7,172.5,104
	c60,30.3,129.7,55.8,209,76.5c79.3,20.7,158.7,31,238,31c78.7,0,155.2-8.2,229.5-24.5s137-35.7,188-58s98-47,141-74
	c43-27,74.8-49.7,95.5-68c20.7-18.3,35.3-32.8,44-43.5c10-12.7,15-23.8,15-33.5s-3.7-15.5-11-17.5c-7.3-2-16-1-26,3
	C2012.8,943.3,1882.5,988.3,1755.8,1015z M2277.8,741c-41.3-4-77.3-3.7-108,1c-33.3,4-67.7,14-103,30c-35.3,16-51,29.3-47,40l1.5,3
	c-0.7,0.7,0,1.2,2,1.5s3,0.5,3,0.5h4.5h5.5c1.7,0,4-0.2,7-0.5s5.8-0.7,8.5-1c2.7-0.3,6.3-0.7,11-1c4.7-0.3,9-0.8,13-1.5
	c0.7,0,8.2-0.7,22.5-2c14.3-1.3,24.7-2.3,31-3c6.3-0.7,16.8-1.3,31.5-2c14.7-0.7,26.3-0.7,35,0c8.7,0.7,18.5,1.5,29.5,2.5s20,3,27,6
	s12.2,6.8,15.5,11.5c11.3,14.7,9.2,47.5-6.5,98.5c-15.7,51-30.5,91.5-44.5,121.5c-6,12.7-6,20.7,0,24s14.7,0.3,26-9
	c34-27.3,62.3-68.7,85-124c13.3-32.7,22.8-66.8,28.5-102.5c5.7-35.7,4.8-58.8-2.5-69.5C2344.5,753,2319.1,745,2277.8,741z
	 M1959.8-267c0-22.7-4.2-47.2-12.5-73.5s-23.3-55-45-86s-48.7-58.7-81-83s-75.5-44.8-129.5-61.5s-114.3-25-181-25
	c-68,0-131.5,8.2-190.5,24.5s-109.5,38.2-151.5,65.5s-78,59-108,95s-52.3,73.7-67,113c-14.7,39.3-22,79-22,119l294,27
	c12-36.7,28-68.7,48-96s38.7-47.2,56-59.5c17.3-12.3,36-22.2,56-29.5s33.5-11.3,40.5-12s12.5-1,16.5-1c58,0,98.3,17.7,121,53
	c14,21.3,21,53.7,21,97v127c-33.3,1.3-66.5,3.5-99.5,6.5s-72.8,9.2-119.5,18.5c-46.7,9.3-90,20.8-130,34.5s-80.8,32.7-122.5,57
	c-41.7,24.3-77.2,52-106.5,83c-29.3,31-53.3,69.8-72,116.5c-18.7,46.7-28,98-28,154c0,60.7,10.3,114.8,31,162.5
	c20.7,47.7,48.3,85.3,83,113c34.7,27.7,73.8,49.5,117.5,65.5c43.7,16,89.5,23,137.5,21s94.7-9.7,140-23
	c45.3-13.3,87.8-34.5,127.5-63.5c39.7-29,72.2-63.2,97.5-102.5c9.3,14.7,17.7,25.7,25,33l19,20c12.7,13.3,32,32.8,58,58.5
	c26,25.7,52.3,50.8,79,75.5l227-224l-13-11c-9.3-7.3-20.3-18-33-32s-25.2-29.3-37.5-46c-12.3-16.7-23-36-32-58s-13.5-43.3-13.5-64
	V-267z M1320.3,228.5c21.7-31.7,50.7-55.3,87-71c36.3-15.7,71.8-26.8,106.5-33.5c34.7-6.7,71.7-10.7,111-12v162
	c0,37.3-4.7,71-14,101c-20,65.3-58,106.3-114,123c-48.7,14.7-95,7.3-139-22c-46.7-31.3-70-75.7-70-133
	C1287.8,298.3,1298.6,260.2,1320.3,228.5z"/>
</svg>
