<svg xmlns="http://www.w3.org/2000/svg" x="0px" y="0px" viewBox="596 -596 1792 1792" style="enable-background:new 596 -596 1792 1792;">
<path d="M2369,767c-12.7-12.7-27.7-19-45-19H660c-17.3,0-32.3,6.3-45,19s-19,27.7-19,45v128c0,17.3,6.3,32.3,19,45s27.7,19,45,19
	h1664c17.3,0,32.3-6.3,45-19c12.7-12.7,19-27.7,19-45V812C2388,794.7,2381.7,779.7,2369,767z M2369,383c-12.7-12.7-27.7-19-45-19
	H1044c-17.3,0-32.3,6.3-45,19c-12.7,12.7-19,27.7-19,45v128c0,17.3,6.3,32.3,19,45c12.7,12.7,27.7,19,45,19h1280
	c17.3,0,32.3-6.3,45-19c12.7-12.7,19-27.7,19-45V428C2388,410.7,2381.7,395.7,2369,383z M2369-1c-12.7-12.7-27.7-19-45-19H788
	c-17.3,0-32.3,6.3-45,19s-19,27.7-19,45v128c0,17.3,6.3,32.3,19,45s27.7,19,45,19h1536c17.3,0,32.3-6.3,45-19
	c12.7-12.7,19-27.7,19-45V44C2388,26.7,2381.7,11.7,2369-1z M2369-385c-12.7-12.7-27.7-19-45-19H1172c-17.3,0-32.3,6.3-45,19
	c-12.7,12.7-19,27.7-19,45v128c0,17.3,6.3,32.3,19,45c12.7,12.7,27.7,19,45,19h1152c17.3,0,32.3-6.3,45-19c12.7-12.7,19-27.7,19-45
	v-128C2388-357.3,2381.7-372.3,2369-385z"/>
</svg>
