<svg xmlns="http://www.w3.org/2000/svg" x="0px" y="0px" viewBox="596 -596 1792 1792" style="enable-background:new 596 -596 1792 1792;">
<path d="M1935-443c25.3,0,38,18.7,38,56c0,44.7-55,217.3-165,518l-117-21l114-328C1853.7-368,1897-443,1935-443z M1538.5,477.5
	c25.7,4.7,38.5,7,38.5,7l33,5.5c-22.7,16.7-46.3,39-71,67l-33-88C1502,470,1512.8,472.8,1538.5,477.5z M1224-464.5
	c6.7-11.7,16.3-17.5,29-17.5c32,0,73,73.3,123,220l121,351c-40-3.3-65-5-75-5c-20.7,0-37,3.3-49,10c-106-282-159-455.7-159-521
	C1214-440.3,1217.3-452.8,1224-464.5z M1160.5,285c17-18,32.2-27,45.5-27c19.3,0,40,10.7,62,32s42.5,48.3,61.5,81s34.8,62.3,47.5,89
	c12.7,26.7,23.3,50.7,32,72c21.3,52,32,86,32,102c0,9.3-3.8,18.3-11.5,27c-7.7,8.7-16.2,13-25.5,13c-22.7,0-56-23.3-100-70
	c-44-46.7-83.2-97.7-117.5-153s-51.5-95-51.5-119C1135,318.7,1143.5,303,1160.5,285z M1004,576.5c18-29.7,41.3-44.5,70-44.5
	c19.3,0,58.2,37,116.5,111s87.5,122.3,87.5,145c0,8-4.8,14.8-14.5,20.5S1245,817,1237,817c-37.3,0-81.7-34.7-133-104
	c-5.3-8-25.3-33.3-60-76c-22,22-33,44.3-33,67c0,54,28.2,107,84.5,159s111.8,78,166.5,78c36,0,67.5-12.2,94.5-36.5
	s40.5-54.2,40.5-89.5c0-9.3-0.7-16.3-2-21c22,0,35.7-0.7,41-2c6,137.3,54.7,209.3,146,216c0-1.3,1.3-6,4-14l3-12
	c0-20-6.2-49.2-18.5-87.5c-12.3-38.3-18.5-67.8-18.5-88.5c0-46,14.8-91.7,44.5-137c29.7-45.3,65.8-83.3,108.5-114
	c21.3-16,52.3-31.3,93-46c45.3-17.3,77.3-35.3,96-54c-2.7-24-9-42.3-19-55c-10.7-12.7-24-19-40-19h-23c-19.3,1.3-42.7,1.3-70,0
	c-27.3-1.3-55.7-2.7-85-4c-29.3-1.3-58.5-5.2-87.5-11.5s-54.8-14.2-77.5-23.5c-22.7-9.3-41.2-22.7-55.5-40
	c-14.3-17.3-21.5-37.3-21.5-60c0-20,4-31.7,12-35c8-7.3,24.3-11,49-11c76.7,0,166.8,8.8,270.5,26.5
	c103.7,17.7,174.2,42.8,211.5,75.5c13.3,12,23.5,30.7,30.5,56s10.8,46,11.5,62s1,38.3,1,67c0,172-50.7,314.3-152,427
	c-103.3,113.3-230.7,170-382,170c-104.7,0-198.5-27.3-281.5-82c-83-54.7-144.2-130.3-183.5-227c-16.7-42-25-76.7-25-104
	C977,636.3,986,606.2,1004,576.5z M972,962.5c72.7,89.7,158.7,153.5,258,191.5c74.7,28,149,42,223,42c101.3,0,194-18.3,278-55
	s154.3-86.7,211-150s100.7-138.3,132-225c31.3-86.7,47-180,47-280c0-42.7-2.3-79.5-7-110.5c-4.7-31-13.3-62.2-26-93.5
	c-12.7-31.3-32.2-57.3-58.5-78c-26.3-20.7-59.8-36-100.5-46c106-294.7,159-478,159-550c0-48.7-13.7-89.3-41-122
	c-27.3-32.7-64.7-49-112-49c-24.7,0-50.2,12-76.5,36c-26.3,24-49.8,52.8-70.5,86.5c-20.7,33.7-42.2,74.7-64.5,123
	c-22.3,48.3-40.3,90.8-54,127.5c-13.7,36.7-28.2,76.2-43.5,118.5c-15.3,42.3-25,68.8-29,79.5c-1.3-4-4-11.7-8-23
	c-129.3-387.3-237.7-581-325-581c-52,0-91.7,16.8-119,50.5s-41,77.2-41,130.5c0,70,54.3,259,163,567c-27.3-10-50.7-15-70-15
	c-40.7,0-81.3,20.3-122,61s-61,81.7-61,123c0,20,9.3,54.7,28,104c-62.7,17.3-108.2,46.7-136.5,88S863,608.7,863,676
	C863,777.3,899.3,872.8,972,962.5z"/>
</svg>
