<svg xmlns="http://www.w3.org/2000/svg" x="0px" y="0px" viewBox="596 -596 1792 1792" style="enable-background:new 596 -596 1792 1792;">
<path d="M1219,771c-83.3-48.7-149.3-114.7-198-198c-48.7-83.3-73-174.3-73-273s24.3-189.7,73-273c48.7-83.3,114.7-149.3,198-198
	s174.3-73,273-73V844C1393.3,844,1302.3,819.7,1219,771z M2157-85.5c-68.7-117.7-161.8-210.8-279.5-279.5S1631.3-468,1492-468
	s-267.8,34.3-385.5,103S895.7-203.2,827-85.5S724,160.7,724,300s34.3,267.8,103,385.5S988.8,896.3,1106.5,965s246.2,103,385.5,103
	s267.8-34.3,385.5-103s210.8-161.8,279.5-279.5c68.7-117.7,103-246.2,103-385.5S2225.7,32.2,2157-85.5z"/>
</svg>
