<svg xmlns="http://www.w3.org/2000/svg" x="0px" y="0px" viewBox="596 -596 1792 1792" style="enable-background:new 596 -596 1792 1792;">
<path d="M1291,332h402L1492,26L1291,332z M1753,396h-522l-104,160h-94l459-691l459,691h-94L1753,396z M2157-85.5
	c-68.7-117.7-161.8-210.8-279.5-279.5S1631.3-468,1492-468s-267.8,34.3-385.5,103S895.7-203.2,827-85.5S724,160.7,724,300
	s34.3,267.8,103,385.5S988.8,896.3,1106.5,965s246.2,103,385.5,103s267.8-34.3,385.5-103s210.8-161.8,279.5-279.5
	c68.7-117.7,103-246.2,103-385.5S2225.7,32.2,2157-85.5z"/>
</svg>
