<svg xmlns="http://www.w3.org/2000/svg" x="0px" y="0px" viewBox="596 -596 1792 1792" style="enable-background:new 596 -596 1792 1792;">
<path d="M1867,277L1548-42c-8-6.7-16-10-24-10c-9.3,0-17,3-23,9s-9,13.7-9,23v192h-352c-8.7,0-16.2,3.2-22.5,9.5s-9.5,13.8-9.5,22.5
	v192c0,8.7,3.2,16.2,9.5,22.5s13.8,9.5,22.5,9.5h352v192c0,8.7,3.2,16.2,9.5,22.5c6.3,6.3,13.8,9.5,22.5,9.5c9.3,0,17-3,23-9
	l320-320c6-6,9-13.7,9-23S1873,283,1867,277z M1963,573c-48.7,83.3-114.7,149.3-198,198s-174.3,73-273,73c-98.7,0-189.7-24.3-273-73
	c-83.3-48.7-149.3-114.7-198-198c-48.7-83.3-73-174.3-73-273s24.3-189.7,73-273c48.7-83.3,114.7-149.3,198-198s174.3-73,273-73
	c98.7,0,189.7,24.3,273,73c83.3,48.7,149.3,114.7,198,198s73,174.3,73,273S2011.7,489.7,1963,573z M2157-85.5
	c-68.7-117.7-161.8-210.8-279.5-279.5S1631.3-468,1492-468s-267.8,34.3-385.5,103S895.7-203.2,827-85.5S724,160.7,724,300
	s34.3,267.8,103,385.5S988.8,896.3,1106.5,965s246.2,103,385.5,103s267.8-34.3,385.5-103s210.8-161.8,279.5-279.5
	c68.7-117.7,103-246.2,103-385.5S2225.7,32.2,2157-85.5z"/>
</svg>
