<svg xmlns="http://www.w3.org/2000/svg" x="0px" y="0px" viewBox="596 -596 1792 1792" style="enable-background:new 596 -596 1792 1792;">
<path d="M1981,261l-50-50c-6.7-6.7-14.3-10-23-10c-8.7,0-16.3,3.3-23,10l-393,393l-393-393c-6.7-6.7-14.3-10-23-10s-16.3,3.3-23,10
	l-50,50c-6.7,6.7-10,14.3-10,23s3.3,16.3,10,23l466,466c6.7,6.7,14.3,10,23,10c8.7,0,16.3-3.3,23-10l466-466c6.7-6.7,10-14.3,10-23
	S1987.7,267.7,1981,261z M1981-123l-50-50c-6.7-6.7-14.3-10-23-10c-8.7,0-16.3,3.3-23,10l-393,393l-393-393c-6.7-6.7-14.3-10-23-10
	s-16.3,3.3-23,10l-50,50c-6.7,6.7-10,14.3-10,23s3.3,16.3,10,23l466,466c6.7,6.7,14.3,10,23,10c8.7,0,16.3-3.3,23-10l466-466
	c6.7-6.7,10-14.3,10-23S1987.7-116.3,1981-123z"/>
</svg>
