<svg xmlns="http://www.w3.org/2000/svg" x="0px" y="0px" viewBox="596 -596 1792 1792" style="enable-background:new 596 -596 1792 1792;">
<path d="M1537-287c-12.7,12.7-27.7,19-45,19c-17.3,0-32.3-6.3-45-19c-12.7-12.7-19-27.7-19-45s6.3-32.3,19-45
	c12.7-12.7,27.7-19,45-19c17.3,0,32.3,6.3,45,19c12.7,12.7,19,27.7,19,45S1549.7-299.7,1537-287z M2379,573c-6-6-13.7-9-23-9h-352
	c-14.7,0-24.7,6.7-30,20c-5.3,12.7-3,24.3,7,35l100,100c-44.7,60.7-107.8,111.8-189.5,153.5S1719.3,941.7,1620,955V308h192
	c17.3,0,32.3-6.3,45-19s19-27.7,19-45V116c0-17.3-6.3-32.3-19-45s-27.7-19-45-19h-192v-163c38.7-22.7,69.7-53.5,93-92.5
	s35-81.8,35-128.5c0-70.7-25-131-75-181s-110.3-75-181-75c-70.7,0-131,25-181,75s-75,110.3-75,181c0,46.7,11.7,89.5,35,128.5
	c23.3,39,54.3,69.8,93,92.5V52h-192c-17.3,0-32.3,6.3-45,19c-12.7,12.7-19,27.7-19,45v128c0,17.3,6.3,32.3,19,45
	c12.7,12.7,27.7,19,45,19h192v647c-99.3-13.3-189.8-40.8-271.5-82.5S947.7,779.7,903,719l100-100c10-10.7,12.3-22.3,7-35
	c-5.3-13.3-15.3-20-30-20H628c-9.3,0-17,3-23,9s-9,13.7-9,23v352c0,14.7,6.7,24.7,20,30c5.3,1.3,9.3,2,12,2c9.3,0,17-3,23-9l93-93
	c79.3,95.3,185.5,170.8,318.5,226.5s276.2,83.5,429.5,83.5s296.5-27.8,429.5-83.5S2160.7,973.3,2240,878l93,93c6.7,6,14.3,9,23,9
	c2.7,0,6.7-0.7,12-2c13.3-5.3,20-15.3,20-30V596C2388,586.7,2385,579,2379,573z"/>
</svg>
