<svg xmlns="http://www.w3.org/2000/svg" x="0px" y="0px" viewBox="596 -596 1792 1792" style="enable-background:new 596 -596 1792 1792;">
<path d="M2234,171.5l-75-75c-26-24.7-56.3-37-91-37c-35.3,0-65.3,12.3-90,37l-294,294v-704c0-34.7-12.7-64.7-38-90
	c-25.3-25.3-55.3-38-90-38h-128c-34.7,0-64.7,12.7-90,38c-25.3,25.3-38,55.3-38,90v704l-294-294c-24.7-24.7-54.7-37-90-37
	c-34.7,0-65,12.3-91,37l-74,75c-25.3,25.3-38,55.7-38,91c0,36,12.7,66,38,90l651,652c24.7,24.7,54.7,37,90,37c34.7,0,65-12.3,91-37
	l651-652c24.7-24.7,37-54.7,37-90C2271,227.8,2258.7,197.5,2234,171.5z"/>
</svg>
