<svg xmlns="http://www.w3.org/2000/svg" x="0px" y="0px" viewBox="596 -596 1792 1792" style="enable-background:new 596 -596 1792 1792;">
<path d="M2369,255L2113-1c-12.7-12.7-27.7-19-45-19c-17.3,0-32.3,6.3-45,19s-19,27.7-19,45v128h-384v-384h128c17.3,0,32.3-6.3,45-19
	s19-27.7,19-45s-6.3-32.3-19-45l-256-256c-12.7-12.7-27.7-19-45-19c-17.3,0-32.3,6.3-45,19l-256,256c-12.7,12.7-19,27.7-19,45
	s6.3,32.3,19,45c12.7,12.7,27.7,19,45,19h128v384H980V44c0-17.3-6.3-32.3-19-45c-12.7-12.7-27.7-19-45-19c-17.3,0-32.3,6.3-45,19
	L615,255c-12.7,12.7-19,27.7-19,45s6.3,32.3,19,45l256,256c12.7,12.7,27.7,19,45,19c17.3,0,32.3-6.3,45-19c12.7-12.7,19-27.7,19-45
	V428h384v384h-128c-17.3,0-32.3,6.3-45,19c-12.7,12.7-19,27.7-19,45s6.3,32.3,19,45l256,256c12.7,12.7,27.7,19,45,19
	c17.3,0,32.3-6.3,45-19l256-256c12.7-12.7,19-27.7,19-45s-6.3-32.3-19-45s-27.7-19-45-19h-128V428h384v128c0,17.3,6.3,32.3,19,45
	c12.7,12.7,27.7,19,45,19c17.3,0,32.3-6.3,45-19l256-256c12.7-12.7,19-27.7,19-45S2381.7,267.7,2369,255z"/>
</svg>
