<svg xmlns="http://www.w3.org/2000/svg" x="0px" y="0px" viewBox="596 -596 1792 1792" style="enable-background:new 596 -596 1792 1792;">
<path d="M2369,767c-12.7-12.7-27.7-19-45-19H660c-17.3,0-32.3,6.3-45,19s-19,27.7-19,45v128c0,17.3,6.3,32.3,19,45s27.7,19,45,19
	h1664c17.3,0,32.3-6.3,45-19c12.7-12.7,19-27.7,19-45V812C2388,794.7,2381.7,779.7,2369,767z M1985,383c-12.7-12.7-27.7-19-45-19
	h-896c-17.3,0-32.3,6.3-45,19c-12.7,12.7-19,27.7-19,45v128c0,17.3,6.3,32.3,19,45c12.7,12.7,27.7,19,45,19h896
	c17.3,0,32.3-6.3,45-19c12.7-12.7,19-27.7,19-45V428C2004,410.7,1997.7,395.7,1985,383z M2241-1c-12.7-12.7-27.7-19-45-19H788
	c-17.3,0-32.3,6.3-45,19s-19,27.7-19,45v128c0,17.3,6.3,32.3,19,45s27.7,19,45,19h1408c17.3,0,32.3-6.3,45-19
	c12.7-12.7,19-27.7,19-45V44C2260,26.7,2253.7,11.7,2241-1z M1857-385c-12.7-12.7-27.7-19-45-19h-640c-17.3,0-32.3,6.3-45,19
	c-12.7,12.7-19,27.7-19,45v128c0,17.3,6.3,32.3,19,45c12.7,12.7,27.7,19,45,19h640c17.3,0,32.3-6.3,45-19s19-27.7,19-45v-128
	C1876-357.3,1869.7-372.3,1857-385z"/>
</svg>
