<svg xmlns="http://www.w3.org/2000/svg" x="0px" y="0px" viewBox="596 -596 1792 1792" style="enable-background:new 596 -596 1792 1792;">
<path d="M1254-188.5c-7.3-7.7-11-16.8-11-27.5s3.7-19.8,11-27.5s16.3-11.5,27-11.5s19.8,3.8,27.5,11.5c7.7,7.7,11.5,16.8,11.5,27.5
	s-3.8,19.8-11.5,27.5c-7.7,7.7-16.8,11.5-27.5,11.5S1261.3-180.8,1254-188.5z M1675.5-188.5c-7.7-7.7-11.5-16.8-11.5-27.5
	s3.8-19.8,11.5-27.5c7.7-7.7,16.8-11.5,27.5-11.5c10.7,0,19.7,3.8,27,11.5c7.3,7.7,11,16.8,11,27.5s-3.7,19.8-11,27.5
	c-7.3,7.7-16.3,11.5-27,11.5C1692.3-177,1683.2-180.8,1675.5-188.5z M818,37c-20,20-30,44-30,72v430c0,28.7,10,53,30,73
	s44.3,30,73,30s52.8-10,72.5-30s29.5-44.3,29.5-73V109c0-28-10-52-30-72S919,7,891,7C862.3,7,838,17,818,37z M1033,26v666
	c0,30.7,10.7,56.7,32,78s47.3,32,78,32h74l1,227c0,28.7,10,53,30,73s44,30,72,30c28.7,0,53-10,73-30s30-44.3,30-73V802h138v227
	c0,28.7,10,53,30,73s44.3,30,73,30c28.7,0,53-10,73-30s30-44.3,30-73V802h75c30,0,55.7-10.7,77-32s32-47.3,32-78V26H1033z M1790-510
	c4.7-8.7,3-15.3-5-20c-8.7-4-15.3-2-20,6l-72,132c-63.3-28-130.3-42-201-42c-70.7,0-137.7,14-201,42l-72-132c-4.7-8-11.3-10-20-6
	c-8,4.7-9.7,11.3-5,20l71,131c-72,36.7-129.3,87.8-172,153.5S1029-88,1029-10h925c0-78-21.3-149.8-64-215.5s-99.7-116.8-171-153.5
	L1790-510z M2166,36.5C2146,16.8,2121.7,7,2093,7c-28,0-52,9.8-72,29.5s-30,43.8-30,72.5v430c0,28.7,10,53,30,73s44,30,72,30
	c28.7,0,53-10,73-30s30-44.3,30-73V109C2196,80.3,2186,56.2,2166,36.5z"/>
</svg>
