<svg xmlns="http://www.w3.org/2000/svg" x="0px" y="0px" viewBox="596 -596 1792 1792" style="enable-background:new 596 -596 1792 1792;">
<path d="M1581,277l-466-466c-6.7-6.7-14.3-10-23-10s-16.3,3.3-23,10l-50,50c-6.7,6.7-10,14.3-10,23s3.3,16.3,10,23l393,393l-393,393
	c-6.7,6.7-10,14.3-10,23s3.3,16.3,10,23l50,50c6.7,6.7,14.3,10,23,10s16.3-3.3,23-10l466-466c6.7-6.7,10-14.3,10-23
	S1587.7,283.7,1581,277z M1965,277l-466-466c-6.7-6.7-14.3-10-23-10s-16.3,3.3-23,10l-50,50c-6.7,6.7-10,14.3-10,23s3.3,16.3,10,23
	l393,393l-393,393c-6.7,6.7-10,14.3-10,23s3.3,16.3,10,23l50,50c6.7,6.7,14.3,10,23,10s16.3-3.3,23-10l466-466
	c6.7-6.7,10-14.3,10-23S1971.7,283.7,1965,277z"/>
</svg>
