<svg xmlns="http://www.w3.org/2000/svg" x="0px" y="0px" viewBox="596 -596 1792 1792" style="enable-background:new 596 -596 1792 1792;">
<path d="M1653.5,382.5c-28.3,66.3-69.2,121.7-122.5,166c-53.3,44.3-112,66.5-176,66.5c-64.7,0-114.8-20.3-150.5-61
	c-35.7-40.7-53.5-98.3-53.5-173c0-64.7,10.2-124.7,30.5-180s46.8-101,79.5-137c32.7-36,69.3-64.2,110-84.5
	c40.7-20.3,82-30.5,124-30.5c62.7,0,111.8,20.3,147.5,61c35.7,40.7,53.5,97,53.5,169C1696,248.3,1681.8,316.2,1653.5,382.5z
	 M2048-256c-141.3-141.3-326.7-212-556-212c-104,0-203.3,20.3-298,61c-94.7,40.7-176.3,95.3-245,164S825.7-92.7,785,2
	s-61,194-61,298s20.3,203.3,61,298s95.3,176.3,164,245s150.3,123.3,245,164c94.7,40.7,194,61,298,61c88.7,0,174.8-15,258.5-45
	c83.7-30,159.5-72.7,227.5-128c6.7-6,10.7-13.3,12-22c0.7-8-1.7-16-7-24l-41-49c-5.3-7.3-12.3-11.3-21-12s-16.7,2-24,8
	c-118,96-253,144-405,144c-86.7,0-169.5-17-248.5-51s-147-79.5-204-136.5S937,627.5,903,548.5S852,386.7,852,300s17-169.5,51-248.5
	s79.5-147,136.5-204s125-102.5,204-136.5s161.8-51,248.5-51c194.7,0,350,58,466,174s174,271.3,174,466c0,52-8,97.7-24,137
	s-35,69.2-57,89.5c-22,20.3-47.7,37-77,50s-53.7,21-73,24s-38.3,4.8-57,5.5c-21.3,0-36.2-4.3-44.5-13c-8.3-8.7-12.5-26-12.5-52
	c0-16,1.7-32,5-48l120-614c1.3-7.3,0.3-12.7-3-16c-5.3-7.3-9.7-11-13-11h-118c-3.3,0-6.5,2-9.5,6s-4.8,8-5.5,12l-11,56l-2,19
	c-25.3-42.7-60.7-75.8-106-99.5c-45.3-23.7-97-35.5-155-35.5c-88.7,0-170.7,25.8-246,77.5C1167.7-60.8,1108,9.3,1064,98
	s-66,185.3-66,290c0,116,29.5,205.8,88.5,269.5S1228.7,753,1336,753c62.7,0,120.5-14.7,173.5-44s96.8-66,131.5-110
	c3.3,33.3,14.3,61,33,83c31.3,35.3,78.7,53,142,53c4.7,0,10.2-0.2,16.5-0.5s11.5-0.5,15.5-0.5c50-1.3,98.3-10.5,145-27.5
	s90.5-41.8,131.5-74.5c41-32.7,73.8-77.7,98.5-135c24.7-57.3,37-123,37-197C2260,70.7,2189.3-114.7,2048-256z"/>
</svg>
