<svg xmlns="http://www.w3.org/2000/svg" x="0px" y="0px" viewBox="596 -596 1792 1792" style="enable-background:new 596 -596 1792 1792;">
<path d="M2191,210l-651-651c-25.3-25.3-55.7-38-91-38c-34.7,0-64.7,12.7-90,38l-75,75c-25.3,24-38,54-38,90s12.7,66,38,90l293,294
	H873c-34.7,0-62.8,12.5-84.5,37.5S756,200.7,756,236v128c0,35.3,10.8,65.5,32.5,90.5S838.3,492,873,492h704l-293,293
	c-25.3,25.3-38,55.7-38,91s12.7,65.7,38,91l75,75c26,24.7,56,37,90,37c34.7,0,65-12.3,91-37l651-651c24.7-24.7,37-55,37-91
	C2228,263.3,2215.7,233.3,2191,210z"/>
</svg>
