<svg xmlns="http://www.w3.org/2000/svg" x="0px" y="0px" viewBox="596 -596 1792 1792" style="enable-background:new 596 -596 1792 1792;">
<path d="M1455,641.5c-24.7,28.3-55,42.5-91,42.5H852c-36,0-66.3-14.2-91-42.5c-24.7-28.3-37-63.8-37-106.5s3-81.8,9-117.5
	s15.8-70,29.5-103s33.8-59,60.5-78c26.7-19,59-28.5,97-28.5c4,2.7,14,8.7,30,18s28.5,16.5,37.5,21.5s20.8,10.8,35.5,17.5
	c14.7,6.7,29,11.5,43,14.5s28,4.5,42,4.5s28-1.5,42-4.5s28.3-7.8,43-14.5c14.7-6.7,26.5-12.5,35.5-17.5s21.5-12.2,37.5-21.5
	s26-15.3,30-18c38,0,70.3,9.5,97,28.5c26.7,19,46.8,45,60.5,78s23.5,67.3,29.5,103s9,74.8,9,117.5S1479.7,613.2,1455,641.5z
	 M1268.5,175.5c-44.3,44.3-97.8,66.5-160.5,66.5c-62.7,0-116.2-22.2-160.5-66.5S881,77.7,881,15s22.2-116.2,66.5-160.5
	S1045.3-212,1108-212c62.7,0,116.2,22.2,160.5,66.5c44.3,44.3,66.5,97.8,66.5,160.5S1312.8,131.2,1268.5,175.5z M2251,547
	c-6,6-13.7,9-23,9h-576c-9.3,0-17-3-23-9s-9-13.7-9-23v-64c0-9.3,3-17,9-23s13.7-9,23-9h576c9.3,0,17,3,23,9s9,13.7,9,23v64
	C2260,533.3,2257,541,2251,547z M2249.5,289.5c-7,7-15.5,10.5-25.5,10.5h-568c-10,0-18.5-3.5-25.5-10.5S1620,274,1620,264v-56
	c0-10,3.5-18.5,10.5-25.5S1646,172,1656,172h568c10,0,18.5,3.5,25.5,10.5S2260,198,2260,208v56C2260,274,2256.5,282.5,2249.5,289.5z
	 M2251,35c-6,6-13.7,9-23,9h-576c-9.3,0-17-3-23-9s-9-13.7-9-23v-64c0-9.3,3-17,9-23s13.7-9,23-9h576c9.3,0,17,3,23,9s9,13.7,9,23
	v64C2260,21.3,2257,29,2251,35z M2469-421c-31.3-31.3-69-47-113-47H628c-44,0-81.7,15.7-113,47s-47,69-47,113V908
	c0,44,15.7,81.7,47,113c31.3,31.3,69,47,113,47h352v-96c0-9.3,3-17,9-23s13.7-9,23-9h64c9.3,0,17,3,23,9s9,13.7,9,23v96h768v-96
	c0-9.3,3-17,9-23s13.7-9,23-9h64c9.3,0,17,3,23,9s9,13.7,9,23v96h352c44,0,81.7-15.7,113-47c31.3-31.3,47-69,47-113V-308
	C2516-352,2500.3-389.7,2469-421z"/>
</svg>
