<svg xmlns="http://www.w3.org/2000/svg" x="0px" y="0px" viewBox="596 -596 1792 1792" style="enable-background:new 596 -596 1792 1792;">
<path d="M2030.5,557c-46-66-69-140.3-69-223c0-75.3,21.7-144.3,65-207c23.3-34,61.3-73.3,114-118c-34.7-42.7-69.3-76-104-100
	c-62.7-43.3-133.7-65-213-65c-47.3,0-105,11.3-173,34c-65.3,22.7-113,34-143,34c-22.7,0-68.7-10-138-30c-70-20-129-30-177-30
	c-114.7,0-209.3,48-284,144c-75.3,97.3-113,222-113,374c0,161.3,49,329,147,503c99.3,172.7,199.7,259,301,259c34,0,78-11.3,132-34
	c54-22,101.3-33,142-33c43.3,0,93.7,10.7,151,32c60.7,21.3,107.3,32,140,32c85.3,0,171-65.3,257-196c56-83.3,97-166.7,123-250
	C2129.2,665,2076.5,623,2030.5,557z M1812-500c-0.3-4-0.5-7.3-0.5-10c-0.7-2-1.5-5.7-2.5-11s-1.8-9-2.5-11
	c-117.3,27.3-200.7,76.7-250,148c-50,72-76,157.7-78,257c44.7-4,79.3-9.7,104-17c36-12,72-36,108-72c42-42,73-88,93-138
	c19.3-50,29-95.3,29-136C1812.5-492.7,1812.3-496,1812-500z"/>
</svg>
