<svg xmlns="http://www.w3.org/2000/svg" x="0px" y="0px" viewBox="596 -596 1792 1792" style="enable-background:new 596 -596 1792 1792;">
<path d="M2151,89c12.7,12.7,27.7,19,45,19c8,0,16.3-1.7,25-5c26-11.3,39-31,39-59v-448c0-17.3-6.3-32.3-19-45
	c-12.7-12.7-27.7-19-45-19h-448c-28,0-47.7,13.3-59,40c-11.3,26-6.7,49,14,69l144,144l-355,355l-355-355l144-144
	c20.7-20,25.3-43,14-69c-11.3-26.7-31-40-59-40H788c-17.3,0-32.3,6.3-45,19s-19,27.7-19,45V44c0,28,13.3,47.7,40,59c8,3.3,16,5,24,5
	c17.3,0,32.3-6.3,45-19L977-55l355,355L977,655L833,511c-20-20.7-43-25.3-69-14c-26.7,11.3-40,31-40,59v448c0,17.3,6.3,32.3,19,45
	s27.7,19,45,19h448c28,0,47.7-13.3,59-40c11.3-26,6.7-49-14-69l-144-144l355-355l355,355l-144,144c-20.7,20-25.3,43-14,69
	c11.3,26.7,31,40,59,40h448c17.3,0,32.3-6.3,45-19c12.7-12.7,19-27.7,19-45V556c0-28-13-47.7-39-59c-27.3-11.3-50.7-6.7-70,14
	l-144,144l-355-355l355-355L2151,89z"/>
</svg>
