<svg xmlns="http://www.w3.org/2000/svg" x="0px" y="0px" viewBox="596 -596 1792 1792" style="enable-background:new 596 -596 1792 1792;">
<path d="M1793-321l-256-256c-12.7-12.7-27.7-19-45-19s-32.3,6.3-45,19l-256,256c-12.7,12.7-19,27.7-19,45s6.3,32.3,19,45
	s27.7,19,45,19h128V812h-128c-17.3,0-32.3,6.3-45,19s-19,27.7-19,45s6.3,32.3,19,45l256,256c12.7,12.7,27.7,19,45,19s32.3-6.3,45-19
	l256-256c12.7-12.7,19-27.7,19-45s-6.3-32.3-19-45c-12.7-12.7-27.7-19-45-19h-128V-212h128c17.3,0,32.3-6.3,45-19
	c12.7-12.7,19-27.7,19-45S1805.7-308.3,1793-321z"/>
</svg>
