<svg xmlns="http://www.w3.org/2000/svg" x="0px" y="0px" viewBox="596 -596 1792 1792" style="enable-background:new 596 -596 1792 1792;">
<path d="M1665,281c-12.7,12.7-27.7,19-45,19h-256c-17.3,0-32.3-6.3-45-19c-12.7-12.7-19-27.7-19-45s6.3-32.3,19-45
	c12.7-12.7,27.7-19,45-19h256c17.3,0,32.3,6.3,45,19s19,27.7,19,45S1677.7,268.3,1665,281z M2241-1c-12.7-12.7-27.7-19-45-19H788
	c-17.3,0-32.3,6.3-45,19s-19,27.7-19,45v960c0,17.3,6.3,32.3,19,45s27.7,19,45,19h1408c17.3,0,32.3-6.3,45-19
	c12.7-12.7,19-27.7,19-45V44C2260,26.7,2253.7,11.7,2241-1z M2305-449c-12.7-12.7-27.7-19-45-19H724c-17.3,0-32.3,6.3-45,19
	s-19,27.7-19,45v256c0,17.3,6.3,32.3,19,45s27.7,19,45,19h1536c17.3,0,32.3-6.3,45-19c12.7-12.7,19-27.7,19-45v-256
	C2324-421.3,2317.7-436.3,2305-449z"/>
</svg>
