<svg xmlns="http://www.w3.org/2000/svg" x="0px" y="0px" viewBox="596 -596 1792 1792" style="enable-background:new 596 -596 1792 1792;">
<path d="M1581,693l-393-393l393-393c6.7-6.7,10-14.3,10-23s-3.3-16.3-10-23l-50-50c-6.7-6.7-14.3-10-23-10c-8.7,0-16.3,3.3-23,10
	l-466,466c-6.7,6.7-10,14.3-10,23s3.3,16.3,10,23l466,466c6.7,6.7,14.3,10,23,10c8.7,0,16.3-3.3,23-10l50-50c6.7-6.7,10-14.3,10-23
	S1587.7,699.7,1581,693z M1965,693l-393-393l393-393c6.7-6.7,10-14.3,10-23s-3.3-16.3-10-23l-50-50c-6.7-6.7-14.3-10-23-10
	c-8.7,0-16.3,3.3-23,10l-466,466c-6.7,6.7-10,14.3-10,23s3.3,16.3,10,23l466,466c6.7,6.7,14.3,10,23,10c8.7,0,16.3-3.3,23-10l50-50
	c6.7-6.7,10-14.3,10-23S1971.7,699.7,1965,693z"/>
</svg>
