<svg xmlns="http://www.w3.org/2000/svg" x="0px" y="0px" viewBox="596 -596 1792 1792" style="enable-background:new 596 -596 1792 1792;">
<path d="M1981,677l-466-466c-6.7-6.7-14.3-10-23-10c-8.7,0-16.3,3.3-23,10l-466,466c-6.7,6.7-10,14.3-10,23s3.3,16.3,10,23l50,50
	c6.7,6.7,14.3,10,23,10s16.3-3.3,23-10l393-393l393,393c6.7,6.7,14.3,10,23,10c8.7,0,16.3-3.3,23-10l50-50c6.7-6.7,10-14.3,10-23
	S1987.7,683.7,1981,677z M1981,293l-466-466c-6.7-6.7-14.3-10-23-10c-8.7,0-16.3,3.3-23,10l-466,466c-6.7,6.7-10,14.3-10,23
	s3.3,16.3,10,23l50,50c6.7,6.7,14.3,10,23,10s16.3-3.3,23-10L1492-4l393,393c6.7,6.7,14.3,10,23,10c8.7,0,16.3-3.3,23-10l50-50
	c6.7-6.7,10-14.3,10-23S1987.7,299.7,1981,293z"/>
</svg>
