<svg xmlns="http://www.w3.org/2000/svg" x="0px" y="0px" viewBox="596 -596 1792 1792" style="enable-background:new 596 -596 1792 1792;">
<path d="M1991,345l-91,91l-362,362c-12,12-27,18-45,18s-33-6-45-18l-91-91c-12.7-12.7-19-27.7-19-45c0-17.3,6.3-32.3,19-45l189-189
	h-502c-17.3,0-32.3-6.3-45-19c-12.7-12.7-19-27.7-19-45V236c0-17.3,6.3-32.3,19-45c12.7-12.7,27.7-19,45-19h502L1357-17
	c-12-12-18-27-18-45s6-33,18-45l91-91c12-12,27-18,45-18s33,6,45,18l362,362l91,91c12,12,18,27,18,45S2003,333,1991,345z M2157-85.5
	c-68.7-117.7-161.8-210.8-279.5-279.5S1631.3-468,1492-468s-267.8,34.3-385.5,103S895.7-203.2,827-85.5S724,160.7,724,300
	s34.3,267.8,103,385.5S988.8,896.3,1106.5,965s246.2,103,385.5,103s267.8-34.3,385.5-103s210.8-161.8,279.5-279.5
	c68.7-117.7,103-246.2,103-385.5S2225.7,32.2,2157-85.5z"/>
</svg>
