<svg xmlns="http://www.w3.org/2000/svg" x="0px" y="0px" viewBox="596 -596 1792 1792" style="enable-background:new 596 -596 1792 1792;">
<path d="M1876,300l266-154c30.7-17.3,50.5-43.2,59.5-77.5s4.8-66.8-12.5-97.5l-64-110c-17.3-30.7-43.2-50.5-77.5-59.5
	c-34.3-9-66.8-4.8-97.5,12.5L1684-33v-307c0-34.7-12.7-64.7-38-90c-25.3-25.3-55.3-38-90-38h-128c-34.7,0-64.7,12.7-90,38
	c-25.3,25.3-38,55.3-38,90v307l-266-153c-30.7-17.3-63.2-21.5-97.5-12.5S876.3-169.7,859-139L795-29c-17.3,30.7-21.5,63.2-12.5,97.5
	s28.8,60.2,59.5,77.5l266,154L842,454c-30.7,17.3-50.5,43.2-59.5,77.5s-4.8,66.8,12.5,97.5l64,110c17.3,30.7,43.2,50.5,77.5,59.5
	s66.8,4.8,97.5-12.5l266-153v307c0,34.7,12.7,64.7,38,90c25.3,25.3,55.3,38,90,38h128c34.7,0,64.7-12.7,90-38
	c25.3-25.3,38-55.3,38-90V633l266,153c30.7,17.3,63.2,21.5,97.5,12.5c34.3-9,60.2-28.8,77.5-59.5l64-110
	c17.3-30.7,21.5-63.2,12.5-97.5s-28.8-60.2-59.5-77.5L1876,300z"/>
</svg>
