<svg xmlns="http://www.w3.org/2000/svg" x="0px" y="0px" viewBox="596 -596 1792 1792" style="enable-background:new 596 -596 1792 1792;">
<path d="M1288,419c-11.3,22.7-27.3,40.5-48,53.5c-20.7,13-43.3,19.5-68,19.5c-32,0-59.3-10.3-82-31l-10-8c-24-22-36-51.7-36-89
	c0-35.3,12.5-65.5,37.5-90.5s55.2-37.5,90.5-37.5c24.7,0,47.3,6.5,68,19.5c20.7,13,36.7,30.8,48,53.5c16.7,35.3,44.7,53.7,84,55
	C1332.7,365.3,1304.7,383.6,1288,419z M1902.5,326.5c-25,25-55.2,37.5-90.5,37.5c-24.7,0-47.3-6.5-68-19.5s-36.7-30.8-48-53.5
	c-16.7-35.3-44.7-53.7-84-55c39.3-1.3,67.3-19.7,84-55c11.3-22.7,27.3-40.5,48-53.5s43.3-19.5,68-19.5c32,0,59.3,10.3,82,31l10,8
	c24,22,36,51.7,36,89C1940,271.3,1927.5,301.5,1902.5,326.5z M1519-58.5c-8.7-25-25-43.5-49-55.5c-68.7-33.3-141.3-50-218-50
	c-35.3,0-68.3,3.3-99,10c50-30,103-48.3,159-55c26.7-2.7,48-14.5,64-35.5s22.3-44.8,19-71.5c-2.7-26.7-14.5-48-35.5-64
	s-44.8-22.3-71.5-19c-96,11.3-185,45-267,101c31.3-46,70.3-88.7,117-128c20.7-17.3,32.2-39,34.5-65c2.3-26-4.8-49.3-21.5-70
	c-16.7-20.7-38.2-32.2-64.5-34.5c-26.3-2.3-49.8,4.8-70.5,21.5c-80.7,66.7-145.8,145.5-195.5,236.5S740.3-149.4,729-46L581,221
	L372,340c-14.7,8.7-24.3,21.2-29,37.5c-4.7,16.3-3.3,32.2,4,47.5l160,320c11.3,23.3,30.3,35,57,35c10,0,19.7-2.3,29-7l239-120
	l290,27c18.7,1.3,33.3,2.7,44,4h6c61.3,0,118.2-16.7,170.5-50c52.3-33.3,91.8-77.7,118.5-133c11.3-24,12.5-48.5,3.5-73.5
	S1439,384.3,1415,373c-12-6-25-9-39-9c14,0,27-3,39-9c24-11.3,40.5-29.5,49.5-54.5s7.8-49.5-3.5-73.5
	c-26.7-55.3-66.2-99.7-118.5-133S1233.3,44,1172,44c-2,0-5.2,0.2-9.5,0.5c-4.3,0.3-7.5,0.5-9.5,0.5c32-11.3,65-17,99-17
	c48,0,92.7,10.3,134,31c23.3,11.3,47.7,12.7,73,4s43.7-24.7,55-48C1526-9,1527.7-33.5,1519-58.5z M2420-180c-10,0-19.7,2.3-29,7
	L2152-53l-291-27c-18.7-1.3-32.7-2.7-42-4h-1h-6c-61.3,0-118.2,16.7-170.5,50S1549.7,43.6,1523,99c-11.3,24-12.5,48.5-3.5,73.5
	s25.5,43.2,49.5,54.5c12,6,25,9,39,9c-14,0-27,3-39,9c-24,11.3-40.5,29.5-49.5,54.5s-7.8,49.5,3.5,73.5
	c26.7,55.3,66.2,99.7,118.5,133s109.2,50,170.5,50c2,0,5.2-0.2,9.5-0.5c4.3-0.3,7.5-0.5,9.5-0.5c-32,11.3-65,17-99,17
	c-48,0-92.7-10.3-134-31c-23.3-11.3-47.7-12.7-73-4c-25.3,8.7-43.7,24.7-55,48c-12,24-13.7,48.5-5,73.5s25,43.5,49,55.5
	c68.7,33.3,141.3,50,218,50c35.3,0,68.3-3.3,99-10c-50,30-103,48.3-159,55c-26.7,2.7-48,14.5-64,35.5s-22.3,44.8-19,71.5
	c2.7,24,13.2,44,31.5,60s39.5,24,63.5,24c5.3,0,9.3-0.3,12-1c96-11.3,185-45,267-101c-31.3,46-70.3,88.7-117,128
	c-20.7,17.3-32.2,39-34.5,65s4.8,49.3,21.5,70c19.3,23.3,44,35,74,35c23.3,0,43.7-7.3,61-22c80.7-66.7,145.8-145.5,195.5-236.5
	c49.7-91,80.2-188.2,91.5-291.5l148-267l209-119c14.7-8.7,24.3-21.2,29-37.5s3.3-32.2-4-47.5l-160-320
	C2465.7-168.4,2446.7-180,2420-180z"/>
</svg>
