<svg xmlns="http://www.w3.org/2000/svg" x="0px" y="0px" viewBox="596 -596 1792 1792" style="enable-background:new 596 -596 1792 1792;" xml:space="preserve">
<path d="M1611.5-136c-51-50.7-112.2-76-183.5-76c-132.5,25.3-183.5,76S1168-24,1168,48c0,71.3,25.5,132.3,76.5,183
	s112.2,76,183.5,76c71.3,0,132.5-25.3,183.5-76S1688,119.3,1688,48C1688-24,1662.5-85.3,1611.5-136z M1608,287.5
	c-16.7,10.3-28.5,17.3-35.5,21s-18,9.3-33,17s-27.3,13-37,16c-9.7,3-21.3,6-35,9c-13.7,3-26.8,4.5-39.5,4.5
	c-12.7,0-25.8-1.5-39.5-4.5c-13.7-3-25.3-6-35-9c-9.7-3-22-8.3-37-16s-26-13.3-33-17s-18.8-10.7-35.5-21
	c-16.7-10.3-27.3-16.8-32-19.5h-5c-35.3,0-66.5,8.7-93.5,26s-48,38.8-63,64.5s-27.2,56.2-36.5,91.5s-15.5,68.2-18.5,98.5
	c-3,30.3-4.5,61.5-4.5,93.5c0,44.7,13.2,84.2,39.5,118.5S1096,812,1140,812h576c44,0,79.2-17.2,105.5-51.5S1861,686.7,1861,642
	c0-27.3-1.2-53.7-3.5-79c-2.3-25.3-6.2-52.8-11.5-82.5s-13.3-56.7-24-81s-23.8-46.7-39.5-67s-35.7-36.2-60-47.5s-51.8-17-82.5-17
	C1635.3,270.7,1624.7,277.2,1608,287.5z M2324-180c0-8.7-3.2-16.2-9.5-22.5c-6.3-6.3-13.8-9.5-22.5-9.5h-96v-224
	c0-44-15.7-81.7-47-113c-31.3-31.3-69-47-113-47H820c-44,0-81.7,15.7-113,47s-47,69-47,113v1472c0,44,15.7,81.7,47,113s69,47,113,47
	h1216c44,0,81.7-15.7,113-47c31.3-31.3,47-69,47-113V812h96c8.7,0,16.2-3.2,22.5-9.5c6.3-6.3,9.5-13.8,9.5-22.5V588
	c0-8.7-3.2-16.2-9.5-22.5c-6.3-6.3-13.8-9.5-22.5-9.5h-96V428h96c8.7,0,16.2-3.2,22.5-9.5c6.3-6.3,9.5-13.8,9.5-22.5V204
	c0-8.7-3.2-16.2-9.5-22.5c-6.3-6.3-13.8-9.5-22.5-9.5h-96V44h96c8.7,0,16.2-3.2,22.5-9.5c6.3-6.3,9.5-13.8,9.5-22.5V-180z
	 M2058.5,1058.5c-6.3,6.3-13.8,9.5-22.5,9.5H820c-8.7,0-16.2-3.2-22.5-9.5s-9.5-13.8-9.5-22.5V-436c0-8.7,3.2-16.2,9.5-22.5
	s13.8-9.5,22.5-9.5h1216c8.7,0,16.2,3.2,22.5,9.5c6.3,6.3,9.5,13.8,9.5,22.5v1472C2068,1044.7,2064.8,1052.2,2058.5,1058.5z"/>
</svg>
