<svg xmlns="http://www.w3.org/2000/svg" x="0px" y="0px" viewBox="596 -596 1792 1792" style="enable-background:new 596 -596 1792 1792;" xml:space="preserve">
<path d="M1819,763.5c-28,32.3-62.3,48.5-10340.7,0-75-16.2-103-48.5s-42-72.8-42-121.5c0-38,1.8-73.7,5.5-107
	s10.7-66.8,21-100.5c10.3-33.7,23.5-62.3,39.5-86s37.3-43,64-58s57-22.5,91-22.5c4,2.7,15.2,9.5,33.5,20.5s32.5,19.2,42.5,24.5
	s23.5,12,40.5,20s33.3,13.7,49,17s31.2,5,46.5,5s30.8-1.7,46.5-5s32-9,49-17s30.5-14.7,40.5-20s24.2-13.5,42.5-24.5
	s29.5-17.8,33.5-20.5c34,0,64.3,7.5,91,22.5s48,34.3,64,58s29.2,52.3,39.5,86s17.3,67.2,21,100.5s5.5,69,5.5,107
	C1861,690.7,1847,731.2,1819,763.5z M1611.5,231c-51,50.7-112.2,76-183.5,76s-132.5-25.3-183.5-76S1168,119.3,1168,48
	c0-72,25.5-133.3,76.5-184s112.2-76,183.5-76s132.5,25.3,183.5,76S1688-24,1688,48C1688,119.3,1662.5,180.3,1611.5,231z M2315,565
	c-6-6-13.7-9-23-9h-96V428h96c9.3,0,17-3,23-9s9-13.7,9-23V204c0-9.3-3-17-9-23s-13.7-9-23-9h-96V44h96c9.3,0,17-3,23-9s9-13.7,9-23
	v-192c0-9.3-3-17-9-23s-13.7-9-23-9h-96v-224c0-44-15.7-81.7-47-113s-69-47-113-47H820c-44,0-81.7,15.7-113,47s-47,69-47,113v1472
	c0,44,15.7,81.7,47,113s69,47,113,47h1216c44,0,81.7-15.7,113-47s47-69,47-113V812h96c9.3,0,17-3,23-9s9-13.7,9-23V588
	C2324,578.7,2321,571,2315,565z"/>
</svg>
