<svg xmlns="http://www.w3.org/2000/svg" x="0px" y="0px" viewBox="596 -596 1792 1792" style="enable-background:new 596 -596 1792 1792;">
<path d="M1014.3,132.5l1,265h-171L1014.3,132.5z M1816.3,436.5c-36,38-84.3,57-145,57h-52v-388h54c64,0,112.8,17.7,146.5,53
	s50.5,82,50.5,140C1870.3,352.5,1852.3,398.5,1816.3,436.5z M1286.3-102.5c-6.7-6.7-14.7-10-24-10h-332c-12,0-21,4.7-27,14l-556,757
	c-8.7,11.3-9.8,23-3.5,35s16.5,18,30.5,18h267c12,0,21.3-5,28-15l55-81h291v62c0,9.3,3.2,17.3,9.5,24c6.3,6.7,14.2,10,23.5,10h216
	c9.3,0,17.2-3.3,23.5-10c6.3-6.7,9.5-14.7,9.5-24l-1-756C1296.3-87.8,1292.9-95.8,1286.3-102.5z M1997.3-3.5
	c-84-72.7-192.7-109-326-109h-268c-9.3,0-17.3,3.3-24,10s-10,14.7-10,24v756c0,9.3,3.3,17.3,10,24s14.7,10,24,10h270
	c132.7,0,240.8-36.7,324.5-110c83.7-73.3,125.5-174.3,125.5-303S2081.3,69.2,1997.3-3.5z M2278.3,273.5
	c-1.3-17.3-4.8-40.8-10.5-70.5c-5.7-29.7-13.3-61.7-23-96c-9.7-34.3-24.8-71.5-45.5-111.5c-20.7-40-44.7-75.7-72-107h-43
	c25.3,39.3,47.3,80.8,66,124.5c18.7,43.7,32.3,80.8,41,111.5c8.7,30.7,15.3,61.2,20,91.5c4.7,30.3,7.2,50.3,7.5,60
	c0.3,9.7,0.5,17.2,0.5,22.5l-1,27c-0.7,18-3.7,42.2-9,72.5c-5.3,30.3-12.3,63-21,98c-8.7,35-22.5,72.3-41.5,112
	c-19,39.7-41.2,74.5-66.5,104.5h51c28.7-28.7,53.2-62.8,73.5-102.5c20.3-39.7,35.2-75.7,44.5-108c9.3-32.3,16.5-66.3,21.5-102
	s7.7-59.5,8-71.5c0.3-12,0.5-21.7,0.5-29L2278.3,273.5z M2462.3,273.5c-1.3-17.3-4.8-40.8-10.5-70.5s-13.3-61.7-23-96
	s-24.8-71.5-45.5-111.5s-44.7-75.7-72-107h-43c25.3,39.3,47.3,80.8,66,124.5c18.7,43.7,32.2,80.8,40.5,111.5
	c8.3,30.7,14.8,61.2,19.5,91.5s7.2,50.3,7.5,60s0.5,17.2,0.5,22.5l-1,27c-0.7,18-3.7,42.2-9,72.5c-5.3,30.3-12.3,63-21,98
	c-8.7,35-22.5,72.3-41.5,112c-19,39.7-41.2,74.5-66.5,104.5h51c28.7-28.7,53.3-62.8,74-102.5c20.7-39.7,35.7-75.7,45-108
	s16.5-66.3,21.5-102s7.7-59.5,8-71.5s0.5-21.7,0.5-29L2462.3,273.5z M2642.3,273.5c-0.7-17.3-3.8-40.8-9.5-70.5s-13.3-61.7-23-96
	s-24.8-71.5-45.5-111.5s-44.7-75.7-72-107h-43c25.3,39.3,47.3,80.8,66,124.5s32.2,80.8,40.5,111.5s14.8,61.2,19.5,91.5
	s7.2,50.3,7.5,60s0.5,17.2,0.5,22.5l-1,27c-0.7,18-3.7,42.2-9,72.5c-5.3,30.3-12.3,63-21,98s-22.3,72.3-41,112
	c-18.7,39.7-40.7,74.5-66,104.5h51c28.7-28.7,53.2-62.8,73.5-102.5c20.3-39.7,35.2-75.7,44.5-108s16.5-66.3,21.5-102
	s7.7-59.5,8-71.5s0.5-21.7,0.5-29L2642.3,273.5z"/>
</svg>
