<svg xmlns="http://www.w3.org/2000/svg" x="0px" y="0px" viewBox="596 -596 1792 1792" style="enable-background:new 596 -596 1792 1792;">
<path d="M1102.5,902.5c-25,25-55.2,37.5-90.5,37.5c-35.3,0-65.5-12.5-90.5-37.5S884,847.3,884,812s12.5-65.5,37.5-90.5
	S976.7,684,1012,684c35.3,0,65.5,12.5,90.5,37.5s37.5,55.2,37.5,90.5S1127.5,877.5,1102.5,902.5z M756,270c1.3-6.7,4.3-14,9-22
	L960,53c5.3-4.7,12.7-7.7,22-9h158v256H756V270z M1998.5,902.5c-25,25-55.2,37.5-90.5,37.5s-65.5-12.5-90.5-37.5
	S1780,847.3,1780,812s12.5-65.5,37.5-90.5s55.2-37.5,90.5-37.5s65.5,12.5,90.5,37.5s37.5,55.2,37.5,90.5S2023.5,877.5,1998.5,902.5z
	 M2155,163c-6,6-13.7,9-23,9h-224v224c0,9.3-3,17-9,23s-13.7,9-23,9h-192c-9.3,0-17-3-23-9s-9-13.7-9-23V172h-224c-9.3,0-17-3-23-9
	s-9-13.7-9-23V-52c0-9.3,3-17,9-23s13.7-9,23-9h224v-224c0-9.3,3-17,9-23s13.7-9,23-9h192c9.3,0,17,3,23,9s9,13.7,9,23v224h224
	c9.3,0,17,3,23,9s9,13.7,9,23v192C2164,149.3,2161,157,2155,163z M2401-449c-12.7-12.7-27.7-19-45-19H1204c-17.3,0-32.3,6.3-45,19
	c-12.7,12.7-19,27.7-19,45v320H980c-17.3,0-36.7,4.3-58,13c-21.3,8.7-38.3,19.3-51,32L673,159c-12.7,12.7-23.3,29.7-32,51
	s-13,40.7-13,58v416c-17.3,0-32.3,6.3-45,19s-19,27.7-19,45s6.3,32.3,19,45s27.7,19,45,19h128c0,70.7,25,131,75,181s110.3,75,181,75
	s131-25,181-75s75-110.3,75-181h384c0,70.7,25,131,75,181s110.3,75,181,75s131-25,181-75s75-110.3,75-181h192c17.3,0,32.3-6.3,45-19
	c12.7-12.7,19-27.7,19-45V-404C2420-421.3,2413.7-436.3,2401-449z"/>
</svg>
