<svg xmlns="http://www.w3.org/2000/svg" x="0px" y="0px" viewBox="596 -596 1792 1792" style="enable-background:new 596 -596 1792 1792;">
<path d="M2239.9-161c1.3,23.3-0.3,42.3-5,57l-300,987c-5.3,17.3-17,31.2-35,41.5s-36.7,15.5-56,15.5h-923c-80,0-128-23.3-144-70
	c-6.7-18-6.3-32.3,1-43c7.3-10,20-15,38-15h869c62,0,104.8-11.5,128.5-34.5s47.5-74.2,71.5-153.5l274-906c14.7-49.3,8.7-92.7-18-130
	c-26.7-37.3-64.7-56-114-56h-761c-8.7,0-25.7,3-51,9l1-3c-18.7-4-34.5-5.8-47.5-5.5s-25,4.2-36,11.5s-19.8,15.2-26.5,23.5
	s-13.2,19-19.5,32s-11.7,25-16,36s-9.3,22.7-15,35s-11.2,22.5-16.5,30.5c-4,5.3-9.7,12.3-17,21s-13.3,16.3-18,23
	c-4.7,6.7-7.7,12.7-9,18c-1.3,6-0.7,14.8,2,26.5c2.7,11.7,3.7,20.2,3,25.5c-2.7,25.3-11.8,57.5-27.5,96.5
	c-15.7,39-29.8,67.2-42.5,84.5c-2.7,3.3-10,10.8-22,22.5s-19.3,21.8-22,30.5c-2.7,3.3-2.8,12.7-0.5,28s3.2,26,2.5,32
	c-2.7,22.7-11,52.7-25,90s-28,68-42,92c-2,4-7.7,11.7-17,23s-15,20.7-17,28c-1.3,5.3-1.2,14.7,0.5,28s1.5,23.3-0.5,30
	c-5.3,25.3-15.3,55.8-30,91.5c-14.7,35.7-29.7,66.2-45,91.5c-4,6.7-9.5,14.5-16.5,23.5s-12.5,16.8-16.5,23.5c-4,6.7-6.7,13.7-8,21
	c-0.7,4,0.3,10.5,3,19.5s3.7,16.2,3,21.5c-0.7,9.3-2,21.7-4,37s-3,24.3-3,27c-14.7,40-14,82.3,2,127c18.7,52,51.8,95.8,99.5,131.5
	c47.7,35.7,97.2,53.5,148.5,53.5h923c43.3,0,84.2-14.5,122.5-43.5s63.8-64.8,76.5-107.5l275-906c14.7-48,8.7-91-18-129
	C2284.9-136.7,2265.2-151,2239.9-161z M1255.9-180c2.7-8.7,8.2-16.2,16.5-22.5c8.3-6.3,16.8-9.5,25.5-9.5h608c9.3,0,16,3.2,20,9.5
	s4.7,13.8,2,22.5l-21,64c-2.7,8.7-8.2,16.2-16.5,22.5s-16.8,9.5-25.5,9.5h-608c-9.3,0-16-3.2-20-9.5s-4.7-13.8-2-22.5L1255.9-180z
	 M1172.9,76c2.7-8.7,8.2-16.2,16.5-22.5c8.3-6.3,16.8-9.5,25.5-9.5h608c9.3,0,16,3.2,20,9.5s4.7,13.8,2,22.5l-21,64
	c-2.7,8.7-8.2,16.2-16.5,22.5s-16.8,9.5-25.5,9.5h-608c-9.3,0-16-3.2-20-9.5s-4.7-13.8-2-22.5L1172.9,76z"/>
</svg>
