<svg xmlns="http://www.w3.org/2000/svg" x="0px" y="0px" viewBox="596 -596 1792 1792" style="enable-background:new 596 -596 1792 1792;" xml:space="preserve">
<path d="M724,492v192c0,112.7,42.7,208.3,3.2,20.8,9.5,28.5c6.3,7.7,13.8,11.5,22.5,11.5h64
	c8.7,0,16.2-3.8,22.5-11.5c6.3-7.7,9.5-17.2,9.5-28.5v-110c42,14.7,84.7,22,128,22h768c43.3,0,86-7.3,128-22v118c0,9.3,3,17,9,23
	s13.7,9,23,9h64c9.3,0,17-3,23-9s9-13.7,9-23V970c85.3-78,128-173.3,128-286V492H724z M1291,53c-6-6-13.7-9-23-9c-9.3,0-17,3-23,9
	s-9,13.7-9,23s3,17,9,23s13.7,9,23,9c9.3,0,17-3,23-9s9-13.7,9-23S1297,59,1291,53z M1355-11c-6-6-13.7-9-23-9c-9.3,0-17,3-23,9
	s-9,13.7-9,23s3,17,9,23s13.7,9,23,9c9.3,0,17-3,23-9s9-13.7,9-23S1361-5,1355-11z M1291-75c-6-6-13.7-9-23-9c-9.3,0-17,3-23,9
	s-9,13.7-9,23s3,17,9,23s13.7,9,23,9c9.3,0,17-3,23-9s9-13.7,9-23S1297-69,1291-75z M1419-75c-6-6-13.7-9-23-9c-9.3,0-17,3-23,9
	s-9,13.7-9,23s3,17,9,23s13.7,9,23,9c9.3,0,17-3,23-9s9-13.7,9-23S1425-69,1419-75z M1355-139c-6-6-13.7-9-23-9c-9.3,0-17,3-23,9
	s-9,13.7-9,23s3,17,9,23s13.7,9,23,9c9.3,0,17-3,23-9s9-13.7,9-23S1361-133,1355-139z M1291-203c-6-6-13.7-9-23-9c-9.3,0-17,3-23,9
	s-9,13.7-9,23s3,17,9,23s13.7,9,23,9c9.3,0,17-3,23-9s9-13.7,9-23S1297-197,1291-203z M2379,309c-6-6-13.7-9-23-9H852v-640
	c0-35.3,12.5-65.5,37.5-90.5S944.7-468,980-468c34,0,63.3,11.7,88,35c-18.7,33.3-26.5,69.3-23.5,108s16.5,73.3,40.5,104l-22,22
	c-7.3,7.3-7.3,14.7,0,22l42,42c7.3,7.3,14.7,7.3,22,0l314-314c7.3-7.3,7.3-14.7,0-22l-42-42c-7.3-7.3-14.7-7.3-22,0l-22,22
	c-27.3-21.3-58.3-34.3-93-39c-34.7-4.7-67.3-0.7-98,12c-50.7-52-112-78-184-78c-70.7,0-131,25-181,75s-75,110.3-75,181v640h-96
	c-9.3,0-17,3-23,9s-9,13.7-9,23v64c0,9.3,3,17,9,23s13.7,9,23,9h1728c9.3,0,17-3,23-9s9-13.7,9-23v-64C2388,322.7,2385,315,2379,309
	z M1483-139c-6-6-13.7-9-23-9c-9.3,0-17,3-23,9s-9,13.7-9,23s3,17,9,23s13.7,9,23,9c9.3,0,17-3,23-9s9-13.7,9-23S1489-133,1483-139z
	 M1419-203c-6-6-13.7-9-23-9c-9.3,0-17,3-23,9s-9,13.7-9,23s3,17,9,23s13.7,9,23,9c9.3,0,17-3,23-9s9-13.7,9-23S1425-197,1419-203z
	 M1355-267c-6-6-13.7-9-23-9c-9.3,0-17,3-23,9s-9,13.7-9,23s3,17,9,23s13.7,9,23,9c9.3,0,17-3,23-9s9-13.7,9-23S1361-261,1355-267z
	 M1547-203c-6-6-13.7-9-23-9c-9.3,0-17,3-23,9s-9,13.7-9,23s3,17,9,23s13.7,9,23,9c9.3,0,17-3,23-9s9-13.7,9-23S1553-197,1547-203z
	 M1483-267c-6-6-13.7-9-23-9c-9.3,0-17,3-23,9s-9,13.7-9,23s3,17,9,23s13.7,9,23,9c9.3,0,17-3,23-9s9-13.7,9-23S1489-261,1483-267z
	 M1419-331c-6-6-13.7-9-23-9c-9.3,0-17,3-23,9s-9,13.7-9,23s3,17,9,23s13.7,9,23,9c9.3,0,17-3,23-9s9-13.7,9-23S1425-325,1419-331z
	 M1611-267c-6-6-13.7-9-23-9c-9.3,0-17,3-23,9s-9,13.7-9,23s3,17,9,23s13.7,9,23,9c9.3,0,17-3,23-9s9-13.7,9-23S1617-261,1611-267z
	 M1547-331c-6-6-13.7-9-23-9c-9.3,0-17,3-23,9s-9,13.7-9,23s3,17,9,23s13.7,9,23,9c9.3,0,17-3,23-9s9-13.7,9-23S1553-325,1547-331z
	 M1675-331c-6-6-13.7-9-23-9s-17,3-23,9s-9,13.7-9,23s3,17,9,23s13.7,9,23,9s17-3,23-9s9-13.7,9-23S1681-325,1675-331z"/>
</svg>
