<svg xmlns="http://www.w3.org/2000/svg" x="0px" y="0px" viewBox="596 -596 1792 1792" style="enable-background:new 596 -596 1792 1792;">
<path d="M2273,367c-12.7-12.7-27.7-19-45-19h-224V54l173-173c12.7-12.7,19-27.7,19-45s-6.3-32.3-19-45c-12.7-12.7-27.7-19-45-19
	c-17.3,0-32.3,6.3-45,19L1914-36h-844L897-209c-12.7-12.7-27.7-19-45-19s-32.3,6.3-45,19s-19,27.7-19,45s6.3,32.3,19,45L980,54v294
	H756c-17.3,0-32.3,6.3-45,19s-19,27.7-19,45s6.3,32.3,19,45s27.7,19,45,19h224c0,106.7,19.3,198,58,274L836,977
	c-11.3,13.3-16.5,28.8-15.5,46.5c1,17.7,7.8,32.5,20.5,44.5c12.7,10.7,27,16,43,16c18.7,0,34.7-7,48-21l183-207l15,14
	c9.3,8.7,23.8,19.5,43.5,32.5s41.7,26,66,39c24.3,13,53.3,24,87,33c33.7,9,67.5,13.5,101.5,13.5V92h128v896c32,0,64.3-4.3,97-13
	c32.7-8.7,60-18.3,82-29s43.7-22.8,65-36.5s35.3-23.2,42-28.5s11.7-9.7,15-13l198,197c12,12.7,27,19,45,19s33-6.3,45-19
	c12.7-12.7,19-27.7,19-45c0-17.3-6.3-32.3-19-45l-208-209c44.7-79.3,67-176,67-290h224c17.3,0,32.3-6.3,45-19
	c12.7-12.7,19-27.7,19-45S2285.7,379.7,2273,367z M1718.5-390.5c-62.3-62.3-137.8-93.5-226.5-93.5c-88.7,0-164.2,31.2-226.5,93.5
	c-62.3,62.3-93.5,137.8-93.5,226.5h640C1812-252.7,1780.8-328.2,1718.5-390.5z"/>
</svg>
