<svg xmlns="http://www.w3.org/2000/svg" x="0px" y="0px" viewBox="596 -596 1792 1792" style="enable-background:new 596 -596 1792 1792;">
<path d="M1331,858.5c-2.7-31-4.2-58.8-4.5-83.5c-0.3-24.7-0.2-56.8,0.5-96.5c0.7-39.7,1-62.2,1-67.5c0-34.7,0.2-87.3,0.5-158
	c0.3-70.7,0.5-123.7,0.5-159c18.7-6.7,52.3-10,101-10c38.7,0,70.2,0.7,94.5,2c24.3,1.3,52.3,4.8,84,10.5c31.7,5.7,58.5,14,80.5,25
	s44.5,26.5,67.5,46.5s43.5,44.7,61.5,74c27.3,44,41,104,41,180c0,223.3-125.3,335-376,335c-44,0-90.7-10.7-140-32
	C1337.7,911.7,1333.7,889.5,1331,858.5z M1328,110c0-17.3,0.2-43.7,0.5-79c0.3-35.3,0.5-62,0.5-80c0-34-1.3-84.7-4-152
	c-2.7-67.3-4-117.7-4-151c53.3-8.7,96.7-13,130-13c44,0,85.3,4.7,124,14c38.7,9.3,74.7,23.8,108,43.5c33.3,19.7,59.7,47,79,82
	c19.3,35,29,75.8,29,122.5c0,56-8.5,103.3-25.5,142s-41.8,68.5-74.5,89.5c-32.7,21-69.3,35.8-110,44.5c-40.7,8.7-88.3,13-143,13
	c-44.7,0-81-2.3-109-7C1328.3,163.7,1328,140.7,1328,110z M1019,1056c134-7.3,236.3-11,307-11c29.3,0,73.3,1,132,3
	c58.7,2,102.7,3,132,3c61.3,0,120-4.7,176-14s110.5-25.5,163.5-48.5s99-51.5,138-85.5s70.2-77.5,93.5-130.5
	c23.3-53,35-112.8,35-179.5c0-99.3-34.2-182-102.5-248c-68.3-66-153.8-110.7-256.5-134c35.3-16,63.3-29.3,84-40s45-25.7,73-45
	s49.5-38.5,64.5-57.5s28-43,39-72S2114-64.3,2114-99c0-50-9.3-95.8-28-137.5c-18.7-41.7-43.3-76.5-74-104.5s-66.7-51.7-108-71
	s-84.2-33.3-128.5-42c-44.3-8.7-89.8-13-136.5-13c-14.7,0-37.2-0.2-67.5-0.5c-30.3-0.3-53.2-0.5-68.5-0.5c-87.3,0-211.7,3.2-373,9.5
	S855.3-448.3,790-447l4,83c3.3,0.7,13.5,1.7,30.5,3s33.2,2.8,48.5,4.5s31.8,4,49.5,7s32.5,6.7,44.5,11s19.3,9.2,22,14.5
	c14.7,28.7,22,370.3,22,1025v30v35.5c0,7-0.2,18.3-0.5,34s-1.3,28.2-3,37.5s-3.5,20.2-5.5,32.5s-4.8,23.5-8.5,33.5s-7.8,19-12.5,27
	c-24,10-59.3,19-106,27s-75,13.3-85,16l-2,94C808,1067.3,885,1063.3,1019,1056z"/>
</svg>
