<svg xmlns="http://www.w3.org/2000/svg" x="0px" y="0px" viewBox="596 -596 1792 1792" style="enable-background:new 596 -596 1792 1792;">
<path d="M1236-340h512v128h-512V-340z M1716,428v160c0,17.3-6.3,32.3-19,45c-12.7,12.7-27.7,19-45,19h-320c-17.3,0-32.3-6.3-45-19
	c-12.7-12.7-19-27.7-19-45V428H596v480c0,44,15.7,81.7,47,113c31.3,31.3,69,47,113,47h1472c44,0,81.7-15.7,113-47
	c31.3-31.3,47-69,47-113V428H1716z M1364,428v128h256V428H1364z M2341-165c-31.3-31.3-69-47-113-47h-352v-160c0-26.7-9.3-49.3-28-68
	s-41.3-28-68-28h-576c-26.7,0-49.3,9.3-68,28c-18.7,18.7-28,41.3-28,68v160H756c-44,0-81.7,15.7-113,47s-47,69-47,113v384h1792V-52
	C2388-96,2372.3-133.7,2341-165z"/>
</svg>
