<svg xmlns="http://www.w3.org/2000/svg" x="0px" y="0px" viewBox="596 -596 1792 1792" style="enable-background:new 596 -596 1792 1792;">
<path d="M1575.2,194.7c-18.3-19.7-39.7-31.5-64-35.5c-24.3-4-48.5,0-72.5,12c-25.3,11.3-42.7,30.7-52,58c-9.3,27.3-9.2,54.7,0.5,82
	c9.7,27.3,27.5,46.7,53.5,58c35.3,21.3,72.5,19.3,111.5-6s55.8-59,50.5-101C1602.7,236.9,1593.6,214.4,1575.2,194.7z M1663.7,409.2
	c-40.7,50.7-91.3,78.7-152,84c-61.3,5.3-116.5-13.3-165.5-56s-74.8-94.3-77.5-155c-2-46,9.5-89.2,34.5-129.5s58.5-69.8,100.5-88.5
	c65.3-29.3,131-25,197,13s103.7,92.7,113,164C1721.1,302.6,1704.4,358.6,1663.7,409.2z M1877.7-254.3
	c-30.7,11.7-54.8,18.8-72.5,21.5s-47.5,6.7-89.5,12c-146.7,18.7-296,18.3-448-1c-40-4.7-69.2-8.5-87.5-11.5
	c-18.3-3-42.8-10.3-73.5-22c-30.7-11.7-56-26.8-76-45.5c12-17.3,28.7-31.7,50-43c21.3-11.3,39.7-18.7,55-22c15.3-3.3,37.3-7.3,66-12
	c183.3-32.7,372-33.3,566-2c32.7,5.3,56.3,9.5,71,12.5s34,10.3,58,22s42.7,26.5,56,44.5C1933.4-281.4,1908.4-265.9,1877.7-254.3z
	 M2017.7,697.2c5.3-18.7,7-33.7,5-45c-2-11.3-10-19-24-23c-149.3,98.7-318.5,148-507.5,148s-357.8-49.3-506.5-148l-18,9l-6,16
	c21.3,130.7,40.3,228,57,292c13.3,23.3,30.7,43.8,52,61.5c21.3,17.7,45.7,32.2,73,43.5c27.3,11.3,52.8,20.3,76.5,27
	c23.7,6.7,50.8,12.7,81.5,18c68.7,11.3,135.8,17.5,201.5,18.5c65.7,1,133-6.3,202-22c69-15.7,132.2-39.5,189.5-71.5
	c24-13.3,43.3-32.2,58-56.5s24.2-47.7,28.5-70s9-50.3,14-84s10.2-59.2,15.5-76.5C2009.7,728.2,2012.4,715.9,2017.7,697.2z
	 M2196.2-280.8c-0.3-20.7-5.8-37.7-16.5-51c-40-50.7-111.7-91.3-215-122c-198-58-423.3-74.7-676-50c-125.3,12-229.7,33.3-313,64
	c-20,7.3-36,13.5-48,18.5s-27.3,12.5-46,22.5c-18.7,10-33.7,20-45,30s-21.8,22.5-31.5,37.5s-15.5,31.2-17.5,48.5
	c6,48,13.3,100.7,22,158s16.5,106.5,23.5,147.5s16.3,94.8,28,161.5c11.7,66.7,20.5,116.7,26.5,150c1.3,6,3.2,17.7,5.5,35
	c2.3,17.3,4.3,30.5,6,39.5c1.7,9,4.7,20.3,9,34c4.3,13.7,10,25.3,17,35s15.5,18.5,25.5,26.5c97.3,74.7,228.7,121,394,139
	c238.7,25.3,442-4,610-88c22-11.3,40.2-21.7,54.5-31c14.3-9.3,28.8-22.7,43.5-40c14.7-17.3,23.7-36,27-56
	c56.7-325.3,93.7-543.7,111-655C2194.7-242.1,2196.6-260.1,2196.2-280.8z"/>
</svg>
