<svg xmlns="http://www.w3.org/2000/svg" x="0px" y="0px" viewBox="596 -596 1792 1792" style="enable-background:new 596 -596 1792 1792;">
<path d="M1993,512c-28.7,67.7-67.3,125.8-116,174.5c-48.7,48.7-106.5,87.5-173.5,116.5S1566,846.5,1492,846.5
	c-106.7,0-205.7-29.7-297-89l754-753c58,89.3,87,187.7,87,295C2036,373.5,2021.7,444.3,1993,512z M948,299.5c0-98.7,24.3-190,73-274
	c48.7-84,114.7-150.3,198-199s174.3-73,273-73c110,0,210,30.3,300,91l-755,754C977.7,507.2,948,407.5,948,299.5z M2199,0
	c-40.7-95-95.2-176.8-163.5-245.5c-68.3-68.7-150-123.3-245-164s-194.5-61-298.5-61s-203.5,20.3-298.5,61s-176.7,95.3-245,164
	S825.7-95,785,0s-61,194.8-61,299.5s20.3,204.7,61,300s95.2,177.3,163.5,246s150,123.3,245,164c95,40.7,194.5,61,298.5,61
	s203.5-20.3,298.5-61c95-40.7,176.7-95.3,245-164c68.3-68.7,122.8-150.7,163.5-246c40.7-95.3,61-195.3,61-300S2239.7,95,2199,0z"/>
</svg>
