<svg xmlns="http://www.w3.org/2000/svg" x="0px" y="0px" viewBox="596 -596 1792 1792" style="enable-background:new 596 -596 1792 1792;">
<path d="M876-276c-16,0-26.3,7.7-31,23L596,620v512c0,17.3,6.3,32.3,19,45s27.7,19,45,19h512c17.3,0,32.3-6.3,45-19
	c12.7-12.7,19-27.7,19-45V556c17.3,0,32.3-6.3,45-19c12.7-12.7,19-27.7,19-45v-768H876z M1364-276v704h256v-704H1364z M2139-253
	c-4.7-15.3-15-23-31-23h-424v768c0,17.3,6.3,32.3,19,45c12.7,12.7,27.7,19,45,19v576c0,17.3,6.3,32.3,19,45s27.7,19,45,19h512
	c17.3,0,32.3-6.3,45-19c12.7-12.7,19-27.7,19-45V620L2139-253z M1323-587c-6-6-13.7-9-23-9h-288c-9.3,0-17,3-23,9s-9,13.7-9,23v224
	h352v-224C1332-573.3,1329-581,1323-587z M1995-587c-6-6-13.7-9-23-9h-288c-9.3,0-17,3-23,9s-9,13.7-9,23v224h352v-224
	C2004-573.3,2001-581,1995-587z"/>
</svg>
