<svg xmlns="http://www.w3.org/2000/svg" x="0px" y="0px" viewBox="596 -596 1792 1792" style="enable-background:new 596 -596 1792 1792;">
<path d="M1536,346c-28,18-55,19.3-81,4c-28.7-12-43.2-35.5-43.5-70.5s13.8-59.2,42.5-72.5c24-14.7,49.7-14.3,77,1
	c27.3,15.3,41,37.3,41,66C1576,304,1564,328,1536,346z M1570.5,140c-47.7-27.3-94.8-30.7-141.5-10c-30,13.3-54.2,34.7-72.5,64
	c-18.3,29.3-26.8,60.3-25.5,93c2,44.7,20.7,82.3,56,113c35.3,30.7,75,44,119,40s80.7-24.3,110-61c29.3-36.7,41.3-77,36-121
	C1645.3,206.7,1618.2,167.3,1570.5,140z M1785-164.5c-16.7-8.3-31-13.7-43-16s-29-5.2-51-8.5c-140-22.7-276-22.3-408,1
	c-20,3.3-35.7,6.2-47,8.5s-24.7,7.5-40,15.5s-27.3,18.3-36,31c14,13.3,32.2,24.2,54.5,32.5s39.8,13.7,52.5,16
	c12.7,2.3,33.7,5.5,63,9.5c112.7,13.3,220.7,13.3,324,0c29.3-3.3,50.5-6,63.5-8s30.7-7.3,53-16s40.2-20,53.5-34
	C1814.7-145.7,1801.7-156.2,1785-164.5z M1853.5,684c-5,35.3-12.5,63.8-22.5,85.5s-26.3,38.8-49,51.5c-119.3,66-262,83.7-428,53
	c-104.7-18-172.7-54-204-108c-10-37.3-23.7-107.3-41-210l5-12l12-6c108,70.7,230,106,366,106s257.7-35.3,365-106
	c10,2.7,15.8,8.2,17.5,16.5c1.7,8.3,0.7,19-3,32s-5.5,21.8-5.5,26.5C1862.7,625,1858.5,648.7,1853.5,684z M1916,393
	c-2.7,14-9.2,27.3-19.5,40c-10.3,12.7-20.7,22.3-31,29s-23.5,14.3-39.5,23c-120.7,60.7-267.3,81.7-440,63
	c-119.3-13.3-214-46.7-284-100c-8.7-7.3-16-16.7-22-28c-6-11.3-10-20.3-12-27s-4.3-18.7-7-36s-4.3-27.7-5-31c-4-24-12-69.7-24-137
	s-21.7-124.3-29-171c-7.3-46.7-13.7-92.7-19-138c2.7-20,12.5-38,29.5-54s32.7-27.3,47-34s34.2-15,59.5-25c62.7-22.7,138-38,226-46
	c180.7-18,343-6,487,36c74.7,22,126.3,51.3,155,88c11.3,14.7,14,39.7,8,75C1974.7,57.3,1948,215,1916,393z M2175.5-383.5
	c-56.3-56.3-124.2-84.5-203.5-84.5h-960c-79.3,0-147.2,28.2-203.5,84.5S724-259.3,724-180v960c0,79.3,28.2,147.2,84.5,203.5
	c56.3,56.3,124.2,84.5,203.5,84.5h960c79.3,0,147.2-28.2,203.5-84.5c56.3-56.3,84.5-124.2,84.5-203.5v-960
	C2260-259.3,2231.8-327.2,2175.5-383.5z"/>
</svg>
