<svg xmlns="http://www.w3.org/2000/svg" x="0px" y="0px" viewBox="596 -596 1792 1792" style="enable-background:new 596 -596 1792 1792;">
<path d="M1673,119c-50-50-110.3-75-181-75c-70.7,0-131,25-181,75s-75,110.3-75,181s25,131,75,181s110.3,75,181,75
	c70.7,0,131-25,181-75s75-110.3,75-181S1723,169,1673,119z M1763.5,571.5c-75,75-165.5,112.5-271.5,112.5s-196.5-37.5-271.5-112.5
	S1108,406,1108,300s37.5-196.5,112.5-271.5S1386-84,1492-84s196.5,37.5,271.5,112.5S1876,194,1876,300S1838.5,496.5,1763.5,571.5z
	 M1854-62c-100-100-220.7-150-362-150s-262,50-362,150S980,158.7,980,300s50,262,150,362s220.7,150,362,150s262-50,362-150
	s150-220.7,150-362S1954,38,1854-62z M2081,548.5c-34,79-79.5,147-136.5,204s-125,102.5-204,136.5s-161.8,51-248.5,51
	c-86.7,0-169.5-17-248.5-51s-147-79.5-204-136.5S937,627.5,903,548.5S852,386.7,852,300s17-169.5,51-248.5s79.5-147,136.5-204
	s125-102.5,204-136.5s161.8-51,248.5-51c86.7,0,169.5,17,248.5,51s147,79.5,204,136.5s102.5,125,136.5,204s51,161.8,51,248.5
	S2115,469.5,2081,548.5z M2157-85.5c-68.7-117.7-161.8-210.8-279.5-279.5S1631.3-468,1492-468s-267.8,34.3-385.5,103
	S895.7-203.2,827-85.5S724,160.7,724,300s34.3,267.8,103,385.5S988.8,896.3,1106.5,965s246.2,103,385.5,103s267.8-34.3,385.5-103
	s210.8-161.8,279.5-279.5c68.7-117.7,103-246.2,103-385.5S2225.7,32.2,2157-85.5z"/>
</svg>
