<svg xmlns="http://www.w3.org/2000/svg" x="0px" y="0px" viewBox="596 -596 1792 1792" style="enable-background:new 596 -596 1792 1792;">
<path d="M991,739.5C932.3,787.8,864.7,812,788,812c-88,0-163.3-31.3-226-94s-94-138-94-226s31.3-163.3,94-226s138-94,226-94
	c48,0,93.7,10.3,137,31L737,454c-16,21.3-18.2,43.7-6.5,67c11.7,23.3,30.8,35,57.5,35h314C1086.7,630,1049.7,691.2,991,739.5z
	 M1027,280c38,42,63,91.3,75,148H916L1027,280z M1231,428c-14-99.3-56-183.3-126-252l99-132h480l-288,384H1231z M2422,718
	c-62.7,62.7-138,94-226,94s-163.3-31.3-226-94s-94-138-94-226c0-86.7,31-161.7,93-225l174,260c12,19.3,29.7,29,53,29
	c14,0,26-3.7,36-11c14.7-9.3,23.7-22.7,27-40c3.3-17.3,0-33.7-10-49l-174-260c40.7-16,81-24,121-24c88,0,163.3,31.3,226,94
	c62.7,62.7,94,138,94,226S2484.7,655.3,2422,718z M2512.5,175.5C2424.8,87.8,2319.3,44,2196,44c-67.3,0-131.3,14.7-192,44l-267-400
	c-13.3-18.7-31-28-53-28h-256c-17.3,0-32.3,6.3-45,19s-19,27.7-19,45s6.3,32.3,19,45s27.7,19,45,19h222l85,128h-435v-128H916
	c-17.3,0-32.3,6.3-45,19s-19,27.7-19,45s6.3,32.3,19,45s27.7,19,45,19h224L1003,99c-67.3-36.7-139-55-215-55
	c-123.3,0-228.8,43.8-316.5,131.5S340,368.7,340,492s43.8,228.8,131.5,316.5S664.7,940,788,940c112,0,210-36.7,294-110
	s133.7-164.7,149-274h197c22,0,39-8.7,51-26l353-469l65,98c-46.7,42-83.2,91.8-109.5,149.5S1748,427.3,1748,492
	c0,123.3,43.8,228.8,131.5,316.5S2072.7,940,2196,940c123.3,0,228.8-43.8,316.5-131.5S2644,615.3,2644,492
	S2600.2,263.2,2512.5,175.5z"/>
</svg>
