<svg xmlns="http://www.w3.org/2000/svg" x="0px" y="0px" viewBox="596 -596 1792 1792" style="enable-background:new 596 -596 1792 1792;">
<path d="M1162.5,693.5c-6.3-6.3-13.8-9.5-22.5-9.5h-64c-8.7,0-16.2,3.2-22.5,9.5s-9.5,13.8-9.5,22.5v64c0,8.7,3.2,16.2,9.5,22.5
	s13.8,9.5,22.5,9.5h64c8.7,0,16.2-3.2,22.5-9.5s9.5-13.8,9.5-22.5v-64C1172,707.3,1168.8,699.8,1162.5,693.5z M1162.5,437.5
	c-6.3-6.3-13.8-9.5-22.5-9.5h-64c-8.7,0-16.2,3.2-22.5,9.5s-9.5,13.8-9.5,22.5v64c0,8.7,3.2,16.2,9.5,22.5
	c6.3,6.3,13.8,9.5,22.5,9.5h64c8.7,0,16.2-3.2,22.5-9.5c6.3-6.3,9.5-13.8,9.5-22.5v-64C1172,451.3,1168.8,443.8,1162.5,437.5z
	 M1418.5,437.5c-6.3-6.3-13.8-9.5-22.5-9.5h-64c-8.7,0-16.2,3.2-22.5,9.5c-6.3,6.3-9.5,13.8-9.5,22.5v64c0,8.7,3.2,16.2,9.5,22.5
	c6.3,6.3,13.8,9.5,22.5,9.5h64c8.7,0,16.2-3.2,22.5-9.5c6.3-6.3,9.5-13.8,9.5-22.5v-64C1428,451.3,1424.8,443.8,1418.5,437.5z
	 M1162.5,181.5c-6.3-6.3-13.8-9.5-22.5-9.5h-64c-8.7,0-16.2,3.2-22.5,9.5s-9.5,13.8-9.5,22.5v64c0,8.7,3.2,16.2,9.5,22.5
	s13.8,9.5,22.5,9.5h64c8.7,0,16.2-3.2,22.5-9.5s9.5-13.8,9.5-22.5v-64C1172,195.3,1168.8,187.8,1162.5,181.5z M1930.5,693.5
	c-6.3-6.3-13.8-9.5-22.5-9.5h-64c-8.7,0-16.2,3.2-22.5,9.5s-9.5,13.8-9.5,22.5v64c0,8.7,3.2,16.2,9.5,22.5s13.8,9.5,22.5,9.5h64
	c8.7,0,16.2-3.2,22.5-9.5s9.5-13.8,9.5-22.5v-64C1940,707.3,1936.8,699.8,1930.5,693.5z M1674.5,437.5c-6.3-6.3-13.8-9.5-22.5-9.5
	h-64c-8.7,0-16.2,3.2-22.5,9.5c-6.3,6.3-9.5,13.8-9.5,22.5v64c0,8.7,3.2,16.2,9.5,22.5c6.3,6.3,13.8,9.5,22.5,9.5h64
	c8.7,0,16.2-3.2,22.5-9.5c6.3-6.3,9.5-13.8,9.5-22.5v-64C1684,451.3,1680.8,443.8,1674.5,437.5z M1418.5,181.5
	c-6.3-6.3-13.8-9.5-22.5-9.5h-64c-8.7,0-16.2,3.2-22.5,9.5c-6.3,6.3-9.5,13.8-9.5,22.5v64c0,8.7,3.2,16.2,9.5,22.5
	c6.3,6.3,13.8,9.5,22.5,9.5h64c8.7,0,16.2-3.2,22.5-9.5c6.3-6.3,9.5-13.8,9.5-22.5v-64C1428,195.3,1424.8,187.8,1418.5,181.5z
	 M1162.5-74.5c-6.3-6.3-13.8-9.5-22.5-9.5h-64c-8.7,0-16.2,3.2-22.5,9.5S1044-60.7,1044-52v64c0,8.7,3.2,16.2,9.5,22.5
	s13.8,9.5,22.5,9.5h64c8.7,0,16.2-3.2,22.5-9.5s9.5-13.8,9.5-22.5v-64C1172-60.7,1168.8-68.2,1162.5-74.5z M1930.5,437.5
	c-6.3-6.3-13.8-9.5-22.5-9.5h-64c-8.7,0-16.2,3.2-22.5,9.5s-9.5,13.8-9.5,22.5v64c0,8.7,3.2,16.2,9.5,22.5
	c6.3,6.3,13.8,9.5,22.5,9.5h64c8.7,0,16.2-3.2,22.5-9.5c6.3-6.3,9.5-13.8,9.5-22.5v-64C1940,451.3,1936.8,443.8,1930.5,437.5z
	 M1674.5,181.5c-6.3-6.3-13.8-9.5-22.5-9.5h-64c-8.7,0-16.2,3.2-22.5,9.5c-6.3,6.3-9.5,13.8-9.5,22.5v64c0,8.7,3.2,16.2,9.5,22.5
	c6.3,6.3,13.8,9.5,22.5,9.5h64c8.7,0,16.2-3.2,22.5-9.5c6.3-6.3,9.5-13.8,9.5-22.5v-64C1684,195.3,1680.8,187.8,1674.5,181.5z
	 M1418.5-74.5c-6.3-6.3-13.8-9.5-22.5-9.5h-64c-8.7,0-16.2,3.2-22.5,9.5c-6.3,6.3-9.5,13.8-9.5,22.5v64c0,8.7,3.2,16.2,9.5,22.5
	c6.3,6.3,13.8,9.5,22.5,9.5h64c8.7,0,16.2-3.2,22.5-9.5c6.3-6.3,9.5-13.8,9.5-22.5v-64C1428-60.7,1424.8-68.2,1418.5-74.5z
	 M1162.5-330.5c-6.3-6.3-13.8-9.5-22.5-9.5h-64c-8.7,0-16.2,3.2-22.5,9.5s-9.5,13.8-9.5,22.5v64c0,8.7,3.2,16.2,9.5,22.5
	s13.8,9.5,22.5,9.5h64c8.7,0,16.2-3.2,22.5-9.5s9.5-13.8,9.5-22.5v-64C1172-316.7,1168.8-324.2,1162.5-330.5z M1930.5,181.5
	c-6.3-6.3-13.8-9.5-22.5-9.5h-64c-8.7,0-16.2,3.2-22.5,9.5s-9.5,13.8-9.5,22.5v64c0,8.7,3.2,16.2,9.5,22.5s13.8,9.5,22.5,9.5h64
	c8.7,0,16.2-3.2,22.5-9.5s9.5-13.8,9.5-22.5v-64C1940,195.3,1936.8,187.8,1930.5,181.5z M1674.5-74.5c-6.3-6.3-13.8-9.5-22.5-9.5
	h-64c-8.7,0-16.2,3.2-22.5,9.5c-6.3,6.3-9.5,13.8-9.5,22.5v64c0,8.7,3.2,16.2,9.5,22.5c6.3,6.3,13.8,9.5,22.5,9.5h64
	c8.7,0,16.2-3.2,22.5-9.5c6.3-6.3,9.5-13.8,9.5-22.5v-64C1684-60.7,1680.8-68.2,1674.5-74.5z M1418.5-330.5
	c-6.3-6.3-13.8-9.5-22.5-9.5h-64c-8.7,0-16.2,3.2-22.5,9.5c-6.3,6.3-9.5,13.8-9.5,22.5v64c0,8.7,3.2,16.2,9.5,22.5
	c6.3,6.3,13.8,9.5,22.5,9.5h64c8.7,0,16.2-3.2,22.5-9.5c6.3-6.3,9.5-13.8,9.5-22.5v-64C1428-316.7,1424.8-324.2,1418.5-330.5z
	 M1930.5-74.5c-6.3-6.3-13.8-9.5-22.5-9.5h-64c-8.7,0-16.2,3.2-22.5,9.5S1812-60.7,1812-52v64c0,8.7,3.2,16.2,9.5,22.5
	s13.8,9.5,22.5,9.5h64c8.7,0,16.2-3.2,22.5-9.5s9.5-13.8,9.5-22.5v-64C1940-60.7,1936.8-68.2,1930.5-74.5z M1674.5-330.5
	c-6.3-6.3-13.8-9.5-22.5-9.5h-64c-8.7,0-16.2,3.2-22.5,9.5c-6.3,6.3-9.5,13.8-9.5,22.5v64c0,8.7,3.2,16.2,9.5,22.5
	c6.3,6.3,13.8,9.5,22.5,9.5h64c8.7,0,16.2-3.2,22.5-9.5c6.3-6.3,9.5-13.8,9.5-22.5v-64C1684-316.7,1680.8-324.2,1674.5-330.5z
	 M1930.5-330.5c-6.3-6.3-13.8-9.5-22.5-9.5h-64c-8.7,0-16.2,3.2-22.5,9.5s-9.5,13.8-9.5,22.5v64c0,8.7,3.2,16.2,9.5,22.5
	s13.8,9.5,22.5,9.5h64c8.7,0,16.2-3.2,22.5-9.5s9.5-13.8,9.5-22.5v-64C1940-316.7,1936.8-324.2,1930.5-330.5z M1684,844
	c0-8.7-3.2-16.2-9.5-22.5c-6.3-6.3-13.8-9.5-22.5-9.5h-320c-8.7,0-16.2,3.2-22.5,9.5c-6.3,6.3-9.5,13.8-9.5,22.5v224H916V-468h1152
	v1536h-384V844z M2177-577c-12.7-12.7-27.7-19-45-19H852c-17.3,0-32.3,6.3-45,19s-19,27.7-19,45v1664c0,17.3,6.3,32.3,19,45
	s27.7,19,45,19h1280c17.3,0,32.3-6.3,45-19c12.7-12.7,19-27.7,19-45V-532C2196-549.3,2189.7-564.3,2177-577z"/>
</svg>
