<svg xmlns="http://www.w3.org/2000/svg" x="0px" y="0px" viewBox="596 -596 1792 1792" style="enable-background:new 596 -596 1792 1792;">
<path d="M1012-468c-79.3,0-147.2,28.2-203.5,84.5S724-259.3,724-180v960c0,79.3,28.2,147.2,84.5,203.5
	c56.3,56.3,124.2,84.5,203.5,84.5h960c79.3,0,147.2-28.2,203.5-84.5c56.3-56.3,84.5-124.2,84.5-203.5v-960
	c0-79.3-28.2-147.2-84.5-203.5c-56.3-56.3-124.2-84.5-203.5-84.5H1012z M1320-92.5c28,5.7,54.3,15.5,79,29.5
	c24.7,14,43.5,34.2,56.5,60.5S1475,56,1475,94c0,74.7-35.7,129.3-107,164c95.3,28,143,94.7,143,200c0,75.3-26.7,132.2-80,170.5
	c-53.3,38.3-119,57.5-197,57.5H852v-787h371C1259.7-101,1292-98.2,1320-92.5z M1307,123c0-60-39.7-90-119-90h-163v184h176
	C1271.7,217,1307,185.7,1307,123z M1338,448c0-75.3-41.3-113-124-113h-189v217h185C1295.3,552,1338,517.3,1338,448z M1935.5,564
	c24.3-13.3,40.2-31.3,47.5-54h138c-41.3,127.3-130.3,191-267,191c-89.3,0-160.3-27.3-213-82c-52.7-54.7-79-127-79-217
	c0-86.7,27.3-158.7,82-216c54.7-57.3,124.7-86,210-86c86,0,153.8,29.5,203.5,88.5c49.7,59,74.5,132.5,74.5,220.5
	c0,13.3-0.3,23.3-1,30h-411c0,46,12,81.7,36,107c24,25.3,58.7,38,104,38C1886,584,1911.2,577.3,1935.5,564z M1759,251
	c-23.3,22-36.3,51.7-39,89h254c-7.3-81.3-48.7-122-124-122C1812.7,218,1782.3,229,1759,251z M1688,29h319v-77h-319V29z"/>
</svg>
