<svg xmlns="http://www.w3.org/2000/svg" x="0px" y="0px" viewBox="596 -596 1792 1792" style="enable-background:new 596 -596 1792 1792;">
<path d="M709,699c31.3,31.3,47,69,47,113s-15.7,81.7-47,113c-31.3,31.3-69,47-113,47s-81.7-15.7-113-47s-47-69-47-113
	s15.7-81.7,47-113c31.3-31.3,69-47,113-47S677.7,667.7,709,699z M1221,699c31.3,31.3,47,69,47,113s-15.7,81.7-47,113
	c-31.3,31.3-69,47-113,47s-81.7-15.7-113-47c-31.3-31.3-47-69-47-113s15.7-81.7,47-113c31.3-31.3,69-47,113-47
	S1189.7,667.7,1221,699z M1221,187c31.3,31.3,47,69,47,113s-15.7,81.7-47,113c-31.3,31.3-69,47-113,47s-81.7-15.7-113-47
	c-31.3-31.3-47-69-47-113s15.7-81.7,47-113c31.3-31.3,69-47,113-47S1189.7,155.7,1221,187z M1989,699c31.3,31.3,47,69,47,113
	s-15.7,81.7-47,113s-69,47-113,47s-81.7-15.7-113-47s-47-69-47-113s15.7-81.7,47-113c31.3-31.3,69-47,113-47S1957.7,667.7,1989,699z
	 M2501,699c31.3,31.3,47,69,47,113s-15.7,81.7-47,113s-69,47-113,47s-81.7-15.7-113-47c-31.3-31.3-47-69-47-113s15.7-81.7,47-113
	c31.3-31.3,69-47,113-47S2469.7,667.7,2501,699z M1989,187c31.3,31.3,47,69,47,113s-15.7,81.7-47,113s-69,47-113,47
	s-81.7-15.7-113-47s-47-69-47-113s15.7-81.7,47-113s69-47,113-47S1957.7,155.7,1989,187z M2501,187c31.3,31.3,47,69,47,113
	s-15.7,81.7-47,113s-69,47-113,47s-81.7-15.7-113-47c-31.3-31.3-47-69-47-113s15.7-81.7,47-113c31.3-31.3,69-47,113-47
	S2469.7,155.7,2501,187z M2501-325c31.3,31.3,47,69,47,113s-15.7,81.7-47,113s-69,47-113,47s-81.7-15.7-113-47
	c-31.3-31.3-47-69-47-113s15.7-81.7,47-113c31.3-31.3,69-47,113-47S2469.7-356.3,2501-325z M732,676c-37.3-37.3-82.7-56-136-56
	s-98.7,18.7-136,56c-37.3,37.3-56,82.7-56,136s18.7,98.7,56,136s82.7,56,136,56s98.7-18.7,136-56c37.3-37.3,56-82.7,56-136
	S769.3,713.3,732,676z M1244,676c-37.3-37.3-82.7-56-136-56c-53.3,0-98.7,18.7-136,56c-37.3,37.3-56,82.7-56,136s18.7,98.7,56,136
	s82.7,56,136,56c53.3,0,98.7-18.7,136-56c37.3-37.3,56-82.7,56-136S1281.3,713.3,1244,676z M732,164c-37.3-37.3-82.7-56-136-56
	s-98.7,18.7-136,56s-56,82.7-56,136s18.7,98.7,56,136s82.7,56,136,56s98.7-18.7,136-56c37.3-37.3,56-82.7,56-136
	S769.3,201.3,732,164z M1244,164c-37.3-37.3-82.7-56-136-56c-53.3,0-98.7,18.7-136,56s-56,82.7-56,136s18.7,98.7,56,136
	s82.7,56,136,56c53.3,0,98.7-18.7,136-56c37.3-37.3,56-82.7,56-136S1281.3,201.3,1244,164z M732-348c-37.3-37.3-82.7-56-136-56
	s-98.7,18.7-136,56s-56,82.7-56,136s18.7,98.7,56,136s82.7,56,136,56s98.7-18.7,136-56c37.3-37.3,56-82.7,56-136
	S769.3-310.7,732-348z M2012,676c-37.3-37.3-82.7-56-136-56s-98.7,18.7-136,56c-37.3,37.3-56,82.7-56,136s18.7,98.7,56,136
	s82.7,56,136,56s98.7-18.7,136-56c37.3-37.3,56-82.7,56-136S2049.3,713.3,2012,676z M1244-348c-37.3-37.3-82.7-56-136-56
	c-53.3,0-98.7,18.7-136,56s-56,82.7-56,136s18.7,98.7,56,136s82.7,56,136,56c53.3,0,98.7-18.7,136-56c37.3-37.3,56-82.7,56-136
	S1281.3-310.7,1244-348z M2524,676c-37.3-37.3-82.7-56-136-56c-53.3,0-98.7,18.7-136,56c-37.3,37.3-56,82.7-56,136s18.7,98.7,56,136
	c37.3,37.3,82.7,56,136,56c53.3,0,98.7-18.7,136-56s56-82.7,56-136S2561.3,713.3,2524,676z M2012,164c-37.3-37.3-82.7-56-136-56
	s-98.7,18.7-136,56s-56,82.7-56,136s18.7,98.7,56,136s82.7,56,136,56s98.7-18.7,136-56c37.3-37.3,56-82.7,56-136
	S2049.3,201.3,2012,164z M2524,164c-37.3-37.3-82.7-56-136-56c-53.3,0-98.7,18.7-136,56c-37.3,37.3-56,82.7-56,136s18.7,98.7,56,136
	c37.3,37.3,82.7,56,136,56c53.3,0,98.7-18.7,136-56s56-82.7,56-136S2561.3,201.3,2524,164z M2012-348c-37.3-37.3-82.7-56-136-56
	s-98.7,18.7-136,56s-56,82.7-56,136s18.7,98.7,56,136s82.7,56,136,56s98.7-18.7,136-56c37.3-37.3,56-82.7,56-136
	S2049.3-310.7,2012-348z M2524-348c-37.3-37.3-82.7-56-136-56c-53.3,0-98.7,18.7-136,56c-37.3,37.3-56,82.7-56,136s18.7,98.7,56,136
	c37.3,37.3,82.7,56,136,56c53.3,0,98.7-18.7,136-56s56-82.7,56-136S2561.3-310.7,2524-348z"/>
</svg>
