<svg xmlns="http://www.w3.org/2000/svg" x="0px" y="0px" viewBox="596 -596 1792 1792" style="enable-background:new 596 -596 1792 1792;">
<path d="M1965.3-134.5c-20.3-32.3-47.8-58.3-82.5-78s-72.3-34.7-113-45c-40.7-10.3-87.3-17.8-140-22.5v-252h-154v245
	c-26.7,0-67.3,0.7-122,2v-247h-154v252c-22,0.7-54.3,1-97,1l-212-1v164h111c50.7,0,80.3,22.7,89,68v287c6.7,0,12,0.3,16,1h-16v402
	c-5.3,34-24.7,51-58,51h-111l-31,183h200c12.7,0,31,0.2,55,0.5s42,0.5,54,0.5v255h154V880c28,0.7,68.7,1,122,1v251h154V877
	c54.7-2.7,103.2-7.7,145.5-15c42.3-7.3,82.8-18.8,121.5-34.5s71-35.2,97-58.5s47.5-53,64.5-89s27.8-77.7,32.5-125
	c8.7-92.7-6.3-164-45-214c-38.7-50-97-84.3-175-103c99.3-50.7,143-136.7,131-258C1997.8-64,1985.6-102.2,1965.3-134.5z M1777.3,576
	c-6.3,15.3-14.5,28.7-24.5,40s-23.2,21.3-39.5,30c-16.3,8.7-32.2,15.7-47.5,21c-15.3,5.3-33.8,10-55.5,14c-21.7,4-40.7,6.8-57,8.5
	c-16.3,1.7-35.8,3-58.5,4c-22.7,1-40.3,1.5-53,1.5c-12.7,0-28.7-0.2-48-0.5c-19.3-0.3-31.7-0.5-37-0.5V356c5.3,0,21.2-0.3,47.5-1
	c26.3-0.7,47.8-1,64.5-1c16.7,0,39.7,1,69,3c29.3,2,54,5,74,9s41.8,10.2,65.5,18.5c23.7,8.3,42.8,18.5,57.5,30.5
	c14.7,12,27,27.3,37,46s15,40,15,64C1786.8,543.7,1783.6,560.7,1777.3,576z M1706.8,100c-6,15.3-15,28.2-27,38.5s-24.3,19.3-37,27
	c-12.7,7.7-28.8,13.8-48.5,18.5c-19.7,4.7-36.8,8.3-51.5,11c-14.7,2.7-33,4.5-55,5.5s-38.7,1.7-50,2c-11.3,0.3-26.8,0.3-46.5,0
	c-19.7-0.3-31.2-0.5-34.5-0.5v-307c4.7,0,17.8-0.2,39.5-0.5c21.7-0.3,39.7-0.7,54-1c14.3-0.3,33.7,0.5,58,2.5
	c24.3,2,44.8,4.7,61.5,8c16.7,3.3,35,8.8,55,16.5s36,17,48,28s22.2,25,30.5,42c8.3,17,12.5,36.5,12.5,58.5
	C1715.8,67.7,1712.8,84.7,1706.8,100z"/>
</svg>
