<svg xmlns="http://www.w3.org/2000/svg" x="0px" y="0px" viewBox="596 -596 1792 1792" style="enable-background:new 596 -596 1792 1792;">
<path d="M1492,1116c-48.7,0-90.2-17.2-124.5-51.5c-34.3-34.3-51.5-75.8-51.5-124.5c0-10.7,5.3-16,16-16c10.7,0,16,5.3,16,16
	c0,39.3,14.2,73.2,42.5,101.5c28.3,28.3,62.2,42.5,101.5,42.5c10.7,0,16,5.3,16,16S1502.7,1116,1492,1116z M1108-20
	c0-34,8-69,24-105s39-70.3,69-103s70.5-59.5,121.5-80.5S1430-340,1492-340c88.7,0,163.2,19.5,223.5,58.5S1820-193.7,1848-135
	L971,625C1062.3,451,1108,236,1108-20z M2026,256l-111,97c40.7,181.3,116.3,334.3,227,459h-757l-149,129
	c0.7,70.7,25.8,130.8,75.5,180.5c49.7,49.7,109.8,74.5,180.5,74.5c70.7,0,131-25,181-75s75-110.3,75-181h448c34.7,0,64.7-12.7,90-38
	c25.3-25.3,38-55.3,38-90C2166,678.7,2066.7,493.3,2026,256z M2388.5-591c-9-0.7-16.8,1.7-23.5,7l-418,363
	c-35.3-62-84.7-114.5-148-157.5S1662.7-449,1580-461c5.3-12.7,8-25.7,8-39c0-26.7-9.3-49.3-28-68s-41.3-28-68-28
	c-26.7,0-49.3,9.3-68,28c-18.7,18.7-28,41.3-28,68c0,13.3,2.7,26.3,8,39c-126.7,18.7-229,71.5-307,158.5S980-121.3,980-20
	c0,92.7-6.5,179.3-19.5,260s-29.7,149.3-50,206c-20.3,56.7-45.2,109.5-74.5,158.5c-29.3,49-57.7,88.8-85,119.5s-57.7,60-91,88
	c0,22.7,6.3,44.7,19,66l-186,161c-6.7,5.3-10.2,12.5-10.5,21.5s2.2,16.8,7.5,23.5l84,96c5.3,6.7,12.5,10.3,21.5,11s16.8-1.7,23.5-7
	L2491-438c6.7-6,10.2-13.5,10.5-22.5c0.3-9-2.2-16.8-7.5-23.5l-84-96C2404.7-586.7,2397.5-590.3,2388.5-591z"/>
</svg>
