<?xml version="1.0" encoding="utf-8"?>
<!-- Generator: Adobe Illustrator 19.1.0, SVG Export Plug-In . SVG Version: 6.00 Build 0)  -->
<svg version="1.1" id="Слой_1" xmlns="http://www.w3.org/2000/svg" xmlns:xlink="http://www.w3.org/1999/xlink" x="0px" y="0px"
	 viewBox="596 -596 1792 1792" style="enable-background:new 596 -596 1792 1792;" xml:space="preserve">
<path d="M1263.5-330.1c30.3-30.3,45.5-67.2,45.5-110.5c0-42.7-15.2-79.2-45.5-109.5s-66.8-45.5-109.5-45.5s-79.3,15.2-110,45.5
	c-30.7,30.3-46,66.8-46,109.5c0,43.3,15.3,80.2,46,110.5c30.7,30.3,67.3,45.5,110,45.5S1233.2-299.8,1263.5-330.1z M1698,328.4l1-1
	l-3-3c-4.7-8-9.3-13.7-14-17l-424-521c-21.3-26.7-57-40-107-40c-60,0-97.7,11.3-113,34l-211,381l46,299c0,1.3,0.7,4.5,2,9.5
	s3.8,11.5,7.5,19.5s8.3,15.3,14,22c5.7,6.7,13.7,12,24,16s21.8,5,34.5,3l7-2c4.7-0.7,10.3-3.2,17-7.5c6.7-4.3,13-9.7,19-16
	s10.7-15.5,14-27.5s3.7-26,1-42l-35-222l85-164l-5,416C928,866,862.3,1072,861,1083.4c-2,18,1.2,37,9.5,57s22.2,34.3,41.5,43
	c35.3,16.7,69.7,16.3,103-1c8-4,17.3-14.7,28-32c16.7-28,47.3-106,92-234l161-457l-1-354l-122-139c-7.3-8.7-8.7-15.7-4-21l3-3
	c2.7-1.3,6.3-0.8,11,1.5s9.3,7.5,14,15.5l367,438c9.3,15.3,25.2,26.7,47.5,34c22.3,7.3,43.5,5.2,63.5-6.5c20-11.7,30-34.2,30-67.5
	C1705,346.7,1702.7,337,1698,328.4z M1211,760.4l124,351c1.3,6,4,14.3,8,25h1c6,12.7,15.7,24.3,29,35c13.3,10.7,30.3,18,51,22
	c20.7,4,42.7-1.3,66-16c31.3-18,43.3-50.3,36-97c-4-21.3-18-63-42-125l-24-55c-16-37.3-39.2-93.3-69.5-168s-59.8-149.7-88.5-225
	L1211,760.4z M1713,421.4c0,5.3-3.7,11-11,17l-3,2c-2,1.3-4.3,2.7-7,4c-2.7,1.3-5,1.7-7,1c206,326,347,546.3,423,661
	c4,6.7,9.3,16.8,16,30.5c6.7,13.7,11.8,22.3,15.5,26c3.7,3.7,8.5,3.8,14.5,0.5c2-1.3,3-3.7,3-7c0-5.3-10.3-24.3-31-57L1713,421.4z"
	/>
</svg>
