<svg xmlns="http://www.w3.org/2000/svg" x="0px" y="0px" viewBox="596 -596 1792 1792" style="enable-background:new 596 -596 1792 1792;">
<path d="M724-276c0-17.3-6.3-32.3-19-45s-27.7-19-45-19H532c-17.3,0-32.3,6.3-45,19s-19,27.7-19,45V940h256V684h1536v256h256V492
	c0-17.3-6.3-32.3-19-45c-12.7-12.7-27.7-19-45-19H724V-276z M1225,289c-50,50-110.3,75-181,75c-70.7,0-131-25-181-75
	s-75-110.3-75-181s25-131,75-181s110.3-75,181-75c70.7,0,131,25,181,75s75,110.3,75,181S1275,239,1225,289z M1364,364V-20
	c0-17.3,6.3-32.3,19-45c12.7-12.7,27.7-19,45-19h704c106,0,196.5,37.5,271.5,112.5S2516,194,2516,300v64H1364z"/>
</svg>
