<svg xmlns="http://www.w3.org/2000/svg" x="0px" y="0px" viewBox="596 -596 1792 1792" style="enable-background:new 596 -596 1792 1792;">
<path d="M2316-133h-511v-124h511V-133z M2264,364h-408c4-60,24.7-107.5,62-142.5s86-52.5,146-52.5C2185.3,169,2252,234,2264,364z
	 M1913.5,693.5C1875.2,653.2,1856,596,1856,522h658c1.3-20,2-35.7,2-47c0-91.3-16.8-174-50.5-248c-33.7-74-84.7-133.7-153-179
	C2244.2,2.7,2164-20,2072-20c-137.3,0-249.5,45.8-336.5,137.5S1605,324.3,1605,463c0,143.3,42.2,259,126.5,347s197.8,132,340.5,132
	c218,0,360.3-102.3,427-307h-221c-11.3,36.7-36.7,65.7-76,87c-39.3,21.3-80,32-122,32C2007.3,754,1951.8,733.8,1913.5,693.5z
	 M745,357h302c132.7,0,199,60,199,180c0,111.3-68.3,167-205,167H745V357z M745-127h260c126.7,0,190,48,190,144
	c0,51.3-15.2,89.2-45.5,113.5C1119.2,154.8,1078,167,1026,167H745V-127z M468,918h611c46.7,0,91.3-4.3,134-13
	c42.7-8.7,83-22.7,121-42s70.8-43,98.5-71c27.7-28,49.7-62.5,66-103.5S1523,602,1523,552c0-80.7-19.3-148.7-58-204s-96-93.7-172-115
	c114.7-54.7,172-142.3,172-263c0-60.7-10.5-112-31.5-154s-51-74.2-90-96.5s-81.2-38.2-126.5-47.5c-45.3-9.3-97-14-155-14H468V918z"
	/>
</svg>
