<svg xmlns="http://www.w3.org/2000/svg" x="0px" y="0px" viewBox="596 -596 1792 1792" style="enable-background:new 596 -596 1792 1792;">
<path d="M2260-340.6c0-34.7-12.7-64.7-38-90c-25.3-25.3-55.3-38-90-38c-307.3,256-606,384-896,384H756c-44,0-81.7,15.7-113,47
	s-47,69-47,113v192c0,44,15.7,81.7,47,113s69,47,113,47h122c-11.3,36-18.7,72.8-22,110.5c-3.3,37.7-4.5,70.5-3.5,98.5s6,61.7,15,101
	s16.7,69,23,89c6.3,20,17,51.5,32,94.5s24.8,72.2,29.5,87.5c30.7,28,74.7,46.5,132,55.5c57.3,9,113.5,5.2,168.5-11.5
	c55-16.7,92.2-44.3,111.5-83c-25.3-20-45.8-36.8-61.5-50.5c-15.7-13.7-31.7-30.3-48-50c-16.3-19.7-27.5-38-33.5-55s-8-36.3-6-58
	s9.7-43.5,23-65.5c-25.3-26-38.7-56.8-40-92.5c-1.3-35.7,9-69.2,31-100.5s52.3-53.3,91-66c263.3,22,534,148.7,812,380
	c34.7,0,64.7-12.7,90-38c25.3-25.3,38-55.3,38-90v-384c35.3,0,65.5-12.5,90.5-37.5s37.5-55.2,37.5-90.5s-12.5-65.5-37.5-90.5
	s-55.2-37.5-90.5-37.5V-340.6z M1364,306.4v-270c249.3-27.3,505.3-141.7,768-343v954C1871.3,448,1615.3,334.4,1364,306.4z"/>
</svg>
