<svg xmlns="http://www.w3.org/2000/svg" x="0px" y="0px" viewBox="596 -596 1792 1792" style="enable-background:new 596 -596 1792 1792;">
<path d="M596-84v768h1664V-84H596z M2388,780c0,9.3-3,17-9,23s-13.7,9-23,9H500c-9.3,0-17-3-23-9s-9-13.7-9-23v-960c0-9.3,3-17,9-23
	s13.7-9,23-9h1856c9.3,0,17,3,23,9s9,13.7,9,23v288h128v384h-128V780z M2606.5,17.5c-25-25-55.2-37.5-90.5-37.5v-160
	c0-44-15.7-81.7-47-113s-69-47-113-47H500c-44,0-81.7,15.7-113,47s-47,69-47,113v960c0,44,15.7,81.7,47,113s69,47,113,47h1856
	c44,0,81.7-15.7,113-47s47-69,47-113V620c35.3,0,65.5-12.5,90.5-37.5s37.5-55.2,37.5-90.5V108C2644,72.7,2631.5,42.5,2606.5,17.5z"
	/>
</svg>
