<?xml version="1.0" encoding="utf-8"?>
<!-- Generator: Adobe Illustrator 19.1.0, SVG Export Plug-In . SVG Version: 6.00 Build 0)  -->
<svg version="1.1" id="Слой_1" xmlns="http://www.w3.org/2000/svg" xmlns:xlink="http://www.w3.org/1999/xlink" x="0px" y="0px"
	 viewBox="596 -596 1792 1792" style="enable-background:new 596 -596 1792 1792;" xml:space="preserve">
<path d="M1564-154L1713-5l-148,148L1564-154z M1565,457l148,148l-149,149L1565,457z M1434,141l-255-255l-93,93l320,321l-320,321
	l93,93l255-255v611l464-464l-306-306L1898-6l-464-464V141z M2121,665.5c-21.3,104.3-50.5,190-87.5,257s-83.8,121.2-140.5,162.5
	s-117.2,70.2-181.5,86.5S1574,1196,1492,1196s-155.2-8.2-219.5-24.5c-64.3-16.3-124.8-45.2-181.5-86.5s-103.5-95.5-140.5-162.5
	s-66.2-152.7-87.5-257S831,439.3,831,300s10.7-261.2,32-365.5c21.3-104.3,50.5-190,87.5-257S1034.3-443.7,1091-485
	c56.7-41.3,117.2-70.2,181.5-86.5C1336.8-587.8,1410-596,1492-596s155.2,8.2,219.5,24.5s124.8,45.2,181.5,86.5
	s103.5,95.5,140.5,162.5s66.2,152.7,87.5,257c21.3,104.3,32,226.2,32,365.5S2142.3,561.2,2121,665.5z"/>
</svg>
