<svg xmlns="http://www.w3.org/2000/svg" x="0px" y="0px" viewBox="596 -596 1792 1792" style="enable-background:new 596 -596 1792 1792;">
<path d="M1895-109c-2.7,0-6.7,0.7-12,2L1487-9l171-463c3.3-6.7,5-12.7,5-18c0-11.3-4.3-21.2-13-29.5c-8.7-8.3-19.3-12.5-32-12.5
	h-328c-10.7,0-20,3-28,9s-13.3,13.7-16,23l-201,825c-3.3,16,1,29,13,39c8.7,7.3,19,11,31,11c5.3,0,9.3-0.3,12-1l406-101l-197,808
	c-2.7,10.7-1.2,20.7,4.5,30s14.2,15.7,25.5,19c6.7,1.3,11.3,2,14,2c19.3,0,33.3-8.3,42-25L1936-50c7.3-16,5-30.7-7-44
	C1919-104,1907.6-109,1895-109z"/>
</svg>
