<svg xmlns="http://www.w3.org/2000/svg" x="0px" y="0px" viewBox="596 -596 1792 1792" style="enable-background:new 596 -596 1792 1792;">
<path d="M1108,684V-84H596v768H1108z M2516-180c0-44-15.7-81.7-47-113s-69-47-113-47H500c-44,0-81.7,15.7-113,47s-47,69-47,113v960
	c0,44,15.7,81.7,47,113s69,47,113,47h1856c44,0,81.7-15.7,113-47s47-69,47-113V620c35.3,0,65.5-12.5,90.5-37.5s37.5-55.2,37.5-90.5
	V108c0-35.3-12.5-65.5-37.5-90.5S2551.3-20,2516-20V-180z M2388,492v288c0,9.3-3,17-9,23s-13.7,9-23,9H500c-9.3,0-17-3-23-9
	s-9-13.7-9-23v-960c0-9.3,3-17,9-23s13.7-9,23-9h1856c9.3,0,17,3,23,9s9,13.7,9,23v288h128v384H2388z"/>
</svg>
