<svg xmlns="http://www.w3.org/2000/svg" x="0px" y="0px" viewBox="596 -596 1792 1792" style="enable-background:new 596 -596 1792 1792;">
<path d="M1070.5,710.5c-25,25-55.2,37.5-90.5,37.5s-65.5-12.5-90.5-37.5S852,655.3,852,620c0-35.3,12.5-65.5,37.5-90.5
	S944.7,492,980,492c35.3,0,65.5,12.5,90.5,37.5s37.5,55.2,37.5,90.5C1108,655.3,1095.5,685.5,1070.5,710.5z M2094.5,710.5
	c-25,25-55.2,37.5-90.5,37.5s-65.5-12.5-90.5-37.5S1876,655.3,1876,620c0-35.3,12.5-65.5,37.5-90.5s55.2-37.5,90.5-37.5
	s65.5,12.5,90.5,37.5s37.5,55.2,37.5,90.5C2132,655.3,2119.5,685.5,2094.5,710.5z M2072,277c-12.7,15.3-29,23-49,23H961
	c-20,0-36.3-7.7-49-23s-17.3-33-14-53l72-384c3.3-15.3,10.8-27.8,22.5-37.5c11.7-9.7,25.2-14.5,40.5-14.5h918
	c15.3,0,28.8,4.8,40.5,14.5s19.2,22.2,22.5,37.5l72,384C2089.3,244,2084.7,261.7,2072,277z M1846-354c-9.3,9.3-20.7,14-34,14h-640
	c-13.3,0-24.7-4.7-34-14s-14-20.7-14-34s4.7-24.7,14-34s20.7-14,34-14h640c13.3,0,24.7,4.7,34,14s14,20.7,14,34
	S1855.3-363.3,1846-354z M2237,114l-105-454c-6-52-38.5-97.7-97.5-137s-135.7-69-230-89c-94.3-20-198.5-30-312.5-30
	s-218.2,10-312.5,30s-171,49.7-230,89S858-392,852-340L749,114c-16.7,74-25,148.3-25,223v603h128v128c0,35.3,12.5,65.5,37.5,90.5
	s55.2,37.5,90.5,37.5s65.5-12.5,90.5-37.5s37.5-55.2,37.5-90.5V940h768v128c0,35.3,12.5,65.5,37.5,90.5s55.2,37.5,90.5,37.5
	s65.5-12.5,90.5-37.5s37.5-55.2,37.5-90.5V940h128V337C2260,256.3,2252.3,182,2237,114z"/>
</svg>
