<svg xmlns="http://www.w3.org/2000/svg" x="0px" y="0px" viewBox="596 -596 1792 1792" style="enable-background:new 596 -596 1792 1792;">
<path d="M1492,1116c-48.7,0-90.2-17.2-124.5-51.5c-34.3-34.3-51.5-75.8-51.5-124.5c0-10.7,5.3-16,16-16c10.7,0,16,5.3,16,16
	c0,39.3,14.2,73.2,42.5,101.5c28.3,28.3,62.2,42.5,101.5,42.5c10.7,0,16,5.3,16,16S1502.7,1116,1492,1116z M1108-20
	c0-34,8-69,24-105s39-70.3,69-103s70.5-59.5,121.5-80.5S1430-340,1492-340s118.5,10.5,169.5,31.5S1753-260.7,1783-228s53,67,69,103
	s24,71,24,105c0,354.7,88.7,632,266,832H842C1019.3,612,1108,334.7,1108-20z M2233,724c-27.3-30.7-55.7-70.5-85-119.5
	c-29.3-49-54.2-101.8-74.5-158.5c-20.3-56.7-37-125.3-50-206S2004,72.7,2004-20c0-101.3-39-195.5-117-282.5S1706.7-442.3,1580-461
	c5.3-12.7,8-25.7,8-39c0-26.7-9.3-49.3-28-68c-18.7-18.7-41.3-28-68-28c-26.7,0-49.3,9.3-68,28c-18.7,18.7-28,41.3-28,68
	c0,13.3,2.7,26.3,8,39c-126.7,18.7-229,71.5-307,158.5S980-121.3,980-20c0,92.7-6.5,179.3-19.5,260s-29.7,149.3-50,206
	c-20.3,56.7-45.2,109.5-74.5,158.5c-29.3,49-57.7,88.8-85,119.5s-57.7,60-91,88c0,34.7,12.7,64.7,38,90s55.3,38,90,38h448
	c0,70.7,25,131,75,181s110.3,75,181,75c70.7,0,131-25,181-75s75-110.3,75-181h448c34.7,0,64.7-12.7,90-38c25.3-25.3,38-55.3,38-90
	C2290.7,784,2260.3,754.7,2233,724z"/>
</svg>
