<svg xmlns="http://www.w3.org/2000/svg" x="0px" y="0px" viewBox="596 -596 1792 1792" style="enable-background:new 596 -596 1792 1792;">
<path d="M2303,798c-26.7-9.3-46.3-18.5-59-27.5c-12.7-9-28.3-21.5-47-37.5c-20-18-37.2-30.7-51.5-38c-14.3-7.3-32.8-11-55.5-11
	c-23.3,0-42.2,3.7-56.5,11s-31.5,20-51.5,38c-18.7,16-34.3,28.5-47,37.5s-32.3,18.2-59,27.5s-55,14-85,14s-58.3-4.7-85-14
	s-46.3-18.5-59-27.5s-28.3-21.5-47-37.5c-20-18-37.2-30.7-51.5-38c-14.3-7.3-33.2-11-56.5-11c-16,0-30.5,2.3-43.5,7s-23.3,9.7-31,15
	c-7.7,5.3-18.5,14.3-32.5,27c-20,16.7-36,29.2-48,37.5s-31.3,17.3-58,27c-26.7,9.7-55,14.5-85,14.5c-30.7,0-59.3-4.7-86-14
	c-26.7-9.3-46-18.3-58-27s-27.7-21.3-47-38c-21.3-18-38.8-30.7-52.5-38c-13.7-7.3-32.2-11-55.5-11c-23.3,0-42.2,3.7-56.5,11
	c-14.3,7.3-31.5,20-51.5,38c-18.7,16-34.3,28.5-47,37.5s-32.3,18.2-59,27.5s-55,14-85,14v384h1792V812
	C2358,812,2329.7,807.3,2303,798z M2332,356c-37.3-37.3-82.7-56-136-56h-64v-448h-256v448h-256v-448h-256v448h-256v-448H852v448h-64
	c-53.3,0-98.7,18.7-136,56s-56,82.7-56,136v192c23.3,0,42.2-3.7,56.5-11c14.3-7.3,31.5-20,51.5-38c19.3-16.7,35-29.3,47-38
	c12-8.7,31.3-17.7,58-27c26.7-9.3,55.3-14,86-14c30,0,58.3,4.7,85,14c26.7,9.3,46.3,18.5,59,27.5s28.3,21.5,47,37.5
	c20,18,37.2,30.7,51.5,38c14.3,7.3,33.2,11,56.5,11c16,0,30.5-2.3,43.5-7c13-4.7,23.3-9.7,31-15c7.7-5.3,18.5-14.3,32.5-27
	c20-16.7,36-29.2,48-37.5c12-8.3,31.3-17.3,58-27c26.7-9.7,55-14.5,85-14.5c30.7,0,59.3,4.7,86,14c26.7,9.3,46,18.3,58,27
	c12,8.7,27.7,21.3,47,38c20,18,37.2,30.7,51.5,38c14.3,7.3,33.2,11,56.5,11c16,0,30.7-2.3,44-7c13.3-4.7,23.7-9.7,31-15
	c7.3-5.3,18.3-14.3,33-27c19.3-16.7,35-29.3,47-38c12-8.7,31.3-17.7,58-27c26.7-9.3,55.3-14,86-14c30,0,58.3,4.7,85,14
	c26.7,9.3,46,18.3,58,27c12,8.7,27.7,21.3,47,38c21.3,18,38.8,30.7,52.5,38c13.7,7.3,32.2,11,55.5,11V492
	C2388,438.7,2369.3,393.3,2332,356z M1063-522c-30-49.3-57.7-74-83-74c0,25.3-3.2,47.7-9.5,67c-6.3,19.3-14.2,34.2-23.5,44.5
	c-9.3,10.3-19.7,20.8-31,31.5c-11.3,10.7-21.7,20-31,28c-9.3,8-17.2,19.3-23.5,34c-6.3,14.7-9.5,31.7-9.5,51
	c0,35.3,12.5,65.5,37.5,90.5S944.7-212,980-212c37.3,0,68-13.8,92-41.5s36-67.2,36-118.5C1108-422.7,1093-472.7,1063-522z M1575-522
	c-30-49.3-57.7-74-83-74c0,25.3-3.2,47.7-9.5,67c-6.3,19.3-14.2,34.2-23.5,44.5c-9.3,10.3-19.7,20.8-31,31.5
	c-11.3,10.7-21.7,20-31,28c-9.3,8-17.2,19.3-23.5,34c-6.3,14.7-9.5,31.7-9.5,51c0,35.3,12.5,65.5,37.5,90.5s55.2,37.5,90.5,37.5
	c37.3,0,68-13.8,92-41.5s36-67.2,36-118.5C1620-422.7,1605-472.7,1575-522z M2087-522c-30-49.3-57.7-74-83-74
	c0,25.3-3.2,47.7-9.5,67s-14.2,34.2-23.5,44.5s-19.7,20.8-31,31.5s-21.7,20-31,28s-17.2,19.3-23.5,34s-9.5,31.7-9.5,51
	c0,35.3,12.5,65.5,37.5,90.5s55.2,37.5,90.5,37.5c37.3,0,68-13.8,92-41.5s36-67.2,36-118.5C2132-422.7,2117-472.7,2087-522z"/>
</svg>
