<svg xmlns="http://www.w3.org/2000/svg" x="0px" y="0px" viewBox="596 -596 1792 1792" style="enable-background:new 596 -596 1792 1792;">
<path d="M852-596c-17.3,0-32.3,6.3-45,19s-19,27.7-19,45v1664c0,17.3,6.3,32.3,19,45s27.7,19,45,19h1280c17.3,0,32.3-6.3,45-19
	c12.7-12.7,19-27.7,19-45V-532c0-17.3-6.3-32.3-19-45c-12.7-12.7-27.7-19-45-19H852z M1309-331c6-6,13.7-9,23-9h64c9.3,0,17,3,23,9
	s9,13.7,9,23v64c0,9.3-3,17-9,23s-13.7,9-23,9h-64c-9.3,0-17-3-23-9s-9-13.7-9-23v-64C1300-317.3,1303-325,1309-331z M1309-75
	c6-6,13.7-9,23-9h64c9.3,0,17,3,23,9s9,13.7,9,23v64c0,9.3-3,17-9,23s-13.7,9-23,9h-64c-9.3,0-17-3-23-9s-9-13.7-9-23v-64
	C1300-61.3,1303-69,1309-75z M1309,181c6-6,13.7-9,23-9h64c9.3,0,17,3,23,9s9,13.7,9,23v64c0,9.3-3,17-9,23s-13.7,9-23,9h-64
	c-9.3,0-17-3-23-9s-9-13.7-9-23v-64C1300,194.7,1303,187,1309,181z M1309,437c6-6,13.7-9,23-9h64c9.3,0,17,3,23,9s9,13.7,9,23v64
	c0,9.3-3,17-9,23s-13.7,9-23,9h-64c-9.3,0-17-3-23-9s-9-13.7-9-23v-64C1300,450.7,1303,443,1309,437z M1163,803c-6,6-13.7,9-23,9
	h-64c-9.3,0-17-3-23-9s-9-13.7-9-23v-64c0-9.3,3-17,9-23s13.7-9,23-9h64c9.3,0,17,3,23,9s9,13.7,9,23v64
	C1172,789.3,1169,797,1163,803z M1163,547c-6,6-13.7,9-23,9h-64c-9.3,0-17-3-23-9s-9-13.7-9-23v-64c0-9.3,3-17,9-23s13.7-9,23-9h64
	c9.3,0,17,3,23,9s9,13.7,9,23v64C1172,533.3,1169,541,1163,547z M1163,291c-6,6-13.7,9-23,9h-64c-9.3,0-17-3-23-9s-9-13.7-9-23v-64
	c0-9.3,3-17,9-23s13.7-9,23-9h64c9.3,0,17,3,23,9s9,13.7,9,23v64C1172,277.3,1169,285,1163,291z M1163,35c-6,6-13.7,9-23,9h-64
	c-9.3,0-17-3-23-9s-9-13.7-9-23v-64c0-9.3,3-17,9-23s13.7-9,23-9h64c9.3,0,17,3,23,9s9,13.7,9,23v64C1172,21.3,1169,29,1163,35z
	 M1163-221c-6,6-13.7,9-23,9h-64c-9.3,0-17-3-23-9s-9-13.7-9-23v-64c0-9.3,3-17,9-23s13.7-9,23-9h64c9.3,0,17,3,23,9s9,13.7,9,23v64
	C1172-234.7,1169-227,1163-221z M1675,1059c-6,6-13.7,9-23,9h-320c-9.3,0-17-3-23-9s-9-13.7-9-23V844c0-9.3,3-17,9-23s13.7-9,23-9
	h320c9.3,0,17,3,23,9s9,13.7,9,23v192C1684,1045.3,1681,1053,1675,1059z M1675,547c-6,6-13.7,9-23,9h-64c-9.3,0-17-3-23-9
	s-9-13.7-9-23v-64c0-9.3,3-17,9-23s13.7-9,23-9h64c9.3,0,17,3,23,9s9,13.7,9,23v64C1684,533.3,1681,541,1675,547z M1675,291
	c-6,6-13.7,9-23,9h-64c-9.3,0-17-3-23-9s-9-13.7-9-23v-64c0-9.3,3-17,9-23s13.7-9,23-9h64c9.3,0,17,3,23,9s9,13.7,9,23v64
	C1684,277.3,1681,285,1675,291z M1675,35c-6,6-13.7,9-23,9h-64c-9.3,0-17-3-23-9s-9-13.7-9-23v-64c0-9.3,3-17,9-23s13.7-9,23-9h64
	c9.3,0,17,3,23,9s9,13.7,9,23v64C1684,21.3,1681,29,1675,35z M1675-221c-6,6-13.7,9-23,9h-64c-9.3,0-17-3-23-9s-9-13.7-9-23v-64
	c0-9.3,3-17,9-23s13.7-9,23-9h64c9.3,0,17,3,23,9s9,13.7,9,23v64C1684-234.7,1681-227,1675-221z M1931,803c-6,6-13.7,9-23,9h-64
	c-9.3,0-17-3-23-9s-9-13.7-9-23v-64c0-9.3,3-17,9-23s13.7-9,23-9h64c9.3,0,17,3,23,9s9,13.7,9,23v64C1940,789.3,1937,797,1931,803z
	 M1931,547c-6,6-13.7,9-23,9h-64c-9.3,0-17-3-23-9s-9-13.7-9-23v-64c0-9.3,3-17,9-23s13.7-9,23-9h64c9.3,0,17,3,23,9s9,13.7,9,23v64
	C1940,533.3,1937,541,1931,547z M1931,291c-6,6-13.7,9-23,9h-64c-9.3,0-17-3-23-9s-9-13.7-9-23v-64c0-9.3,3-17,9-23s13.7-9,23-9h64
	c9.3,0,17,3,23,9s9,13.7,9,23v64C1940,277.3,1937,285,1931,291z M1931,35c-6,6-13.7,9-23,9h-64c-9.3,0-17-3-23-9s-9-13.7-9-23v-64
	c0-9.3,3-17,9-23s13.7-9,23-9h64c9.3,0,17,3,23,9s9,13.7,9,23v64C1940,21.3,1937,29,1931,35z M1931-221c-6,6-13.7,9-23,9h-64
	c-9.3,0-17-3-23-9s-9-13.7-9-23v-64c0-9.3,3-17,9-23s13.7-9,23-9h64c9.3,0,17,3,23,9s9,13.7,9,23v64C1940-234.7,1937-227,1931-221z"
	/>
</svg>
