<svg xmlns="http://www.w3.org/2000/svg" x="0px" y="0px" viewBox="596 -596 1792 1792" style="enable-background:new 596 -596 1792 1792;">
<path d="M968-456.5c-15.3,0-30,3-44,9c-22,8.7-39.5,22.3-52.5,41s-19.5,39.3-19.5,62v1289c0,22.7,6.5,43.3,19.5,62
	c13,18.7,30.5,32.3,52.5,41c14,6,28.7,9,44,9c31.3,0,59-11,83-33l441-424l441,424c23.3,21.3,51,32,83,32c16.7,0,31.3-2.7,44-8
	c22-8.7,39.5-22.3,52.5-41c13-18.7,19.5-39.3,19.5-62v-1289c0-22.7-6.5-43.3-19.5-62s-30.5-32.3-52.5-41c-14-6-28.7-9-44-9H968z"/>
</svg>
