<svg xmlns="http://www.w3.org/2000/svg" x="0px" y="0px" viewBox="596 -596 1792 1792" style="enable-background:new 596 -596 1792 1792;">
<path d="M1167,42c-6.7,16-18.3,27.7-35,35c-56,22.7-105.5,55.5-148.5,98.5S907.7,268,885,324c-12,26.7-32,40-60,40
	c-7.3,0-15.3-1.7-24-5c-16.7-6.7-28.3-18-35-34s-6.7-32.3,0-49c29.3-72,71.7-135.7,127-191c55.3-55.3,119-97.7,191-127
	c16.7-6.7,33-6.7,49,0s27.3,18.3,34,35C1173.7,9.7,1173.7,26,1167,42z M1866-119l-68-68c-12.7-12.7-27.8-19-45.5-19
	s-32.8,6.3-45.5,19l-64,64c-107.3-59.3-221.7-89-343-89c-95.3,0-186.5,18.5-273.5,55.5s-162,87-225,150s-113,138-150,225
	S596,396.7,596,492s18.5,186.5,55.5,273.5s87,162,150,225s138,113,225,150s178.2,55.5,273.5,55.5c95.3,0,186.5-18.5,273.5-55.5
	s162-87,225-150s113-138,150-225S2004,587.3,2004,492c0-121.3-29.7-235.7-89-343l64-64c12.7-12.7,19-27.8,19-45.5s-6.3-32.8-19-45.5
	l-68-68l244-243l-46-46L1866-119z M2127-441.5c0-9-3.3-16.5-10-22.5l-90-91c-6.7-6-14.3-9-23-9s-16.3,3-23,9c-6,6.7-9,14.3-9,23
	s3,16.3,9,23l91,90c6.7,6.7,14.3,10,23,10c8,0,15.3-3.3,22-10C2123.7-425,2127-432.5,2127-441.5z M2356-212c0-8.7-3-16.3-9-23
	l-91-90c-6-6.7-13.5-10-22.5-10s-16.5,3.3-22.5,10c-6.7,6-10,13.5-10,22.5s3.3,16.5,10,22.5l90,91c7.3,6,15,9,23,9s15.7-3,23-9
	C2353-195.7,2356-203.3,2356-212z M2379-395c-6-6-13.7-9-23-9h-96c-9.3,0-17,3-23,9s-9,13.7-9,23s3,17,9,23s13.7,9,23,9h96
	c9.3,0,17-3,23-9s9-13.7,9-23S2385-389,2379-395z M2187-587c-6-6-13.7-9-23-9c-9.3,0-17,3-23,9s-9,13.7-9,23v96c0,9.3,3,17,9,23
	s13.7,9,23,9c9.3,0,17-3,23-9s9-13.7,9-23v-96C2196-573.3,2193-581,2187-587z M2356-532c0-8.7-3-16.3-9-23c-6.7-6-14.3-9-23-9
	c-8.7,0-16.3,3-23,9l-90,91c-6.7,6-10,13.5-10,22.5s3.3,16.5,10,22.5c6.7,6.7,14.3,10,23,10c8,0,15.3-3.3,22-10l91-90
	C2353-515.7,2356-523.3,2356-532z"/>
</svg>
