<svg xmlns="http://www.w3.org/2000/svg" x="0px" y="0px" viewBox="596 -596 1792 1792" style="enable-background:new 596 -596 1792 1792;">
<path d="M659-404h-63v1408h63V-404z M722-404h-32v1407h32V-404z M816-404h-31v1407h31V-404z M973-404h-31v1407h31V-404z M1130-404
	h-62v1407h62V-404z M1256-404h-31v1407h31V-404z M1319-404h-31v1407h31V-404z M1382-404h-31v1407h31V-404z M1539-404h-63v1407h63
	V-404z M1696-404h-63v1407h63V-404z M1822-404h-63v1407h63V-404z M1948-404h-63v1407h63V-404z M2042-404h-63v1407h63V-404z
	 M2231-404h-94v1407h94V-404z M2294-404h-32v1407h32V-404z M2388-404h-63v1408h63V-404z"/>
</svg>
