<svg xmlns="http://www.w3.org/2000/svg" x="0px" y="0px" viewBox="596 -596 1792 1792" style="enable-background:new 596 -596 1792 1792;">
<path d="M2172,116c-37.3,37.3-82.7,56-136,56h-64v-384h64c53.3,0,98.7,18.7,136,56c37.3,37.3,56,82.7,56,136S2209.3,78.7,2172,116z
	 M639,929c50,50,110.3,75,181,75h1280c70.7,0,131-25,181-75s75-110.3,75-181H564C564,818.7,589,879,639,929z M2307.5-291.5
	c-75-75-165.5-112.5-271.5-112.5H884c-17.3,0-32.3,6.3-45,19c-12.7,12.7-19,27.7-19,45v736c0,61.3,22,114,66,158s96.7,66,158,66h704
	c61.3,0,114-22,158-66s66-96.7,66-158v-32h64c106,0,196.5-37.5,271.5-112.5S2420,86,2420-20S2382.5-216.5,2307.5-291.5z"/>
</svg>
