<svg xmlns="http://www.w3.org/2000/svg" x="0px" y="0px" viewBox="596 -596 1792 1792" style="enable-background:new 596 -596 1792 1792;">
<path d="M1026,510.5c-44-63-66-133.5-66-211.5s22-148.5,66-211.5S1127.3-20.7,1198-48v693C1127.3,618.3,1070,573.5,1026,510.5z
	 M1636,510.5c-44,63-101.3,108.2-172,135.5V-48c70.7,27.3,128,72.5,172,135.5s66,133.5,66,211.5S1680,447.5,1636,510.5z M1838.5,5
	C1786.2-85,1715-156.2,1625-208.5S1437-287,1331-287s-204,26.2-294,78.5S875.8-85,823.5,5S745,193,745,299
	c0,79.3,15.5,155.2,46.5,227.5s72.7,134.7,125,187c52.3,52.3,114.7,94,187,125c72.3,31,148.2,46.5,227.5,46.5
	c106,0,204-26.2,294-78.5S1786.2,683,1838.5,593s78.5-188,78.5-294S1890.8,95,1838.5,5z M2244.5,552
	c-37,78.7-86.2,146.2-147.5,202.5c-61.3,56.3-132.8,101.3-214.5,135S1717,940,1631,940h-301c-116,0-223.7-28.3-323-85
	S829,721.2,771,623.5S684,420,684,306c0-124,29.2-235.7,87.5-335c58.3-99.3,136.7-176,235-230s206.2-81,323.5-81h301
	c87.3,0,171.5,16,252.5,48s152.2,75.7,213.5,131c61.3,55.3,110.5,123.8,147.5,205.5S2300,213.3,2300,306
	C2300,391.3,2281.5,473.3,2244.5,552z M2606-430c-25.3-25.3-55.3-38-90-38H468c-34.7,0-64.7,12.7-90,38s-38,55.3-38,90V940
	c0,34.7,12.7,64.7,38,90c25.3,25.3,55.3,38,90,38h2048c34.7,0,64.7-12.7,90-38c25.3-25.3,38-55.3,38-90V-340
	C2644-374.7,2631.3-404.7,2606-430z"/>
</svg>
