<svg xmlns="http://www.w3.org/2000/svg" x="0px" y="0px" viewBox="596 -596 1792 1792" style="enable-background:new 596 -596 1792 1792;">
<path d="M1802,420l-351,351c-6,6-13.7,9-23,9c-9.3,0-17-3-23-9l-352-352c-6-6-9-13.7-9-23c0-8.7,3.2-16.2,9.5-22.5
	c6.3-6.3,13.8-9.5,22.5-9.5h224V12c0-8.7,3.2-16.2,9.5-22.5c6.3-6.3,13.8-9.5,22.5-9.5h192c8.7,0,16.2,3.2,22.5,9.5
	c6.3,6.3,9.5,13.8,9.5,22.5v352h224c9.3,0,17,3,23,9s9,13.7,9,23C1812,404,1808.7,412,1802,420z M2368.5,381.5
	c-55.7-69.7-126.8-114.8-213.5-135.5c27.3-41.3,41-87.3,41-138c0-70.7-25-131-75-181s-110.3-75-181-75c-63.3,0-118.7,20.7-166,62
	c-39.3-96-102.2-173-188.5-231c-86.3-58-181.5-87-285.5-87c-141.3,0-262,50-362,150S788-33.3,788,108c0,8.7,0.7,23,2,43
	c-78.7,36.7-141.3,91.7-188,165s-70,153.3-70,240c0,123.3,43.8,228.8,131.5,316.5S856.7,1004,980,1004h1088
	c106,0,196.5-37.5,271.5-112.5S2452,726,2452,620C2452,530.7,2424.2,451.2,2368.5,381.5z"/>
</svg>
