<svg xmlns="http://www.w3.org/2000/svg" x="0px" y="0px" viewBox="596 -596 1792 1792" style="enable-background:new 596 -596 1792 1792;">
<path d="M2268-149.7c-80-98.3-188.7-176-326-233s-287.3-85.5-450-85.5c-121.3,0-237.3,16.8-348,50.5c-110.7,33.7-206,79.2-286,136.5
	S714.3-155.7,667-76.7s-71,161.8-71,248.5c0,100,30.2,193.7,90.5,281s142.8,160.7,247.5,220c-7.3,26.7-16,52-26,76s-19,43.7-27,59
	c-8,15.3-18.8,32.3-32.5,51c-13.7,18.7-24,31.8-31,39.5c-7,7.7-18.5,20.3-34.5,38c-16,17.7-26.3,29.2-31,34.5c-0.7,0.3-3.3,3.3-8,9
	c-4.7,5.7-7,8.5-7,8.5l-6,9c-3.3,5-4.8,8.2-4.5,9.5c0.3,1.3-0.3,4.7-2,10c-1.7,5.3-1.5,9.3,0.5,12v1c2.7,12,8.5,21.7,17.5,29
	c9,7.3,19.2,10.3,30.5,9c43.3-5.3,81.3-12.7,114-22c174.7-44.7,328-125.3,460-242c50,5.3,98.3,8,145,8c162.7,0,312.7-28.5,450-85.5
	s246-134.7,326-233s120-205.5,120-321.5S2348-51.3,2268-149.7z"/>
</svg>
