<svg xmlns="http://www.w3.org/2000/svg" x="0px" y="0px" viewBox="596 -596 1792 1792" style="enable-background:new 596 -596 1792 1792;">
<path d="M1785,248L1337-72c-20.7-15.3-42.7-17-66-5c-23.3,11.3-35,30.3-35,57v640c0,26.7,11.7,45.7,35,57c23.3,12,45.3,10.3,66-5
	l448-320c18-12.7,27-30,27-52S1803,260.7,1785,248z M1995,803c-6,6-13.7,9-23,9h-960c-9.3,0-17-3-23-9s-9-13.7-9-23v-960
	c0-9.3,3-17,9-23s13.7-9,23-9h960c9.3,0,17,3,23,9s9,13.7,9,23v960C2004,789.3,2001,797,1995,803z M2175.5-383.5
	c-56.3-56.3-124.2-84.5-203.5-84.5h-960c-79.3,0-147.2,28.2-203.5,84.5S724-259.3,724-180v960c0,79.3,28.2,147.2,84.5,203.5
	c56.3,56.3,124.2,84.5,203.5,84.5h960c79.3,0,147.2-28.2,203.5-84.5c56.3-56.3,84.5-124.2,84.5-203.5v-960
	C2260-259.3,2231.8-327.2,2175.5-383.5z"/>
</svg>
