<svg xmlns="http://www.w3.org/2000/svg" x="0px" y="0px" viewBox="596 -596 1792 1792" style="enable-background:new 596 -596 1792 1792;">
<path d="M2250.5,1058.5c-6.3,6.3-13.8,9.5-22.5,9.5H1140c-8.7,0-16.2-3.2-22.5-9.5c-6.3-6.3-9.5-13.8-9.5-22.5V-52
	c0-8.7,3.2-16.2,9.5-22.5c6.3-6.3,13.8-9.5,22.5-9.5h1088c8.7,0,16.2,3.2,22.5,9.5c6.3,6.3,9.5,13.8,9.5,22.5v1088
	C2260,1044.7,2256.8,1052.2,2250.5,1058.5z M2341-165c-31.3-31.3-69-47-113-47H1140c-44,0-81.7,15.7-113,47c-31.3,31.3-47,69-47,113
	v1088c0,44,15.7,81.7,47,113s69,47,113,47h1088c44,0,81.7-15.7,113-47c31.3-31.3,47-69,47-113V-52C2388-96,2372.3-133.7,2341-165z
	 M1957-549c-31.3-31.3-69-47-113-47H756c-44,0-81.7,15.7-113,47s-47,69-47,113V652c0,44,15.7,81.7,47,113s69,47,113,47h160V684H756
	c-8.7,0-16.2-3.2-22.5-9.5c-6.3-6.3-9.5-13.8-9.5-22.5V-436c0-8.7,3.2-16.2,9.5-22.5s13.8-9.5,22.5-9.5h1088
	c8.7,0,16.2,3.2,22.5,9.5s9.5,13.8,9.5,22.5v160h128v-160C2004-480,1988.3-517.7,1957-549z"/>
</svg>
