<svg xmlns="http://www.w3.org/2000/svg" x="0px" y="0px" viewBox="596 -596 1792 1792" style="enable-background:new 596 -596 1792 1792;">
<path d="M1880,185c-18.7,0-37.7,10-57,30v224c12,6,25.7,9,41,9c22,0,39.3-11.7,52-35c14-24.7,21-60,21-106
	C1937,225.7,1918,185,1880,185z M2321,173c-33.3,0-52,32.7-56,98h110C2373,205.7,2355,173,2321,173z M765,523c-32,24.7-75,37-129,37
	c-64,0-120-13.7-168-41l18-113c20.7,12,44.7,22.2,72,30.5s50.7,12.5,70,12.5c32,0,48-10.3,48-31c0-10.7-5.2-19.8-15.5-27.5
	c-10.3-7.7-28.5-16.2-54.5-25.5c-44.7-16-77.8-34.8-99.5-56.5C484.8,286.8,474,256.7,474,218c0-46.7,16-83,48-109
	c30.7-25.3,71.7-38,123-38c54.7,0,104.3,10.7,149,32l-18,112c-44-22-85.3-33-124-33c-25.3,0-38,8.7-38,26c0,9.3,5.3,17.7,16,25
	c10.7,7.3,28,15.3,52,24c45.3,16.7,79,35.8,101,57.5s33,52.2,33,91.5C816,456.7,799,495.7,765,523z M1034,191v197
	c0,33.3,14,50,42,50c8,0,22.7-2.3,44-7v118c-31.3,7.3-57.7,11-79,11c-48.7,0-85.7-10-111-30c-29.3-24-44-64-44-120V191h-62l17-103
	l46-8l18-114l129-21V80h96l-19,111H1034z M1401,214c-37.3,0-64.7,10.3-82,31v306h-150V80h131l10,56c6.7-20,17.8-35.3,33.5-46
	c15.7-10.7,34.2-16,55.5-16c8.7,0,18,1,28,3v139C1420.3,214.7,1411.7,214,1401,214z M1464,80h150v471h-150V80z M2025,504
	c-34,37.3-78.7,56-134,56c-21.3,0-44-3.7-68-11v151l-150,25V80h132l8,47c35.3-37.3,74.3-56,117-56c47.3,0,84.3,17.3,111,52
	c30,38,45,97.7,45,179C2086,393.3,2065.7,460.7,2025,504z M1595,10.5c-15.3,15.7-34,23.5-56,23.5s-40.7-7.8-56-23.5S1460-24,1460-46
	s7.7-40.7,23-56s34-23,56-23s40.7,7.7,56,23s23,34,23,56S1610.3-5.2,1595,10.5z M2514,363h-248c3.3,31.3,12.7,53.3,28,66
	c13.3,12.7,34.3,19,63,19c47.3,0,90-10.3,128-31l16,103c-39.3,26.7-92.7,40-160,40c-70.7,0-124.3-18.3-161-55
	c-42-40-63-102.7-63-188c0-76,18.5-136,55.5-180S2260,71,2324,71c62.7,0,110.7,21.3,144,64c32,42,48,100.7,48,176
	C2516,336.3,2515.3,353.7,2514,363z M2606-430c-25.3-25.3-55.3-38-90-38H468c-34.7,0-64.7,12.7-90,38s-38,55.3-38,90V940
	c0,34.7,12.7,64.7,38,90c25.3,25.3,55.3,38,90,38h2048c34.7,0,64.7-12.7,90-38c25.3-25.3,38-55.3,38-90V-340
	C2644-374.7,2631.3-404.7,2606-430z"/>
</svg>
