<svg xmlns="http://www.w3.org/2000/svg" x="0px" y="0px" viewBox="596 -596 1792 1792" style="enable-background:new 596 -596 1792 1792;">
<path d="M1921,89l-256,256c-12.7,12.7-27.7,19-45,19c-17.3,0-32.3-6.3-45-19L1319,89c-12.7-12.7-19-27.7-19-45s6.3-32.3,19-45
	c12.7-12.7,27.7-19,45-19c17.3,0,32.3,6.3,45,19l147,146v-293c0-17.3,6.3-32.3,19-45c12.7-12.7,27.7-19,45-19c17.3,0,32.3,6.3,45,19
	c12.7,12.7,19,27.7,19,45v293L1831-1c12.7-12.7,27.7-19,45-19s32.3,6.3,45,19s19,27.7,19,45S1933.7,76.3,1921,89z M1262.5,785.5
	c-25-25-55.2-37.5-90.5-37.5c-35.3,0-65.5,12.5-90.5,37.5S1044,840.7,1044,876s12.5,65.5,37.5,90.5s55.2,37.5,90.5,37.5
	c35.3,0,65.5-12.5,90.5-37.5s37.5-55.2,37.5-90.5S1287.5,810.5,1262.5,785.5z M2158.5,785.5c-25-25-55.2-37.5-90.5-37.5
	c-35.3,0-65.5,12.5-90.5,37.5S1940,840.7,1940,876s12.5,65.5,37.5,90.5s55.2,37.5,90.5,37.5c35.3,0,65.5-12.5,90.5-37.5
	s37.5-55.2,37.5-90.5S2183.5,810.5,2158.5,785.5z M2305-257c-12.7-12.7-27.7-19-45-19H1059c-0.7-4.7-2.2-13.2-4.5-25.5
	s-4.2-22.2-5.5-29.5s-3.8-16.2-7.5-26.5s-8-18.5-13-24.5s-11.7-11.2-20-15.5c-8.3-4.3-17.8-6.5-28.5-6.5H724c-17.3,0-32.3,6.3-45,19
	s-19,27.7-19,45s6.3,32.3,19,45s27.7,19,45,19h204l177,823c-1.3,2.7-8.2,15.3-20.5,38c-12.3,22.7-22.2,42.5-29.5,59.5
	s-11,30.2-11,39.5c0,17.3,6.3,32.3,19,45s27.7,19,45,19h1024c17.3,0,32.3-6.3,45-19c12.7-12.7,19-27.7,19-45s-6.3-32.3-19-45
	c-12.7-12.7-27.7-19-45-19h-920c16-32,24-53.3,24-64c0-6.7-0.8-14-2.5-22c-1.7-8-3.7-16.8-6-26.5c-2.3-9.7-3.8-16.8-4.5-21.5
	l1044-122c16.7-2,30.3-9.2,41-21.5c10.7-12.3,16-26.5,16-42.5v-512C2324-229.3,2317.7-244.3,2305-257z"/>
</svg>
