<svg xmlns="http://www.w3.org/2000/svg" x="0px" y="0px" viewBox="596 -596 1792 1792" style="enable-background:new 596 -596 1792 1792;">
<path d="M1364-84h384v416c0,26.7,9.3,49.3,28,68s41.3,28,68,28h416v640h-896V-84z M1610.5-349.5c-6.3,6.3-13.8,9.5-22.5,9.5H884
	c-8.7,0-16.2-3.2-22.5-9.5c-6.3-6.3-9.5-13.8-9.5-22.5v-64c0-8.7,3.2-16.2,9.5-22.5c6.3-6.3,13.8-9.5,22.5-9.5h704
	c8.7,0,16.2,3.2,22.5,9.5c6.3,6.3,9.5,13.8,9.5,22.5v64C1620-363.3,1616.8-355.8,1610.5-349.5z M1876,1l299,299h-299V1z M2368,340
	c-13.3-32-29.3-57.3-48-76l-408-408c-10-10-22-19.3-36-28v-328c0-26.7-9.3-49.3-28-68s-41.3-28-68-28H692c-26.7,0-49.3,9.3-68,28
	s-28,41.3-28,68V844c0,26.7,9.3,49.3,28,68s41.3,28,68,28h544v160c0,26.7,9.3,49.3,28,68c18.7,18.7,41.3,28,68,28h960
	c26.7,0,49.3-9.3,68-28c18.7-18.7,28-41.3,28-68V428C2388,401.3,2381.3,372,2368,340z"/>
</svg>
