<svg xmlns="http://www.w3.org/2000/svg" x="0px" y="0px" viewBox="596 -596 1792 1792" style="enable-background:new 596 -596 1792 1792;">
<path d="M2368,380.5c-56-69.7-127-114.5-213-134.5c27.3-42,41-88,41-138c0-70.7-25-131-75-181s-110.3-75-181-75
	c-64,0-119.3,20.7-166,62c-39.3-94.7-101.8-171.3-187.5-230s-181.2-88-286.5-88c-141.3,0-262,50-362,150S788-33.3,788,108
	c0,10,0.7,24.3,2,43c-77.3,36-139.7,90.5-187,163.5S532,468,532,556c0,123.3,43.8,228.8,131.5,316.5S856.7,1004,980,1004h1088
	c106,0,196.5-37.5,271.5-112.5S2452,726,2452,620C2452,530,2424,450.2,2368,380.5z"/>
</svg>
