<svg xmlns="http://www.w3.org/2000/svg" x="0px" y="0px" viewBox="596 -596 1792 1792" style="enable-background:new 596 -596 1792 1792;">
<path d="M901,573c-31.3,31.3-69,47-113,47s-81.7-15.7-113-47c-31.3-31.3-47-69-47-113s15.7-81.7,47-113s69-47,113-47
	s81.7,15.7,113,47c31.3,31.3,47,69,47,113S932.3,541.7,901,573z M1073-217c1.3-5.3,6-11.2,14-17.5s15-9.5,21-9.5h768
	c6,0,13,3.2,21,9.5s12.7,12.2,14,17.5l89,357H984L1073-217z M2309,573c-31.3,31.3-69,47-113,47s-81.7-15.7-113-47
	c-31.3-31.3-47-69-47-113s15.7-81.7,47-113c31.3-31.3,69-47,113-47s81.7,15.7,113,47c31.3,31.3,47,69,47,113S2340.3,541.7,2309,573z
	 M2450.5,205.5C2406.8,161.8,2354,140,2292,140h-28l-105-419c-15.3-62.7-50-115.2-104-157.5S1941.3-500,1876-500h-768
	c-65.3,0-125,21.2-179,63.5S840.3-341.7,825-279L720,140h-28c-62,0-114.8,21.8-158.5,65.5S468,302,468,364v384c0,9.3,3,17,9,23
	s13.7,9,23,9h96v128c0,53.3,18.7,98.7,56,136c37.3,37.3,82.7,56,136,56c53.3,0,98.7-18.7,136-56c37.3-37.3,56-82.7,56-136V780h1024
	v128c0,53.3,18.7,98.7,56,136c37.3,37.3,82.7,56,136,56c53.3,0,98.7-18.7,136-56c37.3-37.3,56-82.7,56-136V780h96c9.3,0,17-3,23-9
	s9-13.7,9-23V364C2516,302,2494.2,249.2,2450.5,205.5z"/>
</svg>
