<svg xmlns="http://www.w3.org/2000/svg" x="0px" y="0px" viewBox="596 -596 1792 1792" style="enable-background:new 596 -596 1792 1792;">
<path d="M2259-103c-64.7-123.7-153-225.5-265-305.5s-236.7-130.3-374-151v228c147.3,30,269.5,103.7,366.5,221s145.5,252.7,145.5,406
	c0,86.7-17,169.5-51,248.5s-79.5,147-136.5,204s-125,102.5-204,136.5s-161.8,51-248.5,51c-86.7,0-169.5-17-248.5-51
	s-147-79.5-204-136.5S937,623,903,544s-51-161.8-51-248.5c0-153.3,48.5-288.7,145.5-406s219.2-191,366.5-221v-228
	c-137.3,20.7-262,71-374,151S789.7-226.7,725-103s-97,256.5-97,398.5c0,117.3,22.8,229.3,68.5,336s107,198.5,184,275.5
	s168.8,138.3,275.5,184s218.7,68.5,336,68.5c117.3,0,229.3-22.8,336-68.5s198.5-107,275.5-184s138.3-168.8,184-275.5
	c45.7-106.7,68.5-218.7,68.5-336C2356,153.5,2323.7,20.7,2259-103z"/>
</svg>
