<svg xmlns="http://www.w3.org/2000/svg" x="0px" y="0px" viewBox="596 -596 1792 1792" style="enable-background:new 596 -596 1792 1792;">
<path d="M1044,694l384-164v314l-384,192V694z M576,409l404-173l404,173L980,582L576,409z M2068,694l384-164v314l-384,192V694z
	 M1600,409l404-173l404,173l-404,173L1600,409z M1556,22l384-164v266l-384,165V22z M1051-279l441-189l441,189L1492-90L1051-279z
	 M2559,358c-14-21.3-33-37.3-57-48l-434-186v-400c0-25.3-7.2-48.7-21.5-70c-14.3-21.3-33.2-37.3-56.5-48l-448-192
	c-15.3-6.7-32-10-50-10s-34.7,3.3-50,10L994-394c-23.3,10.7-42.2,26.7-56.5,48S916-301.3,916-276v400L482,310
	c-23.3,10.7-42.2,26.7-56.5,48S404,402.7,404,428v416c0,24,6.3,46.3,19,67s30,36.3,52,47l448,224c16.7,9.3,35.7,14,57,14
	s40.3-4.7,57-14l448-224c3.3-1.3,5.7-2.7,7-4c1.3,1.3,3.7,2.7,7,4l448,224c16.7,9.3,35.7,14,57,14s40.3-4.7,57-14l448-224
	c22-10.7,39.3-26.3,52-47s19-43,19-67V428C2580,402.7,2573,379.3,2559,358z"/>
</svg>
