<svg xmlns="http://www.w3.org/2000/svg" x="0px" y="0px" viewBox="596 -596 1792 1792" style="enable-background:new 596 -596 1792 1792;">
<path d="M1910-149.1c-62.7-78.7-148.2-140.8-256.5-186.5c-108.3-45.7-226.2-68.5-353.5-68.5s-245.2,22.8-353.5,68.5
	S752.7-227.7,690-149.1s-94,164.3-94,257c0,79.3,23.7,154,71,224s112.3,129,195,177c-6.7,16-13.5,30.7-20.5,44
	c-7,13.3-15.3,26.2-25,38.5c-9.7,12.3-17.2,22-22.5,29s-14,16.8-26,29.5s-19.7,21-23,25c0-0.7-1.3,0.8-4,4.5s-4.2,5.3-4.5,5
	s-1.7,1.3-4,5s-3.5,5.5-3.5,5.5l-2.5,5c-1,2-1.7,4-2,6s-0.5,4.2-0.5,6.5s0.3,4.5,1,6.5c1.3,8.7,5.2,15.7,11.5,21s13.2,8,20.5,8h3
	c33.3-4.7,62-10,86-16c102.7-26.7,195.3-69.3,278-128c60,10.7,118.7,16,176,16c127.3,0,245.2-22.8,353.5-68.5
	s193.8-107.8,256.5-186.5s94-164.3,94-257S1972.7-70.4,1910-149.1z M2313,133.9c-50-71.3-118-130.7-204-178c15.3,50,23,100.7,23,152
	c0,89.3-22.3,174-67,254c-44.7,80-108.7,150.7-192,212c-77.3,56-165.3,99-264,129c-98.7,30-201.7,45-309,45c-20,0-49.3-1.3-88-4
	c134,88,291.3,132,472,132c57.3,0,116-5.3,176-16c82.7,58.7,175.3,101.3,278,128c24,6,52.7,11.3,86,16c8,0.7,15.3-1.7,22-7
	c6.7-5.3,11-12.7,13-22c-0.3-4,0-6.2,1-6.5c1-0.3,0.8-2.5-0.5-6.5c-1.3-4-2-6-2-6l-2.5-5c-0.7-1.3-1.8-3.2-3.5-5.5c-1.7-2.3-3-4-4-5
	s-2.5-2.7-4.5-5c-2-2.3-3.3-3.8-4-4.5c-3.3-4-11-12.3-23-25c-12-12.7-20.7-22.5-26-29.5c-5.3-7-12.8-16.7-22.5-29
	c-9.7-12.3-18-25.2-25-38.5c-7-13.3-13.8-28-20.5-44c82.7-48,147.7-106.8,195-176.5c47.3-69.7,71-144.5,71-224.5
	C2388,281.9,2363,205.3,2313,133.9z"/>
</svg>
