<svg xmlns="http://www.w3.org/2000/svg" x="0px" y="0px" viewBox="596 -596 1792 1792" style="enable-background:new 596 -596 1792 1792;">
<path d="M1473,319c-12.7-12.7-27.7-19-45-19H980c-17.3,0-32.3,6.3-45,19s-19,27.7-19,45s6.3,32.3,19,45l144,144L747,885
	c-6.7,6.7-10,14.3-10,23s3.3,16.3,10,23l114,114c6.7,6.7,14.3,10,23,10s16.3-3.3,23-10l332-332l144,144c12.7,12.7,27.7,19,45,19
	c17.3,0,32.3-6.3,45-19c12.7-12.7,19-27.7,19-45V364C1492,346.7,1485.7,331.7,1473,319z M2237-331l-114-114c-6.7-6.7-14.3-10-23-10
	c-8.7,0-16.3,3.3-23,10l-332,332l-144-144c-12.7-12.7-27.7-19-45-19c-17.3,0-32.3,6.3-45,19c-12.7,12.7-19,27.7-19,45v448
	c0,17.3,6.3,32.3,19,45c12.7,12.7,27.7,19,45,19h448c17.3,0,32.3-6.3,45-19c12.7-12.7,19-27.7,19-45s-6.3-32.3-19-45L1905,47
	l332-332c6.7-6.7,10-14.3,10-23S2243.7-324.3,2237-331z"/>
</svg>
