<svg xmlns="http://www.w3.org/2000/svg" x="0px" y="0px" viewBox="596 -596 1792 1792" style="enable-background:new 596 -596 1792 1792;">
<path d="M1288.5,224.5c-56.3,56.3-84.5,124.2-84.5,203.5s28.2,147.2,84.5,203.5c56.3,56.3,124.2,84.5,203.5,84.5
	s147.2-28.2,203.5-84.5S1780,507.3,1780,428s-28.2-147.2-84.5-203.5S1571.3,140,1492,140C1412.7,140,1344.8,168.2,1288.5,224.5z
	 M1972-276l-51-136c-12.7-32.7-35.8-60.8-69.5-84.5S1783.3-532,1748-532h-512c-35.3,0-69.8,11.8-103.5,35.5
	c-33.7,23.7-56.8,51.8-69.5,84.5l-51,136H788c-70.7,0-131,25-181,75S532-90.7,532-20v896c0,70.7,25,131,75,181s110.3,75,181,75h1408
	c70.7,0,131-25,181-75s75-110.3,75-181V-20c0-70.7-25-131-75-181s-110.3-75-181-75H1972z M1175.5,744.5
	C1087.8,656.8,1044,551.3,1044,428s43.8-228.8,131.5-316.5C1263.2,23.8,1368.7-20,1492-20s228.8,43.8,316.5,131.5
	S1940,304.7,1940,428s-43.8,228.8-131.5,316.5S1615.3,876,1492,876S1263.2,832.2,1175.5,744.5z"/>
</svg>
