<svg xmlns="http://www.w3.org/2000/svg" x="0px" y="0px" viewBox="596 -596 1792 1792" style="enable-background:new 596 -596 1792 1792;">
<path d="M1740.5-289c79,34,147,79.5,204,136.5s102.5,125,136.5,204s51,161.8,51,248.5s-17,169.5-51,248.5s-79.5,147-136.5,204
	s-125,102.5-204,136.5s-161.8,51-248.5,51c-86.7,0-169.5-17-248.5-51s-147-79.5-204-136.5S937,627.5,903,548.5S852,386.7,852,300
	s17-169.5,51-248.5s79.5-147,136.5-204s125-102.5,204-136.5s161.8-51,248.5-51C1578.7-340,1661.5-323,1740.5-289z M2157-85.5
	c-68.7-117.7-161.8-210.8-279.5-279.5S1631.3-468,1492-468s-267.8,34.3-385.5,103S895.7-203.2,827-85.5S724,160.7,724,300
	s34.3,267.8,103,385.5S988.8,896.3,1106.5,965s246.2,103,385.5,103s267.8-34.3,385.5-103s210.8-161.8,279.5-279.5
	c68.7-117.7,103-246.2,103-385.5S2225.7,32.2,2157-85.5z"/>
</svg>
