<svg xmlns="http://www.w3.org/2000/svg" x="0px" y="0px" viewBox="596 -596 1792 1792" style="enable-background:new 596 -596 1792 1792;">
<path d="M1611-75c-6-6-13.7-9-23-9h-64c-9.3,0-17,3-23,9s-9,13.7-9,23v352h-224c-9.3,0-17,3-23,9s-9,13.7-9,23v64c0,9.3,3,17,9,23
	s13.7,9,23,9h320c9.3,0,17-3,23-9s9-13.7,9-23V-52C1620-61.3,1617-69,1611-75z M1963,573c-48.7,83.3-114.7,149.3-198,198
	s-174.3,73-273,73c-98.7,0-189.7-24.3-273-73c-83.3-48.7-149.3-114.7-198-198c-48.7-83.3-73-174.3-73-273s24.3-189.7,73-273
	c48.7-83.3,114.7-149.3,198-198s174.3-73,273-73c98.7,0,189.7,24.3,273,73c83.3,48.7,149.3,114.7,198,198s73,174.3,73,273
	S2011.7,489.7,1963,573z M2157-85.5c-68.7-117.7-161.8-210.8-279.5-279.5S1631.3-468,1492-468s-267.8,34.3-385.5,103
	S895.7-203.2,827-85.5S724,160.7,724,300s34.3,267.8,103,385.5S988.8,896.3,1106.5,965s246.2,103,385.5,103s267.8-34.3,385.5-103
	s210.8-161.8,279.5-279.5c68.7-117.7,103-246.2,103-385.5S2225.7,32.2,2157-85.5z"/>
</svg>
