<svg xmlns="http://www.w3.org/2000/svg" x="0px" y="0px" viewBox="596 -596 1792 1792" style="enable-background:new 596 -596 1792 1792;">
<path d="M1198.5,278.4c-25,25-55.2,37.5-90.5,37.5c-35.3,0-65.5-12.5-90.5-37.5S980,223.3,980,187.9s12.5-65.5,37.5-90.5
	s55.2-37.5,90.5-37.5s65.5,12.5,90.5,37.5s37.5,55.2,37.5,90.5S1223.5,253.4,1198.5,278.4z M1582.5,278.4
	c-25,25-55.2,37.5-90.5,37.5c-35.3,0-65.5-12.5-90.5-37.5s-37.5-55.2-37.5-90.5s12.5-65.5,37.5-90.5s55.2-37.5,90.5-37.5
	c35.3,0,65.5,12.5,90.5,37.5s37.5,55.2,37.5,90.5S1607.5,253.4,1582.5,278.4z M1966.5,278.4c-25,25-55.2,37.5-90.5,37.5
	s-65.5-12.5-90.5-37.5s-37.5-55.2-37.5-90.5s12.5-65.5,37.5-90.5s55.2-37.5,90.5-37.5s65.5,12.5,90.5,37.5s37.5,55.2,37.5,90.5
	S1991.5,253.4,1966.5,278.4z M2268-133.6c-80-98.3-188.7-176-326-233s-287.3-85.5-450-85.5s-312.7,28.5-450,85.5s-246,134.7-326,233
	S596,71.9,596,187.9c0,95.3,27.8,185.2,83.5,269.5S811.7,613.9,909,673.9c-3.3,26-7.5,50.2-12.5,72.5s-9.8,41.5-14.5,57.5
	c-4.7,16-11.3,32-20,48c-8.7,16-15.5,28.3-20.5,37s-13,19.2-24,31.5s-18.8,20.8-23.5,25.5s-13.2,12.5-25.5,23.5
	s-20.2,18.2-23.5,21.5c-16,14.7-22.7,27-20,37c2,7.3,6.3,13.3,13,18s14,6.7,22,6c22.7-2,51.3-6.3,86-13
	c174.7-37.3,319.7-113.7,435-229c67.3,12,137.7,18,211,18c162.7,0,312.7-28.5,450-85.5s246-134.7,326-233s120-205.5,120-321.5
	S2348-35.2,2268-133.6z"/>
</svg>
