<svg xmlns="http://www.w3.org/2000/svg" x="0px" y="0px" viewBox="596 -596 1792 1792" style="enable-background:new 596 -596 1792 1792;">
<path d="M2275.5,357.5c-10.3-12.3-23.2-20.2-38.5-23.5c-5.3-1.3-11.3-2-18-2h-153v140h153c6.7,0,12.7-0.7,18-2
	c15.3-3.3,28.2-11.2,38.5-23.5c10.3-12.3,15.5-27.2,15.5-44.5S2285.8,369.8,2275.5,357.5z M2258,146.5c-10-11.7-22.7-18.8-38-21.5
	c-0.7,0-2.8-0.2-6.5-0.5c-3.7-0.3-6.5-0.5-8.5-0.5h-139v129h139c8,0,13-0.3,15-1c15.3-2.7,28-9.7,38-21s15-25.3,15-42
	S2268,158.2,2258,146.5z M740,570l-42-1c-27.3-0.7-63.7-3.7-109-9c-45.3-5.3-85.7-13-121-23V425c80.7,39.3,157,59,229,59
	c44.7,0,79.7-12.2,105-36.5c25.3-24.3,38-55.8,38-94.5V45h228v308C1068,497.7,958.7,570,740,570z M1574,568
	c-84.7,4-157.5-0.7-218.5-14c-61-13.3-107.8-33.3-140.5-60c-32.7-26.7-56.3-56-71-88c-14.7-32-22-67.3-22-106s7.3-74,22-106
	c14.7-32,38.3-61.3,71-88c32.7-26.7,79.5-46.7,140.5-60s133.8-18,218.5-14l28,2c18.7,1.3,45.3,4.5,80,9.5S1750,55,1782,63v112
	c-66-34-132.7-53.3-200-58c-72-5.3-128.3,8.3-169,41s-61,80-61,142s20.3,109.3,61,142s97,46.3,169,41c67.3-4.7,134-24.3,200-59v113
	C1710.7,555,1641.3,565.3,1574,568z M2468.5,518.5c-31.7,24.3-72.2,36.5-121.5,36.5h-491V45h455c3.3,0,8,0.2,14,0.5s10,0.5,12,0.5
	c44,2,79.7,14,107,36s41,51.3,41,88c0,30.7-10.7,57.2-32,79.5s-51,36.2-89,41.5v3c44,3.3,80.3,16.5,109,39.5s43,52.5,43,88.5
	C2516,462,2500.2,494.2,2468.5,518.5z M2606-430c-25.3-25.3-55.3-38-90-38H468c-34.7,0-64.7,12.7-90,38s-38,55.3-38,90V940
	c0,34.7,12.7,64.7,38,90c25.3,25.3,55.3,38,90,38h2048c34.7,0,64.7-12.7,90-38c25.3-25.3,38-55.3,38-90V-340
	C2644-374.7,2631.3-404.7,2606-430z"/>
</svg>
