<svg xmlns="http://www.w3.org/2000/svg" x="0px" y="0px" viewBox="596 -596 1792 1792" style="enable-background:new 596 -596 1792 1792;">
<path d="M1869,466.5c-3.3-3-7-4.5-11-4.5h-119c-4,0-7.5,1.5-10.5,4.5s-4.5,6.8-4.5,11.5v70c0,28-23.3,50-70,66
	c-46.7,16-92.7,24-138,24c-94.7,0-172.5-32.8-233.5-98.5S1191,390.7,1191,290c0-97.3,29.5-176.5,88.5-237.5S1414.7-39,1508-39
	c48,0,93.8,8.2,137.5,24.5C1689.2,1.8,1711,24.3,1711,53v70c0,10.7,5.3,16,16,16h118c10.7,0,16-5.3,16-16V14c0-30-9.3-57-28-81
	s-41.7-42.8-69-56.5c-27.3-13.7-58.2-25-92.5-34c-34.3-9-65.3-15-93-18c-27.7-3-52.8-4.5-75.5-4.5c-135.3,0-248.3,45.3-339,136
	c-90.7,90.7-136,203.7-136,339c0,138,45.8,253.3,137.5,346s205.8,139,342.5,139c38,0,77.2-3.7,117.5-11c40.3-7.3,79.7-18.2,118-32.5
	s69.7-34.5,94-60.5s36.5-55.7,36.5-89V478C1874,473.3,1872.3,469.5,1869,466.5z M1740.5-289c79,34,147,79.5,204,136.5
	s102.5,125,136.5,204s51,161.8,51,248.5s-17,169.5-51,248.5s-79.5,147-136.5,204s-125,102.5-204,136.5s-161.8,51-248.5,51
	c-86.7,0-169.5-17-248.5-51s-147-79.5-204-136.5S937,627.5,903,548.5S852,386.7,852,300s17-169.5,51-248.5s79.5-147,136.5-204
	s125-102.5,204-136.5s161.8-51,248.5-51C1578.7-340,1661.5-323,1740.5-289z M2157-85.5c-68.7-117.7-161.8-210.8-279.5-279.5
	S1631.3-468,1492-468s-267.8,34.3-385.5,103S895.7-203.2,827-85.5S724,160.7,724,300s34.3,267.8,103,385.5S988.8,896.3,1106.5,965
	s246.2,103,385.5,103s267.8-34.3,385.5-103s210.8-161.8,279.5-279.5c68.7-117.7,103-246.2,103-385.5S2225.7,32.2,2157-85.5z"/>
</svg>
