<svg xmlns="http://www.w3.org/2000/svg" x="0px" y="0px" viewBox="596 -596 1792 1792" style="enable-background:new 596 -596 1792 1792;">
<path d="M1240,944c-18.7,18.7-41.3,28-68,28s-49.3-9.3-68-28s-28-41.3-28-68s9.3-49.3,28-68s41.3-28,68-28s49.3,9.3,68,28
	s28,41.3,28,68S1258.7,925.3,1240,944z M1240-208c-18.7,18.7-41.3,28-68,28s-49.3-9.3-68-28s-28-41.3-28-68s9.3-49.3,28-68
	s41.3-28,68-28s49.3,9.3,68,28s28,41.3,28,68S1258.7-226.7,1240-208z M1880-80c-18.7,18.7-41.3,28-68,28c-26.7,0-49.3-9.3-68-28
	c-18.7-18.7-28-41.3-28-68s9.3-49.3,28-68c18.7-18.7,41.3-28,68-28c26.7,0,49.3,9.3,68,28c18.7,18.7,28,41.3,28,68
	S1898.7-98.7,1880-80z M1948-284c-37.3-37.3-82.7-56-136-56c-53.3,0-98.7,18.7-136,56c-37.3,37.3-56,82.7-56,136
	c0,34.7,8.7,66.8,26,96.5c17.3,29.7,40.7,52.8,70,69.5c0,34.7-2.8,65.2-8.5,91.5c-5.7,26.3-15,49.5-28,69.5s-26.5,37-40.5,51
	s-33.7,27.2-59,39.5c-25.3,12.3-48.8,22.7-70.5,31c-21.7,8.3-50.8,18.2-87.5,29.5c-66.7,20.7-118,39.7-154,57v-497
	c29.3-16.7,52.7-39.8,70-69.5s26-61.8,26-96.5c0-53.3-18.7-98.7-56-136s-82.7-56-136-56s-98.7,18.7-136,56
	c-37.3,37.3-56,82.7-56,136c0,34.7,8.7,66.8,26,96.5s40.7,52.8,70,69.5v820c-29.3,16.7-52.7,39.8-70,69.5s-26,61.8-26,96.5
	c0,53.3,18.7,98.7,56,136c37.3,37.3,82.7,56,136,56s98.7-18.7,136-56c37.3-37.3,56-82.7,56-136c0-34.7-8.7-66.8-26-96.5
	s-40.7-52.8-70-69.5v-26c0-46,13.8-79.3,41.5-100c27.7-20.7,84.2-44.3,169.5-71c90-28.7,157.7-55.7,203-81
	c149.3-84.7,224.7-222.7,226-414c29.3-16.7,52.7-39.8,70-69.5c17.3-29.7,26-61.8,26-96.5C2004-201.3,1985.3-246.7,1948-284z"/>
</svg>
