<svg xmlns="http://www.w3.org/2000/svg" x="0px" y="0px" viewBox="596 -596 1792 1792" style="enable-background:new 596 -596 1792 1792;">
<path d="M1803,501c-6-6-13.7-9-23-9h-576c-9.3,0-17,3-23,9s-9,13.7-9,23v64c0,9.3,3,17,9,23s13.7,9,23,9h576c9.3,0,17-3,23-9
	s9-13.7,9-23v-64C1812,514.7,1809,507,1803,501z M788,44h1408v1024H788V44z M1163-125c-6,6-13.7,9-23,9h-64c-9.3,0-17-3-23-9
	s-9-13.7-9-23v-288c0-9.3,3-17,9-23s13.7-9,23-9h64c9.3,0,17,3,23,9s9,13.7,9,23v288C1172-138.7,1169-131,1163-125z M1931-125
	c-6,6-13.7,9-23,9h-64c-9.3,0-17-3-23-9s-9-13.7-9-23v-288c0-9.3,3-17,9-23s13.7-9,23-9h64c9.3,0,17,3,23,9s9,13.7,9,23v288
	C1940-138.7,1937-131,1931-125z M2286-302c-25.3-25.3-55.3-38-90-38h-128v-96c0-44-15.7-81.7-47-113c-31.3-31.3-69-47-113-47h-64
	c-44,0-81.7,15.7-113,47s-47,69-47,113v96h-384v-96c0-44-15.7-81.7-47-113c-31.3-31.3-69-47-113-47h-64c-44,0-81.7,15.7-113,47
	c-31.3,31.3-47,69-47,113v96H788c-34.7,0-64.7,12.7-90,38s-38,55.3-38,90v1280c0,34.7,12.7,64.7,38,90s55.3,38,90,38h1408
	c34.7,0,64.7-12.7,90-38c25.3-25.3,38-55.3,38-90V-212C2324-246.7,2311.3-276.7,2286-302z"/>
</svg>
