<svg xmlns="http://www.w3.org/2000/svg" x="0px" y="0px" viewBox="596 -596 1792 1792" style="enable-background:new 596 -596 1792 1792;">
<path d="M2058,594l-294-294L2058,6c18.7-18.7,28-41.3,28-68s-9.3-49.3-28-68l-136-136c-18.7-18.7-41.3-28-68-28s-49.3,9.3-68,28
	L1492,28l-294-294c-18.7-18.7-41.3-28-68-28s-49.3,9.3-68,28L926-130c-18.7,18.7-28,41.3-28,68s9.3,49.3,28,68l294,294L926,594
	c-18.7,18.7-28,41.3-28,68s9.3,49.3,28,68l136,136c18.7,18.7,41.3,28,68,28s49.3-9.3,68-28l294-294l294,294c18.7,18.7,41.3,28,68,28
	s49.3-9.3,68-28l136-136c18.7-18.7,28-41.3,28-68S2076.7,612.7,2058,594z"/>
</svg>
