<svg xmlns="http://www.w3.org/2000/svg" x="0px" y="0px" viewBox="596 -596 1792 1792" style="enable-background:new 596 -596 1792 1792;">
<path d="M617,98c-18.7-18-48.3-27-89-27h-17v220h17c40,0,69.7-8.7,89-26c24-22,36-50,36-84C653,146.3,641,118.7,617,98z M2366,67
	h-20v101h19c42.7,0,64-17.3,64-52C2429,83.3,2408,67,2366,67z M660,309c-30,25.3-69.7,38-119,38h-95V14h95
	c52.7,0,95.7,15.5,129,46.5c33.3,31,50,71.2,50,120.5C720,232.3,700,275,660,309z M750,14h65v333h-65V14z M1038,325.5
	c-21.3,20.3-49,30.5-83,30.5c-47.3,0-85.7-21.3-115-64l42-40c15.3,29.3,39,44,71,44c14.7,0,26.7-4.5,36-13.5s14-20.2,14-33.5
	c0-14.7-6.3-26-19-34c-5.3-4-20.3-10.3-45-19c-30.7-10.7-52-22.8-64-36.5s-18-32.2-18-55.5c0-26.7,10-49.2,30-67.5S931.7,9,961,9
	c38,0,70.7,12.3,98,37l-34,44c-16-18-33.7-27-53-27c-14,0-25.5,3.5-34.5,10.5S924,89.3,924,100c0,9.3,3.5,17,10.5,23
	s20.2,12.3,39.5,19c36.7,13.3,61.8,27.3,75.5,42c13.7,14.7,20.5,35.3,20.5,62C1070,278.7,1059.3,305.2,1038,325.5z M1267,355
	c-49.3,0-91-16.8-125-50.5s-51-74.8-51-123.5s17.2-89.8,51.5-123.5C1176.8,23.8,1218.7,7,1268,7c26.7,0,53.3,6.7,80,20v77
	c-25.3-25.3-52.3-38-81-38c-30.7,0-56.5,11.2-77.5,33.5S1158,149,1158,181c0,33.3,10.5,60.8,31.5,82.5s47.8,32.5,80.5,32.5
	c27.3,0,53.3-12.3,78-37v77C1322,348.7,1295,355,1267,355z M2561,985c-12.7,12.7-27.7,19-45,19H947c172-32,340-71.3,504-118
	s303.2-91.5,417.5-134.5S2092.7,662.7,2198,614c105.3-48.7,184.5-87.7,237.5-117c53-29.3,101.2-57.3,144.5-84v527
	C2580,957.3,2573.7,972.3,2561,985z M1676,311c-35.3,35.3-78,53-128,53s-92.7-17.7-128-53s-53-78-53-128s17.7-92.7,53-128
	s78-53,128-53s92.7,17.7,128,53s53,78,53,128S1711.3,275.7,1676,311z M1846,356L1704,14h71l89,224l90-224h71l-144,342H1846z
	 M2054,14h184v57h-119v74h115v56h-115v90h119v56h-184V14z M2355,214h-9v133h-65V14h97c37.3,0,66.3,8.7,87,26s31,41.7,31,73
	c0,52-25.3,83.3-76,94l105,140h-80L2355,214z M2605.5-429c-25.7-26-56.8-39-93.5-39H472c-36.7,0-67.8,13-93.5,39S340-371.3,340-334
	V934c0,37.3,12.8,69,38.5,95s56.8,39,93.5,39h2040c36.7,0,67.8-13,93.5-39s38.5-57.7,38.5-95V-334C2644-371.3,2631.2-403,2605.5-429
	z"/>
</svg>
