<svg xmlns="http://www.w3.org/2000/svg" x="0px" y="0px" viewBox="596 -596 1792 1792" style="enable-background:new 596 -596 1792 1792;">
<path d="M1556,217l640-233v636l-640,349V217z M794-150l698-254l698,254l-698,254L794-150z M2301-221c-15.3-22-35.7-37.7-61-47
	l-704-256c-14.7-5.3-29.3-8-44-8c-14.7,0-29.3,2.7-44,8L744-268c-25.3,9.3-45.7,25-61,47s-23,46.3-23,73v768c0,23.3,6,45,18,65
	s28.3,35.7,49,47l704,384c18.7,10.7,39,16,61,16s42.3-5.3,61-16l704-384c20.7-11.3,37-27,49-47s18-41.7,18-65v-768
	C2324-174.7,2316.3-199,2301-221z"/>
</svg>
