<svg xmlns="http://www.w3.org/2000/svg" x="0px" y="0px" viewBox="596 -596 1792 1792" style="enable-background:new 596 -596 1792 1792;">
<path d="M1198.5,81.5c-25-25-55.2-37.5-90.5-37.5s-65.5,12.5-90.5,37.5S980,136.7,980,172s12.5,65.5,37.5,90.5s55.2,37.5,90.5,37.5
	c35.3,0,65.5-12.5,90.5-37.5s37.5-55.2,37.5-90.5S1223.5,106.5,1198.5,81.5z M1582.5,81.5c-25-25-55.2-37.5-90.5-37.5
	c-35.3,0-65.5,12.5-90.5,37.5S1364,136.7,1364,172s12.5,65.5,37.5,90.5s55.2,37.5,90.5,37.5c35.3,0,65.5-12.5,90.5-37.5
	s37.5-55.2,37.5-90.5S1607.5,106.5,1582.5,81.5z M1966.5,81.5c-25-25-55.2-37.5-90.5-37.5s-65.5,12.5-90.5,37.5S1748,136.7,1748,172
	s12.5,65.5,37.5,90.5s55.2,37.5,90.5,37.5s65.5-12.5,90.5-37.5s37.5-55.2,37.5-90.5S1991.5,106.5,1966.5,81.5z M1873.5-270.5
	c118.3,46.3,212.3,108.8,282,187.5C2225.2-4.3,2260,80.7,2260,172s-34.8,176.3-104.5,255c-69.7,78.7-163.7,141.2-282,187.5
	S1628,684,1492,684c-40.7,0-84-2.7-130-8l-57-6l-43,38c-82,72-173.7,129-275,171c30.7-54,54-111.3,70-172l27-96l-87-50
	c-86.7-49.3-153.8-107.8-201.5-175.5S724,246.7,724,172c0-91.3,34.8-176.3,104.5-255s163.7-141.2,282-187.5S1356-340,1492-340
	S1755.2-316.8,1873.5-270.5z M2317-76.5c-47.3-79-111-147.2-191-204.5s-175.3-102.8-286-136.5S1613.3-468,1492-468
	c-121.3,0-237.3,16.8-348,50.5c-110.7,33.7-206,79.2-286,136.5S714.3-155.5,667-76.5S596,85.3,596,172c0,100,30.2,193.7,90.5,281
	S829.3,613.7,934,673c-7.3,26.7-16,52-26,76s-19,43.7-27,59s-18.8,32.3-32.5,51c-13.7,18.7-24,31.8-31,39.5s-18.5,20.3-34.5,38
	s-26.3,29.2-31,34.5c-0.7,0.3-3.3,3.3-8,9s-7,8.5-7,8.5l-6,9c-3.3,5-4.8,8.2-4.5,9.5s-0.3,4.7-2,10s-1.5,9.3,0.5,12v1
	c2.7,11.3,8,20.5,16,27.5s17,10.5,27,10.5h5c43.3-5.3,81.3-12.7,114-22c174.7-44.7,328-125.3,460-242c50,5.3,98.3,8,145,8
	c162.7,0,312.7-28.5,450-85.5s246-134.7,326-233S2388,288,2388,172C2388,85.3,2364.3,2.5,2317-76.5z"/>
</svg>
