<svg xmlns="http://www.w3.org/2000/svg" x="0px" y="0px" viewBox="596 -596 1792 1792" style="enable-background:new 596 -596 1792 1792;">
<path d="M1873.5-270.5c118.3,46.3,212.3,108.8,282,187.5C2225.2-4.3,2260,80.7,2260,172s-34.8,176.3-104.5,255
	c-69.7,78.7-163.7,141.2-282,187.5S1628,684,1492,684c-40.7,0-84-2.7-130-8l-57-6l-43,38c-82,72-173.7,129-275,171
	c30.7-54,54-111.3,70-172l27-96l-87-50c-86.7-49.3-153.8-107.8-201.5-175.5S724,246.7,724,172c0-91.3,34.8-176.3,104.5-255
	s163.7-141.2,282-187.5S1356-340,1492-340S1755.2-316.8,1873.5-270.5z M2268-149.5c-80-98.3-188.7-176-326-233S1654.7-468,1492-468
	s-312.7,28.5-450,85.5s-246,134.7-326,233S596,56,596,172c0,100,30.2,193.7,90.5,281S829.3,613.7,934,673c-7.3,26.7-16,52-26,76
	s-19,43.7-27,59s-18.8,32.3-32.5,51c-13.7,18.7-24,31.8-31,39.5s-18.5,20.3-34.5,38s-26.3,29.2-31,34.5c-0.7,0.3-3.3,3.3-8,9
	s-7,8.5-7,8.5l-6,9c-3.3,5-4.8,8.2-4.5,9.5s-0.3,4.7-2,10s-1.5,9.3,0.5,12v1c2.7,11.3,8,20.5,16,27.5s17,10.5,27,10.5h5
	c43.3-5.3,81.3-12.7,114-22c174.7-44.7,328-125.3,460-242c50,5.3,98.3,8,145,8c162.7,0,312.7-28.5,450-85.5s246-134.7,326-233
	S2388,288,2388,172S2348-51.2,2268-149.5z"/>
</svg>
