<svg xmlns="http://www.w3.org/2000/svg" x="0px" y="0px" viewBox="596 -596 1792 1792" style="enable-background:new 596 -596 1792 1792;">
<path d="M2068-188c0-26.7-9.3-49.3-28-68c-18.7-18.7-41.3-28-68-28s-49.3,9.3-68,28L1676-28h-368l-228-228c-18.7-18.7-41.3-28-68-28
	c-26.7,0-49.3,9.3-68,28s-28,41.3-28,68s9.3,49.3,28,68l292,292v824c0,30.7,11,57,33,79s48.3,33,79,33s57-11,79-33s33-48.3,33-79
	V612h64v384c0,30.7,11,57,33,79s48.3,33,79,33c30.7,0,57-11,79-33s33-48.3,33-79V172l292-292C2058.7-138.7,2068-161.3,2068-188z
	 M1650.5-442.5C1606.8-486.2,1554-508,1492-508s-114.8,21.8-158.5,65.5C1289.8-398.8,1268-346,1268-284s21.8,114.8,65.5,158.5
	C1377.2-81.8,1430-60,1492-60s114.8-21.8,158.5-65.5c43.7-43.7,65.5-96.5,65.5-158.5S1694.2-398.8,1650.5-442.5z"/>
</svg>
