<svg xmlns="http://www.w3.org/2000/svg" x="0px" y="0px" viewBox="596 -596 1792 1792" style="enable-background:new 596 -596 1792 1792;">
<path d="M1159,716c0-8.7-3.3-16.3-10-23L756,300l393-393c6.7-6.7,10-14.3,10-23s-3.3-16.3-10-23l-50-50c-6.7-6.7-14.3-10-23-10
	c-8.7,0-16.3,3.3-23,10L587,277c-6.7,6.7-10,14.3-10,23s3.3,16.3,10,23l466,466c6.7,6.7,14.3,10,23,10c8.7,0,16.3-3.3,23-10l50-50
	C1155.7,732.3,1159,724.7,1159,716z M1737.5-352.5c-4.3-7.7-10.8-12.8-19.5-15.5l-62-17c-8-2.7-15.8-1.8-23.5,2.5
	s-12.8,10.8-15.5,19.5L1244,928c-2.7,8.7-1.8,16.8,2.5,24.5c4.3,7.7,10.8,12.8,19.5,15.5l62,17c8,2.7,15.8,1.8,23.5-2.5
	c7.7-4.3,12.8-10.8,15.5-19.5l373-1291C1742.7-336.7,1741.8-344.8,1737.5-352.5z M2407,300c0-8.7-3.3-16.3-10-23l-466-466
	c-6.7-6.7-14.3-10-23-10s-16.3,3.3-23,10l-50,50c-6.7,6.7-10,14.3-10,23s3.3,16.3,10,23l393,393l-393,393c-6.7,6.7-10,14.3-10,23
	s3.3,16.3,10,23l50,50c6.7,6.7,14.3,10,23,10s16.3-3.3,23-10l466-466C2403.7,316.3,2407,308.7,2407,300z"/>
</svg>
