<svg xmlns="http://www.w3.org/2000/svg" x="0px" y="0px" viewBox="596 -596 1792 1792" style="enable-background:new 596 -596 1792 1792;">
<path d="M1812,25v595h-595L1812,25z M1172-20h595l-595,595V-20z M2315,629c-6-6-13.7-9-23-9h-224v-851l247-246c6-6.7,9-14.3,9-23
	s-3-16.3-9-23c-6.7-6-14.3-9-23-9c-8.7,0-16.3,3-23,9l-246,247h-851v-224c0-9.3-3-17-9-23s-13.7-9-23-9H948c-9.3,0-17,3-23,9
	s-9,13.7-9,23v224H692c-9.3,0-17,3-23,9s-9,13.7-9,23v192c0,9.3,3,17,9,23s13.7,9,23,9h224v864c0,9.3,3,17,9,23s13.7,9,23,9h864v224
	c0,9.3,3,17,9,23s13.7,9,23,9h192c9.3,0,17-3,23-9s9-13.7,9-23V876h224c9.3,0,17-3,23-9s9-13.7,9-23V652
	C2324,642.7,2321,635,2315,629z"/>
</svg>
