<svg xmlns="http://www.w3.org/2000/svg" x="0px" y="0px" viewBox="596 -596 1792 1792" style="enable-background:new 596 -596 1792 1792;">
<path d="M812,573l603,402V616l-334-223L812,573z M750,429l193-129L750,171V429z M1569,975l603-402l-269-180l-334,223V975z M1492,482
	l272-182l-272-182l-272,182L1492,482z M1081,207l334-223v-359L812,27L1081,207z M2041,300l193,129V171L2041,300z M1903,207l269-180
	l-603-402v359L1903,207z M2388,27v546c0,27.3-11.3,48.7-34,64l-819,546c-14,8.7-28.3,13-43,13s-29-4.3-43-13L630,637
	c-22.7-15.3-34-36.7-34-64V27c0-27.3,11.3-48.7,34-64l819-546c14-8.7,28.3-13,43-13s29,4.3,43,13l819,546
	C2376.7-21.7,2388-0.3,2388,27z"/>
</svg>
