<svg xmlns="http://www.w3.org/2000/svg" x="0px" y="0px" viewBox="596 -596 1792 1792" style="enable-background:new 596 -596 1792 1792;">
<path d="M503-22l45,108h-89L503-22z M921,612v-54h142v-55H921v-49h163l70,79l-74,79H921z M1337,427v217l-99-110L1337,427z M1485,523
	h-83v-69h84c26.7,0,40,11,40,33C1526,511,1512.3,523,1485,523z M1772,515h-81v-61h82c28,0,42,9.7,42,29
	C1815,504.3,1800.7,515,1772,515z M1494,48h-81v-60h82c28,0,42,9.7,42,29C1537,37.7,1522.7,48,1494,48z M2041-22l44,108h-89L2041-22
	z M931-69l-77,184L769-69H663v257L553-69h-96L341,202h70l25-60h135l25,60h132V-10l94,212h57l94-212v212h66V-69H931z M1486,398h-207
	l-82,89l-80-89H857v271h256l83-90l80,90h126v-91c6,0,15.8,0.2,29.5,0.5c13.7,0.3,24.5,0.5,32.5,0.5s18.5-0.3,31.5-1
	s23.5-2.2,31.5-4.5c8-2.3,16.7-5.7,26-10c9.3-4.3,16.8-9.8,22.5-16.5c5.7-6.7,10.3-15,14-25s5.5-21.7,5.5-35
	C1595,427.7,1558.7,398,1486,398z M1152,146V92h148V37h-148v-49h152v-57h-217v271h217v-56H1152z M2549,722h-168v-24
	c-20.7,16-50,24-88,24h-529v-87c0-5.3-0.7-8.7-2-10c-1.3-1.3-4.7-2-10-2h-8v99h-174V620c-20.7,8.7-50.7,13-90,13h-21v89h-211l-52-59
	l-55,59H798V344h349l50,58l54-58h234c45.3,0,75.7,7.3,91,22v-22h209c37.3,0,66.3,7.3,87,22v-22h316v22c15.3-14.7,41.3-22,78-22h177
	v22c20-14.7,47-22,81-22h120v-678c0-36.7-12.8-68.2-38.5-94.5S2548.7-468,2512-468H472c-36.7,0-67.8,13.2-93.5,39.5
	S340-370.7,340-334V57l78-179h169l22,44v-44h198l43,97l43-97h628c32.7,0,57,7.3,73,22v-22h172v22c26.7-14.7,63-22,109-22h249l23,44
	v-44h185l25,44v-44h180v378h-182l-34-58v58h-227l-25-61h-56l-25,61c-6,0-23.2,0.3-51.5,1s-49.3,0.8-63,0.5s-31.2-2.5-52.5-6.5
	s-39.7-10-55-18v23h-279v-86c0-9.3-3.3-14-10-14l-10,1v99H926v-47l-20,47H793l-19-46v46H556l-25-61h-55l-25,61H340v678
	c0,36.7,12.8,68.2,38.5,94.5c25.7,26.3,56.8,39.5,93.5,39.5h2040c36.7,0,67.8-13.2,93.5-39.5c25.7-26.3,38.5-57.8,38.5-94.5V705
	C2620.7,716.3,2589,722,2549,722z M1857,413c-19.3-10-45-15-77-15h-154v271h65v-99h69c22.7,0,38,3.5,46,10.5s12,21.5,12,43.5v45h65
	v-54c0-19.3-3-34.7-9-46c-6-11.3-17.3-20-34-26c14.7-6,26-15.7,34-29c8-13.3,12-27.7,12-43C1886,442.3,1876.3,423,1857,413z
	 M1580-53.5c-19.3-9.7-45.3-14.5-78-14.5l-153-1v271h64v-98h70c12,0,21.8,1.2,29.5,3.5s13.5,5.2,17.5,8.5s6.8,8.7,8.5,16
	s2.7,13.5,3,18.5s0.3,13.3,0,25S1541,196,1541,202h65v-53c0-20-2.8-35.5-8.5-46.5S1580.3,83,1563,77c14-6,25.2-15.7,33.5-29
	S1609,20,1609,4C1609-24.7,1599.3-43.8,1580-53.5z M1987,612v-54h148v-55h-148v-49h151v-56h-216v271h216v-56L1987,612z M1646-69v271
	h66V-69H1646z M2387.5,528.5c-11.7-12.3-25.7-19.5-42-21.5c-16.3-2-32.7-2.8-49-2.5c-16.3,0.3-30.3-1-42-4
	c-11.7-3-17.5-9.8-17.5-20.5c0-16.7,12-25,36-25h119v-57h-130c-26.7,0-48.7,7-66,21c-17.3,14-26,34-26,60c0,24,5.7,42.3,17,55
	c11.3,12.7,25.3,20.2,42,22.5c16.7,2.3,33.2,3.5,49.5,3.5c16.3,0,30.2,1.7,41.5,5c11.3,3.3,17,10.3,17,21c0,16.7-11.3,25-34,25h-126
	v58h126c68,0,102-28.7,102-86C2405,559,2399.2,540.8,2387.5,528.5z M2587.5,507c-26.3-2-49.2-3.7-68.5-5s-29-8.7-29-22
	c0-16.7,12-25,36-25h118v-57h-129c-26.7,0-48.8,7-66.5,21s-26.5,34-26.5,60c0,20,4.2,36.2,12.5,48.5c8.3,12.3,18.7,20.3,31,24
	c12.3,3.7,25.7,6.3,40,8c14.3,1.7,27.7,2.3,40,2c12.3-0.3,22.7,1.5,31,5.5s12.5,10.3,12.5,19c0,16.7-11,25-33,25h-125v58h125
	c42.7,0,72-11.7,88-35V533C2632.7,517.7,2613.8,509,2587.5,507z M2413-68v188L2299-68h-99v256L2091-68h-97l-92,213h-29
	c-24,0-40.5-6.7-49.5-20S1810,92.3,1810,67c0-12.7,1-23.8,3-33.5s5.8-17.3,11.5-23S1835,0.3,1839-3s11.2-5.5,21.5-6.5s18-1.7,23-2
	s14.5-0.2,28.5,0.5s23.3,1,28,1v-59h-63c-88.7,0-133,46-133,138c0,88.7,43,133,129,133h75l25-60h134l26,60h132V-1l122,203h92V-68
	H2413z"/>
</svg>
