<svg xmlns="http://www.w3.org/2000/svg" x="0px" y="0px" viewBox="596 -596 1792 1792" style="enable-background:new 596 -596 1792 1792;">
<path d="M1396,818c-17.3,0-32.3-6.3-45-19l-102-102c-12.7-12.7-19-27.7-19-45c0-17.3,6.3-32.3,19-45l307-307L1249-7
	c-12.7-12.7-19-27.7-19-45s6.3-32.3,19-45l102-102c12.7-12.7,27.7-19,45-19c17.3,0,32.3,6.3,45,19l454,454c12.7,12.7,19,27.7,19,45
	s-6.3,32.3-19,45l-454,454C1428.3,811.7,1413.3,818,1396,818z M2157-85.5c-68.7-117.7-161.8-210.8-279.5-279.5S1631.3-468,1492-468
	s-267.8,34.3-385.5,103S895.7-203.2,827-85.5S724,160.7,724,300s34.3,267.8,103,385.5S988.8,896.3,1106.5,965s246.2,103,385.5,103
	s267.8-34.3,385.5-103s210.8-161.8,279.5-279.5c68.7-117.7,103-246.2,103-385.5S2225.7,32.2,2157-85.5z"/>
</svg>
