<svg xmlns="http://www.w3.org/2000/svg" x="0px" y="0px" viewBox="596 -596 1792 1792" style="enable-background:new 596 -596 1792 1792;">
<path d="M1364,722c-17.3,0-32.3-6.3-45-19L961,345c-12.7-12.7-19-27.7-19-45s6.3-32.3,19-45l102-102c12.7-12.7,27.7-19,45-19
	s32.3,6.3,45,19l211,211l467-467c12.7-12.7,27.7-19,45-19s32.3,6.3,45,19L2023-1c12.7,12.7,19,27.7,19,45s-6.3,32.3-19,45l-614,614
	C1396.3,715.7,1381.3,722,1364,722z M2175.5-383.5c-56.3-56.3-124.2-84.5-203.5-84.5h-960c-79.3,0-147.2,28.2-203.5,84.5
	S724-259.3,724-180v960c0,79.3,28.2,147.2,84.5,203.5c56.3,56.3,124.2,84.5,203.5,84.5h960c79.3,0,147.2-28.2,203.5-84.5
	c56.3-56.3,84.5-124.2,84.5-203.5v-960C2260-259.3,2231.8-327.2,2175.5-383.5z"/>
</svg>
