<svg xmlns="http://www.w3.org/2000/svg" x="0px" y="0px" viewBox="596 -596 1792 1792" style="enable-background:new 596 -596 1792 1792;">
<path d="M2068-340v-96c0-44-15.7-81.7-47-113c-31.3-31.3-69-47-113-47h-64c-44,0-81.7,15.7-113,47s-47,69-47,113v96h-384v-96
	c0-44-15.7-81.7-47-113c-31.3-31.3-69-47-113-47h-64c-44,0-81.7,15.7-113,47c-31.3,31.3-47,69-47,113v96H788
	c-34.7,0-64.7,12.7-90,38s-38,55.3-38,90v1280c0,34.7,12.7,64.7,38,90s55.3,38,90,38h1408c34.7,0,64.7-12.7,90-38
	c25.3-25.3,38-55.3,38-90V-212c0-34.7-12.7-64.7-38-90c-25.3-25.3-55.3-38-90-38H2068z M1821-459c6-6,13.7-9,23-9h64
	c9.3,0,17,3,23,9s9,13.7,9,23v288c0,9.3-3,17-9,23s-13.7,9-23,9h-64c-9.3,0-17-3-23-9s-9-13.7-9-23v-288
	C1812-445.3,1815-453,1821-459z M1053-459c6-6,13.7-9,23-9h64c9.3,0,17,3,23,9s9,13.7,9,23v288c0,9.3-3,17-9,23s-13.7,9-23,9h-64
	c-9.3,0-17-3-23-9s-9-13.7-9-23v-288C1044-445.3,1047-453,1053-459z M788,1068V44h1408v1024H788z M1556,268c0-9.3-3-17-9-23
	s-13.7-9-23-9h-64c-9.3,0-17,3-23,9s-9,13.7-9,23v224h-224c-9.3,0-17,3-23,9s-9,13.7-9,23v64c0,9.3,3,17,9,23s13.7,9,23,9h224v224
	c0,9.3,3,17,9,23s13.7,9,23,9h64c9.3,0,17-3,23-9s9-13.7,9-23V620h224c9.3,0,17-3,23-9s9-13.7,9-23v-64c0-9.3-3-17-9-23
	s-13.7-9-23-9h-224V268z"/>
</svg>
