<svg xmlns="http://www.w3.org/2000/svg" x="0px" y="0px" viewBox="596 -596 1792 1792" style="enable-background:new 596 -596 1792 1792;">
<path d="M1108,716c0-8.7-3-16.3-9-23c-6.7-6-14.3-9-23-9s-16.3,3-23,9L797,949c-6,6.7-9,14.3-9,23s3,16.3,9,23c7.3,6,15,9,23,9
	c8.7,0,16.3-3,23-9l256-256C1105,732.3,1108,724.7,1108,716z M1259,757c-6-6-13.7-9-23-9c-9.3,0-17,3-23,9s-9,13.7-9,23v320
	c0,9.3,3,17,9,23s13.7,9,23,9c9.3,0,17-3,23-9s9-13.7,9-23V780C1268,770.7,1265,763,1259,757z M1035,533c-6-6-13.7-9-23-9H692
	c-9.3,0-17,3-23,9s-9,13.7-9,23c0,9.3,3,17,9,23s13.7,9,23,9h320c9.3,0,17-3,23-9s9-13.7,9-23C1044,546.7,1041,539,1035,533z
	 M2224,480l-336-336c-14-14-32.7-28-56-42l-18,239l274,275c18.7,18.7,28,41.3,28,68c0,26-9.3,48.3-28,67l-147,146
	c-18,18-40.7,26.8-68,26.5s-50-9.5-68-27.5l-273-274l-239,18c14,23.3,28,42,42,56l334,335c55.3,56.7,123.3,85,204,85
	c80,0,147.7-27.7,203-83l147-146c56.7-55.3,85-123,85-203C2308,605.3,2280,537.3,2224,480z M1649-96l-334-335
	c-55.3-56.7-123.3-85-204-85c-80,0-147.7,27.7-203,83L761-287c-56.7,55.3-85,123-85,203c0,78.7,28,146.7,84,204l336,336
	c14,14,32.7,28,56,42l18-240L896-16c-18.7-18.7-28-41.3-28-68c0-26,9.3-48.3,28-67l147-146c19.3-18,42-27,68-27
	c26.7,0,49.3,9.3,68,28l273,274l239-18C1677-63.3,1663-82,1649-96z M2315,21c-6-6-13.7-9-23-9h-320c-9.3,0-17,3-23,9s-9,13.7-9,23
	s3,17,9,23s13.7,9,23,9h320c9.3,0,17-3,23-9s9-13.7,9-23S2321,27,2315,21z M1771-523c-6-6-13.7-9-23-9s-17,3-23,9s-9,13.7-9,23v320
	c0,9.3,3,17,9,23s13.7,9,23,9s17-3,23-9s9-13.7,9-23v-320C1780-509.3,1777-517,1771-523z M2196-372c0-8.7-3-16.3-9-23
	c-6.7-6-14.3-9-23-9c-8.7,0-16.3,3-23,9l-256,256c-6,6.7-9,14.3-9,23s3,16.3,9,23c7.3,6,15,9,23,9s15.7-3,23-9l256-256
	C2193-355.7,2196-363.3,2196-372z"/>
</svg>
