<svg xmlns="http://www.w3.org/2000/svg" x="0px" y="0px" viewBox="596 -596 1792 1792" style="enable-background:new 596 -596 1792 1792;">
<path d="M1990,183l-543,543c-12.7,12.7-28,19-46,19c-17.3,0-32.3-6.3-45-19L994,364c-12-12-18-27-18-45c0-18.7,6-34,18-46l91-90
	c12.7-12.7,27.7-19,45-19s32.3,6.3,45,19l226,226L1809,2c12.7-12.7,27.7-19,45-19s32.3,6.3,45,19l91,90c12,12,18,27.3,18,46
	C2008,156,2002,171,1990,183z M2157-85.5c-68.7-117.7-161.8-210.8-279.5-279.5S1631.3-468,1492-468s-267.8,34.3-385.5,103
	S895.7-203.2,827-85.5S724,160.7,724,300s34.3,267.8,103,385.5S988.8,896.3,1106.5,965s246.2,103,385.5,103s267.8-34.3,385.5-103
	s210.8-161.8,279.5-279.5c68.7-117.7,103-246.2,103-385.5S2225.7,32.2,2157-85.5z"/>
</svg>
