<svg xmlns="http://www.w3.org/2000/svg" x="0px" y="0px" viewBox="596 -596 1792 1792" style="enable-background:new 596 -596 1792 1792;">
<path d="M797.5,930.5c-6.3-6.3-9.5-13.8-9.5-22.5V-212h640V940H820C811.3,940,803.8,936.8,797.5,930.5z M2186.5,930.5
	c-6.3,6.3-13.8,9.5-22.5,9.5h-608V-212h640V908C2196,916.7,2192.8,924.2,2186.5,930.5z M2277-421c-31.3-31.3-69-47-113-47H820
	c-44,0-81.7,15.7-113,47s-47,69-47,113V908c0,44,15.7,81.7,47,113c31.3,31.3,69,47,113,47h1344c44,0,81.7-15.7,113-47
	c31.3-31.3,47-69,47-113V-308C2324-352,2308.3-389.7,2277-421z"/>
</svg>
