<svg xmlns="http://www.w3.org/2000/svg" x="0px" y="0px" viewBox="596 -596 1792 1792" style="enable-background:new 596 -596 1792 1792;">
<path d="M1409-577c-12.7-12.7-27.7-19-45-19c-17.3,0-32.3,6.3-45,19c-12.7,12.7-19,27.7-19,45v416c0,17.3-6.3,32.3-19,45
	s-27.7,19-45,19s-32.3-6.3-45-19s-19-27.7-19-45v-416c0-17.3-6.3-32.3-19-45s-27.7-19-45-19s-32.3,6.3-45,19s-19,27.7-19,45v416
	c0,17.3-6.3,32.3-19,45c-12.7,12.7-27.7,19-45,19s-32.3-6.3-45-19s-19-27.7-19-45v-416c0-17.3-6.3-32.3-19-45s-27.7-19-45-19
	s-32.3,6.3-45,19s-19,27.7-19,45v640c0,40.7,11.8,77.7,35.5,111s54.5,56.7,92.5,70v779c0,34.7,12.7,64.7,38,90s55.3,38,90,38h128
	c34.7,0,64.7-12.7,90-38s38-55.3,38-90V289c38-13.3,68.8-36.7,92.5-70c23.7-33.3,35.5-70.3,35.5-111v-640
	C1428-549.3,1421.7-564.3,1409-577z M2177-577c-12.7-12.7-27.7-19-45-19h-256c-88,0-163.3,31.3-226,94c-62.7,62.7-94,138-94,226v800
	c0,8.7,3.2,16.2,9.5,22.5c6.3,6.3,13.8,9.5,22.5,9.5h224v512c0,34.7,12.7,64.7,38,90s55.3,38,90,38h128c34.7,0,64.7-12.7,90-38
	c25.3-25.3,38-55.3,38-90V-532C2196-549.3,2189.7-564.3,2177-577z"/>
</svg>
