<svg xmlns="http://www.w3.org/2000/svg" x="0px" y="0px" viewBox="596 -596 1792 1792" style="enable-background:new 596 -596 1792 1792;">
<path d="M788,780h288v288H788V780z M1140,780h320v288h-320V780z M788,396h288v320H788V396z M1140,396h320v320h-320V396z M788,44h288
	v288H788V44z M1524,780h320v288h-320V780z M1140,44h320v288h-320V44z M1908,780h288v288h-288V780z M1524,396h320v320h-320V396z
	 M1162.5-125.5c-6.3,6.3-13.8,9.5-22.5,9.5h-64c-8.7,0-16.2-3.2-22.5-9.5s-9.5-13.8-9.5-22.5v-288c0-8.7,3.2-16.2,9.5-22.5
	s13.8-9.5,22.5-9.5h64c8.7,0,16.2,3.2,22.5,9.5s9.5,13.8,9.5,22.5v288C1172-139.3,1168.8-131.8,1162.5-125.5z M1908,396h288v320
	h-288V396z M1524,44h320v288h-320V44z M1908,44h288v288h-288V44z M1930.5-125.5c-6.3,6.3-13.8,9.5-22.5,9.5h-64
	c-8.7,0-16.2-3.2-22.5-9.5s-9.5-13.8-9.5-22.5v-288c0-8.7,3.2-16.2,9.5-22.5s13.8-9.5,22.5-9.5h64c8.7,0,16.2,3.2,22.5,9.5
	s9.5,13.8,9.5,22.5v288C1940-139.3,1936.8-131.8,1930.5-125.5z M2286-302c-25.3-25.3-55.3-38-90-38h-128v-96c0-44-15.7-81.7-47-113
	c-31.3-31.3-69-47-113-47h-64c-44,0-81.7,15.7-113,47s-47,69-47,113v96h-384v-96c0-44-15.7-81.7-47-113c-31.3-31.3-69-47-113-47h-64
	c-44,0-81.7,15.7-113,47c-31.3,31.3-47,69-47,113v96H788c-34.7,0-64.7,12.7-90,38s-38,55.3-38,90v1280c0,34.7,12.7,64.7,38,90
	s55.3,38,90,38h1408c34.7,0,64.7-12.7,90-38c25.3-25.3,38-55.3,38-90V-212C2324-246.7,2311.3-276.7,2286-302z"/>
</svg>
