<svg xmlns="http://www.w3.org/2000/svg" x="0px" y="0px" viewBox="596 -596 1792 1792" style="enable-background:new 596 -596 1792 1792;">
<path d="M1144,551c-26,0-48-6-66-18s-31.3-29.2-40-51.5c-8.7-22.3-14.7-45.5-18-69.5s-5-52-5-84c0-78,10.5-137.2,31.5-177.5
	S1097,90,1135,90c34,0,61.2,11.7,81.5,35c20.3,23.3,32.2,56.3,35.5,99h203c-8.7-106.7-41-189-97-247s-133.3-87-232-87
	c-93.3,0-171,39.2-233,117.5S800,189.7,800,319c0,133.3,30.8,238.7,92.5,316S1039,751,1147,751c86.7,0,158.2-30.2,214.5-90.5
	c56.3-60.3,89.2-143.2,98.5-248.5h-207C1243.7,504.7,1207.3,551,1144,551z M1931.5,513c-18.3,25.3-43.8,38-76.5,38
	c-26,0-47.8-6-65.5-18s-30.8-29.2-39.5-51.5s-14.7-45.5-18-69.5s-5-52-5-84c0-78,10.5-137.2,31.5-177.5S1809,90,1847,90
	c33.3,0,60.3,11.7,81,35s32.3,56.3,35,99h204c-8.7-106.7-41-189-97-247s-133.3-87-232-87c-93.3,0-171,39.2-233,117.5
	s-93,182.2-93,311.5c0,133.3,30.8,238.7,92.5,316S1751,751,1859,751c86.7,0,158-30.2,214-90.5s88.7-143.2,98-248.5h-206
	C1961,454,1949.8,487.7,1931.5,513z M2309,602c-10,66-30.3,119-61,159c-3.3,6-7.8,11.3-13.5,16c-5.7,4.7-12.5,9.3-20.5,14
	s-13.7,8.3-17,11c-58,43.3-290.3,65-697,65c-183.3,0-340.2-5.3-470.5-16S819.3,824,790,802c-4-3.3-9.8-7.3-17.5-12
	c-7.7-4.7-14.5-9.3-20.5-14s-11-9.7-15-15c-30-40.7-50-94.2-60-160.5S662,431.7,662,293c0-139.3,5-242.2,15-308.5S707-135,737-175
	c4-5.3,8.8-10.2,14.5-14.5c5.7-4.3,12.7-9,21-14c8.3-5,14.2-8.8,17.5-11.5c56.7-42,293.3-63,710-63c407.3,0,639.7,21,697,63
	c1.3,1.3,6.7,5,16,11c9.3,6,16.5,11,21.5,15s9.5,8.7,13.5,14c30,40.7,50.2,94.3,60.5,161c10.3,66.7,15.5,169,15.5,307
	C2324,433,2319,536,2309,602z M468-468v1536h2048V-468H468z"/>
</svg>
