<svg xmlns="http://www.w3.org/2000/svg" x="0px" y="0px" viewBox="596 -596 1792 1792" style="enable-background:new 596 -596 1792 1792;">
<path d="M1844,562c-17.3,0-32.3-6.3-45-19l-307-307l-307,307c-12.7,12.7-27.7,19-45,19s-32.3-6.3-45-19L993,441
	c-12.7-12.7-19-27.7-19-45s6.3-32.3,19-45l454-454c12.7-12.7,27.7-19,45-19c17.3,0,32.3,6.3,45,19l454,454c12.7,12.7,19,27.7,19,45
	s-6.3,32.3-19,45l-102,102C1876.3,555.7,1861.3,562,1844,562z M2157-85.5c-68.7-117.7-161.8-210.8-279.5-279.5S1631.3-468,1492-468
	s-267.8,34.3-385.5,103S895.7-203.2,827-85.5S724,160.7,724,300s34.3,267.8,103,385.5S988.8,896.3,1106.5,965s246.2,103,385.5,103
	s267.8-34.3,385.5-103s210.8-161.8,279.5-279.5c68.7-117.7,103-246.2,103-385.5S2225.7,32.2,2157-85.5z"/>
</svg>
