<svg xmlns="http://www.w3.org/2000/svg" x="0px" y="0px" viewBox="596 -596 1792 1792" style="enable-background:new 596 -596 1792 1792;">
<path d="M1492,722c-17.3,0-32.3-6.3-45-19L993,249c-12.7-12.7-19-27.7-19-45s6.3-32.3,19-45l102-102c12.7-12.7,27.7-19,45-19
	s32.3,6.3,45,19l307,307l307-307c12.7-12.7,27.7-19,45-19s32.3,6.3,45,19l102,102c12.7,12.7,19,27.7,19,45s-6.3,32.3-19,45l-454,454
	C1524.3,715.7,1509.3,722,1492,722z M2157-85.5c-68.7-117.7-161.8-210.8-279.5-279.5S1631.3-468,1492-468s-267.8,34.3-385.5,103
	S895.7-203.2,827-85.5S724,160.7,724,300s34.3,267.8,103,385.5S988.8,896.3,1106.5,965s246.2,103,385.5,103s267.8-34.3,385.5-103
	s210.8-161.8,279.5-279.5c68.7-117.7,103-246.2,103-385.5S2225.7,32.2,2157-85.5z"/>
</svg>
