<svg xmlns="http://www.w3.org/2000/svg" x="0px" y="0px" viewBox="596 -596 1792 1792" style="enable-background:new 596 -596 1792 1792;">
<path d="M1066.5,264.5c-12.3-11-27.8-16.5-46.5-16.5c-24.7,0-45.3,8.5-62,25.5s-25,37.8-25,62.5c0,18.7,5.8,33.3,17.5,44
	s27.2,16,46.5,16c24.7,0,45.5-8.2,62.5-24.5s25.5-36.8,25.5-61.5C1085,290.7,1078.8,275.5,1066.5,264.5z M1858,130.5
	c-8-7-16.3-11.2-25-12.5s-20.3-2-35-2h-18c-7.3,0-11.7,3.7-13,11l-17,107l32-1c29.3,0,51.3-5,66-15s22-29,22-57
	C1870,147.7,1866,137.5,1858,130.5z M2202.5,264.5c-12.3-11-27.8-16.5-46.5-16.5c-24.7,0-45.3,8.5-62,25.5c-16.7,17-25,37.8-25,62.5
	c0,18.7,6,33.3,18,44s27.7,16,47,16c24,0,44.5-8.3,61.5-25s25.5-37,25.5-61C2221,290.7,2214.8,275.5,2202.5,264.5z M804,273.5
	c-32.7,32.3-77.7,48.5-135,48.5c-2,0-6.7-0.3-14-1c-7.3-0.7-13.7-1-19-1c-5.3,0-11,0.5-17,1.5s-11,3.2-15,6.5s-6.3,7.7-7,13l-18,110
	c-1.3,12.7-8.7,19-22,19h-76c-4,0-7.3-1.7-10-5c-2.7-3.3-3.7-7-3-11l65-408c1.3-12.7,8.3-19,21-19h160c41.3,0,74.8,8.8,100.5,26.5
	C840.2,71.2,853,99.7,853,139C853,196.3,836.7,241.2,804,273.5z M1140,470h-69c-8.7,0-13-5.3-13-16c0-6,1.3-13,4-21
	c-12,13.3-28,24-48,32s-39.3,12-58,12c-38.7,0-69.5-11.7-92.5-35c-23-23.3-34.5-54.7-34.5-94c0-48.7,16.8-91,50.5-127
	c33.7-36,74.5-54,122.5-54c45.3,0,77,13.3,95,40c2-22,7.7-33,17-33h76c4,0,7.3,1.7,10,5c2.7,3.3,3.7,7,3,11l-41,261
	C1160,463.7,1152.7,470,1140,470z M1607,195l-255,368c-4.7,6.7-10.7,10-18,10h-77c-8.7,0-13-4.3-13-13c0-5.3,27.3-45.3,82-120
	c-0.7-2.7-8.5-26-23.5-70s-29-85-42-123s-19.5-57.7-19.5-59c0-3.3,1.3-6.5,4-9.5c2.7-3,5.7-4.5,9-4.5h75c11.3,0,18.7,5.3,22,16
	l44,150l106-156c4.7-6.7,10.7-10,18-10h77c3.3,0,6.3,1.5,9,4.5s4,6.2,4,9.5S1608.3,193.7,1607,195z M1940,273.5
	c-32.7,32.3-77.7,48.5-135,48.5c-2,0-6.7-0.3-14-1s-13.7-1-19-1s-11,0.5-17,1.5s-11,3.2-15,6.5s-6.3,7.7-7,13l-18,116
	c-2.7,8.7-8,13-16,13h-82c-4,0-7.3-1.7-10-5s-3.7-7-3-11l65-408c1.3-12.7,8.7-19,22-19h159c41.3,0,74.8,8.8,100.5,26.5
	S1989,99.7,1989,139C1989,196.3,1972.7,241.2,1940,273.5z M2276,470h-69c-8.7,0-13-5.3-13-16c0-2.7,0.7-6.7,2-12c1.3-5.3,2-8.3,2-9
	c-11.3,13.3-27,24-47,32s-39.7,12-59,12c-38.7,0-69.5-11.7-92.5-35c-23-23.3-34.5-54.7-34.5-94c0-48.7,16.8-91,50.5-127
	c33.7-36,74.5-54,122.5-54c46,0,77.7,13.3,95,40c2-22,7.7-33,17-33h76c4,0,7.3,1.7,10,5c2.7,3.3,3.7,7,3,11l-41,261
	C2296,463.7,2288.7,470,2276,470z M2451,451c-1.3,12.7-8.3,19-21,19h-66c-4,0-7.3-1.5-10-4.5c-2.7-3-4-6.2-4-9.5l1-2l65-416
	c1.3-7.3,5.7-11,13-11h74c8.7,0,13,4.7,13,14v1L2451,451z M720,127.5c-12-7.7-31.3-11.5-58-11.5h-19c-7.3,0-11.7,3.7-13,11l-17,107
	l33-1c26,0,46-3.7,60-11s22.7-22.7,26-46C736,151.3,732,135.2,720,127.5z M2606-430c-25.3-25.3-55.3-38-90-38H468
	c-34.7,0-64.7,12.7-90,38s-38,55.3-38,90V940c0,34.7,12.7,64.7,38,90c25.3,25.3,55.3,38,90,38h2048c34.7,0,64.7-12.7,90-38
	c25.3-25.3,38-55.3,38-90V-340C2644-374.7,2631.3-404.7,2606-430z"/>
</svg>
