<svg xmlns="http://www.w3.org/2000/svg" x="0px" y="0px" viewBox="596 -596 1792 1792" style="enable-background:new 596 -596 1792 1792;">
<path d="M2016,83v398h25V304h136c38,0,68.3-9,91-27c22.7-18,34-45.3,34-82s-10.2-64.5-30.5-83.5c-20.3-19-48.8-28.5-85.5-28.5H2016z
	 M1548,307c315.3-176.7,475-266,479-268c38-20.7,92.5-48.8,163.5-84.5S2307-104,2327-114l-8-16l-2-4
	c-79.3-142.7-189.2-255.3-329.5-338S1695.7-596,1533-596c-121.3,0-237.3,23.7-348,71c-110.7,47.3-206,111-286,191
	S755.3-158.7,708-48s-71,226.7-71,348s23.7,237.3,71,348s111,206,191,286s175.3,143.7,286,191s226.7,71,348,71
	c171.3,0,329.5-45.3,474.5-136s255.2-212.7,330.5-366l5-10l4-11C2070.3,551,1804,429,1548,307z M1300.5,1142.5
	c-75.7-21-145.3-50.2-209-87.5c-63.7-37.3-122.5-83-176.5-137s-99.7-112.8-137-176.5s-66.5-133.3-87.5-209S659,379.3,659,300
	s10.5-156.8,31.5-232.5s50.2-145.3,87.5-209S861-264,915-318s112.8-99.7,176.5-137c63.7-37.3,133.3-66.5,209-87.5
	c75.7-21,153.2-31.5,232.5-31.5c158.7,0,306.3,40.3,443,121s243.7,190.3,321,329L2017,19c-50-87.3-118-155.5-204-204.5
	S1633.7-259,1533-259c-100.7,0-194,25-280,75S1099-66,1049,20s-75,179.3-75,280s25,194,75,280s118,154,204,204s179.3,75,280,75
	c105.3,0,202.7-27.3,292-82s158-128.7,206-222l287,129c-73.3,150-180.8,269.2-322.5,357.5S1699.7,1174,1533,1174
	C1453.7,1174,1376.2,1163.5,1300.5,1142.5z"/>
</svg>
