<svg xmlns="http://www.w3.org/2000/svg" x="0px" y="0px" viewBox="596 -596 1792 1792" style="enable-background:new 596 -596 1792 1792;">
<path d="M2292-468c44,0,81.7,15.7,113,47s47,69,47,113V908c0,44-15.7,81.7-47,113c-31.3,31.3-69,47-113,47H692
	c-44,0-81.7-15.7-113-47s-47-69-47-113V-308c0-44,15.7-81.7,47-113s69-47,113-47H2292z M692-340c-8.7,0-16.2,3.2-22.5,9.5
	S660-316.7,660-308v224h1664v-224c0-8.7-3.2-16.2-9.5-22.5s-13.8-9.5-22.5-9.5H692z M2292,940c8.7,0,16.2-3.2,22.5-9.5
	s9.5-13.8,9.5-22.5V300H660v608c0,8.7,3.2,16.2,9.5,22.5s13.8,9.5,22.5,9.5H2292z M788,812V684h256v128H788z M1172,812V684h384v128
	H1172z"/>
</svg>
