<svg xmlns="http://www.w3.org/2000/svg" x="0px" y="0px" viewBox="596 -596 1792 1792" style="enable-background:new 596 -596 1792 1792;">
<path d="M1006.5,1030.5c-25,25-55.2,37.5-90.5,37.5s-65.5-12.5-90.5-37.5S788,975.3,788,940s12.5-65.5,37.5-90.5S880.7,812,916,812
	s65.5,12.5,90.5,37.5s37.5,55.2,37.5,90.5S1031.5,1005.5,1006.5,1030.5z M1390.5,1030.5c-25,25-55.2,37.5-90.5,37.5
	c-35.3,0-65.5-12.5-90.5-37.5S1172,975.3,1172,940s12.5-65.5,37.5-90.5s55.2-37.5,90.5-37.5c35.3,0,65.5,12.5,90.5,37.5
	s37.5,55.2,37.5,90.5S1415.5,1005.5,1390.5,1030.5z M1006.5,646.5c-25,25-55.2,37.5-90.5,37.5s-65.5-12.5-90.5-37.5
	S788,591.3,788,556c0-35.3,12.5-65.5,37.5-90.5S880.7,428,916,428s65.5,12.5,90.5,37.5s37.5,55.2,37.5,90.5
	C1044,591.3,1031.5,621.5,1006.5,646.5z M1774.5,1030.5c-25,25-55.2,37.5-90.5,37.5s-65.5-12.5-90.5-37.5S1556,975.3,1556,940
	s12.5-65.5,37.5-90.5s55.2-37.5,90.5-37.5s65.5,12.5,90.5,37.5s37.5,55.2,37.5,90.5S1799.5,1005.5,1774.5,1030.5z M1390.5,646.5
	c-25,25-55.2,37.5-90.5,37.5c-35.3,0-65.5-12.5-90.5-37.5S1172,591.3,1172,556c0-35.3,12.5-65.5,37.5-90.5s55.2-37.5,90.5-37.5
	c35.3,0,65.5,12.5,90.5,37.5s37.5,55.2,37.5,90.5C1428,591.3,1415.5,621.5,1390.5,646.5z M1006.5,262.5c-25,25-55.2,37.5-90.5,37.5
	c-35.3,0-65.5-12.5-90.5-37.5S788,207.3,788,172s12.5-65.5,37.5-90.5S880.7,44,916,44c35.3,0,65.5,12.5,90.5,37.5
	s37.5,55.2,37.5,90.5S1031.5,237.5,1006.5,262.5z M1774.5,646.5c-25,25-55.2,37.5-90.5,37.5s-65.5-12.5-90.5-37.5
	S1556,591.3,1556,556c0-35.3,12.5-65.5,37.5-90.5s55.2-37.5,90.5-37.5s65.5,12.5,90.5,37.5s37.5,55.2,37.5,90.5
	C1812,591.3,1799.5,621.5,1774.5,646.5z M1390.5,262.5c-25,25-55.2,37.5-90.5,37.5s-65.5-12.5-90.5-37.5S1172,207.3,1172,172
	s12.5-65.5,37.5-90.5S1264.7,44,1300,44c35.3,0,65.5,12.5,90.5,37.5s37.5,55.2,37.5,90.5S1415.5,237.5,1390.5,262.5z M2158,1030
	c-25.3,25.3-55.3,38-90,38c-34.7,0-64.7-12.7-90-38c-25.3-25.3-38-55.3-38-90V556c0-34.7,12.7-64.7,38-90s55.3-38,90-38
	c34.7,0,64.7,12.7,90,38c25.3,25.3,38,55.3,38,90v384C2196,974.7,2183.3,1004.7,2158,1030z M1774.5,262.5
	c-25,25-55.2,37.5-90.5,37.5c-35.3,0-65.5-12.5-90.5-37.5S1556,207.3,1556,172s12.5-65.5,37.5-90.5S1648.7,44,1684,44
	c35.3,0,65.5,12.5,90.5,37.5s37.5,55.2,37.5,90.5S1799.5,237.5,1774.5,262.5z M2177-103c-12.7,12.7-27.7,19-45,19H852
	c-17.3,0-32.3-6.3-45-19s-19-27.7-19-45v-256c0-17.3,6.3-32.3,19-45s27.7-19,45-19h1280c17.3,0,32.3,6.3,45,19
	c12.7,12.7,19,27.7,19,45v256C2196-130.7,2189.7-115.7,2177-103z M2158.5,262.5c-25,25-55.2,37.5-90.5,37.5
	c-35.3,0-65.5-12.5-90.5-37.5S1940,207.3,1940,172s12.5-65.5,37.5-90.5S2032.7,44,2068,44c35.3,0,65.5,12.5,90.5,37.5
	s37.5,55.2,37.5,90.5S2183.5,237.5,2158.5,262.5z M2286-558c-25.3-25.3-55.3-38-90-38H788c-34.7,0-64.7,12.7-90,38s-38,55.3-38,90
	v1536c0,34.7,12.7,64.7,38,90s55.3,38,90,38h1408c34.7,0,64.7-12.7,90-38c25.3-25.3,38-55.3,38-90V-468
	C2324-502.7,2311.3-532.7,2286-558z"/>
</svg>
