<svg xmlns="http://www.w3.org/2000/svg" x="0px" y="0px" viewBox="596 -596 1792 1792" style="enable-background:new 596 -596 1792 1792;">
<path d="M2277,209l-12-55c-2,6.7-5,15.3-9,26s-7.3,19.3-10,26l-3,9c-34.7,94.7-56.7,154.3-66,179h138L2277,209z M468-7l2-13h268
	c42.7,0,67.7,18,75,54l58,295C809.7,157.7,675.3,45.7,468-7z M1226-20L965,621H790L655,111c48,19.3,91.7,48.8,131,88.5
	c39.3,39.7,67.7,82.8,85,129.5l17,89l162-438H1226z M1293-20h166l-104,642h-166L1293-20z M1934,135l-15-8c-36-16.7-77.3-24.7-124-24
	c-30.7,0-54.2,5.5-70.5,16.5S1700,143.3,1700,158c0,14,7.3,26.7,22,38s38.3,25.3,71,42c93.3,45.3,140,103.3,140,174
	c-1.3,66.7-28.2,120-80.5,160s-121.8,59.7-208.5,59c-74,0-135.7-11.3-185-34l23-144l22,11c46.7,22,98.7,33,156,33c26,0,49-5.3,69-16
	s30-26,30-46c0-14-6.3-27-19-39s-35-25.7-67-41c-97.3-48-145.7-106-145-174c0.7-62.7,27-113.7,79-153s119-59,201-59
	c53.3,0,103,9,149,27L1934,135z M2516,622h-154c-10-49.3-16.7-81.3-20-96h-212l-35,96h-174l246-588c14.7-36,43.7-54,87-54h128
	L2516,622z M2606-430c-25.3-25.3-55.3-38-90-38H468c-34.7,0-64.7,12.7-90,38s-38,55.3-38,90V940c0,34.7,12.7,64.7,38,90
	c25.3,25.3,55.3,38,90,38h2048c34.7,0,64.7-12.7,90-38c25.3-25.3,38-55.3,38-90V-340C2644-374.7,2631.3-404.7,2606-430z"/>
</svg>
