<svg xmlns="http://www.w3.org/2000/svg" x="0px" y="0px" viewBox="596 -596 1792 1792" style="enable-background:new 596 -596 1792 1792;">
<path d="M1515,259c-6,6-13.7,9-23,9c-26.7,0-49.3,9.3-68,28s-28,41.3-28,68c0,9.3-3,17-9,23s-13.7,9-23,9c-9.3,0-17-3-23-9
	s-9-13.7-9-23c0-44,15.7-81.7,47-113c31.3-31.3,69-47,113-47c9.3,0,17,3,23,9s9,13.7,9,23S1521,253,1515,259z M1673,185
	c-50-50-110.3-75-181-75c-70.7,0-131,25-181,75s-75,110.3-75,181s25,131,75,181s110.3,75,181,75c70.7,0,131-25,181-75
	s75-110.3,75-181S1723,235,1673,185z M724,812h1536v128H724V812z M1763.5,637.5c-75,75-165.5,112.5-271.5,112.5
	s-196.5-37.5-271.5-112.5S1108,472,1108,366s37.5-196.5,112.5-271.5S1386-18,1492-18s196.5,37.5,271.5,112.5S1876,260,1876,366
	S1838.5,562.5,1763.5,637.5z M852-404h384v128H852V-404z M724-212h644l64-128h828v138v118H724V-212z M2350.5-430.5
	c-25-25-55.2-37.5-90.5-37.5H724c-35.3,0-65.5,12.5-90.5,37.5S596-375.3,596-340V940c0,35.3,12.5,65.5,37.5,90.5
	s55.2,37.5,90.5,37.5h1536c35.3,0,65.5-12.5,90.5-37.5s37.5-55.2,37.5-90.5V-340C2388-375.3,2375.5-405.5,2350.5-430.5z"/>
</svg>
