<svg xmlns="http://www.w3.org/2000/svg" x="0px" y="0px" viewBox="596 -596 1792 1792" style="enable-background:new 596 -596 1792 1792;">
<path d="M1106.2-508.7c-122,57.7-225.7,139.5-311,245.5l276,424c34-97.3,95.7-173.8,185-229.5c89.3-55.7,187.3-80.5,294-74.5l742,39
	c-80-158.7-197.3-282.7-352-372c-140.7-81.3-291-121.3-451-120C1355.9-595.5,1228.2-566.3,1106.2-508.7z M596.2,299.8
	c0,146.7,33.2,283.8,99.5,411.5s157.2,233,272.5,316s243.7,135.5,385,157.5l230-451c-102.7,19.3-200.3,4.3-293-45
	c-92.7-49.3-163-121.7-211-217l-337-663C644.9-41.8,596.2,121.8,596.2,299.8z M1823.2,3.8c67.3,78.7,102.8,171.2,106.5,277.5
	s-23.8,203.2-82.5,290.5l-405,623c178.7,9.3,344.7-30.3,498-119c95.3-55.3,177.3-125.2,246-209.5c68.7-84.3,119.7-175,153-272
	c33.3-97,49.5-199,48.5-306s-20.8-210.5-59.5-310.5L1823.2,3.8z M1278.7,86.3c-59,59-88.5,130.2-88.5,213.5s29.5,154.5,88.5,213.5
	s130.2,88.5,213.5,88.5c83.3,0,154.5-29.5,213.5-88.5s88.5-130.2,88.5-213.5s-29.5-154.5-88.5-213.5S1575.6-2.2,1492.2-2.2
	C1408.9-2.2,1337.7,27.3,1278.7,86.3z"/>
</svg>
