<svg xmlns="http://www.w3.org/2000/svg" x="0px" y="0px" viewBox="596 -596 1792 1792" style="enable-background:new 596 -596 1792 1792;">
<path d="M1914,172c0-17.3-6.3-32.3-19-45L1793,25c-12.7-12.7-27.7-19-45-19c-17.3,0-32.3,6.3-45,19l-275,275l-147-147
	c-12.7-12.7-27.7-19-45-19s-32.3,6.3-45,19l-102,102c-12.7,12.7-19,27.7-19,45s6.3,32.3,19,45l294,294c12.7,12.7,27.7,19,45,19
	c17.3,0,32.3-6.3,45-19l422-422C1907.7,204.3,1914,189.3,1914,172z M1963,573c-48.7,83.3-114.7,149.3-198,198s-174.3,73-273,73
	c-98.7,0-189.7-24.3-273-73c-83.3-48.7-149.3-114.7-198-198c-48.7-83.3-73-174.3-73-273s24.3-189.7,73-273
	c48.7-83.3,114.7-149.3,198-198s174.3-73,273-73c98.7,0,189.7,24.3,273,73c83.3,48.7,149.3,114.7,198,198s73,174.3,73,273
	S2011.7,489.7,1963,573z M2157-85.5c-68.7-117.7-161.8-210.8-279.5-279.5S1631.3-468,1492-468s-267.8,34.3-385.5,103
	S895.7-203.2,827-85.5S724,160.7,724,300s34.3,267.8,103,385.5S988.8,896.3,1106.5,965s246.2,103,385.5,103s267.8-34.3,385.5-103
	s210.8-161.8,279.5-279.5c68.7-117.7,103-246.2,103-385.5S2225.7,32.2,2157-85.5z"/>
</svg>
