<svg xmlns="http://www.w3.org/2000/svg" x="0px" y="0px" viewBox="596 -596 1792 1792" style="enable-background:new 596 -596 1792 1792;">
<path d="M954,541.5c-64.7-63.7-97-144.2-97-241.5c0-96,32.7-176.2,98-240.5S1102.3-37,1201-37c30,0,58.7,3.3,86,10
	c27.3,6.7,49.8,14.2,67.5,22.5c17.7,8.3,33.8,17.7,48.5,28c14.7,10.3,24.7,18.2,30,23.5c5.3,5.3,9,9.3,11,12c10,12.7,10.7,25.7,2,39
	l-53,78c-5.3,8-13.3,12.7-24,14c-10,0.7-18.7-2.7-26-10l-16-14c-10.7-9.3-27.5-18.7-50.5-28s-46.8-14-71.5-14
	c-49.3,0-90,16.5-122,49.5s-48,74.8-48,125.5c0,51.3,16.3,93.7,49,127s74.3,50,125,50c12.7,0,25.2-1.2,37.5-3.5
	c12.3-2.3,23.5-5.5,33.5-9.5s19.5-8.5,28.5-13.5s16.8-9.8,23.5-14.5c6.7-4.7,12.5-9,17.5-13s8.8-7.3,11.5-10l4-3
	c7.3-8.7,16.3-12.3,27-11c12,2.7,20,8.3,24,17l45,82c7.3,12,6.3,24-3,36c-69.3,69.3-155,104-257,104
	C1101,637,1018.7,605.2,954,541.5z M1584,541.5c-64.7-63.7-97-144.2-97-241.5c0-96,32.8-176.2,98.5-240.5S1733-37,1831-37
	c30,0,58.7,3.3,86,10s49.8,14.2,67.5,22.5s33.8,17.7,48.5,28s24.7,18.2,30,23.5c5.3,5.3,9,9.3,11,12c10,12.7,10.7,25.7,2,39l-53,78
	c-5.3,8-13.3,12.7-24,14c-10,0.7-18.7-2.7-26-10l-16-14c-10.7-9.3-27.5-18.7-50.5-28s-46.8-14-71.5-14c-49.3,0-90,16.5-122,49.5
	s-48,74.8-48,125.5c0,51.3,16.3,93.7,49,127s74.3,50,125,50c12.7,0,25.2-1.2,37.5-3.5s23.5-5.5,33.5-9.5s19.5-8.5,28.5-13.5
	s16.8-9.8,23.5-14.5s12.5-9,17.5-13s8.8-7.3,11.5-10l4-3c7.3-8.7,16.3-12.3,27-11c11.3,2,19.7,7.7,25,17l45,82c6.7,12,5.3,24-4,36
	c-69.3,69.3-155,104-257,104C1731,637,1648.7,605.2,1584,541.5z M1778-377.5c90.7,39,168.8,91.3,234.5,157
	c65.7,65.7,118,143.8,157,234.5s58.5,186,58.5,286s-19.5,195.3-58.5,286s-91.3,168.8-157,234.5c-65.7,65.7-143.8,118-234.5,157
	s-186,58.5-286,58.5s-195.3-19.5-286-58.5c-90.7-39-168.8-91.3-234.5-157s-118-143.8-157-234.5S756,400,756,300s19.5-195.3,58.5-286
	s91.3-168.8,157-234.5s143.8-118,234.5-157c90.7-39,186-58.5,286-58.5S1687.3-416.5,1778-377.5z M1144-525
	c-110.7,47.3-206,111-286,191S714.3-158.7,667-48s-71,226.7-71,348s23.7,237.3,71,348s111,206,191,286s175.3,143.7,286,191
	s226.7,71,348,71c121.3,0,237.3-23.7,348-71s206-111,286-191s143.7-175.3,191-286c47.3-110.7,71-226.7,71-348s-23.7-237.3-71-348
	c-47.3-110.7-111-206-191-286s-175.3-143.7-286-191s-226.7-71-348-71C1370.7-596,1254.7-572.3,1144-525z"/>
</svg>
