<svg xmlns="http://www.w3.org/2000/svg" x="0px" y="0px" viewBox="596 -596 1792 1792" style="enable-background:new 596 -596 1792 1792;">
<path d="M1808.5,616.5C1754.8,670.2,1692,707.7,1620,729V620c0-17.3-6.3-32.3-19-45c-12.7-12.7-27.7-19-45-19h-128
	c-17.3,0-32.3,6.3-45,19c-12.7,12.7-19,27.7-19,45v109c-72-21.3-134.8-58.8-188.5-112.5C1121.8,562.8,1084.3,500,1063,428h109
	c17.3,0,32.3-6.3,45-19s19-27.7,19-45V236c0-17.3-6.3-32.3-19-45s-27.7-19-45-19h-109c21.3-72,58.8-134.8,112.5-188.5
	S1292-107.7,1364-129v109c0,17.3,6.3,32.3,19,45c12.7,12.7,27.7,19,45,19h128c17.3,0,32.3-6.3,45-19c12.7-12.7,19-27.7,19-45v-109
	c72,21.3,134.8,58.8,188.5,112.5S1899.7,100,1921,172h-109c-17.3,0-32.3,6.3-45,19s-19,27.7-19,45v128c0,17.3,6.3,32.3,19,45
	s27.7,19,45,19h109C1899.7,500,1862.2,562.8,1808.5,616.5z M2241,191c-12.7-12.7-27.7-19-45-19h-143
	c-24.7-107.3-76.2-200.2-154.5-278.5S1727.3-236.3,1620-261v-143c0-17.3-6.3-32.3-19-45c-12.7-12.7-27.7-19-45-19h-128
	c-17.3,0-32.3,6.3-45,19c-12.7,12.7-19,27.7-19,45v143c-107.3,24.7-200.2,76.2-278.5,154.5S955.7,64.7,931,172H788
	c-17.3,0-32.3,6.3-45,19s-19,27.7-19,45v128c0,17.3,6.3,32.3,19,45s27.7,19,45,19h143c24.7,107.3,76.2,200.2,154.5,278.5
	S1256.7,836.3,1364,861v143c0,17.3,6.3,32.3,19,45c12.7,12.7,27.7,19,45,19h128c17.3,0,32.3-6.3,45-19c12.7-12.7,19-27.7,19-45V861
	c107.3-24.7,200.2-76.2,278.5-154.5S2028.3,535.3,2053,428h143c17.3,0,32.3-6.3,45-19c12.7-12.7,19-27.7,19-45V236
	C2260,218.7,2253.7,203.7,2241,191z"/>
</svg>
