<svg xmlns="http://www.w3.org/2000/svg" x="0px" y="0px" viewBox="596 -596 1792 1792" style="enable-background:new 596 -596 1792 1792;">
<path d="M1511,255c-12.7,12.7-19,27.7-19,45s6.3,32.3,19,45c12.7,12.7,27.7,19,45,19c17.3,0,32.3-6.3,45-19c12.7-12.7,19-27.7,19-45
	s-6.3-32.3-19-45c-12.7-12.7-27.7-19-45-19C1538.6,236,1523.6,242.3,1511,255z M2363-98c18.7-13.3,27-32,25-56
	c-3.3-23.3-15-40.3-35-51l-128-64c-8.7-4.7-18.3-7-29-7c-11.3,0-21.7,2.7-31,8l-690,387l-110-66c-5.3-2.7-9.3-4.3-12-5
	c9.3-32.7,12.7-65,10-97c-4.7-51.3-23.3-100.7-56-148c-32.7-47.3-76.7-88.3-132-123c-88-56-180.3-84-277-84
	c-91.3,0-165.3,26.3-222,79c-28.7,26-49.8,57-63.5,93s-18.8,73.7-15.5,113c4.7,50.7,23.3,99.7,56,147c32.7,47.3,76.3,88.7,131,124
	c88,56,180.7,84,278,84c55.3,0,105.7-10.3,151-31c6,8.7,13.3,16,22,22l122,73l-122,73c-8.7,6-16,13.3-22,22
	c-45.3-20.7-95.7-31-151-31c-97.3,0-190,28-278,84c-54.7,35.3-98.3,76.7-131,124c-32.7,47.3-51.3,96.3-56,147c-7.3,82,19,151,79,207
	c57.3,52,131.3,78,222,78c96.7,0,189-28,277-84c55.3-35.3,99.3-76.5,132-123.5c32.7-47,51.3-96.2,56-147.5c2.7-32-0.7-64.3-10-97
	c2.7-0.7,6.7-2.3,12-5l110-66l690,387c9.3,5.3,19.7,8,31,8c10.7,0,20.3-2.3,29-7l128-64c20-10.7,31.7-27.7,35-51
	c2-24-6.3-42.7-25-56l-507-398L2363-98z M1062,76c-66.7,0-130.7-19.7-192-59c-54-34-89.3-73-106-117s-9.7-80,21-108
	c26-24,63.7-36,113-36c66.7,0,130.7,19.7,192,59c54,34,89.3,73,106,117c16.7,44,9.7,80-21,108C1149,64,1111.3,76,1062,76z M898,844
	c-49.3,0-87-12-113-36c-30.7-28-37.7-64-21-108s52-83,106-117c61.3-39.3,125.3-59,192-59c49.3,0,87,12,113,36
	c30.7,28,37.7,64,21,108c-16.7,44-52,83-106,117C1028.6,824.3,964.6,844,898,844z M1277,163c0.7-0.7,1.7-1.5,3-2.5
	c1.3-1,2.7-2.2,4-3.5c3.3-2.7,7.3-6.7,12-12c4.7-5.3,8-9,10-11l26-26l79,47l-14,8c-22,13.3-33,32-33,56v11l-96-58L1277,163z
	 M1332,492l-26-26c-2.7-2.7-6.3-6.7-11-12c-4.7-5.3-8.3-9.3-11-12c-3.3-2.7-5.7-4.7-7-6l-9-8l160-96V219l768-431l128,64l-736,576
	l-96-32L1332,492z M1614,485c7.3-2.7,11.7-5,13-7l177-138l520,408l-128,64L1614,485z"/>
</svg>
