<svg xmlns="http://www.w3.org/2000/svg" x="0px" y="0px" viewBox="596 -596 1792 1792" style="enable-background:new 596 -596 1792 1792;">
<path d="M652-434c-22.7,22.7-34,50-34,82V952c0,32,11.3,59.3,34,82c22.7,22.7,50,34,82,34h272c-63.3-69.3-114-161-152-275
	c-20-60.7-47-170.3-81-329c-1.3-6-3.3-15.3-6-28c-12.7-59.3-22-104.8-28-136.5s-13-73.7-21-126s-11.5-96.3-10.5-132
	s3.8-75.7,8.5-120c4.7-44.3,14.7-86.2,30-125.5s35-77.7,59-115c37.3-56.7,79.3-106.3,126-149H734C702-468,674.7-456.7,652-434z
	 M2122-181L1654-81c-11.3-21.3-22.8-40.2-34.5-56.5s-26-32.3-43-48s-35-27.3-54-35s-41.3-13.3-67-17c-25.7-3.7-53.5-1.5-83.5,6.5
	c-40,8.7-74.2,23.7-102.5,45c-28.3,21.3-49.2,45.7-62.5,73c-12,25.3-19.7,51-23,77c-3.3,26-1.5,72.3,5.5,139s22.2,154.3,45.5,263
	c22.7,108.7,44.2,194.7,64.5,258c20.3,63.3,37.5,106.3,51.5,129s31.7,43,53,61c50.7,44,117,57.3,199,40c36.7-8,67.8-20.2,93.5-36.5
	s45.5-36.2,59.5-59.5s24.3-47.3,31-72c6.7-24.7,10.7-52,12-82l469-101c10.7,236.7-54.7,425-196,565h178c32,0,59.3-11.3,82-34
	c22.7-22.7,34-50,34-82V-352c0-32-11.3-59.3-34-82c-22.7-22.7-50-34-82-34h-308C2016.7-393.3,2076.7-297.7,2122-181z"/>
</svg>
