<svg xmlns="http://www.w3.org/2000/svg" x="0px" y="0px" viewBox="596 -596 1792 1792" style="enable-background:new 596 -596 1792 1792;">
<path d="M2503.5,263.5c-8.3-10.3-18.8-16.8-31.5-19.5L2285-80c4.7-9.3,7-18.3,7-27c0-14.7-5.3-27.5-16-38.5
	c-10.7-11-23.7-16.8-39-17.5l-207-358c2.7-8,4-14,4-18c0-16-5.7-29.5-17-40.5s-24.7-16.5-40-16.5c-17.3,0-32,7-44,21h-398
	c-10.7-14-25-21-43-21s-32.3,7-43,21h-396c-12-14-26.7-21-44-21c-15.3,0-28.7,5.5-40,16.5S952-555,952-539c0,5.3,1.3,11.3,4,18
	L747-158c-22.7,10-34,27-34,51c0,0.7,0.2,1.7,0.5,3s0.5,2.3,0.5,3L515,243c-13.3,2.7-24.5,9.2-33.5,19.5S468,285,468,299
	c0,13.3,4.2,25.2,12.5,35.5s19.2,17.2,32.5,20.5l206,356c-2,6-3,12-3,18c0,13.3,4.2,25.2,12.5,35.5s19.2,16.8,32.5,19.5l193,335
	c-2.7,8-4,14.7-4,20c0,16,5.7,29.5,17,40.5c11.3,11,24.7,16.5,40,16.5c17.3,0,31.7-6.7,43-20h399c11.3,13.3,25.7,20,43,20
	s31.7-6.7,43-20h400c10.7,12,24.3,18,41,18c16,0,29.5-5.7,40.5-17s16.5-24.7,16.5-40c0-5.3-1-10.7-3-16l193-337
	c13.3-2.7,24.2-9.2,32.5-19.5c8.3-10.3,12.5-22.2,12.5-35.5c0-6-1-12-3-18l205-356c13.3-2.7,24.3-9.2,33-19.5
	c8.7-10.3,13-22.5,13-36.5C2516,285.7,2511.8,273.8,2503.5,263.5z M1492,1082c-14,0-27,5.3-39,16h-360l342-354h143l342,354h-389
	C1519,1087.3,1506,1082,1492,1082z M774-50c10.7-1.3,20.3-4.7,29-10l187,194v347L802,680l-5-2.5c-2-1-3.8-1.8-5.5-2.5
	c-1.7-0.7-3.2-1-4.5-1L579,314c1.3-3.3,2-8.3,2-15c0-6-0.3-10.3-1-13L774-50z M1492-482c14.7,0,27.3-5.3,38-16h280l-554,200
	l-190-200h388C1464.7-487.3,1477.3-482,1492-482z M2081,714l17-79l64,68c-2.7,3.3-4.3,7-5,11H2081z M1588,714l-63-64l296-307
	l252,266l-22,105H1588z M1950,1087l-333-343h427l-65,310l-16,28C1959.7,1082.7,1955.3,1084.3,1950,1087z M1024,1085l-4-6V744h373
	l-342,354h-5C1040.7,1092.7,1033.3,1088.3,1024,1085z M1020,493l157-166l309,321l-64,66h-402V493z M822,702l168-177v189H827
	C826.3,711.3,824.7,707.3,822,702z M990-170V99L819-78c5.3-8.7,8-18.3,8-29c0-0.7-0.2-1.3-0.5-2c-0.3-0.7-0.5-1.3-0.5-2L990-170z
	 M1247-263l223,236l-297,314l-153-157v-311L1247-263z M1034-488l191,201l-205,74v-264l4-8C1026.7-485.7,1030-486.7,1034-488z
	 M1491-49l-213-225l621-224h16L1491-49z M1801,321l-296,307l-311-319L1491-6L1801,321z M1020,449V165l136,141L1020,449z M1549,714
	h-85l42-44L1549,714z M2208-57l1,1l3,5l-132,624l-238-251L2208-57z M1822,300L1512-27l437-463c5.3,2.7,9.7,4.3,13,5l216,376v2
	c0,10.7,2.7,20.3,8,29L1822,300z M827-143l163-282v223L827-143z M990,1027L827,744h163V1027z M2157,744l-130,227l48-227H2157z
	 M2182,681l-77-82l129-612l171,296c-2,10-3,15.3-3,16c0,2.7,0.7,7.3,2,14l-207,361C2190.3,676.7,2185.3,679,2182,681z"/>
</svg>
