<svg xmlns="http://www.w3.org/2000/svg" x="0px" y="0px" viewBox="596 -596 1792 1792" style="enable-background:new 596 -596 1792 1792;">
<path d="M999,376c-7.3,10-16.7,15-28,15c-13.3,0-20-7.3-20-22c0-21.3,15.7-32,47-32h13C1010.3,353,1006.3,366,999,376z M1442,263
	c4.7,0,8.5,0.7,11.5,2s5.5,3,7.5,5s3.5,4.2,4.5,6.5s1.7,5,2,8s0.7,5.3,1,7s0.2,3.8-0.5,6.5v3h-62C1411.3,275.7,1423.3,263,1442,263z
	 M1934,376c-7.3,10-16.7,15-28,15c-13.3,0-20-7.3-20-22c0-21.3,16-32,48-32h12C1945.3,353,1941.3,366,1934,376z M2252.5,363
	c-8.3,13.3-19.2,20-32.5,20c-18.7,0-28-14-28-42c0-20.7,4-37.7,12-51s18.3-20,31-20c20,0,30,13.7,30,41
	C2265,332.3,2260.8,349.7,2252.5,363z M765,333l-2-163h-81l-44,262h53l34-200l4,200h39l71-201l-32,201h56l44-262h-87L765,333z
	 M999,215c-19.3,0-41.7,3.7-67,11c-4.7,29.3-7,45.3-7,48c20-6.7,39.7-10,59-10c24,0,36,6.7,36,20c0,0.7-0.2,1.7-0.5,3
	s-0.7,2.8-1,4.5s-0.5,3.5-0.5,5.5c-6-0.7-13.7-1-23-1c-31.3,0-55.7,7.2-73,21.5S896,352,896,378c0,17.3,4.8,31.3,14.5,42
	c9.7,10.7,22.2,16,37.5,16c25.3,0,44.7-8.7,58-26l-1,22h47c0.7-8,6.3-45.7,17-113c2.7-24,4-38,4-42C1073,235.7,1048.3,215,999,215z
	 M1179,215c-56,0-84,24-84,72c0,26,14.3,45.7,43,59c11.3,5.3,18.5,9.5,21.5,12.5s4.5,6.8,4.5,11.5c0,12.7-10.7,19-32,19
	c-14.7,0-31.7-2.7-51-8c-4.7,31.3-7,47.7-7,49c16,4,35.3,6,58,6c58,0.7,87-23,87-71c0-27.3-13.3-47.3-40-60
	c-11.3-4.7-18.5-8.3-21.5-11s-4.5-6.7-4.5-12c0-11.3,9-17,27-17c12.7,0,26.3,1,41,3l8-49C1215.7,216.3,1199,215,1179,215z M1323,187
	h-55c-14.7,84-23,132.7-25,146c-5.3,29.3-8,48-8,56c1.3,31.3,16.3,47,45,47c12.7,0,26-2.3,40-7l8-47c-5.3,1.3-10.7,2-16,2
	c-12.7,0-19-5.3-19-16c0-2,0.8-8,2.5-18c1.7-10,4-22.8,7-38.5s5.2-29.2,6.5-40.5h29l7-52h-28L1323,187z M1499.5,236
	c-13.7-14-32.2-21-55.5-21c-28,0-51.2,11.8-69.5,35.5c-18.3,23.7-27.5,53.8-27.5,90.5c0,63.3,31.7,95,95,95c18,0,37-2.7,57-8l9-54
	c-18.7,9.3-38,14-58,14c-16.7,0-29.3-3.7-38-11s-12-18.3-10-33h111c4.7-19.3,7-36.7,7-52C1520,268.7,1513.2,250,1499.5,236z
	 M1630.5,222.5c-7.7,5.7-16.2,15.5-25.5,29.5l3-33h-51c-4.7,46-14.3,112.3-29,199l-3,14h56c10.7-68,19-110.7,25-128s16.3-25.3,31-24
	c6-26,13.3-46.7,22-62C1647.7,215.3,1638.2,216.8,1630.5,222.5z M1785,164c-37.3,0-67.8,14.8-91.5,44.5S1658,276.3,1658,323
	c0,34.7,8.8,62.2,26.5,82.5S1726,436,1756,436c14.7,0,31.3-2.7,50-8l10-59c-18,8.7-34,13-48,13c-16.7,0-29.5-5.7-38.5-17
	s-13.5-27-13.5-47c0-28.7,6.7-52.2,20-70.5s30.3-27.5,51-27.5c14.7,0,31.3,4.7,50,14l9-57C1822.7,168.3,1802.3,164,1785,164z
	 M1935,215c-19.3,0-41.7,3.7-67,11c-5.3,29.3-8,45.3-8,48c20-6.7,39.7-10,59-10c24,0,36,6.7,36,20c0,4-0.7,8.3-2,13
	c-5.3-0.7-13-1-23-1c-31.3,0-55.5,7.2-72.5,21.5S1832,352,1832,378c0,17.3,4.7,31.3,14,42c9.3,10.7,21.7,16,37,16
	c26,0,45.7-8.7,59-26l-1,22h46c2.7-22.7,8.3-60.3,17-113c2.7-16,4-30,4-42C2008,235.7,1983.7,215,1935,215z M2121.5,222.5
	c-7.7,5.7-16.5,15.5-26.5,29.5c2.7-14.7,4-25.7,4-33h-52c-6.7,63.3-16.3,129.7-29,199l-3,14h56c11.3-69.3,19.8-112.3,25.5-129
	s16.2-24.3,31.5-23c4.7-25.3,11.7-46,21-62C2138.3,215.3,2129.2,216.8,2121.5,222.5z M2278,246c-14.7-19.3-32.3-29-53-29
	c-24.7,0-46.2,13-64.5,39c-18.3,26-27.5,56.7-27.5,92c0,26.7,6.2,48,18.5,64c12.3,16,28.8,24,49.5,24c19.3,0,36.7-7.7,52-23l-3,19
	h53l43-262h-56L2278,246z M2328.5,573c-48.3,83.3-114.3,149.3-198,198c-83.7,48.7-174.8,73-273.5,73c-120.7,0-230-36.7-328-110
	c80-74,135-162,165-264h-50c-30.7,92-81.3,169.7-152,233c-70.7-63.3-121.3-141-152-233h-50c30,102,85,190,165,264
	c-98,73.3-207.3,110-328,110c-98.7,0-189.8-24.3-273.5-73s-149.7-114.7-198-198C607.2,489.7,583,398.7,583,300s24.2-189.7,72.5-273
	c48.3-83.3,114.3-149.3,198-198s174.8-73,273.5-73c120.7,0,230,36.7,328,110c-84.7,77.3-141.7,172-171,284h50
	c29.3-100,82-184.3,158-253c76,68.7,128.7,153,158,253h50c-29.3-112-86.3-206.7-171-284c98-73.3,207.3-110,328-110
	c98.7,0,189.8,24.3,273.5,73c83.7,48.7,149.7,114.7,198,198c48.3,83.3,72.5,174.3,72.5,273S2376.8,489.7,2328.5,573z M2606-430
	c-25.3-25.3-55.3-38-90-38H468c-34.7,0-64.7,12.7-90,38s-38,55.3-38,90V940c0,34.7,12.7,64.7,38,90c25.3,25.3,55.3,38,90,38h2048
	c34.7,0,64.7-12.7,90-38c25.3-25.3,38-55.3,38-90V-340C2644-374.7,2631.3-404.7,2606-430z"/>
</svg>
