<svg xmlns="http://www.w3.org/2000/svg" x="0px" y="0px" viewBox="596 -596 1792 1792" style="enable-background:new 596 -596 1792 1792;">
<path d="M2048.5,369c-4-2-8-3-12-3c-8.7,0-16.3,3.3-23,10l-64,64c-6,6-9,13.3-9,22v254c0,44-15.7,81.7-47,113s-69,47-113,47h-832
	c-44,0-81.7-15.7-113-47s-47-69-47-113v-832c0-44,15.7-81.7,47-113s69-47,113-47h832c14.7,0,29.7,2,45,6c4,1.3,7,2,9,2
	c8.7,0,16.3-3.3,23-10l49-49c8-8,11-17.7,9-29c-2-10.7-8-18.3-18-23c-36-16.7-75-25-117-25h-832c-79.3,0-147.2,28.2-203.5,84.5
	S660.5-195.3,660.5-116v832c0,79.3,28.2,147.2,84.5,203.5s124.2,84.5,203.5,84.5h832c79.3,0,147.2-28.2,203.5-84.5
	s84.5-124.2,84.5-203.5V398C2068.5,384,2061.8,374.3,2048.5,369z M2323.5-148c0-22-8-41-24-57l-110-110c-16-16-35-24-57-24
	s-41,8-57,24l-647,647l-263-263c-16-16-35-24-57-24s-41,8-57,24l-110,110c-16,16-24,35-24,57s8,41,24,57l430,430c16,16,35,24,57,24
	s41-8,57-24l814-814C2315.5-107,2323.5-126,2323.5-148z"/>
</svg>
