<svg xmlns="http://www.w3.org/2000/svg" x="0px" y="0px" viewBox="596 -596 1792 1792" style="enable-background:new 596 -596 1792 1792;">
<path d="M1049,129C911.7,100.3,803.3,58,724,2v170c0,46,34.3,88.7,103,128s162,70.5,280,93.5s246.3,34.5,385,34.5s267-11.5,385-34.5
	s211.3-54.2,280-93.5s103-82,103-128V2c-79.3,56-187.7,98.3-325,127s-285,43-443,43S1186.3,157.7,1049,129z M1049,897
	c-137.3-28.7-245.7-71-325-127v170c0,46,34.3,88.7,103,128s162,70.5,280,93.5s246.3,34.5,385,34.5s267-11.5,385-34.5
	s211.3-54.2,280-93.5c68.7-39.3,103-82,103-128V770c-79.3,56-187.7,98.3-325,127s-285,43-443,43S1186.3,925.7,1049,897z M1049,513
	c-137.3-28.7-245.7-71-325-127v170c0,46,34.3,88.7,103,128c68.7,39.3,162,70.5,280,93.5s246.3,34.5,385,34.5s267-11.5,385-34.5
	s211.3-54.2,280-93.5c68.7-39.3,103-82,103-128V386c-79.3,56-187.7,98.3-325,127c-137.3,28.7-285,43-443,43S1186.3,541.7,1049,513z
	 M1107-561.5c-118,23-211.3,54.2-280,93.5s-103,82-103,128v128c0,46,34.3,88.7,103,128c68.7,39.3,162,70.5,280,93.5
	S1353.3,44,1492,44s267-11.5,385-34.5s211.3-54.2,280-93.5c68.7-39.3,103-82,103-128v-128c0-46-34.3-88.7-103-128
	c-68.7-39.3-162-70.5-280-93.5S1630.7-596,1492-596S1225-584.5,1107-561.5z"/>
</svg>
