<svg xmlns="http://www.w3.org/2000/svg" x="0px" y="0px" viewBox="596 -596 1792 1792" style="enable-background:new 596 -596 1792 1792;">
<path d="M1891,990c-3.3-12.7-11.3-14.3-24-5c-20,14.7-49,27.7-87,39s-81.7,17-131,17c-86,0-150.3-16.3-193-49c-3.3-2.7-7.7-4-13-4
	c-7.3,0-16,4-26,12c-4.7,4-7.2,9.3-7.5,16s2.2,13.3,7.5,20c22.7,21.3,51.8,36.7,87.5,46s69.8,13.5,102.5,12.5
	c32.7-1,65.7-2.5,99-4.5c27.3-2.7,55.5-9.5,84.5-20.5s50.7-21,65-30s23.8-15.8,28.5-20.5C1892,1011,1894.3,1001.3,1891,990z
	 M1852,875c-12.7-31.3-25.7-51.7-39-61c-15.3-10-40.7-15-76-15c-31.3,0-55,3.3-71,10c-19.3,8-45.3,26.7-78,56
	c-17.3,16-21.3,30.7-12,44c6,5.3,11.8,6.8,17.5,4.5s16.2-10.2,31.5-23.5c2-1.3,5.5-4.2,10.5-8.5s8.5-7.2,10.5-8.5s5.3-3.7,10-7
	s8.5-5.7,11.5-7s7.2-3,12.5-5s10.3-3.5,15-4.5s10.2-1.8,16.5-2.5s13.2-1,20.5-1c18,0,32.8,2.5,44.5,7.5s19.3,9.8,23,14.5
	s8.2,12,13.5,22c6.7,11.3,10.8,18,12.5,20s5.8,1.7,12.5-1C1853.3,901,1858,889.7,1852,875z M2207,594c0-14.7-1.7-29.5-5-44.5
	s-8.8-30-16.5-45s-19-27.2-34-36.5s-32.5-14-52.5-14c-22,0-54.3,13.8-97,41.5s-85.7,55.5-129,83.5s-77,42-101,42
	c-18,0.7-39.2-5.7-63.5-19s-49.7-29.7-76-49c-26.3-19.3-54.2-38.7-83.5-58s-62.7-35.7-100-49s-74.3-19.7-111-19
	c-76.7,0.7-142.3,26.8-197,78.5c-54.7,51.7-82.7,111.2-84,178.5c-1.3,74.7,23.3,129.3,74,164c19.3,13.3,40.2,22.8,62.5,28.5
	s56.8,8.5,103.5,8.5c38,0,82-10.8,132-32.5s94.7-45.3,134-71s79.3-49.2,120-70.5s71.7-31.7,93-31c17.3,0.7,39,11.2,65,31.5
	s49.8,42.7,71.5,67s44.3,46.8,68,67.5s42.2,31.3,55.5,32c23.3,2,42.8-2.7,58.5-14s34.2-32.3,55.5-63c18.7-27.3,32.8-61,42.5-101
	S2207,624.7,2207,594z M2260,434c0,109.3-20.7,210.8-62,304.5s-96.7,172.3-166,236c-69.3,63.7-150.2,113.5-242.5,149.5
	s-189.2,54-290.5,54s-199-19.2-293-57.5s-176.5-90.7-247.5-157S830.7,816.7,788,722s-64-195.3-64-302c0-59.3,6.5-116.8,19.5-172.5
	s29.3-104.2,49-145.5S835.7,21.2,863-16.5c27.3-37.7,53.5-69,78.5-94s51.2-48.2,78.5-69.5s48.8-36.8,64.5-46.5s29.8-17.8,42.5-24.5
	c9.3-5.3,26.3-14.2,51-26.5s42.8-21.8,54.5-28.5s27.7-16.7,48-30c20.3-13.3,40.5-28,60.5-44c24-18.7,43.3-42.8,58-72.5
	c14.7-29.7,24.7-71.5,30-125.5c86,103.3,148,167.7,186,193c29.3,19.3,72.7,42,130,68s100.3,48,129,66c14,8.7,27,17,39,25
	s32.2,23.5,60.5,46.5s53.7,46.5,76,70.5c22.3,24,47.3,55.7,75,95s50.7,80,69,122s34,91.5,47,148.5S2260,372.7,2260,434z"/>
</svg>
