<svg xmlns="http://www.w3.org/2000/svg" x="0px" y="0px" viewBox="596 -596 1792 1792" style="enable-background:new 596 -596 1792 1792;">
<path d="M1003,108l300,665L680,108H1003z M1143,108h698l-349,772L1143,108z M660-20l288-384h262L1006-20H660z M1981,108h323
	l-623,665L1981,108z M1355-404h274l204,384h-682L1355-404z M1774-404h262l288,384h-346L1774-404z M2068-532H916c-22,0-39,8.7-51,26
	L481,6c-9.3,12-13.7,25.8-13,41.5c0.7,15.7,6.3,29.2,17,40.5l960,1024c12,13.3,27.7,20,47,20s35-6.7,47-20L2499,88
	c10.7-11.3,16.3-24.8,17-40.5S2512.3,18,2503,6l-384-512C2107-523.3,2090-532,2068-532z"/>
</svg>
