<svg xmlns="http://www.w3.org/2000/svg" x="0px" y="0px" viewBox="596 -596 1792 1792" style="enable-background:new 596 -596 1792 1792;">
<path d="M2130.5,938.5c-43.7,43.7-96.5,65.5-158.5,65.5h-480V300H788v-480c0-62,21.8-114.8,65.5-158.5S950-404,1012-404h480v704h704
	v480C2196,842,2174.2,894.8,2130.5,938.5z M2175.5-383.5c-56.3-56.3-124.2-84.5-203.5-84.5h-960c-79.3,0-147.2,28.2-203.5,84.5
	S724-259.3,724-180v960c0,79.3,28.2,147.2,84.5,203.5c56.3,56.3,124.2,84.5,203.5,84.5h960c79.3,0,147.2-28.2,203.5-84.5
	c56.3-56.3,84.5-124.2,84.5-203.5v-960C2260-259.3,2231.8-327.2,2175.5-383.5z"/>
</svg>
