<svg xmlns="http://www.w3.org/2000/svg" x="0px" y="0px" viewBox="596 -596 1792 1792" style="enable-background:new 596 -596 1792 1792;">
<path d="M1356.5,515.5c-5-31-13.2-61-24.5-90c-11.3-29-28.3-51.8-51-68.5c-22.7-16.7-49.7-25-81-25c-42.7,42.7-94.7,64-156,64
	s-113.3-21.3-156-64c-31.3,0-58.3,8.3-81,25c-22.7,16.7-39.7,39.5-51,68.5c-11.3,29-19.5,59-24.5,90S724,580,724,616
	c0,36.7,10.5,67.8,31.5,93.5S801.7,748,831,748h426c29.3,0,54.5-12.8,75.5-38.5s31.5-56.8,31.5-93.5
	C1364,580,1361.5,546.5,1356.5,515.5z M1180,36c-37.3-37.3-82.7-56-136-56c-53.3,0-98.7,18.7-136,56c-37.3,37.3-56,82.7-56,136
	s18.7,98.7,56,136s82.7,56,136,56c53.3,0,98.7-18.7,136-56s56-82.7,56-136S1217.3,73.3,1180,36z M2251,565c-6-6-13.7-9-23-9h-704
	c-9.3,0-17,3-23,9s-9,13.7-9,23v64c0,9.3,3,17,9,23s13.7,9,23,9h704c9.3,0,17-3,23-9s9-13.7,9-23v-64C2260,578.7,2257,571,2251,565z
	 M1867,309c-6-6-13.7-9-23-9h-320c-9.3,0-17,3-23,9s-9,13.7-9,23v64c0,9.3,3,17,9,23s13.7,9,23,9h320c9.3,0,17-3,23-9s9-13.7,9-23
	v-64C1876,322.7,1873,315,1867,309z M2251,309c-6-6-13.7-9-23-9h-192c-9.3,0-17,3-23,9s-9,13.7-9,23v64c0,9.3,3,17,9,23s13.7,9,23,9
	h192c9.3,0,17-3,23-9s9-13.7,9-23v-64C2260,322.7,2257,315,2251,309z M2251,53c-6-6-13.7-9-23-9h-704c-9.3,0-17,3-23,9s-9,13.7-9,23
	v64c0,9.3,3,17,9,23s13.7,9,23,9h704c9.3,0,17-3,23-9s9-13.7,9-23V76C2260,66.7,2257,59,2251,53z M2378.5,930.5
	c-6.3,6.3-13.8,9.5-22.5,9.5H628c-8.7,0-16.2-3.2-22.5-9.5S596,916.7,596,908V-212h1792V908C2388,916.7,2384.8,924.2,2378.5,930.5z
	 M2469-421c-31.3-31.3-69-47-113-47H628c-44,0-81.7,15.7-113,47s-47,69-47,113V908c0,44,15.7,81.7,47,113c31.3,31.3,69,47,113,47
	h1728c44,0,81.7-15.7,113-47c31.3-31.3,47-69,47-113V-308C2516-352,2500.3-389.7,2469-421z"/>
</svg>
