<svg xmlns="http://www.w3.org/2000/svg" x="0px" y="0px" viewBox="596 -596 1792 1792" style="enable-background:new 596 -596 1792 1792;">
<path d="M2314.5,482.5c-6.3,6.3-13.8,9.5-22.5,9.5H692c-8.7,0-16.2-3.2-22.5-9.5S660,468.7,660,460v-832c0-8.7,3.2-16.2,9.5-22.5
	s13.8-9.5,22.5-9.5h1600c8.7,0,16.2,3.2,22.5,9.5c6.3,6.3,9.5,13.8,9.5,22.5v832C2324,468.7,2320.8,476.2,2314.5,482.5z M2405-485
	c-31.3-31.3-69-47-113-47H692c-44,0-81.7,15.7-113,47s-47,69-47,113V716c0,44,15.7,81.7,47,113s69,47,113,47h544
	c0,25.3-5.3,51.3-16,78c-10.7,26.7-21.3,50-32,70c-10.7,20-16,34.7-16,44c0,17.3,6.3,32.3,19,45c12.7,12.7,27.7,19,45,19h512
	c17.3,0,32.3-6.3,45-19s19-27.7,19-45c0-8.7-5.3-23.2-16-43.5c-10.7-20.3-21.3-44-32-71s-16-52.8-16-77.5h544c44,0,81.7-15.7,113-47
	c31.3-31.3,47-69,47-113V-372C2452-416,2436.3-453.7,2405-485z"/>
</svg>
