<svg xmlns="http://www.w3.org/2000/svg" x="0px" y="0px" viewBox="596 -596 1792 1792" style="enable-background:new 596 -596 1792 1792;">
<path d="M1921,921c-12.7,12.7-27.7,19-45,19s-32.3-6.3-45-19s-19-27.7-19-45s6.3-32.3,19-45s27.7-19,45-19s32.3,6.3,45,19
	s19,27.7,19,45S1933.7,908.3,1921,921z M2177,921c-12.7,12.7-27.7,19-45,19c-17.3,0-32.3-6.3-45-19c-12.7-12.7-19-27.7-19-45
	s6.3-32.3,19-45c12.7-12.7,27.7-19,45-19s32.3,6.3,45,19c12.7,12.7,19,27.7,19,45S2189.7,908.3,2177,921z M2296,584
	c-18.7-18.7-41.3-28-68-28h-464l-136,136c-38.7,37.3-84,56-136,56s-97.3-18.7-136-56l-135-136H756c-26.7,0-49.3,9.3-68,28
	c-18.7,18.7-28,41.3-28,68v320c0,26.7,9.3,49.3,28,68c18.7,18.7,41.3,28,68,28h1472c26.7,0,49.3-9.3,68-28c18.7-18.7,28-41.3,28-68
	V652C2324,625.3,2314.7,602.7,2296,584z M1940,44h-256v-448c0-17.3-6.3-32.3-19-45c-12.7-12.7-27.7-19-45-19h-256
	c-17.3,0-32.3,6.3-45,19c-12.7,12.7-19,27.7-19,45V44h-256c-28,0-47.7,13-59,39c-11.3,27.3-6.7,50.7,14,70l448,448
	c12,12.7,27,19,45,19s33-6.3,45-19l448-448c20.7-19.3,25.3-42.7,14-70C1987.7,57,1968,44,1940,44z"/>
</svg>
