<svg xmlns="http://www.w3.org/2000/svg" x="0px" y="0px" viewBox="596 -596 1792 1792" style="enable-background:new 596 -596 1792 1792;">
<path d="M1492,956c-156,0-295.3-50-418-150l15,11c23.3-51.3,57.7-100.7,103-148c45.3-47.3,89-85.5,131-114.5s87.7-56.3,137-82
	c49.3-25.7,83-42,101-49s32.3-12.5,43-16.5l2-1h2c65.3,171.3,112,337.3,140,498C1665.3,938.7,1580,956,1492,956z M1550,301.5
	c-6,1.7-10.3,2.8-13,3.5l-37,13c-25.3,9.3-58.5,25.3-99.5,48s-84.5,49.7-130.5,81s-93.5,72.8-142.5,124.5
	c-49,51.7-90.2,107.2-123.5,166.5c-53.3-59.3-94.7-126.5-124-201.5S836,382.7,836,300c0-9.3,0.3-16.3,1-21c241.3,0,465.7-31,673-93
	c21.3,41.3,39,78.3,53,111C1560.3,298.3,1556,299.8,1550,301.5z M850,165c21.3-100.7,64-191.3,128-272s142-142.7,234-186
	c82.7,110,164,236,244,378C1253.3,138.3,1051.3,165,850,165z M2044,654.5c-49.3,76.3-111,139.5-185,189.5
	c-27.3-153.3-70-309.7-128-469c132.7-20.7,269-11,409,29C2125.3,494.7,2093.3,578.2,2044,654.5z M1333-336c0.7-0.7,1.3-1,2-1
	C1334.3-337,1333.7-336.7,1333-336z M1912.5-174.5c-5,7-17.5,20.5-37.5,40.5s-41.8,39-65.5,57s-55.8,38.5-96.5,61.5
	s-84,43.2-130,60.5c-76.7-141.3-158.7-268.7-246-382c52.7-12.7,104.3-19,155-19c165.3,0,309.7,54.7,433,164L1912.5-174.5z M2138,291
	c-6.7-1.3-15-2.8-25-4.5s-22.2-3.7-36.5-6c-14.3-2.3-30.3-4.5-48-6.5s-36.5-3.8-56.5-5.5s-41.3-3-64-4s-45.7-1.5-69-1.5
	s-47.8,0.7-73.5,2s-50.5,3.7-74.5,7c-2-3.3-4.5-8.8-7.5-16.5s-5.2-13.5-6.5-17.5c-12.7-28-27.3-59.7-44-95
	c46-18.7,89.8-40.2,131.5-64.5s75-46,100-65s48.7-39.2,71-60.5s36.8-36.2,43.5-44.5c6.7-8.3,13-16.5,19-24.5l1-1
	c97.3,118.7,147,255.3,149,410L2138,291z M2157-85.5c-68.7-117.7-161.8-210.8-279.5-279.5S1631.3-468,1492-468
	s-267.8,34.3-385.5,103S895.7-203.2,827-85.5S724,160.7,724,300s34.3,267.8,103,385.5S988.8,896.3,1106.5,965s246.2,103,385.5,103
	s267.8-34.3,385.5-103s210.8-161.8,279.5-279.5c68.7-117.7,103-246.2,103-385.5S2225.7,32.2,2157-85.5z"/>
</svg>
