<svg xmlns="http://www.w3.org/2000/svg" x="0px" y="0px" viewBox="596 -596 1792 1792" style="enable-background:new 596 -596 1792 1792;">
<path d="M1469,437l-114-114c-6.7-6.7-14.3-10-23-10c-8.7,0-16.3,3.3-23,10L977,655L833,511c-12.7-12.7-27.7-19-45-19
	s-32.3,6.3-45,19c-12.7,12.7-19,27.7-19,45v448c0,17.3,6.3,32.3,19,45s27.7,19,45,19h448c17.3,0,32.3-6.3,45-19
	c12.7-12.7,19-27.7,19-45s-6.3-32.3-19-45l-144-144l332-332c6.7-6.7,10-14.3,10-23S1475.7,443.7,1469,437z M2241-449
	c-12.7-12.7-27.7-19-45-19h-448c-17.3,0-32.3,6.3-45,19c-12.7,12.7-19,27.7-19,45s6.3,32.3,19,45l144,144l-332,332
	c-6.7,6.7-10,14.3-10,23s3.3,16.3,10,23l114,114c6.7,6.7,14.3,10,23,10c8.7,0,16.3-3.3,23-10l332-332l144,144
	c12.7,12.7,27.7,19,45,19c17.3,0,32.3-6.3,45-19c12.7-12.7,19-27.7,19-45v-448C2260-421.3,2253.7-436.3,2241-449z"/>
</svg>
