<svg xmlns="http://www.w3.org/2000/svg" x="0px" y="0px" viewBox="596 -596 1792 1792" style="enable-background:new 596 -596 1792 1792;">
<path d="M724,300C825.3,142.7,952.3,25,1105-53c-40.7,69.3-61,144.3-61,225c0,71.3,16.3,139,49,203s78,117,136,159l-78,141
	C977.7,597,835.3,472,724,300z M1526-50c-9.3,9.3-20.7,14-34,14c-57.3,0-106.3,20.3-147,61c-40.7,40.7-61,89.7-61,147
	c0,13.3-4.7,24.7-14,34c-9.3,9.3-20.7,14-34,14c-13.3,0-24.7-4.7-34-14c-9.3-9.3-14-20.7-14-34c0-83.3,29.8-154.8,89.5-214.5
	c59.7-59.7,131.2-89.5,214.5-89.5c13.3,0,24.7,4.7,34,14c9.3,9.3,14,20.7,14,34S1535.3-59.3,1526-50z M1887-302
	c-2-1.3-8.5-5.2-19.5-11.5S1846-326,1836-332s-21-12.2-33-18.5s-22.3-11.5-31-15.5s-14.7-6-18-6c-12,0-21.3,5.3-28,16l-54,97
	c-60.7-11.3-120.7-17-180-17c-179.3,0-344.7,45.3-496,136S718,74.3,616,231c-13.3,20.7-20,43.7-20,69s6.7,48.3,20,69
	c58.7,91.3,128.2,173,208.5,245S992.7,743.7,1088,787c-29.3,50-44,79-44,87c0,12,5.3,21.3,16,28c81.3,46.7,126,70,134,70
	c12,0,21.3-5.3,28-16l49-89c70.7-126,176-315,316-567s245-440.7,315-566c0.7-1.3,1-4.3,1-9C1903-286.3,1897.7-295.3,1887-302z
	 M1932,88l-280,502c86.7-33.3,156.3-88.2,209-164.5s79-160.8,79-253.5C1940,146,1937.3,118,1932,88z M2368,231
	c-38-63.3-86.2-124.7-144.5-184c-58.3-59.3-119.2-110.3-182.5-153L1978,6c111.3,76.7,205.3,174.7,282,294
	c-80.7,125.3-181.2,227.7-301.5,307c-120.3,79.3-251.2,125-392.5,137l-74,132c148,0,287.8-31.7,419.5-95S2159,628.7,2259,514
	c46.7-54,83-102.3,109-145c13.3-22.7,20-45.7,20-69S2381.3,253.7,2368,231z"/>
</svg>
