<svg xmlns="http://www.w3.org/2000/svg" x="0px" y="0px" viewBox="596 -596 1792 1792" style="enable-background:new 596 -596 1792 1792;">
<path d="M660,812l336-384h768l-336,384H660z M2393.5-319.5c-21-13.7-44.2-20.5-69.5-20.5h-768c-38.7,0-70.7,14.7-96,44L564,728
	c-16.7,18.7-26.8,40.5-30.5,65.5S533,842.3,543,865c10.7,22.7,26.5,40.8,47.5,54.5S634.7,940,660,940h768c38.7,0,70.7-14.7,96-44
	l896-1024c16.7-18.7,26.8-40.5,30.5-65.5c3.7-25,0.5-48.8-9.5-71.5C2430.3-287.7,2414.5-305.8,2393.5-319.5z"/>
</svg>
