<svg xmlns="http://www.w3.org/2000/svg" x="0px" y="0px" viewBox="596 -596 1792 1792" style="enable-background:new 596 -596 1792 1792;">
<path d="M2378.5,501.5c-6.3-6.3-13.8-9.5-22.5-9.5H980V300c0-8.7-3.2-16.2-9.5-22.5c-6.3-6.3-13.8-9.5-22.5-9.5c-9.3,0-17,3-23,9
	L605,597c-6,6-9,13.7-9,23c0,8.7,3,16,9,22l319,320c8,6.7,16,10,24,10c8.7,0,16.2-3.2,22.5-9.5c6.3-6.3,9.5-13.8,9.5-22.5V748h1376
	c8.7,0,16.2-3.2,22.5-9.5c6.3-6.3,9.5-13.8,9.5-22.5V524C2388,515.3,2384.8,507.8,2378.5,501.5z M2379-43l-319-319
	c-8-6.7-16-10-24-10c-9.3,0-17,3-23,9s-9,13.7-9,23v192H628c-8.7,0-16.2,3.2-22.5,9.5S596-124.7,596-116V76c0,8.7,3.2,16.2,9.5,22.5
	s13.8,9.5,22.5,9.5h1376v192c0,8.7,3.2,16.2,9.5,22.5s13.8,9.5,22.5,9.5c9.3,0,17-3,23-9L2379,3c6-6,9-13.7,9-23S2385-37,2379-43z"
	/>
</svg>
