<svg xmlns="http://www.w3.org/2000/svg" x="0px" y="0px" viewBox="596 -596 1792 1792" style="enable-background:new 596 -596 1792 1792;">
<path d="M1665,671c-12.7-12.7-27.7-19-45-19h-256c-17.3,0-32.3,6.3-45,19c-12.7,12.7-19,27.7-19,45v224c0,17.3,6.3,32.3,19,45
	s27.7,19,45,19h256c17.3,0,32.3-6.3,45-19s19-27.7,19-45V716C1684,698.7,1677.7,683.7,1665,671z M1696.5-385
	c-12.3-12.7-27.2-19-44.5-19h-320c-17.3,0-32.2,6.3-44.5,19s-18.2,27.7-17.5,45l28,768c0.7,17.3,7.5,32.3,20.5,45s28.2,19,45.5,19
	h256c17.3,0,32.5-6.3,45.5-19s19.8-27.7,20.5-45l28-768C1714.7-357.3,1708.8-372.3,1696.5-385z"/>
</svg>
