<svg xmlns="http://www.w3.org/2000/svg" x="0px" y="0px" viewBox="596 -596 1792 1792" style="enable-background:new 596 -596 1792 1792;">
<path d="M1656,648c-18.7-18.7-41.3-28-68-28h-192c-26.7,0-49.3,9.3-68,28c-18.7,18.7-28,41.3-28,68v192c0,26.7,9.3,49.3,28,68
	s41.3,28,68,28h192c26.7,0,49.3-9.3,68-28s28-41.3,28-68V716C1684,689.3,1674.7,666.7,1656,648z M1656,136c-18.7-18.7-41.3-28-68-28
	h-192c-26.7,0-49.3,9.3-68,28s-28,41.3-28,68v192c0,26.7,9.3,49.3,28,68s41.3,28,68,28h192c26.7,0,49.3-9.3,68-28s28-41.3,28-68V204
	C1684,177.3,1674.7,154.7,1656,136z M1656-376c-18.7-18.7-41.3-28-68-28h-192c-26.7,0-49.3,9.3-68,28s-28,41.3-28,68v192
	c0,26.7,9.3,49.3,28,68s41.3,28,68,28h192c26.7,0,49.3-9.3,68-28s28-41.3,28-68v-192C1684-334.7,1674.7-357.3,1656-376z"/>
</svg>
