<svg xmlns="http://www.w3.org/2000/svg" x="0px" y="0px" viewBox="596 -596 1792 1792" style="enable-background:new 596 -596 1792 1792;">
<path d="M1926.5,626.5C1792.8,707.5,1648,748,1492,748s-300.8-40.5-434.5-121.5S812.7,436.7,724,300C825.3,142.7,952.3,25,1105-53
	c-40.7,69.3-61,144.3-61,225c0,123.3,43.8,228.8,131.5,316.5S1368.7,620,1492,620s228.8-43.8,316.5-131.5S1940,295.3,1940,172
	c0-80.7-20.3-155.7-61-225c152.7,78,279.7,195.7,381,353C2171.3,436.7,2060.2,545.5,1926.5,626.5z M1526-50c-9.3,9.3-20.7,14-34,14
	c-57.3,0-106.3,20.3-147,61c-40.7,40.7-61,89.7-61,147c0,13.3-4.7,24.7-14,34c-9.3,9.3-20.7,14-34,14c-13.3,0-24.7-4.7-34-14
	c-9.3-9.3-14-20.7-14-34c0-83.3,29.8-154.8,89.5-214.5c59.7-59.7,131.2-89.5,214.5-89.5c13.3,0,24.7,4.7,34,14
	c9.3,9.3,14,20.7,14,34S1535.3-59.3,1526-50z M2368,231c-93.3-152.7-218.8-275.3-376.5-368S1667.3-276,1492-276
	s-341.8,46.3-499.5,139S709.3,78.3,616,231c-13.3,23.3-20,46.3-20,69s6.7,45.7,20,69c93.3,152.7,218.8,275.3,376.5,368
	s324.2,139,499.5,139s341.8-46.2,499.5-138.5S2274.7,522.3,2368,369c13.3-23.3,20-46.3,20-69S2381.3,254.3,2368,231z"/>
</svg>
