<svg xmlns="http://www.w3.org/2000/svg" x="0px" y="0px" viewBox="596 -596 1792 1792" style="enable-background:new 596 -596 1792 1792;">
<path d="M1249.5-443.5c5-5.7,16.8-8.5,35.5-8.5h548c46.7,0,84.3,19.5,113,58.5s53.3,98.8,74,179.5l32,124h93l5-92
	c2.7-62,6.7-135.2,12-219.5c5.3-84.3,10-149.2,14-194.5c-156.7,18-281.3,27-374,27h-702l-376-12v102l127,24
	c45.3,8.7,75.8,20.7,91.5,36s24.2,43.3,25.5,84c7.3,162,10,377,8,645l-8,643c-0.7,36.7-9.2,63-25.5,79s-46.8,28.3-91.5,37l-127,25
	v102l376-12h628h44c30,0.7,84.2,2,162.5,4s166.2,4.7,263.5,8c3.3-40.7,13.5-132.7,30.5-276s27.5-227.3,31.5-252h-89l-93,216
	c-12,28-25,52.3-39,73s-29.3,37.5-46,50.5s-32.8,23.7-48.5,32s-33.7,14.3-54,18s-38.7,6.2-55,7.5s-36.2,2-59.5,2h-357
	c-60,0-104.5-12.5-133.5-37.5S1242,966,1242,914V358c176.7,0,294,2.7,352,8c36,0.7,64,9.3,84,26s35,47.7,45,93l29,127h103l-7-319
	l14-322h-103l-33,142c-11.3,48-24.5,79.5-39.5,94.5s-45.2,23.2-90.5,24.5l-37,3c-24.7,2-66.5,3.8-125.5,5.5s-122.8,2.2-191.5,1.5
	v-655C1242-427.7,1244.5-437.8,1249.5-443.5z"/>
</svg>
