<svg xmlns="http://www.w3.org/2000/svg" x="0px" y="0px" viewBox="596 -596 1792 1792" style="enable-background:new 596 -596 1792 1792;">
<path d="M1965,391c-8.7,3.3-17,5-25,5c-18,0-33-6.3-45-19l-144-144l-534,534c-12.7,12.7-27.7,19-45,19s-32.3-6.3-45-19l-102-102
	c-12.7-12.7-19-27.7-19-45c0-17.3,6.3-32.3,19-45l534-534l-144-144c-20.7-19.3-25.3-42.7-14-70c11.3-26,31-39,59-39h480
	c17.3,0,32.3,6.3,45,19s19,27.7,19,45v480C2004,360,1991,379.7,1965,391z M2175.5-383.5c-56.3-56.3-124.2-84.5-203.5-84.5h-960
	c-79.3,0-147.2,28.2-203.5,84.5S724-259.3,724-180v960c0,79.3,28.2,147.2,84.5,203.5c56.3,56.3,124.2,84.5,203.5,84.5h960
	c79.3,0,147.2-28.2,203.5-84.5c56.3-56.3,84.5-124.2,84.5-203.5v-960C2260-259.3,2231.8-327.2,2175.5-383.5z"/>
</svg>
