<svg xmlns="http://www.w3.org/2000/svg" x="0px" y="0px" viewBox="596 -596 1792 1792" style="enable-background:new 596 -596 1792 1792;">
<path d="M1947,754c-8.7-4.7-17.3-5.3-26-2l-5,2l-12,3c-5.3,1.3-11.5,2.8-18.5,4.5s-15.2,3.3-24.5,5c-9.3,1.7-19.2,3.2-29.5,4.5
	c-10.3,1.3-21.5,2.5-33.5,3.5s-24,1.5-36,1.5c-84.7,0-160.8-22.8-228.5-68.5S1416,600,1384,522h387c7.3,0,14-2.5,20-7.5
	s9.7-11.2,11-18.5l24-112c2-10,0-19-6-27c-6.7-8-15-12-25-12h-459c-2-45.3-2-80.3,0-105h488c18,0,28.7-8.7,32-26l24-114
	c2-9.3-0.3-18-7-26c-6-8-14.3-12-25-12h-468c33.3-74.7,83.3-133.3,150-176c66.7-42.7,142-64,226-64c2.7-1.3,12.5-1,29.5,1
	s26.7,2.8,29,2.5c2.3-0.3,11,0.7,26,3s22.5,3.5,22.5,3.5l17.5,3.5c5,1,8.8,1.8,11.5,2.5l4,1c8.7,2.7,16.7,1.8,24-2.5
	c7.3-4.3,12-10.8,14-19.5l43-159c2-8.7,1-16.7-3-24c-6-8-12.7-13-20-15c-61.3-15.3-126-23-194-23c-149.3,0-282.8,42.7-400.5,128
	S1160.7-78,1116,62h-98c-9.3,0-17,3-23,9s-9,13.7-9,23v114c0,9.3,3,17,9,23s13.7,9,23,9h67c-2,32-2.3,67-1,105h-66
	c-8.7,0-16.2,3.2-22.5,9.5S986,368.3,986,377v113c0,8.7,3.2,16.2,9.5,22.5c6.3,6.3,13.8,9.5,22.5,9.5h95
	c42,147.3,121.3,264.5,238,351.5s253,130.5,409,130.5c12.7,0,25.5-0.3,38.5-1s25.2-1.7,36.5-3c11.3-1.3,22.5-2.8,33.5-4.5
	s21-3.3,30-5s17.5-3.3,25.5-5s15.2-3.5,21.5-5.5c6.3-2,11.7-3.5,16-4.5c4.3-1,7.8-2.2,10.5-3.5l5-1c7.3-2.7,13-7.5,17-14.5
	s5-14.5,3-22.5l-35-159C1960,765.7,1955,758.7,1947,754z"/>
</svg>
