<svg xmlns="http://www.w3.org/2000/svg" x="0px" y="0px" viewBox="596 -596 1792 1792" style="enable-background:new 596 -596 1792 1792;">
<path d="M1926.6,197.4c-3.3,0.3-6.8-1.7-10.5-6s-7.7-10.5-12-18.5s-9.8-17.5-16.5-28.5s-14-22.5-22-34.5s-18.2-24.7-30.5-38
	s-25.7-26.2-40-38.5s-32-24.7-53-37s-43.5-22.8-67.5-31.5c-18-6.7-36.7-12.5-56-17.5s-34.2-8.2-44.5-9.5c-10.3-1.3-23.2-3-38.5-5
	c-23.3-3.3-37.5-6.7-42.5-10s-3.5-12.7,4.5-28c12-18,34.8-30.3,68.5-37c33.7-6.7,73-5.2,118,4.5s86.8,27.5,125.5,53.5
	c57.3,38,97.8,85.5,121.5,142.5s25.8,100.2,6.5,129.5C1933.6,193.9,1929.9,197.1,1926.6,197.4z M2304.6,747.9c1.3-8.7-4.7-4-18,14
	c-77.3,109.3-173.7,190.8-289,244.5c-115.3,53.7-231.7,78.5-349,74.5s-232.7-31.7-346-83c-113.3-51.3-210.3-120-291-206
	s-138.3-192-173-318s-35-258.3-1-397c-2.7,8.7-10.3,33-23,73s-20.7,66.8-24,80.5s-7.5,35-12.5,64s-7.8,57.2-8.5,84.5
	c-3.3,109.3,12.2,210.5,46.5,303.5s81.5,171.5,141.5,235.5s130,117.8,210,161.5c80,43.7,163.7,74,251,91c87.3,17,176,21.5,266,13.5
	s174.3-28.2,253-60.5c78.7-32.3,150.2-79.5,214.5-141.5c64.3-62,113.8-135.3,148.5-220C2303.2,755.2,2304.6,750.6,2304.6,747.9z
	 M2021.1,113.9c-27-63.3-63.2-118-108.5-164s-99.3-82.5-162-109.5s-128.7-40.5-198-40.5s-135.3,13.5-198,40.5
	c-62.7,27-116.7,63.5-162,109.5c-45.3,46-81.5,100.7-108.5,164s-40.5,129.7-40.5,199s13.5,135.7,40.5,199s63.2,118,108.5,164
	c45.3,46,99.3,82.5,162,109.5c62.7,27,128.7,40.5,198,40.5s135.3-13.5,198-40.5s116.7-63.5,162-109.5s81.5-100.7,108.5-164
	s40.5-129.7,40.5-199S2048.1,177.2,2021.1,113.9z M2317.6-87.1c-19.3-47.3-40-87.7-62-121c-50-76.7-109.3-142.3-178-197
	c-68.7-54.7-140.7-96.2-216-124.5c-75.3-28.3-154-46.3-236-54s-162.8-4.7-242.5,9c-79.7,13.7-157,37.3-232,71s-144,75.7-207,126
	S825.9-267.1,778.6-197.1s-83.7,145.7-109,227c-25.3,81.3-37.2,172.2-35.5,272.5c1.7,100.3,18.8,204.2,51.5,311.5
	c-20-132.7-16.7-257,10-373c26.7-116,70.3-215,131-297s134-152.5,220-211.5s177.8-102,275.5-129c97.7-27,198-39.2,301-36.5
	s200.3,20.5,292,53.5s176,84.2,253,153.5s137.2,153,180.5,251C2347.2-2.4,2336.9-39.8,2317.6-87.1z M2231.6,592.4
	c-32.7,69-75.8,127.8-129.5,176.5c-53.7,48.7-111.7,89.7-174,123c-62.3,33.3-129.5,60-201.5,80c90.7-1.3,173.5-16.8,248.5-46.5
	c75-29.7,136.7-68.8,185-117.5c48.3-48.7,89.2-104.3,122.5-167c33.3-62.7,53.8-128.5,61.5-197.5c7.7-69,8-138.3,1-208
	s-26.5-136-58.5-199s-70.7-119.2-116-168.5c-45.3-49.3-103-89.3-173-120s-146.7-47.3-230-50c-17.3,2-25.3,4.7-24,8s4.7,5,10,5
	c165.3,45.3,297.5,125.3,396.5,240s144.5,253.3,136.5,416C2282.6,448.2,2264.2,523.4,2231.6,592.4z"/>
</svg>
