<svg xmlns="http://www.w3.org/2000/svg" x="0px" y="0px" viewBox="596 -596 1792 1792" style="enable-background:new 596 -596 1792 1792;">
<path d="M1677,530c68,102,127.7,172.3,179,211c18.7,14,45.7,33,81,57c33.3,22.7,49.7,35,49,37c-0.7,4-52-16-154-60
	c-50-21.3-99.5-51.5-148.5-90.5s-92.7-80.2-131-123.5c-38.3-43.3-76.8-93.3-115.5-150c-38.7-56.7-71.3-108-98-154s-54.7-97-84-153
	c-2.7-5.3-7-13.7-13-25c-29.3-56-52.8-99.7-70.5-131c-17.7-31.3-41.2-69-70.5-113s-60.8-82.8-94.5-116.5S935.3-346.3,894-375l-39-31
	c-26-20-37.3-32.7-34-38s34.7,5.3,94,32c24,11.3,47.3,23.3,70,36c138.7,77.3,254.3,183.3,347,318c37.3,54.7,90.7,147.3,160,278
	C1547.3,324.7,1609,428,1677,530z M1324,874c62,28.7,117.8,48.3,167.5,59c49.7,10.7,103.2,16.3,160.5,17s103.3-1.3,138-6
	s75.2-11,121.5-19s76.8-12.7,91.5-14l281,285h104l-323-327c0-15.3,4.3-51,13-107c8.7-56,15.3-103.8,20-143.5
	c4.7-39.7,7.8-97.3,9.5-173c1.7-75.7-2.5-141.8-12.5-198.5s-28.7-123.2-56-199.5C2011.7-28.8,1975-95,1929-151
	s-107.8-113.5-185.5-172.5s-168-107.2-271-144.5s-229.3-68-379-92S778-596,596-596c26,90.7,51.5,187,76.5,289S717.7-121,733-55
	s32.7,135.7,52,209s38.8,135.3,58.5,186c19.7,50.7,43.3,102.2,71,154.5c27.7,52.3,60.3,100.2,98,143.5c37.7,43.3,81.8,85,132.5,125
	C1202.3,808.3,1262,845.3,1324,874z"/>
</svg>
