<svg xmlns="http://www.w3.org/2000/svg" x="0px" y="0px" viewBox="596 -596 1792 1792" style="enable-background:new 596 -596 1792 1792;">
<path d="M2049,304.5c-8.7-1-16.7,1.2-24,6.5c-36.7,29.3-141,110-313,242c-3.3,2.7-17.8,14.3-43.5,35c-25.7,20.7-45.8,36.2-60.5,46.5
	c-14.7,10.3-33.5,21.2-56.5,32.5c-23,11.3-42.5,17-58.5,17h-1h-1c-16,0-35.5-5.7-58.5-17c-23-11.3-41.8-22.2-56.5-32.5
	c-14.7-10.3-34.8-25.8-60.5-46.5c-25.7-20.7-40.2-32.3-43.5-35c-141.3-108.7-243.3-187.3-306-236c-7.3-6-15.5-8.3-24.5-7
	s-16.2,5.7-21.5,13l-37,52c-5.3,7.3-7.5,15.2-6.5,23.5s5.2,15.2,12.5,20.5c26,20,66.8,51.5,122.5,94.5s103.5,80,143.5,111
	s61.7,47.8,65,50.5c25.3,20.7,45.3,36.5,60,47.5c14.7,11,35,24.8,61,41.5s51.3,28.8,76,36.5c24.7,7.7,49.3,11.5,74,11.5h1h1
	c24.7,0,49.3-3.8,74-11.5c24.7-7.7,50.2-19.8,76.5-36.5s46.5-30.3,60.5-41s34-26.7,60-48c2.7-2,25-19.2,67-51.5s90.8-70,146.5-113
	s97.8-75.8,126.5-98.5c6.7-5.3,10.5-12.2,11.5-20.5s-1.2-16.2-6.5-23.5l-39-51C2064.7,309.7,2057.7,305.5,2049,304.5z
	 M2250.5,1058.5c-6.3,6.3-13.8,9.5-22.5,9.5H756c-8.7,0-16.2-3.2-22.5-9.5s-9.5-13.8-9.5-22.5V108c4.7-4.7,11.7-11,21-19
	c35.3-33.3,62.7-58.2,82-74.5s62.5-51,129.5-104S1128.7-224.3,1272-335c2-1.3,16.3-13,43-35c26.7-22,47-38,61-48s32.7-20.8,56-32.5
	c23.3-11.7,43-17.5,59-17.5h1h1c16,0,35.7,5.8,59,17.5c23.3,11.7,42,22.5,56,32.5s34.3,26,61,48s41,33.7,43,35
	c198.7,153.3,328.3,254.7,389,304c46,37.3,99,83.7,159,139v928C2260,1044.7,2256.8,1052.2,2250.5,1058.5z M2347,14
	c-58.7-54.7-125.7-112.3-201-173c-75.3-60.7-150.7-119.7-226-177s-127.3-98-156-122c-24-20-43.7-35.8-59-47.5s-35.8-25.7-61.5-42
	s-51-28.5-76-36.5s-49.8-12-74.5-12h-1h-1c-24.7,0-49.5,4-74.5,12s-50.3,20.2-76,36.5c-25.7,16.3-46.2,30.3-61.5,42
	c-15.3,11.7-35,27.5-59,47.5c-4,3.3-81.7,63.8-233,181.5S719-62,637,14c-27.3,25.3-41,56.7-41,94v928c0,44,15.7,81.7,47,113
	s69,47,113,47h1472c44,0,81.7-15.7,113-47c31.3-31.3,47-69,47-113V108C2388,70.7,2374.3,39.3,2347,14z"/>
</svg>
