<svg xmlns="http://www.w3.org/2000/svg" x="0px" y="0px" viewBox="596 -596 1792 1792" style="enable-background:new 596 -596 1792 1792;">
<path d="M1012-468c-79.3,0-147.2,28.2-203.5,84.5S724-259.3,724-180v960c0,79.3,28.2,147.2,84.5,203.5
	c56.3,56.3,124.2,84.5,203.5,84.5h960c79.3,0,147.2-28.2,203.5-84.5c56.3-56.3,84.5-124.2,84.5-203.5v-960
	c0-79.3-28.2-147.2-84.5-203.5c-56.3-56.3-124.2-84.5-203.5-84.5H1012z M1976,656c-18.7,18.7-41.3,28-68,28h-832
	c-26.7,0-49.3-9.3-68-28c-18.7-18.7-28-41.3-28-68V152c6.7,5.3,17,14.3,31,27s25,21.7,33,27c31.3,21.3,78.8,52.2,142.5,92.5
	s110.8,71.2,141.5,92.5c65.3,46,120,69,164,69l0,0l0,0c44,0,98.7-23,164-69c35.3-24,85.8-57,151.5-99c65.7-42,109.8-70.3,132.5-85
	c22-13.3,43.3-31.7,64-55v436C2004,614.7,1994.7,637.3,1976,656z M1972.5,88.5c-21,26.3-43.2,47.2-66.5,62.5l-267,174
	c-2,1.3-7.7,5.2-17,11.5c-9.3,6.3-16.3,11-21,14c-4.7,3-11.7,7.3-21,13c-9.3,5.7-17.2,10-23.5,13c-6.3,3-13.5,6.2-21.5,9.5
	s-15.5,5.8-22.5,7.5s-13.8,2.5-20.5,2.5c-6.7,0-13.5-0.8-20.5-2.5s-14.5-4.2-22.5-7.5s-15.2-6.5-21.5-9.5c-6.3-3-14.2-7.3-23.5-13
	c-9.3-5.7-16.3-10-21-13c-4.7-3-11.7-7.7-21-14c-9.3-6.3-15-10.2-17-11.5c-26-17.3-69.2-45-129.5-83s-106.2-67.7-137.5-89
	c-24.7-16.7-47.2-38.2-67.5-64.5C990.2,62.2,980,36.7,980,12c0-26.7,9.3-49.3,28-68s41.3-28,68-28h832c27.3,0,50.2,9.7,68.5,29
	s27.5,42.7,27.5,70C2004,37.7,1993.5,62.2,1972.5,88.5z"/>
</svg>
