<svg xmlns="http://www.w3.org/2000/svg" x="0px" y="0px" viewBox="596 -596 1792 1792" style="enable-background:new 596 -596 1792 1792;">
<path d="M1432,652v-96h-96v-56l116-116l152,152l-116,116H1432z M1927-35l-350,350c-11.3,11.3-22.3,11.7-33,1
	c-10.7-10.7-10.3-21.7,1-33l350-350c11.3-11.3,22.3-11.7,33-1S1938.3-46.3,1927-35z M1988,497c-13.3-5.3-25-3-35,7l-64,64
	c-6,6-9,13.3-9,22v126c0,44-15.7,81.7-47,113s-69,47-113,47H888c-44,0-81.7-15.7-113-47s-47-69-47-113v-832c0-44,15.7-81.7,47-113
	s69-47,113-47h832c14.7,0,29.7,2,45,6c12,4,22.7,1.3,32-8l49-49c8-8,11-17.7,9-29c-2-10.7-8-18.3-18-23c-36-16.7-75-25-117-25H888
	c-79.3,0-147.2,28.2-203.5,84.5S600-195.3,600-116v832c0,79.3,28.2,147.2,84.5,203.5S808.7,1004,888,1004h832
	c79.3,0,147.2-28.2,203.5-84.5S2008,795.3,2008,716V526C2008,512,2001.3,502.3,1988,497z M1240,460v288h288l672-672l-288-288
	L1240,460z M2384-148c0-26.7-9.3-49.3-28-68l-152-152c-18.7-18.7-41.3-28-68-28c-26.7,0-49.3,9.3-68,28l-92,92l288,288l92-92
	C2374.7-98.7,2384-121.3,2384-148z"/>
</svg>
