<svg xmlns="http://www.w3.org/2000/svg" x="0px" y="0px" viewBox="596 -596 1792 1792" style="enable-background:new 596 -596 1792 1792;">
<path d="M2250.5,866.5c-6.3,6.3-13.8,9.5-22.5,9.5H756c-8.7,0-16.2-3.2-22.5-9.5S724,852.7,724,844V76c21.3,24,44.3,46,69,66
	c178.7,137.3,320.7,250,426,338c34,28.7,61.7,51,83,67c21.3,16,50.2,32.2,86.5,48.5c36.3,16.3,70.5,24.5,102.5,24.5h1h1
	c32,0,66.2-8.2,102.5-24.5c36.3-16.3,65.2-32.5,86.5-48.5s49-38.3,83-67c105.3-88,247.3-200.7,426-338c24.7-20,47.7-42,69-66v768
	C2260,852.7,2256.8,860.2,2250.5,866.5z M2213.5-75.5C2182.5-27.2,2149,11.3,2113,40c-128.7,101.3-262.3,207-401,317
	c-4,3.3-15.7,13.2-35,29.5s-34.7,28.8-46,37.5s-26.2,19.2-44.5,31.5c-18.3,12.3-35.2,21.5-50.5,27.5c-15.3,6-29.7,9-43,9h-1h-1
	c-13.3,0-27.7-3-43-9c-15.3-6-32.2-15.2-50.5-27.5c-18.3-12.3-33.2-22.8-44.5-31.5c-11.3-8.7-26.7-21.2-46-37.5
	c-19.3-16.3-31-26.2-35-29.5C1133.3,247,999.7,141.3,871,40c-98-77.3-147-172-147-284c0-8.7,3.2-16.2,9.5-22.5s13.8-9.5,22.5-9.5
	h1472c5.3,3,10,3.8,14,2.5s7,1.2,9,7.5s3.8,9.3,5.5,9c1.7-0.3,2.7,3.8,3,12.5c0.3,8.7,0.5,13,0.5,13v13.5v11
	C2260-167.7,2244.5-123.8,2213.5-75.5z M2341-357c-31.3-31.3-69-47-113-47H756c-44,0-81.7,15.7-113,47s-47,69-47,113V844
	c0,44,15.7,81.7,47,113s69,47,113,47h1472c44,0,81.7-15.7,113-47c31.3-31.3,47-69,47-113V-244C2388-288,2372.3-325.7,2341-357z"/>
</svg>
