<svg xmlns="http://www.w3.org/2000/svg" x="0px" y="0px" viewBox="596 -596 1792 1792" style="enable-background:new 596 -596 1792 1792;">
<path d="M1815-466c102.7,44,191.2,103.2,265.5,177.5C2154.8-214.2,2214-125.7,2258-23s66,210.3,66,323s-22,220.3-66,323
	s-103.2,191.2-177.5,265.5c-74.3,74.3-162.8,133.5-265.5,177.5s-210.3,66-323,66c-112.7,0-220.3-22-323-66S977.8,962.8,903.5,888.5
	S770,725.7,726,623s-66-210.3-66-323s22-220.3,66-323s103.2-191.2,177.5-265.5S1066.3-422,1169-466c102.7-44,210.3-66,323-66
	C1604.7-532,1712.3-510,1815-466z M1144-525c-110.7,47.3-206,111-286,191S714.3-158.7,667-48s-71,226.7-71,348s23.7,237.3,71,348
	s111,206,191,286s175.3,143.7,286,191s226.7,71,348,71c121.3,0,237.3-23.7,348-71s206-111,286-191s143.7-175.3,191-286
	c47.3-110.7,71-226.7,71-348s-23.7-237.3-71-348c-47.3-110.7-111-206-191-286s-175.3-143.7-286-191s-226.7-71-348-71
	C1370.7-596,1254.7-572.3,1144-525z M1060,236c-10.7,0-16,5.3-16,16v480c0,10.7,5.3,16,16,16h32c10.7,0,16-5.3,16-16V252
	c0-10.7-5.3-16-16-16H1060z M1401.5,337.5c-25,25-37.5,55.2-37.5,90.5c0,23.3,5.8,44.7,17.5,64c11.7,19.3,27.2,34.7,46.5,46v114
	c0,9.3,3,17,9,23s13.7,9,23,9h64c9.3,0,17-3,23-9s9-13.7,9-23V538c19.3-11.3,34.8-26.7,46.5-46c11.7-19.3,17.5-40.7,17.5-64
	c0-35.3-12.5-65.5-37.5-90.5S1527.3,300,1492,300S1426.5,312.5,1401.5,337.5z M1106.5-365C988.8-296.3,895.7-203.2,827-85.5
	S724,160.7,724,300s34.3,267.8,103,385.5S988.8,896.3,1106.5,965s246.2,103,385.5,103s267.8-34.3,385.5-103s210.8-161.8,279.5-279.5
	c68.7-117.7,103-246.2,103-385.5s-34.3-267.8-103-385.5c-68.7-117.7-161.8-210.8-279.5-279.5S1631.3-468,1492-468
	S1224.2-433.7,1106.5-365z M1243-237c68.7-68.7,151.7-103,249-103c97.3,0,180.3,34.3,249,103s103,151.7,103,249v96c0,9.3-3,17-9,23
	s-13.7,9-23,9h-64c-9.3,0-17-3-23-9s-9-13.7-9-23V12c0-62-21.8-114.8-65.5-158.5S1554-212,1492-212s-114.8,21.8-158.5,65.5
	C1289.8-102.8,1268-50,1268,12v96c0,9.3-3,17-9,23s-13.7,9-23,9h-64c-9.3,0-17-3-23-9s-9-13.7-9-23V12
	C1140-85.3,1174.3-168.3,1243-237z M1985,793c-12.7,12.7-27.7,19-45,19h-896c-17.3,0-32.3-6.3-45-19c-12.7-12.7-19-27.7-19-45V236
	c0-17.3,6.3-32.3,19-45c12.7-12.7,27.7-19,45-19h896c17.3,0,32.3,6.3,45,19s19,27.7,19,45v512C2004,765.3,1997.7,780.3,1985,793z"/>
</svg>
