<svg xmlns="http://www.w3.org/2000/svg" x="0px" y="0px" viewBox="596 -596 1792 1792" style="enable-background:new 596 -596 1792 1792;">
<path d="M2288,137c-218.7,148-384.7,263-498,345c-38,28-68.8,49.8-92.5,65.5c-23.7,15.7-55.2,31.7-94.5,48
	c-39.3,16.3-76,24.5-110,24.5h-1h-1c-34,0-70.7-8.2-110-24.5c-39.3-16.3-70.8-32.3-94.5-48c-23.7-15.7-54.5-37.5-92.5-65.5
	c-90-66-255.7-181-497-345c-38-25.3-71.7-54.3-101-87v794c0,44,15.7,81.7,47,113s69,47,113,47h1472c44,0,81.7-15.7,113-47
	c31.3-31.3,47-69,47-113V50C2359.3,82,2326,111,2288,137z M2340.5-357c-31.7-31.3-69.2-47-112.5-47H756c-51.3,0-90.8,17.3-118.5,52
	S596-274,596-222c0,42,18.3,87.5,55,136.5S726.7,2,768,30c22.7,16,91,63.5,205,142.5s201.3,139.8,262,182.5
	c6.7,4.7,20.8,14.8,42.5,30.5c21.7,15.7,39.7,28.3,54,38c14.3,9.7,31.7,20.5,52,32.5c20.3,12,39.5,21,57.5,27s34.7,9,50,9h1h1
	c15.3,0,32-3,50-9s37.2-15,57.5-27s37.7-22.8,52-32.5s32.3-22.3,54-38s35.8-25.8,42.5-30.5c61.3-42.7,217.3-151,468-325
	c48.7-34,89.3-75,122-123c32.7-48,49-98.3,49-151C2388-288,2372.2-325.7,2340.5-357z"/>
</svg>
