<svg xmlns="http://www.w3.org/2000/svg" x="0px" y="0px" viewBox="596 -596 1792 1792" style="enable-background:new 596 -596 1792 1792;">
<path d="M1106.5-365C988.8-296.3,895.7-203.2,827-85.5S724,160.7,724,300s34.3,267.8,103,385.5S988.8,896.3,1106.5,965
	s246.2,103,385.5,103s267.8-34.3,385.5-103s210.8-161.8,279.5-279.5c68.7-117.7,103-246.2,103-385.5s-34.3-267.8-103-385.5
	c-68.7-117.7-161.8-210.8-279.5-279.5S1631.3-468,1492-468S1224.2-433.7,1106.5-365z M1611,802.5c-6,6.3-13.3,9.5-22,9.5h-192
	c-8.7,0-16.3-3.3-23-10c-6.7-6.7-10-14.3-10-23V589c0-8.7,3.3-16.3,10-23c6.7-6.7,14.3-10,23-10h192c8.7,0,16,3.2,22,9.5
	c6,6.3,9,14.2,9,23.5v190C1620,788.3,1617,796.2,1611,802.5z M1607.5,452.5c-6.3,5-14.2,7.5-23.5,7.5h-185c-9.3,0-17.3-2.5-24-7.5
	c-6.7-5-10-10.8-10-17.5l-17-621c0-8,3.3-14,10-18c6.7-5.3,14.7-8,24-8h220c9.3,0,17.3,2.7,24,8c6.7,4,10,10,10,18l-18,621
	C1617.3,441.7,1613.8,447.5,1607.5,452.5z"/>
</svg>
