<svg xmlns="http://www.w3.org/2000/svg" x="0px" y="0px" viewBox="596 -596 1792 1792" style="enable-background:new 596 -596 1792 1792;">
<path d="M2067.5-596c-88.3,0-163.5,31.3-225.5,94l-223,225l-104-104c-6.7-6.7-14.3-10-23-10c-8.7,0-16.3,3.3-23,10l-210,210
	c-6.7,6.7-10,14.3-10,23s3.3,16.3,10,23l105,105L761,583c-24.7,24.7-37,54.7-37,90v203l-128,256l64,64l256-128h203
	c35.3,0,65.3-12.3,90-37l603-603l105,105c6.7,6.7,14.3,10,23,10s16.3-3.3,23-10l210-210c6.7-6.7,10-14.3,10-23s-3.3-16.3-10-23
	l-104-104l225-223c62.7-62,94-137.2,94-225.5s-31.3-163.8-94-226.5C2231.3-564.7,2155.8-596,2067.5-596z M916,876V684l576-576
	l192,192l-576,576H916z"/>
</svg>
