<svg xmlns="http://www.w3.org/2000/svg" x="0px" y="0px" viewBox="596 -596 1792 1792" style="enable-background:new 596 -596 1792 1792;">
<path d="M803,36.5C854.3-13.8,913-60.7,979-104c66-43.3,140.5-78.2,223.5-104.5S1372-249.7,1462-253l22,1c14.7,0.7,33.3,3.5,56,8.5
	c22.7,5,47.7,11.8,75,20.5c27.3,8.7,54.2,22.3,80.5,41s49.8,40.8,70.5,66.5S1802.3-56,1813-14s13.3,88.7,8,140h-635
	c10.7-62.7,26-115.8,46-159.5s46-85.5,78-125.5C1169.3-93.7,1061-4.3,985,109S872,359.7,874,521c1.3,130.7,42.8,254.7,124.5,372
	s185.5,200.3,311.5,249c94,36,199.3,53.7,316,53c116.7-0.7,220.8-13.3,312.5-38c91.7-24.7,168.2-55.3,229.5-92V688
	c-48.7,34-106.5,62.2-173.5,84.5s-136.3,37.8-208,46.5s-142.7,7.7-213-3S1440,786.3,1384,759s-101.5-68.2-136.5-122.5
	S1194.7,518,1194,444h1125V256c0-170-34.7-317.3-104-442c-74-132-172-233.2-294-303.5S1661-595,1507-595
	c-98.7,0-190.8,14.3-276.5,43c-85.7,28.7-160.2,67.8-223.5,117.5s-119.2,108.3-167.5,176c-48.3,67.7-86.7,140-115,217
	S676.7,116,666,200h-1C705.7,141.3,751.7,86.8,803,36.5z"/>
</svg>
