<svg xmlns="http://www.w3.org/2000/svg" x="0px" y="0px" viewBox="596 -596 1792 1792" style="enable-background:new 596 -596 1792 1792;">
<path d="M1995,437c-6-6-13.7-9-23-9h-64c-9.3,0-17,3-23,9s-9,13.7-9,23v320c0,44-15.7,81.7-47,113s-69,47-113,47H884
	c-44,0-81.7-15.7-113-47s-47-69-47-113V-52c0-44,15.7-81.7,47-113s69-47,113-47h704c9.3,0,17-3,23-9s9-13.7,9-23v-64
	c0-9.3-3-17-9-23s-13.7-9-23-9H884c-79.3,0-147.2,28.2-203.5,84.5S596-131.3,596-52v832c0,79.3,28.2,147.2,84.5,203.5
	c56.3,56.3,124.2,84.5,203.5,84.5h832c79.3,0,147.2-28.2,203.5-84.5c56.3-56.3,84.5-124.2,84.5-203.5V460
	C2004,450.7,2001,443,1995,437z M2369-449c-12.7-12.7-27.7-19-45-19h-512c-17.3,0-32.3,6.3-45,19s-19,27.7-19,45s6.3,32.3,19,45
	l176,176l-652,652c-6.7,6.7-10,14.3-10,23s3.3,16.3,10,23l114,114c6.7,6.7,14.3,10,23,10c8.7,0,16.3-3.3,23-10l652-652l176,176
	c12.7,12.7,27.7,19,45,19c17.3,0,32.3-6.3,45-19c12.7-12.7,19-27.7,19-45v-512C2388-421.3,2381.7-436.3,2369-449z"/>
</svg>
