<svg xmlns="http://www.w3.org/2000/svg" x="0px" y="0px" viewBox="596 -596 1792 1792" style="enable-background:new 596 -596 1792 1792;">
<path d="M724,418c4,8.7,14.7,13,32,13h1472c17.3,0,28-4.3,32-13s-0.3-19.3-13-32l-710-710c-12.7-12.7-27.7-19-45-19
	c-17.3,0-32.3,6.3-45,19L737,386C724.3,398.7,720,409.3,724,418z M2241,924c12.7-12.7,19-27.7,19-45V623c0-17.3-6.3-32.3-19-45
	c-12.7-12.7-27.7-19-45-19H788c-17.3,0-32.3,6.3-45,19c-12.7,12.7-19,27.7-19,45v256c0,17.3,6.3,32.3,19,45s27.7,19,45,19h1408
	C2213.3,943,2228.3,936.7,2241,924z"/>
</svg>
