<svg xmlns="http://www.w3.org/2000/svg" x="0px" y="0px" viewBox="596 -596 1792 1792" style="enable-background:new 596 -596 1792 1792;">
<path d="M1784-528c-9.3-9.3-21.3-18.7-36-28v472h472c-9.3-14.7-18.7-26.7-28-36L1784-528z M1648,16c-18.7-18.7-28-41.3-28-68v-544
	H820c-26.7,0-49.3,9.3-68,28s-28,41.3-28,68v1600c0,26.7,9.3,49.3,28,68s41.3,28,68,28h1344c26.7,0,49.3-9.3,68-28
	c18.7-18.7,28-41.3,28-68V44h-544C1689.3,44,1666.7,34.7,1648,16z M1867,803c-6,6-13.7,9-23,9h-704c-9.3,0-17-3-23-9s-9-13.7-9-23
	v-64c0-9.3,3-17,9-23s13.7-9,23-9h704c9.3,0,17,3,23,9s9,13.7,9,23v64C1876,789.3,1873,797,1867,803z M1867,547c-6,6-13.7,9-23,9
	h-704c-9.3,0-17-3-23-9s-9-13.7-9-23v-64c0-9.3,3-17,9-23s13.7-9,23-9h704c9.3,0,17,3,23,9s9,13.7,9,23v64
	C1876,533.3,1873,541,1867,547z M1867,291c-6,6-13.7,9-23,9h-704c-9.3,0-17-3-23-9s-9-13.7-9-23v-64c0-9.3,3-17,9-23s13.7-9,23-9
	h704c9.3,0,17,3,23,9s9,13.7,9,23v64C1876,277.3,1873,285,1867,291z"/>
</svg>
