<svg xmlns="http://www.w3.org/2000/svg" x="0px" y="0px" viewBox="596 -596 1792 1792" style="enable-background:new 596 -596 1792 1792;">
<path d="M1880-528c-18.7-18.7-44-34.7-76-48s-61.3-20-88-20H820c-26.7,0-49.3,9.3-68,28s-28,41.3-28,68v1600c0,26.7,9.3,49.3,28,68
	s41.3,28,68,28h1344c26.7,0,49.3-9.3,68-28c18.7-18.7,28-41.3,28-68V-52c0-26.7-6.7-56-20-88c-13.3-32-29.3-57.3-48-76L1880-528z
	 M1789-438l313,313c8,8,15.3,21.7,22,41h-376v-376C1767.3-453.3,1781-446,1789-438z M852,1068V-468h768v416c0,26.7,9.3,49.3,28,68
	c18.7,18.7,41.3,28,68,28h416v1024H852z M1221,834l194-283l-189-272h-68V172h290v107h-76l106,159c7.3,8,13,15.7,17,23
	c2.7,4,4.3,7.3,5,10h2l2-3c2-2.7,5-7.2,9-13.5s7.3-11.8,10-16.5l103-159h-74V172h279v107h-67l-195,282l192,273h68v106h-291V834h76
	l-107-161c-2-2.7-4.2-5.5-6.5-8.5c-2.3-3-4.3-5.7-6-8c-1.7-2.3-3.2-4.8-4.5-7.5c-2.7-4-4.3-7.3-5-10h-2c-0.7,0-1.8,1.3-3.5,4
	c-1.7,2.7-4.2,7.2-7.5,13.5c-3.3,6.3-6.7,11.8-10,16.5l-103,161h75v106h-281V834H1221z"/>
</svg>
