<svg xmlns="http://www.w3.org/2000/svg" x="0px" y="0px" viewBox="596 -596 1792 1792" style="enable-background:new 596 -596 1792 1792;">
<path d="M1012-468c-79.3,0-147.2,28.2-203.5,84.5S724-259.3,724-180v960c0,79.3,28.2,147.2,84.5,203.5
	c56.3,56.3,124.2,84.5,203.5,84.5h960c79.3,0,147.2-28.2,203.5-84.5c56.3-56.3,84.5-124.2,84.5-203.5v-960
	c0-79.3-28.2-147.2-84.5-203.5c-56.3-56.3-124.2-84.5-203.5-84.5H1012z M1360,450c-41.3,41.3-91.3,62-150,62s-108.7-20.7-150-62
	s-62-91.3-62-150s20.7-108.7,62-150c41.3-41.3,91.3-62,150-62c58.7,0,108.7,20.7,150,62c41.3,41.3,62,91.3,62,150
	S1401.3,408.7,1360,450z M1924,450c-41.3,41.3-91.3,62-150,62c-58.7,0-108.7-20.7-150-62c-41.3-41.3-62-91.3-62-150
	s20.7-108.7,62-150c41.3-41.3,91.3-62,150-62s108.7,20.7,150,62s62,91.3,62,150S1965.3,408.7,1924,450z"/>
</svg>
