<svg xmlns="http://www.w3.org/2000/svg" x="0px" y="0px" viewBox="596 -596 1792 1792" style="enable-background:new 596 -596 1792 1792;">
<path d="M1880-528c-18.7-18.7-44-34.7-76-48s-61.3-20-88-20H820c-26.7,0-49.3,9.3-68,28s-28,41.3-28,68v1600c0,26.7,9.3,49.3,28,68
	s41.3,28,68,28h1344c26.7,0,49.3-9.3,68-28c18.7-18.7,28-41.3,28-68V-52c0-26.7-6.7-56-20-88c-13.3-32-29.3-57.3-48-76L1880-528z
	 M1789-438l313,313c8,8,15.3,21.7,22,41h-376v-376C1767.3-453.3,1781-446,1789-438z M852,1068V-468h768v416c0,26.7,9.3,49.3,28,68
	c18.7,18.7,41.3,28,68,28h416v1024H852z M1684,300l-384,384l-128-128L980,748v192h1024V620L1684,300z M1308,372
	c37.3-37.3,56-82.7,56-136s-18.7-98.7-56-136c-37.3-37.3-82.7-56-136-56s-98.7,18.7-136,56c-37.3,37.3-56,82.7-56,136
	s18.7,98.7,56,136c37.3,37.3,82.7,56,136,56S1270.7,409.3,1308,372z"/>
</svg>
