<svg xmlns="http://www.w3.org/2000/svg" x="0px" y="0px" viewBox="596 -596 1792 1792" style="enable-background:new 596 -596 1792 1792;">
<path d="M1281-311c-12.7,12.7-27.7,19-45,19s-32.3-6.3-45-19s-19-27.7-19-45s6.3-32.3,19-45s27.7-19,45-19s32.3,6.3,45,19
	s19,27.7,19,45S1293.7-323.7,1281-311z M2184-413c-5.3-4.7-12-7-20-7c-2.7,0-5,0.3-7,1l-448,96c-7.3,1.3-13.3,5-18,11
	c-4.7,6-7,12.7-7,20h-302c9.3-20.7,14-42,14-64c0-44-15.7-81.7-47-113c-31.3-31.3-69-47-113-47s-81.7,15.7-113,47s-47,69-47,113
	c0,29.3,8.3,58,25,86c-37.3,12-73.5,29.5-108.5,52.5s-63.3,45.3-85,67s-41.8,45-60.5,70c-18.7,25-31.2,42.8-37.5,53.5
	C803.2-16.3,798.3-7.7,795-1c-8,16-9.2,32.3-3.5,49c5.7,16.7,16.2,29,31.5,37c8.7,4.7,18.3,7,29,7c26.7,0,45.7-11.7,57-35
	c2.7-5.3,7.3-13.5,14-24.5S943.2,3.7,963.5-21c20.3-24.7,42.3-46.8,66-66.5c23.7-19.7,54.2-37.3,91.5-53s75.7-23.5,115-23.5h32v111
	c-66,20-119.8,58.2-161.5,114.5S1044,181.3,1044,252v800c0,17.3,6.3,32.3,19,45s27.7,19,45,19h512c17.3,0,32.3-6.3,45-19
	c12.7-12.7,19-27.7,19-45V252c0-76.7-24.2-144.3-72.5-203C1563.2-9.7,1502-46.7,1428-62v-102h256c0,7.3,2.3,14,7,20
	c4.7,6,10.7,9.7,18,11l448,96c2,0.7,4.3,1,7,1c8,0,14.7-2.3,20-7c8-6,12-14.3,12-25v-320C2196-398.7,2192-407,2184-413z"/>
</svg>
