<svg xmlns="http://www.w3.org/2000/svg" x="0px" y="0px" viewBox="596 -596 1792 1792" style="enable-background:new 596 -596 1792 1792;">
<path d="M2300.5,438l-294,363c-16.7,20.7-40.3,38.3-71,53s-59.3,22-86,22h-1088c-35.3,0-53-11.7-53-35c0-10.7,6-24,18-40l294-363
	c17.3-20.7,41.2-38.2,71.5-52.5c30.3-14.3,58.8-21.5,85.5-21.5h1088c35.3,0,53,11.7,53,35C2318.5,410.3,2312.5,423.3,2300.5,438z
	 M1037.5,270.5c-48,23-86.7,52.2-116,87.5l-256,315v-853c0-26.7,9.3-49.3,28-68s41.3-28,68-28h320c26.7,0,49.3,9.3,68,28
	c18.7,18.7,28,41.3,28,68v64c0,26.7,9.3,49.3,28,68c18.7,18.7,41.3,28,68,28h576c26.7,0,49.3,9.3,68,28s28,41.3,28,68v160h-768
	C1132.2,236,1085.5,247.5,1037.5,270.5z M2431.5,331c-14.7-30.7-37-54.2-67-70.5s-63-24.5-99-24.5h-192V76c0-61.3-22-114-66-158
	s-96.7-66-158-66h-544v-32c0-61.3-22-114-66-158s-96.7-66-158-66h-320c-61.3,0-114,22-158,66s-66,96.7-66,158v960
	c0,61.3,22,114,66,158s96.7,66,158,66h1088c44.7,0,91.3-11.5,140-34.5s87.3-52.2,116-87.5l295-363c30.7-38.7,46-78.7,46-120
	C2446.5,375,2441.5,352.3,2431.5,331z"/>
</svg>
