<svg xmlns="http://www.w3.org/2000/svg" x="0px" y="0px" viewBox="596 -596 1792 1792" style="enable-background:new 596 -596 1792 1792;">
<path d="M1880-528c-18.7-18.7-44-34.7-76-48s-61.3-20-88-20H820c-26.7,0-49.3,9.3-68,28s-28,41.3-28,68v1600c0,26.7,9.3,49.3,28,68
	s41.3,28,68,28h1344c26.7,0,49.3-9.3,68-28c18.7-18.7,28-41.3,28-68V-52c0-26.7-6.7-56-20-88c-13.3-32-29.3-57.3-48-76L1880-528z
	 M1789-438l313,313c8,8,15.3,21.7,22,41h-376v-376C1767.3-453.3,1781-446,1789-438z M852,1068V-468h768v416c0,26.7,9.3,49.3,28,68
	c18.7,18.7,41.3,28,68,28h416v1024H852z M1309,261l-166,167h-131c-9.3,0-17,3-23,9s-9,13.7-9,23v192c0,9.3,3,17,9,23s13.7,9,23,9
	h131l166,167c7.3,6,15,9,23,9c2.7,0,6.7-0.7,12-2c13.3-5.3,20-15.3,20-30V284c0-14.7-6.7-24.7-20-30
	C1331.3,248.7,1319.7,251,1309,261z M1721,928c-14-10.7-21.8-24.8-23.5-42.5c-1.7-17.7,3.2-33.5,14.5-47.5c66.7-82,100-176,100-282
	s-33.3-200-100-282c-11.3-14-16.2-29.8-14.5-47.5c1.7-17.7,9.5-32.2,23.5-43.5c13.3-11.3,29-16,47-14s32.3,10,43,24
	c86,106,129,227,129,363s-43,257-129,363c-12.7,16-29.3,24-50,24C1746.3,943,1733,938,1721,928z M1506,778
	c-12.7-12-19.3-26.8-20-44.5c-0.7-17.7,5.3-33.2,18-46.5c34.7-38,52-81.7,52-131s-17.3-93-52-131c-12.7-13.3-18.7-28.8-18-46.5
	c0.7-17.7,7.3-32.5,20-44.5c12.7-12,28-17.7,46-17s33,7.3,45,20c58,62,87,135,87,219s-29,157-87,219c-13.3,13.3-29,20-47,20
	C1534,795,1519.3,789.3,1506,778z"/>
</svg>
