<svg xmlns="http://www.w3.org/2000/svg" x="0px" y="0px" viewBox="596 -596 1792 1792" style="enable-background:new 596 -596 1792 1792;">
<path d="M1880-528c-18.7-18.7-44-34.7-76-48s-61.3-20-88-20H820c-26.7,0-49.3,9.3-68,28s-28,41.3-28,68v1600c0,26.7,9.3,49.3,28,68
	s41.3,28,68,28h1344c26.7,0,49.3-9.3,68-28c18.7-18.7,28-41.3,28-68V-52c0-26.7-6.7-56-20-88c-13.3-32-29.3-57.3-48-76L1880-528z
	 M1789-438l313,313c8,8,15.3,21.7,22,41h-376v-376C1767.3-453.3,1781-446,1789-438z M852,1068V-468h768v416c0,26.7,9.3,49.3,28,68
	c18.7,18.7,41.3,28,68,28h416v1024H852z M1108,268c0,9.3,3,17,9,23s13.7,9,23,9h704c9.3,0,17-3,23-9s9-13.7,9-23v-64
	c0-9.3-3-17-9-23s-13.7-9-23-9h-704c-9.3,0-17,3-23,9s-9,13.7-9,23V268z M1140,428c-9.3,0-17,3-23,9s-9,13.7-9,23v64
	c0,9.3,3,17,9,23s13.7,9,23,9h704c9.3,0,17-3,23-9s9-13.7,9-23v-64c0-9.3-3-17-9-23s-13.7-9-23-9H1140z M1140,684c-9.3,0-17,3-23,9
	s-9,13.7-9,23v64c0,9.3,3,17,9,23s13.7,9,23,9h704c9.3,0,17-3,23-9s9-13.7,9-23v-64c0-9.3-3-17-9-23s-13.7-9-23-9H1140z"/>
</svg>
