<svg xmlns="http://www.w3.org/2000/svg" x="0px" y="0px" viewBox="596 -596 1792 1792" style="enable-background:new 596 -596 1792 1792;">
<path d="M1569,415c-25.3,1.3-44.3,2-57,2c-38,0-91.5-0.7-160.5-2s-114.5-2-136.5-2l170-450C1449.7,95.7,1511,246.3,1569,415z
	 M848,1054c2,0,9.2-1.3,21.5-4s21.2-4,26.5-4c38.7,0,96.8,3.3,174.5,10s135.8,10,174.5,10c1.3-12,2-21,2-27c0-26-0.3-45.3-1-58
	c-2,0-15.7-1.3-41-4c-25.3-2.7-44.3-5.5-57-8.5s-28.8-7.5-48.5-13.5s-34.2-14.2-43.5-24.5s-14-22.8-14-37.5
	c0-16.7,16.8-70.8,50.5-162.5s59.2-156.8,76.5-195.5l450,2c0.7,2,14.7,35.3,42,100c27.3,64.7,51.3,123.8,72,177.5s31,85.8,31,96.5
	c0,5.3-0.8,10-2.5,14s-4.7,7.7-9,11s-8,6-11,8s-8,4.2-15,6.5s-11.8,3.8-14.5,4.5s-7.8,1.8-15.5,3.5s-11.8,2.5-12.5,2.5l-131,28
	c-2.7,23.3-4,49.3-4,78c26-0.7,85.3-3.3,178-8c92.7-4.7,164.3-7,215-7c42.7,0,106.3,2.7,191,8s148,8,190,8c0-2.7,0.2-7,0.5-13
	s0.5-10.3,0.5-13c0-12.7-2-31.7-6-57c-10-4-38-10.8-84-20.5s-75.3-19.5-88-29.5c-10-8-21.7-27-35-57c-19.3-38.7-43.3-94.8-72-168.5
	c-28.7-73.7-48-121.8-58-144.5c-27.3-63.3-65.3-154.8-114-274.5S1783,85,1761,33l-205-480c-2-4.7-5.7-11.7-11-21h-53h-75l-280,724
	L900,872c-8,20.7-18.3,37.5-31,50.5s-27.5,22.7-44.5,29S791,962.7,775,966s-35,6.8-57,10.5s-40.7,7.8-56,12.5l-2,79
	C732,1068,794.7,1063.3,848,1054z"/>
</svg>
