<svg xmlns="http://www.w3.org/2000/svg" x="0px" y="0px" viewBox="596 -596 1792 1792" style="enable-background:new 596 -596 1792 1792;">
<path d="M2222.5-129c-12.7-12.7-27.7-19-45-19c-13.3,0-43,6.3-89,19s-72.7,19.7-80,21c-58.7,12-113.7,18-165,18
	c-34.7,0-84.5-6.8-149.5-20.5s-102.2-21.2-111.5-22.5c-66-10-132-15-198-15c-102,0-216.3,14.7-343,44v-68c42-16.7,75.7-43.7,101-81
	s38-78.7,38-124c0-60.7-21.3-112.3-64-155s-94.3-64-155-64s-112.3,21.3-155,64s-64,94.3-64,155c0,45.3,12.7,86.7,38,124
	s59,64.3,101,81v1368h160V858c137.3-32,260.7-48,370-48c56.7,0,132.5,9.8,227.5,29.5s166.8,29.5,215.5,29.5c109.3,0,222-17.3,338-52
	c32.7-9.3,49-30,49-62V-84C2241.5-101.3,2235.2-116.3,2222.5-129z"/>
</svg>
