<svg xmlns="http://www.w3.org/2000/svg" x="0px" y="0px" viewBox="596 -596 1792 1792" style="enable-background:new 596 -596 1792 1792;">
<path d="M1012-468c-79.3,0-147.2,28.2-203.5,84.5S724-259.3,724-180v960c0,79.3,28.2,147.2,84.5,203.5
	c56.3,56.3,124.2,84.5,203.5,84.5h532V473h-200V241h200V70c0-97.3,27.2-172.7,81.5-226c54.3-53.3,126.8-80,217.5-80
	c76.7,0,136,3,178,9v207l-122,1c-45.3,0-75.8,9.3-91.5,28S1784,55.7,1784,93v148h229l-30,232h-199v595h188
	c79.3,0,147.2-28.2,203.5-84.5c56.3-56.3,84.5-124.2,84.5-203.5v-960c0-79.3-28.2-147.2-84.5-203.5
	c-56.3-56.3-124.2-84.5-203.5-84.5H1012z"/>
</svg>
