<svg xmlns="http://www.w3.org/2000/svg" x="0px" y="0px" viewBox="596 -596 1792 1792" style="enable-background:new 596 -596 1792 1792;">
<path d="M2405,377c-17.7-8.7-37.8-13-60.5-13h-1088c-44,0-91.8,11.8-143.5,35.5c-51.7,23.7-91.8,52.5-120.5,86.5l-336,396
	c-20.7,23.3-31,45.3-31,66c0,20,8.8,34.3,26.5,43s37.8,13,60.5,13h1088c44,0,91.8-11.8,143.5-35.5s91.8-52.5,120.5-86.5l336-396
	c20.7-23.3,31-45.3,31-66C2431.5,400,2422.7,385.7,2405,377z M2022.5-82c-44-44-96.7-66-158-66h-544v-32c0-61.3-22-114-66-158
	s-96.7-66-158-66h-320c-61.3,0-114,22-158,66s-66,96.7-66,158v960c0,2.7,0.2,6.8,0.5,12.5s0.5,9.8,0.5,12.5l5-6l337-396
	c40.7-48,95.3-87.8,164-119.5c68.7-31.7,134.3-47.5,197-47.5h832V76C2088.5,14.7,2066.5-38,2022.5-82z"/>
</svg>
