<svg xmlns="http://www.w3.org/2000/svg" x="0px" y="0px" viewBox="596 -596 1792 1792" style="enable-background:new 596 -596 1792 1792;">
<path d="M1880-528c-18.7-18.7-44-34.7-76-48s-61.3-20-88-20H820c-26.7,0-49.3,9.3-68,28s-28,41.3-28,68v1600c0,26.7,9.3,49.3,28,68
	s41.3,28,68,28h1344c26.7,0,49.3-9.3,68-28c18.7-18.7,28-41.3,28-68V-52c0-26.7-6.7-56-20-88c-13.3-32-29.3-57.3-48-76L1880-528z
	 M1789-438l313,313c8,8,15.3,21.7,22,41h-376v-376C1767.3-453.3,1781-446,1789-438z M852,1068V-468h768v416c0,26.7,9.3,49.3,28,68
	c18.7,18.7,41.3,28,68,28h416v1024H852z M1232,834V279h-92V172h368c54.7,0,98,6.3,130,19c42,18,75.3,47,100,87s37,87,37,141
	c0,54.7-13.2,103.3-39.5,146c-26.3,42.7-61.8,71.7-106.5,87c-28,10-67.3,15-118,15h-137v167h93v106h-327V834H1232z M1571,539
	c41.3-20.7,62-60.7,62-120c0-54.7-18.7-93-56-115c-20.7-12-48.3-18-83-18h-120v268h119C1524.3,554,1550.3,549,1571,539z"/>
</svg>
