<svg xmlns="http://www.w3.org/2000/svg" x="0px" y="0px" viewBox="596 -596 1792 1792" style="enable-background:new 596 -596 1792 1792;">
<path d="M1489-465c-138.7,0-266.7,34.2-384,102.5s-210.2,161.3-278.5,279S724,162.3,724,301c0,58,6.7,116.7,20,176
	c79.3-212.7,198.7-399.5,358-560.5s344.7-281.8,556-362.5C1600-458.7,1543.7-465,1489-465z M1260,72c-188.7,190-320.3,413.7-395,671
	c41.3,60,93,114,155,162c74-259.3,206.2-484.8,396.5-676.5S1831.7-96.7,2091-172c-47.3-60-102-111.7-164-155
	C1671-251,1448.7-118,1260,72z M1388,1059c79.3-195.3,193.7-368,343-518s321.3-265,516-345c-9.3-68.7-27.3-133.7-54-195
	c-236.7,78.7-443.2,206.7-619.5,384s-302.8,384.7-379.5,622C1254.7,1032.3,1319.3,1049.7,1388,1059z M2145,695
	c53.3-88,87-182.7,101-284c-136,73.3-259,165.2-369,275.5s-201.3,233.8-274,370.5c103.3-15.3,200-51,290-107
	c116,43.3,238.3,81.7,367,115C2226.7,935,2188.3,811.7,2145,695z"/>
</svg>
