<svg xmlns="http://www.w3.org/2000/svg" x="0px" y="0px" viewBox="596 -596 1792 1792" style="enable-background:new 596 -596 1792 1792;">
<path d="M2186.5,1077.5c-6.3-6.3-13.8-9.5-22.5-9.5H820c-8.7,0-16.2,3.2-22.5,9.5s-9.5,13.8-9.5,22.5v64c0,8.7,3.2,16.2,9.5,22.5
	s13.8,9.5,22.5,9.5h1344c8.7,0,16.2-3.2,22.5-9.5c6.3-6.3,9.5-13.8,9.5-22.5v-64C2196,1091.3,2192.8,1083.8,2186.5,1077.5z
	 M1912.5-140c-18.3-57.3-42.5-107.5-72.5-150.5s-67.8-83.8-113.5-122.5c-45.7-38.7-91.8-72-138.5-100c-46.7-28-100-55.7-160-83l1,1
	l-3-1c44,86.7,66,161.3,66,224c0,34-8.2,66.2-24.5,96.5c-16.3,30.3-37.7,57.5-64,81.5c-26.3,24-55.5,48-87.5,72s-64,49.8-96,77.5
	s-61.2,57-87.5,88s-47.7,68.5-64,112.5s-24.5,92-24.5,144c0,65.3,9.2,126.7,27.5,184s42.5,107.5,72.5,150.5s67.8,83.8,113.5,122.5
	c45.7,38.7,91.8,72,138.5,100c46.7,28,100,55.7,160,83l-1-1l4,1c-44.7-85.3-67-160-67-224c0-34,8.2-66.2,24.5-96.5
	c16.3-30.3,37.7-57.5,64-81.5c26.3-24,55.5-48,87.5-72s64-49.8,96-77.5s61.2-57,87.5-88s47.7-68.5,64-112.5S1940,96,1940,44
	C1940-21.3,1930.8-82.7,1912.5-140z"/>
</svg>
