<svg xmlns="http://www.w3.org/2000/svg" x="0px" y="0px" viewBox="596 -596 1792 1792" style="enable-background:new 596 -596 1792 1792;">
<path d="M756-212c-44,0-81.7,15.7-113,47s-47,69-47,113v1088c0,44,15.7,81.7,47,113s69,47,113,47h128c44,0,81.7-15.7,113-47
	s47-69,47-113V-52c0-44-15.7-81.7-47-113c-31.3-31.3-69-47-113-47H756z M2260-212c0-26.7-6.7-56-20-88c-13.3-32-29.3-57.3-48-76
	l-152-152c-18.7-18.7-44-34.7-76-48s-61.3-20-88-20h-672c-26.7,0-49.3,9.3-68,28c-18.7,18.7-28,41.3-28,68v1536
	c0,44,15.7,81.7,47,113c31.3,31.3,69,47,113,47h864c70.7,0,131-25,181-75s75-110.3,75-181V172c0-46-11.7-88.7-35-128
	c-23.3-39.3-54.3-70.3-93-93V-212z M1515,963c-6,6-13.7,9-23,9h-128c-9.3,0-17-3-23-9s-9-13.7-9-23V812c0-9.3,3-17,9-23s13.7-9,23-9
	h128c9.3,0,17,3,23,9s9,13.7,9,23v128C1524,949.3,1521,957,1515,963z M1515,707c-6,6-13.7,9-23,9h-128c-9.3,0-17-3-23-9
	s-9-13.7-9-23V556c0-9.3,3-17,9-23s13.7-9,23-9h128c9.3,0,17,3,23,9s9,13.7,9,23v128C1524,693.3,1521,701,1515,707z M1515,451
	c-6,6-13.7,9-23,9h-128c-9.3,0-17-3-23-9s-9-13.7-9-23V300c0-9.3,3-17,9-23s13.7-9,23-9h128c9.3,0,17,3,23,9s9,13.7,9,23v128
	C1524,437.3,1521,445,1515,451z M1771,963c-6,6-13.7,9-23,9h-128c-9.3,0-17-3-23-9s-9-13.7-9-23V812c0-9.3,3-17,9-23s13.7-9,23-9
	h128c9.3,0,17,3,23,9s9,13.7,9,23v128C1780,949.3,1777,957,1771,963z M1771,707c-6,6-13.7,9-23,9h-128c-9.3,0-17-3-23-9
	s-9-13.7-9-23V556c0-9.3,3-17,9-23s13.7-9,23-9h128c9.3,0,17,3,23,9s9,13.7,9,23v128C1780,693.3,1777,701,1771,707z M1771,451
	c-6,6-13.7,9-23,9h-128c-9.3,0-17-3-23-9s-9-13.7-9-23V300c0-9.3,3-17,9-23s13.7-9,23-9h128c9.3,0,17,3,23,9s9,13.7,9,23v128
	C1780,437.3,1777,445,1771,451z M2027,963c-6,6-13.7,9-23,9h-128c-9.3,0-17-3-23-9s-9-13.7-9-23V812c0-9.3,3-17,9-23s13.7-9,23-9
	h128c9.3,0,17,3,23,9s9,13.7,9,23v128C2036,949.3,2033,957,2027,963z M2027,707c-6,6-13.7,9-23,9h-128c-9.3,0-17-3-23-9
	s-9-13.7-9-23V556c0-9.3,3-17,9-23s13.7-9,23-9h128c9.3,0,17,3,23,9s9,13.7,9,23v128C2036,693.3,2033,701,2027,707z M2027,451
	c-6,6-13.7,9-23,9h-128c-9.3,0-17-3-23-9s-9-13.7-9-23V300c0-9.3,3-17,9-23s13.7-9,23-9h128c9.3,0,17,3,23,9s9,13.7,9,23v128
	C2036,437.3,2033,445,2027,451z M1236,44v-512h640v160c0,26.7,9.3,49.3,28,68s41.3,28,68,28h160V44H1236z"/>
</svg>
