<svg xmlns="http://www.w3.org/2000/svg" x="0px" y="0px" viewBox="596 -596 1792 1792" style="enable-background:new 596 -596 1792 1792;">
<path d="M1880-528c-18.7-18.7-44-34.7-76-48s-61.3-20-88-20H820c-26.7,0-49.3,9.3-68,28s-28,41.3-28,68v1600c0,26.7,9.3,49.3,28,68
	s41.3,28,68,28h1344c26.7,0,49.3-9.3,68-28c18.7-18.7,28-41.3,28-68V-52c0-26.7-6.7-56-20-88c-13.3-32-29.3-57.3-48-76L1880-528z
	 M1789-438l313,313c8,8,15.3,21.7,22,41h-376v-376C1767.3-453.3,1781-446,1789-438z M852,1068V-468h768v416c0,26.7,9.3,49.3,28,68
	c18.7,18.7,41.3,28,68,28h416v1024H852z M1257,172v107h-90l99,438c3.3,13.3,5.7,28.7,7,46l2,21h4l4-21c0.7-4,1.8-11.2,3.5-21.5
	c1.7-10.3,3.2-18.5,4.5-24.5l144-545h114l144,545c1.3,6,3,14.3,5,25s3.3,17.7,4,21l3,21h4l2-21c1.3-17.3,3.7-32.7,7-46l99-438h-90
	V172h300v107h-70l-164,661h-159l-128-485c-2-6-3.8-14.7-5.5-26c-1.7-11.3-2.8-18-3.5-20l-3-24h-4c0,5.3-0.7,13.3-2,24
	c-2,17.3-5.3,32.7-10,46l-128,485h-159l-164-661h-70V172H1257z"/>
</svg>
