<svg xmlns="http://www.w3.org/2000/svg" x="0px" y="0px" viewBox="596 -596 1792 1792" style="enable-background:new 596 -596 1792 1792;">
<path d="M1684,59v-399h64c17.3,0,32.3-6.3,45-19s19-27.7,19-45s-6.3-32.3-19-45s-27.7-19-45-19h-512c-17.3,0-32.3,6.3-45,19
	c-12.7,12.7-19,27.7-19,45s6.3,32.3,19,45c12.7,12.7,27.7,19,45,19h64V59L797,852c-37.3,59.3-44.5,110.2-21.5,152.5
	c23,42.3,69.8,63.5,140.5,63.5h1152c70.7,0,117.5-21.2,140.5-63.5c23-42.3,15.8-93.2-21.5-152.5L1684,59z M1428,96V59v-399h128V59
	v37l20,31l272,429h-712l272-429L1428,96z"/>
</svg>
