<svg xmlns="http://www.w3.org/2000/svg" x="0px" y="0px" viewBox="596 -596 1792 1792" style="enable-background:new 596 -596 1792 1792;">
<path d="M1284,420h-96c-10.7,0-16-5.3-16-16V180c0-10.7,5.3-16,16-16h96c10.7,0,16,5.3,16,16v224C1300,414.7,1294.7,420,1284,420z
	 M1796,420h-96c-10.7,0-16-5.3-16-16V180c0-10.7,5.3-16,16-16h96c10.7,0,16,5.3,16,16v224C1812,414.7,1806.7,420,1796,420z
	 M2308,420h-96c-10.7,0-16,5.3-16,16v112h-128V-76c0-10.7-5.3-16-16-16h-96c-10.7,0-16,5.3-16,16V36h-128V-76c0-10.7-5.3-16-16-16
	h-96c-10.7,0-16,5.3-16,16V36h-128V-76c0-4-0.8-7.2-2.5-9.5c-1.7-2.3-4.5-4-8.5-5s-7.2-1.7-9.5-2c-2.3-0.3-6.2-0.3-11.5,0
	c-5.3,0.3-8.3,0.5-9,0.5v-133c33.3-8,63.3-12,90-12c12.7,0,31.2,2.5,55.5,7.5c24.3,5,42.5,7.5,54.5,7.5c18,0,38.7-2.2,62-6.5
	s35-11.5,35-21.5v-210c0-10.7-5.3-16-16-16c-4.7,0-17,2.5-37,7.5s-35.7,7.5-47,7.5c-10.7,0-28.8-2.5-54.5-7.5
	c-25.7-5-45.5-7.5-59.5-7.5c-25.3,0-53,3.3-83,10v-17c21.3-10,32-26.7,32-50c0-15.3-5.5-28.3-16.5-39s-23.8-16-38.5-16
	c-14.7,0-27.5,5.3-38.5,16s-16.5,23.7-16.5,39c0,23.3,10.7,40,32,50v391c-0.7,0-3.7-0.2-9-0.5c-5.3-0.3-9.2-0.3-11.5,0
	c-2.3,0.3-5.5,1-9.5,2s-6.8,2.7-8.5,5c-1.7,2.3-2.5,5.5-2.5,9.5V36h-128V-76c0-10.7-5.3-16-16-16h-96c-10.7,0-16,5.3-16,16V36h-128
	V-76c0-10.7-5.3-16-16-16h-96c-10.7,0-16,5.3-16,16v624H788V436c0-10.7-5.3-16-16-16h-96c-10.7,0-16,5.3-16,16v752h640V868
	c0-53.3,18.7-98.7,56-136c37.3-37.3,82.7-56,136-56c53.3,0,98.7,18.7,136,56c37.3,37.3,56,82.7,56,136v320h640V436
	C2324,425.3,2318.7,420,2308,420z"/>
</svg>
