<svg xmlns="http://www.w3.org/2000/svg" x="0px" y="0px" viewBox="596 -596 1792 1792" style="enable-background:new 596 -596 1792 1792;">
<path d="M1012,514V329c135.3-67.3,263.3-106.3,384-117v192C1276.7,413.3,1148.7,450,1012,514z M1012,104V-85
	c141.3-78.7,269.3-120.7,384-126v197C1283.3-9.3,1155.3,30,1012,104z M1935,541c-32.7,0-63-5.7-91-17V336c-13.3-4-26.3-9-39-15
	c-71.3-35.3-137.2-62.7-197.5-82S1483,210,1415,210h-19V-12c17.3-2,33.7-3,49-3c14.7,0,29.3,0.7,44,2c14.7,1.3,27.8,2.7,39.5,4
	c11.7,1.3,24.8,3.8,39.5,7.5c14.7,3.7,26.3,6.5,35,8.5s20.7,6.2,36,12.5s26.2,10.7,32.5,13S1689.3,40,1706,48s27.2,13,31.5,15
	s15.8,7.7,34.5,17s29.7,15,33,17c12.7,6,25.7,11,39,15v224c99.3,30,227.3,6.3,384-71v184C2112.7,510.3,2015,541,1935,541z M1844,112
	V-84c22,5.3,48,8,78,8c91.3,0,193.3-30.3,306-91V22C2070.7,110,1942.7,140,1844,112z M846.5-430.5c-25-25-55.2-37.5-90.5-37.5
	s-65.5,12.5-90.5,37.5S628-375.3,628-340c0,23.3,5.8,44.7,17.5,64s27.2,34.7,46.5,46v1266c0,9.3,3,17,9,23s13.7,9,23,9h64
	c9.3,0,17-3,23-9s9-13.7,9-23V-230c19.3-11.3,34.8-26.7,46.5-46c11.7-19.3,17.5-40.7,17.5-64C884-375.3,871.5-405.5,846.5-430.5z
	 M2325-331c-20.7-12-41.3-12.7-62-2c-6,3.3-16.3,9-31,17c-125.3,74.7-228.7,112-310,112c-34,0-63.7-6.3-89-19
	c-74.7-36.7-144.3-65.3-209-86s-134.3-31-209-31c-48.7,0-100.3,6.3-155,19c-54.7,12.7-105.5,29.2-152.5,49.5s-85,37.7-114,52
	S938.3-191,915-177c-20.7,13.3-31,31.7-31,55v742c0,24.7,10.7,43.3,32,56c10.7,5.3,21.3,8,32,8c12,0,23-3,33-9
	c63.3-38.7,139.5-72.7,228.5-102c89-29.3,167.5-44,235.5-44c38.7,0,76.7,4.7,114,14c37.3,9.3,67.7,19,91,29s56.3,26,99,48l28,14
	c46.7,23.3,99.3,35,158,35c100.7,0,223.7-38.7,369-116c4.7-2.7,10.3-5.7,17-9c23.3-12,35-31,35-57v-763
	C2356-299.3,2345.7-317.7,2325-331z"/>
</svg>
