<svg xmlns="http://www.w3.org/2000/svg" x="0px" y="0px" viewBox="596 -596 1792 1792" style="enable-background:new 596 -596 1792 1792;">
<path d="M1787.4,1119c93-33,175.5-78.2,247.5-135.5c72-57.3,135-122.7,189-196s95.2-152.7,123.5-238c28.3-85.3,41.8-170.3,40.5-255
	c-2.7-210-53-382.5-151-517.5s-235.3-228.2-412-279.5c91.3,74,161.2,168.7,209.5,284c48.3,115.3,67.5,229.7,57.5,343
	c-18-47.3-43.7-84.8-77-112.5c-33.3-27.7-79-54.2-137-79.5c30,25.3,56.2,67,78.5,125s34.8,120.8,37.5,188.5s-10.3,131.8-39,192.5
	c-18,35.3-44.8,70-80.5,104s-78.3,63.2-128,87.5c-49.7,24.3-101.2,41.7-154.5,52c-53.3,10.3-109.5,8.3-168.5-6
	s-113.2-41.8-162.5-82.5c83.3,7.3,153.2-2.5,209.5-29.5c56.3-27,104.5-72.2,144.5-135.5c17.3,2,32.8,1.7,46.5-1s24.2-6.2,31.5-10.5
	s13.3-9.5,18-15.5s7.5-10.2,8.5-12.5s1.8-4.2,2.5-5.5c6-24-0.5-45.7-19.5-65s-48.8-30.3-89.5-33c-24.7-1.3-49.2,4.5-73.5,17.5
	c-24.3,13-52.2,28-83.5,45c-31.3,17-64,28.5-98,34.5c-27.3,4.7-54.3,2.5-81-6.5c-26.7-9-48.5-22.8-65.5-41.5s-29-40.8-36-66.5
	s-4.5-52.8,7.5-81.5l139,67l-15-189c37.3-6.7,71-18,101-34s48.8-27.8,56.5-35.5c7.7-7.7,13.2-13.8,16.5-18.5
	c16.7-23.3,26.8-48.5,30.5-75.5c3.7-27,0.5-42.2-9.5-45.5c-5.3-0.7-22.2-1.7-50.5-3c-28.3-1.3-51-2.7-68-4s-38-3.8-63-7.5
	s-45.8-8.2-62.5-13.5c-4.7-40,14.8-94.5,58.5-163.5c43.7-69,83.5-118.5,119.5-148.5c-77.3,1.3-155.5,21-234.5,59
	s-132.5,84-160.5,138c-8.7-11.3-32-16.5-70-15.5s-60.7,6.2-68,15.5l11-281c-68.7,62-128.3,142.8-179,242.5
	c-50.7,99.7-87.7,203.7-111,312c-23.3,108.3-32,219.2-26,332.5s28.3,213.7,67,301c72,165.3,181.8,298.2,329.5,398.5
	s315.8,150.5,504.5,150.5C1598.2,1168.5,1694.4,1152,1787.4,1119z"/>
</svg>
