<svg xmlns="http://www.w3.org/2000/svg" x="0px" y="0px" viewBox="596 -596 1792 1792" style="enable-background:new 596 -596 1792 1792;">
<path d="M809-468c-23.3,0-43.3,8.3-60,25s-25,36.7-25,60V983c0,23.3,8.3,43.3,25,60s36.7,25,60,25h735V473h-200V241h200V70
	c0-97.3,27.2-172.7,81.5-226c54.3-53.3,126.8-80,217.5-80c76.7,0,136,3,178,9v207l-122,1c-45.3,0-75.8,9.3-91.5,28
	S1784,55.7,1784,93v148h229l-30,232h-199v595h391c23.3,0,43.3-8.3,60-25c16.7-16.7,25-36.7,25-60V-383c0-23.3-8.3-43.3-25-60
	c-16.7-16.7-36.7-25-60-25H809z"/>
</svg>
