<svg xmlns="http://www.w3.org/2000/svg" x="0px" y="0px" viewBox="596 -596 1792 1792" style="enable-background:new 596 -596 1792 1792;">
<path d="M1876-212c-40,0-82.7,13.3-128,40v-328c0-26.7-9.3-49.3-28-68s-41.3-28-68-28h-416c-26.7,0-56,6.7-88,20s-57.3,29.3-76,48
	L664-120c-18.7,18.7-34.7,44-48,76s-20,61.3-20,88v672c0,26.7,9.3,49.3,28,68s41.3,28,68,28h544v288c0,26.7,9.3,49.3,28,68
	c18.7,18.7,41.3,28,68,28h960c26.7,0,49.3-9.3,68-28c18.7-18.7,28-41.3,28-68V-116c0-26.7-9.3-49.3-28-68c-18.7-18.7-41.3-28-68-28
	H1876z M1748,300h-299L1748,1V300z M1108-84H809l299-299V-84z M1256,340c-13.3,32-20,61.3-20,88v256H724V44h416
	c26.7,0,49.3-9.3,68-28c18.7-18.7,28-41.3,28-68v-416h384v416l-316,316C1285.3,282.7,1269.3,308,1256,340z M1364,1068V428h416
	c26.7,0,49.3-9.3,68-28s28-41.3,28-68V-84h384v1152H1364z"/>
</svg>
