<svg xmlns="http://www.w3.org/2000/svg" x="0px" y="0px" viewBox="596 -596 1792 1792" style="enable-background:new 596 -596 1792 1792;">
<path d="M846.5-430.5c-25-25-55.2-37.5-90.5-37.5s-65.5,12.5-90.5,37.5S628-375.3,628-340c0,48,21.3,84.7,64,110v1266
	c0,8.7,3.2,16.2,9.5,22.5s13.8,9.5,22.5,9.5h64c8.7,0,16.2-3.2,22.5-9.5s9.5-13.8,9.5-22.5V-230c42.7-25.3,64-62,64-110
	C884-375.3,871.5-405.5,846.5-430.5z M2337-321c-12.7-12.7-27.7-19-45-19c-8.7,0-26.8,7-54.5,21s-57,29.7-88,47s-67.7,33-110,47
	c-42.3,14-81.5,21-117.5,21c-33.3,0-62.7-6.3-88-19c-84-39.3-157-68.7-219-88s-128.7-29-200-29c-123.3,0-263.7,40-421,120
	c-38.7,19.3-65,33.7-79,43c-20.7,15.3-31,33.7-31,55v742c0,17.3,6.3,32.3,19,45c12.7,12.7,27.7,19,45,19c10.7,0,21.7-3,33-9
	c181.3-97.3,336-146,464-146c48.7,0,96.2,7.3,142.5,22c46.3,14.7,84.8,30.7,115.5,48c30.7,17.3,66.8,33.3,108.5,48
	c41.7,14.7,82.8,22,123.5,22c102.7,0,225.7-38.7,369-116c18-9.3,31.2-18.5,39.5-27.5c8.3-9,12.5-21.8,12.5-38.5v-763
	C2356-293.3,2349.7-308.3,2337-321z"/>
</svg>
