<svg xmlns="http://www.w3.org/2000/svg" x="0px" y="0px" viewBox="596 -596 1792 1792" style="enable-background:new 596 -596 1792 1792;">
<path d="M2168,848c-18.7,18.7-41.3,28-68,28H884c-26.7,0-49.3-9.3-68-28s-28-41.3-28-68v-960c0-26.7,9.3-49.3,28-68s41.3-28,68-28
	h320c26.7,0,49.3,9.3,68,28c18.7,18.7,28,41.3,28,68v64c0,26.7,9.3,49.3,28,68c18.7,18.7,41.3,28,68,28h704c26.7,0,49.3,9.3,68,28
	c18.7,18.7,28,41.3,28,68v704C2196,806.7,2186.7,829.3,2168,848z M2258-82c-44-44-96.7-66-158-66h-672v-32c0-61.3-22-114-66-158
	s-96.7-66-158-66H884c-61.3,0-114,22-158,66s-66,96.7-66,158v960c0,61.3,22,114,66,158s96.7,66,158,66h1216c61.3,0,114-22,158-66
	s66-96.7,66-158V76C2324,14.7,2302-38,2258-82z"/>
</svg>
