<svg xmlns="http://www.w3.org/2000/svg" x="0px" y="0px" viewBox="596 -596 1792 1792" style="enable-background:new 596 -596 1792 1792;">
<path d="M1880-528c-18.7-18.7-44-34.7-76-48s-61.3-20-88-20H820c-26.7,0-49.3,9.3-68,28s-28,41.3-28,68v1600c0,26.7,9.3,49.3,28,68
	s41.3,28,68,28h1344c26.7,0,49.3-9.3,68-28c18.7-18.7,28-41.3,28-68V-52c0-26.7-6.7-56-20-88c-13.3-32-29.3-57.3-48-76L1880-528z
	 M1789-438l313,313c8,8,15.3,21.7,22,41h-376v-376C1767.3-453.3,1781-446,1789-438z M852,1068V-468h768v416c0,26.7,9.3,49.3,28,68
	c18.7,18.7,41.3,28,68,28h416v1024H852z M1108,172c-34.7,0-64.7,12.7-90,38c-25.3,25.3-38,55.3-38,90v384c0,34.7,12.7,64.7,38,90
	s55.3,38,90,38h384c34.7,0,64.7-12.7,90-38c25.3-25.3,38-55.3,38-90V300c0-34.7-12.7-64.7-38-90c-25.3-25.3-55.3-38-90-38H1108z
	 M1972,172c-9.3,0-17,3-23,9l-265,266v90l265,266c6,6,13.7,9,23,9c2.7,0,6.7-0.7,12-2c13.3-5.3,20-15.3,20-30V204
	c0-14.7-6.7-24.7-20-30C1978.7,172.7,1974.7,172,1972,172z"/>
</svg>
