<svg xmlns="http://www.w3.org/2000/svg" x="0px" y="0px" viewBox="596 -596 1792 1792" style="enable-background:new 596 -596 1792 1792;">
<path d="M1832-68.7c-11.3,9-23,13.5-35,13.5h-346c-19.3,0-35.3,6.2-48,18.5c-12.7,12.3-19,28.2-19,47.5v42c0,19.3,6.3,35.3,19,48
	c12.7,12.7,28.7,19,48,19h294c14,0,26.2,6.3,36.5,19c10.3,12.7,14.2,26,11.5,40c-8.7,40.7-21,104.3-37,191c-2,10-8,19.8-18,29.5
	s-22.3,14.5-37,14.5h-239c-22,0-38,2.5-48,7.5s-22.7,16.2-38,33.5l-291,352c-4,4-6,3.7-6-1v-1101c0-13.3,5.2-25.7,15.5-37
	c10.3-11.3,23.2-17,38.5-17h712c14,0,25.7,5.7,35,17s12.3,24.7,9,40l-37,194C1850-87.6,1843.4-77.7,1832-68.7z M2069-479.2
	c-21.3-35.3-63.7-53-127-53h-888c-54.7,0-94.7,15.8-120,47.5c-25.3,31.7-38,65.8-38,102.5v1410c0,50.7,18.3,83.3,55,98
	c8,6,24.2,7.8,48.5,5.5c24.3-2.3,43.8-11.8,58.5-28.5c278.7-323.3,420.7-488,426-494c6-6.7,13.3-10,22-10h271c22,0,41.3-3.3,58-10
	c16.7-6.7,29.5-13.7,38.5-21c9-7.3,17.2-18.3,24.5-33c7.3-14.7,12-25.5,14-32.5s5-17.8,9-32.5c2.7-11.3,14.3-69.2,35-173.5
	s43.8-221,69.5-350c25.7-129,43.5-217.8,53.5-266.5C2093.7-390.9,2090.4-443.9,2069-479.2z M2025.5-53.7
	c-25.7,129-48.8,245.7-69.5,350s-32.3,162.2-35,173.5l158-790C2069-271.6,2051.2-182.7,2025.5-53.7z"/>
</svg>
