<svg xmlns="http://www.w3.org/2000/svg" x="0px" y="0px" viewBox="596 -596 1792 1792" style="enable-background:new 596 -596 1792 1792;">
<path d="M1880-528c-18.7-18.7-44-34.7-76-48s-61.3-20-88-20H820c-26.7,0-49.3,9.3-68,28s-28,41.3-28,68v1600c0,26.7,9.3,49.3,28,68
	s41.3,28,68,28h1344c26.7,0,49.3-9.3,68-28c18.7-18.7,28-41.3,28-68V-52c0-26.7-6.7-56-20-88c-13.3-32-29.3-57.3-48-76L1880-528z
	 M1789-438l313,313c8,8,15.3,21.7,22,41h-376v-376C1767.3-453.3,1781-446,1789-438z M852,1068V-468h768v416c0,26.7,9.3,49.3,28,68
	c18.7,18.7,41.3,28,68,28h416v1024H852z M978,473c-9.3,12.7-9.3,25.3,0,38l226,301c5.3,7.3,12.3,11.5,21,12.5s16.7-1.2,24-6.5l51-38
	c7.3-5.3,11.5-12.3,12.5-21s-1.2-16.7-6.5-24l-182-243l182-243c5.3-7.3,7.5-15.3,6.5-24s-5.2-15.7-12.5-21l-51-38
	c-7.3-5.3-15.3-7.5-24-6.5s-15.7,5.2-21,12.5L978,473z M1780,172c-5.3-7.3-12.3-11.5-21-12.5s-16.7,1.2-24,6.5l-51,38
	c-7.3,5.3-11.5,12.3-12.5,21s1.2,16.7,6.5,24l182,243l-182,243c-5.3,7.3-7.5,15.3-6.5,24s5.2,15.7,12.5,21l51,38
	c7.3,5.3,15.3,7.5,24,6.5s15.7-5.2,21-12.5l226-301c9.3-12.7,9.3-25.3,0-38L1780,172z M1449,944c8.7,1.3,16.7-0.5,24-5.5
	c7.3-5,11.7-11.8,13-20.5l138-831c1.3-8.7-0.5-16.7-5.5-24s-11.8-11.7-20.5-13l-63-10c-8.7-1.3-16.7,0.5-24,5.5
	c-7.3,5-11.7,11.8-13,20.5l-138,831c-1.3,8.7,0.5,16.7,5.5,24s11.8,11.7,20.5,13L1449,944z"/>
</svg>
