<svg xmlns="http://www.w3.org/2000/svg" x="0px" y="0px" viewBox="596 -596 1792 1792" style="enable-background:new 596 -596 1792 1792;">
<path d="M897,985c-12.7,12.7-27.7,19-45,19H724c-17.3,0-32.3-6.3-45-19s-19-27.7-19-45V812c0-17.3,6.3-32.3,19-45s27.7-19,45-19h128
	c17.3,0,32.3,6.3,45,19c12.7,12.7,19,27.7,19,45v128C916,957.3,909.7,972.3,897,985z M897,601c-12.7,12.7-27.7,19-45,19H724
	c-17.3,0-32.3-6.3-45-19c-12.7-12.7-19-27.7-19-45V428c0-17.3,6.3-32.3,19-45s27.7-19,45-19h128c17.3,0,32.3,6.3,45,19
	c12.7,12.7,19,27.7,19,45v128C916,573.3,909.7,588.3,897,601z M897,217c-12.7,12.7-27.7,19-45,19H724c-17.3,0-32.3-6.3-45-19
	s-19-27.7-19-45V44c0-17.3,6.3-32.3,19-45s27.7-19,45-19h128c17.3,0,32.3,6.3,45,19c12.7,12.7,19,27.7,19,45v128
	C916,189.3,909.7,204.3,897,217z M1921,985c-12.7,12.7-27.7,19-45,19h-768c-17.3,0-32.3-6.3-45-19c-12.7-12.7-19-27.7-19-45V428
	c0-17.3,6.3-32.3,19-45c12.7-12.7,27.7-19,45-19h768c17.3,0,32.3,6.3,45,19s19,27.7,19,45v512C1940,957.3,1933.7,972.3,1921,985z
	 M897-167c-12.7,12.7-27.7,19-45,19H724c-17.3,0-32.3-6.3-45-19s-19-27.7-19-45v-128c0-17.3,6.3-32.3,19-45s27.7-19,45-19h128
	c17.3,0,32.3,6.3,45,19c12.7,12.7,19,27.7,19,45v128C916-194.7,909.7-179.7,897-167z M2305,985c-12.7,12.7-27.7,19-45,19h-128
	c-17.3,0-32.3-6.3-45-19c-12.7-12.7-19-27.7-19-45V812c0-17.3,6.3-32.3,19-45c12.7-12.7,27.7-19,45-19h128c17.3,0,32.3,6.3,45,19
	c12.7,12.7,19,27.7,19,45v128C2324,957.3,2317.7,972.3,2305,985z M1921,217c-12.7,12.7-27.7,19-45,19h-768c-17.3,0-32.3-6.3-45-19
	c-12.7-12.7-19-27.7-19-45v-512c0-17.3,6.3-32.3,19-45c12.7-12.7,27.7-19,45-19h768c17.3,0,32.3,6.3,45,19s19,27.7,19,45v512
	C1940,189.3,1933.7,204.3,1921,217z M2305,601c-12.7,12.7-27.7,19-45,19h-128c-17.3,0-32.3-6.3-45-19c-12.7-12.7-19-27.7-19-45V428
	c0-17.3,6.3-32.3,19-45c12.7-12.7,27.7-19,45-19h128c17.3,0,32.3,6.3,45,19c12.7,12.7,19,27.7,19,45v128
	C2324,573.3,2317.7,588.3,2305,601z M2305,217c-12.7,12.7-27.7,19-45,19h-128c-17.3,0-32.3-6.3-45-19c-12.7-12.7-19-27.7-19-45V44
	c0-17.3,6.3-32.3,19-45c12.7-12.7,27.7-19,45-19h128c17.3,0,32.3,6.3,45,19c12.7,12.7,19,27.7,19,45v128
	C2324,189.3,2317.7,204.3,2305,217z M2305-167c-12.7,12.7-27.7,19-45,19h-128c-17.3,0-32.3-6.3-45-19c-12.7-12.7-19-27.7-19-45v-128
	c0-17.3,6.3-32.3,19-45c12.7-12.7,27.7-19,45-19h128c17.3,0,32.3,6.3,45,19c12.7,12.7,19,27.7,19,45v128
	C2324-194.7,2317.7-179.7,2305-167z M2405-485c-31.3-31.3-69-47-113-47H692c-44,0-81.7,15.7-113,47s-47,69-47,113V972
	c0,44,15.7,81.7,47,113s69,47,113,47h1600c44,0,81.7-15.7,113-47c31.3-31.3,47-69,47-113V-372C2452-416,2436.3-453.7,2405-485z"/>
</svg>
