<svg xmlns="http://www.w3.org/2000/svg" x="0px" y="0px" viewBox="596 -596 1792 1792" style="enable-background:new 596 -596 1792 1792;">
<path d="M2041,223l-237,14l224-78c-14-52.7-33.3-99.7-58-141l-213,104l177-159c-30.7-40.7-66.3-76.7-107-108L1669,33l103-214
	c-44-26.7-90.7-46.3-140-59l-78,225l14-237c-25.3-4-50.7-6-76-6c-26,0-51,2-75,6l13,236l-77-224c-48.7,12.7-95.3,32-140,58l103,215
	l-158-178c-40.7,31.3-76.3,67.3-107,108l177,159L1014,18c-26,44.7-45.3,91.3-58,140l225,79l-238-14c-3.3,28-5,53.7-5,77
	c0,22.7,1.7,48,5,76l237-14l-224,79c12.7,48,32,95,58,141l214-104l-178,158c32.7,43.3,68.7,79.3,108,108l157-178l-103,215
	c44,26.7,90.7,46.3,140,59l78-226l-14,238c25.3,4,50.7,6,76,6c25.3,0,50.7-2,76-6l-14-240l79,228c52.7-14.7,99.3-34.3,140-59
	l-103-215l157,178c42-31.3,77.7-67.3,107-108l-177-158l214,103c26-45.3,45.3-92.3,58-141l-224-78l236,14c3.3-20.7,5-46,5-76
	C2046,269.3,2044.3,243.7,2041,223z M1997.5,594.5c-52.3,90.3-123.3,161.7-213,214c-89.7,52.3-187.2,78.5-292.5,78.5
	c-79.3,0-155-15.5-227-46.5s-134.2-72.7-186.5-125C1026.2,663.2,984.7,600.7,954,528c-30.7-72.7-46-148.7-46-228
	c0-80,15.3-156.3,46-229s72.2-135.2,124.5-187.5c52.3-52.3,114.5-94,186.5-125s147.7-46.5,227-46.5c105.3,0,202.8,26.2,292.5,78.5
	s160.7,123.7,213,214c52.3,90.3,78.5,188.8,78.5,295.5C2076,406,2049.8,504.2,1997.5,594.5z M1492-466L835-83v766l657,383l657-383
	V-83L1492-466z M784,711v-823l708-411l708,411v823l-708,412L784,711z M1492-596L724-148v896l768,448l768-448v-896L1492-596z"/>
</svg>
