<svg xmlns="http://www.w3.org/2000/svg" x="0px" y="0px" viewBox="596 -596 1792 1792" style="enable-background:new 596 -596 1792 1792;">
<path d="M2451,297c-17.3-23.3-113-54.3-287-93l-352-32l-224-64h-64l-293-352h69c17.3,0,32.3-1.5,45-4.5c12.7-3,19-6.8,19-11.5
	s-6.3-8.5-19-11.5c-12.7-3-27.7-4.5-45-4.5h-96h-160h-64v32h64v416H884L692-52h-96l-32,32v192h32v32h128v8l-192,24v128l192,24v8H596
	v32h-32v192l32,32h96l192-224h160v416h-64v32h64h160h96c17.3,0,32.3-1.5,45-4.5c12.7-3,19-6.8,19-11.5s-6.3-8.5-19-11.5
	c-12.7-3-27.7-4.5-45-4.5h-69l293-352h64l224-64l352-32c191.3-42.7,287.3-74.7,288-96L2451,297z"/>
</svg>
