<svg xmlns="http://www.w3.org/2000/svg" x="0px" y="0px" viewBox="596 -596 1792 1792" style="enable-background:new 596 -596 1792 1792;">
<path d="M1236-212v-128h128v128H1236z M1364-84v-128h128v128H1364z M1236,44V-84h128V44H1236z M1364,172V44h128v128H1364z M1880-528
	c-18.7-18.7-44-34.7-76-48s-61.3-20-88-20H820c-26.7,0-49.3,9.3-68,28s-28,41.3-28,68v1600c0,26.7,9.3,49.3,28,68s41.3,28,68,28
	h1344c26.7,0,49.3-9.3,68-28c18.7-18.7,28-41.3,28-68V-52c0-26.7-6.7-56-20-88c-13.3-32-29.3-57.3-48-76L1880-528z M1789-438
	l313,313c8,8,15.3,21.7,22,41h-376v-376C1767.3-453.3,1781-446,1789-438z M852,1068V-468h512v128h128v-128h128v416
	c0,26.7,9.3,49.3,28,68c18.7,18.7,41.3,28,68,28h416v1024H852z M1482,313c-11.3-8.7-24.3-13-39-13h-79V172h-128v128
	c-66,222-106,354-120,396c-5.3,18-8,35.3-8,52c0,55.3,24.2,101.2,72.5,137.5S1290,940,1364,940s135.2-18.2,183.5-54.5
	c48.3-36.3,72.5-82.2,72.5-137.5c0-16.7-2.7-34-8-52l-107-349C1501,333,1493.3,321.7,1482,313z M1273.5,793
	c-25-12.7-37.5-27.7-37.5-45s12.5-32.3,37.5-45s55.2-19,90.5-19c35.3,0,65.5,6.3,90.5,19s37.5,27.7,37.5,45s-12.5,32.3-37.5,45
	s-55.2,19-90.5,19C1328.7,812,1298.5,805.7,1273.5,793z"/>
</svg>
