<svg xmlns="http://www.w3.org/2000/svg" x="0px" y="0px" viewBox="596 -596 1792 1792" style="enable-background:new 596 -596 1792 1792;">
<path d="M1935,541c-38,0-71.7-7.3-101-22l-28-14c-36.7-18-64.2-31.2-82.5-39.5s-44-18.7-77-31c-33-12.3-65.7-21-98-26
	c-32.3-5-66.8-7.5-103.5-7.5c-125.3,0-269.7,37.7-433,113V-85c153.3-84.7,287.7-127,403-127c62.7,0,122,9.2,178,27.5
	s117.3,43.8,184,76.5c42,21.3,90.3,32,145,32c91.3,0,193.3-30.3,306-91v616C2112.7,510.3,2015,541,1935,541z M846.5-430.5
	c-25-25-55.2-37.5-90.5-37.5s-65.5,12.5-90.5,37.5S628-375.3,628-340c0,23.3,5.8,44.7,17.5,64s27.2,34.7,46.5,46v1266
	c0,9.3,3,17,9,23s13.7,9,23,9h64c9.3,0,17-3,23-9s9-13.7,9-23V-230c19.3-11.3,34.8-26.7,46.5-46c11.7-19.3,17.5-40.7,17.5-64
	C884-375.3,871.5-405.5,846.5-430.5z M2325-331c-20.7-12-41.3-12.7-62-2c-6,3.3-16.3,9-31,17c-125.3,74.7-228.7,112-310,112
	c-34,0-63.7-6.3-89-19c-74.7-36.7-144.3-65.3-209-86s-134.3-31-209-31c-48.7,0-100.3,6.3-155,19c-54.7,12.7-105.5,29.2-152.5,49.5
	s-85,37.7-114,52S938.3-191,915-177c-20.7,13.3-31,31.7-31,55v742c0,24.7,10.7,43.3,32,56c10.7,5.3,21.3,8,32,8c12,0,23-3,33-9
	c63.3-38.7,139.5-72.7,228.5-102c89-29.3,167.5-44,235.5-44c38.7,0,76.7,4.7,114,14c37.3,9.3,67.7,19,91,29s56.3,26,99,48l28,14
	c46.7,23.3,99.3,35,158,35c100.7,0,223.7-38.7,369-116c4.7-2.7,10.3-5.7,17-9c23.3-12,35-31,35-57v-763
	C2356-299.3,2345.7-317.7,2325-331z"/>
</svg>
