<svg xmlns="http://www.w3.org/2000/svg" x="0px" y="0px" viewBox="596 -596 1792 1792" style="enable-background:new 596 -596 1792 1792;">
<path d="M1880-528c-18.7-18.7-44-34.7-76-48s-61.3-20-88-20H820c-26.7,0-49.3,9.3-68,28s-28,41.3-28,68v1600c0,26.7,9.3,49.3,28,68
	s41.3,28,68,28h1344c26.7,0,49.3-9.3,68-28c18.7-18.7,28-41.3,28-68V-52c0-26.7-6.7-56-20-88c-13.3-32-29.3-57.3-48-76L1880-528z
	 M1789-438l313,313c8,8,15.3,21.7,22,41h-376v-376C1767.3-453.3,1781-446,1789-438z M852,1068V-468h768v416c0,26.7,9.3,49.3,28,68
	c18.7,18.7,41.3,28,68,28h416v1024H852z M1472,237c8-46,12.7-110,14-192V15c0-3.3-0.3-6-1-8c1.3-1.3,2.7-4,4-8c6-31.3,3-54-9-68
	c-8-10-19.7-15-35-15h-1h-21c-20.7,0-34.7,13.3-42,40c-8.7,33.3-10.8,75.8-6.5,127.5c4.3,51.7,14.5,104.8,30.5,159.5
	c-24,84-58.7,171.3-104,262c-36.7,74.7-72.3,140.3-107,197c0-1.3-0.7-2.7-2-4c-6-10-13.7-12-23-6c-56.7,30-100.7,62.2-132,96.5
	s-50,64.8-56,91.5c-2.7,17.3-0.7,29.3,6,36c3.3,2.7,5.3,4.3,6,5l24,12c8.7,4.7,18,7,28,7c59.3,0,140-87.3,242-262
	c114-39.3,244.7-67,392-83c42,22,85.3,39.7,130,53c44.7,13.3,83,20,115,20c43.3,0,67-12.7,71-38v-1l2-2c0.7-0.7,1-1.3,1-2
	c9.3-20,8.7-37.3-2-52c-20-32.7-79-49-177-49c-38.7,0-77.7,2.3-117,7c-34-20-62-38.7-84-56C1557.3,425.7,1508.7,346.3,1472,237z
	 M1091.5,812c24.3-29.3,53.5-57.3,87.5-84c-56.7,89.3-102.3,142-137,158C1050.7,866,1067.2,841.3,1091.5,812z M1440-36
	c0.7-0.7,1-1.3,1-2c8,9.3,12.3,21.3,13,36c0,0.7,0.2,1.2,0.5,1.5c0.3,0.3,0.5,0.8,0.5,1.5s0.3,1.3,1,2c-2,2.7-3.3,5.3-4,8
	c-4.7,26.7-7,41-7,43c-4,24.7-6.3,39.3-7,44c-8.7-60-8-104,2-132V-36z M1361,544c37.3-74,65-139.7,83-197
	c34,72.7,76.3,131.3,127,176c3.3,3.3,8.7,7.8,16,13.5c7.3,5.7,11.7,8.8,13,9.5c-99.3,18-194,45-284,81C1326,609,1341,581.3,1361,544
	z M1964,614c-2.7,0.7-8.7,1-18,1c-32,0-73.3-9.3-124-28c77.3,0,124,8,140,24C1963.3,612.3,1964,613.3,1964,614z"/>
</svg>
