<svg xmlns="http://www.w3.org/2000/svg" x="0px" y="0px" viewBox="596 -596 1792 1792" style="enable-background:new 596 -596 1792 1792;">
<path d="M1539.5,579c-67.7,70-156.5,105-266.5,105c-106.7,0-197.3-37.5-272-112.5S889,406,889,300s37.3-196.5,112-271.5
	S1166.3-84,1273-84c99.3,0,185,33.3,257,100l-104,101c-40.7-39.3-91.7-59-153-59c-66,0-122.3,23.7-169,71s-70,104.3-70,171
	s23.3,123.7,70,171s103,71,169,71c36,0,68.2-5.8,96.5-17.5c28.3-11.7,50.5-26.5,66.5-44.5s28.5-35.7,37.5-53c9-17.3,14.5-34,16.5-50
	h-217V245h362c4,25.3,6,46.7,6,64C1641,419,1607.2,509,1539.5,579z M1986,465h-110V355h-110V245h110V135h110v110h109v110h-109V465z
	 M2175.5-383.5c-56.3-56.3-124.2-84.5-203.5-84.5h-960c-79.3,0-147.2,28.2-203.5,84.5S724-259.3,724-180v960
	c0,79.3,28.2,147.2,84.5,203.5c56.3,56.3,124.2,84.5,203.5,84.5h960c79.3,0,147.2-28.2,203.5-84.5c56.3-56.3,84.5-124.2,84.5-203.5
	v-960C2260-259.3,2231.8-327.2,2175.5-383.5z"/>
</svg>
