<svg xmlns="http://www.w3.org/2000/svg" x="0px" y="0px" viewBox="596 -596 1792 1792" style="enable-background:new 596 -596 1792 1792;">
<path d="M1148,233c-10.7-14.7-18.8-34.3-24.5-59s-3.7-53,6-85s29.8-58.3,60.5-79c27.3-17.3,55.3-25.8,84-25.5
	c28.7,0.3,53.2,6.2,73.5,17.5c20.3,11.3,38.5,26.3,54.5,45c24,26.7,55.7,40,95,40c40,0,72-13.3,96-40c16-18.7,34.2-33.7,54.5-45
	c20.3-11.3,44.8-17.2,73.5-17.5s56.3,8.2,83,25.5c31.3,20.7,51.8,47,61.5,79s11.7,60.3,6,85s-13.8,44.3-24.5,59l-350,473L1148,233z
	 M2157-85.5c-68.7-117.7-161.8-210.8-279.5-279.5S1631.3-468,1492-468s-267.8,34.3-385.5,103S895.7-203.2,827-85.5
	S724,160.7,724,300s34.3,267.8,103,385.5S988.8,896.3,1106.5,965s246.2,103,385.5,103s267.8-34.3,385.5-103s210.8-161.8,279.5-279.5
	c68.7-117.7,103-246.2,103-385.5S2225.7,32.2,2157-85.5z"/>
</svg>
