<svg xmlns="http://www.w3.org/2000/svg" x="0px" y="0px" viewBox="596 -596 1792 1792" style="enable-background:new 596 -596 1792 1792;">
<path d="M1449.5-145.5c-10.7,51.3-26.7,128.5-48,231.5c-21.3,103-37.3,180.2-48,231.5c-1.3,6.7-3.7,12-7,16c-3.3,4-8.3,6.8-15,8.5
	c-6.7,1.7-12,2.7-16,3s-10.7,0.3-20,0c-9.3-0.3-15.3-0.5-18-0.5c-31.3,0-58.5-7.8-81.5-23.5s-40.5-36.5-52.5-62.5
	s-20.8-52.8-26.5-80.5s-8.5-56.2-8.5-85.5c0-91.3,18-181.2,54-269.5s89-151.8,159-190.5c26-15.3,52-23,78-23
	c15.3,0,27.8,2.5,37.5,7.5c9.7,5,16.7,12.7,21,23c4.3,10.3,7.2,20.3,8.5,30c1.3,9.7,2,22.5,2,38.5
	C1468.5-254.8,1462.2-206.2,1449.5-145.5z M2161.5,248c-40.7-63.7-67.3-97.8-80-102.5c-20.7-8.7-38.3-13-53-13
	c-57.3,0-113.2,10.3-167.5,31s-115.2,50-182.5,88l-3-3c3.3-24,17.7-94.3,43-211c25.3-116.7,38-207.7,38-273c0-240-124.7-360-374-360
	c-36,0-71.3,3-106,9C1203.2-573.8,1135-544,1072-497S957-394.2,916-329.5s-73,134.7-96,210s-34.5,149-34.5,221
	c0,150.7,41.7,266.8,125,348.5s200.7,122.5,352,122.5c-2.7,0-0.7-0.2,6-0.5c6.7-0.3,10-0.5,10-0.5h10c3.3,0,6.2,0.5,8.5,1.5
	c2.3,1,3.5,2.2,3.5,3.5v9c-3.3,28-8.7,58-16,90c-7.3,32-18.2,67.7-32.5,107c-14.3,39.3-30.3,74.5-48,105.5s-39.8,57-66.5,78
	s-55,31.5-85,31.5c-21.3,0-37.5-6.7-48.5-20s-16.5-31-16.5-53c0-25.3,5.3-50,16-74c10.7-24,23.7-44.3,39-61s30.7-31.5,46-44.5
	s28.5-23.3,39.5-31s16.5-11.8,16.5-12.5c-0.7-18.7-28.3-39.2-83-61.5c-54.7-22.3-94.7-33.5-120-33.5c-36,0-68.5,17.5-97.5,52.5
	s-50,73.8-63,116.5s-19.5,81.7-19.5,117c0,90.7,26.5,163.8,79.5,219.5s124.5,83.5,214.5,83.5c64,0,125.7-15.7,185-47
	c59.3-31.3,110.8-72.3,154.5-123c43.7-50.7,81.2-105.5,112.5-164.5c31.3-59,54.7-118.8,70-179.5c5.3-20.7,12.8-54.2,22.5-100.5
	c9.7-46.3,17.8-81.5,24.5-105.5c4-12.7,11-21.7,21-27c122.7-62,239.7-93,351-93c20.7,0,41.7,1.5,63,4.5c21.3,3,45.3,7.2,72,12.5
	c26.7,5.3,47.3,9,62,11l6,1c5.3,0,10.5-2.2,15.5-6.5s7.5-8.8,7.5-13.5C2222.5,350.5,2202.2,311.7,2161.5,248z"/>
</svg>
