<svg xmlns="http://www.w3.org/2000/svg" x="0px" y="0px" viewBox="596 -596 1792 1792" style="enable-background:new 596 -596 1792 1792;">
<path d="M859,304l454-454l127,128l-87,87l-40-40l-279,279l279,279l96-96l-192-191l88-88l279,279l-271,271L859,304z M1544,623l87-88
	l40,40l279-279L1671,17l-96,96l192,191l-88,88l-279-279l271-271l454,454l-454,454L1544,623z M2317-48c-47.3-110.7-111-206-191-286
	s-175.3-143.7-286-191s-226.7-71-348-71c-121.3,0-237.3,23.7-348,71c-110.7,47.3-206,111-286,191S714.3-158.7,667-48
	s-71,226.7-71,348s23.7,237.3,71,348s111,206,191,286s175.3,143.7,286,191s226.7,71,348,71c121.3,0,237.3-23.7,348-71
	s206-111,286-191s143.7-175.3,191-286c47.3-110.7,71-226.7,71-348S2364.3,62.7,2317-48z"/>
</svg>
