<svg xmlns="http://www.w3.org/2000/svg" x="0px" y="0px" viewBox="596 -596 1792 1792" style="enable-background:new 596 -596 1792 1792;">
<path d="M1993,582.5c-6-6.3-13.7-9.5-23-9.5h-162c-9.3,0-17,3.2-23,9.5c-6,6.3-9,13.8-9,22.5v181h-414V407h305
	c8.7,0,16.2-3.2,22.5-9.5c6.3-6.3,9.5-13.8,9.5-22.5V244c0-9.3-3.2-17-9.5-23c-6.3-6-13.8-9-22.5-9h-305V-3c0-50.7,17.3-91.7,52-123
	s80.3-47,137-47c30,0,61,6,93,18s55,22.7,69,32s22.7,15.7,26,19c6.7,6,14.3,8.3,23,7c8.7-0.7,16-4.7,22-12l103-127
	c5.3-6.7,7.7-14.2,7-22.5c-0.7-8.3-4-15.2-10-20.5c-100-83.3-211.7-125-335-125c-127.3,0-232.2,37-314.5,111S1111-125,1111-11v223
	h-95c-9.3,0-17,3-23,9s-9,13.7-9,23v131c0,8.7,3,16.2,9,22.5s13.7,9.5,23,9.5h95v383h-97c-8.7,0-16.2,3.2-22.5,9.5
	S982,813.3,982,822v150c0,9.3,3,17,9,23s13.7,9,23,9h956c9.3,0,17-3,23-9s9-13.7,9-23V605C2002,596.3,1999,588.8,1993,582.5z"/>
</svg>
