<svg xmlns="http://www.w3.org/2000/svg" x="0px" y="0px" viewBox="596 -596 1792 1792" style="enable-background:new 596 -596 1792 1792;">
<path d="M1904-68c-5.3,12-16.7,18.8-34,20.5s-30.7-3.2-40-14.5c-7.3-12-9-24.7-5-38s12.7-22.8,26-28.5s25-2.8,35,8.5
	C1903.3-97.3,1909.3-80,1904-68z M1497,107c0-7.3-2.3-13.3-7-18c-5.3-5.3-11.8-8-19.5-8c-7.7,0-13.8,2.7-18.5,8
	c-5.3,4.7-8,10.7-8,18s2.7,13.7,8,19c4.7,5.3,10.8,8,18.5,8c7.7,0,14.2-2.7,19.5-8C1494.7,120.7,1497,114.3,1497,107z M1667,170.5
	c0-11.7-4-21.5-12-29.5l-38-39c-8.7-8-18.8-12-30.5-12c-11.7,0-21.5,4-29.5,12l-35,35c-8,8.7-12,18.7-12,30s4,21.3,12,30l38,38
	c8.7,8.7,18.8,13,30.5,13c11.7,0,21.5-4.3,29.5-13l35-35C1663,192,1667,182.2,1667,170.5z M1554,51c0-7.3-2.7-13.7-8-19
	c-5.3-5.3-11.7-8-19-8c-7.3,0-13.7,2.7-19,8c-4.7,5.3-7,11.7-7,19s2.3,13.7,7,19c5.3,5.3,11.8,8,19.5,8c7.7,0,13.8-2.7,18.5-8
	C1551.3,64.7,1554,58.3,1554,51z M1958.5-52c2.3-8,4-15.3,5-22s0.7-13.7-1-21s-3-13.5-4-18.5s-3.8-11-8.5-18s-8-12.2-10-15.5
	s-6.2-8.5-12.5-15.5s-10.7-11.5-13-13.5s-7.2-6.5-14.5-13.5s-11.7-11.2-13-12.5c-25.3-24-48.7-41-70-51s-44.8-11.7-70.5-5
	s-50.8,24.3-75.5,53s-37.7,59.3-39,92c-1.3,32.7,5.7,61.8,21,87.5s35.7,47.8,61,66.5c36,25.3,78.5,30.8,127.5,16.5
	S1926.3,14.7,1949-28C1953-36,1956.2-44,1958.5-52z M2104,497c-42,2-97.7-24.7-167-80c-71.3-56.7-122.7-116-154-178
	c-18,37.3-46.7,77.2-86,119.5s-87.7,80.8-145,115.5c-20.7,64-61.5,140.2-122.5,228.5S1305,864.7,1239,924s-114,80.7-144,64
	c-12.7-7.3-21.2-16.3-25.5-27s-4.2-23.3,0.5-38s10.2-28.3,16.5-41s16.5-28,30.5-46s25.2-32,33.5-42c8.3-10,19.8-23,34.5-39
	c1.3,17.3,13.7,44,37,80c-6-20-9.3-41-10-63c-0.7-22,1.5-44.2,6.5-66.5c5-22.3,10.7-43.3,17-63c6.3-19.7,14.7-40,25-61
	c10.3-21,19.2-38.3,26.5-52c7.3-13.7,16-28.8,26-45.5s16.3-27.3,19-32l13-6c8.7-4,17.7-13,27-27c9.3-14,14.3-30.7,15-50
	c3.3-77.3-30.3-150.3-101-219c26.7,32,40,82,40,150c0,35.3-2.3,65.3-7,90c-5.3,27.3-12.7,38.7-22,34c-8.7,0-16.5,0.2-23.5,0.5
	s-15.7,1.7-26,4c-10.3,2.3-19.5,4.3-27.5,6s-21.3,5-40,10c-18.7,5-35.7,9.2-51,12.5c11.3-0.7,22.3,0.5,33,3.5
	c10.7,3,17.5,5.5,20.5,7.5s5.2,3.7,6.5,5c-12.7,20-31,40.2-55,60.5c-24,20.3-49.7,36.8-77,49.5c-28,11.3-49.2,13.3-63.5,6
	c-14.3-7.3-21.5-20.7-21.5-40c0-19.3,7-37.3,21-54c10-12,20-22,30-30c-6.7-7.3-10.3-16.3-11-27c-10.7-47.3,14.3-101.5,75-162.5
	c60.7-61,121-102.8,181-125.5l33-46c22.7-31.3,50.8-65.2,84.5-101.5c33.7-36.3,62.2-59.8,85.5-70.5c14.7-14.7,30.3-26.7,47-36
	c-20-35.3-36.2-76.2-48.5-122.5c-12.3-46.3-18.7-85.3-19-117c-0.3-31.7,1.8-56.8,6.5-75.5c-1.3,2-2.7,4.3-4,7
	c8.7-19.3,21.2-32.7,37.5-40c16.3-7.3,32-8.5,47-3.5s25.8,14.5,32.5,28.5c8.7,18.7,13,44.7,13,78l-13,1c-8.7,0.7-20.7,5.3-36,14
	c-15.3,8.7-29.3,21-42,37c26-12.7,55.7-19,89-19c8.7,7.3,18.3,18,29,32c-40,76-50.7,150-32,222c9.3,37.3,28.3,66.7,57,88
	s58,33.3,88,36c-20.7-10-39.5-24-56.5-42S1635-19.3,1623-44s-16.8-53.7-14.5-87c2.3-33.3,13.5-67,33.5-101
	c18.7-32.7,46-57.5,82-74.5s74-23.2,114-18.5c56,6.7,101.7,32.2,137,76.5s49.7,94.5,43,150.5c-4,33.3-15.3,63.7-34,91
	s-42.3,49-71,65l3,10c2,6.7,2.8,16.8,2.5,30.5s-2.5,27.2-6.5,40.5c24,30,35.3,60,34,90l-12-1c-8-0.7-19,0.8-33,4.5
	s-27.3,9.8-40,18.5c46-10.7,83.7-6.8,113,11.5s57.3,51.2,84,98.5c4,6.7,11.7,13.3,23,20c11.3,6.7,22.3,12.3,33,17
	c10.7,4.7,19.8,11.8,27.5,21.5c7.7,9.7,10.5,21.2,8.5,34.5C2145.3,481.3,2130,495.7,2104,497z M2318-48c-47.3-110.7-111-206-191-286
	s-175.5-143.7-286.5-191s-227.2-71-348.5-71c-121.3,0-237.5,23.7-348.5,71S937-414,857-334S713.3-158.7,666-48s-71,226.7-71,348
	s23.7,237.3,71,348s111,206,191,286s175.5,143.7,286.5,191s227.2,71,348.5,71c121.3,0,237.5-23.7,348.5-71S2047,1014,2127,934
	s143.7-175.3,191-286c47.3-110.7,71-226.7,71-348S2365.3,62.7,2318-48z"/>
</svg>
