<svg xmlns="http://www.w3.org/2000/svg" x="0px" y="0px" viewBox="596 -596 1792 1792" style="enable-background:new 596 -596 1792 1792;">
<path d="M1539.5,579c-67.7,70-156.5,105-266.5,105c-106.7,0-197.3-37.5-272-112.5S889,406,889,300s37.3-196.5,112-271.5
	S1166.3-84,1273-84c99.3,0,185,33.3,257,100l-104,101c-40-39.3-91-59-153-59c-66,0-122.3,23.8-169,71.5S1034,234,1034,300
	s23.3,122.8,70,170.5c46.7,47.7,103,71.5,169,71.5c53.3,0,100.8-14.8,142.5-44.5c41.7-29.7,66.5-69.8,74.5-120.5h-217V245h362
	c4,20.7,6,42,6,64C1641,419,1607.2,509,1539.5,579z M1986,465h-110V355h-110V245h110V135h110v110h109v110h-109V465z M2157-85.5
	c-68.7-117.7-161.8-210.8-279.5-279.5S1631.3-468,1492-468s-267.8,34.3-385.5,103S895.7-203.2,827-85.5S724,160.7,724,300
	s34.3,267.8,103,385.5S988.8,896.3,1106.5,965s246.2,103,385.5,103s267.8-34.3,385.5-103s210.8-161.8,279.5-279.5
	c68.7-117.7,103-246.2,103-385.5S2225.7,32.2,2157-85.5z"/>
</svg>
