<svg xmlns="http://www.w3.org/2000/svg" x="0px" y="0px" viewBox="596 -596 1792 1792" style="enable-background:new 596 -596 1792 1792;">
<path d="M1507.5,454h436c-4,24.7-11.5,50.7-22.5,78c-11,27.3-28.2,56.3-51.5,87c-23.3,30.7-50.7,58-82,82s-71.3,44-120,60
	c-48.7,16-102,24-160,24c-86,0-165.5-21.7-238.5-65c-73-43.3-130.8-102.2-173.5-176.5s-64-155.5-64-243.5s21.3-169.2,64-243.5
	S1196-76.7,1269-120c73-43.3,152.5-65,238.5-65c122,0,224,39.7,306,119l209-201c-143.3-134-315-201-515-201
	c-104.7,0-204.3,20.2-299,60.5c-94.7,40.3-176.3,94.8-245,163.5S840.3-93.7,800,1s-60.5,194.3-60.5,299s20.2,204.3,60.5,299
	s94.8,176.3,163.5,245s150.3,123.2,245,163.5c94.7,40.3,194.3,60.5,299,60.5c145.3,0,274.2-32,386.5-96s198.8-152.8,259.5-266.5
	c60.7-113.7,91-242.8,91-387.5c0-40.7-4-83.3-12-128h-725V454z"/>
</svg>
