<svg xmlns="http://www.w3.org/2000/svg" x="0px" y="0px" viewBox="596 -596 1792 1792" style="enable-background:new 596 -596 1792 1792;">
<path d="M1765,195h-692v252h416c-4,23.3-11.2,48-21.5,74s-26.7,53.7-49,83c-22.3,29.3-48.5,55.5-78.5,78.5s-68.2,42.2-114.5,57.5
	c-46.3,15.3-97.2,23-152.5,23c-82,0-157.8-20.7-227.5-62c-69.7-41.3-124.8-97.5-165.5-168.5c-40.7-71-61-148.5-61-232.5
	s20.3-161.5,61-232.5c40.7-71,95.8-127.2,165.5-168.5c69.7-41.3,145.5-62,227.5-62c116.7,0,214,37.7,292,113l199-191
	c-136.7-128-300.3-192-491-192c-99.3,0-194.3,19.3-285,58s-168.7,90.7-234,156S436.7-75.7,398,15s-58,185.7-58,285
	s19.3,194.3,58,285s90.7,168.7,156,234s143.3,117.3,234,156s185.7,58,285,58c138.7,0,261.7-30.5,369-91.5s190-145.7,248-254
	s87-231.8,87-370.5C1777,277.7,1773,237,1765,195z M2435,195V-14h-210v209h-209v210h209v209h210V405h209V195H2435z"/>
</svg>
