<svg xmlns="http://www.w3.org/2000/svg" x="0px" y="0px" viewBox="596 -596 1792 1792" style="enable-background:new 596 -596 1792 1792;">
<path d="M1355,387c-6,6-13.7,9-23,9h-192v192c0,9.3-3,17-9,23s-13.7,9-23,9H980c-9.3,0-17-3-23-9s-9-13.7-9-23V396H756
	c-9.3,0-17-3-23-9s-9-13.7-9-23V236c0-9.3,3-17,9-23s13.7-9,23-9h192V12c0-9.3,3-17,9-23s13.7-9,23-9h128c9.3,0,17,3,23,9
	s9,13.7,9,23v192h192c9.3,0,17,3,23,9s9,13.7,9,23v128C1364,373.3,1361,381,1355,387z M1902.5,518.5c-25,25-55.2,37.5-90.5,37.5
	s-65.5-12.5-90.5-37.5S1684,463.3,1684,428s12.5-65.5,37.5-90.5s55.2-37.5,90.5-37.5s65.5,12.5,90.5,37.5s37.5,55.2,37.5,90.5
	S1927.5,493.5,1902.5,518.5z M2158.5,262.5c-25,25-55.2,37.5-90.5,37.5c-35.3,0-65.5-12.5-90.5-37.5S1940,207.3,1940,172
	s12.5-65.5,37.5-90.5S2032.7,44,2068,44c35.3,0,65.5,12.5,90.5,37.5s37.5,55.2,37.5,90.5S2183.5,237.5,2158.5,262.5z M2302-62
	c-100-100-220.7-150-362-150h-896c-141.3,0-262,50-362,150S532,158.7,532,300s50,262,150,362s220.7,150,362,150
	c128,0,240.7-42.7,338-128h220c97.3,85.3,210,128,338,128c141.3,0,262-50,362-150s150-220.7,150-362S2402,38,2302-62z"/>
</svg>
