<svg xmlns="http://www.w3.org/2000/svg" x="0px" y="0px" viewBox="596 -596 1792 1792" style="enable-background:new 596 -596 1792 1792;">
<path d="M1353,480.5c-50,50-110.3,75-181,75c-70.7,0-131-25-181-75s-75-110.3-75-181s25-131,75-181s110.3-75,181-75
	c70.7,0,131,25,181,75s75,110.3,75,181S1403,430.5,1353,480.5z M2158.5,902c-25,25-55.2,37.5-90.5,37.5c-35.3,0-65.5-12.5-90.5-37.5
	s-37.5-55.2-37.5-90.5c0-34.7,12.7-64.7,38-90s55.3-38,90-38c34.7,0,64.7,12.7,90,38c25.3,25.3,38,55.3,38,90
	C2196,846.8,2183.5,877,2158.5,902z M2158.5-122c-25,25-55.2,37.5-90.5,37.5c-35.3,0-65.5-12.5-90.5-37.5s-37.5-55.2-37.5-90.5
	c0-34.7,12.7-64.7,38-90s55.3-38,90-38c34.7,0,64.7,12.7,90,38c25.3,25.3,38,55.3,38,90C2196-177.2,2183.5-147,2158.5-122z
	 M1805,189c-4.7-5.7-10.3-9.2-17-10.5l-152-23c-7.3-22.7-18.7-50-34-82c10-14.7,25-34.7,45-60s34-43.3,42-54c4.7-6.7,7-13,7-19
	c0-18-48-71.3-144-160c-6.7-5.3-13.7-8-21-8c-8,0-14.7,2.3-20,7l-118,89c-27.3-14-52.3-24.3-75-31l-23-153c-0.7-6.7-4-12.5-10-17.5
	s-12.7-7.5-20-7.5h-186c-15.3,0-25.3,8-30,24c-8,30.7-15.7,82-23,154c-28.7,9.3-54.3,20-77,32l-115-90c-6.7-4.7-13.7-7-21-7
	c-12.7,0-39,19.7-79,59s-67.3,69-82,89c-4.7,5.3-7,12-7,20c0,6,2.3,12.7,7,20c37.3,44.7,67.3,83,90,115c-14,27.3-24.7,52.7-32,76
	l-155,24c-6,0.7-11.3,4.2-16,10.5s-7,12.8-7,19.5v185c0,7.3,2.3,13.8,7,19.5s10.3,8.8,17,9.5l152,24c8,25.3,19.7,52.7,35,82
	c-10.7,14.7-26.3,35-47,61s-34.3,43.7-41,53c-4.7,6.7-7,13-7,19c0,18,48,71.3,144,160c6.7,5.3,13.7,8,21,8c8.7,0,15.3-2.3,20-7
	l118-89c27.3,14,52.3,24.3,75,31l23,153c0.7,6.7,4,12.5,10,17.5s12.7,7.5,20,7.5h186c15.3,0,25.3-8,30-24c8-31.3,15.7-83,23-155
	c26.7-8,52.3-18.3,77-31l115,90c6.7,4.7,13.7,7,21,7c12.7,0,38.8-19.8,78.5-59.5s67.2-69.5,82.5-89.5c4.7-4.7,7-11,7-19
	c0-6.7-2.3-13.3-7-20c-37.3-44.7-67.3-83-90-115c14-27.3,24.7-52.7,32-76l155-24c6-0.7,11.3-4.2,16-10.5s7-12.8,7-19.5v-185
	C1812,201.2,1809.7,194.7,1805,189z M2303,710.5c-8.7-19.3-18.7-36.7-30-52c34-75.3,51-121.3,51-138c0-2.7-1.3-5-4-7
	c-80-46.7-121.3-70-124-70l-6,2c-27.3,27.3-58,64.7-92,112c-13.3-1.3-23.3-2-30-2c-6.7,0-16.7,0.7-30,2c-9.3-14-26.7-36.5-52-67.5
	s-40.7-46.5-46-46.5c-1.3,0-11.3,5.3-30,16s-38.3,22-59,34s-32.3,18.7-35,20c-2.7,2-4,4.3-4,7c0,16.7,17,62.7,51,138
	c-11.3,15.3-21.3,32.7-30,52c-99.3,10-149,20.3-149,31v140c0,10.7,49.7,21,149,31c8,18,18,35.3,30,52c-34,75.3-51,121.3-51,138
	c0,2.7,1.3,5,4,7c81.3,47.3,122.7,71,124,71c5.3,0,20.7-15.7,46-47s42.7-54,52-68c13.3,1.3,23.3,2,30,2c6.7,0,16.7-0.7,30-2
	c9.3,14,26.7,36.7,52,68c25.3,31.3,40.7,47,46,47c1.3,0,42.7-23.7,124-71c2.7-2,4-4.3,4-7c0-16.7-17-62.7-51-138
	c12-16.7,22-34,30-52c99.3-10,149-20.3,149-31v-140C2452,730.8,2402.3,720.5,2303,710.5z M2303-313.5c-8.7-19.3-18.7-36.7-30-52
	c34-75.3,51-121.3,51-138c0-2.7-1.3-5-4-7c-80-46.7-121.3-70-124-70l-6,2c-27.3,27.3-58,64.7-92,112c-13.3-1.3-23.3-2-30-2
	c-6.7,0-16.7,0.7-30,2c-9.3-14-26.7-36.5-52-67.5s-40.7-46.5-46-46.5c-1.3,0-11.3,5.3-30,16s-38.3,22-59,34s-32.3,18.7-35,20
	c-2.7,2-4,4.3-4,7c0,16.7,17,62.7,51,138c-11.3,15.3-21.3,32.7-30,52c-99.3,10-149,20.3-149,31v140c0,10.7,49.7,21,149,31
	c8,18,18,35.3,30,52c-34,75.3-51,121.3-51,138c0,2.7,1.3,5,4,7c81.3,47.3,122.7,71,124,71c5.3,0,20.7-15.7,46-47s42.7-54,52-68
	c13.3,1.3,23.3,2,30,2c6.7,0,16.7-0.7,30-2c9.3,14,26.7,36.7,52,68c25.3,31.3,40.7,47,46,47c1.3,0,42.7-23.7,124-71c2.7-2,4-4.3,4-7
	c0-16.7-17-62.7-51-138c12-16.7,22-34,30-52c99.3-10,149-20.3,149-31v-140C2452-293.2,2402.3-303.5,2303-313.5z"/>
</svg>
