<svg xmlns="http://www.w3.org/2000/svg" x="0px" y="0px" viewBox="596 -596 1792 1792" style="enable-background:new 596 -596 1792 1792;">
<path d="M1808.5,616.5C1720.8,704.2,1615.3,748,1492,748s-228.8-43.8-316.5-131.5S1044,423.3,1044,300s43.8-228.8,131.5-316.5
	S1368.7-148,1492-148s228.8,43.8,316.5,131.5C1896.2,71.2,1940,176.7,1940,300S1896.2,528.8,1808.5,616.5z M2022.5,76.5
	c-30.3-71-71.3-132.3-123-184c-51.7-51.7-113-92.7-184-123S1570-276,1492-276s-152.5,15.2-223.5,45.5s-132.3,71.3-184,123
	c-51.7,51.7-92.7,113-123,184S916,222,916,300s15.2,152.5,45.5,223.5s71.3,132.3,123,184s113,92.7,184,123S1414,876,1492,876
	s152.5-15.2,223.5-45.5s132.3-71.3,184-123c51.7-51.7,92.7-113,123-184c30.3-71,45.5-145.5,45.5-223.5S2052.8,147.5,2022.5,76.5z"/>
</svg>
