<svg xmlns="http://www.w3.org/2000/svg" x="0px" y="0px" viewBox="596 -596 1792 1792" style="enable-background:new 596 -596 1792 1792;">
<path d="M1673,481c-50,50-110.3,75-181,75c-70.7,0-131-25-181-75s-75-110.3-75-181s25-131,75-181s110.3-75,181-75
	c70.7,0,131,25,181,75s75,110.3,75,181S1723,431,1673,481z M2252,167.5c-5.3-7-12.3-11.2-21-12.5l-183-28c-10-32-23.7-64.7-41-98
	c12-16.7,30-40.2,54-70.5s41-52.5,51-66.5c5.3-7.3,8-15,8-23c0-9.3-2.3-16.7-7-22c-24-34-79-90.7-165-170c-8-6.7-16.3-10-25-10
	c-10,0-18,3-24,9l-142,107c-27.3-14-57.3-26.3-90-37l-28-184c-0.7-8.7-4.5-15.8-11.5-21.5s-15.2-8.5-24.5-8.5h-222
	c-19.3,0-31.3,9.3-36,28c-8.7,33.3-18.3,95.3-29,186c-31.3,10-61.7,22.7-91,38l-138-107c-8.7-6.7-17.3-10-26-10
	c-14.7,0-46.2,23.8-94.5,71.5C918.2-213.8,885.3-178,868-154c-6,8.7-9,16.3-9,23c0,8,3.3,16,10,24C913.7-53,949.3-7,976,31
	c-16.7,30.7-29.7,61.3-39,92l-186,28c-7.3,1.3-13.7,5.7-19,13s-8,15-8,23v222c0,8.7,2.7,16.5,8,23.5s12.3,11.2,21,12.5l183,27
	c9.3,32.7,23,65.7,41,99c-12,16.7-30,40.2-54,70.5c-24,30.3-41,52.5-51,66.5c-5.3,7.3-8,15-8,23c0,8.7,2.3,16.3,7,23
	c26,36,81,92,165,168c7.3,7.3,15.7,11,25,11c10,0,18.3-3,25-9l141-107c27.3,14,57.3,26.3,90,37l28,184c0.7,8.7,4.5,15.8,11.5,21.5
	s15.2,8.5,24.5,8.5h222c19.3,0,31.3-9.3,36-28c8.7-33.3,18.3-95.3,29-186c31.3-10,61.7-22.7,91-38l138,108c9.3,6,18,9,26,9
	c14.7,0,46-23.7,94-71s81-83.3,99-108c6-6.7,9-14.3,9-23s-3.3-17-10-25c-48-58.7-83.7-104.7-107-138c13.3-24.7,26.3-55,39-91l185-28
	c8-1.3,14.7-5.7,20-13c5.3-7.3,8-15,8-23V191C2260,182.3,2257.3,174.5,2252,167.5z"/>
</svg>
