<svg xmlns="http://www.w3.org/2000/svg" x="0px" y="0px" viewBox="596 -596 1792 1792" style="enable-background:new 596 -596 1792 1792;">
<path d="M2277-510.5c-12-9-24.7-14.8-38-17.5c-13.3-2.7-27.7-4-43-4H788c-15.3,0-29.7,1.3-43,4s-26,8.5-38,17.5s-18,21.2-18,36.5
	c0,23.3,14.3,49.3,43,78l632,632v768h-320c-17.3,0-32.3,6.3-45,19c-12.7,12.7-19,27.7-19,45s6.3,32.3,19,45c12.7,12.7,27.7,19,45,19
	h896c17.3,0,32.3-6.3,45-19s19-27.7,19-45s-6.3-32.3-19-45c-12.7-12.7-27.7-19-45-19h-320V236l632-632c28.7-28.7,43-54.7,43-78
	C2295-489.3,2289-501.5,2277-510.5z"/>
</svg>
