<svg xmlns="http://www.w3.org/2000/svg" x="0px" y="0px" viewBox="596 -596 1792 1792" style="enable-background:new 596 -596 1792 1792;">
<path d="M1581.5-128.5c-5.7-11-17.8-16.5-36.5-16.5c-15.3,0-32.3,4.7-51,14c-45.3,25.3-79.7,66.7-103,124
	c-23.3,57.3-35,115.3-35,174c0,42.7,8.7,80.5,26,113.5s45.3,49.5,84,49.5c7.3,0,17.7-0.7,31-2c7.3-0.7,11.8-1.5,13.5-2.5
	c1.7-1,3.2-5.2,4.5-12.5c6.7-33.3,16.8-83.3,30.5-150c13.7-66.7,24.2-116.7,31.5-150c8.7-44.7,13-76,13-94
	C1590-101.7,1587.2-117.5,1581.5-128.5z M2071.5,351.5c-3,3-6.2,4.5-9.5,4.5c-2,0-3.3-0.3-4-1c-52.7-12-95-18-127-18
	c-72.7,0-148.3,20-227,60c-7.3,4-12,10-14,18c-3.3,14.7-8.2,36.8-14.5,66.5c-6.3,29.7-11.5,51.8-15.5,66.5
	c-14,53.3-35.8,104.3-65.5,153c-29.7,48.7-68.8,90.7-117.5,126c-48.7,35.3-100.3,53-155,53c-58,0-104.2-18-138.5-54
	s-51.5-83.3-51.5-142c0-22.7,4.2-47.7,12.5-75c8.3-27.3,22-52.3,41-75c19-22.7,40.2-34,63.5-34c20.7,0,42.5,4.8,65.5,14.5
	c23,9.7,42.5,21.8,58.5,36.5c4.7,4.7,7,8,7,10c0,0.7-3.7,3.5-11,8.5c-7.3,5-16,11.7-26,20c-10,8.3-19.8,17.8-29.5,28.5
	c-9.7,10.7-18,23.8-25,39.5c-7,15.7-10.5,31.5-10.5,47.5c0,31.3,14,47,42,47c30,0,57.5-16.3,82.5-49s42.2-66.3,51.5-101
	c14.7-55.3,23.3-94.3,26-117c0.7-1.3,1-3,1-5s-8.3-3-25-3c-98,0-173.8-26.3-227.5-79S1148,270.3,1148,173c0-63.3,12.3-126.3,37-189
	s61.8-118.2,111.5-166.5c49.7-48.3,105.8-78.2,168.5-89.5c29.3-4,52-6,68-6c161.3,0,242,77.7,242,233c0,43.3-8.2,102.7-24.5,178
	c-16.3,75.3-25.5,120.3-27.5,135l2,2c90-51.3,165.3-77,226-77c8.7,0,20,2.7,34,8c8.7,3.3,26,25.5,52,66.5s39,66.2,39,75.5
	C2076,345.7,2074.5,348.5,2071.5,351.5z M2175.5-383.5c-56.3-56.3-124.2-84.5-203.5-84.5h-960c-79.3,0-147.2,28.2-203.5,84.5
	S724-259.3,724-180v960c0,79.3,28.2,147.2,84.5,203.5c56.3,56.3,124.2,84.5,203.5,84.5h960c79.3,0,147.2-28.2,203.5-84.5
	c56.3-56.3,84.5-124.2,84.5-203.5v-960C2260-259.3,2231.8-327.2,2175.5-383.5z"/>
</svg>
