<svg xmlns="http://www.w3.org/2000/svg" x="0px" y="0px" viewBox="596 -596 1792 1792" style="enable-background:new 596 -596 1792 1792;">
<path d="M1229,602c-4.7-4.7-5.7-9-3-13c3.3-3.3,8-2.7,14,2c4.7,4.7,5.7,9,3,13C1239.7,607.3,1235,606.7,1229,602z M1215,576
	c-3.3,2-7.3,0.3-12-5c-4-5.3-4-9.3,0-12c4.7-2,8.7-0.7,12,4C1219,569,1219,573.3,1215,576z M1165,525c-4.7-2-6-4.7-4-8
	c0.7-2.7,3.3-3.3,8-2c4.7,2.7,6.3,5.3,5,8C1173.3,525.7,1170.3,526.3,1165,525z M1184,544c-3.3-4.7-3.7-8.3-1-11c2.7-2.7,6-1.7,10,3
	c2,1.3,3.2,3.2,3.5,5.5c0.3,2.3-0.2,3.8-1.5,4.5C1191.7,548.7,1188,548,1184,544z M1268,625c-7.3-2.7-10.3-6.3-9-11
	c2.7-4.7,7-6,13-4c7.3,2.7,10.3,6.3,9,11C1278.3,625.7,1274,627,1268,625z M1312,632c-7.3,0-11-2.7-11-8c0-5.3,3.3-8,10-8
	c8,0,12,2.7,12,8C1323,629.3,1319.3,632,1312,632z M1352,627c-6.7,1.3-10.7-0.7-12-6c-1.3-4.7,1.7-7.7,9-9c7.3-1.3,11.7,0.3,13,5
	C1362,622.3,1358.7,625.7,1352,627z M1906,600.5c-65.3,89-149.3,150.8-252,185.5c-12,2-20.8,0.3-26.5-5c-5.7-5.3-8.5-12-8.5-20
	c0-1.3,0.2-18.3,0.5-51c0.3-32.7,0.5-62.3,0.5-89c0-42.7-11.7-74.3-35-95c25.3-2.7,48.2-6.7,68.5-12c20.3-5.3,41.2-14,62.5-26
	c21.3-12,39.2-26.8,53.5-44.5c14.3-17.7,26.2-41,35.5-70s14-62.5,14-100.5c0-52.7-17.7-98.3-53-137c16-41.3,14.3-86.7-5-136
	c-12.7-4-31.7-1-57,9c-25.3,10-43.8,18.7-55.5,26c-11.7,7.3-21.2,13.3-28.5,18c-38.7-11.3-81.3-17-128-17c-46.7,0-89.3,5.7-128,17
	l-26-16c-16.7-10.7-36.8-20.5-60.5-29.5c-23.7-9-41.8-11.5-54.5-7.5c-19.3,49.3-21,94.7-5,136c-35.3,38.7-53,84.3-53,137
	c0,46.7,6.5,86.5,19.5,119.5s31.5,58.3,55.5,76s48.3,30.7,73,39c24.7,8.3,53.3,14.5,86,18.5c-17.3,14.7-28.3,37.7-33,69
	c-9.3,4-19.3,7.2-30,9.5c-10.7,2.3-23.3,3.5-38,3.5c-14.7,0-29.2-4.7-43.5-14c-14.3-9.3-26.8-23.3-37.5-42c-8-14.7-19-26.5-33-35.5
	s-24-14.2-30-15.5s-11-2-15-2c-5.7,3.7-12.2,4.8-19.5,3.5s-8.7,1.2-4,7.5c4.7,6.3,7,9.5,7,9.5l8,8c1.7,1.7,3.2,2.8,4.5,3.5
	c22.7,10,41.7,34.7,57,74c5.3,17.3,15.2,31.2,29.5,41.5c14.3,10.3,28.8,17,43.5,20c14.7,3,30.7,4.3,48,4c17.3-0.3,29.2-1,35.5-2
	c6.3-1,11.5-1.8,15.5-2.5c0.7,28.7,1,60.3,1,95c0,8-2.8,14.7-8.5,20c-5.7,5.3-14.5,7-26.5,5c-102.7-34.7-186.7-96.5-252-185.5
	S980,411.3,980,300c0-141.3,50-262,150-362s220.7-150,362-150s262,50,362,150s150,220.7,150,362C2004,411.3,1971.3,511.5,1906,600.5
	z M2175.5-383.5c-56.3-56.3-124.2-84.5-203.5-84.5h-960c-79.3,0-147.2,28.2-203.5,84.5S724-259.3,724-180v960
	c0,79.3,28.2,147.2,84.5,203.5c56.3,56.3,124.2,84.5,203.5,84.5h960c79.3,0,147.2-28.2,203.5-84.5c56.3-56.3,84.5-124.2,84.5-203.5
	v-960C2260-259.3,2231.8-327.2,2175.5-383.5z"/>
</svg>
