<svg xmlns="http://www.w3.org/2000/svg" x="0px" y="0px" viewBox="596 -596 1792 1792" style="enable-background:new 596 -596 1792 1792;">
<path d="M1106.5-346.2C988.8-277.6,895.7-184.4,827-66.7S724,179.4,724,318.8c0,167.3,48.8,317.8,146.5,451.5
	s223.8,226.2,378.5,277.5c18,3.3,31.3,1,40-7c8.7-8,13-18,13-30c0-2.7-0.2-20.8-0.5-54.5c-0.3-33.7-0.5-63.2-0.5-88.5l-23,4
	c-14.7,2.7-33.2,3.8-55.5,3.5c-22.3-0.3-45.5-2.7-69.5-7s-46.3-14.3-67-30s-35.3-36.2-44-61.5l-10-23c-6.7-15.3-17.2-32.3-31.5-51
	c-14.3-18.7-28.8-31.3-43.5-38l-7-5c-4.7-3.3-9-7.3-13-12c-4-4.7-7-9.3-9-14c-2-4.7-0.3-8.5,5-11.5s15-4.5,29-4.5l20,3
	c13.3,2.7,29.8,10.7,49.5,24c19.7,13.3,35.8,30.7,48.5,52c15.3,27.3,33.8,48.2,55.5,62.5s43.5,21.5,65.5,21.5s41-1.7,57-5
	s31-8.3,45-15c6.7-44.7,23-79,49-103c-38-4-72.2-10-102.5-18c-30.3-8-61.7-21-94-39s-59.2-40.3-80.5-67
	c-21.3-26.7-38.8-61.7-52.5-105c-13.7-43.3-20.5-93.3-20.5-150c0-79.3,26.3-148,79-206c-24.7-60.7-22-128.7,8-204
	c18.7-6,47-1.5,85,13.5s65.8,27.8,83.5,38.5c17.7,10.7,31.8,19.7,42.5,27c62-17.3,126-26,192-26s130,8.7,192,26l38-24
	c26-16,56.7-30.7,92-44s62.3-17,81-11c30,75.3,32.7,143.3,8,204c52.7,58,79,126.7,79,206c0,56.7-6.8,106.8-20.5,150.5
	s-31.3,78.7-53,105c-21.7,26.3-48.7,48.5-81,66.5s-63.7,31-94,39s-64.5,14-102.5,18c34.7,30,52,77.3,52,142
	c0,40.7-0.2,85.5-0.5,134.5c-0.3,49-0.5,74.5-0.5,76.5c0,12,4.3,22,13,30c8.7,8,22,10.3,40,7c154.7-51.3,280.8-143.8,378.5-277.5
	c97.7-133.7,146.5-284.2,146.5-451.5c0-139.3-34.3-267.8-103-385.5c-68.7-117.7-161.8-210.8-279.5-279.5s-246.2-103-385.5-103
	S1224.2-414.9,1106.5-346.2z M1002,655.8c-6.7-3.3-9-7.3-7-12c2-3.3,6.3-4,13-2c6.7,3.3,9,7.3,7,12
	C1012.3,659.1,1008,659.8,1002,655.8z M1030,684.8c-6-7.3-6.7-12.7-2-16c4-4,9.3-3,16,3c6,7.3,6.7,12.7,2,16
	C1042,692.4,1036.7,691.4,1030,684.8z M1059,725.8c-6-8.7-6-14.7,0-18c6-4.7,11.7-2.7,17,6c6,8,6,14.3,0,19
	C1070.7,736.8,1065,734.4,1059,725.8z M1098,771.8c-8.7-7.3-10-13.7-4-19c5.3-6,12-5,20,3c8,7.3,9.3,13.7,4,19
	C1112.7,780.8,1106,779.8,1098,771.8z M1156,805.8c-11.3-2.7-15.7-7.7-13-15s9-9.7,19-7c10.7,3.3,15,8.7,13,16
	C1172.3,807.8,1166,809.8,1156,805.8z M1222,815.8c-11.3,1.3-17-2.3-17-11c0-7.3,5.3-11,16-11c11.3-1.3,17,2.3,17,11
	C1238,812.1,1232.7,815.8,1222,815.8z M1282,808.8c-10.7,2.7-16.7,0-18-8c-1.3-8,3.3-13,14-15c10.7-1.3,16.7,1.7,18,9
	C1297.3,801.4,1292.7,806.1,1282,808.8z"/>
</svg>
