<svg xmlns="http://www.w3.org/2000/svg" x="0px" y="0px" viewBox="596 -596 1792 1792" style="enable-background:new 596 -596 1792 1792;">
<path d="M1106.5-365C988.8-296.3,895.7-203.2,827-85.5S724,160.7,724,300s34.3,267.8,103,385.5S988.8,896.3,1106.5,965
	s246.2,103,385.5,103s267.8-34.3,385.5-103s210.8-161.8,279.5-279.5c68.7-117.7,103-246.2,103-385.5s-34.3-267.8-103-385.5
	c-68.7-117.7-161.8-210.8-279.5-279.5S1631.3-468,1492-468S1224.2-433.7,1106.5-365z M1809,41c14.7,4,17,9.3,7,16
	c-1.3,1.3-4.8,1.8-10.5,1.5s-9.5-0.2-11.5,0.5c6,1.3,11,3.2,15,5.5s5,5.5,3,9.5c10.7,6,12.7,12.7,6,20c-8.7,8.7-19,12.3-31,11
	c2,0,2,1.3,0,4l-17,11c-1.3,0.7-5.7,2.3-13,5s-12.3,5.7-15,9c-2,2.7-3,6.7-3,12s-0.3,9.3-1,12c-0.7,2.7-3.3,3.3-8,2
	c-2,4-8.2,7.2-18.5,9.5c-10.3,2.3-17.2,5.8-20.5,10.5c4,5.3,3.7,10.7-1,16c-8,6.7-15,6-21-2c-3.3,1.3-5.8,4.7-7.5,10
	c-1.7,5.3-4.2,9-7.5,11c4.7,7.3,4,12.7-2,16c0.7,0,2.2,0.7,4.5,2c2.3,1.3,4.8,3,7.5,5c2.7,2,4.3,3,5,3c-2.7,6-6.3,9-11,9
	c4,10.7-1,22.3-15,35c-2.7,2.7-6.8,5.3-12.5,8c-5.7,2.7-10.8,4.8-15.5,6.5s-7.3,2.8-8,3.5c-6.7,6-11.7,12.2-15,18.5
	c-3.3,6.3-3.8,12.5-1.5,18.5c2.3,6,8.5,10,18.5,12l1,8v18l1,8c0.7,4.7,1.2,8.8,1.5,12.5c0.3,3.7,0.3,8.3,0,14
	c-0.3,5.7-1.8,8.8-4.5,9.5c-2.7,0.7-6.3,0-11-2c-5.3-2.7-11.7-17.3-19-44c-1.3-6.7-5.3-14.7-12-24c-3.3,3.3-6.2,5.5-8.5,6.5
	c-2.3,1-4,1.2-5,0.5s-2.8-2.2-5.5-4.5c-2.7-2.3-5-4.2-7-5.5c-3.3-2-9.2-3.7-17.5-5c-8.3-1.3-13.5-3-15.5-5c-16,12-25.7,9-29-9
	c-1.3,3.3-1.2,7.8,0.5,13.5c1.7,5.7,2.5,8.8,2.5,9.5c-4.7,8.7-12,9.3-22,2c-4-4-13.2-4.5-27.5-1.5c-14.3,3-23.8,3.5-28.5,1.5
	c0.7,0,2,1,4,3c2,1.3,3.3,2.3,4,3c-0.7,2.7-1.7,4.7-3,6c-1.3,1.3-2.7,1.8-4,1.5c-1.3-0.3-2.8-0.3-4.5,0c-1.7,0.3-3.2,0.8-4.5,1.5
	c-2.7,2-6,5.5-10,10.5s-7,8.2-9,9.5c4,10.7,5.8,18.8,5.5,24.5c-0.3,5.7-1.3,14-3,25c-1.7,11-2.5,19.8-2.5,26.5c0,10.7,3.2,23,9.5,37
	c6.3,14,13.8,23.7,22.5,29c4.7,2.7,12.7,4.3,24,5c11.3,0.7,19.3,0,24-2c4-2,7-4.3,9-7c2-2.7,3.7-6.5,5-11.5c1.3-5,2.3-8.5,3-10.5
	c4.7-12.7,13.3-19.3,26-20c8-0.7,13.8,0.2,17.5,2.5c3.7,2.3,5.2,5.5,4.5,9.5c-0.7,4-2,8.2-4,12.5c-2,4.3-4.5,9.2-7.5,14.5
	c-3,5.3-4.8,9.3-5.5,12c-1.3,5.3-2.5,12.8-3.5,22.5c-1,9.7-1.8,15.5-2.5,17.5c1.3,0.7,6.3,1,15,1c0-1.3,0.5-3.5,1.5-6.5
	s1.5-4.8,1.5-5.5c3.3,5.3,8.7,8.3,16,9c7.3,0.7,12.7-2,16-8c1.3,2,5.3,7,12,15c6.7,8,10.3,14.7,11,20c0.7,2.7,2,7,4,13
	s2.7,10.2,2,12.5c-0.7,2.3-4,3.5-10,3.5c-2.7,0-4.3,1-5,3c-0.7,2-0.7,4.5,0,7.5c0.7,3,1.5,5.8,2.5,8.5c1,2.7,2.3,5.5,4,8.5
	c1.7,3,2.5,4.8,2.5,5.5c12,22,28.3,28,49,18c0,19.3-4.7,30-14,32c-5.3,1.3-11.3-2-18-10c-6.7-8-9-14.7-7-20c-0.7,3.3-3,6.3-7,9
	c-3.3-4-9.3-9-18-15c-8.7-6-14.7-11-18-15c-1.3-2-3.2-4.8-5.5-8.5c-2.3-3.7-5.3-8.5-9-14.5c-3.7-6-6.3-11.2-8-15.5
	c-1.7-4.3-1.8-6.8-0.5-7.5c-12.7,5.3-31,1.7-55-11c-4.7-2.7-11.7-9.7-21-21c-9.3-11.3-19-16.3-29-15c-3.3,0.7-7.8,1.8-13.5,3.5
	c-5.7,1.7-10.5,2.5-14.5,2.5s-9.3-1.3-16-4c-5.3-2-12.5-5.8-21.5-11.5c-9-5.7-15.2-9.2-18.5-10.5c-8.7-4.7-13-7-13-7l-16-8
	c-4-2-8.2-5.2-12.5-9.5c-4.3-4.3-7.2-8.8-8.5-13.5c-1.3-4-3-12-5-24s-4.7-20.7-8-26c-4-6.7-9.7-13.3-17-20c-7.3-6.7-14-10-20-10
	c5.3,0,5.3-4.5,0-13.5s-10-15.5-14-19.5c-1.3-1.3-5.3-5.7-12-13s-12.3-13.7-17-19s-8.7-11.5-12-18.5s-4-12.8-2-17.5
	c0.7-0.7,0-1.7-2-3s-4.5-2.7-7.5-4s-5.8-2.5-8.5-3.5s-4.7-1.5-6-1.5c1.3,2.7,2.8,7.5,4.5,14.5s3.5,12.2,5.5,15.5
	c1.3,2.7,7,12.3,17,29c17.3,28,25.3,48.7,24,62c-4,1.3-6.7,0.7-8-2s-2.3-6.3-3-11c-0.7-4.7-1.3-8-2-10c-2-4-7.2-8.3-15.5-13
	s-13.5-9.3-15.5-14c0.7,0,1.5-0.3,2.5-1s1.8-1,2.5-1c0.7-6-2.8-13.7-10.5-23s-10.8-16-9.5-20c-5.3-4-10-11.8-14-23.5
	s-7.3-19.2-10-22.5c-2.7-4-6-7.5-10-10.5s-9-6.3-15-10s-10-6.2-12-7.5c-1.3-0.7-4-3.7-8-9c-22-26.7-28.7-41-20-43
	c-8.7,2-15.8-4.5-21.5-19.5S1019,173,1021,165l-2-1c0.7-2.7,1-10.5,1-23.5s0.8-24.8,2.5-35.5s4.8-16,9.5-16
	c-4.7,0.7-8.2-3.5-10.5-12.5c-2.3-9-2.5-15.2-0.5-18.5c0.7-2,3.7-0.7,9,4s8.3,7.7,9,9c8.7-4.7,12-10.7,10-18c-1.3-2.7-8.3-9.7-21-21
	c-28.7-18.7-43.3-27.7-44-27c4-7.3,3-13.7-3-19c-6.7,4-10.5,5-11.5,3s-1.8-5.7-2.5-11s-2.3-8.3-5-9c-3.3-0.7-7.3-3.3-12-8
	c59.3-94.7,137.7-168.7,235-222c4-0.7,11.3-1,22-1c5.3,0.7,10.3,2.3,15,5s9.5,6.3,14.5,11s8.8,8,11.5,10c1.3-4-0.3-10-5-18
	c1.3-4,8.7-8,22-12c15.3-2,25.3-1.7,30,1c-4-6-10.7-14.3-20-25l-5,5c-5.3-4.7-19.3-2.3-42,7c-1.3,0.7-4.7,2.5-10,5.5
	s-9.7,5.2-13,6.5c-4,1.3-8,1.7-12,1c32-17.3,63.3-31,94-41c2,1.3,5.3,4.2,10,8.5c4.7,4.3,8.3,7.5,11,9.5c-2-1.3-3.3-0.7-4,2
	c-2.7,8-2.7,14.7,0,20c3.3,4.7,7.8,7.3,13.5,8c5.7,0.7,12.5,0.3,20.5-1s13.3-2,16-2l10,1c21.3,2,29.7,0,25-6c2,2.7,4.3,8.2,7,16.5
	c2.7,8.3,5.7,14.2,9,17.5c3.3-2.7,4-7.3,2-14s-2-11.3,0-14c0.7-1.3,2.7-2.7,6-4c3.3-1.3,7.2-2.8,11.5-4.5c4.3-1.7,7.2-2.8,8.5-3.5
	c4-2.7,1.3-7.3-8-14c-1.3-0.7-4.2-1.7-8.5-3c-4.3-1.3-8.2-2.7-11.5-4c-3.3-1.3-6.8-3.2-10.5-5.5c-3.7-2.3-5.3-5-5-8
	c0.3-3,2.2-6.8,5.5-11.5c4-3.3,10.5-4.7,19.5-4s15.8,2.3,20.5,5c18,10,20.7,19,8,27c6.7,0.7,14.7,3.3,24,8c9.3,4.7,13,9.7,11,15
	c5.3-10,10.7-15,16-15c3.3,0.7,6.5,5.2,9.5,13.5s4.8,12.8,5.5,13.5c5.3,7.3,10.7,9,16,5c5.3-4,10.8-9.8,16.5-17.5
	c5.7-7.7,8.8-11.2,9.5-10.5c-6.7-2.7-7.3-5.3-2-8c10-6,19-7.7,27-5c2,1.3,4.7,4.3,8,9c6,12,5,17.7-3,17c6,5.3,8.5,12,7.5,20
	s-6.2,11.7-15.5,11c-3.3,0-8.2-1.7-14.5-5c-6.3-3.3-11.2-5.2-14.5-5.5c-3.3-0.3-8,1.5-14,5.5c-2.7,3.3-6.2,9-10.5,17
	c-4.3,8-8.2,13.7-11.5,17c-10,10-26.7,13.7-50,11c2,0,1.8,2-0.5,6c-2.3,4-5.5,8.5-9.5,13.5s-6.3,7.8-7,8.5c-6,6.7-10,14.3-12,23
	c0,1.3-0.3,5.8-1,13.5c-0.7,7.7-2,13.5-4,17.5c8-2,14.3,2,19,12c4,9.3,4,14.3,0,15c22-3.3,41.3-2,58,4c24,8.7,37.7,17.3,41,26
	c4-6,13.7-6.3,29-1c6,3.3,11.3,13.3,16,30c2.7,10,7.2,18.7,13.5,26c6.3,7.3,13.2,9.3,20.5,6l3-2c2.7-1.3,4.8-2.5,6.5-3.5
	c1.7-1,3.5-2.3,5.5-4s3.2-3.2,3.5-4.5c0.3-1.3-0.2-2.7-1.5-4c-4.7-4-8.2-9.5-10.5-16.5c-2.3-7-1.8-13.2,1.5-18.5
	c2-2.7,7.3-6.7,16-12c8.7-5.3,14-10.7,16-16c2.7-8.7-0.7-15.8-10-21.5c-9.3-5.7-14-10.8-14-15.5c0-3.3,2.2-7.3,6.5-12
	c4.3-4.7,6.2-9,5.5-13c0-2-1.2-6.2-3.5-12.5c-2.3-6.3-3.7-11-4-14c-0.3-3,1.2-6.5,4.5-10.5c4.7-2.7,15.7-2.5,33,0.5
	c17.3,3,28.7,6.2,34,9.5c2,1.3,6.3,3.3,13,6c6.7,2.7,12.5,5.5,17.5,8.5s7.8,5.8,8.5,8.5h-5c4.7,4,7.5,8.7,8.5,14s-1.5,9.3-7.5,12
	c4-0.7,9.3,0.3,16,3c10.7,4,11,7.7,1,11c2-0.7,4.8-1.3,8.5-2s6.5-1.7,8.5-3c1.3-0.7,3-1.8,5-3.5s3.5-2.7,4.5-3s2.5-0.7,4.5-1
	s4,0.2,6,1.5c0.7,0,2.2-1.7,4.5-5s4.8-6.7,7.5-10s5-5,7-5s3.8,0.8,5.5,2.5s3,3.5,4,5.5s2,4.2,3,6.5s1.8,4.2,2.5,5.5
	c1.3,3.3,4.5,6.8,9.5,10.5s8.2,7.2,9.5,10.5c0.7,2,2,7,4,15s4.7,13.5,8,16.5s8.3,5.5,15,7.5c1.3,0.7,4.3,0.3,9-1s8.5-1.7,11.5-1
	s4.5,3.3,4.5,8c4-4,6-6.7,6-8c0.7,8.7,2.8,15.7,6.5,21s9.5,7.7,17.5,7l-2,22c-2,3.3-7,5.8-15,7.5s-13,3.2-15,4.5
	c-2,0.7-6.8,4.7-14.5,12s-10.8,11.7-9.5,13c-11.3-12.7-28.3-16.3-51-11c-25.3,4-42.7,8-52,12c-10.7,5.3-18,10.3-22,15
	c-0.7,0.7-1.8,3-3.5,7s-3.3,7.7-5,11s-3.2,5-4.5,5c4-0.7,8.5-3.8,13.5-9.5s8.2-8.8,9.5-9.5C1783.3,41.7,1797.7,37.7,1809,41z
	 M1601,914c-0.7-5.3,1.7-12.5,7-21.5c5.3-9,8-15.8,8-20.5c-10.7-2.7-14.7-11.3-12-26c1.3-10,11-23.3,29-40
	c12.7-11.3,16.7-27.3,12-48c-2-8.7-3.7-21.3-5-38c-1.3-16.7-2.7-28.3-4-35c0,2,3.2,3.8,9.5,5.5c6.3,1.7,10.2,3.8,11.5,6.5
	c1.3-2,3-5.7,5-11s4-9.3,6-12c1.3-2,4.2-4.5,8.5-7.5c4.3-3,7.2-4.8,8.5-5.5c1.3-0.7,4.3-2.8,9-6.5c4.7-3.7,8.5-6.5,11.5-8.5
	s7-3.5,12-4.5s8.5,0.5,10.5,4.5c3.3,4,2.7,10.2-2,18.5c-4.7,8.3-4.7,14.2,0,17.5c0.7-2,1.3-6.3,2-13c0.7-6.7,2.7-11.7,6-15
	c4-4,7.8-6.3,11.5-7c3.7-0.7,7-0.2,10,1.5c3,1.7,6.5,4,10.5,7s7.7,4.8,11,5.5c10,3.3,22,10.7,36,22c-0.7-0.7-0.7-1.5,0-2.5s2-2,4-3
	s3.8-2,5.5-3s3.5-1.8,5.5-2.5l3-1c4.7,0,8-0.3,10-1c2-0.7,4.8,0,8.5,2s6.2,3.5,7.5,4.5s3.7,2.8,7,5.5c3.3,2.7,5.7,4.7,7,6
	c2,1.3,5.7,3.7,11,7s9.5,6,12.5,8s5.7,5,8,9s3.2,8.3,2.5,13c4,0.7,12,3.3,24,8c2,1.3,6.2,2.5,12.5,3.5s10.5,2.5,12.5,4.5
	c-96.7,102-213.7,165-351,189C1601.7,923.3,1601,918,1601,914z"/>
</svg>
