<svg xmlns="http://www.w3.org/2000/svg" x="0px" y="0px" viewBox="596 -596 1792 1792" style="enable-background:new 596 -596 1792 1792;">
<path d="M1040,1023c-114.7,0-172-33.7-172-101c0-69.3,52.7-104,158-104c110,0,165,33.3,165,100C1191,988,1140.7,1023,1040,1023z
	 M1013,300c-82.7,0-124-45-124-135c0-96.7,41.3-145,124-145c39.3,0,69,13.7,89,41s30,61.3,30,102C1132,254.3,1092.3,300,1013,300z
	 M1183-114c-54.7-31.3-114-47-178-47c-93.3,0-171.7,30.8-235,92.5S675,70.3,675,163c0,54,15.8,109.2,47.5,165.5S794,421,842,437v4
	c-42,18.7-63,64.3-63,137c0,56.7,22.3,98.7,67,126v4c-121.3,40-182,115-182,225c0,49.3,10.8,91.8,32.5,127.5s50.8,63,87.5,82
	s75.3,32.7,116,41c40.7,8.3,84,12.5,130,12.5c242,0,363-101.3,363-304c0-38-7.5-70.8-22.5-98.5s-34.3-49-58-64S1262.7,702,1234,692
	c-28.7-10-57.3-18.5-86-25.5c-28.7-7-54.8-14.3-78.5-22c-23.7-7.7-43-18.3-58-32c-15-13.7-22.5-30.8-22.5-51.5
	c0-26,6.5-45.3,19.5-58c13-12.7,32.8-21.7,59.5-27c82.7-15.3,148.3-52.8,197-112.5c48.7-59.7,73-131.8,73-216.5
	c0-27.3-5.3-55.3-16-84c28.7-6.7,55-14,79-22v-202C1321-129.7,1248.3-114,1183-114z M1715,586V-27c0-60.7,1.3-102,4-124h-222
	c2.7,22.7,4,65.3,4,128v609c0,59.3-1.3,104-4,134h222C1716.3,690,1715,645.3,1715,586z M2211,531c-58,0-87-43.7-87-131V35h85
	c9.3,0,23.5,0.7,42.5,2s33.5,2,43.5,2v-190h-171c0-82.7,2-137.7,6-165h-227c4,23.3,6,53,6,89v76h-96V39c25.3-4,45-6,59-6
	c4,0,10,0.3,18,1s14.3,1,19,1v4h-2v351c0,39.3,1.3,73.7,4,103c2.7,29.3,8.8,60,18.5,92s22.8,58,39.5,78s40,36.7,70,50
	s65.7,20,107,20c68.7,0,126.7-13,174-39V498C2288,520,2251.7,531,2211,531z M1705.5-551.5c-25.7-29.7-57.8-44.5-96.5-44.5
	c-39.3,0-72.2,14.7-98.5,44c-26.3,29.3-39.5,63.7-39.5,103c0,38.7,13.3,72.5,40,101.5c26.7,29,59.3,43.5,98,43.5
	c38,0,70-14.5,96-43.5s39-62.8,39-101.5S1731.2-521.8,1705.5-551.5z"/>
</svg>
