<svg xmlns="http://www.w3.org/2000/svg" x="0px" y="0px" viewBox="596 -596 1792 1792" style="enable-background:new 596 -596 1792 1792;">
<path d="M1349,1029l17-86c-146.7-29.3-269.3-100-368-212l-65,57c-29.3-33.3-53.7-66.3-73-99l-58,34c70.7,114.7,165,206.5,283,275.5
	s246.3,105.5,385,109.5v-66C1432.7,1041.3,1392.3,1037,1349,1029z M836,300c0-74.7,11.7-145.3,35-212l-82-28
	c12.7-37.3,29-74.7,49-112l-57-33c-65.3,120-98,248.3-98,385s32.7,265,98,385l57-33c-18-34.7-34.3-72-49-112l83-28
	C848,443.3,836,372.7,836,300z M2051,788l-65-57c-98.7,112-221.3,182.7-368,212l17,86c-43.3,8-83.7,12.3-121,13v66
	c138.7-4,267-40.5,385-109.5s212.3-160.8,283-275.5l-58-34C2104.7,721.7,2080.3,754.7,2051,788z M1874-34l-185,162
	c-39.3-45.3-88.3-74-147-86l48-240c-29.3-6.7-62-10-98-10s-68.7,3.3-98,10l48,240c-58.7,12-107.7,40.7-147,86L1110-34
	c-44,50.7-77,107-99,169l233,80c-9.3,28-14,56.3-14,85s4.7,57,14,85l-232,80c20.7,61.3,53.3,117.7,98,169l185-162
	c38,44.7,87,73,147,85l-48,241c34.7,6.7,67.3,10,98,10c30.7,0,63.3-3.3,98-10l-48-241c60-12,109-40.3,147-85l185,162
	c44.7-51.3,77.3-107.7,98-169l-232-80c9.3-28,14-56.3,14-85s-4.7-57-14-85l233-80C1951,73,1918,16.7,1874-34z M1085-398.5
	c-117.3,69-211.3,160.8-282,275.5l57,33c23.3-37.3,47.7-70,73-98l65,56c98.7-112.7,221.3-183,368-211l-17-86
	c37.3-7.3,77.7-11.7,121-13v-66C1330.7-504,1202.3-467.5,1085-398.5z M2203-85l-57,33c20,37.3,36.3,74.7,49,112l-82,28
	c23.3,66.7,35,137.3,35,212c0,72.7-12,143.3-36,212l83,28c-14.7,40-31,77.3-49,112l57,33c65.3-120,98-248.3,98-385
	S2268.3,35,2203-85z M1899-398.5c-117.3-69-245.7-105.5-385-109.5v66c43.3,1.3,83.7,5.7,121,13l-17,86c146.7,28,269.3,98.3,368,211
	l65-56c25.3,28,49.7,60.7,73,98l57-33C2110.3-237.7,2016.3-329.5,1899-398.5z M2276.5,631c-45,105.3-105.5,196-181.5,272
	s-166.7,136.5-272,181.5s-215.7,67.5-331,67.5c-115.3,0-225.7-22.5-331-67.5c-105.3-45-196-105.5-272-181.5S752.5,736.3,707.5,631
	S640,415.3,640,300s22.5-225.7,67.5-331S813-227,889-303s166.7-136.5,272-181.5s215.7-67.5,331-67.5c115.3,0,225.7,22.5,331,67.5
	S2019-379,2095-303s136.5,166.7,181.5,272s67.5,215.7,67.5,331S2321.5,525.7,2276.5,631z M2317-48c-47.3-110.7-111-206-191-286
	s-175.3-143.7-286-191s-226.7-71-348-71c-121.3,0-237.3,23.7-348,71c-110.7,47.3-206,111-286,191S714.3-158.7,667-48
	s-71,226.7-71,348s23.7,237.3,71,348s111,206,191,286s175.3,143.7,286,191s226.7,71,348,71c121.3,0,237.3-23.7,348-71
	s206-111,286-191s143.7-175.3,191-286c47.3-110.7,71-226.7,71-348S2364.3,62.7,2317-48z"/>
</svg>
