<svg xmlns="http://www.w3.org/2000/svg" x="0px" y="0px" viewBox="596 -596 1792 1792" style="enable-background:new 596 -596 1792 1792;">
<path d="M788-468c-42.7,0-79.3,15.3-110,46s-46,67.3-46,110v519c0,117.3,22.7,229.3,68,336s106.3,198.3,183,275
	s168.2,137.5,274.5,182.5c106.3,45,218.2,67.5,335.5,67.5c116.7,0,228.2-22.5,334.5-67.5s197.7-105.8,274-182.5
	c76.3-76.7,137.2-168.3,182.5-275c45.3-106.7,68-218.7,68-336v-519c0-43.3-15-80.2-45-110.5s-66.7-45.5-110-45.5H788z M1412,563
	l-405-388c-24-22.7-36-51-36-85c0-32.7,11.5-60.5,34.5-83.5S1056.3-28,1089-28c30.7,0,57.7,11,81,33l323,310L1816,5
	c23.3-22,50.7-33,82-33c32.7,0,60.5,11.5,83.5,34.5S2016,57.3,2016,90c0,33.3-12.3,61.7-37,85l-404,388c-23.3,22-50.7,33-82,33
	C1461,596,1434,585,1412,563z"/>
</svg>
