<svg xmlns="http://www.w3.org/2000/svg" x="0px" y="0px" viewBox="596 -596 1792 1792" style="enable-background:new 596 -596 1792 1792;">
<path d="M1634,830.5c-12,9-27.3,13.5-46,13.5h-192c-18.7,0-34-4.5-46-13.5s-18-21.8-18-38.5v-56V268V76h320v192v468v56
	C1652,808.7,1646,821.5,1634,830.5z M1128-80c-18.7-18.7-28-41.3-28-68s9.3-49.3,28-68s41.3-28,68-28c28.7,0,51.7,10.3,69,31
	l126,161h-195C1169.3-52,1146.7-61.3,1128-80z M1856-80c-18.7,18.7-41.3,28-68,28h-194l125-161c17.3-20.7,40.3-31,69-31
	c26.7,0,49.3,9.3,68,28s28,41.3,28,68S1874.7-98.7,1856-80z M2251,85c-6-6-13.7-9-23-9h-440c62,0,114.8-21.8,158.5-65.5
	S2012-86,2012-148s-21.8-114.8-65.5-158.5S1850-372,1788-372c-71.3,0-127.3,25.7-168,77l-128,165l-128-165
	c-40.7-51.3-96.7-77-168-77c-62,0-114.8,21.8-158.5,65.5S972-210,972-148s21.8,114.8,65.5,158.5S1134,76,1196,76H756
	c-9.3,0-17,3-23,9s-9,13.7-9,23v320c0,9.3,3,17,9,23s13.7,9,23,9h96v416c0,26.7,9.3,49.3,28,68s41.3,28,68,28h1088
	c26.7,0,49.3-9.3,68-28c18.7-18.7,28-41.3,28-68V460h96c9.3,0,17-3,23-9s9-13.7,9-23V108C2260,98.7,2257,91,2251,85z"/>
</svg>
