<svg xmlns="http://www.w3.org/2000/svg" x="0px" y="0px" viewBox="596 -596 1792 1792" style="enable-background:new 596 -596 1792 1792;">
<path d="M1287.5,474c-8.3-28-22.7-53.3-43-76s-44.5-34-72.5-34s-52.2,11.3-72.5,34s-34.7,48-43,76s-12.5,55.3-12.5,82
	c0,26.7,4.2,54,12.5,82s22.7,53.3,43,76s44.5,34,72.5,34s52.2-11.3,72.5-34c20.3-22.7,34.7-48,43-76c8.3-28,12.5-55.3,12.5-82
	C1300,529.3,1295.8,502,1287.5,474z M1927.5,474c-8.3-28-22.7-53.3-43-76s-44.5-34-72.5-34s-52.2,11.3-72.5,34s-34.7,48-43,76
	s-12.5,55.3-12.5,82c0,26.7,4.2,54,12.5,82s22.7,53.3,43,76s44.5,34,72.5,34s52.2-11.3,72.5-34s34.7-48,43-76s12.5-55.3,12.5-82
	C1940,529.3,1935.8,502,1927.5,474z M2068,709.5c-21.3,43.7-48.3,78-81,103s-73.3,45-122,60s-95.3,24.8-140,29.5
	c-44.7,4.7-94.3,7-149,7h-168c-54.7,0-104.3-2.3-149-7c-44.7-4.7-91.3-14.5-140-29.5s-89.3-35-122-60c-32.7-25-59.7-59.3-81-103
	s-32-94.8-32-153.5c0-80,23-148,69-204s108.3-84,187-84c28.7,0,93.7,7,195,21c47.3,7.3,99.7,11,157,11c57.3,0,109.7-3.7,157-11
	c102.7-14,167.7-21,195-21c78.7,0,141,28,187,84s69,124,69,204C2100,614.7,2089.3,665.8,2068,709.5z M2188-18c18-54,27-110,27-168
	c0-77.3-17-150-51-218c-71.3,0-134.3,13-189,39s-117,66.3-187,121c-88-21.3-181.3-32-280-32c-108,0-211,11.7-309,35
	c-71.3-56-134.3-97.2-189-123.5S892-404,820-404c-34,68-51,140.7-51,218c0,58.7,9,115.3,27,170C705.3,90,660,222,660,380
	c0,138.7,20.7,249,62,331c22,43.3,50.7,81.7,86,115s75.7,60.3,121,81s91,37.8,137,51.5s96.8,23.7,152.5,30S1323.3,999,1366,1001
	c42.7,2,90,3,142,3c61.3,0,117-1.5,167-4.5s107.2-10.3,171.5-22s121-27.5,170-47.5s96-48.7,141-86s80.2-81.7,105.5-133
	c40.7-82.7,61-193,61-331C2324,221.3,2278.7,88.7,2188-18z"/>
</svg>
