<svg xmlns="http://www.w3.org/2000/svg" x="0px" y="0px" viewBox="596 -596 1792 1792" style="enable-background:new 596 -596 1792 1792;">
<path d="M1204,651c-65.3,0-98,21.3-98,64c0,42,35.7,63,107,63c62,0,93-22,93-66C1306,671.3,1272,651,1204,651z M1251,182.5
	c-12.7-17-31-25.5-55-25.5c-51.3,0-77,30-77,90c0,56,25.7,84,77,84c49.3,0,74-28.3,74-85C1270,220.7,1263.7,199.5,1251,182.5z
	 M1387,184c6.7,18.7,10,36,10,52c0,52.7-15,97.3-45,134s-70.7,60-122,70c-32.7,5.3-49,22.7-49,52c0,16,8.2,29.2,24.5,39.5
	c16.3,10.3,33.5,17.2,51.5,20.5c52,9.3,94,24.7,126,46c32,21.3,48,54.3,48,99c0,125.3-74.7,188-224,188c-28.7,0-55.7-2.7-81-8
	s-49.3-13.8-72-25.5s-40.7-28.7-54-51c-13.3-22.3-20-48.5-20-78.5c0-68,37.7-114.3,113-139v-3c-27.3-16-41-41.7-41-77
	c0-45.3,12.7-73.7,38-85v-3c-29.3-10-53.8-32.3-73.5-67c-19.7-34.7-29.5-68.7-29.5-102c0-57.3,19.7-105,59-143
	c39.3-38,87.7-57,145-57c40,0,76.7,9.7,110,29c38,0,83-9.7,135-29v125C1428,173.7,1411.7,178,1387,184z M1498,515V123
	c0-32-1-55.7-3-71h137c-1.3,15.3-2,38.3-2,69v387c0,36.7,0.7,64,2,82h-137C1497,573.3,1498,548.3,1498,515z M1896,598
	c-25.3,0-47.3-4-66-12s-33.2-18.3-43.5-31c-10.3-12.7-18.5-28.8-24.5-48.5c-6-19.7-9.8-38.5-11.5-56.5s-2.5-39.3-2.5-64V169h2v-2
	c-2.7,0-6.7-0.2-12-0.5c-5.3-0.3-9-0.5-11-0.5c-0.7,0-13,1-37,3V52h60V5c0-20.7-1.3-39-4-55h140c-2,13.3-3,47.3-3,102h105v117
	c-6,0-14.8-0.3-26.5-1s-20.5-1-26.5-1h-52v225c0,54.7,17.7,82,53,82c25.3,0,48-7,68-21v121C1974.7,590,1938.7,598,1896,598z
	 M1623.5-70c-16.3,18-36.2,27-59.5,27c-23.3,0-43.3-8.8-60-26.5c-16.7-17.7-25-38.5-25-62.5c0-24.7,8.2-46,24.5-64
	c16.3-18,36.5-27,60.5-27s44,9.2,60,27.5s24,39.5,24,63.5C1648-108.7,1639.8-88,1623.5-70z M2175.5-383.5
	c-56.3-56.3-124.2-84.5-203.5-84.5h-960c-79.3,0-147.2,28.2-203.5,84.5S724-259.3,724-180v960c0,79.3,28.2,147.2,84.5,203.5
	c56.3,56.3,124.2,84.5,203.5,84.5h960c79.3,0,147.2-28.2,203.5-84.5c56.3-56.3,84.5-124.2,84.5-203.5v-960
	C2260-259.3,2231.8-327.2,2175.5-383.5z"/>
</svg>
