<svg xmlns="http://www.w3.org/2000/svg" x="0px" y="0px" viewBox="596 -596 1792 1792" style="enable-background:new 596 -596 1792 1792;">
<path d="M700,110L599,418c-4.7,14-4.7,28.2,0,42.5c4.7,14.3,13,25.8,25,34.5l868,630L700,110L700,110z M1492,1125L1492,1125
	l330-1015h-660L1492,1125z M931-525c-16.7,0-27.7,7.7-33,23L700,110h462L964-502C958.7-517.3,947.7-525,931-525z M2284,110
	l-792,1015l868-630c12-8.7,20.3-20.2,25-34.5c4.7-14.3,4.7-28.5,0-42.5L2284,110L2284,110z M2086-502c-5.3-15.3-16.3-23-33-23
	c-16.7,0-27.7,7.7-33,23l-198,612h462L2086-502z"/>
</svg>
