<svg xmlns="http://www.w3.org/2000/svg" x="0px" y="0px" viewBox="596 -596 1792 1792" style="enable-background:new 596 -596 1792 1792;">
<path d="M1044,44c0-19.3,1.7-41.3,5-66C1005-6.7,960.7,1,916,1c-39.3,0-79-7.2-119-21.5S724.5-49,699.5-63S660-84,656-84
	c-82.7,0-124,117.7-124,353c0,52,18.7,91.5,56,118.5S671.3,428,726,428h134c68.7-82,157-124.7,265-128C1071,222,1044,136.7,1044,44z
	 M2192.5,833.5c-2.3-33.7-7-70-14-109s-15.8-75.2-26.5-108.5c-10.7-33.3-25-65.8-43-97.5s-38.7-58.7-62-81
	c-23.3-22.3-51.8-40.2-85.5-53.5s-70.8-20-111.5-20c-6.7,0-21,7.2-43,21.5s-46.3,30.3-73,48c-26.7,17.7-62.3,33.7-107,48
	s-89.7,21.5-135,21.5c-45.3,0-90.3-7.2-135-21.5c-44.7-14.3-80.3-30.3-107-48c-26.7-17.7-51-33.7-73-48s-36.3-21.5-43-21.5
	c-40.7,0-77.8,6.7-111.5,20c-33.7,13.3-62.2,31.2-85.5,53.5c-23.3,22.3-44,49.3-62,81s-32.3,64.2-43,97.5
	c-10.7,33.3-19.5,69.5-26.5,108.5s-11.7,75.3-14,109c-2.3,33.7-3.5,68.2-3.5,103.5c0,80,24.3,143.2,73,189.5
	c48.7,46.3,113.3,69.5,194,69.5h874c80.7,0,145.3-23.2,194-69.5c48.7-46.3,73-109.5,73-189.5C2196,901.7,2194.8,867.2,2192.5,833.5z
	 M1097-521c-50-50-110.3-75-181-75s-131,25-181,75s-75,110.3-75,181s25,131,75,181s110.3,75,181,75s131-25,181-75s75-110.3,75-181
	S1147-471,1097-521z M1763.5-227.5c-75-75-165.5-112.5-271.5-112.5s-196.5,37.5-271.5,112.5S1108-62,1108,44s37.5,196.5,112.5,271.5
	S1386,428,1492,428s196.5-37.5,271.5-112.5S1876,150,1876,44S1838.5-152.5,1763.5-227.5z M2328-84c-4,0-18.5,7-43.5,21
	S2227-34.8,2187-20.5S2107.3,1,2068,1c-44.7,0-89-7.7-133-23c3.3,24.7,5,46.7,5,66c0,92.7-27,178-81,256c108,3.3,196.3,46,265,128
	h134c54.7,0,100.7-13.5,138-40.5c37.3-27,56-66.5,56-118.5C2452,33.7,2410.7-84,2328-84z M2249-521c-50-50-110.3-75-181-75
	c-70.7,0-131,25-181,75s-75,110.3-75,181s25,131,75,181s110.3,75,181,75c70.7,0,131-25,181-75s75-110.3,75-181S2299-471,2249-521z"
	/>
</svg>
