<svg xmlns="http://www.w3.org/2000/svg" x="0px" y="0px" viewBox="596 -596 1792 1792" style="enable-background:new 596 -596 1792 1792;">
<path d="M646.4,76c-13.3,0-23,5.8-29,17.5s-5,22.8,3,33.5c160,205.3,282.3,455,367,749h446c-64-273.3-184.7-531.3-362-774
	c-13.3-17.3-30.7-26-52-26H646.4z M1241.4-217c-2.7,152-17.3,301.7-44,449c118,189.3,203.3,387.3,256,594
	c50.7-129.3,92.3-260.3,125-393C1494.4,226.3,1382.1,9.7,1241.4-217z M1242.4-276c341.3,538,525.7,1028.7,553,1472h451
	c-23.3-266-84.8-523.8-184.5-773.5C1962.3,172.8,1834.1-60,1677.4-276H1242.4z M2255.4-550c-3.3-13.3-10.8-24.3-22.5-33
	c-11.7-8.7-24.5-13-38.5-13h-359c-10.7,0-19.2,4.2-25.5,12.5s-8.2,17.8-5.5,28.5c54,188.7,89.3,383.3,106,584
	c194.7,348.7,314.3,709.7,359,1083c67.3-258.7,101-529.3,101-812C2370.4,6,2332.1-277.3,2255.4-550z"/>
</svg>
