<?xml version="1.0" encoding="utf-8"?>
<!-- Generator: Adobe Illustrator 19.1.0, SVG Export Plug-In . SVG Version: 6.00 Build 0)  -->
<svg version="1.1" id="Слой_1" xmlns="http://www.w3.org/2000/svg" xmlns:xlink="http://www.w3.org/1999/xlink" x="0px" y="0px"
	 viewBox="596 -596 1792 1792" style="enable-background:new 596 -596 1792 1792;" xml:space="preserve">
<path d="M1586,77.5c-44-43.7-96.7-65.5-158-65.5c-61.3,0-114,21.8-158,65.5s-66,96.5-66,158.5c0,17.3-6.3,32.3-19,45
	c-12.7,12.7-27.7,19-45,19s-32.3-6.3-45-19s-19-27.7-19-45c0-97.3,34.3-180.3,103-249c68.7-68.7,151.7-103,249-103
	c97.3,0,180.3,34.3,249,103s103,151.7,103,249c0,17.3-6.3,32.3-19,45s-27.7,19-45,19s-32.3-6.3-45-19s-19-27.7-19-45
	C1652,174,1630,121.2,1586,77.5z M1654.5-294.5c71,30.3,132.3,71.3,184,123s92.7,113,123,184S2007,158,2007,236
	c0,39.3-3.8,75.5-11.5,108.5s-20.2,64.2-37.5,93.5c-17.3,29.3-32,51.8-44,67.5c-12,15.7-29.7,37.2-53,64.5
	c-20.7,23.3-35.8,41.3-45.5,54c-9.7,12.7-20.8,29.3-33.5,50c-12.7,20.7-21.5,42-26.5,64s-7.5,46.7-7.5,74
	c0,106-37.5,196.5-112.5,271.5S1470,1196,1364,1196c-17.3,0-32.3-6.3-45-19c-12.7-12.7-19-27.7-19-45s6.3-32.3,19-45
	c12.7-12.7,27.7-19,45-19c70.7,0,131-25,181-75s75-110.3,75-181c0-38,3.8-73.2,11.5-105.5c7.7-32.3,20-62.7,37-91
	c17-28.3,31.5-50.5,43.5-66.5s29.3-37,52-63c26.7-30.7,46.5-54.7,59.5-72c13-17.3,25.5-42.2,37.5-74.5s18-66.8,18-103.5
	c0-123.3-43.8-228.8-131.5-316.5S1554.3-212,1431-212s-228.8,43.8-316.5,131.5C1026.8,7.2,983,112.7,983,236c0,17.3-6.3,32.3-19,45
	c-12.7,12.7-27.7,19-45,19s-32.3-6.3-45-19c-12.7-12.7-19-27.7-19-45c0-78,15.2-152.5,45.5-223.5c30.3-71,71.3-132.3,123-184
	s113-92.7,184-123S1353-340,1431-340S1583.5-324.8,1654.5-294.5z M608,958c-8,8-12,17.7-12,29s4,21,12,29l168,168c8,8,17.7,12,29,12
	s21-4,29-12l579-579l-226-226L608,958z M2179-596c-11.3,0-21.3,4-30,12l-207,207l-91,91c86,70,151,156,195,258l71-71l26-25l233-233
	c8-8.7,12-18.7,12-30s-4-21-12-29l-168-168C2200-592,2190.3-596,2179-596z"/>
</svg>
