<svg xmlns="http://www.w3.org/2000/svg" x="0px" y="0px" viewBox="596 -596 1792 1792" style="enable-background:new 596 -596 1792 1792;">
<path d="M2257,63c-44.7-93.3-104.3-174.2-179-242.5c-74.7-68.3-163.3-122.8-266-163.5s-209.3-61-320-61c-110.7,0-217.3,20.3-320,61
	c-102.7,40.7-191.3,95.2-266,163.5S771.7-30.3,727,63s-67,190.3-67,291c0,110.7,20,215.3,60,314l20,49l185,33
	c14.7,55.3,44.8,100.8,90.5,136.5c45.7,35.7,97.8,53.5,156.5,53.5v32c0,9.3,3,17,9,23s13.7,9,23,9h64c9.3,0,17-3,23-9s9-13.7,9-23
	V396c0-9.3-3-17-9-23s-13.7-9-23-9h-64c-9.3,0-17,3-23,9s-9,13.7-9,23v32c-47.3,0-90.7,11.8-130,35.5S971.7,519,949,559l-68-12
	c-19.3-63.3-29-127.7-29-193c0-98.7,29.3-191.7,88-279s137.5-157,236.5-209s204.2-78,315.5-78c111.3,0,216.5,26,315.5,78
	S1985.3-12.3,2044,75c58.7,87.3,88,180.3,88,279c0,65.3-9.7,129.7-29,193l-68,12c-22.7-40-53.7-71.8-93-95.5s-82.7-35.5-130-35.5
	v-32c0-9.3-3-17-9-23s-13.7-9-23-9h-64c-9.3,0-17,3-23,9s-9,13.7-9,23v576c0,9.3,3,17,9,23s13.7,9,23,9h64c9.3,0,17-3,23-9
	s9-13.7,9-23v-32c58.7,0,110.8-17.8,156.5-53.5s75.8-81.2,90.5-136.5l185-33l20-49c40-98.7,60-203.3,60-314
	C2324,253.3,2301.7,156.3,2257,63z"/>
</svg>
