<svg xmlns="http://www.w3.org/2000/svg" x="0px" y="0px" viewBox="596 -596 1792 1792" style="enable-background:new 596 -596 1792 1792;">
<path d="M660-596c-53.3,0-98.7,18.7-136,56s-56,82.7-56,136v32c0,68.7,21.7,129.3,65,182c5.3,66,32.5,121.5,81.5,166.5
	S721.3,44,788,44h686l-42,128h-420c-79.3,0-147.2,28.2-203.5,84.5C752.2,312.8,724,380.7,724,460v32c0,53.3,18.7,98.7,56,136
	c37.3,37.3,82.7,56,136,56h546l286,143v177c0,53.3,18.7,98.7,56,136s82.7,56,136,56h384c53.3,0,98.7-18.7,136-56
	c37.3-37.3,56-82.7,56-136V649c0-133.3-39.3-253-118-359l-572-781c-24-32.7-54.3-58.3-91-77s-75.3-28-116-28H660z M2369,1049
	c-12.7,12.7-27.7,19-45,19h-384c-17.3,0-32.3-6.3-45-19s-19-27.7-19-45V807c0-18-4.8-34.7-14.5-50s-22.5-27.3-38.5-36l-317-158
	c-8.7-4.7-18.3-7-29-7H916c-17.3,0-32.3-6.3-45-19c-12.7-12.7-19-27.7-19-45v-32c0-44,15.7-81.7,47-113c31.3-31.3,69-47,113-47h443
	c20.7,0,39.3-6.2,56-18.5s28.3-28.2,35-47.5l64-192c3.3-10,5-20,5-30c0-26.7-9.3-49.3-28-68s-41.3-28-68-28h-91H788
	c-30,0-57-9.7-81-29s-38.7-43.7-44-73c-2-9.3-3-28.7-3-58c0-17.3,6.3-32.3,19-45s27.7-19,45-19h832v-32H724
	c-20.7,0-39.5,6.3-56.5,19s-28.8,29.3-35.5,50c-11.3-13.3-19.7-27.7-25-43s-8.5-28.8-9.5-40.5S596-382.7,596-404
	c0-17.3,6.3-32.3,19-45s27.7-19,45-19h959c42.7,0,77,17.3,103,52l573,781c62,84.7,93,179.3,93,284v355
	C2388,1021.3,2381.7,1036.3,2369,1049z"/>
</svg>
