<svg xmlns="http://www.w3.org/2000/svg" x="0px" y="0px" viewBox="596 -596 1792 1792" style="enable-background:new 596 -596 1792 1792;">
<path d="M1819,393l-56-112l-146,485c-4,13.3-11.7,24.3-23,33c-11.3,8.7-24,13-38,13c-14.7,0-27.7-4.3-39-13c-11.3-8.7-19-19.7-23-33
	L1304,99l-70,281c-3.3,14-10.8,25.5-22.5,34.5c-11.7,9-24.8,13.5-39.5,13.5H803c10.7,12,17.7,18.7,21,20l624,602
	c12,12,26.7,18,44,18c17.3,0,32-6,44-18l623-600l3-4c2.7-2,5.7-4.5,9-7.5c3.3-3,6.7-6.5,10-10.5h-305C1850,428,1831,416.3,1819,393z
	 M2261-344c-84.7-82.7-201.7-124-351-124c-41.3,0-83.5,7.2-126.5,21.5s-83,33.7-120,58s-68.8,47.2-95.5,68.5c-26.7,21.3-52,44-76,68
	c-24-24-49.3-46.7-76-68c-26.7-21.3-58.5-44.2-95.5-68.5s-77-43.7-120-58S1115.3-468,1074-468c-149.3,0-266.3,41.3-351,124
	S596-146.7,596,0c0,96.7,34.3,196.7,103,300h423l116-464c3.3-14,10.7-25.5,22-34.5c11.3-9,24.3-13.5,39-13.5
	c14.7,0,27.8,4.3,39.5,13c11.7,8.7,19.5,19.7,23.5,33l196,686l129-430c7.3-27.3,26-42.7,56-46c12.7-1.3,24.8,1.3,36.5,8
	s20.2,15.7,25.5,27l111,221h369c68.7-103.3,103-203.3,103-300C2388-146.7,2345.7-261.3,2261-344z"/>
</svg>
