<svg xmlns="http://www.w3.org/2000/svg" x="0px" y="0px" viewBox="596 -596 1792 1792" style="enable-background:new 596 -596 1792 1792;">
<path d="M1923.5-47.5C1884.5-71.8,1842-84,1796-84c-14,0-30,1.7-48,5v-261c0-70.7-25-131-75-181s-110.3-75-181-75
	c-70.7,0-131,25-181,75s-75,110.3-75,181v113l-17-44c-18.7-49.3-49.8-89.2-93.5-119.5S1033.3-436,980-436c-70.7,0-131,25-181,75
	s-75,110.3-75,181c0,30.7,5.7,61,17,91l239,628v401c0,70.7,25,131,75,181s110.3,75,181,75h668c58.7,0,111.2-18,157.5-54
	c46.3-36,76.5-82.7,90.5-140l85-339c15.3-61.3,23-123.3,23-186V300c0-108.7-47-184-141-226c-31.3-15.3-67-23-107-23
	C1992,9.7,1962.5-23.2,1923.5-47.5z M1875,77c22,22,33,48.3,33,79c0,17.3-3.3,32.7-10,46l-154,338c-6.7-32.7-23.3-59.5-50-80.5
	c-26.7-21-56.7-31.5-90-31.5h-55l71-155l74-163c9.3-20,23.2-36,41.5-48s38.5-18,60.5-18C1826.7,44,1853,55,1875,77z M2099,210.5
	c21.3,21,32,48.2,32,81.5c0,13.3-3,26-9,38l-160,352c-9.3,20-23.2,36-41.5,48s-38.5,18-60.5,18c-30.7,0-57-11-79-33s-33-48.3-33-79
	c0-17.3,3.3-32.7,10-46l132-290c8.7-18.7,14.3-31,17-37s8.3-16.2,17-30.5s16.5-24.2,23.5-29.5s16.7-10.7,29-16s25.8-8,40.5-8
	C2050.3,179,2077.7,189.5,2099,210.5z M889.5-270.5c25-25,55.2-37.5,90.5-37.5c26.7,0,51,7.5,73,22.5s37.7,34.8,47,59.5l200,526h64
	v-640c0-35.3,12.5-65.5,37.5-90.5s55.2-37.5,90.5-37.5c35.3,0,65.5,12.5,90.5,37.5s37.5,55.2,37.5,90.5v535l-106,233h-198
	c-42,0-77.3,15.3-106,46l-102,111v-69L860-134c-5.3-16-8-31.3-8-46C852-215.3,864.5-245.5,889.5-270.5z M1236,1068
	c-35.3,0-65.5-12.5-90.5-37.5S1108,975.3,1108,940V632l126-136c22-24,49.3-36,82-36h296c30.7,0,56.3,11,77,33c20.7,22,31,48.3,31,79
	c0,30.7-11.7,57-35,79c-23.3,22-50.3,33-81,33h-208v32h208c46.7,0,84.7-19,114-57c5.3,34.7,21.5,63.5,48.5,86.5s58.2,34.5,93.5,34.5
	c28,0,54-7.7,78-23s41.7-35.7,53-61l141-310v91c0,54.7-6.3,106.3-19,155l-85,339c-7.3,28.7-22.5,52-45.5,70s-49.2,27-78.5,27H1236z"
	/>
</svg>
