<svg xmlns="http://www.w3.org/2000/svg" x="0px" y="0px" viewBox="596 -596 1792 1792" style="enable-background:new 596 -596 1792 1792;">
<path d="M1333,428l64-256h254l-64,256H1333z M2349-104c-6.7-8-15-12-25-12h-311l78-312c2-10.7,0-20-6-28c-6.7-8-15-12-25-12h-224
	c-16.7,0-27.3,8-32,24l-81,328h-254l78-312c2-10.7,0-20-6-28c-6.7-8-15-12-25-12h-224c-16.7,0-27.3,8-32,24l-81,328H852
	c-17.3,0-27.7,8-31,24l-56,224c-2.7,9.3-0.7,18.7,6,28c6.7,8,15,12,25,12h311l-64,256H716c-16,0-26.3,8-31,24l-56,224
	c-2,10.7,0,20,6,28c6.7,8,15,12,25,12h311l-78,312c-2,10.7,0,20,6,28c6.7,8,15,12,25,12h225c16,0,26.3-8,31-24l81-328h254l-78,312
	c-2,10.7,0,20,6,28c6.7,8,15.3,12,26,12h224c16,0,26.3-8,31-24l81-328h327c17.3,0,27.7-8,31-24l56-224c2.7-9.3,0.7-18.7-6-28
	c-6.7-8-15-12-25-12h-311l64-256h327c16,0,26.3-8,31-24l56-224C2357-86.7,2355-96,2349-104z"/>
</svg>
