<svg xmlns="http://www.w3.org/2000/svg" x="0px" y="0px" viewBox="596 -596 1792 1792" style="enable-background:new 596 -596 1792 1792;">
<path d="M2314,1046c8-14.7,12-30.7,12-48c0-20-6-34.8-18-44.5s-25.8-14.8-41.5-15.5c-15.7-0.7-33.5-2.2-53.5-4.5s-35.3-6.8-46-13.5
	c-22.7-14-34-60.7-34-140l-1-943c0-92,11.7-145.7,35-161c10-6.7,24.7-10.8,44-12.5c19.3-1.7,36.5-2.7,51.5-3s28.3-5.2,40-14.5
	c11.7-9.3,17.5-24,17.5-44c0-17.3-4.2-33.3-12.5-48c-8.3-14.7-20.8-22-37.5-22c-28.7,0-71.7,1.2-129,3.5
	c-57.3,2.3-100.3,3.5-129,3.5c-29.3,0-73.3-1.2-132-3.5s-102.7-3.5-132-3.5c-16.7,0-29.2,7.3-37.5,22s-12.5,30.7-12.5,48
	c0,25.3,8.5,41.8,25.5,49.5s39,12,66,13s46.5,5.2,58.5,12.5c23.3,14,35,67.3,35,160l-1,320c0,14-0.3,24.7-1,32c-8.7,2-21.3,3-38,3
	h-699c-17.3,0-30.3-1-39-3c-0.7-7.3-1-18-1-32l-1-320c0-92.7,11.7-146,35-160c10-6.7,24.3-11,43-13c18.7-2,35.2-3.3,49.5-4
	c14.3-0.7,27.2-5.5,38.5-14.5c11.3-9,17-23.5,17-43.5c0-17.3-4.2-33.3-12.5-48c-8.3-14.7-20.8-22-37.5-22c-28,0-70.2,1.2-126.5,3.5
	S1011-461,983-461c-30.7,0-76.8-1.2-138.5-3.5S736.7-468,706-468c-16,0-28,7.3-36,22s-12,30.7-12,48c0,20.7,6,35.7,18,45
	s25.7,14,41,14s33,0.7,53,2s35,5.3,45,12c6,4,11.3,10,16,18s8.3,18.5,11,31.5s4.8,25.2,6.5,36.5s2.8,25.3,3.5,42s1.2,29.5,1.5,38.5
	c0.3,9,0.3,21.2,0,36.5c-0.3,15.3-0.5,24-0.5,26v813l1,57c0,80-11,127.7-33,143c-10,6.7-24,11.7-42,15s-33.8,5.8-47.5,7.5
	s-25.7,7.5-36,17.5s-15.5,25-15.5,45c0,16,4.2,31,12.5,45s20.2,21,35.5,21c28,0,70.3-1.2,127-3.5c56.7-2.3,99.3-3.5,128-3.5
	c30.7,0,76.8,1.2,138.5,3.5s108.2,3.5,139.5,3.5c16,0,28.2-7.3,36.5-22c8.3-14.7,12.5-30.7,12.5-48c0-20.7-6.7-35.8-20-45.5
	c-13.3-9.7-28.3-14.7-45-15c-16.7-0.3-35.7-1.5-57-3.5c-21.3-2-37.3-6.3-48-13c-24.7-14.7-37-69.3-37-164l1-371c0-14,0.3-24.3,1-31
	c8.7-2.7,25.7-4,51-4h675c24.7,0,41.3,1.3,50,4c0.7,6.7,1,17,1,31l1,391c0,79.3-11,126-33,140c-10.7,6.7-25.7,11.7-45,15
	s-36.3,5.7-51,7s-27.7,7-39,17s-17,25.3-17,46c0,16.7,4.3,31.8,13,45.5s21,20.5,37,20.5c29.3,0,73.3-1.2,132-3.5s102.7-3.5,132-3.5
	c30,0,74.5,1.2,133.5,3.5s103.2,3.5,132.5,3.5C2294,1068,2306,1060.7,2314,1046z"/>
</svg>
