<svg xmlns="http://www.w3.org/2000/svg" x="0px" y="0px" viewBox="596 -596 1792 1792" style="enable-background:new 596 -596 1792 1792;">
<path d="M1985,1049c-12.7,12.7-27.7,19-45,19s-32.3-6.3-45-19s-19-27.7-19-45s6.3-32.3,19-45s27.7-19,45-19s32.3,6.3,45,19
	s19,27.7,19,45S1997.7,1036.3,1985,1049z M2100,419.5c-21.3,65.7-42.7,130.2-64,193.5c-21.3,63.3-32,119-32,167v32h-640v-32
	c0-47.3-19-94-57-140c-16.7-20-52-53.7-106-101c-54-48-102.3-85.3-145-112c-14-8.7-35.7-21-65-37c-92.7-44-139-74-139-90
	c0-47.3,10.2-85.8,30.5-115.5S935.3,140,980,140c28.7,0,56.8,5,84.5,15s50.3,21,68,33s36,23,55,33s35.2,15,48.5,15v-576
	c0-33.3,12.8-63,38.5-89c25.7-26,55.5-39,89.5-39c34.7,0,64.7,12.7,90,38c25.3,25.3,38,55.3,38,90V-9c11.3-10,27.2-18.3,47.5-25
	c20.3-6.7,38.8-10,55.5-10c46,0,85.7,17.7,119,53c21.3-12,44.3-18,69-18s49.2,5.8,73.5,17.5S1898.3,36,1909,56c20-3.3,38.7-5,56-5
	c111.3,0,167,63,167,189C2132,294,2121.3,353.8,2100,419.5z M2179.5,8c-53.7-57.3-126.8-85.7-219.5-85c-51.3-40-110.7-60-178-60
	c-14.7,0-29,1-43,3c-38-22-77.7-34.3-119-37v-169c0-70-25.3-130.2-76-180.5c-50.7-50.3-111-75.5-181-75.5c-68.7,0-128.3,25.3-179,76
	s-76,110.7-76,180V34c-40-14.7-82.7-22-128-22c-81.3,0-144.3,27.2-189,81.5S724,216.7,724,300c0,25.3,5.8,48.5,17.5,69.5
	s28.2,39.3,49.5,55c21.3,15.7,42.3,29.2,63,40.5s44.7,23.7,72,37c27.3,13.3,48,24.3,62,33c36.7,23.3,79.7,56.7,129,100
	c2,1.3,7.7,6,17,14s16.5,14.3,21.5,19c5,4.7,12.2,11.5,21.5,20.5s16.8,17,22.5,24s11.7,14.5,18,22.5s11,15.8,14,23.5
	s4.5,14.8,4.5,21.5v288c0,35.3,12.5,65.5,37.5,90.5s55.2,37.5,90.5,37.5h640c35.3,0,65.5-12.5,90.5-37.5s37.5-55.2,37.5-90.5V780
	c0-39.3,19.7-113.7,59-223c46-126,69-233.3,69-322C2260,141,2233.2,65.3,2179.5,8z"/>
</svg>
