<svg xmlns="http://www.w3.org/2000/svg" x="0px" y="0px" viewBox="596 -596 1792 1792" style="enable-background:new 596 -596 1792 1792;">
<path d="M2067,391.5l-575-474l-575,474c0,0.7-0.2,1.7-0.5,3c-0.3,1.3-0.5,2.3-0.5,3v480c0,17.3,6.3,32.3,19,45
	c12.7,12.7,27.7,19,45,19h384v-384h256v384h384c17.3,0,32.3-6.3,45-19c12.7-12.7,19-27.7,19-45v-480
	C2068,394.8,2067.7,392.8,2067,391.5z M2298,305c-0.7-9-4.3-16.2-11-21.5l-219-182v-408c0-9.3-3-17-9-23s-13.7-9-23-9h-192
	c-9.3,0-17,3-23,9s-9,13.7-9,23v195l-244-204c-21.3-17.3-46.7-26-76-26c-29.3,0-54.7,8.7-76,26l-719,599c-6.7,5.3-10.3,12.5-11,21.5
	s1.7,16.8,7,23.5l62,74c5.3,6,12.3,9.7,21,11c8,0.7,16-1.7,24-7l692-577l692,577c5.3,4.7,12.3,7,21,7h3c8.7-1.3,15.7-5,21-11l62-74
	C2296.3,321.8,2298.7,314,2298,305z"/>
</svg>
