<svg xmlns="http://www.w3.org/2000/svg" x="0px" y="0px" viewBox="596 -596 1792 1792" style="enable-background:new 596 -596 1792 1792;">
<path d="M1416.5-444c20.3,16,33.5,36.7,39.5,62l164,682h127l145-602c6-25.3,19.2-46,39.5-62s43.2-24,68.5-24c32,0,58.7,11,80,33
	c21.3,22,32,48.7,32,80c0,9.3-1,18.7-3,28l-132,547h26l99-408c6-24.7,19.3-45.5,40-62.5c20.7-17,43.7-25.5,69-25.5
	c31.3,0,58,11,80,33s33,48.3,33,79c0,9.3-1,18-3,26l-116,478c-4.7,18.7-7.7,47.3-9,86c-1.3,38.7-4.7,68-10,88l-100,401
	c-5.3,21.3-16.7,38.8-34,52.5c-17.3,13.7-37,20.5-59,20.5h-694c-28,0-53.3-8.7-76-26L716,663c-37.3-28.7-56-65.3-56-110
	c0-34.7,12.5-64.2,37.5-88.5S752.3,428,787,428c28.7,0,54.3,8.7,77,26l307,230V457c0-2.7-10.7-48.7-32-138s-44-183.3-68-282
	s-37-152.3-39-161c-2.7-12-4-21.7-4-29c0-31.3,10.7-58.3,32-81s47.7-34,79-34c26,0,49.2,8,69.5,24c20.3,16,33.5,36.7,39.5,62
	l116,482h26l-150-624c-2-9.3-3-18.7-3-28c0-32,10.5-59.3,31.5-82s47.5-34,79.5-34C1373.3-468,1396.2-460,1416.5-444z M2130.5,1148.5
	c40.3-31.7,66.8-72.5,79.5-122.5l101-401c8.7-38,13-74,13-108c0-30,1.7-52.3,5-67l116-477c4.7-18,7-37,7-57c0-62-20.7-115.7-62-161
	c-41.3-45.3-93-71.3-155-78c-11.3-56.7-38.8-103-82.5-139c-43.7-36-94.5-54-152.5-54c-55.3,0-104.7,17.2-148,51.5
	s-71.7,78.5-85,132.5l-83,348l-103-428c-13.3-54-41.7-98.2-85-132.5c-43.3-34.3-92.7-51.5-148-51.5c-59.3,0-111.2,19.2-155.5,57.5
	c-44.3,38.3-71.2,86.5-80.5,144.5c-61.3,6.7-112,33-152,79s-60,100-60,162c0,16,2.3,35.7,7,59l123,512c-6.7-4.7-19.2-14.2-37.5-28.5
	c-18.3-14.3-31.2-24.2-38.5-29.5c-7.3-5.3-19-13-35-23s-29.7-16.8-41-20.5c-11.3-3.7-25.2-7.3-41.5-11c-16.3-3.7-32.8-5.5-49.5-5.5
	c-70,0-130,24.7-180,74s-75,109-75,179c0,41.3,9.5,80.7,28.5,118c19,37.3,45.2,68.7,78.5,94l507,380c45.3,34,96.3,51,153,51h694
	C2044.3,1196,2090.2,1180.2,2130.5,1148.5z"/>
</svg>
