<svg xmlns="http://www.w3.org/2000/svg" x="0px" y="0px" viewBox="596 -596 1792 1792" style="enable-background:new 596 -596 1792 1792;">
<path d="M1505-275c33.3,3.3,60.8,17.8,82.5,43.5c21.7,25.7,32.5,55.5,32.5,89.5v122h32v-128c0-30.7,11-57,33-79s48.3-33,79-33
	c6,0,13.7,0.7,23,2c26,5.3,47.3,18.8,64,40.5s25,45.8,25,72.5v125h32v-32c0-30.7,11-57,33-79s48.3-33,79-33c32,0,58.7,11.2,80,33.5
	c21.3,22.3,32,49.5,32,81.5v246c0,27.3-3.3,53-10,77l-108,436c-6.7,24-10,49.7-10,77v25c0,17.3-6.3,32.3-19,45s-27.7,19-45,19h-640
	c-17.3,0-32.3-6.3-45-19c-12.7-12.7-19-27.7-19-45c0-42-13-76-39-102L887,414c-23.3-23.3-35-50.7-35-82V108c0-30.7,11-57,33-79
	s48.3-33,79-33c32,0,58.7,11.2,80,33.5c21.3,22.3,32,49.5,32,81.5v172l32,30v-429c0-30.7,11-57,33-79s48.3-33,79-33
	c32,0,58.7,11.2,80,33.5c21.3,22.3,32,49.5,32,81.5v93h32v-128c0-35.3,12.5-65.5,37.5-90.5s55.2-37.5,90.5-37.5
	C1497.3-276,1501.7-275.7,1505-275z M1318-335c-30.7-14-63.3-21-98-21c-63.3,0-118.2,21.7-164.5,65c-46.3,43.3-71.5,96.7-75.5,160
	c-3.3-0.7-8.7-1-16-1c-66,0-122.5,23.5-169.5,70.5S724,42,724,108v224c0,68,25.3,126.3,76,175l308,296c0,56,18,103.5,54,142.5
	s82,58.5,138,58.5h640c53.3,0,98.7-18.7,136-56c37.3-37.3,56-82.7,56-136c0-31.3,2-55,6-71l109-436c8.7-38,13-74,13-108V-49
	c0-66.7-23.3-123.8-70-171.5c-46.7-47.7-103.3-71.5-170-71.5c-21.3,0-41,2.3-59,7c-22.7-32.7-51.3-58-86-76s-71.7-27-111-27
	c-44,0-85,11.3-123,34c-43.3-33.3-93-50-149-50C1424-404,1366-381,1318-335z"/>
</svg>
