<svg xmlns="http://www.w3.org/2000/svg" x="0px" y="0px" viewBox="596 -596 1792 1792" style="enable-background:new 596 -596 1792 1792;">
<path d="M2072,356l-580,559L911,355C786.3,230.3,724,112,724,0c0-54,7.2-101.7,21.5-143s32.7-74.2,55-98.5S850-285.7,882-301
	s63.3-25.7,94-31c30.7-5.3,63.3-8,98-8c34.7,0,72,8.5,112,25.5s76.8,38.3,110.5,64c33.7,25.7,62.5,49.7,86.5,72s44,42.8,60,61.5
	c12,14.7,28.3,22,49,22c20.7,0,37-7.3,49-22c16-18.7,36-39.2,60-61.5s52.8-46.3,86.5-72s70.5-47,110.5-64s77.3-25.5,112-25.5
	s67.3,2.7,98,8s62,15.7,94,31s59.2,35.2,81.5,59.5c22.3,24.3,40.7,57.2,55,98.5c14.3,41.3,21.5,89,21.5,143
	C2260,112,2197.3,230.7,2072,356z M2261-344c-84.7-82.7-201.7-124-351-124c-41.3,0-83.5,7.2-126.5,21.5s-83,33.7-120,58
	s-68.8,47.2-95.5,68.5c-26.7,21.3-52,44-76,68c-24-24-49.3-46.7-76-68c-26.7-21.3-58.5-44.2-95.5-68.5s-77-43.7-120-58
	S1115.3-468,1074-468c-149.3,0-266.3,41.3-351,124S596-146.7,596,0c0,44.7,7.8,90.7,23.5,138S653,225.7,673,259s42.7,65.8,68,97.5
	s43.8,53.5,55.5,65.5s20.8,20.7,27.5,26l624,602c12,12,26.7,18,44,18c17.3,0,32-6,44-18l623-600c152.7-152.7,229-302.7,229-450
	C2388-146.7,2345.7-261.3,2261-344z"/>
</svg>
