<svg xmlns="http://www.w3.org/2000/svg" x="0px" y="0px" viewBox="596 -596 1792 1792" style="enable-background:new 596 -596 1792 1792;">
<path d="M1635-435c22,22,33,48.3,33,79v656h32v-528c0-30.7,11-57,33-79s48.3-33,79-33s57,11,79,33s33,48.3,33,79v528h32V28
	c0-30.7,11-57,33-79s48.3-33,79-33c30.7,0,57,11,79,33s33,48.3,33,79v498c0,18-1.7,37.7-5,59l-76,405c-4.7,22.7-16,41.3-34,56
	s-38.3,22-61,22h-688c-42.7,0-76.7-17-102-51L830,505c-17.3-22.7-26-48.3-26-77c0-35.3,12.5-65.5,37.5-90.5S896.7,300,932,300
	c42.7,0,76.7,17,102,51l154,205V300v-528c0-30.7,11-57,33-79s48.3-33,79-33c30.7,0,57,11,79,33s33,48.3,33,79v528h32v-656
	c0-30.7,11-57,33-79s48.3-33,79-33C1586.7-468,1613-457,1635-435z M1430.5-560.5c-38.3,23.7-67.8,55.8-88.5,96.5
	c-12.7-2.7-26.7-4-42-4c-66,0-122.5,23.5-169.5,70.5S1060-294,1060-228v434c-33.3-22.7-76-34-128-34c-70.7,0-131,25-181,75
	s-75,110.3-75,181c0,57.3,17,108.7,51,154l384,512c24,31.3,54.2,56.2,90.5,74.5c36.3,18.3,74.5,27.5,114.5,27.5h688
	c54,0,101.8-17.3,143.5-52c41.7-34.7,67.2-78.3,76.5-131l76-404c5.3-28.7,8-56.3,8-83V28c0-70-25.2-128.3-75.5-175
	c-50.3-46.7-110.5-68-180.5-64v-17c0-66-23.5-122.5-70.5-169.5S1878-468,1812-468c-15.3,0-29.3,1.3-42,4
	c-20.7-40.7-50.2-72.8-88.5-96.5c-38.3-23.7-80.2-35.5-125.5-35.5C1510.7-596,1468.8-584.2,1430.5-560.5z"/>
</svg>
