<svg xmlns="http://www.w3.org/2000/svg" x="0px" y="0px" viewBox="596 -596 1792 1792" style="enable-background:new 596 -596 1792 1792;">
<path d="M1536,1050l623-600c152.7-152.7,229-302.7,229-450c0-146.7-42.3-261.3-127-344c-84.7-82.7-201.7-124-351-124
	c-41.3,0-83.5,7.2-126.5,21.5s-83,33.7-120,58s-68.8,47.2-95.5,68.5c-26.7,21.3-52,44-76,68c-24-24-49.3-46.7-76-68
	c-26.7-21.3-58.5-44.2-95.5-68.5s-77-43.7-120-58S1115.3-468,1074-468c-149.3,0-266.3,41.3-351,124S596-146.7,596,0
	c0,44.7,7.8,90.7,23.5,138S653,225.7,673,259s42.7,65.8,68,97.5s43.8,53.5,55.5,65.5s20.8,20.7,27.5,26l624,602c12,12,26.7,18,44,18
	C1509.3,1068,1524,1062,1536,1050z"/>
</svg>
