<svg xmlns="http://www.w3.org/2000/svg" x="0px" y="0px" viewBox="596 -596 1792 1792" style="enable-background:new 596 -596 1792 1792;">
<path d="M1855,1045l339-85c57.3-14,104-44.2,140-90.5s54-98.8,54-157.5V44c0-70.7-25-131-75-181s-110.3-75-181-75h-401l-628-239
	c-30-11.3-60.3-17-91-17c-70.7,0-131,25-181,75s-75,110.3-75,181c0,53.3,15.2,101.8,45.5,145.5C831.8-22.8,871.7,8.3,921,27l44,17
	H852c-70.7,0-131,25-181,75s-75,110.3-75,181s25,131,75,181s110.3,75,181,75h261c-3.3,6.7-5,22.7-5,48c0,46,12.2,88.5,36.5,127.5
	c24.3,39,57.2,68.5,98.5,88.5v5c0,35.3,7.7,69.3,23,102c42,94,117.3,141,226,141h177C1731.7,1068,1793.7,1060.3,1855,1045z
	 M1620,412c0,33.3,10.5,63.3,31.5,90c21,26.7,47.8,43.3,80.5,50l-338,154c-13.3,6.7-28.7,10-46,10c-30.7,0-57-11-79-33
	s-33-48.3-33-79c0-22,6-42.2,18-60.5c12-18.3,28-32.2,48-41.5l163-74l155-71V412z M1922,728.5c-12,18.3-28,32.2-48,41.5l-352,160
	c-12,6-24.7,9-38,9c-33.3,0-60.5-10.7-81.5-32s-31.5-48.7-31.5-82c0-14.7,2.7-28.2,8-40.5c5.3-12.3,10.7-22,16-29
	c5.3-7,15.2-14.8,29.5-23.5c14.3-8.7,24.5-14.3,30.5-17s18.3-8.3,37-17l290-132c13.3-6.7,28.7-10,46-10c30.7,0,57,11,79,33
	s33,48.3,33,79C1940,690,1934,710.2,1922,728.5z M1777-84L1666,18c-30.7,28.7-46,64-46,106v198l-233,106H852
	c-35.3,0-65.5-12.5-90.5-37.5S724,335.3,724,300s12.5-65.5,37.5-90.5S816.7,172,852,172h640v-64L966-92c-24.7-9.3-44.5-25-59.5-47
	S884-185.3,884-212c0-35.3,12.5-65.5,37.5-90.5S976.7-340,1012-340c14.7,0,30,2.7,46,8l650,248H1777z M1578,940l310-141
	c25.3-11.3,45.7-29,61-53s23-50,23-78c0-35.3-11.5-66.5-34.5-93.5s-51.8-43.2-86.5-48.5c38-29.3,57-67.3,57-114V204h-32v208
	c0,30.7-11,57.7-33,81c-22,23.3-48.3,35-79,35s-57-10.3-79-31c-22-20.7-33-46.3-33-77V124c0-32.7,12-60,36-82l136-126h308
	c35.3,0,65.5,12.5,90.5,37.5S2260,8.7,2260,44v668c0,29.3-9,55.5-27,78.5s-41.3,38.2-70,45.5l-339,85c-48.7,12.7-100.3,19-155,19
	H1578z"/>
</svg>
