<svg xmlns="http://www.w3.org/2000/svg" x="0px" y="0px" viewBox="596 -596 1792 1792" style="enable-background:new 596 -596 1792 1792;">
<path d="M833,793c-12.7,12.7-27.7,19-45,19s-32.3-6.3-45-19s-19-27.7-19-45s6.3-32.3,19-45s27.7-19,45-19s32.3,6.3,45,19
	s19,27.7,19,45S845.7,780.3,833,793z M2222,262c-25.3,25.3-55.3,38-90,38h-331c10,11.3,18.3,27.2,25,47.5s10,38.8,10,55.5
	c0,46-17.7,85.7-53,119c12,21.3,18,44.3,18,69c0,24.7-5.8,49.2-17.5,73.5S1756,706.3,1736,717c3.3,20,5,38.7,5,56
	c0,111.3-63,167-189,167c-54,0-113.8-10.7-179.5-32c-65.7-21.3-130.2-42.7-193.5-64c-63.3-21.3-119-32-167-32h-32V172h32
	c47.3,0,94-19,140-57c20-16.7,53.7-52,101-106c48-54,85.3-102.3,112-145c8.7-14,21-35.7,37-65c44-92.7,74-139,90-139
	c47.3,0,85.8,10.2,115.5,30.5s44.5,52.8,44.5,97.5c0,28.7-5,56.8-15,84.5s-21,50.3-33,68s-23,36-33,55s-15,35.2-15,48.5h576
	c33.3,0,63,12.8,89,38.5s39,55.5,39,89.5C2260,206.7,2247.3,236.7,2222,262z M2312-8c-50.7-50.7-110.7-76-180-76h-374
	c14.7-40,22-82.7,22-128c0-81.3-27.2-144.3-81.5-189s-123.2-67-206.5-67c-25.3,0-48.5,5.8-69.5,17.5s-39.3,28.2-55,49.5
	c-15.7,21.3-29.2,42.3-40.5,63c-11.3,20.7-23.7,44.7-37,72c-13.3,27.3-24.3,48-33,62c-23.3,36.7-56.7,79.7-100,129
	c-1.3,2-6,7.7-14,17s-14.3,16.5-19,21.5c-4.7,5-11.5,12.2-20.5,21.5s-17,16.8-24,22.5s-14.5,11.7-22.5,18s-15.8,11-23.5,14
	S1018.7,44,1012,44H724c-35.3,0-65.5,12.5-90.5,37.5S596,136.7,596,172v640c0,35.3,12.5,65.5,37.5,90.5S688.7,940,724,940h288
	c39.3,0,113.7,19.7,223,59c126,46,233.3,69,322,69c94,0,169.7-26.8,227-80.5c57.3-53.7,85.7-126.8,85-219.5c40-51.3,60-110.7,60-178
	c0-14.7-1-29-3-43c22-38,34.3-77.7,37-119h169c70,0,130.2-25.3,180.5-76c50.3-50.7,75.5-111,75.5-181C2388,102.3,2362.7,42.7,2312-8
	z"/>
</svg>
