<svg xmlns="http://www.w3.org/2000/svg" x="0px" y="0px" viewBox="596 -596 1792 1792" style="enable-background:new 596 -596 1792 1792;">
<path d="M1740.5,563.5c-15.7-15.7-34.5-23.5-56.5-23.5s-40.8,7.8-56.5,23.5c-15.7,15.7-23.5,34.5-23.5,56.5s7.8,40.8,23.5,56.5
	c15.7,15.7,34.5,23.5,56.5,23.5s40.8-7.8,56.5-23.5c15.7-15.7,23.5-34.5,23.5-56.5S1756.2,579.2,1740.5,563.5z M1996.5,563.5
	c-15.7-15.7-34.5-23.5-56.5-23.5s-40.8,7.8-56.5,23.5c-15.7,15.7-23.5,34.5-23.5,56.5s7.8,40.8,23.5,56.5
	c15.7,15.7,34.5,23.5,56.5,23.5s40.8-7.8,56.5-23.5c15.7-15.7,23.5-34.5,23.5-56.5S2012.2,579.2,1996.5,563.5z M2122.5,802.5
	c-6.3,6.3-13.8,9.5-22.5,9.5H884c-8.7,0-16.2-3.2-22.5-9.5S852,788.7,852,780V460c0-8.7,3.2-16.2,9.5-22.5s13.8-9.5,22.5-9.5h1216
	c8.7,0,16.2,3.2,22.5,9.5c6.3,6.3,9.5,13.8,9.5,22.5v320C2132,788.7,2128.8,796.2,2122.5,802.5z M1059-182c2.7-8.7,8-15.8,16-21.5
	s16.7-8.5,26-8.5h782c9.3,0,18,2.8,26,8.5s13.3,12.8,16,21.5l157,482H902L1059-182z M2244,385l-197-606c-11.3-35.3-32.3-64-63-86
	s-64.3-33-101-33h-782c-36.7,0-70.3,11-101,33c-30.7,22-51.7,50.7-63,86L740,385c-10.7,33.3-16,58.3-16,75v320
	c0,44,15.7,81.7,47,113s69,47,113,47h1216c44,0,81.7-15.7,113-47c31.3-31.3,47-69,47-113V460C2260,443.3,2254.7,418.3,2244,385z"/>
</svg>
