<svg xmlns="http://www.w3.org/2000/svg" x="0px" y="0px" viewBox="596 -596 1792 1792" style="enable-background:new 596 -596 1792 1792;">
<path d="M476,436.1c-10.7-21.3-10.7-42.7,0-64s29.3-32,56-32s45.3,10.7,56,32c10.7,21.3,10.7,42.7,0,64c-10.7,21.3-29.3,32-56,32
	S486.7,457.5,476,436.1z M2035.5,483.6c2.3,26.3-1.7,50.2-12,71.5c-10.3,21.3-26.8,39-49.5,53s-48.3,21-77,21c-22,0-36.3-3.3-43-10
	c1.3,15.3-3.3,32.2-14,50.5c-10.7,18.3-22.7,33.5-36,45.5c-35.3,33.3-77.7,48-127,44c-11.3,38-35.5,66.3-72.5,85
	c-37,18.7-74.5,21.3-112.5,8c-31.3,31.3-73,47-125,47c-74.7,0-150.3-37-227-111l-297-292c-5.3-5.3-11.5-9.8-18.5-13.5
	s-12.8-6.5-17.5-8.5c-4.7-2-11.5-3.5-20.5-4.5s-15.5-1.7-19.5-2s-11.3-0.3-22,0c-10.7,0.3-17.7,0.5-21,0.5v-544h155l158-158
	c44-44,96.7-66,158-66c7.3,0,23.7-0.3,49-1c25.3-0.7,44.2-0.8,56.5-0.5c12.3,0.3,28.2,2.3,47.5,6c19.3,3.7,36.3,9.2,51,16.5
	l-177,206c-38.7,45.3-58.2,97.7-58.5,157c-0.3,59.3,18.5,112,56.5,158c53.3,64,121.8,96.7,205.5,98c83.7,1.3,153.2-29.3,208.5-92
	l125-140c14.7,15.3,29.7,31.7,45,49s28.8,33,40.5,47s25.8,31.7,42.5,53s29.3,37.7,38,49s22.5,29.3,41.5,54
	c19,24.7,31.8,41.3,38.5,50C2023,432.8,2033.2,457.3,2035.5,483.6z M2104,328.1c-7.3-10-28.8-38.2-64.5-84.5
	c-35.7-46.3-63.2-81.5-82.5-105.5c-13.3-16-33.3-38.7-60-68s-45.3-50.3-56-63c6.7-20.7,3.8-39.5-8.5-56.5s-28-26-47-27
	s-36.8,6.2-53.5,21.5l-193,218c-29.3,33.3-66.3,49.7-111,49s-81.3-18-110-52c-18-22-27-47-27-75s9.3-53,28-75l209-243
	c38-44.7,86.7-67,146-67h167c68.7,0,125,25.3,169,76l157,180h93v512h-96C2158.7,418.8,2138.7,372.1,2104,328.1z M2396,436.1
	c-10.7-21.3-10.7-42.7,0-64s29.3-32,56-32s45.3,10.7,56,32s10.7,42.7,0,64s-29.3,32-56,32S2406.7,457.5,2396,436.1z M2625-152.9
	c-12.7-12.7-27.7-19-45-19h-355c-9.3-10.7-23.2-26.8-41.5-48.5c-18.3-21.7-32-37.7-41-48s-22-24.3-39-42s-31.3-30.8-43-39.5
	c-11.7-8.7-26.5-19-44.5-31s-35.2-20.8-51.5-26.5s-35.2-10.5-56.5-14.5s-43.7-6-67-6h-167c-66,0-126.3,18.7-181,56
	c-54.7-37.3-115-56-181-56h-117c-24,0-46.7,1.8-68,5.5c-21.3,3.7-42,10.2-62,19.5s-37,17.8-51,25.5s-30.8,20.2-50.5,37.5
	s-34.3,30.7-44,40s-25.5,25.3-47.5,48s-37.7,38.7-47,48H404c-17.3,0-32.3,6.3-45,19s-19,27.7-19,45v672c0,17.3,6.3,32.3,19,45
	c12.7,12.7,27.7,19,45,19h358l287,282c32,31.3,66.5,58.3,103.5,81c37,22.7,76,40.5,117,53.5s83.5,17.7,127.5,14
	c44-3.7,86-16.8,126-39.5c44,2.7,86.8-5.5,128.5-24.5s76.5-46.2,104.5-81.5c36.7-8,70.8-23.2,102.5-45.5
	c31.7-22.3,58.5-49.5,80.5-81.5c46.7-6.7,88.3-23.8,125-51.5c36.7-27.7,64-63.2,82-106.5h434c17.3,0,32.3-6.3,45-19
	c12.7-12.7,19-27.7,19-45v-640C2644-125.2,2637.7-140.2,2625-152.9z"/>
</svg>
