<svg xmlns="http://www.w3.org/2000/svg" x="0px" y="0px" viewBox="596 -596 1792 1792" style="enable-background:new 596 -596 1792 1792;">
<path d="M2228-468c9.3,0,17-3,23-9s9-13.7,9-23v-64c0-9.3-3-17-9-23s-13.7-9-23-9H756c-9.3,0-17,3-23,9s-9,13.7-9,23v64
	c0,9.3,3,17,9,23s13.7,9,23,9h96c0,174,35.5,327.8,106.5,461.5S1118.3,229.3,1225,300c-106.7,70.7-195.5,172.8-266.5,306.5
	S852,894,852,1068h-96c-9.3,0-17,3-23,9s-9,13.7-9,23v64c0,9.3,3,17,9,23s13.7,9,23,9h1472c9.3,0,17-3,23-9s9-13.7,9-23v-64
	c0-9.3-3-17-9-23s-13.7-9-23-9h-96c0-174-35.5-327.8-106.5-461.5S1865.7,370.7,1759,300c106.7-70.7,195.5-172.8,266.5-306.5
	S2132-294,2132-468H2228z M1995-340H989c-6-41.3-9-84-9-128h1024C2004-423.3,2001-380.7,1995-340z M980,1068
	c0-86.7,11.3-169.8,34-249.5c22.7-79.7,52.8-149,90.5-208s79.8-109.7,126.5-152s95.3-73.8,146-94.5h230
	c50.7,20.7,99.3,52.2,146,94.5c46.7,42.3,88.8,93,126.5,152s67.8,128.3,90.5,208s34,162.8,34,249.5H980z"/>
</svg>
