<svg xmlns="http://www.w3.org/2000/svg" x="0px" y="0px" viewBox="596 -596 1792 1792" style="enable-background:new 596 -596 1792 1792;">
<path d="M1162.5,693.5c-6.3-6.3-13.8-9.5-22.5-9.5h-64c-8.7,0-16.2,3.2-22.5,9.5s-9.5,13.8-9.5,22.5v64c0,8.7,3.2,16.2,9.5,22.5
	s13.8,9.5,22.5,9.5h64c8.7,0,16.2-3.2,22.5-9.5s9.5-13.8,9.5-22.5v-64C1172,707.3,1168.8,699.8,1162.5,693.5z M1162.5,437.5
	c-6.3-6.3-13.8-9.5-22.5-9.5h-64c-8.7,0-16.2,3.2-22.5,9.5s-9.5,13.8-9.5,22.5v64c0,8.7,3.2,16.2,9.5,22.5
	c6.3,6.3,13.8,9.5,22.5,9.5h64c8.7,0,16.2-3.2,22.5-9.5c6.3-6.3,9.5-13.8,9.5-22.5v-64C1172,451.3,1168.8,443.8,1162.5,437.5z
	 M1418.5,437.5c-6.3-6.3-13.8-9.5-22.5-9.5h-64c-8.7,0-16.2,3.2-22.5,9.5c-6.3,6.3-9.5,13.8-9.5,22.5v64c0,8.7,3.2,16.2,9.5,22.5
	c6.3,6.3,13.8,9.5,22.5,9.5h64c8.7,0,16.2-3.2,22.5-9.5c6.3-6.3,9.5-13.8,9.5-22.5v-64C1428,451.3,1424.8,443.8,1418.5,437.5z
	 M1162.5,181.5c-6.3-6.3-13.8-9.5-22.5-9.5h-64c-8.7,0-16.2,3.2-22.5,9.5s-9.5,13.8-9.5,22.5v64c0,8.7,3.2,16.2,9.5,22.5
	s13.8,9.5,22.5,9.5h64c8.7,0,16.2-3.2,22.5-9.5s9.5-13.8,9.5-22.5v-64C1172,195.3,1168.8,187.8,1162.5,181.5z M1930.5,693.5
	c-6.3-6.3-13.8-9.5-22.5-9.5h-64c-8.7,0-16.2,3.2-22.5,9.5s-9.5,13.8-9.5,22.5v64c0,8.7,3.2,16.2,9.5,22.5s13.8,9.5,22.5,9.5h64
	c8.7,0,16.2-3.2,22.5-9.5s9.5-13.8,9.5-22.5v-64C1940,707.3,1936.8,699.8,1930.5,693.5z M1674.5,437.5c-6.3-6.3-13.8-9.5-22.5-9.5
	h-64c-8.7,0-16.2,3.2-22.5,9.5c-6.3,6.3-9.5,13.8-9.5,22.5v64c0,8.7,3.2,16.2,9.5,22.5c6.3,6.3,13.8,9.5,22.5,9.5h64
	c8.7,0,16.2-3.2,22.5-9.5c6.3-6.3,9.5-13.8,9.5-22.5v-64C1684,451.3,1680.8,443.8,1674.5,437.5z M1418.5,181.5
	c-6.3-6.3-13.8-9.5-22.5-9.5h-64c-8.7,0-16.2,3.2-22.5,9.5c-6.3,6.3-9.5,13.8-9.5,22.5v64c0,8.7,3.2,16.2,9.5,22.5
	c6.3,6.3,13.8,9.5,22.5,9.5h64c8.7,0,16.2-3.2,22.5-9.5c6.3-6.3,9.5-13.8,9.5-22.5v-64C1428,195.3,1424.8,187.8,1418.5,181.5z
	 M1930.5,437.5c-6.3-6.3-13.8-9.5-22.5-9.5h-64c-8.7,0-16.2,3.2-22.5,9.5s-9.5,13.8-9.5,22.5v64c0,8.7,3.2,16.2,9.5,22.5
	c6.3,6.3,13.8,9.5,22.5,9.5h64c8.7,0,16.2-3.2,22.5-9.5c6.3-6.3,9.5-13.8,9.5-22.5v-64C1940,451.3,1936.8,443.8,1930.5,437.5z
	 M1674.5,181.5c-6.3-6.3-13.8-9.5-22.5-9.5h-64c-8.7,0-16.2,3.2-22.5,9.5c-6.3,6.3-9.5,13.8-9.5,22.5v64c0,8.7,3.2,16.2,9.5,22.5
	c6.3,6.3,13.8,9.5,22.5,9.5h64c8.7,0,16.2-3.2,22.5-9.5c6.3-6.3,9.5-13.8,9.5-22.5v-64C1684,195.3,1680.8,187.8,1674.5,181.5z
	 M1930.5,181.5c-6.3-6.3-13.8-9.5-22.5-9.5h-64c-8.7,0-16.2,3.2-22.5,9.5s-9.5,13.8-9.5,22.5v64c0,8.7,3.2,16.2,9.5,22.5
	s13.8,9.5,22.5,9.5h64c8.7,0,16.2-3.2,22.5-9.5s9.5-13.8,9.5-22.5v-64C1940,195.3,1936.8,187.8,1930.5,181.5z M1684,844
	c0-8.7-3.2-16.2-9.5-22.5c-6.3-6.3-13.8-9.5-22.5-9.5h-320c-8.7,0-16.2,3.2-22.5,9.5c-6.3,6.3-9.5,13.8-9.5,22.5v224H916V-84h256v32
	c0,26.7,9.3,49.3,28,68s41.3,28,68,28h448c26.7,0,49.3-9.3,68-28c18.7-18.7,28-41.3,28-68v-32h256v1152h-384V844z M1674.5-93.5
	c-6.3,6.3-13.8,9.5-22.5,9.5h-64c-8.7,0-16.2-3.2-22.5-9.5c-6.3-6.3-9.5-13.8-9.5-22.5v-96h-128v96c0,8.7-3.2,16.2-9.5,22.5
	c-6.3,6.3-13.8,9.5-22.5,9.5h-64c-8.7,0-16.2-3.2-22.5-9.5c-6.3-6.3-9.5-13.8-9.5-22.5v-320c0-8.7,3.2-16.2,9.5-22.5
	c6.3-6.3,13.8-9.5,22.5-9.5h64c8.7,0,16.2,3.2,22.5,9.5c6.3,6.3,9.5,13.8,9.5,22.5v96h128v-96c0-8.7,3.2-16.2,9.5-22.5
	c6.3-6.3,13.8-9.5,22.5-9.5h64c8.7,0,16.2,3.2,22.5,9.5c6.3,6.3,9.5,13.8,9.5,22.5v320C1684-107.3,1680.8-99.8,1674.5-93.5z
	 M2177-193c-12.7-12.7-27.7-19-45-19h-320v-288c0-26.7-9.3-49.3-28-68c-18.7-18.7-41.3-28-68-28h-448c-26.7,0-49.3,9.3-68,28
	s-28,41.3-28,68v288H852c-17.3,0-32.3,6.3-45,19s-19,27.7-19,45v1280c0,17.3,6.3,32.3,19,45s27.7,19,45,19h1280
	c17.3,0,32.3-6.3,45-19c12.7-12.7,19-27.7,19-45V-148C2196-165.3,2189.7-180.3,2177-193z"/>
</svg>
