<svg xmlns="http://www.w3.org/2000/svg" x="0px" y="0px" viewBox="596 -596 1792 1792" style="enable-background:new 596 -596 1792 1792;">
<path d="M1805,844c-63.3,21.3-128,42.7-194,64s-127,32-183,32c-58,0-103.2-13.7-135.5-41c-32.3-27.3-48.5-69.3-48.5-126
	c0-21.3,1.3-40,4-56c-20-10.7-35.8-28.2-47.5-52.5c-11.7-24.3-17.5-48.8-17.5-73.5c0-24.7,6-47.7,18-69c-35.3-33.3-53-73-53-119
	c0-16.7,3.3-35.2,10-55.5c6.7-20.3,15-36.2,25-47.5H852c-34.7,0-64.7-12.7-90-38s-38-55.3-38-90c0-34,13-63.8,39-89.5
	S818.7,44,852,44h576c0-13.3-5-29.5-15-48.5s-21-37.3-33-55s-23-40.3-33-68s-15-55.8-15-84.5c0-44.7,14.8-77.2,44.5-97.5
	c29.7-20.3,68.2-30.5,115.5-30.5c5.3,0,11.5,3.8,18.5,11.5s14.2,17.8,21.5,30.5c7.3,12.7,14,24.5,20,35.5s12.2,23,18.5,36
	c6.3,13,9.8,20.5,10.5,22.5c16,30.7,28.7,53.3,38,68c26.7,42.7,64,91,112,145c1.3,1.3,2.8,3,4.5,5s3,3.5,4,4.5s2.2,2.5,3.5,4.5
	c19.3,22,35.7,40,49,54s30,29.3,50,46s40.8,29,62.5,37s44.2,12,67.5,12h32v640h-32C1924,812,1868.3,822.7,1805,844z M2241,793
	c-12.7,12.7-27.7,19-45,19c-17.3,0-32.3-6.3-45-19c-12.7-12.7-19-27.7-19-45s6.3-32.3,19-45c12.7-12.7,27.7-19,45-19
	c17.3,0,32.3,6.3,45,19c12.7,12.7,19,27.7,19,45S2253.7,780.3,2241,793z M2350.5,81.5c-25-25-55.2-37.5-90.5-37.5h-288
	c-6.7,0-13.8-1.5-21.5-4.5s-15.5-7.7-23.5-14s-15.5-12.3-22.5-18s-15-13.2-24-22.5s-15.8-16.5-20.5-21.5s-11-12.2-19-21.5
	s-12.7-15-14-17c-43.3-49.3-76.7-92.3-100-129c-8.7-14-19.7-34.7-33-62s-25.7-51.3-37-72s-24.8-41.7-40.5-63s-34-37.8-55-49.5
	S1517.3-468,1492-468c-83.3,0-152.2,22.3-206.5,67c-54.3,44.7-81.5,107.7-81.5,189c0,45.3,7.3,88,22,128H852
	c-69.3,0-129.3,25.3-180,76s-76,110.3-76,179c0,70,25.2,130.3,75.5,181S782,428,852,428h169c2.7,41.3,15,81,37,119
	c-2,14-3,28.3-3,43c0,68,20.3,127.3,61,178l-1,5c-0.7,93.3,28.3,165.8,87,217.5c58.7,51.7,135.3,77.5,230,77.5
	c84.7,0,190.3-23,317-69c109.3-39.3,183.7-59,223-59h288c35.3,0,65.5-12.5,90.5-37.5s37.5-55.2,37.5-90.5V172
	C2388,136.7,2375.5,106.5,2350.5,81.5z"/>
</svg>
