<svg xmlns="http://www.w3.org/2000/svg" x="0px" y="0px" viewBox="596 -596 1792 1792" style="enable-background:new 596 -596 1792 1792;">
<path d="M2091,499.5c-27.3,32.3-69.3,48.5-126,48.5c-21.3,0-40-1.3-56-4c-10.7,20-28.2,35.8-52.5,47.5
	c-24.3,11.7-48.8,17.5-73.5,17.5s-47.7-6-69-18c-33.3,35.3-73,53-119,53c-38,0-72.3-11.7-103-35v331c0,34.7-12.7,64.7-38,90
	c-25.3,25.3-55.3,38-90,38c-34,0-63.8-13-89.5-39c-25.7-26-38.5-55.7-38.5-89V364c-13.3,0-29.5,5-48.5,15s-37.3,21-55,33
	s-40.3,23-68,33s-55.8,15-84.5,15c-44.7,0-77.2-14.8-97.5-44.5C862.2,385.8,852,347.3,852,300c0-5.3,3.8-11.5,11.5-18.5
	s17.8-14.2,30.5-21.5s24.5-14,35.5-20s23-12.2,36-18.5S986,211.7,988,211c30.7-16,53.3-28.7,68-38c42.7-26.7,91-64,145-112
	c3.3-2.7,8-6.7,14-12c22-19.3,40-35.7,54-49s29.3-30,46-50c16.7-20,29-40.8,37-62.5s12-44.2,12-67.5v-32h640v32
	c0,48,10.7,103.7,32,167c21.3,63.3,42.7,128,64,194c21.3,66,32,127,32,183C2132,422,2118.3,467.2,2091,499.5z M1985-359
	c-12.7,12.7-27.7,19-45,19s-32.3-6.3-45-19s-19-27.7-19-45s6.3-32.3,19-45s27.7-19,45-19s32.3,6.3,45,19s19,27.7,19,45
	S1997.7-371.7,1985-359z M2191,43c-39.3-109.3-59-183.7-59-223v-288c0-35.3-12.5-65.5-37.5-90.5S2039.3-596,2004-596h-640
	c-35.3,0-65.5,12.5-90.5,37.5S1236-503.3,1236-468v288c0,6.7-1.5,13.8-4.5,21.5s-7.7,15.5-14,23.5s-12.3,15.5-18,22.5
	s-13.2,15-22.5,24s-16.5,15.8-21.5,20.5s-12.2,11-21.5,19s-15,12.7-17,14c-49.3,43.3-92.3,76.7-129,100c-14,8.7-34.7,19.7-62,33
	s-51.3,25.7-72,37s-41.7,24.8-63,40.5s-37.8,34-49.5,55S724,274.7,724,300c0,83.3,22.5,152.2,67.5,206.5S899.3,588,980,588
	c49.3,0,92-7.3,128-22v374c0,69.3,25.3,129.3,76,180s110.3,76,179,76c70,0,130.3-25.2,181-75.5c50.7-50.3,76-110.5,76-180.5V771
	c43.3-4.7,83-17,119-37c14,2,28.3,3,43,3c68,0,127.3-20.3,178-61l5,1c93.3,0.7,165.8-28.3,217.5-87c51.7-58.7,77.5-135.3,77.5-230
	C2260,275.3,2237,169.7,2191,43z"/>
</svg>
