<svg xmlns="http://www.w3.org/2000/svg" x="0px" y="0px" viewBox="596 -596 1792 1792" style="enable-background:new 596 -596 1792 1792;">
<path d="M1391-428.5c24.7,26.3,37,57.8,37,94.5v570h32v-96c0-35.3,12.5-65.5,37.5-90.5S1552.7,12,1588,12c36,0,66.3,13.2,91,39.5
	s37,57.8,37,94.5v90h32v-64c0-30.7,11-57,33-79s48.3-33,79-33c32,0,58.7,11.2,80,33.5s32,49.5,32,81.5v61h32c0-26.7,9.3-49.3,28-68
	c18.7-18.7,41.3-28,68-28c26.7,0,49.3,10,68,30c18.7,20,28,43.7,28,71v217c0,65.3-8,130-24,194l-92,368c-3.3,14-10.8,25.5-22.5,34.5
	c-11.7,9-24.8,13.5-39.5,13.5h-718c-42.7,0-76.7-17-102-51L814,505c-17.3-22.7-26-48.3-26-77c0-34.7,12.3-64.7,37-90s54.3-38,89-38
	c44,0,79.7,18,107,54l151,202V172v-512c0-35.3,12.5-65.5,37.5-90.5s55.2-37.5,90.5-37.5C1336-468,1366.3-454.8,1391-428.5z
	 M1119-521c-50,50-75,110.3-75,181v547c-39.3-23.3-82.7-35-130-35c-70,0-129.8,25.2-179.5,75.5S660,358,660,428
	c0,57.3,17,108.7,51,154l384,512c24,31.3,54.2,56.2,90.5,74.5c36.3,18.3,74.5,27.5,114.5,27.5h718c44,0,83.3-13.5,118-40.5
	c34.7-27,57.3-61.8,68-104.5l92-368c18.7-72.7,28-147.7,28-225V241c0-62.7-21.7-116.5-65-161.5c-43.3-45-96.3-67.5-159-67.5
	c-19.3,0-38,2.3-56,7c-47.3-58-108.7-87-184-87c-34.7,0-67.7,7-99,21c-49.3-46-107-69-173-69c-6.7,0-17.3,0.7-32,2v-220
	c0-71.3-24.8-132.8-74.5-184.5c-49.7-51.7-110.2-77.5-181.5-77.5C1229.3-596,1169-571,1119-521z M1396,812V428h32v384H1396z
	 M1652,812V428h32v384H1652z M1908,812V428h32v384H1908z"/>
</svg>
