<svg xmlns="http://www.w3.org/2000/svg" x="0px" y="0px" viewBox="596 -596 1792 1792" style="enable-background:new 596 -596 1792 1792;">
<path d="M756,1004c-9.3,0-17,3-23,9s-9,13.7-9,23v128c0,9.3,3,17,9,23s13.7,9,23,9h1472c9.3,0,17-3,23-9s9-13.7,9-23v-128
	c0-9.3-3-17-9-23s-13.7-9-23-9H756z M2130,940c-2-36.7-7.3-72.3-16-107c-8.7-34.7-18.7-66.3-30-95c-11.3-28.7-26.7-57.7-46-87
	c-19.3-29.3-37.2-54.7-53.5-76c-16.3-21.3-37.8-44.5-64.5-69.5s-48.7-45-66-60s-40.8-33.3-70.5-55S1731.7,353,1717,343
	c-14.7-10-36.3-24.3-65-43c28.7-18.7,50.3-33,65-43c14.7-10,36.8-25.8,66.5-47.5s53.2-40,70.5-55s39.3-35,66-60s48.2-48.2,64.5-69.5
	s34.2-46.7,53.5-76c19.3-29.3,34.7-58.3,46-87c11.3-28.7,21.3-60.3,30-95c8.7-34.7,14-70.3,16-107H854c2,36.7,7.3,72.3,16,107
	s18.7,66.3,30,95s26.7,57.7,46,87s37.2,54.7,53.5,76c16.3,21.3,37.8,44.5,64.5,69.5s48.7,45,66,60s40.8,33.3,70.5,55
	s51.8,37.5,66.5,47.5c14.7,10,36.3,24.3,65,43c-28.7,18.7-50.3,33-65,43c-14.7,10-36.8,25.8-66.5,47.5s-53.2,40-70.5,55
	s-39.3,35-66,60s-48.2,48.2-64.5,69.5c-16.3,21.3-34.2,46.7-53.5,76c-19.3,29.3-34.7,58.3-46,87s-21.3,60.3-30,95s-14,70.3-16,107
	H2130z M756-596c-9.3,0-17,3-23,9s-9,13.7-9,23v128c0,9.3,3,17,9,23s13.7,9,23,9h1472c9.3,0,17-3,23-9s9-13.7,9-23v-128
	c0-9.3-3-17-9-23s-13.7-9-23-9H756z"/>
</svg>
