<svg xmlns="http://www.w3.org/2000/svg" x="0px" y="0px" viewBox="596 -596 1792 1792" style="enable-background:new 596 -596 1792 1792;">
<path d="M2228-468c9.3,0,17-3,23-9s9-13.7,9-23v-64c0-9.3-3-17-9-23s-13.7-9-23-9H756c-9.3,0-17,3-23,9s-9,13.7-9,23v64
	c0,9.3,3,17,9,23s13.7,9,23,9h96c0,174,35.5,327.8,106.5,461.5S1118.3,229.3,1225,300c-106.7,70.7-195.5,172.8-266.5,306.5
	S852,894,852,1068h-96c-9.3,0-17,3-23,9s-9,13.7-9,23v64c0,9.3,3,17,9,23s13.7,9,23,9h1472c9.3,0,17-3,23-9s9-13.7,9-23v-64
	c0-9.3-3-17-9-23s-13.7-9-23-9h-96c0-174-35.5-327.8-106.5-461.5S1865.7,370.7,1759,300c106.7-70.7,195.5-172.8,266.5-306.5
	S2132-294,2132-468H2228z M1919-84h-854c-56.7-118.7-85-246.7-85-384h1024C2004-330.7,1975.7-202.7,1919-84z M1037,748
	c36-94,84.5-174.5,145.5-241.5S1308.3,392,1377,364h230c68.7,28,133.5,75.5,194.5,142.5S1911,654,1947,748H1037z"/>
</svg>
