<svg xmlns="http://www.w3.org/2000/svg" x="0px" y="0px" viewBox="596 -596 1792 1792" style="enable-background:new 596 -596 1792 1792;">
<path d="M2228-468c9.3,0,17-3,23-9s9-13.7,9-23v-64c0-9.3-3-17-9-23s-13.7-9-23-9H756c-9.3,0-17,3-23,9s-9,13.7-9,23v64
	c0,9.3,3,17,9,23s13.7,9,23,9h96c0,174,35.5,327.8,106.5,461.5S1118.3,229.3,1225,300c-106.7,70.7-195.5,172.8-266.5,306.5
	S852,894,852,1068h-96c-9.3,0-17,3-23,9s-9,13.7-9,23v64c0,9.3,3,17,9,23s13.7,9,23,9h1472c9.3,0,17-3,23-9s9-13.7,9-23v-64
	c0-9.3-3-17-9-23s-13.7-9-23-9h-96c0-174-35.5-327.8-106.5-461.5S1865.7,370.7,1759,300c106.7-70.7,195.5-172.8,266.5-306.5
	S2132-294,2132-468H2228z M1567.5,263.5c-7.7,11-11.5,23.2-11.5,36.5s3.8,25.5,11.5,36.5c7.7,11,17.8,18.8,30.5,23.5
	c91.3,34,172.7,99.3,244,196h-700c71.3-96.7,152.7-162,244-196c12.7-4.7,22.8-12.5,30.5-23.5c7.7-11,11.5-23.2,11.5-36.5
	s-3.8-25.5-11.5-36.5c-7.7-11-17.8-18.8-30.5-23.5c-51.3-19.3-101-50.2-149-92.5S1145.8,54.3,1107.5-5s-69.2-129.3-92.5-210
	c-23.3-80.7-35-165-35-253h1024c0,88-11.7,172.3-35,253s-54.2,150.7-92.5,210S1795,105.2,1747,147.5s-97.7,73.2-149,92.5
	C1585.3,244.7,1575.2,252.5,1567.5,263.5z"/>
</svg>
