<svg xmlns="http://www.w3.org/2000/svg" x="0px" y="0px" viewBox="596 -596 1792 1792" style="enable-background:new 596 -596 1792 1792;">
<path d="M1646,187v-13.5c0-1.7-0.3-5.2-1-10.5c-0.7-5.3-1.8-8.5-3.5-9.5c-1.7-1-3.8-2.8-6.5-5.5c-2.7-2.7-6.3-4.3-11-5
	c-4.7-0.7-10-1-16-1v309c5.3,5.3,10.7,4.8,16-1.5c5.3-6.3,9-8.2,11-5.5s4.2,0.2,6.5-7.5c2.3-7.7,3.5-11.5,3.5-11.5l1.5-12
	c0.3-2.7,0.3-7.7,0-15c-0.3-7.3-0.5-12.3-0.5-15V201V187z M1962,288v-9.5c0-1.7-0.2-4.3-0.5-8s-1-6.5-2-8.5s-2.3-4-4-6
	s-3.8-3.5-6.5-4.5s-6-1.5-10-1.5c-2-2.7-4.7-2.2-8,1.5s-5,5.5-5,5.5l-3.5,7c-1,5.7-1.5,8.5-1.5,8.5v9v8.5v7c0,103.3,1.3,158.3,4,165
	c3.3,6,8,9,14,9c5.3,0,9.8-1,13.5-3s6.2-5.5,7.5-10.5s2.2-8.8,2.5-11.5s0.3-7.8,0-15.5c-0.3-7.7-0.5-11.8-0.5-12.5V297V288z M904,61
	h122v472H904V61z M1338,214l-43,319h-76l-45-312v312h-107V61h158c8,48.7,18.7,122.3,32,221l28-221h159v472h-106V214z M1764,328
	c2,103.3-6.3,163.5-25,180.5c-18.7,17-84.3,25.2-197,24.5h-56V61h91h12h29.5c5.7,0,15.3,0.5,29,1.5c13.7,1,24,2.3,31,4
	s15.8,4.5,26.5,8.5c10.7,4,19,8.7,25,14s11.7,12.2,17,20.5c5.3,8.3,9,17.8,11,28.5c3.3,15.3,5,45.3,5,90
	C1763,253.3,1763.3,286.7,1764,328z M2064,508.5c-10.7,20.3-32.7,30.5-66,30.5c-31.3,0-57-12-77-36l-7,30h-110V61h117v154
	c20.7-22.7,46.3-34,77-34c19.3,0,34.7,2.5,46,7.5c11.3,5,19.5,13.3,24.5,25s8.2,22.8,9.5,33.5c1.3,10.7,2,25.7,2,45v133
	C2080,460.3,2074.7,488.2,2064,508.5z M2213-421c-31.3-31.3-69-47-113-47H884c-44,0-81.7,15.7-113,47s-47,69-47,113V908
	c0,44,15.7,81.7,47,113c31.3,31.3,69,47,113,47h1216c44,0,81.7-15.7,113-47c31.3-31.3,47-69,47-113V-308
	C2260-352,2244.3-389.7,2213-421z"/>
</svg>
