<svg xmlns="http://www.w3.org/2000/svg" x="0px" y="0px" viewBox="596 -596 1792 1792" style="enable-background:new 596 -596 1792 1792;">
<path d="M1906,239.5c-16.7-17-37-25.5-61-25.5h-702c-24,0-44.3,8.5-61,25.5c-16.7,17-25,37.2-25,60.5s8.3,43.5,25,60.5
	c16.7,17,37,25.5,61,25.5h702c24,0,44.3-8.5,61-25.5s25-37.2,25-60.5S1922.7,256.5,1906,239.5z M2093,553.5
	c-34.7,80.3-81,149.7-139,208s-127.3,104.7-208,139S1581,952,1493,952c-115.3,0-222.2-28-320.5-84c-98.3-56-176.8-131.7-235.5-227
	h908c24,0,44.3-8.3,61-25c16.7-16.7,25-37,25-61c0-23.3-8.3-43.3-25-60c-16.7-16.7-37-25-61-25H863c-15.3-56-23-112.7-23-170
	c0-118,29.2-227,87.5-327s137.7-179.2,238-237.5C1265.8-322.8,1375-352,1493-352c115.3,0,222,28,320,84s176.3,131.7,235,227h-908
	c-24,0-44.3,8.3-61,25c-16.7,16.7-25,37-25,61c0,23.3,8.3,43.3,25,60c16.7,16.7,37,25,61,25h982c15.3,56,23,112.7,23,170
	C2145,388.7,2127.7,473.2,2093,553.5z M2491-16c-16.7-16.7-37-25-61-25h-188c-66-144.7-166.5-261.3-301.5-350S1656.3-524,1493-524
	c-112,0-218.8,21.8-320.5,65.5c-101.7,43.7-189.2,102.3-262.5,176s-131.8,161.3-175.5,263S669,188.7,669,300
	c0,56.7,5.7,113.3,17,170H554c-24,0-44.3,8.3-61,25c-16.7,16.7-25,36.7-25,60c0,24,8.3,44.3,25,61c16.7,16.7,37,25,61,25h189
	c66,144.7,166.5,261.3,301.5,350s284.5,133,448.5,133c111.3,0,217.8-21.8,319.5-65.5c101.7-43.7,189.2-102.3,262.5-176
	c73.3-73.7,131.8-161.3,175.5-263c43.7-101.7,65.5-208.2,65.5-319.5c0-56.7-5.7-113.3-17-170h131c24,0,44.3-8.3,61-25
	c16.7-16.7,25-36.7,25-60C2516,21,2507.7,0.7,2491-16z"/>
</svg>
