<svg xmlns="http://www.w3.org/2000/svg" x="0px" y="0px" viewBox="596 -596 1792 1792" style="enable-background:new 596 -596 1792 1792;">
<path d="M1793,767c-12.7-12.7-27.7-19-45-19h-64V172c0-17.3-6.3-32.3-19-45s-27.7-19-45-19h-384c-17.3,0-32.3,6.3-45,19
	s-19,27.7-19,45v128c0,17.3,6.3,32.3,19,45s27.7,19,45,19h64v384h-64c-17.3,0-32.3,6.3-45,19s-19,27.7-19,45v128
	c0,17.3,6.3,32.3,19,45s27.7,19,45,19h512c17.3,0,32.3-6.3,45-19c12.7-12.7,19-27.7,19-45V812C1812,794.7,1805.7,779.7,1793,767z
	 M1665-385c-12.7-12.7-27.7-19-45-19h-256c-17.3,0-32.3,6.3-45,19s-19,27.7-19,45v192c0,17.3,6.3,32.3,19,45s27.7,19,45,19h256
	c17.3,0,32.3-6.3,45-19s19-27.7,19-45v-192C1684-357.3,1677.7-372.3,1665-385z"/>
</svg>
