<svg xmlns="http://www.w3.org/2000/svg" x="0px" y="0px" viewBox="596 -596 1792 1792" style="enable-background:new 596 -596 1792 1792;">
<path d="M1116-156c-37.3-37.3-82.7-56-136-56c-53.3,0-98.7,18.7-136,56c-37.3,37.3-56,82.7-56,136s18.7,98.7,56,136
	c37.3,37.3,82.7,56,136,56c53.3,0,98.7-18.7,136-56c37.3-37.3,56-82.7,56-136S1153.3-118.7,1116-156z M1780-52l-512,512l-160-160
	L788,620v192h1408V364L1780-52z M2314.5-330.5c6.3,6.3,9.5,13.8,9.5,22.5V908c0,8.7-3.2,16.2-9.5,22.5c-6.3,6.3-13.8,9.5-22.5,9.5
	H692c-8.7,0-16.2-3.2-22.5-9.5S660,916.7,660,908V-308c0-8.7,3.2-16.2,9.5-22.5s13.8-9.5,22.5-9.5h1600
	C2300.7-340,2308.2-336.8,2314.5-330.5z M2405-421c-31.3-31.3-69-47-113-47H692c-44,0-81.7,15.7-113,47s-47,69-47,113V908
	c0,44,15.7,81.7,47,113c31.3,31.3,69,47,113,47h1600c44,0,81.7-15.7,113-47c31.3-31.3,47-69,47-113V-308
	C2452-352,2436.3-389.7,2405-421z"/>
</svg>
