<svg xmlns="http://www.w3.org/2000/svg" x="0px" y="0px" viewBox="596 -596 1792 1792" style="enable-background:new 596 -596 1792 1792;">
<path d="M1652,556h-320l-95-192H921c0.7-1.3,1.5-4,2.5-8s1.8-6.7,2.5-8l212-496h708l212,496c0.7,2,1.5,4.7,2.5,8s1.8,6,2.5,8h-316
	L1652,556z M2235,271l-238-552c-6.7-16.7-18.8-30.7-36.5-42s-35.2-17-52.5-17h-832c-17.3,0-34.8,5.7-52.5,17s-29.8,25.3-36.5,42
	L749,271c-16.7,40.7-25,81.7-25,123v482c0,17.3,6.3,32.3,19,45s27.7,19,45,19h1408c17.3,0,32.3-6.3,45-19c12.7-12.7,19-27.7,19-45
	V394C2260,352.7,2251.7,311.7,2235,271z"/>
</svg>
