<svg xmlns="http://www.w3.org/2000/svg" x="0px" y="0px" viewBox="596 -596 1792 1792" style="enable-background:new 596 -596 1792 1792;">
<path d="M660-596c-17.3,0-32.3,6.3-45,19s-19,27.7-19,45v1664c0,17.3,6.3,32.3,19,45s27.7,19,45,19h1664c17.3,0,32.3-6.3,45-19
	c12.7-12.7,19-27.7,19-45V-20c0-17.3-6.3-32.3-19-45c-12.7-12.7-27.7-19-45-19c-15.3,0-28.7,4.7-40,14l-536,429V-20
	c0-17.3-6.3-32.3-19-45s-27.7-19-45-19c-15.3,0-28.7,4.7-40,14l-536,429v-891c0-17.3-6.3-32.3-19-45s-27.7-19-45-19H660z"/>
</svg>
