<svg xmlns="http://www.w3.org/2000/svg" x="0px" y="0px" viewBox="596 -596 1792 1792" style="enable-background:new 596 -596 1792 1792;">
<path d="M1729.5-157c-44.3-76-104.5-136.2-180.5-180.5S1390-404,1300-404H836c-9.3,0-17,3-23,9s-9,13.7-9,23V972c0,9.3,3,17,9,23
	s13.7,9,23,9h160c9.3,0,17-3,23-9s9-13.7,9-23V-180h272c74.7,0,138.7,26.7,192,80c53.3,53.3,80,117.3,80,192v496c0,9.3,3,17,9,23
	s13.7,9,23,9h160c9.3,0,17-3,23-9s9-13.7,9-23V92C1796,2,1773.8-81,1729.5-157z M2171-395c-6-6-13.7-9-23-9h-160c-9.3,0-17,3-23,9
	s-9,13.7-9,23v880c0,74.7-26.7,138.7-80,192s-117.3,80-192,80h-272V12c0-9.3-3-17-9-23s-13.7-9-23-9h-160c-9.3,0-17,3-23,9
	s-9,13.7-9,23v960c0,9.3,3,17,9,23s13.7,9,23,9h464c90,0,173-22.2,249-66.5S2069.2,833,2113.5,757c44.3-76,66.5-159,66.5-249v-880
	C2180-381.3,2177-389,2171-395z"/>
</svg>
