<svg xmlns="http://www.w3.org/2000/svg" x="0px" y="0px" viewBox="596 -596 1792 1792" style="enable-background:new 596 -596 1792 1792;">
<path d="M1332.5,709.5c-21,25.7-46.2,38.5-75.5,38.5H831c-29.3,0-54.5-12.8-75.5-38.5S724,652.7,724,616c0-36,2.5-69.5,7.5-100.5
	s13.2-61,24.5-90c11.3-29,28.3-51.8,51-68.5c22.7-16.7,49.7-25,81-25c42.7,42.7,94.7,64,156,64s113.3-21.3,156-64
	c31.3,0,58.3,8.3,81,25c22.7,16.7,39.7,39.5,51,68.5c11.3,29,19.5,59,24.5,90S1364,580,1364,616
	C1364,652.7,1353.5,683.8,1332.5,709.5z M1180,308c-37.3,37.3-82.7,56-136,56c-53.3,0-98.7-18.7-136-56s-56-82.7-56-136
	s18.7-98.7,56-136c37.3-37.3,82.7-56,136-56c53.3,0,98.7,18.7,136,56c37.3,37.3,56,82.7,56,136S1217.3,270.7,1180,308z M2251,675
	c-6,6-13.7,9-23,9h-704c-9.3,0-17-3-23-9s-9-13.7-9-23v-64c0-9.3,3-17,9-23s13.7-9,23-9h704c9.3,0,17,3,23,9s9,13.7,9,23v64
	C2260,661.3,2257,669,2251,675z M1867,419c-6,6-13.7,9-23,9h-320c-9.3,0-17-3-23-9s-9-13.7-9-23v-64c0-9.3,3-17,9-23s13.7-9,23-9
	h320c9.3,0,17,3,23,9s9,13.7,9,23v64C1876,405.3,1873,413,1867,419z M2251,419c-6,6-13.7,9-23,9h-192c-9.3,0-17-3-23-9s-9-13.7-9-23
	v-64c0-9.3,3-17,9-23s13.7-9,23-9h192c9.3,0,17,3,23,9s9,13.7,9,23v64C2260,405.3,2257,413,2251,419z M2251,163c-6,6-13.7,9-23,9
	h-704c-9.3,0-17-3-23-9s-9-13.7-9-23V76c0-9.3,3-17,9-23s13.7-9,23-9h704c9.3,0,17,3,23,9s9,13.7,9,23v64
	C2260,149.3,2257,157,2251,163z M596-308c0-9.3,3-17,9-23s13.7-9,23-9h1728c9.3,0,17,3,23,9s9,13.7,9,23v96H596V-308z M2469-421
	c-31.3-31.3-69-47-113-47H628c-44,0-81.7,15.7-113,47s-47,69-47,113V908c0,44,15.7,81.7,47,113c31.3,31.3,69,47,113,47h1728
	c44,0,81.7-15.7,113-47c31.3-31.3,47-69,47-113V-308C2516-352,2500.3-389.7,2469-421z"/>
</svg>
