<svg xmlns="http://www.w3.org/2000/svg" x="0px" y="0px" viewBox="596 -596 1792 1792" style="enable-background:new 596 -596 1792 1792;">
<path d="M1101,1055c61.3-6,109-9,143-9c45.3,0,114,0.7,206,2c18.7,0,47.3,3.3,86,10c38.7,6.7,67.7,10,87,10c7.3,0,18.2-0.5,32.5-1.5
	c14.3-1,25.2-1.5,32.5-1.5c8.7-36.7,14-69.7,16-99c-112-18-173.7-28.3-185-31l-1-18c-0.7-10,1.3-29.2,6-57.5
	c4.7-28.3,10-56.2,16-83.5s12.7-57.3,20-90c7.3-32.7,11.7-52,13-58c11.3-56,37.2-174.5,77.5-355.5S1720-48.3,1738-147
	c1.3-8.7,3.5-22.7,6.5-42s5.5-34.5,7.5-45.5s5-24.3,9-40s8.7-29.8,14-42.5c24.7-10,60.8-21.2,108.5-33.5
	c47.7-12.3,81.5-21.8,101.5-28.5c9.3-33.3,15.7-63,19-89c-18.7,1.3-51.5,3.5-98.5,6.5s-87.3,5.3-121,7c-33.7,1.7-66.5,2.5-98.5,2.5
	c-38.7,0-78.8-0.8-120.5-2.5c-41.7-1.7-91.5-4-149.5-7s-98-5.2-120-6.5l-19,103c12.7,2,32,3.8,58,5.5s49.2,4.3,69.5,8
	s38.5,9.8,54.5,18.5v25c0.7,23.3-16.7,122.2-52,296.5S1333.7,344,1293,532s-61.3,284.3-62,289c-8.7,44-22.3,77.7-41,101
	c-24,12-61.2,24.5-111.5,37.5S1001,979.7,997,981l-17,85C999.3,1064.7,1039.7,1061,1101,1055z"/>
</svg>
