<svg xmlns="http://www.w3.org/2000/svg" x="0px" y="0px" viewBox="596 -596 1792 1792" style="enable-background:new 596 -596 1792 1792;">
<path d="M1673,481c-50,50-110.3,75-181,75c-70.7,0-131-25-181-75s-75-110.3-75-181s25-131,75-181s110.3-75,181-75
	c70.7,0,131,25,181,75s75,110.3,75,181S1723,431,1673,481z M1771,21c-76.7-76.7-169.7-115-279-115c-109.3,0-202.3,38.3-279,115
	c-76.7,76.7-115,169.7-115,279s38.3,202.3,115,279s169.7,115,279,115c109.3,0,202.3-38.3,279-115c76.7-76.7,115-169.7,115-279
	S1847.7,97.7,1771,21z M1967-175c-18-18-39.7-27-65-27s-47,9-65,27s-27,39.7-27,65s9,47,27,65s39.7,27,65,27s47-9,65-27
	s27-39.7,27-65S1985-157,1967-175z M1568.5-330.5c46.3-0.3,81.5-0.3,105.5,0s56.2,1.3,96.5,3c40.3,1.7,74.7,5,103,10
	s52.2,11.2,71.5,18.5c33.3,13.3,62.7,32.7,88,58c25.3,25.3,44.7,54.7,58,88c7.3,19.3,13.5,43.2,18.5,71.5c5,28.3,8.3,62.7,10,103
	c1.7,40.3,2.7,72.5,3,96.5c0.3,24,0.3,59.2,0,105.5c-0.3,46.3-0.5,71.8-0.5,76.5s0.2,30.2,0.5,76.5c0.3,46.3,0.3,81.5,0,105.5
	c-0.3,24-1.3,56.2-3,96.5c-1.7,40.3-5,74.7-10,103s-11.2,52.2-18.5,71.5c-13.3,33.3-32.7,62.7-58,88c-25.3,25.3-54.7,44.7-88,58
	c-19.3,7.3-43.2,13.5-71.5,18.5s-62.7,8.3-103,10s-72.5,2.7-96.5,3s-59.2,0.3-105.5,0c-46.3-0.3-71.8-0.5-76.5-0.5
	c-4.7,0-30.2,0.2-76.5,0.5c-46.3,0.3-81.5,0.3-105.5,0s-56.2-1.3-96.5-3c-40.3-1.7-74.7-5-103-10s-52.2-11.2-71.5-18.5
	c-33.3-13.3-62.7-32.7-88-58s-44.7-54.7-58-88c-7.3-19.3-13.5-43.2-18.5-71.5c-5-28.3-8.3-62.7-10-103c-1.7-40.3-2.7-72.5-3-96.5
	s-0.3-59.2,0-105.5s0.5-71.8,0.5-76.5s-0.2-30.2-0.5-76.5s-0.3-81.5,0-105.5s1.3-56.2,3-96.5s5-74.7,10-103
	c5-28.3,11.2-52.2,18.5-71.5c13.3-33.3,32.7-62.7,58-88s54.7-44.7,88-58c19.3-7.3,43.2-13.5,71.5-18.5s62.7-8.3,103-10
	s72.5-2.7,96.5-3s59.2-0.3,105.5,0c46.3,0.3,71.8,0.5,76.5,0.5C1496.7-330,1522.2-330.2,1568.5-330.5z M2255-17
	c-6.7-138.7-48-246-124-322s-183.3-117.3-322-124c-58.7-3.3-164.3-5-317-5s-258.3,1.7-317,5c-138.7,6.7-246,48-322,124
	S735.7-155.7,729-17c-3.3,58.7-5,164.3-5,317s1.7,258.3,5,317c6.7,138.7,48,246,124,322s183.3,117.3,322,124c58.7,3.3,164.3,5,317,5
	s258.3-1.7,317-5c138.7-6.7,246-48,322-124s117.3-183.3,124-322c3.3-58.7,5-164.3,5-317S2258.3,41.7,2255-17z"/>
</svg>
