<svg xmlns="http://www.w3.org/2000/svg" x="0px" y="0px" viewBox="596 -596 1792 1792" style="enable-background:new 596 -596 1792 1792;">
<path d="M2287-49c50-113.3,75-208.7,75-286c0-44-8-82.3-24-115s-38.2-58.2-66.5-76.5c-28.3-18.3-59.8-31.8-94.5-40.5
	c-34.7-8.7-73.3-13-116-13c-118.7,0-263,39-433,117c-10-0.7-25-1-45-1c-187.3,0-354.5,58.5-501.5,175.5S840-21.7,798,161
	c162-183.3,304.3-301.3,427-354C1041-29,882.7,173,750,413c-61.3,112.7-97.7,189-109,229c-30,106.7-45,198.3-45,275
	c0,175.3,79,263,237,263c110.7,0,242-38.7,394-116c112.7,55.3,231.3,83,356,83c112,0,219-22.2,321-66.5s191.2-107.2,267.5-188.5
	c76.3-81.3,133.2-175,170.5-281h-423c-33.3,56-78.8,99.5-136.5,130.5S1663,788,1597,788c-98.7,0-184.5-32.8-257.5-98.5
	S1230,542.3,1230,445h1151c4.7-32,7-66.7,7-104C2388,202.3,2354.3,72.3,2287-49z M2267-83c-46-74-102.8-139.2-170.5-195.5
	c-67.7-56.3-141.8-100.2-222.5-131.5c97.3-46.7,182-70,254-70c56,0,101.7,16.3,137,49c35.3,32.7,53,76.7,53,132
	C2318-245,2301-173,2267-83z M822,606c30.7,89.3,76.5,171,137.5,245s132.2,135,213.5,183c-100.7,55.3-189.3,83-266,83
	c-57.3,0-102.2-15.5-134.5-46.5S724,995.3,724,938C724,853.3,756.7,742.7,822,606z M1340.5-12c71.7-63.3,155.5-95,251.5-95
	c95.3,0,179,31.7,251,95s109.7,142.3,113,237h-728C1231.3,130.3,1268.8,51.3,1340.5-12z"/>
</svg>
