<svg xmlns="http://www.w3.org/2000/svg" x="0px" y="0px" viewBox="596 -596 1792 1792" style="enable-background:new 596 -596 1792 1792;">
<path d="M1739,803c-6,6-13.7,9-23,9h-448c-9.3,0-17-3-23-9s-9-13.7-9-23V620c0-9.3,3-17,9-23s13.7-9,23-9h96V268h-96
	c-9.3,0-17-3-23-9s-9-13.7-9-23V76c0-9.3,3-17,9-23s13.7-9,23-9h320c9.3,0,17,3,23,9s9,13.7,9,23v512h96c9.3,0,17,3,23,9
	s9,13.7,9,23v160C1748,789.3,1745,797,1739,803z M1611-93c-6,6-13.7,9-23,9h-192c-9.3,0-17-3-23-9s-9-13.7-9-23v-160
	c0-9.3,3-17,9-23s13.7-9,23-9h192c9.3,0,17,3,23,9s9,13.7,9,23v160C1620-106.7,1617-99,1611-93z M2157-85.5
	c-68.7-117.7-161.8-210.8-279.5-279.5S1631.3-468,1492-468s-267.8,34.3-385.5,103S895.7-203.2,827-85.5S724,160.7,724,300
	s34.3,267.8,103,385.5S988.8,896.3,1106.5,965s246.2,103,385.5,103s267.8-34.3,385.5-103s210.8-161.8,279.5-279.5
	c68.7-117.7,103-246.2,103-385.5S2225.7,32.2,2157-85.5z"/>
</svg>
