<svg xmlns="http://www.w3.org/2000/svg" x="0px" y="0px" viewBox="596 -596 1792 1792" style="enable-background:new 596 -596 1792 1792;">
<path d="M1932-85c-6-6-13.7-9-23-9h-171c-11.3-55.3-32.7-103.3-64-144h233c9.3,0,17-3,23-9s9-13.7,9-23v-102c0-9.3-3-17-9-23
	s-13.7-9-23-9h-832c-9.3,0-17,3-23,9s-9,13.7-9,23v133c0,8.7,3.2,16.2,9.5,22.5s13.8,9.5,22.5,9.5h145c140.7,0,230,37.7,268,113
	h-413c-9.3,0-17,3-23,9s-9,13.7-9,23V40c0,9.3,3,17,9,23s13.7,9,23,9h427c-14.7,54.7-48.8,96.3-102.5,125S1275,240,1187,240h-112
	c-8.7,0-16.2,3.2-22.5,9.5s-9.5,13.8-9.5,22.5v127c0,8.7,3,16,9,22c128,136,294,326.3,498,571c6,8,14.3,12,25,12h195
	c14,0,23.7-6,29-18c6.7-12,5.3-23.3-4-34c-194.7-238.7-347.7-417.3-459-536c113.3-13.3,205.3-50,276-110s113.7-138,129-234h168
	c9.3,0,17-3,23-9s9-13.7,9-23V-62C1941-71.3,1938-79,1932-85z"/>
</svg>
