<svg xmlns="http://www.w3.org/2000/svg" x="0px" y="0px" viewBox="596 -596 1792 1792" style="enable-background:new 596 -596 1792 1792;">
<path d="M532-212v128h128c0,17.3,6.8,32.3,20.5,45s29.8,19,48.5,19h1526c18.7,0,34.8-6.3,48.5-19c13.7-12.7,20.5-27.7,20.5-45h128
	v-128l-960-384L532-212z M788,812h-59c-18.7,0-34.8,6.3-48.5,19S660,858.7,660,876v64h1664v-64c0-17.3-6.8-32.3-20.5-45
	c-13.7-12.7-29.8-19-48.5-19h-59V44h-256v768h-128V44h-256v768h-128V44h-256v768h-128V44H788V812z M601,1004
	c-18.7,0-34.8,6.3-48.5,19c-13.7,12.7-20.5,27.7-20.5,45v128h1920v-128c0-17.3-6.8-32.3-20.5-45c-13.7-12.7-29.8-19-48.5-19H601z"/>
</svg>
