<svg xmlns="http://www.w3.org/2000/svg" x="0px" y="0px" viewBox="596 -596 1792 1792" style="enable-background:new 596 -596 1792 1792;">
<path d="M1643,325l-161,160l-151,152l-30,30c-24.7,24.7-54.3,37-89,37c-34.7,0-64.3-12.3-89-37c-24.7-25.3-37-55.3-37-90
	c0-34.7,12.3-64.3,37-89l11-11L983,325l-12,12c-43.3,43.3-72.7,94-88,152s-15.7,115.7-1,173c-46,10.7-83.8,34.7-113.5,72
	S724,814,724,862c0,56.7,20,105.2,60,145.5c40,40.3,88.3,60.5,145,60.5c48.7,0,91.7-15,129-45s61.3-68.3,72-115
	c56.7,14,113.8,13.3,171.5-2c57.7-15.3,108.2-44.3,151.5-87l30-30l151-152l160-160L1643,325z M1303.5-292.5
	c-57-15.7-113.5-16.8-169.5-3.5c-8-49.3-31.2-90.3-69.5-123s-82.8-49-133.5-49c-56.7,0-105,20.2-145,60.5s-60,88.8-60,145.5
	c0,48.7,15,91.7,45,129s68.3,61,115,71c-18,58-19.7,117.8-5,179.5s44.7,114.8,90,159.5l30,30l151,152l161,160l151-152l-160-160
	l-152-152l-29-29c-24.7-24.7-37-54.5-37-89.5s12.3-64.8,37-89.5s54.3-37,89-37c34.7,0,64.3,12.3,89,37l12,12l152-152l-12-12
	C1410.3-247.7,1360.5-276.8,1303.5-292.5z M2209.5,727.5c-33.7-38.3-75.8-61.2-126.5-68.5c14-56.7,13.2-113.8-2.5-171.5
	c-15.7-57.7-44.8-107.8-87.5-150.5l-29-30l-152-152L1652-5l-152,152l160,160l152,152l30,30c24.7,24.7,37,54.3,37,89
	c0,34.7-12.3,64.3-37,89c-24.7,24.7-54.3,37-89,37s-64.3-12.3-89-37l-12-12l-151,152l11,12c45.3,45.3,99.2,75.3,161.5,90
	c62.3,14.7,122.2,12.7,179.5-6c9.3,47.3,33,86.7,71,118c38,31.3,81.7,47,131,47c56.7,0,105-20.2,145-60.5c40-40.3,60-88.8,60-145.5
	C2260,810.7,2243.2,765.8,2209.5,727.5z M2198-407.5c-40-40.3-88.3-60.5-145-60.5c-52,0-97.2,17-135.5,51s-61.2,76-68.5,126
	c-57.3-17.3-116.7-18.5-178-3.5c-61.3,15-114.3,44.8-159,89.5l-29,30L1331-23l-161,160l152,152l160-160l152-152l30-30
	c24.7-24.7,54.3-37,89-37s64.3,12.3,89,37s37,54.3,37,89s-12.3,64.3-37,89l-12,12l151,152l12-12c44.7-44.7,74.7-97.5,90-158.5
	c15.3-61,14.3-119.8-3-176.5c50.7-7.3,93-30.3,127-69s51-83.7,51-135C2258-318.7,2238-367.2,2198-407.5z"/>
</svg>
