<svg xmlns="http://www.w3.org/2000/svg" x="0px" y="0px" viewBox="596 -596 1792 1792" style="enable-background:new 596 -596 1792 1792;">
<path d="M2268.5,218c0.3-8,0.5-14,0.5-18c0-108.7-27.2-209-81.5-301c-54.3-92-128.2-164.8-221.5-218.5
	c-93.3-53.7-195.3-80.5-306-80.5c-119.3,0-228.2,31.3-326.5,94C1235.2-243.3,1161-160.7,1111-58c-51.3-38.7-108.7-58-172-58
	c-78,0-144.3,27-199,81s-82,119.3-82,196c0,28.7,4,56,12,82c-61.3,36-110.3,85-147,147s-55,129.7-55,203c0,110,39.3,203.5,118,280.5
	S760.7,992.3,874,999h5h2h1h1209c2,0,5.5,0.2,10.5,0.5s8.8,0.5,11.5,0.5c111.3,0,206.3-38.8,285-116.5
	c78.7-77.7,118-171.2,118-280.5c0-81.3-22.8-155.2-68.5-221.5C2401.8,315.2,2342,266.7,2268,236C2268,232,2268.2,226,2268.5,218z
	 M1021,312.5c56.7-47,125.7-70.5,207-70.5c42,0,81.5,7,118.5,21s69.2,32.3,96.5,55c27.3,22.7,53.2,47.7,77.5,75s47.5,54.7,69.5,82
	c22,27.3,43.8,52.3,65.5,75c21.7,22.7,45.7,41,72,55s53.8,21,82.5,21c38,0,69.3-11.5,94-34.5s37-53.5,37-91.5c0-34-13.3-62-40-84
	s-57.3-33-92-33c-50.7,0-98,21.3-142,64c-6.7-8-16.3-19.3-29-34s-24.2-28-34.5-40s-20.2-23.3-29.5-34c65.3-64.7,145.7-97,241-97
	c82,0,151,23.7,207,71s84,111.3,84,192c0,79.3-27.8,142.8-83.5,190.5c-55.7,47.7-123.8,71.5-204.5,71.5c-43.3,0-83.8-7-121.5-21
	s-70-32.3-97-55c-27-22.7-52.7-47.7-77-75c-24.3-27.3-47.3-54.7-69-82c-21.7-27.3-43.3-52.3-65-75c-21.7-22.7-46-41-73-55
	s-55.2-21-84.5-21c-35.3,0-65.8,11.3-91.5,34c-25.7,22.7-38.5,51.7-38.5,87c0,36,12.8,65.2,38.5,87.5c25.7,22.3,56.8,33.5,93.5,33.5
	c51.3,0,99.3-21.7,144-65c8,9.3,22.5,26.2,43.5,50.5c21,24.3,36.8,43.2,47.5,56.5c-68.7,66-148.7,99-240,99c-82.7,0-152-23.7-208-71
	c-56-47.3-84-111.7-84-193C936,422.7,964.3,359.5,1021,312.5z"/>
</svg>
