<svg xmlns="http://www.w3.org/2000/svg" x="0px" y="0px" viewBox="596 -596 1792 1792" style="enable-background:new 596 -596 1792 1792;">
<path d="M1604.1,994.5c6.3-6.3,9.5-13.8,9.5-22.5V642h290c8.7,0,16.2-3,22.5-9c6.3-6,9.5-13.7,9.5-23V507c0-8.7-3.2-16.2-9.5-22.5
	c-6.3-6.3-13.8-9.5-22.5-9.5h-290v-85h290c8.7,0,16.2-3,22.5-9c6.3-6,9.5-13.7,9.5-23V254c0-8.7-3.2-16.2-9.5-22.5
	c-6.3-6.3-13.8-9.5-22.5-9.5h-215l313-579c5.3-11.3,5-21.7-1-31c-6.7-10.7-15.7-16-27-16h-191c-14,0-23.7,6.3-29,19l-191,420
	c-4.7,11.3-13.8,31.7-27.5,61c-13.7,29.3-23.8,52-30.5,68c-24.7-58-43.3-99.7-56-125l-215-425c-6.7-12-16.3-18-29-18h-194
	c-12,0-21.3,5.3-28,16c-5.3,10.7-5.3,21.3,0,32l321,578h-214c-8.7,0-16.2,3.2-22.5,9.5c-6.3,6.3-9.5,13.8-9.5,22.5v104
	c0,9.3,3.2,17,9.5,23c6.3,6,13.8,9,22.5,9h288v85h-288c-8.7,0-16.2,3.2-22.5,9.5c-6.3,6.3-9.5,13.8-9.5,22.5v103
	c0,9.3,3.2,17,9.5,23c6.3,6,13.8,9,22.5,9h288v330c0,9.3,3.2,17,9.5,23c6.3,6,13.8,9,22.5,9h172
	C1590.3,1004,1597.8,1000.8,1604.1,994.5z"/>
</svg>
