<svg xmlns="http://www.w3.org/2000/svg" x="0px" y="0px" viewBox="596 -596 1792 1792" style="enable-background:new 596 -596 1792 1792;">
<path d="M1426.5,24c-37.3,37.3-82.7,56-136,56c-28,0-55.7-6.3-83-19c12.7,27.3,19,55,19,83c0,53.3-18.7,98.7-56,136s-82.7,56-136,56
	c-53.3,0-98.7-18.7-136-56c-37.3-37.3-56-82.7-56-136s18.7-98.7,56-136c37.3-37.3,82.7-56,136-56c28,0,55.7,6.3,83,19
	c-12.7-27.3-19-55-19-83c0-53.3,18.7-98.7,56-136s82.7-56,136-56c53.3,0,98.7,18.7,136,56c37.3,37.3,56,82.7,56,136
	C1482.5-58.7,1463.8-13.3,1426.5,24z M2305,551c-19-22-43.3-48-73-78c-29.7-30-58.5-58.7-86.5-86c-28-27.3-55.3-53.8-82-79.5
	c-26.7-25.7-42-40.5-46-44.5c-6.7-6.7-14.3-10-23-10c-11.3,0-33.3,16.3-66,49s-49,54.7-49,66c0,6,5.3,15.5,16,28.5
	s21.7,25.2,33,36.5s24.7,24.2,40,38.5s24,22.5,26,24.5l-96,96l-355-355c87.3-117.3,131-239,131-365c0-108.7-34.2-197.2-102.5-265.5
	c-68.3-68.3-156.8-102.5-265.5-102.5c-106.7,0-211,31.7-313,95s-184.7,146-248,248s-95,206.3-95,313c0,108.7,34.2,197.2,102.5,265.5
	S909.8,528,1018.5,528c126,0,247.7-43.7,365-131l671,671c18.7,18.7,41.3,28,68,28c28,0,55-13,81-39s39-53,39-81
	c0-26.7-9.3-49.3-28-68l-220-220l96-96c2,2,10.2,10.7,24.5,26c14.3,15.3,27.2,28.7,38.5,40c11.3,11.3,23.5,22.3,36.5,33
	s22.5,16,28.5,16c11.3,0,33.3-16.3,66-49c32.7-32.7,49-54.7,49-66C2333.5,586.7,2324,573,2305,551z"/>
</svg>
