<svg xmlns="http://www.w3.org/2000/svg" x="0px" y="0px" viewBox="596 -596 1792 1792" style="enable-background:new 596 -596 1792 1792;">
<path d="M900,492h-96c-10.7,0-16,5.3-16,16v96c0,10.7,5.3,16,16,16h96c10.7,0,16-5.3,16-16v-96C916,497.3,910.7,492,900,492z
	 M1028,236H804c-10.7,0-16,5.3-16,16v96c0,10.7,5.3,16,16,16h224c10.7,0,16-5.3,16-16v-96C1044,241.3,1038.7,236,1028,236z M900-20
	h-96c-10.7,0-16,5.3-16,16v96c0,10.7,5.3,16,16,16h96c10.7,0,16-5.3,16-16V-4C916-14.7,910.7-20,900-20z M1924,492h-864
	c-10.7,0-16,5.3-16,16v96c0,10.7,5.3,16,16,16h864c10.7,0,16-5.3,16-16v-96C1940,497.3,1934.7,492,1924,492z M1284,236h-96
	c-10.7,0-16,5.3-16,16v96c0,10.7,5.3,16,16,16h96c10.7,0,16-5.3,16-16v-96C1300,241.3,1294.7,236,1284,236z M1156-20h-96
	c-10.7,0-16,5.3-16,16v96c0,10.7,5.3,16,16,16h96c10.7,0,16-5.3,16-16V-4C1172-14.7,1166.7-20,1156-20z M1540,236h-96
	c-10.7,0-16,5.3-16,16v96c0,10.7,5.3,16,16,16h96c10.7,0,16-5.3,16-16v-96C1556,241.3,1550.7,236,1540,236z M1412-20h-96
	c-10.7,0-16,5.3-16,16v96c0,10.7,5.3,16,16,16h96c10.7,0,16-5.3,16-16V-4C1428-14.7,1422.7-20,1412-20z M1796,236h-96
	c-10.7,0-16,5.3-16,16v96c0,10.7,5.3,16,16,16h96c10.7,0,16-5.3,16-16v-96C1812,241.3,1806.7,236,1796,236z M2180,492h-96
	c-10.7,0-16,5.3-16,16v96c0,10.7,5.3,16,16,16h96c10.7,0,16-5.3,16-16v-96C2196,497.3,2190.7,492,2180,492z M1668-20h-96
	c-10.7,0-16,5.3-16,16v96c0,10.7,5.3,16,16,16h96c10.7,0,16-5.3,16-16V-4C1684-14.7,1678.7-20,1668-20z M1924-20h-96
	c-10.7,0-16,5.3-16,16v96c0,10.7,5.3,16,16,16h96c10.7,0,16-5.3,16-16V-4C1940-14.7,1934.7-20,1924-20z M2180-20h-96
	c-10.7,0-16,5.3-16,16v240h-112c-10.7,0-16,5.3-16,16v96c0,10.7,5.3,16,16,16h224c10.7,0,16-5.3,16-16V-4
	C2196-14.7,2190.7-20,2180-20z M660,748v-896h1664v896H660z M2414.5-238.5c-25-25-55.2-37.5-90.5-37.5H660
	c-35.3,0-65.5,12.5-90.5,37.5S532-183.3,532-148v896c0,35.3,12.5,65.5,37.5,90.5S624.7,876,660,876h1664c35.3,0,65.5-12.5,90.5-37.5
	s37.5-55.2,37.5-90.5v-896C2452-183.3,2439.5-213.5,2414.5-238.5z"/>
</svg>
