<svg xmlns="http://www.w3.org/2000/svg" x="0px" y="0px" viewBox="596 -596 1792 1792" style="enable-background:new 596 -596 1792 1792;">
<path d="M1109.5,666.5c-0.3,1.7-0.5,2.8-0.5,3.5c-0.7-0.7-1-1.7-1-3c0-1.3-0.3-2.3-1-3l-75-300h159l-81,299
	C1110,663.7,1109.8,664.8,1109.5,666.5z M1001,236l-32-128h292l-35,128H1001z M1452,108h70l35,128h-139L1452,108z M1866.5,667
	c-0.3,1.3-0.5,2.3-0.5,3c-0.7-0.7-1.2-1.8-1.5-3.5c-0.3-1.7-0.5-2.8-0.5-3.5l-81-299h162l-78,300
	C1867,664.7,1866.8,665.7,1866.5,667z M1748,236l-34-128h297l-33,128H1748z M2379,245c-6-6-13.7-9-23-9h-179l34-128h145
	c9.3,0,17-3,23-9s9-13.7,9-23V12c0-9.3-3-17-9-23s-13.7-9-23-9h-111l91-344c3.3-10,1.7-19.3-5-28c-6.7-8-15.3-12-26-12h-137
	c-17.3,0-27.7,8-31,24l-93,360h-365l-98-360c-4.7-16-15-24-31-24h-126c-16,0-26.3,8-31,24l-97,360H937l-90-360
	c-3.3-16-13.7-24-31-24H679c-10.7,0-19.3,4-26,12c-6.7,8.7-8.3,18-5,28l89,344H628c-9.3,0-17,3-23,9s-9,13.7-9,23v64
	c0,9.3,3,17,9,23s13.7,9,23,9h142l33,128H628c-9.3,0-17,3-23,9s-9,13.7-9,23v64c0,9.3,3,17,9,23s13.7,9,23,9h208l160,616
	c1.3,6.7,4.8,12.3,10.5,17c5.7,4.7,12.2,7,19.5,7h159c16,0,26.3-8,31-24l167-616h209l166,616c4.7,16,15,24,31,24h159
	c16,0,26.3-8,31-24l164-616h213c9.3,0,17-3,23-9s9-13.7,9-23v-64C2388,258.7,2385,251,2379,245z"/>
</svg>
