<svg xmlns="http://www.w3.org/2000/svg" x="0px" y="0px" viewBox="596 -596 1792 1792" style="enable-background:new 596 -596 1792 1792;">
<path d="M2080,630.5c-50.7,46.3-111.7,69.5-183,69.5c-28,0-54.7-4.5-80-13.5s-47.3-20-66-33c-18.7-13-37.2-30.8-55.5-53.5
	c-18.3-22.7-33.5-43.5-45.5-62.5s-24.8-43.7-38.5-74c-13.7-30.3-24.2-55.2-31.5-74.5c-7.3-19.3-16.8-44.8-28.5-76.5
	S1531.3,258,1526,244c-30.7-79.3-65.3-136.8-104-172.5c-38.7-35.7-95.3-53.5-170-53.5c-69.3,0-131.3,28-186,84s-82,119-82,189
	c0,78,25.3,146,76,204c50.7,58,114.3,87,191,87c59.3,0,108-12,146-36s71-62.7,99-116l60,109c-7.3,16-17.7,33-31,51
	c-62,73.3-155,110-279,110c-72.7,0-138-18.8-196-56.5c-58-37.7-102.5-86.8-133.5-147.5S868.7,369,866,297v-1
	c-2-66.7,14.7-130.7,50-192S999.3-6.7,1060-44s124.7-56,192-56c55.3,0,104.3,8.2,147,24.5c42.7,16.3,77.2,36.5,103.5,60.5
	c26.3,24,51,55.8,74,95.5s41,76.5,54,110.5s29,75.8,48,125.5s36.2,90.2,51.5,121.5c46.7,96,102.3,144,167,144
	c39.3,0,72.8-11.7,100.5-35c27.7-23.3,41.2-54.3,40.5-93v-5c0-17.3-4.5-32.8-13.5-46.5s-21.8-25.2-38.5-34.5s-31.7-16.5-45-21.5
	s-29.7-10.2-49-15.5c-66.7-19.3-116.2-43.7-148.5-73c-32.3-29.3-53.8-76-64.5-140c-1.3-10.7-2-18.3-2-23c0-53.3,20.7-99.2,62-137.5
	c41.3-38.3,88.7-57.5,142-57.5c34,0,62.5,3.3,85.5,10c23,6.7,45.5,19.7,67.5,39c6.7,6.7,23,28,49,64l-93,71c-12.7-24-25.7-41-39-51
	h1c-11.3-10-35-15-71-15c-24,0-44.2,7.8-60.5,23.5S1796,77,1796,101c0,1.3,0.3,3.8,1,7.5s1.7,7.7,3,12s2,7.2,2,8.5
	c6,18.7,15.7,34.2,29,46.5s26,20.7,38,25s29.7,9.8,53,16.5c156,44,234,123.7,234,239C2156,526,2130.7,584.2,2080,630.5z
	 M2175.5-383.5c-56.3-56.3-124.2-84.5-203.5-84.5h-960c-79.3,0-147.2,28.2-203.5,84.5S724-259.3,724-180v960
	c0,79.3,28.2,147.2,84.5,203.5c56.3,56.3,124.2,84.5,203.5,84.5h960c79.3,0,147.2-28.2,203.5-84.5c56.3-56.3,84.5-124.2,84.5-203.5
	v-960C2260-259.3,2231.8-327.2,2175.5-383.5z"/>
</svg>
