<svg xmlns="http://www.w3.org/2000/svg" x="0px" y="0px" viewBox="596 -596 1792 1792" style="enable-background:new 596 -596 1792 1792;">
<path d="M939.5,931.5c-20-24.7-47-41-81-49l95-115v-88h-333v152h106v-53c10.7,0,26.8-0.3,48.5-1s37.8-1,48.5-1v1
	c-12.7,12-25,24.8-37,38.5s-26.2,31.7-42.5,54s-27.2,36.8-32.5,43.5l26,56c70-5.3,105,13.3,105,56c0,18.7-7.2,32.8-21.5,42.5
	s-31.2,14.5-50.5,14.5c-38,0-73.3-15-106-45l-57,88c44,44,101.3,66,172,66c54,0,99.2-15.3,135.5-46c36.3-30.7,54.5-72.7,54.5-126
	C969.5,985.5,959.5,956.2,939.5,931.5z M866.5,392.5v60h-127c0.7-16.7,12.5-34.2,35.5-52.5s48.2-35.2,75.5-50.5s52.3-36.8,75-64.5
	c22.7-27.7,34-58.2,34-91.5c0-47.3-16.7-84.8-50-112.5s-74.3-41.5-123-41.5C747.8,39.5,712.7,49,681,68s-55.5,45.5-71.5,79.5l85,59
	c23.3-38.7,50.3-58,81-58c16.7,0,29.8,4.5,39.5,13.5s14.5,21.8,14.5,38.5c0,15.3-7.8,30.3-23.5,45s-34.5,29.2-56.5,43.5
	s-44,30.2-66,47.5s-40.8,40-56.5,68s-23.5,59-23.5,93c0,12,2,30,6,54h362v-159H866.5z M2371,689c-6.3-6.3-13.8-9.5-22.5-9.5h-1216
	c-9.3,0-17,3-23,9s-9,13.7-9,23v192c0,8.7,3.2,16.2,9.5,22.5c6.3,6.3,13.8,9.5,22.5,9.5h1216c8.7,0,16.2-3.2,22.5-9.5
	c6.3-6.3,9.5-13.8,9.5-22.5v-192C2380.5,702.8,2377.3,695.3,2371,689z M864.5-187.5v-404h-106l-136,127l71,76
	c28-24.7,44.7-42.7,50-54h2v12c0,26.7-0.2,67-0.5,121s-0.5,94.7-0.5,122h-107v99h335v-99H864.5z M2371,177
	c-6.3-6.3-13.8-9.5-22.5-9.5h-1216c-9.3,0-17,3-23,9s-9,13.7-9,23v192c0,8.7,3.2,16.2,9.5,22.5c6.3,6.3,13.8,9.5,22.5,9.5h1216
	c8.7,0,16.2-3.2,22.5-9.5c6.3-6.3,9.5-13.8,9.5-22.5v-192C2380.5,190.8,2377.3,183.3,2371,177z M2371-335
	c-6.3-6.3-13.8-9.5-22.5-9.5h-1216c-8.7,0-16.2,3.2-22.5,9.5c-6.3,6.3-9.5,13.8-9.5,22.5v192c0,8.7,3.2,16.2,9.5,22.5
	c6.3,6.3,13.8,9.5,22.5,9.5h1216c8.7,0,16.2-3.2,22.5-9.5c6.3-6.3,9.5-13.8,9.5-22.5v-192C2380.5-321.2,2377.3-328.7,2371-335z"/>
</svg>
