<svg xmlns="http://www.w3.org/2000/svg" x="0px" y="0px" viewBox="596 -596 1792 1792" style="enable-background:new 596 -596 1792 1792;">
<path d="M2088,751l-147,146c-18.7,17.3-41.3,26-68,26c-27.3,0-50-9-68-27l-206-207c-18.7-18.7-28-41.3-28-68c0-28,11-52.3,33-73
	c2,2,8.2,8.3,18.5,19c10.3,10.7,17.5,17.8,21.5,21.5c4,3.7,10.3,8.7,19,15c8.7,6.3,17.2,10.7,25.5,13c8.3,2.3,17.5,3.5,27.5,3.5
	c26.7,0,49.3-9.3,68-28c18.7-18.7,28-41.3,28-68c0-10-1.2-19.2-3.5-27.5c-2.3-8.3-6.7-16.8-13-25.5s-11.3-15-15-19
	s-10.8-11.2-21.5-21.5s-17-16.5-19-18.5c20-21.3,44-32,72-32c26.7,0,49.3,9.3,68,28l208,208c18.7,18.7,28,41.3,28,68
	C2116,710,2106.7,732.3,2088,751z M1380,52c-2-2-8.2-8.3-18.5-19c-10.3-10.7-17.5-17.8-21.5-21.5s-10.3-8.7-19-15
	c-8.7-6.3-17.2-10.7-25.5-13c-8.3-2.3-17.5-3.5-27.5-3.5c-26.7,0-49.3,9.3-68,28c-18.7,18.7-28,41.3-28,68c0,10,1.2,19.2,3.5,27.5
	c2.3,8.3,6.7,16.8,13,25.5c6.3,8.7,11.3,15,15,19c3.7,4,10.8,11.2,21.5,21.5c10.7,10.3,17,16.5,19,18.5c-20,20.7-44,31-72,31
	c-27.3,0-50-9-68-27L896-16c-18.7-18.7-28-41.3-28-68c0-26,9.3-48.3,28-67l147-146c19.3-18,42-27,68-27c26.7,0,49.3,9.3,68,28
	l206,207c18.7,18.7,28,41.3,28,68C1413,7,1402,31.3,1380,52z M2224,480l-208-208c-56-56-124-84-204-84c-81.3,0-150.7,29.3-208,88
	l-88-88c58.7-57.3,88-127,88-209c0-80-27.7-147.7-83-203l-206-207c-55.3-56.7-123.3-85-204-85c-80,0-147.7,27.7-203,83L761-287
	c-56.7,55.3-85,123-85,203s28,148,84,204l208,208c56,56,124,84,204,84c81.3,0,150.7-29.3,208-88l88,88c-58.7,57.3-88,127-88,209
	c0,80,27.7,147.7,83,203l206,207c55.3,56.7,123.3,85,204,85c80,0,147.7-27.7,203-83l147-146c56.7-55.3,85-123,85-203
	S2280,536,2224,480z"/>
</svg>
