<svg xmlns="http://www.w3.org/2000/svg" x="0px" y="0px" viewBox="596 -596 1792 1792" style="enable-background:new 596 -596 1792 1792;">
<path d="M1678.5-110c-25-25.3-54-43.3-87-54s-66.2-16-99.5-16c-8.7,0-16.2,3.2-22.5,9.5s-9.5,13.8-9.5,22.5s3.2,16.2,9.5,22.5
	s13.8,9.5,22.5,9.5c34.7,0,70,8.3,106,25c36,16.7,54,40.3,54,71c0,8.7,3.2,16.2,9.5,22.5c6.3,6.3,13.8,9.5,22.5,9.5
	c8.7,0,16.2-3.2,22.5-9.5c6.3-6.3,9.5-13.8,9.5-22.5C1716-54.7,1703.5-84.7,1678.5-110z M1808,160c-6.7,7.3-16.8,18.3-30.5,33
	c-13.7,14.7-23.8,25.7-30.5,33c-85.3,102-132.3,201.3-141,298h-228c-8.7-96.7-55.7-196-141-298c-6.7-7.3-16.8-18.3-30.5-33
	s-23.8-25.7-30.5-33c-45.3-52.7-68-112.7-68-180c0-48,11.5-92.7,34.5-134s53-75.2,90-101.5s78-47,123-62S1446-340,1492-340
	s91.5,7.5,136.5,22.5s86,35.7,123,62s67,60.2,90,101.5S1876-68,1876-20C1876,47.3,1853.3,107.3,1808,160z M1959.5-204.5
	c-29.7-57-68.7-104.3-117-142c-48.3-37.7-103-67.3-164-89S1555.3-468,1492-468s-125.5,10.8-186.5,32.5s-115.7,51.3-164,89
	s-87.3,85-117,142C994.8-147.5,980-86,980-20c0,103.3,34.3,192.7,103,268c30,32.7,54.8,61.7,74.5,87s39.5,57.2,59.5,95.5
	s31.3,74.2,34,107.5c-31.3,18.7-47,46-47,82c0,24.7,8.3,46,25,64c-16.7,18-25,39.3-25,64c0,34.7,15,61.7,45,81
	c-8.7,15.3-13,31-13,47c0,30.7,10.5,54.3,31.5,71s46.8,25,77.5,25c13.3,29.3,33.3,52.7,60,70s55.7,26,87,26c31.3,0,60.3-8.7,87-26
	c26.7-17.3,46.7-40.7,60-70c30.7,0,56.5-8.3,77.5-25s31.5-40.3,31.5-71c0-16-4.3-31.7-13-47c30-19.3,45-46.3,45-81
	c0-24.7-8.3-46-25-64c16.7-18,25-39.3,25-64c0-36-15.7-63.3-47-82c2.7-33.3,14-69.2,34-107.5s39.8-70.2,59.5-95.5
	c19.7-25.3,44.5-54.3,74.5-87c68.7-75.3,103-164.7,103-268C2004-86,1989.2-147.5,1959.5-204.5z"/>
</svg>
