<svg xmlns="http://www.w3.org/2000/svg" x="0px" y="0px" viewBox="596 -596 1792 1792" style="enable-background:new 596 -596 1792 1792;">
<path d="M1376.7-185c-12.7,2-19,7-19,15c0,4,1.7,5.7,5,5c2.7,0,5.5-3.2,8.5-9.5s8.2-9.8,15.5-10.5H1376.7z M1476.7-180
	c-5.3-8.7-16-9.3-32-2c6.7-2,12.5-0.5,17.5,4.5s8.8,7.2,11.5,6.5C1477.7-173,1478.7-176,1476.7-180z M1125.7,258
	c0.7,1.7,1,2.5,1,2.5v3c0,1-0.2,2.3-0.5,4s-0.8,3.2-1.5,4.5s-1.3,3.3-2,6s-1.3,5-2,7c-2.7,6.7-6.8,12.7-12.5,18s-9.8,7.7-12.5,7
	c-4-1.3-3.7-5.3,1-12c4.7-5.3,8-9.7,10-13s3.8-7.8,5.5-13.5s3.2-9.8,4.5-12.5s3.3-3.7,6-3C1124.1,255.7,1125.1,256.3,1125.7,258z
	 M1917.7,592.5c-26-3.7-50.2-0.2-72.5,10.5c-22.3,10.7-33.8,28.3-34.5,53c-24,0-41,6-51,18c-14.7,17.3-22.3,40.8-23,70.5
	c-0.7,29.7,1.8,62,7.5,97s7.8,59.5,6.5,73.5c-1.3,21.3-5.8,51.3-13.5,90c-7.7,38.7-12.5,64.3-14.5,77c-14-0.7-22-5.8-24-15.5
	c-2-9.7,0-22.2,6-37.5c14.7-44.7,22.3-75.3,23-92c1.3-30.7-2-48-10-52c-7.3-5.3-18.7,4.7-34,30c-29.3,48-88.3,77-177,87
	c-80,10.7-135.3-1.3-166-36c-6.7-4.7-13.3-5.5-20-2.5c-6.7,3-11,6.2-13,9.5c-0.7,1.3,0,3.3,2,6s5.2,6.7,9.5,12
	c4.3,5.3,7.8,10.7,10.5,16c26,45.3,23.7,76-7,92c0-30.7-2.3-54.2-7-70.5c-4.7-16.3-14-34.3-28-54s-23.7-34.5-29-44.5
	c20-2,35.2-9.7,45.5-23c10.3-13.3,15-27.7,14-43s-6.8-28-17.5-38c-6-6-37-31.5-93-76.5s-90.7-75.2-104-90.5c-2.7-2.7-10.7-9.3-24-20
	c-13.3-10.7-21.7-20-25-28c-30.7-67.3-34-122.7-10-166l4-5c3.3-0.7,3.7,5.3,1,18c-4,18.7-5.3,37.3-4,56c2.7,42,14.7,73.3,36,94
	c14,14,23.7,13,29-3c4-5.3,5.8-25,5.5-59s0.2-57,1.5-69c5.3-38,21.2-85,47.5-141s47.2-86,62.5-90c-12-19.3-15.8-40.3-11.5-63
	s11.3-42,21-58c9.7-16,19.5-34.5,29.5-55.5s15-39.8,15-56.5c0-4.7,0.3-8,1-10c2-6,10.3,1.3,25,22c28,41.3,49,65.7,63,73
	c14.7,8,31,7.7,49-1s40.2-23,66.5-43c26.3-20,48.8-34.7,67.5-44c2-0.7,5.2-2.2,9.5-4.5c4.3-2.3,7.7-4,10-5c2.3-1,5.3-2.5,9-4.5
	c3.7-2,6.5-3.7,8.5-5s4-2.8,6-4.5s3.3-3.3,4-5c0.7-1.7,1-3.2,1-4.5c-1.3-6-4.2-9.7-8.5-11c-4.3-1.3-10.2-0.5-17.5,2.5
	c-7.3,3-15.5,7-24.5,12s-19,10.7-30,17s-22.2,12.2-33.5,17.5c-11.3,5.3-23.3,10-36,14c-12.7,4-24.7,6.3-36,7c-28,0.7-50.3-6.7-67-22
	c-10.7-10-16.3-16.3-17-19c-0.7-2.7,2.3-3.3,9-2c36,4.7,62.3,5.3,79,2c17.3-2.7,40.7-10.3,70-23c6-2.7,21.2-9.2,45.5-19.5
	c24.3-10.3,43.2-17.5,56.5-21.5c8-2,13.5-5.2,16.5-9.5s4-8.3,3-12s-3.2-6.5-6.5-8.5c-7.3-4-14-1.3-20,8c-3.3,6-10.3,11.8-21,17.5
	c-10.7,5.7-20.5,10-29.5,13s-20.5,6.5-34.5,10.5s-21.7,6.3-23,7c-36.7,11.3-70.7,16.3-102,15c-14.7-0.7-26.5-2.8-35.5-6.5
	s-15.2-8-18.5-13c-3.3-5-8.7-11.3-16-19c-7.3-7.7-15.7-14.2-25-19.5c-6.7-3.3-9.2-9.3-7.5-18c1.7-8.7,6.8-17.7,15.5-27
	c0.7-0.7,7.5-4.8,20.5-12.5s22.2-15.5,27.5-23.5c6-9.3,16.3-19,31-29c0.7-2.7,1.2-10,1.5-22c0.3-12-2.8-25-9.5-39
	c-6.7-14-15.7-21-27-21c-16-0.7-27.3,4-34,14c-6.7,10-9.7,22.3-9,37c0.7,12.7,3.8,23.8,9.5,33.5c5.7,9.7,10.8,14.5,15.5,14.5
	c7.3-0.7,9.7,2,7,8c-4,7.3-9.3,12-16,14c-4.7,1.3-9.8-3.2-15.5-13.5c-5.7-10.3-10-22.8-13-37.5s-4.2-27-3.5-37
	c1.3-20.7,6.8-40.5,16.5-59.5c9.7-19,23.5-28.2,41.5-27.5c18.7,0.7,33.7,12,45,34c11.3,22,16.7,52,16,90c2,4.7,7.2,6.3,15.5,5
	c8.3-1.3,19.3-1.5,33-0.5c13.7,1,23.5,4.5,29.5,10.5c0.7,0,1-5,1-15c-12-84,17.7-128.7,89-134c10.7,2,19.7,4.5,27,7.5
	c7.3,3,15.2,8,23.5,15c8.3,7,15.3,17.2,21,30.5c5.7,13.3,10.2,30,13.5,50v37c0,21.3-4.3,33.3-13,36c-14,4.7-24,4.5-30-0.5
	s-5.3-13.8,2-26.5c6.7-16.7,5.3-36-4-58c-9.3-22-26.3-32-51-30c-16.7,0.7-28.7,9.7-36,27c-7.3,17.3-10,34.3-8,51s5.7,25.3,11,26
	c4,0.7,15.8,6,35.5,16c19.7,10,34.5,16,44.5,18c26,5.3,40.8,13.7,44.5,25c3.7,11.3,2.2,27.8-4.5,49.5c-6.7,21.7-8.7,39.5-6,53.5
	c2.7,14.7,7.7,28,15,40c7.3,12,15.2,23,23.5,33c8.3,10,18.2,28.7,29.5,56c11.3,27.3,21.7,61.7,31,103c0.7,0.7,3.2,3,7.5,7
	c4.3,4,8.7,9,13,15c4.3,6,9.5,14.2,15.5,24.5s12.5,25.5,19.5,45.5s13.5,43,19.5,69c7.3,30.7,11.2,66.3,11.5,107s3,68.5,8,83.5
	s17.8,21.2,38.5,18.5c26-1.3,42.7-15.3,50-42c22-77.3,4-170-54-278c-22-42-41-69.7-57-83c23.3,13.3,47.3,38.3,72,75s40.3,71,47,103
	c0.7,3.3,2.5,12.2,5.5,26.5s4.7,22.7,5,25s1.7,9.2,4,20.5c2.3,11.3,3.5,18.7,3.5,22s0.3,9.8,1,19.5s0.5,17.2-0.5,22.5
	s-2,12.5-3,21.5s-2.7,17.7-5,26c-2.3,8.3-4.8,17.5-7.5,27.5c36.7,16,55,30,55,42C1963.7,603.7,1943.7,596.2,1917.7,592.5z
	 M1346.7-209c-7.3,0-10-6.7-8-20c2-10-0.3-15-7-15c-2-0.7-3.7-2.7-5-6c0-6,3-8.3,9-7c4,1.3,7.8,6.3,11.5,15c3.7,8.7,4.5,18.7,2.5,30
	C1349.7-210,1348.7-209,1346.7-209z M1765.2,5c-3.7,6-8.5,8.7-14.5,8c-12-2.7-25-13.2-39-31.5s-16.3-32.8-7-43.5
	c2-1.3,3.3-1.8,4-1.5c0.7,0.3,2,1.7,4,4s3.8,4.5,5.5,6.5c1.7,2,4,4.7,7,8s6.2,6,9.5,8c4,2.7,8.8,4.5,14.5,5.5c5.7,1,10,2.7,13,5
	s5.2,6.2,6.5,11.5C1770.1-7.7,1768.9-1,1765.2,5z M1588.7-225c-5.3,3.3-8,4-8,2c-2.7-18-8.7-28.3-18-31l-4-2c-4.7-4-2.3-6.3,7-7
	c2-0.7,5,0.3,9,3s7.7,6.8,11,12.5c3.3,5.7,5,12.2,5,19.5L1588.7-225z M1635.7-454c-4.7,1.3-9.7,2-15,2c-5.3,0-8.3,0.3-9,1
	c-5.3,2-10.3,5-15,9c-4.7,4-8.3,7-11,9c-2.7,2-5.3,2-8,0c-2.7-4-3.7-6.8-3-8.5c0.7-1.7,2.7-4.7,6-9c3.3-4.3,5.3-7.8,6-10.5
	c1.3-4,1.5-8.2,0.5-12.5s-0.7-8.7,1-13c1.7-4.3,5.5-6.8,11.5-7.5c6,0,14,5,24,15c2,1.3,5.2,3.3,9.5,6c4.3,2.7,7.3,5,9,7
	c1.7,2,2.5,3.7,2.5,5C1643.4-457.7,1640.4-455.3,1635.7-454z M2193.2,870.5c-9-5-16.2-9.3-21.5-13c-5.3-3.7-12.3-10-21-19
	c-8.7-9-15.5-18.5-20.5-28.5s-9.8-23.5-14.5-40.5c-4.7-17-7.3-35.8-8-56.5c-9.3,8-14.5,23.8-15.5,47.5s4,47.8,15,72.5
	s27.5,40.7,49.5,48c21.3,7.3,38.5,15.2,51.5,23.5s21.3,17.8,25,28.5c3.7,10.7-2.5,22.2-18.5,34.5s-41.7,24.5-77,36.5
	c-48.7,16.7-83.2,30.8-103.5,42.5c-20.3,11.7-50.2,33.8-89.5,66.5c-26.7,22-55,33.8-85,35.5c-30,1.7-54.3-9.3-73-33
	c-18.7-23.7-24.7-57.2-18-100.5c12.7-83.3,12.3-148.3-1-195c-10.7-36.7-13-69-7-97s15.3-44.3,28-49c12.7-4.7,26.3,5.3,41,30
	c1.3,3.3,4.3,9.8,9,19.5s8.5,16.5,11.5,20.5s7.5,9.2,13.5,15.5s13.5,10.8,22.5,13.5s19.5,4.3,31.5,5c22.7,0.7,43-4,61-14
	s31.5-21.2,40.5-33.5s18-24.2,27-35.5c9-11.3,16.8-17.7,23.5-19c7.3-1.3,14-8.7,20-22c6-13.3,10-31.8,12-55.5
	c2-23.7,0.3-51.8-5-84.5c-10-58-29.8-121.7-59.5-191c-29.7-69.3-62.8-123.7-99.5-163c-66-70-110.3-142.7-133-218
	c-23.3-79.3-33.3-150.7-30-214c3.3-45.3-6.5-94.5-29.5-147.5s-53.5-93.5-91.5-121.5c-24-18-53.7-31.8-89-41.5
	c-35.3-9.7-70.7-14.2-106-13.5c-43.3,0-78,7-104,21c-53.3,28.7-88.7,63.5-106,104.5s-25.3,91.5-24,151.5c2.7,132,8,235.3,16,310
	c-9.3,34.7-50.7,99.7-124,195c-13.3,13.3-26.3,31.3-39,54s-22.7,43-30,61s-17.2,44-29.5,78c-12.3,34-21.2,58-26.5,72
	c-4.7,12-12,26-22,42s-18,31.7-24,47c-6,15.3-9.3,32.7-10,52c-0.7,14.7,0,27.3,2,38c2.7,16,7.7,21,15,15c30-22.7,67.7-9.3,113,40
	c32,34.7,88.3,115.3,169,242c6.7,11.3,13.3,23.5,20,36.5c6.7,13,13,30.3,19,52s8.5,41.2,7.5,58.5c-1,17.3-8.7,33.3-23,48
	c-14.3,14.7-35.8,24-64.5,28c-15.3,2-33.8,0.7-55.5-4c-21.7-4.7-49.2-12.3-82.5-23c-33.3-10.7-58-18-74-22
	c-23.3-5.3-56.5-12.2-99.5-20.5c-43-8.3-71.2-14.5-84.5-18.5c-22.7-6-35-14.7-37-26c-2-9.3,2.7-25.3,14-48c11.3-22.7,17-39,17-49
	c0.7-7.3,0.3-14.7-1-22c-1.3-7.3-2.8-13-4.5-17c-1.7-4-4.5-10-8.5-18s-6.7-14-8-18c-12-28-13.7-47-5-57c6-8.7,20.3-12,43-10
	c34,3.3,61.7-1.7,83-15c35.3-22,46-57.3,32-106c0,22.7-4,39.7-12,51s-22,23-42,35c-11.3,6.7-31.3,10.7-60,12c-28.7,1.3-47.7,6-57,14
	c-6.7,6-10.2,15-10.5,27c-0.3,12,1.2,24.2,4.5,36.5c3.3,12.3,6.7,26.5,10,42.5c3.3,16,4.7,29.3,4,40c-0.7,7.3-6.7,25.5-18,54.5
	c-11.3,29-13.7,51.2-7,66.5c3.3,7.3,9,13.8,17,19.5c8,5.7,19.2,10.5,33.5,14.5c14.3,4,27.5,7.2,39.5,9.5c12,2.3,28.7,5.3,50,9
	c21.3,3.7,38.3,6.8,51,9.5c42.7,8.7,91.3,23,146,43s91.7,30.3,111,31c18.7,0.7,36.5-3.2,53.5-11.5c17-8.3,31.5-17.8,43.5-28.5
	c12-10.7,29.8-20.7,53.5-30c23.7-9.3,50.2-14.3,79.5-15c13.3-0.7,32.7-1.5,58-2.5c25.3-1,44.3-1.5,57-1.5c57.3,0,100.7,0.3,130,1
	c20,0.7,35.7,3.8,47,9.5c11.3,5.7,18.7,12.2,22,19.5c3.3,7.3,8.8,15.8,16.5,25.5c7.7,9.7,17.5,17.5,29.5,23.5
	c25.3,12,55,16.8,89,14.5c34-2.3,56.7-8.8,68-19.5c18.7-18,43.8-39.3,75.5-64c31.7-24.7,60.2-43.3,85.5-56c5.3-2.7,14.3-7,27-13
	c12.7-6,23.3-11.2,32-15.5c8.7-4.3,19.2-9.8,31.5-16.5c12.3-6.7,22.3-12.8,30-18.5c7.7-5.7,15.5-12.2,23.5-19.5s13.2-14.7,15.5-22
	c2.3-7.3,3.2-14.8,2.5-22.5c-0.7-7.7-4.7-15.7-12-24c-7.3-8.3-17.7-16.5-31-24.5C2207.7,878.7,2202.2,875.5,2193.2,870.5z"/>
</svg>
