<svg xmlns="http://www.w3.org/2000/svg" x="0px" y="0px" viewBox="596 -596 1792 1792" style="enable-background:new 596 -596 1792 1792;">
<path d="M2036,684c44,0,81.7-15.7,113-47c31.3-31.3,47-69,47-113v-704c0-44-15.7-81.7-47-113c-31.3-31.3-69-47-113-47H948
	c-44,0-81.7,15.7-113,47c-31.3,31.3-47,69-47,113v704c0,44,15.7,81.7,47,113c31.3,31.3,69,47,113,47H2036z M925.5-202.5
	c6.3-6.3,13.8-9.5,22.5-9.5h1088c8.7,0,16.2,3.2,22.5,9.5c6.3,6.3,9.5,13.8,9.5,22.5v704c0,8.7-3.2,16.2-9.5,22.5
	c-6.3,6.3-13.8,9.5-22.5,9.5H948c-8.7,0-16.2-3.2-22.5-9.5c-6.3-6.3-9.5-13.8-9.5-22.5v-704C916-188.7,919.2-196.2,925.5-202.5z
	 M692,748H532v96c0,26.7,15.7,49.3,47,68s69,28,113,28h1600c44,0,81.7-9.3,113-28c31.3-18.7,47-41.3,47-68v-96h-160H692z M1412,844
	c-10.7,0-16-5.3-16-16s5.3-16,16-16h160c10.7,0,16,5.3,16,16s-5.3,16-16,16H1412z"/>
</svg>
