<svg xmlns="http://www.w3.org/2000/svg" x="0px" y="0px" viewBox="596 -596 1792 1792" style="enable-background:new 596 -596 1792 1792;">
<path d="M1373.5,451.5c-4.3-16.3-7.8-24.8-10.5-25.5c-3.3-1.3-25.8-10.7-67.5-28c-41.7-17.3-66.5-28-74.5-32l-64-28
	c34.7-54,60.3-97.7,77-131c2-3.3,7.7-14.5,17-33.5c9.3-19,18.2-36.8,26.5-53.5c8.3-16.7,12.5-25.7,12.5-27c2-14,2.3-25,1-33
	c-2.7-0.7-4.7-0.8-6-0.5c-1.3,0.3-6.2,2.2-14.5,5.5c-8.3,3.3-15.5,6-21.5,8c-7.3,2.7-22,9.8-44,21.5s-36.3,18.2-43,19.5
	c-1.3,0-35.3,11.7-102,35c-31.3,10.7-66.3,21.3-105,32c-7.3,2-17.2,4-29.5,6s-20.5,3.7-24.5,5c0.7,11.3,2.3,19,5,23
	c6.7,11.3,16,18.3,28,21c16,4.7,31.7,4.7,47,0c17.3-3.3,27.7-8.3,31-15c0.7-0.7,1-3.8,1-9.5s0.7-9.2,2-10.5c1.3-0.7,7-2.3,17-5
	s21.5-5.8,34.5-9.5s22.2-6.2,27.5-7.5c68-22.7,104.7-33.7,110-33c-1.3,6-13.3,31.8-36,77.5s-39.7,78.5-51,98.5
	c-9.3,18-35.5,57.3-78.5,118S967,539,953,555c-50.7,58.7-78,89.3-82,92c2,1.3,8.2,1.3,18.5,0c10.3-1.3,16.8-2.7,19.5-4
	c16-10,51-46.7,105-110c44.7-52,89.3-112.3,134-181c2.7,1.3,15.3,10.8,38,28.5s36.3,28.2,41,31.5c28.7,19.3,57.7,35.7,87,49l20,9
	c13.3,5.3,23.8,9.2,31.5,11.5c7.7,2.3,11.8,2.5,12.5,0.5C1379.3,478,1377.8,467.8,1373.5,451.5z M1152-21c-12.7,1.3-31,6-55,14
	c-32,9.3-51.3,14.7-58,16s-15.5,1.3-26.5,0S995,6,993,4l-1,3c2.7,17.3,8.7,31,18,41c15.3,15.3,31.7,24,49,26c20,0,40-4,60-12
	c25.3-10,42-22.7,50-38c4.7-8.7,6-18,4-28C1170.3-15.3,1163.3-21,1152-21z M1795,310l139,42l-63-227L1795,310z M763-106l694-233V693
	L763,925V-106z M1967,473l-211-65l-45,110l-102-31l216-536l100,31l181,657l-102-31L1967,473z M2074-550v380l-573-184L2074-550z
	 M1855,1042c-6.7,4-16.2,9.5-28.5,16.5s-23.7,13.3-34,19s-20.5,10.8-30.5,15.5c-56.7,24-109,40.8-157,50.5s-103.7,14.5-167,14.5
	c-47.3,0-99.8-8.2-157.5-24.5s-110.8-36.8-159.5-61.5c-2.7-1.3-9.5-5-20.5-11s-21.2-11.5-30.5-16.5s-15.3-7.5-18-7.5
	c-5.3,0-9.7,1.8-13,5.5s-5,8.2-5,13.5c0,6,2.7,11.3,8,16c42,30.7,103.2,59,183.5,85c80.3,26,146.8,39,199.5,39h84c22,0,52.3-4,91-12
	c97.3-16.7,189.3-52.7,276-108l40,66l54-160l-158-13L1855,1042z M2113-157v-418c0-14-6.7-21-20-21c-2.7,0-56.5,17.8-161.5,53.5
	s-210.3,71.8-316,108.5c-105.7,36.7-159.2,55-160.5,55L897-577v384c-28.7,10-78.3,26.7-149,50c-10,3.3-16.7,7-20,11
	c-0.7,0.7-2,4-4,10V956c0.7,1.3,1,2.3,1,3c3.3,8.7,9.3,13,18,13c4.7,0,127.3-40.5,368-121.5S1476.7,727,1486,723l774,246V-110
	L2113-157z"/>
</svg>
