<svg xmlns="http://www.w3.org/2000/svg" x="0px" y="0px" viewBox="596 -596 1792 1792" style="enable-background:new 596 -596 1792 1792;">
<path d="M941,686L765,359c-4.7-8-12.3-19.3-23-34s-16.7-23-18-25c22.7-35.3,48.7-70.7,78-106l224,413l106,197
	c2.7,4,26.8,13.3,72.5,28c45.7,14.7,73.2,22,82.5,22c7.3,0,11-3.3,11-10c0-2.7-63.3-120.8-190-354.5S910,124.7,894,96
	c28.7-26.7,56-49.3,82-68l456,841c2,4.7,22,7,60,7c39.3,0,63.3-1,72-3c6-1.3,9-4.3,9-9c0-2-39.7-76.3-119-223
	c-79.3-146.7-160.3-296.3-243-449S1086-38.7,1084-42c27.3-15.3,60.3-31,99-47l-7,7l444,820l64,119l124,229c6.7,10.7,16.3,16,29,16
	c7.3,0,49.7-21.3,127-64c11.3-6,17-15.7,17-29c0-8.7-36.7-79-110-211c100.7-42.7,193.5-101.2,278.5-175.5S2307.3,463.7,2368,369
	c13.3-20.7,20-43.7,20-69s-6.7-48.3-20-69c-98-154.7-224.2-277.8-378.5-369.5S1669.3-276,1492-276c-66.7,0-130.7,6.3-192,19
	l-124-229c-6.7-10.7-16-16-28-16c-8,0-50.7,21.3-128,64c-11.3,6.7-17,16.3-17,29c0,8.7,36.7,79,110,211C934.3-122,783.7-0.3,661,167
	c-1.3,2-5,6.8-11,14.5s-10,12.8-12,15.5s-5.3,7.7-10,15s-8.2,13-10.5,17s-5.2,9.3-8.5,16s-5.7,12.7-7,18s-2.7,11.3-4,18s-2,13-2,19
	c0,26,7,49,21,69c38,61.3,84.5,121.3,139.5,180S867.7,656,925,694c2.7,1.3,4.7,2,6,2C937.7,696,941,692.7,941,686z M1893,436.5
	c31.3-63,47-129.8,47-200.5c0-61.3-12-120.2-36-176.5S1845.7-46.3,1801-89c186,74.7,339,204.3,459,389c-118,182.7-268,311-450,385
	l-49-91C1817.7,552,1861.7,499.5,1893,436.5z M1458-54c9.3-9.3,20.7-14,34-14c84,0,155.7,29.7,215,89s89,131,89,215
	c0,13.3-4.7,24.7-14,34s-20.7,14-34,14s-24.7-4.7-34-14s-14-20.7-14-34c0-57.3-20.3-106.3-61-147s-89.7-61-147-61
	c-13.3,0-24.7-4.7-34-14c-9.3-9.3-14-20.7-14-34S1448.7-44.7,1458-54z M1808-82l-7-7l9,4L1808-82z"/>
</svg>
