<svg xmlns="http://www.w3.org/2000/svg" x="0px" y="0px" viewBox="596 -596 1792 1792" style="enable-background:new 596 -596 1792 1792;">
<path d="M961,124h231v694H961V124z M1171-4.5c-24,23-55.7,34.5-95,34.5h-1c-38,0-68.8-11.5-92.5-34.5S947-56,947-90
	c0-34.7,12.2-63.3,36.5-86c24.3-22.7,55.8-34,94.5-34s69.7,11.3,93,34s35.3,51.3,36,86C1207-56,1195-27.5,1171-4.5z M1792,447
	c0-104.7-38.7-157-116-157c-29.3,0-54,8.2-74,24.5s-35,36.2-45,59.5c-4.7,12-7,30.7-7,56v388h-231c2-418.7,2-650,0-694h231v101h-2
	c48.7-78,118.3-117,209-117c80,0,144.3,26.3,193,79s73,130.3,73,233v398h-231V447z M2175.5-383.5c-56.3-56.3-124.2-84.5-203.5-84.5
	h-960c-79.3,0-147.2,28.2-203.5,84.5S724-259.3,724-180v960c0,79.3,28.2,147.2,84.5,203.5c56.3,56.3,124.2,84.5,203.5,84.5h960
	c79.3,0,147.2-28.2,203.5-84.5c56.3-56.3,84.5-124.2,84.5-203.5v-960C2260-259.3,2231.8-327.2,2175.5-383.5z"/>
</svg>
