<svg xmlns="http://www.w3.org/2000/svg" x="0px" y="0px" viewBox="596 -596 1792 1792" style="enable-background:new 596 -596 1792 1792;">
<path d="M596,940V-468H468v1536h2048V940H596z M2379-331c-6-6-13.7-9-23-9h-435c-14,0-23.8,6.5-29.5,19.5s-3.2,24.8,7.5,35.5
	l121,121l-464,464L1323,67c-6.7-6.7-14.3-10-23-10c-8.7,0-16.3,3.3-23,10L692,652l192,192l416-416l233,233c6.7,6.7,14.3,10,23,10
	s16.3-3.3,23-10l633-633l121,121c10.7,10.7,22.5,13.2,35.5,7.5S2388,141,2388,127v-435C2388-317.3,2385-325,2379-331z"/>
</svg>
