<svg xmlns="http://www.w3.org/2000/svg" x="0px" y="0px" viewBox="596 -596 1792 1792" style="enable-background:new 596 -596 1792 1792;">
<path d="M1006.1,704l216,213l34,236l-202-214L1006.1,704z M1243.1,917l300-215l11,245l-274,218L1243.1,917z M903.1,209l245,204
	l48,327l-227-213L903.1,209z M1170.1,413l352-200l14,324l-317,214L1170.1,413z M1560.1,674l-85-70l78-52c2.7-2,4.3-4.5,5-7.5
	c0.7-3,0.7-7,0-12c-0.7-5-1-7.8-1-8.5l103,79l2,239l-95-80C1567.1,707.3,1564.8,678,1560.1,674z M771.1-428l279,173l68,465l-256-200
	L771.1-428z M1684.1,843l-2-240l230-164l-15,234L1684.1,843z M1072.1-254l423-163l19,441l-373,194L1072.1-254z M1927.1,536l7-119
	c1.3-3.3,0-6.3-4-9l-144-95l2-105l226,142l-20,233L1927.1,536z M2016.1,578l20-228l179-128l-30,222L2016.1,578z M2010.1,611l191-153
	c2.7-1.3,4-3.7,4-7c0-2,3.3-25.5,10-70.5c6.7-45,12.5-86.5,17.5-124.5s7.2-58,6.5-60c-0.7-2-2.3-4.3-5-7l-245-135c-3.3-2-7-2-11,0
	l-206,126c-3.3,2-5,5-5,9l-3,110l-84-56c-4-2.7-7.7-2.7-11,0l-121,74l-5-123c0-4-1.7-6.7-5-8l-126-85l118-61c4-2,6-5.3,6-10l-20-463
	c0-3.3-2-6.3-6-9l-317-153c-2-0.7-4.7-1-8-1l-433,135c-6,2-8.3,6.3-7,13l96,466c1.3,5.3,46.3,41.3,135,108l-94,45
	c-5.3,3.3-7.3,7.3-6,12l72,351c0.7,4,32.3,34.7,95,92l-61,37c-4.7,2.7-6.3,6.3-5,11c36.7,182,56.3,274.3,59,277l228,242
	c0,0.7,2.7,1.7,8,3c1.3,0,3.3-0.7,6-2l293-234c2.7-2,4-4.7,4-8l-7-161l98,83c4.7,3.3,9.3,3.3,14,0l234-187c2.7-2,4-4.7,4-8l8-117
	l71,49C2001.8,614.3,2006.1,614.3,2010.1,611z"/>
</svg>
