<svg xmlns="http://www.w3.org/2000/svg" x="0px" y="0px" viewBox="596 -596 1792 1792" style="enable-background:new 596 -596 1792 1792;">
<path d="M743,43v991h330V43H743z M1043-385.5c-33.3-32.3-77.7-48.5-133-48.5s-100.2,16.2-134.5,48.5S724-312.3,724-263
	c0,48.7,16.7,89.3,50,122s77.3,49,132,49h2c56,0,101.2-16.3,135.5-49c34.3-32.7,51.2-73.3,50.5-122
	C1093.3-312.3,1076.3-353.2,1043-385.5z M2156,133.5C2086.7,57.8,1995,20,1881,20c-42,0-80.2,5.2-114.5,15.5
	c-34.3,10.3-63.3,24.8-87,43.5c-23.7,18.7-42.5,36-56.5,52s-27.7,34.7-41,56h2V43h-329l1,48c0.7,32,1,130.7,1,296s-0.7,381-2,647
	h329V481c0-34,3.7-61,11-81c14-34,35.2-62.5,63.5-85.5c28.3-23,63.5-34.5,105.5-34.5c57.3,0,99.5,19.8,126.5,59.5S1931,434,1931,504
	v530h329V466C2260,320,2225.3,209.2,2156,133.5z"/>
</svg>
