<svg xmlns="http://www.w3.org/2000/svg" x="0px" y="0px" viewBox="596 -596 1792 1792" style="enable-background:new 596 -596 1792 1792;">
<path d="M970.5,629.5c-6.3-6.3-13.8-9.5-22.5-9.5h-64c-8.7,0-16.2,3.2-22.5,9.5c-6.3,6.3-9.5,13.8-9.5,22.5v64
	c0,8.7,3.2,16.2,9.5,22.5c6.3,6.3,13.8,9.5,22.5,9.5h64c8.7,0,16.2-3.2,22.5-9.5c6.3-6.3,9.5-13.8,9.5-22.5v-64
	C980,643.3,976.8,635.8,970.5,629.5z M970.5,373.5c-6.3-6.3-13.8-9.5-22.5-9.5h-64c-8.7,0-16.2,3.2-22.5,9.5
	c-6.3,6.3-9.5,13.8-9.5,22.5v64c0,8.7,3.2,16.2,9.5,22.5c6.3,6.3,13.8,9.5,22.5,9.5h64c8.7,0,16.2-3.2,22.5-9.5
	c6.3-6.3,9.5-13.8,9.5-22.5v-64C980,387.3,976.8,379.8,970.5,373.5z M970.5,117.5c-6.3-6.3-13.8-9.5-22.5-9.5h-64
	c-8.7,0-16.2,3.2-22.5,9.5c-6.3,6.3-9.5,13.8-9.5,22.5v64c0,8.7,3.2,16.2,9.5,22.5c6.3,6.3,13.8,9.5,22.5,9.5h64
	c8.7,0,16.2-3.2,22.5-9.5c6.3-6.3,9.5-13.8,9.5-22.5v-64C980,131.3,976.8,123.8,970.5,117.5z M2122.5,629.5
	c-6.3-6.3-13.8-9.5-22.5-9.5h-960c-8.7,0-16.2,3.2-22.5,9.5c-6.3,6.3-9.5,13.8-9.5,22.5v64c0,8.7,3.2,16.2,9.5,22.5
	c6.3,6.3,13.8,9.5,22.5,9.5h960c8.7,0,16.2-3.2,22.5-9.5c6.3-6.3,9.5-13.8,9.5-22.5v-64C2132,643.3,2128.8,635.8,2122.5,629.5z
	 M2122.5,373.5c-6.3-6.3-13.8-9.5-22.5-9.5h-960c-8.7,0-16.2,3.2-22.5,9.5c-6.3,6.3-9.5,13.8-9.5,22.5v64c0,8.7,3.2,16.2,9.5,22.5
	c6.3,6.3,13.8,9.5,22.5,9.5h960c8.7,0,16.2-3.2,22.5-9.5c6.3-6.3,9.5-13.8,9.5-22.5v-64C2132,387.3,2128.8,379.8,2122.5,373.5z
	 M2122.5,117.5c-6.3-6.3-13.8-9.5-22.5-9.5h-960c-8.7,0-16.2,3.2-22.5,9.5c-6.3,6.3-9.5,13.8-9.5,22.5v64c0,8.7,3.2,16.2,9.5,22.5
	c6.3,6.3,13.8,9.5,22.5,9.5h960c8.7,0,16.2-3.2,22.5-9.5c6.3-6.3,9.5-13.8,9.5-22.5v-64C2132,131.3,2128.8,123.8,2122.5,117.5z
	 M2250.5,866.5c-6.3,6.3-13.8,9.5-22.5,9.5H756c-8.7,0-16.2-3.2-22.5-9.5S724,852.7,724,844V12c0-8.7,3.2-16.2,9.5-22.5
	S747.3-20,756-20h1472c8.7,0,16.2,3.2,22.5,9.5c6.3,6.3,9.5,13.8,9.5,22.5v832C2260,852.7,2256.8,860.2,2250.5,866.5z M2341-357
	c-31.3-31.3-69-47-113-47H756c-44,0-81.7,15.7-113,47s-47,69-47,113V844c0,44,15.7,81.7,47,113s69,47,113,47h1472
	c44,0,81.7-15.7,113-47c31.3-31.3,47-69,47-113V-244C2388-288,2372.3-325.7,2341-357z"/>
</svg>
