<svg xmlns="http://www.w3.org/2000/svg" x="0px" y="0px" viewBox="596 -596 1792 1792" style="enable-background:new 596 -596 1792 1792;">
<path d="M2072,505c-39.7,92-95,173.8-166,245.5S1756.5,873,1670.5,903c-68.7,24-163.3,36-284,36c-38,0-94.5-5.2-169.5-15.5
	S1085.5,908,1047.5,908c-16.7,0-41.2,3.7-73.5,11s-56.5,11-72.5,11c-14.7,0-26-4.8-34-14.5s-12-21.8-12-36.5s3.7-36.5,11-65.5
	s11-51.2,11-66.5c0-27.3-4.2-67.7-12.5-121c-8.3-53.3-12.5-93.3-12.5-120c0-86,8.2-168.8,24.5-248.5s45.7-158.3,88-236
	c42.3-77.7,95.5-140.8,159.5-189.5c43.3-32.7,110.7-67,202-103c37.3-14.7,67.2-26,89.5-34c22.3-8,50.7-15.8,85-23.5
	c34.3-7.7,65.8-11.5,94.5-11.5c39.3,0,97.7,8,175,24c77.3,16,136,24,176,24c13.3,0,33-1.5,59-4.5s45.3-4.5,58-4.5c6,0,10.3,0.3,13,1
	c6.7,12,10,30.3,10,55c0,14.7-1.7,37.2-5,67.5c-3.3,30.3-5,53.2-5,68.5c0,17.3,1.3,33.5,4,48.5c2.7,15,5.7,27.2,9,36.5
	c3.3,9.3,9,24,17,44c7.3,18,13.3,50.2,18,96.5c4.7,46.3,7,84.2,7,113.5C2131.5,321.3,2111.7,413,2072,505z M2250.5,91.5
	c-6-52.3-14.3-91.8-25-118.5c-1.3-4-3.5-9.7-6.5-17s-5.2-12.7-6.5-16c-1.3-3.3-2.7-7.8-4-13.5c-1.3-5.7-2.3-11.3-3-17
	c-0.7-5.7-1-11.8-1-18.5c0-15.3,1.7-38,5-68c3.3-30,5-52.7,5-68c0-56-12.3-100.8-37-134.5c-24.7-33.7-64-50.5-118-50.5
	c-13.3,0-32.7,1.7-58,5s-44.3,5-57,5c-38.7,0-96.5-8-173.5-24s-135.5-24-175.5-24c-81.3,0-186.7,26-316,78
	c-102.7,40.7-180,80.7-232,120c-57.3,43.3-107.3,95.3-150,156C854.8-53.3,821.3,11.3,797,80s-42.5,138.5-54.5,209.5
	s-18,143.5-18,217.5c0,27.3,4.2,67.8,12.5,121.5c8.3,53.7,12.5,93.8,12.5,120.5c0,15.3-3.7,37.7-11,67s-11,52-11,68
	c0,48.7,16.8,91.5,50.5,128.5s74.8,55.5,123.5,55.5c16.7,0,41.2-4.8,73.5-14.5s56.5-14.5,72.5-14.5c37.3,0,93.7,4.8,169,14.5
	c75.3,9.7,132,14.5,170,14.5c134.7,0,243.3-14.7,326-44c103.3-36.7,197-96.8,281-180.5s149.3-179.7,196-288
	c46.7-108.3,70-217.5,70-327.5C2259.5,189.3,2256.5,143.8,2250.5,91.5z"/>
</svg>
