<svg xmlns="http://www.w3.org/2000/svg" x="0px" y="0px" viewBox="596 -596 1792 1792" style="enable-background:new 596 -596 1792 1792;">
<path d="M924,676c-37.3-37.3-82.7-56-136-56s-98.7,18.7-136,56c-37.3,37.3-56,82.7-56,136s18.7,98.7,56,136s82.7,56,136,56
	s98.7-18.7,136-56c37.3-37.3,56-82.7,56-136S961.3,713.3,924,676z M924,164c-37.3-37.3-82.7-56-136-56s-98.7,18.7-136,56
	s-56,82.7-56,136s18.7,98.7,56,136s82.7,56,136,56s98.7-18.7,136-56c37.3-37.3,56-82.7,56-136S961.3,201.3,924,164z M2378.5,693.5
	c-6.3-6.3-13.8-9.5-22.5-9.5H1140c-8.7,0-16.2,3.2-22.5,9.5c-6.3,6.3-9.5,13.8-9.5,22.5v192c0,8.7,3.2,16.2,9.5,22.5
	c6.3,6.3,13.8,9.5,22.5,9.5h1216c8.7,0,16.2-3.2,22.5-9.5c6.3-6.3,9.5-13.8,9.5-22.5V716C2388,707.3,2384.8,699.8,2378.5,693.5z
	 M924-348c-37.3-37.3-82.7-56-136-56s-98.7,18.7-136,56s-56,82.7-56,136s18.7,98.7,56,136c37.3,37.3,82.7,56,136,56
	s98.7-18.7,136-56c37.3-37.3,56-82.7,56-136S961.3-310.7,924-348z M2378.5,181.5c-6.3-6.3-13.8-9.5-22.5-9.5H1140
	c-8.7,0-16.2,3.2-22.5,9.5c-6.3,6.3-9.5,13.8-9.5,22.5v192c0,8.7,3.2,16.2,9.5,22.5c6.3,6.3,13.8,9.5,22.5,9.5h1216
	c8.7,0,16.2-3.2,22.5-9.5c6.3-6.3,9.5-13.8,9.5-22.5V204C2388,195.3,2384.8,187.8,2378.5,181.5z M2378.5-330.5
	c-6.3-6.3-13.8-9.5-22.5-9.5H1140c-8.7,0-16.2,3.2-22.5,9.5c-6.3,6.3-9.5,13.8-9.5,22.5v192c0,8.7,3.2,16.2,9.5,22.5
	c6.3,6.3,13.8,9.5,22.5,9.5h1216c8.7,0,16.2-3.2,22.5-9.5c6.3-6.3,9.5-13.8,9.5-22.5v-192C2388-316.7,2384.8-324.2,2378.5-330.5z"/>
</svg>
