<svg xmlns="http://www.w3.org/2000/svg" x="0px" y="0px" viewBox="596 -596 1792 1792" style="enable-background:new 596 -596 1792 1792;">
<path d="M1144-525c-110.7,47.3-206,111-286,191S714.3-158.7,667-48s-71,226.7-71,348s23.7,237.3,71,348s111,206,191,286
	s175.3,143.7,286,191s226.7,71,348,71c121.3,0,237.3-23.7,348-71s206-111,286-191s143.7-175.3,191-286c47.3-110.7,71-226.7,71-348
	s-23.7-237.3-71-348c-47.3-110.7-111-206-191-286s-175.3-143.7-286-191s-226.7-71-348-71C1370.7-596,1254.7-572.3,1144-525z
	 M1853-378l-194,194c-54.7-18.7-110.3-28-167-28c-56.7,0-112.3,9.3-167,28l-194-194c114-60,234.3-90,361-90S1739-438,1853-378z
	 M724,300c0-126.7,30-247,90-361l194,194c-18.7,54.7-28,110.3-28,167s9.3,112.3,28,167L814,661C754,547,724,426.7,724,300z
	 M1131,978l194-194c54.7,18.7,110.3,28,167,28c56.7,0,112.3-9.3,167-28l194,194c-114,60-234.3,90-361,90S1245,1038,1131,978z
	 M1220.5,571.5c-75-75-112.5-165.5-112.5-271.5s37.5-196.5,112.5-271.5S1386-84,1492-84s196.5,37.5,271.5,112.5S1876,194,1876,300
	s-37.5,196.5-112.5,271.5S1598,684,1492,684S1295.5,646.5,1220.5,571.5z M2004,300c0-56.7-9.3-112.3-28-167l194-194
	c60,114,90,234.3,90,361s-30,247-90,361l-194-194C1994.7,412.3,2004,356.7,2004,300z"/>
</svg>
