<svg xmlns="http://www.w3.org/2000/svg" x="0px" y="0px" viewBox="596 -596 1792 1792" style="enable-background:new 596 -596 1792 1792;">
<path d="M2320.5,839.5l-363-363c-26-24.7-56.3-37-91-37c-35.3,0-67.3,14.3-96,43l-256-256l126-126c9.3-9.3,14-20.7,14-34
	s-4.7-24.7-14-34c1.3,1.3,5.3,5.5,12,12.5s11,11.2,13,12.5s5.8,4.7,11.5,10s10.2,8.7,13.5,10s7.8,3.3,13.5,6s11.2,4.5,16.5,5.5
	s11.3,1.5,18,1.5c25.3,0,48-9.3,68-28c2-2,8-7.5,18-16.5s16.8-15.3,20.5-19s9.2-9.8,16.5-18.5s12.5-16,15.5-22s6-13.3,9-22
	s4.5-17.3,4.5-26c0-26.7-9.3-49.3-28-68l-408-408c-18.7-18.7-41.3-28-68-28c-8.7,0-17.3,1.5-26,4.5c-8.7,3-16,6-22,9
	s-13.3,8.2-22,15.5c-8.7,7.3-14.8,12.8-18.5,16.5c-3.7,3.7-10,10.5-19,20.5s-14.5,16-16.5,18c-18.7,20-28,42.7-28,68
	c0,6.7,0.5,12.7,1.5,18s2.8,10.8,5.5,16.5c2.7,5.7,4.7,10.2,6,13.5c1.3,3.3,4.7,7.8,10,13.5c5.3,5.7,8.7,9.5,10,11.5
	c1.3,2,5.5,6.3,12.5,13s11.2,10.7,12.5,12c-9.3-9.3-20.7-14-34-14c-13.3,0-24.7,4.7-34,14l-348,348c-9.3,9.3-14,20.7-14,34
	s4.7,24.7,14,34c-1.3-1.3-5.3-5.5-12-12.5c-6.7-7-11-11.2-13-12.5s-5.8-4.7-11.5-10s-10.2-8.7-13.5-10s-7.8-3.3-13.5-6
	S801.8,45,796.5,44s-11.3-1.5-18-1.5c-25.3,0-48,9.3-68,28c-2,2-8,7.5-18,16.5s-16.8,15.3-20.5,19s-9.2,9.8-16.5,18.5
	s-12.5,16-15.5,22s-6,13.3-9,22s-4.5,17.3-4.5,26c0,26.7,9.3,49.3,28,68l408,408c18.7,18.7,41.3,28,68,28c8.7,0,17.3-1.5,26-4.5
	c8.7-3,16-6,22-9s13.3-8.2,22-15.5c8.7-7.3,14.8-12.8,18.5-16.5c3.7-3.7,10-10.5,19-20.5s14.5-16,16.5-18c18.7-20,28-42.7,28-68
	c0-6.7-0.5-12.7-1.5-18c-1-5.3-2.8-10.8-5.5-16.5c-2.7-5.7-4.7-10.2-6-13.5c-1.3-3.3-4.7-7.8-10-13.5c-5.3-5.7-8.7-9.5-10-11.5
	c-1.3-2-5.5-6.3-12.5-13s-11.2-10.7-12.5-12c9.3,9.3,20.7,14,34,14c13.3,0,24.7-4.7,34-14l126-126l256,256c-28.7,28.7-43,60.7-43,96
	c0,36,12.7,66,38,90l363,364c24.7,24.7,54.7,37,90,37c34.7,0,65-12.3,91-37l107-108c24.7-24.7,37-54.7,37-90
	C2357.5,895.8,2345.2,865.5,2320.5,839.5z"/>
</svg>
