<svg xmlns="http://www.w3.org/2000/svg" x="0px" y="0px" viewBox="596 -596 1792 1792" style="enable-background:new 596 -596 1792 1792;">
<path d="M1879-399.5c-155.3,0-284.3,35.3-387,106c-102.7-70.7-231.7-106-387-106c-172,0-332.7,42.3-482,127l-155,1272h5
	c82.7,0,166.7-19,252-57c133.3-60.7,264.3-91,393-91c150.7,0,275.3,49.3,374,148c98.7-98.7,223.3-148,374-148
	c128.7,0,259.7,30.3,393,91c84,38,169.7,57,257,57l-155-1272C2211.7-357.2,2051-399.5,1879-399.5z M1492,822.5
	c-114.7-72-239.3-108-374-108c-60,0-119.3,5.8-178,17.5c-58.7,11.7-108.2,24.8-148.5,39.5c-40.3,14.7-95.5,36.3-165.5,65l124-1021
	c114-52,236.7-78,368-78c149.3,0,274,47,374,141c100-94,224.7-141,374-141c131.3,0,254,26,368,78l124,1021
	c-104.7-43.3-191.3-74.5-260-93.5c-68.7-19-146-28.5-232-28.5C1731.3,714.5,1606.7,750.5,1492,822.5z M1866,679.5
	c-134.7-3.3-259.3,30.7-374,102c-110-68-234.7-102-374-102c-78,0-151.8,8.3-221.5,25s-145.8,42-228.5,76l114-941
	c106.7-44,218.7-66,336-66c148,0,272.7,51.7,374,155c98.7-100.7,218.3-152.3,359-155l55,907L1866,679.5z"/>
</svg>
