<svg xmlns="http://www.w3.org/2000/svg" x="0px" y="0px" viewBox="596 -596 1792 1792" style="enable-background:new 596 -596 1792 1792;">
<path d="M842.5,757.5c-6.3-6.3-13.8-9.5-22.5-9.5H628c-8.7,0-16.2,3.2-22.5,9.5S596,771.3,596,780v192c0,8.7,3.2,16.2,9.5,22.5
	s13.8,9.5,22.5,9.5h192c8.7,0,16.2-3.2,22.5-9.5s9.5-13.8,9.5-22.5V780C852,771.3,848.8,763.8,842.5,757.5z M842.5,373.5
	c-6.3-6.3-13.8-9.5-22.5-9.5H628c-8.7,0-16.2,3.2-22.5,9.5S596,387.3,596,396v192c0,8.7,3.2,16.2,9.5,22.5
	c6.3,6.3,13.8,9.5,22.5,9.5h192c8.7,0,16.2-3.2,22.5-9.5c6.3-6.3,9.5-13.8,9.5-22.5V396C852,387.3,848.8,379.8,842.5,373.5z
	 M842.5-10.5c-6.3-6.3-13.8-9.5-22.5-9.5H628c-8.7,0-16.2,3.2-22.5,9.5S596,3.3,596,12v192c0,8.7,3.2,16.2,9.5,22.5
	s13.8,9.5,22.5,9.5h192c8.7,0,16.2-3.2,22.5-9.5s9.5-13.8,9.5-22.5V12C852,3.3,848.8-4.2,842.5-10.5z M2378.5,757.5
	c-6.3-6.3-13.8-9.5-22.5-9.5H1012c-8.7,0-16.2,3.2-22.5,9.5c-6.3,6.3-9.5,13.8-9.5,22.5v192c0,8.7,3.2,16.2,9.5,22.5
	c6.3,6.3,13.8,9.5,22.5,9.5h1344c8.7,0,16.2-3.2,22.5-9.5c6.3-6.3,9.5-13.8,9.5-22.5V780C2388,771.3,2384.8,763.8,2378.5,757.5z
	 M842.5-394.5c-6.3-6.3-13.8-9.5-22.5-9.5H628c-8.7,0-16.2,3.2-22.5,9.5S596-380.7,596-372v192c0,8.7,3.2,16.2,9.5,22.5
	s13.8,9.5,22.5,9.5h192c8.7,0,16.2-3.2,22.5-9.5s9.5-13.8,9.5-22.5v-192C852-380.7,848.8-388.2,842.5-394.5z M2378.5,373.5
	c-6.3-6.3-13.8-9.5-22.5-9.5H1012c-8.7,0-16.2,3.2-22.5,9.5c-6.3,6.3-9.5,13.8-9.5,22.5v192c0,8.7,3.2,16.2,9.5,22.5
	c6.3,6.3,13.8,9.5,22.5,9.5h1344c8.7,0,16.2-3.2,22.5-9.5c6.3-6.3,9.5-13.8,9.5-22.5V396C2388,387.3,2384.8,379.8,2378.5,373.5z
	 M2378.5-10.5c-6.3-6.3-13.8-9.5-22.5-9.5H1012c-8.7,0-16.2,3.2-22.5,9.5C983.2-4.2,980,3.3,980,12v192c0,8.7,3.2,16.2,9.5,22.5
	c6.3,6.3,13.8,9.5,22.5,9.5h1344c8.7,0,16.2-3.2,22.5-9.5c6.3-6.3,9.5-13.8,9.5-22.5V12C2388,3.3,2384.8-4.2,2378.5-10.5z
	 M2378.5-394.5c-6.3-6.3-13.8-9.5-22.5-9.5H1012c-8.7,0-16.2,3.2-22.5,9.5c-6.3,6.3-9.5,13.8-9.5,22.5v192c0,8.7,3.2,16.2,9.5,22.5
	c6.3,6.3,13.8,9.5,22.5,9.5h1344c8.7,0,16.2-3.2,22.5-9.5c6.3-6.3,9.5-13.8,9.5-22.5v-192C2388-380.7,2384.8-388.2,2378.5-394.5z"/>
</svg>
