<svg xmlns="http://www.w3.org/2000/svg" x="0px" y="0px" viewBox="596 -596 1792 1792" style="enable-background:new 596 -596 1792 1792;">
<path d="M1923-59.4c23.3-22,51.3-33,84-33c49.3,0,81.7,7,97,21v1c18.7,14,36.7,37.3,54,70l129-99c-2.7-3.3-9-12.5-19-27.5
	s-18.7-27-26-36c-7.3-9-15-17.2-23-24.5h1c-32-28-62.2-45.8-90.5-53.5c-28.3-7.7-68.5-12.5-120.5-14.5c-74-2.7-140.2,23.3-198.5,78
	c-58.3,54.7-87.5,118.7-87.5,192c0,11.3,1,22.3,3,33c7.3,46.7,20.3,87.5,39,122.5s40.3,62.3,65,82s51.7,37,81,52s58.5,26.3,87.5,34
	c29,7.7,57.2,16.7,84.5,27c27.3,10.3,51.5,20.8,72.5,31.5s37.8,26,50.5,46c12.7,20,19,44,19,72c0,53.3-19.2,96.2-57.5,128.5
	c-38.3,32.3-84.5,48.5-138.5,48.5c-91.3,0-169-66.7-233-200c-17.3-36-35.7-78.3-55-127s-36-92.2-50-130.5s-30.8-79.8-50.5-124.5
	s-39.2-83.7-58.5-117c-19.3-33.3-43.5-66.3-72.5-99s-60.7-59.3-95-80c-34.3-20.7-75.5-37.3-123.5-50s-101-19-159-19
	c-70,0-138.2,15.3-204.5,46s-123.7,71.2-172,121.5s-87,109.2-116,176.5s-43.5,136-43.5,206c0,97.3,22.7,188.8,68,274.5
	s108.8,154.8,190.5,207.5s171.5,79,269.5,79c171.3,0,300.7-50.7,388-152l-1-1c19.3-24,34-47.3,44-70l-84-152
	c-18,35.3-45.7,74-83,116c-54,63.3-140,95-258,95c-104.7,0-192.5-39.8-263.5-119.5S760,399.3,760,292.6c0-64,17-125.7,51-185
	S891,0.1,949-36.9s119-55.5,183-55.5c54.7,0,102,6.7,142,20s74.7,34.7,104,64c29.3,29.3,53.8,61.5,73.5,96.5
	c19.7,35,40.2,79.5,61.5,133.5c7.3,18.7,19.2,50.3,35.5,95c16.3,44.7,29.5,80.2,39.5,106.5s24.5,60.7,43.5,103s36.8,76.8,53.5,103.5
	s37.7,55.8,63,87.5s51,56.5,77,74.5s56.5,33.2,91.5,45.5s72.2,18.5,111.5,18.5c99.3,0,184.2-32.2,254.5-96.5
	c70.3-64.3,105.5-145.2,105.5-242.5c0-160.7-108.3-271.3-325-332c-24.7-6.7-43-12.2-55-16.5s-26.7-11-44-20s-31-20.3-41-34
	s-18.3-30.2-25-49.5c-6.7-23.3-10-37-10-41C1888-9.7,1899.7-37.4,1923-59.4z"/>
</svg>
