<svg xmlns="http://www.w3.org/2000/svg" x="0px" y="0px" viewBox="596 -596 1792 1792" style="enable-background:new 596 -596 1792 1792;">
<path d="M1857,221.4c-12.7,12.7-27.7,19-45,19c-121.3,0-225.8,17.3-313.5,52c-87.7,34.7-177.2,93.3-268.5,176
	c-13.3,12.7-35.7,34.7-67,66c-31.3,31.3-56,55-74,71c-14,12.7-29,19-45,19c-17.3,0-32.3-6.3-45-19c-12.7-12.7-19-27.7-19-45
	c0-16,6.3-31,19-45c81.3-90,159.8-163.2,235.5-219.5c75.7-56.3,162.2-101,259.5-134c97.3-33,203.3-49.5,318-49.5
	c17.3,0,32.3,6.3,45,19s19,27.7,19,45S1869.7,208.7,1857,221.4z M2380-117.6c-5.3-38.7-13.3-80-24-124c-10.7-44-26.5-81.3-47.5-112
	s-44.5-46-70.5-46c-3-13-17.5-11.5-43.5,4.5s-38.2,21.3-36.5,16c1.7-5.3-7.3,1.3-27,20c-19.7,18.7-29.5,28-29.5,28l-29.5,29.5
	c-26,24.7-63.8,43.5-113.5,56.5s-104.2,21-163.5,24s-118.8,5-178.5,6s-119.5,4-179.5,9s-108.3,13.5-145,25.5
	c-72.7,24-140.7,55.8-204,95.5s-120.2,86-170.5,139c-50.3,53-90,114.5-119,184.5S755,381.7,755,458.4c0,35.3,3,70,9,104
	c1.3,6.7,6.7,21.3,16,44c9.3,22.7,14,35.3,14,38c0,12.7-10.3,28.7-31,48c-20.7,19.3-43.3,38-68,56s-47.3,39.8-68,65.5
	c-20.7,25.7-31,50.2-31,73.5c0,4.7,0.5,9.2,1.5,13.5c1,4.3,2,7.5,3,9.5s2.8,5.3,5.5,10c2.7,4.7,4.7,8.3,6,11
	c11.3,19.3,20.3,33.3,27,42c6.7,8.7,17,16.7,31,24c14,7.3,31,11,51,11c19.3,0,39.3-10.7,60-32c20.7-21.3,38.2-44.7,52.5-70
	c14.3-25.3,29.3-48.7,45-70c15.7-21.3,28.8-32,39.5-32c15.3,0,47.3,12.3,96,37c48.7,24.7,78,38.7,88,42c92,31.3,187.3,47,286,47
	c149.3,0,295.3-36,438-108c146-72.7,265.2-162,357.5-268c92.3-106,153.8-233.7,184.5-383c13.3-65.3,20-129.7,20-193
	C2388-47,2385.3-79,2380-117.6z"/>
</svg>
