<svg xmlns="http://www.w3.org/2000/svg" x="0px" y="0px" viewBox="596 -596 1792 1792" style="enable-background:new 596 -596 1792 1792;">
<path d="M1236,44c0-70.7,25-131,75-181s110.3-75,181-75c70.7,0,131,25,181,75s75,110.3,75,181v192h-512V44z M2040,264
	c-18.7-18.7-41.3-28-68-28h-32V44c0-122.7-44-228-132-316s-193.3-132-316-132s-228,44-316,132S1044-78.7,1044,44v192h-32
	c-26.7,0-49.3,9.3-68,28s-28,41.3-28,68v576c0,26.7,9.3,49.3,28,68s41.3,28,68,28h960c26.7,0,49.3-9.3,68-28
	c18.7-18.7,28-41.3,28-68V332C2068,305.3,2058.7,282.7,2040,264z"/>
</svg>
