<svg xmlns="http://www.w3.org/2000/svg" x="0px" y="0px" viewBox="596 -596 1792 1792" style="enable-background:new 596 -596 1792 1792;">
<path d="M1300,460h128V172h-2c-8.7,13.3-27,32.3-55,57l-77-80l148-137h114v448h128v96h-384V460z M1791,158
	c-14-48-33.8-92.7-59.5-134S1672-51,1630-77s-88-39-138-39s-96,13-138,39s-75.8,59.7-101.5,101c-25.7,41.3-45.5,86-59.5,134
	s-21,95.3-21,142s7,94,21,142s33.8,92.7,59.5,134c25.7,41.3,59.5,75,101.5,101s88,39,138,39s96-13,138-39s75.8-59.7,101.5-101
	c25.7-41.3,45.5-86,59.5-134s21-95.3,21-142S1805,206,1791,158z M2143,631c-50,50-75,110.3-75,181H916c0-70.7-25-131-75-181
	s-110.3-75-181-75V44c70.7,0,131-25,181-75s75-110.3,75-181h1152c0,70.7,25,131,75,181s110.3,75,181,75v512
	C2253.3,556,2193,581,2143,631z M2433-321c-12.7-12.7-27.7-19-45-19H596c-17.3,0-32.3,6.3-45,19s-19,27.7-19,45V876
	c0,17.3,6.3,32.3,19,45s27.7,19,45,19h1792c17.3,0,32.3-6.3,45-19c12.7-12.7,19-27.7,19-45V-276C2452-293.3,2445.7-308.3,2433-321z"
	/>
</svg>
