<svg xmlns="http://www.w3.org/2000/svg" x="0px" y="0px" viewBox="596 -596 1792 1792" style="enable-background:new 596 -596 1792 1792;">
<path d="M2068.2-116c0,9.3,3,17,9,23s13.7,9,23,9h134l-255,254c-97.3-76.7-206.7-118-328-124c-22.7-63.3-53.7-119.7-93-169l254-255
	v134c0,9.3,3,17,9,23s13.7,9,23,9h64c9.3,0,17-3,23-9s9-13.7,9-23v-288c0-17.3-6.3-32.3-19-45s-27.7-19-45-19h-288c-9.3,0-17,3-23,9
	s-9,13.7-9,23v64c0,9.3,3,17,9,23s13.7,9,23,9h134l-255,254c-59.3-46.7-125.5-81-198.5-103s-148.8-28.3-227.5-19
	c-90,10-172.7,39.8-248,89.5S657.2-133,611.2-55s-72,162-78,252c-5.3,79.3,5.3,156,32,230c26.7,74,64.5,138.2,113.5,192.5
	c49,54.3,108.2,98.7,177.5,133c69.3,34.3,143,53.5,221,57.5c44.7,127.3,125.2,227.3,241.5,300c116.3,72.7,244.5,99.3,384.5,80
	c122-17.3,228-69.3,318-156c90-86.7,145.3-190.7,166-312c14.7-85.3,11.5-167.7-9.5-247s-56.8-150.7-107.5-214l254-255v134
	c0,9.3,3,17,9,23s13.7,9,23,9h64c9.3,0,17-3,23-9s9-13.7,9-23v-288c0-17.3-6.3-32.3-19-45c-12.7-12.7-27.7-19-45-19h-288
	c-9.3,0-17,3-23,9s-9,13.7-9,23V-116z M1447.2,528c-72.7,83.3-163,133.3-271,150c-2.7-25.3-4-44.7-4-58c0-111.3,36.3-208.7,109-292
	c72.7-83.3,163-133.3,271-150c2.7,25.3,4,44.7,4,58C1556.2,347.3,1519.8,444.6,1447.2,528z M791.7-80.5
	C879.3-168.2,984.8-212,1108.2-212c90,0,171.8,24.3,245.5,73c73.7,48.7,128.2,113,163.5,193c-135.3,24.7-248,90.2-338,196.5
	s-135,229.5-135,369.5c0,20,1,39.7,3,59c-110-15.3-202-65-276-149s-111-182-111-294C660.2,112.6,704,7.1,791.7-80.5z M1374.7,995
	c-73.7-48.7-128.2-113-163.5-193c135.3-24.7,248-90.2,338-196.5s135-229.5,135-369.5c0-20-1-39.7-3-59c110,15.3,202,65,276,149
	s111,182,111,294c0,123.3-43.8,228.8-131.5,316.5S1743.5,1068,1620.2,1068C1530.2,1068,1448.3,1043.6,1374.7,995z"/>
</svg>
