<svg xmlns="http://www.w3.org/2000/svg" x="0px" y="0px" viewBox="596 -596 1792 1792" style="enable-background:new 596 -596 1792 1792;">
<path d="M1974-553c4-10.7,2.8-20.5-3.5-29.5S1955.3-596,1944-596h-61c-19.3,0-31.7,6.7-37,20c-29.3,70.7-76,127.7-140,171
	s-135.3,65-214,65c-78.7,0-150-21.7-214-65s-110.7-100.3-140-171c-5.3-13.3-15-20-29-20h-69c-11.3,0-20.2,4.5-26.5,13.5
	s-7.5,18.8-3.5,29.5c42,118,118,209,228,273c-96.7,48-174.5,118.2-233.5,210.5S916,124.7,916,236c0,147.3,49.2,275.5,147.5,384.5
	S1283.3,792,1428,808v132h-96c-9.3,0-17,3-23,9s-9,13.7-9,23v64c0,9.3,3,17,9,23s13.7,9,23,9h96v96c0,9.3,3,17,9,23s13.7,9,23,9h64
	c9.3,0,17-3,23-9s9-13.7,9-23v-96h96c9.3,0,17-3,23-9s9-13.7,9-23v-64c0-9.3-3-17-9-23s-13.7-9-23-9h-96V808
	c144.7-16,266.2-78.5,364.5-187.5S2068,383.3,2068,236c0-111.3-29.5-213.2-88.5-305.5S1842.7-232,1746-280
	C1856-344,1932-435,1974-553z M1175.5,552.5C1087.8,464.8,1044,359.3,1044,236s43.8-228.8,131.5-316.5S1368.7-212,1492-212
	s228.8,43.8,316.5,131.5C1896.2,7.2,1940,112.7,1940,236s-43.8,228.8-131.5,316.5C1720.8,640.2,1615.3,684,1492,684
	S1263.2,640.2,1175.5,552.5z"/>
</svg>
