<svg xmlns="http://www.w3.org/2000/svg" x="0px" y="0px" viewBox="596 -596 1792 1792" style="enable-background:new 596 -596 1792 1792;">
<path d="M1572,812c0-22-7.8-40.8-23.5-56.5S1514,732,1492,732s-40.8,7.8-56.5,23.5S1412,790,1412,812s7.8,40.8,23.5,56.5
	S1470,892,1492,892s40.8-7.8,56.5-23.5S1572,834,1572,812z M1780,652V-52c0-8.7-3.2-16.2-9.5-22.5S1756.7-84,1748-84h-512
	c-8.7,0-16.2,3.2-22.5,9.5S1204-60.7,1204-52v704c0,8.7,3.2,16.2,9.5,22.5s13.8,9.5,22.5,9.5h512c8.7,0,16.2-3.2,22.5-9.5
	S1780,660.7,1780,652z M1588-196c0-10.7-5.3-16-16-16h-160c-10.7,0-16,5.3-16,16s5.3,16,16,16h160C1582.7-180,1588-185.3,1588-196z
	 M1876-212V812c0,34.7-12.7,64.7-38,90s-55.3,38-90,38h-512c-34.7,0-64.7-12.7-90-38s-38-55.3-38-90V-212c0-34.7,12.7-64.7,38-90
	s55.3-38,90-38h512c34.7,0,64.7,12.7,90,38S1876-246.7,1876-212z"/>
</svg>
