<svg xmlns="http://www.w3.org/2000/svg" x="0px" y="0px" viewBox="596 -596 1792 1792" style="enable-background:new 596 -596 1792 1792;">
<path d="M1857,447c-12.7-12.7-27.7-19-45-19h-640c-17.3,0-32.3,6.3-45,19s-19,27.7-19,45s6.3,32.3,19,45c12.7,12.7,27.7,19,45,19
	h640c17.3,0,32.3-6.3,45-19c12.7-12.7,19-27.7,19-45S1869.7,459.7,1857,447z M1326.5-46.5c-25-25-55.2-37.5-90.5-37.5
	s-65.5,12.5-90.5,37.5S1108,8.7,1108,44s12.5,65.5,37.5,90.5s55.2,37.5,90.5,37.5s65.5-12.5,90.5-37.5S1364,79.3,1364,44
	S1351.5-21.5,1326.5-46.5z M1838.5-46.5c-25-25-55.2-37.5-90.5-37.5c-35.3,0-65.5,12.5-90.5,37.5S1620,8.7,1620,44
	s12.5,65.5,37.5,90.5s55.2,37.5,90.5,37.5c35.3,0,65.5-12.5,90.5-37.5S1876,79.3,1876,44S1863.5-21.5,1838.5-46.5z M2081,548.5
	c-34,79-79.5,147-136.5,204s-125,102.5-204,136.5s-161.8,51-248.5,51c-86.7,0-169.5-17-248.5-51s-147-79.5-204-136.5
	S937,627.5,903,548.5S852,386.7,852,300s17-169.5,51-248.5s79.5-147,136.5-204s125-102.5,204-136.5s161.8-51,248.5-51
	c86.7,0,169.5,17,248.5,51s147,79.5,204,136.5s102.5,125,136.5,204s51,161.8,51,248.5S2115,469.5,2081,548.5z M2157-85.5
	c-68.7-117.7-161.8-210.8-279.5-279.5S1631.3-468,1492-468s-267.8,34.3-385.5,103S895.7-203.2,827-85.5S724,160.7,724,300
	s34.3,267.8,103,385.5S988.8,896.3,1106.5,965s246.2,103,385.5,103s267.8-34.3,385.5-103s210.8-161.8,279.5-279.5
	c68.7-117.7,103-246.2,103-385.5S2225.7,32.2,2157-85.5z"/>
</svg>
