<svg xmlns="http://www.w3.org/2000/svg" x="0px" y="0px" viewBox="596 -596 1792 1792" style="enable-background:new 596 -596 1792 1792;">
<path d="M1093-592L613-336c-11.3,5.3-17,14.7-17,28v1472c0,8.7,3.2,16.2,9.5,22.5s13.8,9.5,22.5,9.5c5.3,0,10.3-1.3,15-4l480-256
	c11.3-5.3,17-14.7,17-28V-564c0-8.7-3.2-16.2-9.5-22.5c-6.3-6.3-13.8-9.5-22.5-9.5C1102.7-596,1097.7-594.7,1093-592z M2341-592
	l-480,256c-11.3,5.3-17,14.7-17,28v1472c0,8.7,3.2,16.2,9.5,22.5s13.8,9.5,22.5,9.5c5.3,0,10.3-1.3,15-4l480-256
	c11.3-5.3,17-14.7,17-28V-564c0-8.7-3.2-16.2-9.5-22.5c-6.3-6.3-13.8-9.5-22.5-9.5C2350.7-596,2345.7-594.7,2341-592z M1213.5-586.5
	c-6.3,6.3-9.5,13.8-9.5,22.5V908c0,12.7,6,22.3,18,29l512,256c4,2,8.7,3,14,3c8.7,0,16.2-3.2,22.5-9.5s9.5-13.8,9.5-22.5V-308
	c0-12.7-6-22.3-18-29l-512-256c-4-2-8.7-3-14-3C1227.3-596,1219.8-592.8,1213.5-586.5z"/>
</svg>
