<svg xmlns="http://www.w3.org/2000/svg" x="0px" y="0px" viewBox="596 -596 1792 1792" style="enable-background:new 596 -596 1792 1792;">
<path d="M1940,268v64c0,9.3-3,17-9,23s-13.7,9-23,9h-832c-9.3,0-17-3-23-9s-9-13.7-9-23v-64c0-9.3,3-17,9-23s13.7-9,23-9h832
	c9.3,0,17,3,23,9S1940,258.7,1940,268z M2068,716v-832c0-44-15.7-81.7-47-113c-31.3-31.3-69-47-113-47h-832c-44,0-81.7,15.7-113,47
	s-47,69-47,113v832c0,44,15.7,81.7,47,113s69,47,113,47h832c44,0,81.7-15.7,113-47C2052.3,797.7,2068,760,2068,716z M2196-116v832
	c0,79.3-28.2,147.2-84.5,203.5S1987.3,1004,1908,1004h-832c-79.3,0-147.2-28.2-203.5-84.5C816.2,863.2,788,795.3,788,716v-832
	c0-79.3,28.2-147.2,84.5-203.5C928.8-375.8,996.7-404,1076-404h832c79.3,0,147.2,28.2,203.5,84.5S2196-195.3,2196-116z"/>
</svg>
