<svg xmlns="http://www.w3.org/2000/svg" x="0px" y="0px" viewBox="596 -596 1792 1792" style="enable-background:new 596 -596 1792 1792;">
<path d="M1555.9-84h160c9.3,0,17-3,23-9s9-13.7,9-23v-64c0-9.3-3-17-9-23s-13.7-9-23-9h-160v-165l92,92c6.7,6,14.3,9,23,9
	c8.7,0,16-3,22-9l46-46c6-6,9-13.3,9-22s-3-16.3-9-23l-202-201c-12.7-12.7-27.7-19-45-19c-17.3,0-32.3,6.3-45,19l-202,201
	c-6,6.7-9,14.3-9,23s3,16,9,22l46,46c6,6,13.3,9,22,9s16.3-3,23-9l92-92v165h-160c-9.3,0-17,3-23,9s-9,13.7-9,23v64c0,9.3,3,17,9,23
	s13.7,9,23,9h160V48c-100,10.7-190.5,45-271.5,103s-143,132.7-186,224s-60.5,188.7-52.5,292c7.3,89.3,34.2,172.3,80.5,249
	c46.3,76.7,107,139.3,182,188c75,48.7,156.8,78,245.5,88c113.3,12.7,219.7-5.3,319-54c99.3-48.7,178-119.3,236-212s87-194.7,87-306
	c0-147.3-49.2-275.5-147.5-384.5C1822.1,126.5,1700.6,64,1555.9,48V-84z M1175.4,936.5c-87.7-87.7-131.5-193.2-131.5-316.5
	s43.8-228.8,131.5-316.5S1368.6,172,1491.9,172s228.8,43.8,316.5,131.5c87.7,87.7,131.5,193.2,131.5,316.5s-43.8,228.8-131.5,316.5
	c-87.7,87.7-193.2,131.5-316.5,131.5S1263.1,1024.2,1175.4,936.5z"/>
</svg>
