<svg xmlns="http://www.w3.org/2000/svg" x="0px" y="0px" viewBox="596 -596 1792 1792" style="enable-background:new 596 -596 1792 1792;" xml:space="preserve">
<path d="M1846.1,686.6c-16.7,10.3-37.5,15-62.5-3.7-71.5-8s-39.7-9.5-51-15.5c-32.7-16-57.3-40.7-74-74
	c-16.7-33.3-21-67.7-13-103c4.7-18.7,28.2-71.8,70.5-159.5s64.2-136.8,65.5-147.5c2.7-25.3-5.7-38-25-38c-14-0.7-27.7,8.7-41,28
	c-4,6-19.3,35.5-46,88.5s-53.8,107.5-81.5,163.5c-27.7,56-42.8,86.7-45.5,92c-13.3,25.3-31.7,41.8-55,49.5
	c-23.3,7.7-43.5,5.3-60.5-7c-17-12.3-23.5-31.2-19.5-56.5c0.7-7.3,17.3-51.5,50-132.5c32.7-81,49.7-127.5,51-139.5
	c4-25.3-3-43-21-53c-9.3-4.7-19.2-4.7-29.5,0c-10.3,4.7-17.5,10.7-21.5,18c-3.3,5.3-29,70.2-77,194.5s-74.3,190.8-79,199.5
	c-12,22-24.8,37.3-38.5,46c-13.7,8.7-30.5,13.7-50.5,15c-46.7,2.7-83.5-12.7-110.5-46c-27-33.3-33.2-73-18.5-119
	c0-0.7,7.2-25,21.5-73s27.7-92.7,40-134c12.3-41.3,26.8-85.5,43.5-132.5c16.7-47,30.3-79.8,41-98.5c15.3-28,40.7-49.7,76-65
	c35.3-15.3,66.7-17,94-5c20,8.7,48,22,84,40c7.3,1.3,13,2.3,17,3s9.5-1.2,16.5-5.5s12-7.7,15-10s7.2-6,12.5-11c5.3-5,8.3-7.8,9-8.5
	c18-15.3,33-25.7,45-31s28-6.3,48-3c4,0.7,7.8,1.5,11.5,2.5s7.3,2.5,11,4.5s6.8,3.8,9.5,5.5s5.8,4.2,9.5,7.5s6.5,5.8,8.5,7.5
	s5,4.7,9,9s7,7.2,9,8.5c1.3,2.3,3.5,4,6.5,5s5,2.2,6,3.5s3,1.8,6,1.5s4.7-0.5,5-0.5s2-0.7,5-2s4.5-2,4.5-2l5-2.5l3-2
	c20-11.3,45-16.7,75-16c68.7,1.3,107.7,35.7,117,103c3.3,26-7.3,68.5-32,127.5s-49.7,119.3-75,181s-36.3,108.2-33,139.5
	c2,17.3,10.5,30,25.5,38s31.2,12.2,48.5,12.5c17.3,0.3,33.8,3.8,49.5,10.5c15.7,6.7,24.8,18,27.5,34
	C1869.4,660.1,1862.8,676.3,1846.1,686.6z M899.1,831.1c-8.7-5.3-17.7-7-27-5c-9.3,2-16.7,7.3-22,16c-5.3,8.7-7,17.7-5,27
	c2,10,7.2,17.7,15.5,23c8.3,5.3,17.2,7,26.5,5c10-2,17.7-7.2,23-15.5c5.3-8.3,7-17.5,5-27.5S907.8,836.4,899.1,831.1z
	 M1453.6,1096.1c-13.7-2.7-26.2,0-37.5,8c-11.3,8-18.2,18.8-20.5,32.5c-2.3,13.7,0.2,26.2,7.5,37.5c8,11.3,18.8,18.3,32.5,21
	c13.7,2.7,26.2,0,37.5-8c11.3-8,18.2-18.8,20.5-32.5c2.3-13.7-0.5-26.2-8.5-37.5C1477.8,1105.8,1467.3,1098.8,1453.6,1096.1z
	 M721.1,246.6c-4-21-14.7-37.8-32-50.5c-17.3-12-36.5-16-57.5-12s-37.5,15-49.5,33c-12,17.3-16,36.7-12,58s14.7,38,32,50
	c17.3,12.7,36.5,17,57.5,13s37.5-15,49.5-33S725.1,267.6,721.1,246.6z M1946.6,948.1c-21.7-4-41.8,0.3-60.5,13c-18,13.3-29,31-33,53
	c-4,22,0.3,42.3,13,61c12.7,18.7,29.8,30,51.5,34s41.8-0.3,60.5-13c18.7-12.7,30-30.2,34-52.5c4-22.3-0.3-42.8-13-61.5
	C1985.8,963.4,1968.3,952.1,1946.6,948.1z M2169.1,290.6c10.7-34.3,12.5-67.5,5.5-99.5s-22.2-61.7-45.5-89
	c-23.3-27.3-52.3-46.3-87-57c4-48.7-1.8-95.5-17.5-140.5s-38.2-83.3-67.5-115s-64.2-58.3-104.5-80s-83.2-33.7-128.5-36
	s-92,3.5-140,17.5c-47.3-36.7-100.5-58.8-159.5-66.5s-115-2-168,17s-101.8,49.5-146.5,91.5c-44.7,42-77.7,91.3-99,148
	c-45.3,6-85.7,22.8-121,50.5c-35.3,27.7-61.8,60.5-79.5,98.5c-17.7,38-25.8,79.7-24.5,125c1.3,45.3,14,88,38,128
	c-41.3,38.7-68.3,84.8-81,138.5c-12.7,53.7-12,104.3,2,152c14,47.7,40.8,90.3,80.5,128c39.7,37.7,87.2,61.2,142.5,70.5
	c2,60.7,19.7,115.3,53,164c47.3,69.3,111.7,111.5,193,126.5c81.3,15,156.3-1.2,225-48.5c0.7-0.7,5-4,13-10
	c40.7,36.7,87.3,55.8,140,57.5c52.7,1.7,100.5-13.2,143.5-44.5s71.2-73.7,84.5-127c72.7,2,139-18,199-60
	c72-50.7,116.8-119.8,134.5-207.5c17.7-87.7,3.5-169.2-42.5-244.5C2139.1,354.1,2158.4,324.9,2169.1,290.6z M949.6-306.4
	c-16.3-3-30.8,0.2-43.5,9.5c-13.3,9.3-21.5,22.2-24.5,38.5s0.2,31.2,9.5,44.5c8.7,13.3,21.2,21.5,37.5,24.5
	c16.3,3,30.8-0.2,43.5-9.5c13.3-9.3,21.5-22.2,24.5-38.5s-0.2-31.2-9.5-44.5C978.4-295.2,965.9-303.4,949.6-306.4z M1129.1-589.4
	c-9.3-6.3-19.7-8.2-31-5.5c-10.7,2.7-19.2,8.7-25.5,18c-6.3,9.3-8.5,19.7-6.5,31c2.7,11.3,8.7,20.2,18,26.5c9.3,6.3,19.7,8.2,31,5.5
	c11.3-2.7,20-8.8,26-18.5s7.7-19.8,5-30.5C1144.1-574.2,1138.4-583.1,1129.1-589.4z M2311.6,354.6c-11-7.7-23.2-10.2-36.5-7.5
	c-13.3,3.3-23.5,10.7-30.5,22s-9.2,23.7-6.5,37c2.7,13.3,9.7,23.5,21,30.5c11.3,7,23.3,9.2,36,6.5c13.3-2.7,23.5-9.7,30.5-21
	c7-11.3,9.2-23.7,6.5-37C2329.4,372.4,2322.6,362.3,2311.6,354.6z M1621.1-543.9c-20.7-5.3-40-2.3-58,9s-29.5,27.3-34.5,48
	s-2.2,40.3,8.5,59c10.7,18,26.2,29.5,46.5,34.5s39.5,2.2,57.5-8.5c18.7-10.7,30.5-26.5,35.5-47.5s2.2-40.5-8.5-58.5
	C1657.4-526.6,1641.8-538.6,1621.1-543.9z M2398.6,125.1c-8.3-5.3-17.2-7-26.5-5c-10,2-17.7,7.3-23,16c-5.3,8.7-7,18-5,28
	c2,9.3,7.2,16.8,15.5,22.5c8.3,5.7,17.5,7.5,27.5,5.5c10-2.7,17.7-8.2,23-16.5c5.3-8.3,6.7-17.5,4-27.5
	C2412.1,138.1,2406.9,130.4,2398.6,125.1z M2181.6-120.9c-17.7-3.3-33.8,0.3-48.5,11c-14.7,10.7-23.7,25-27,43c-3.3,18,0,34.3,10,49
	s24,23.7,42,27s34.3,0,49-10c14.7-10.7,23.5-25,26.5-43s-0.5-34.3-10.5-49C2213.1-108.2,2199.3-117.6,2181.6-120.9z"/>
</svg>
