<svg xmlns="http://www.w3.org/2000/svg" x="0px" y="0px" viewBox="596 -596 1792 1792" style="enable-background:new 596 -596 1792 1792;">
<path d="M2232-504c-18.7-18.7-41.3-28-68-28c-10.7,0-20,1.3-28,4l-832,256c-20,6.7-36.3,18.5-49,35.5c-12.7,17-19,35.8-19,56.5v967
	c-58-26-122-39-192-39c-30,0-62.2,3.5-96.5,10.5s-68.8,17.7-103.5,32S780.7,825,758,851s-34,55.7-34,89s11.3,63,34,89
	s51.3,46.2,86,60.5s69.2,25,103.5,32s66.5,10.5,96.5,10.5s62.2-3.5,96.5-10.5s68.8-17.7,103.5-32s63.3-34.5,86-60.5
	c22.7-26,34-55.7,34-89V231L2132-6v537c-58-26-122-39-192-39c-30,0-62.2,3.5-96.5,10.5s-68.8,17.7-103.5,32
	c-34.7,14.3-63.3,34.5-86,60.5c-22.7,26-34,55.7-34,89s11.3,63,34,89c22.7,26,51.3,46.2,86,60.5c34.7,14.3,69.2,25,103.5,32
	S1910,876,1940,876s62.2-3.5,96.5-10.5c34.3-7,68.8-17.7,103.5-32c34.7-14.3,63.3-34.5,86-60.5c22.7-26,34-55.7,34-89V-436
	C2260-462.7,2250.7-485.3,2232-504z"/>
</svg>
