<svg xmlns="http://www.w3.org/2000/svg" x="0px" y="0px" viewBox="596 -596 1792 1792" style="enable-background:new 596 -596 1792 1792;">
<path d="M2241,191c-12.7-12.7-27.7-19-45-19h-384c-17.3,0-32.3,6.3-45,19s-19,27.7-19,45v128c0,34.7-7.8,64.7-23.5,90
	c-15.7,25.3-33.5,44.3-53.5,57c-20,12.7-43.7,22.7-71,30c-27.3,7.3-48.7,11.7-64,13c-15.3,1.3-30,2-44,2s-28.7-0.7-44-2
	c-15.3-1.3-36.7-5.7-64-13c-27.3-7.3-51-17.3-71-30c-20-12.7-37.8-31.7-53.5-57c-15.7-25.3-23.5-55.3-23.5-90V236
	c0-17.3-6.3-32.3-19-45s-27.7-19-45-19H788c-17.3,0-32.3,6.3-45,19s-19,27.7-19,45v128c0,134,32.8,254.7,98.5,362
	s157,191.2,274,251.5c117,60.3,248.8,90.5,395.5,90.5s278.5-30.2,395.5-90.5c117-60.3,208.3-144.2,274-251.5
	c65.7-107.3,98.5-228,98.5-362V236C2260,218.7,2253.7,203.7,2241,191z M1217-449c-12.7-12.7-27.7-19-45-19H788
	c-17.3,0-32.3,6.3-45,19s-19,27.7-19,45v384c0,17.3,6.3,32.3,19,45s27.7,19,45,19h384c17.3,0,32.3-6.3,45-19s19-27.7,19-45v-384
	C1236-421.3,1229.7-436.3,1217-449z M2241-449c-12.7-12.7-27.7-19-45-19h-384c-17.3,0-32.3,6.3-45,19s-19,27.7-19,45v384
	c0,17.3,6.3,32.3,19,45s27.7,19,45,19h384c17.3,0,32.3-6.3,45-19c12.7-12.7,19-27.7,19-45v-384C2260-421.3,2253.7-436.3,2241-449z"
	/>
</svg>
