<svg xmlns="http://www.w3.org/2000/svg" x="0px" y="0px" viewBox="596 -596 1792 1792" style="enable-background:new 596 -596 1792 1792;">
<path d="M1867,547c-6,6-13.7,9-23,9h-224v224c0,9.3-3,17-9,23s-13.7,9-23,9h-192c-9.3,0-17-3-23-9s-9-13.7-9-23V556h-224
	c-9.3,0-17-3-23-9s-9-13.7-9-23V332c0-9.3,3-17,9-23s13.7-9,23-9h224V76c0-9.3,3-17,9-23s13.7-9,23-9h192c9.3,0,17,3,23,9
	s9,13.7,9,23v224h224c9.3,0,17,3,23,9s9,13.7,9,23v192C1876,533.3,1873,541,1867,547z M1236-340h512v128h-512V-340z M820-212
	c-61.3,0-114,22-158,66s-66,96.7-66,158v832c0,61.3,22,114,66,158s96.7,66,158,66h32V-212H820z M1876-212v-160
	c0-26.7-9.3-49.3-28-68s-41.3-28-68-28h-576c-26.7,0-49.3,9.3-68,28c-18.7,18.7-28,41.3-28,68v160H948v1280h1088V-212H1876z
	 M2322-146c-44-44-96.7-66-158-66h-32v1280h32c61.3,0,114-22,158-66s66-96.7,66-158V12C2388-49.3,2366-102,2322-146z"/>
</svg>
