<svg xmlns="http://www.w3.org/2000/svg" x="0px" y="0px" viewBox="596 -596 1792 1792" style="enable-background:new 596 -596 1792 1792;">
<path d="M1540,421c-14.7,4.7-30.7,7-48,7s-33.3-2.3-48-7L870,240l-18,316c-2.7,46,24.7,88.7,82,128c57.3,39.3,135.7,70.5,235,93.5
	c99.3,23,207,34.5,323,34.5s223.7-11.5,323-34.5s177.7-54.2,235-93.5c57.3-39.3,84.7-82,82-128l-18-316L1540,421z M2622-115
	L1502-467c-2.7-0.7-6-1-10-1s-7.3,0.3-10,1L362-115c-14.7,5.3-22,15.7-22,31c0,15.3,7.3,25.7,22,31L695,51c-58,82-90.7,192-98,330
	c-43.3,25.3-65,62.3-65,111c0,46,19.3,81.7,58,107l-58,433c-1.3,9.3,1.3,17.7,8,25c6,7.3,14,11,24,11h192c10,0,18-3.7,24-11
	c6.7-7.3,9.3-15.7,8-25l-58-433c38.7-25.3,58-61,58-107c0-48.7-21-85-63-109c4-67.3,15.3-126.8,34-178.5
	c18.7-51.7,42.3-88.8,71-111.5l652,206c2.7,0.7,6,1,10,1s7.3-0.3,10-1L2622-53c14.7-5.3,22-15.7,22-31
	C2644-99.3,2636.7-109.7,2622-115z"/>
</svg>
