<svg xmlns="http://www.w3.org/2000/svg" x="0px" y="0px" viewBox="596 -596 1792 1792" style="enable-background:new 596 -596 1792 1792;">
<path d="M1798.2,878c-86.3,41-177.5,61.5-273.5,61.5c-86.7,0-169.5-17-248.5-51s-147-79.5-204-136.5S969.7,627,935.7,548
	s-51-161.8-51-248.5c0-143.3,42.5-271.3,127.5-384s194.5-189,328.5-229c-69.3,110-104,229-104,357c0,121.3,30,233.7,90,337
	s141.7,185,245,245c103.3,60,215.7,90,337,90c37.3,0,74-3,110-9C1958.1,779.9,1884.6,837,1798.2,878z M2226.2,583.5
	c-2.3-13.3-8.2-24.7-17.5-34c-20.7-20.7-44.7-25-72-13c-73.3,34-149.3,51-228,51c-98.7,0-189.7-24.3-273-73
	c-83.3-48.7-149.3-114.7-198-198c-48.7-83.3-73-174.3-73-273c0-76.7,15.2-149.5,45.5-218.5c30.3-69,74.2-129.5,131.5-181.5
	c22-20.7,27-44.7,15-72c-11.3-27.3-31.7-40.3-61-39c-102,4-198.7,26.8-290,68.5c-91.3,41.7-169.8,96.5-235.5,164.5S852.6-86,814.2,7
	c-38.3,93-57.5,190.5-57.5,292.5c0,104,20.3,203.3,61,298c40.7,94.7,95.3,176.3,164,245s150.3,123.3,245,164
	c94.7,40.7,194,61,298,61c149.3,0,287.2-40.5,413.5-121.5s220.8-189.2,283.5-324.5C2227.1,609.5,2228.6,596.9,2226.2,583.5z"/>
</svg>
