<svg xmlns="http://www.w3.org/2000/svg" x="0px" y="0px" viewBox="596 -596 1792 1792" style="enable-background:new 596 -596 1792 1792;">
<path d="M1729.5-44.5l293-293l107,107l-293,293L1729.5-44.5z M2265.5-275.5l-198-198c-12-12-27-18-45-18s-33,6-45,18l-1286,1286
	c-12,12-18,27-18,45s6,33,18,45l198,198c12,12,27,18,45,18s33-6,45-18l1286-1286c12-12,18-27,18-45S2277.5-263.5,2265.5-275.5z
	 M902.5-518.5l-30,98l-98,30l98,30l30,98l30-98l98-30l-98-30L902.5-518.5z M1222.5-454.5l-60,196l-196,60l196,60l60,196l60-196
	l196-60l-196-60L1222.5-454.5z M2182.5,121.5l-30,98l-98,30l98,30l30,98l30-98l98-30l-98-30L2182.5,121.5z M1542.5-518.5l-30,98
	l-98,30l98,30l30,98l30-98l98-30l-98-30L1542.5-518.5z"/>
</svg>
