<svg xmlns="http://www.w3.org/2000/svg" x="0px" y="0px" viewBox="596 -596 1792 1792" style="enable-background:new 596 -596 1792 1792;">
<path d="M1948-44c-37.3-37.3-82.7-56-136-56h-640c-53.3,0-98.7,18.7-136,56c-37.3,37.3-56,82.7-56,136v416c0,26.7,9.3,49.3,28,68
	c18.7,18.7,41.3,28,68,28s49.3-9.3,68-28c18.7-18.7,28-41.3,28-68V156h64v912c0,30.7,11,57,33,79s48.3,33,79,33s57-11,79-33
	s33-48.3,33-79V604h64v464c0,30.7,11,57,33,79s48.3,33,79,33c30.7,0,57-11,79-33s33-48.3,33-79V156h64v352c0,26.7,9.3,49.3,28,68
	c18.7,18.7,41.3,28,68,28c26.7,0,49.3-9.3,68-28c18.7-18.7,28-41.3,28-68V92C2004,38.7,1985.3-6.7,1948-44z M1650.5-514.5
	C1606.8-558.2,1554-580,1492-580s-114.8,21.8-158.5,65.5S1268-418,1268-356s21.8,114.8,65.5,158.5S1430-132,1492-132
	s114.8-21.8,158.5-65.5c43.7-43.7,65.5-96.5,65.5-158.5S1694.2-470.8,1650.5-514.5z"/>
</svg>
