<svg xmlns="http://www.w3.org/2000/svg" x="0px" y="0px" viewBox="596 -596 1792 1792" style="enable-background:new 596 -596 1792 1792;">
<path d="M1673,225c-50,50-110.3,75-181,75s-131-25-181-75s-75-110.3-75-181s25-131,75-181s110.3-75,181-75c70.7,0,131,25,181,75
	s75,110.3,75,181S1723,175,1673,225z M1854-318c-100-100-220.7-150-362-150s-262,50-362,150S980-97.3,980,44c0,72.7,11,132.3,33,179
	l365,774c10,22,25.5,39.3,46.5,52s43.5,19,67.5,19s46.5-6.3,67.5-19s36.8-30,47.5-52l364-774c22-46.7,33-106.3,33-179
	C2004-97.3,1954-218,1854-318z"/>
</svg>
