<svg xmlns="http://www.w3.org/2000/svg" x="0px" y="0px" viewBox="596 -596 1792 1792" style="enable-background:new 596 -596 1792 1792;" xml:space="preserve">
<path d="M804,748c-10.7,0-16,5.3-16,16v16h-48c-106,5.3-16,16v32c0,10.7,5.3,16,16,16h48v16c0,10.7,5.3,16,16,16h112V748H804z
	 M804,492c-10.7,0-16,5.3-16,16v16h-48c-10.7,0-16,5.3-16,16v32c0,10.7,5.3,16,16,16h48v16c0,10.7,5.3,16,16,16h112V492H804z
	 M804,236c-10.7,0-16,5.3-16,16v16h-48c-10.7,0-16,5.3-16,16v32c0,10.7,5.3,16,16,16h48v16c0,10.7,5.3,16,16,16h112V236H804z
	 M804-20c-10.7,0-16,5.3-16,16v16h-48c-10.7,0-16,5.3-16,16v32c0,10.7,5.3,16,16,16h48v16c0,10.7,5.3,16,16,16h112V-20H804z
	 M804-276c-10.7,0-16,5.3-16,16v16h-48c-10.7,0-16,5.3-16,16v32c0,10.7,5.3,16,16,16h48v16c0,10.7,5.3,16,16,16h112v-128H804z
	 M1976-504c-18.7-18.7-41.3-28-68-28h-832c-26.7,0-49.3,9.3-68,28s-28,41.3-28,68v1472c0,26.7,9.3,49.3,28,68
	c18.7,18.7,41.3,28,68,28h832c26.7,0,49.3-9.3,68-28s28-41.3,28-68V-436C2004-462.7,1994.7-485.3,1976-504z M2244,780h-48v-16
	c0-10.7-5.3-16-16-16h-112v128h112c10.7,0,16-5.3,16-16v-16h48c10.7,0,16-5.3,16-16v-32C2260,785.3,2254.7,780,2244,780z M2244,524
	h-48v-16c0-10.7-5.3-16-16-16h-112v128h112c10.7,0,16-5.3,16-16v-16h48c10.7,0,16-5.3,16-16v-32C2260,529.3,2254.7,524,2244,524z
	 M2244,268h-48v-16c0-10.7-5.3-16-16-16h-112v128h112c10.7,0,16-5.3,16-16v-16h48c10.7,0,16-5.3,16-16v-32
	C2260,273.3,2254.7,268,2244,268z M2244,12h-48V-4c0-10.7-5.3-16-16-16h-112v128h112c10.7,0,16-5.3,16-16V76h48c10.7,0,16-5.3,16-16
	V28C2260,17.3,2254.7,12,2244,12z M2244-244h-48v-16c0-10.7-5.3-16-16-16h-112v128h112c10.7,0,16-5.3,16-16v-16h48
	c10.7,0,16-5.3,16-16v-32C2260-238.7,2254.7-244,2244-244z"/>
</svg>
