<svg xmlns="http://www.w3.org/2000/svg" x="0px" y="0px" viewBox="596 -596 1792 1792" style="enable-background:new 596 -596 1792 1792;">
<path d="M1364,477v655c0,17.3,6.3,32.3,19,45s27.7,19,45,19h128c17.3,0,32.3-6.3,45-19c12.7-12.7,19-27.7,19-45V477
	c-41.3,10-84,15-128,15C1447.3,492,1404.7,487,1364,477z M1130-446C1030-346,980-225.3,980-84s50,262,150,362s220.7,150,362,150
	s262-50,362-150s150-220.7,150-362s-50-262-150-362s-220.7-150-362-150S1230-546,1130-446z M1288.5-287.5
	C1232.2-231.2,1204-163.3,1204-84c0,9.3-3,17-9,23s-13.7,9-23,9s-17-3-23-9s-9-13.7-9-23c0-97.3,34.3-180.3,103-249
	s151.7-103,249-103c9.3,0,17,3,23,9s9,13.7,9,23s-3,17-9,23s-13.7,9-23,9C1412.7-372,1344.8-343.8,1288.5-287.5z"/>
</svg>
