<svg xmlns="http://www.w3.org/2000/svg" x="0px" y="0px" viewBox="596 -596 1792 1792" style="enable-background:new 596 -596 1792 1792;">
<path d="M1921,409c-12.7,12.7-27.7,19-45,19h-768c-17.3,0-32.3-6.3-45-19s-19-27.7-19-45V236c0-17.3,6.3-32.3,19-45s27.7-19,45-19
	h768c17.3,0,32.3,6.3,45,19s19,27.7,19,45v128C1940,381.3,1933.7,396.3,1921,409z M2157-85.5c-68.7-117.7-161.8-210.8-279.5-279.5
	S1631.3-468,1492-468s-267.8,34.3-385.5,103S895.7-203.2,827-85.5S724,160.7,724,300s34.3,267.8,103,385.5S988.8,896.3,1106.5,965
	s246.2,103,385.5,103s267.8-34.3,385.5-103s210.8-161.8,279.5-279.5c68.7-117.7,103-246.2,103-385.5S2225.7,32.2,2157-85.5z"/>
</svg>
