<svg xmlns="http://www.w3.org/2000/svg" x="0px" y="0px" viewBox="596 -596 1792 1792" style="enable-background:new 596 -596 1792 1792;">
<path d="M1780-468c-9.3,0-17,3-23,9s-9,13.7-9,23v64c0,9.3,3,17,9,23s13.7,9,23,9h261L1659,42c-104-84-223.7-126-359-126
	c-78,0-152.5,15.2-223.5,45.5s-132.3,71.3-184,123s-92.7,113-123,184S724,414,724,492s15.2,152.5,45.5,223.5s71.3,132.3,123,184
	s113,92.7,184,123c71,30.3,145.5,45.5,223.5,45.5s152.5-15.2,223.5-45.5c71-30.3,132.3-71.3,184-123c51.7-51.7,92.7-113,123-184
	S1876,570,1876,492c0-135.3-42-255-126-359l382-383V12c0,9.3,3,17,9,23s13.7,9,23,9h64c9.3,0,17-3,23-9s9-13.7,9-23v-416
	c0-17.3-6.3-32.3-19-45c-12.7-12.7-27.7-19-45-19H1780z M983.5,808.5C895.8,720.8,852,615.3,852,492s43.8-228.8,131.5-316.5
	S1176.7,44,1300,44s228.8,43.8,316.5,131.5C1704.2,263.2,1748,368.7,1748,492s-43.8,228.8-131.5,316.5
	C1528.8,896.2,1423.3,940,1300,940S1071.2,896.2,983.5,808.5z"/>
</svg>
