<svg xmlns="http://www.w3.org/2000/svg" x="0px" y="0px" viewBox="596 -596 1792 1792" style="enable-background:new 596 -596 1792 1792;">
<path d="M2200-440c-18.7-18.7-41.3-28-68-28h-512v-64c0-17.3-6.3-32.3-19-45c-12.7-12.7-27.7-19-45-19h-128c-17.3,0-32.3,6.3-45,19
	c-12.7,12.7-19,27.7-19,45v64H788c-17.3,0-32.3,6.3-45,19s-19,27.7-19,45v256c0,17.3,6.3,32.3,19,45s27.7,19,45,19h1344
	c26.7,0,49.3-9.3,68-28l141-141c6.7-6.7,10-14.3,10-23s-3.3-16.3-10-23L2200-440z M1364,1132c0,17.3,6.3,32.3,19,45
	c12.7,12.7,27.7,19,45,19h128c17.3,0,32.3-6.3,45-19c12.7-12.7,19-27.7,19-45V620h-256V1132z M1620,172V-20h-256v192H852
	c-26.7,0-49.3,9.3-68,28L643,341c-6.7,6.7-10,14.3-10,23s3.3,16.3,10,23l141,141c18.7,18.7,41.3,28,68,28h1344
	c17.3,0,32.3-6.3,45-19c12.7-12.7,19-27.7,19-45V236c0-17.3-6.3-32.3-19-45c-12.7-12.7-27.7-19-45-19H1620z"/>
</svg>
