<svg xmlns="http://www.w3.org/2000/svg" x="0px" y="0px" viewBox="596 -596 1792 1792" style="enable-background:new 596 -596 1792 1792;">
<path d="M839,121.5c-12.7-12.7-19-27.7-19-45s6.3-32.3,19-45l397-398v-69c0-28-13-47.7-39-59c-27.3-11.3-50.7-6.7-70,14l-512,512
	c-12.7,12.7-19,27.7-19,45s6.3,32.3,19,45l512,512c12,12.7,27,19,45,19c8,0,16.3-1.7,25-5c26-11.3,39-31,39-59v-70L839,121.5z
	 M2219,47.5c-125.3-128.7-325-202.3-599-221v-262c0-28-13-47.7-39-59c-27.3-11.3-50.7-6.7-70,14l-512,512c-12.7,12.7-19,27.7-19,45
	s6.3,32.3,19,45l512,512c12,12.7,27,19,45,19c8,0,16.3-1.7,25-5c26-11.3,39-31,39-59v-251c107.3,8.7,196.5,26.2,267.5,52.5
	s127.8,63.2,170.5,110.5c99.3,110,134.7,298.3,106,565c-1.3,17.3,6.3,28.7,23,34c2,0.7,5,1,9,1c13.3,0,22.7-5.7,28-17l20-40
	c9.3-18.7,22.8-48.8,40.5-90.5c17.7-41.7,33.7-83.3,48-125c14.3-41.7,27.2-87.7,38.5-138c11.3-50.3,17-94.8,17-133.5
	C2388,332.5,2331.7,162.8,2219,47.5z"/>
</svg>
