<svg xmlns="http://www.w3.org/2000/svg" x="0px" y="0px" viewBox="596 -596 1792 1792" style="enable-background:new 596 -596 1792 1792;">
<path d="M2049,127c-12.7-12.7-27.7-19-45-19s-32.3,6.3-45,19s-19,27.7-19,45v128c0,123.3-43.8,228.8-131.5,316.5
	C1720.8,704.2,1615.3,748,1492,748s-228.8-43.8-316.5-131.5S1044,423.3,1044,300V172c0-17.3-6.3-32.3-19-45
	c-12.7-12.7-27.7-19-45-19s-32.3,6.3-45,19s-19,27.7-19,45v128c0,147.3,49.2,275.5,147.5,384.5S1283.3,856,1428,872v132h-256
	c-17.3,0-32.3,6.3-45,19c-12.7,12.7-19,27.7-19,45s6.3,32.3,19,45s27.7,19,45,19h640c17.3,0,32.3-6.3,45-19c12.7-12.7,19-27.7,19-45
	s-6.3-32.3-19-45c-12.7-12.7-27.7-19-45-19h-256V872c144.7-16,266.2-78.5,364.5-187.5S2068,447.3,2068,300V172
	C2068,154.7,2061.7,139.7,2049,127z M1718-438c-62.7-62.7-138-94-226-94s-163.3,31.3-226,94s-94,138-94,226v512
	c0,88,31.3,163.3,94,226s138,94,226,94s163.3-31.3,226-94c62.7-62.7,94-138,94-226v-512C1812-300,1780.7-375.3,1718-438z"/>
</svg>
