<svg xmlns="http://www.w3.org/2000/svg" x="0px" y="0px" viewBox="596 -596 1792 1792" style="enable-background:new 596 -596 1792 1792;">
<path d="M1548.5,868.5c-15.7,15.7-34.5,23.5-56.5,23.5s-40.8-7.8-56.5-23.5S1412,834,1412,812s7.8-40.8,23.5-56.5S1470,732,1492,732
	s40.8,7.8,56.5,23.5S1572,790,1572,812S1564.2,852.8,1548.5,868.5z M1770.5,674.5c-6.3,6.3-13.8,9.5-22.5,9.5h-512
	c-8.7,0-16.2-3.2-22.5-9.5c-6.3-6.3-9.5-13.8-9.5-22.5V-52c0-8.7,3.2-16.2,9.5-22.5s13.8-9.5,22.5-9.5h512c8.7,0,16.2,3.2,22.5,9.5
	c6.3,6.3,9.5,13.8,9.5,22.5v704C1780,660.7,1776.8,668.2,1770.5,674.5z M1572-180h-160c-10.7,0-16-5.3-16-16s5.3-16,16-16h160
	c10.7,0,16,5.3,16,16S1582.7-180,1572-180z M1838-302c-25.3-25.3-55.3-38-90-38h-512c-34.7,0-64.7,12.7-90,38s-38,55.3-38,90V812
	c0,34.7,12.7,64.7,38,90s55.3,38,90,38h512c34.7,0,64.7-12.7,90-38c25.3-25.3,38-55.3,38-90V-212C1876-246.7,1863.3-276.7,1838-302z
	"/>
</svg>
