<svg xmlns="http://www.w3.org/2000/svg" x="0px" y="0px" viewBox="596 -596 1792 1792" style="enable-background:new 596 -596 1792 1792;">
<path d="M2139-39.1c-6-6.7-13.5-10-22.5-10s-16.5,3.3-22.5,10l-45,45c-6.7,6-10,13.5-10,22.5s3.3,16.5,10,22.5l185,185h-294v-224
	c0-9.3-3-17-9-23s-13.7-9-23-9h-64c-9.3,0-17,3-23,9s-9,13.7-9,23v224h-132c-10.7-100-45-190.5-103-271.5s-132.7-143-224-186
	c-91.3-43-188.7-60.5-292-52.5c-89.3,7.3-172.3,34.2-249,80.5c-76.7,46.3-139.3,107-188,182c-48.7,75-78,156.8-88,245.5
	c-12.7,113.3,5.3,219.7,54,319c48.7,99.3,119.3,178,212,236s194.7,87,306,87c147.3,0,275.5-49.2,384.5-147.5S1664,508.6,1680,363.9
	h132v224c0,9.3,3,17,9,23s13.7,9,23,9h64c9.3,0,17-3,23-9s9-13.7,9-23v-224h294l-185,185c-6.7,6-10,13.5-10,22.5s3.3,16.5,10,22.5
	l45,45c6,6.7,13.5,10,22.5,10s16.5-3.3,22.5-10l294-294c12.7-12.7,19-27.7,19-45s-6.3-32.3-19-45L2139-39.1z M791.5,616.4
	C703.8,528.8,660,423.3,660,299.9S703.8,71.1,791.5-16.6S984.6-148.1,1108-148.1s228.8,43.8,316.5,131.5
	c87.7,87.7,131.5,193.2,131.5,316.5s-43.8,228.8-131.5,316.5c-87.7,87.7-193.2,131.5-316.5,131.5S879.1,704.1,791.5,616.4z"/>
</svg>
