<svg xmlns="http://www.w3.org/2000/svg" x="0px" y="0px" viewBox="596 -596 1792 1792" style="enable-background:new 596 -596 1792 1792;">
<path d="M2428-591l-616,246l-616-246c-16-7.3-32-7.3-48,0L508-335c-12,4.7-21.7,12.3-29,23s-11,22.7-11,36v1408c0,22,9.3,39.7,28,53
	c11.3,7.3,23.3,11,36,11c9.3,0,17.3-1.7,24-5l616-246l616,246c16,7.3,32,7.3,48,0l640-256c12-4.7,21.7-12.3,29-23
	c7.3-10.7,11-22.7,11-36V-532c0-22-9.3-39.7-28-53C2469.3-597.7,2449.3-599.7,2428-591z M1780-220v1270l-576-230V-450L1780-220z
	 M1140-450V820l-544,217V-233L1140-450z M1844,1050V-220l544-217V833L1844,1050z"/>
</svg>
