<svg xmlns="http://www.w3.org/2000/svg" x="0px" y="0px" viewBox="596 -596 1792 1792" style="enable-background:new 596 -596 1792 1792;">
<path d="M1190-180L679-436c-20-10-34.7-15-44-15c-12.7,0-22.3,4.7-29,14s-10,20.7-10,34V737c0,15.3,4.8,30.8,14.5,46.5
	S632,810.3,646,817l465,233c10.7,5.3,21.7,8,33,8c16,0,28.2-5.8,36.5-17.5c8.3-11.7,12.5-25.8,12.5-42.5V-175
	C1193-176.3,1192-178,1190-180z M1257,526l534,266L1257-74V526z M1848,821l441,220c15.3,8.7,31,13,47,13s28.7-5.2,38-15.5
	c9.3-10.3,14-23.8,14-40.5V-56L1848,821z M2381-182l-541-270c-8-4-16.7-6-26-6c-23.3,0-40.7,9.3-52,28L1438,97l390,634
	c29.3-47.3,129.5-209.8,300.5-487.5S2385-174,2385-176C2385-178.7,2383.7-180.7,2381-182z"/>
</svg>
