<svg xmlns="http://www.w3.org/2000/svg" x="0px" y="0px" viewBox="596 -596 1792 1792" style="enable-background:new 596 -596 1792 1792;">
<path d="M2522.9,186.5c-67.3-72.3-148.7-117.2-244-134.5c-96-18-187.7-6-275,36l-115-172h179c17.3,0,32.3-6.3,45-19
	c12.7-12.7,19-27.7,19-45v-128c0-17.3-6.3-32.3-19-45c-12.7-12.7-27.7-19-45-19h-101c-18,0-33.3,6.3-46,19l-114,114l-70-105
	c-13.3-18.7-31-28-53-28h-253c-16,0-30.3,5-43,15s-20.3,22.7-23,38c-3.3,20,1.3,37.5,14,52.5s29,22.5,49,22.5h222l85,128h-115h-512
	c-19.3-14.7-36.3-26.8-51-36.5c-14.7-9.7-38.5-22.8-71.5-39.5s-71.8-29.5-116.5-38.5c-44.7-9-93-13.5-145-13.5h-128
	c-17.3,0-32.3,6.3-45,19c-12.7,12.7-19,27.7-19,45s6.3,32.3,19,45c12.7,12.7,27.7,19,45,19h64c120.7,0,222,36.7,304,110l-24,45
	c-50.7-18-101.3-27-152-27c-123.3,0-228.8,43.8-316.5,131.5S339.9,368.6,339.9,492s43.8,228.8,131.5,316.5S664.6,940,787.9,940
	c112,0,210-36.7,294-110s133.7-164.7,149-274h69h256c18,0,33.2-6.5,45.5-19.5s18.5-28.5,18.5-46.5c0-86.7,18.3-168,55-244
	s87-140.7,151-194l71,107c-52.7,47.3-92.2,104.2-118.5,170.5S1742.9,466,1750.9,540c10.7,106.7,55.5,198,134.5,274
	s172.2,117.7,279.5,125c68.7,4.7,134.2-5.7,196.5-31c62.3-25.3,115.2-60.7,158.5-106s76.3-99.8,99-163.5s30-129.8,22-198.5
	C2629.6,343.3,2590.3,258.8,2522.9,186.5z M561.9,718c-62.7-62.7-94-138-94-226s31.3-163.3,94-226s138-94,226-94
	c29.3,0,59.7,4.3,91,13l-147,277c-11.3,20.7-11,41.7,1,63c13.3,20.7,31.7,31,55,31h314c-15.3,74-52.3,135.2-111,183.5
	S864.6,812,787.9,812C699.9,812,624.6,780.6,561.9,718z M1969.9,718c-62.7-62.7-94-138-94-226c0-86.7,31-161.7,93-225l174,260
	c12,19.3,29.7,29,53,29c14,0,26-3.7,36-11c14.7-9.3,23.7-22.7,27-40c3.3-17.3,0-33.7-10-49l-174-260c40.7-16,81-24,121-24
	c88,0,163.3,31.3,226,94s94,138,94,226s-31.3,163.3-94,226s-138,94-226,94S2032.6,780.6,1969.9,718z"/>
</svg>
