<svg xmlns="http://www.w3.org/2000/svg" x="0px" y="0px" viewBox="596 -596 1792 1792" style="enable-background:new 596 -596 1792 1792;">
<path d="M2021.5,208c-9-9.3-21.5-14-37.5-14h-202c-16,0-28.7,4.7-38,14c-9.3,9.3-14,22-14,38v114c0,16,4.7,28.7,14,38s22,14,38,14
	h202c16,0,28.5-4.7,37.5-14s13.5-22,13.5-38V246C2035,230,2030.5,217.3,2021.5,208z M1524,498h-55c-14.7,0-22-7.3-22-22V246
	c0-16-4.5-28.7-13.5-38s-21.5-14-37.5-14h-97c-16,0-28.7,4.7-38,14c-9.3,9.3-14,22-14,38v230c0,14.7-7.3,22-22,22h-54
	c-14,0-21-7.3-21-22V246c0-16-4.7-28.7-14-38s-22-14-38-14h-94c-16.7,0-29.5,4.7-38.5,14S952,230,952,246v230c0,14.7-7.3,22-22,22
	h-55c-14,0-21-7.3-21-22V226c0-35.3,10.8-63.8,32.5-85.5S936.7,108,972,108h130c45.3,0,77.3,17.3,96,52c18.7-34.7,50.7-52,96-52h133
	c35.3,0,63.8,10.8,85.5,32.5c21.7,21.7,32.5,50.2,32.5,85.5v250C1545,490.7,1538,498,1524,498z M2101,465.5
	c-22,21.7-50.7,32.5-86,32.5h-191c-42,0-73.3-14-94-42v180c0,14-7,21-21,21h-55c-14.7,0-22-7-22-21V226c0-35.3,11-63.8,33-85.5
	s50.7-32.5,86-32.5h264c35.3,0,64,10.8,86,32.5s33,50.2,33,85.5v154C2134,415.3,2123,443.8,2101,465.5z M2192-400
	c-45.3-45.3-100-68-164-68H956c-64,0-118.7,22.7-164,68s-68,100-68,164V836c0,64,22.7,118.7,68,164c45.3,45.3,100,68,164,68h1072
	c64,0,118.7-22.7,164-68c45.3-45.3,68-100,68-164V-236C2260-300,2237.3-354.7,2192-400z"/>
</svg>
