<svg xmlns="http://www.w3.org/2000/svg" x="0px" y="0px" viewBox="596 -596 1792 1792" style="enable-background:new 596 -596 1792 1792;">
<path d="M1044,300V172c0-17.3-6.3-32.3-19-45c-12.7-12.7-27.7-19-45-19s-32.3,6.3-45,19s-19,27.7-19,45v128c0,74,14,145.3,42,214
	l101-101C1049,373,1044,335.3,1044,300z M2183-212c0-8.7-3.3-16.3-10-23l-82-82c-6.7-6.7-14.3-10-23-10c-8.7,0-16.3,3.3-23,10
	L811,917c-6.7,6.7-10,14.3-10,23s3.3,16.3,10,23l82,82c6.7,6.7,14.3,10,23,10s16.3-3.3,23-10l254-254c73.3,45.3,151.7,72.3,235,81
	v132h-256c-17.3,0-32.3,6.3-45,19c-12.7,12.7-19,27.7-19,45s6.3,32.3,19,45s27.7,19,45,19h640c17.3,0,32.3-6.3,45-19s19-27.7,19-45
	s-6.3-32.3-19-45c-12.7-12.7-27.7-19-45-19h-256V872c144.7-16,266.2-78.5,364.5-187.5S2068,447.3,2068,300V172
	c0-17.3-6.3-32.3-19-45c-12.7-12.7-27.7-19-45-19s-32.3,6.3-45,19s-19,27.7-19,45v128c0,123.3-43.8,228.8-131.5,316.5
	C1720.8,704.2,1615.3,748,1492,748c-72,0-140.3-17-205-51l96-96c36,12.7,72.3,19,109,19c88,0,163.3-31.3,226-94
	c62.7-62.7,94-138,94-226V172l361-361C2179.7-195.7,2183-203.3,2183-212z M1676.5-473c-55-39.3-116.5-59-184.5-59
	c-88,0-163.3,31.3-226,94c-62.7,62.7-94,138-94,226v512l621-621C1770.3-383,1731.5-433.7,1676.5-473z"/>
</svg>
