<svg xmlns="http://www.w3.org/2000/svg" x="0px" y="0px" viewBox="596 -596 1792 1792" style="enable-background:new 596 -596 1792 1792;">
<path d="M2022.5-243.5c-30.3-71-71.3-132.3-123-184s-113-92.7-184-123S1570-596,1492-596s-152.5,15.2-223.5,45.5
	s-132.3,71.3-184,123s-92.7,113-123,184S916-98,916-20c0,147.3,49.2,275.5,147.5,384.5S1283.3,536,1428,552v612c0,9.3,3,17,9,23
	s13.7,9,23,9h64c9.3,0,17-3,23-9s9-13.7,9-23V552c144.7-16,266.2-78.5,364.5-187.5S2068,127.3,2068-20
	C2068-98,2052.8-172.5,2022.5-243.5z M1175.5,296.5C1087.8,208.8,1044,103.3,1044-20s43.8-228.8,131.5-316.5S1368.7-468,1492-468
	s228.8,43.8,316.5,131.5C1896.2-248.8,1940-143.3,1940-20s-43.8,228.8-131.5,316.5C1720.8,384.2,1615.3,428,1492,428
	S1263.2,384.2,1175.5,296.5z"/>
</svg>
