<svg xmlns="http://www.w3.org/2000/svg" x="0px" y="0px" viewBox="596 -596 1792 1792" style="enable-background:new 596 -596 1792 1792;">
<path d="M1492,364h-384V-20h384V364z M980,620v128h640V620H980z M980-148v640h640v-640H980z M1748,620v128h512V620H1748z M1748,364
	v128h512V364H1748z M1748,108v128h512V108H1748z M1748-148v128h512v-128H1748z M705,857c-12.7,12.7-27.7,19-45,19s-32.3-6.3-45-19
	s-19-27.7-19-45v-960h128v960C724,829.3,717.7,844.3,705,857z M2369,857c-12.7,12.7-27.7,19-45,19H841c7.3-20.7,11-42,11-64V-276
	h1536V812C2388,829.3,2381.7,844.3,2369,857z M724-404v128H468V812c0,53.3,18.7,98.7,56,136s82.7,56,136,56h1664
	c53.3,0,98.7-18.7,136-56c37.3-37.3,56-82.7,56-136V-404H724z"/>
</svg>
