<svg xmlns="http://www.w3.org/2000/svg" x="0px" y="0px" viewBox="596 -596 1792 1792" style="enable-background:new 596 -596 1792 1792;">
<path d="M2241,703c-12.7-12.7-27.7-19-45-19H788c-17.3,0-32.3,6.3-45,19s-19,27.7-19,45v128c0,17.3,6.3,32.3,19,45s27.7,19,45,19
	h1408c17.3,0,32.3-6.3,45-19c12.7-12.7,19-27.7,19-45V748C2260,730.7,2253.7,715.7,2241,703z M2241,191c-12.7-12.7-27.7-19-45-19
	H788c-17.3,0-32.3,6.3-45,19s-19,27.7-19,45v128c0,17.3,6.3,32.3,19,45s27.7,19,45,19h1408c17.3,0,32.3-6.3,45-19
	c12.7-12.7,19-27.7,19-45V236C2260,218.7,2253.7,203.7,2241,191z M2241-321c-12.7-12.7-27.7-19-45-19H788c-17.3,0-32.3,6.3-45,19
	s-19,27.7-19,45v128c0,17.3,6.3,32.3,19,45s27.7,19,45,19h1408c17.3,0,32.3-6.3,45-19c12.7-12.7,19-27.7,19-45v-128
	C2260-293.3,2253.7-308.3,2241-321z"/>
</svg>
