<svg xmlns="http://www.w3.org/2000/svg" x="0px" y="0px" viewBox="596 -596 1792 1792" style="enable-background:new 596 -596 1792 1792;">
<path d="M1410-399V961c-156-20-285.5-68.3-388.5-145S867,650.3,867,549c0-95.3,46.5-180.3,139.5-255s211.8-124.7,356.5-150V-28
	c-144.7,17.3-275.2,53.3-391.5,108s-208,123.2-275,205.5S596,455.7,596,549c0,97.3,35.7,188.2,107,272.5S872,975.3,996,1030
	c124,54.7,262,88.7,414,102l272-128V-532L1410-399z M2211,129C2075,46.3,1914.7-6,1730-28v172c107.3,19.3,200.7,52.3,280,99l-147,83
	l525,114l-37-390L2211,129z"/>
</svg>
