<svg xmlns="http://www.w3.org/2000/svg" x="0px" y="0px" viewBox="596 -596 1792 1792" style="enable-background:new 596 -596 1792 1792;">
<path d="M1604.5-128.5c-31-31-68.5-46.5-112.5-46.5s-81.5,15.5-112.5,46.5S1333-60,1333-16s15.5,81.5,46.5,112.5S1448,143,1492,143
	s81.5-15.5,112.5-46.5S1651,28,1651-16S1635.5-97.5,1604.5-128.5z M1867,421.5c-13.3,19.7-42.3,44.2-87,73.5
	c-56,35.3-131,57.7-225,67l52,52l191,190c14.7,14.7,22,32.2,22,52.5s-7.3,37.8-22,52.5l-9,9c-14.7,14.7-32.2,22-52.5,22
	s-37.8-7.3-52.5-22c-51.3-50.7-115-114.3-191-191l-191,191c-14.7,14.7-32.2,22-52.5,22c-20.3,0-37.8-7.3-52.5-22l-9-9
	c-14.7-14.7-22-32.2-22-52.5s7.3-37.8,22-52.5c32.7-32,96.3-95.3,191-190l51-52c-95.3-9.3-170.7-31.7-226-67
	c-44.7-29.3-73.7-53.8-87-73.5c-13.3-19.7-12.7-44.5,2-74.5c6.7-13.3,16-24,28-32s27.8-11.2,47.5-9.5s39.8,10.8,60.5,27.5l27,18
	c18,12,46.7,24,86,36c39.3,12,80.7,18,124,18c43.3,0,85.7-6.7,127-20c41.3-13.3,68.3-24,81-32c12.7-8,22.3-14.7,29-20
	c20.7-16.7,40.8-25.8,60.5-27.5s35.5,1.5,47.5,9.5s21.3,18.7,28,32C1879.7,377,1880.3,401.8,1867,421.5z M1721,213
	c-63.3,63.3-139.7,95-229,95c-89.3,0-165.7-31.7-229-95s-95-139.7-95-229s31.7-165.7,95-229s139.7-95,229-95
	c89.3,0,165.7,31.7,229,95c63.3,63.3,95,139.7,95,229S1784.3,149.7,1721,213z M2175.5-383.5c-56.3-56.3-124.2-84.5-203.5-84.5h-960
	c-79.3,0-147.2,28.2-203.5,84.5S724-259.3,724-180v960c0,79.3,28.2,147.2,84.5,203.5c56.3,56.3,124.2,84.5,203.5,84.5h960
	c79.3,0,147.2-28.2,203.5-84.5c56.3-56.3,84.5-124.2,84.5-203.5v-960C2260-259.3,2231.8-327.2,2175.5-383.5z"/>
</svg>
