<svg xmlns="http://www.w3.org/2000/svg" x="0px" y="0px" viewBox="596 -596 1792 1792" style="enable-background:new 596 -596 1792 1792;">
<path d="M820,1035.1c-7.3-17-18.7-24.2-34-21.5c-18,3.3-40.7,16-68,38c-27.3,22-40.7,40.3-40,55c1.3,12.7,10.8,23.2,28.5,31.5
	c17.7,8.3,34.8,9.5,51.5,3.5c12-4.7,24.3-13.2,37-25.5c12.7-12.3,21.7-23.8,27-34.5C828,1067.6,827.3,1052.1,820,1035.1z
	 M2165,1035.1c7.3-17,18.3-24.2,33-21.5c18,3.3,40.8,16,68.5,38c27.7,22,40.8,40.3,39.5,55c-0.7,12.7-9.8,23.2-27.5,31.5
	c-17.7,8.3-34.8,9.5-51.5,3.5c-12.7-4.7-25.3-13.2-38-25.5c-12.7-12.3-21.3-23.8-26-34.5C2157,1067.6,2157.7,1052.1,2165,1035.1z
	 M2217.5,896.1c15.7-28.3,36.8-40.8,63.5-37.5c32,3.3,70.5,23.2,115.5,59.5c45,36.3,67.5,69.8,67.5,100.5c0,22-12.3,38.8-37,50.5
	c-24.7,11.7-52,13.2-82,4.5c-22.7-6-48.5-19.8-77.5-41.5c-29-21.7-47.8-41.5-56.5-59.5C2199.7,950,2201.8,924.5,2217.5,896.1z
	 M766,896.1c-15.3-28.3-36.3-40.8-63-37.5c-32,3.3-70.5,23.2-115.5,59.5c-45,36.3-67.5,69.8-67.5,100.5c0,22,12.3,38.8,37,50.5
	c24.7,11.7,52,13.2,82,4.5c22.7-6,48.3-19.8,77-41.5c28.7-21.7,47.3-41.5,56-59.5C783.3,950,781.3,924.5,766,896.1z M1638-98.9
	c37.3,35,56,77.2,56,126.5s-18.7,91.5-56,126.5s-82.7,52.5-136,52.5c-52.7,0-97.7-17.5-135-52.5c-37.3-35-56-77.2-56-126.5
	c0-12.7,1.7-26.7,5-42c18.7,28.7,45.3,43,80,43c25.3,0,47-8.3,65-25s27-36.7,27-60c0-18-5.7-34.5-17-49.5s-26-25.2-44-30.5
	c23.3-10,48.7-15,76-15h-1C1555.3-151.4,1600.7-133.9,1638-98.9z M1761.5-500.9c-27-36.3-60.2-61.2-99.5-74.5s-79.8-19-121.5-17
	s-81,15.2-118,39.5s-64.5,56.5-82.5,96.5c82.7-44.7,164.5-59.5,245.5-44.5c81,15,154.5,58.8,220.5,131.5
	C1803.3-420.7,1788.5-464.5,1761.5-500.9z M2525,868.6c-8.7-14-22.3-31-41-51c5.3-18.7,4.7-31.3-2-38c-7.3-6-20-4.7-38,4
	c-17.3-12-37-23.3-59-34c0-18.7-4.7-31-14-37c-15.3-8-32.3-2.7-51,16c-23.3-3.3-43.7-2.7-61,2c-12,2.7-24.7,9-38,19
	c0.7-16,1-40.3,1-73c4.7,0,10.3-0.7,17-2c35.3-6,67.7-20.7,97-44c29.3-23.3,48-52.7,56-88c5.3-27.3,5-54.3-1-81
	c-9.3-42-40.3-73.7-93-95c-1.3-11.3-7.7-23.3-19-36c-11.3-12.7-23.3-20.3-36-23c-12.7-2.7-23.7,0-33,8c-9.3,8-15.7,18-19,30h-13
	c-29.3,3.3-49.3,11-60,23c-2.7,2.7-4.3,5.3-5,8c-6-0.7-16-1.8-30-3.5s-24.7-2.8-32-3.5c11.3-8,21.7-13.7,31-17
	c16-27.3,47.7-41.7,95-43v-10c40-1.3,78.5-7.5,115.5-18.5s64.8-27.2,83.5-48.5c21.3-23.3,35.5-53.7,42.5-91s8.2-75,3.5-113
	c-12-84-42.3-143.3-91-178c-15.3-11.3-32.7-13-52-5c-19.3,8-30,21.3-32,40l-1,14c-1.3,9.3-2.3,16.5-3,21.5c-0.7,5-1.7,11.5-3,19.5
	c-1.3,8-3.2,14.3-5.5,19c-2.3,4.7-5.2,8-8.5,10h-1c-24,12.7-64.3,15.7-121,9c-40-92-92.7-166-158-222c-206-176.7-507.3-223-904-139
	c8,2,22.3,5.3,43,10c20.7,4.7,36.5,8.3,47.5,11s25.2,6.2,42.5,10.5c17.3,4.3,33,9,47,14s27.7,10.2,41,15.5
	c-91.3,8.7-185.3,37.3-282,86c-68,35.3-122.3,72.3-163,111l-47,46c81.3-12,135.3-16.7,162-14c-33.3,18.7-66,43.3-98,74
	c-32.7,1.3-58-2.7-76-12c-3.3-2-6.2-5.3-8.5-10c-2.3-4.7-4.2-11-5.5-19c-1.3-8-2.3-14.7-3-20c-0.7-5.3-1.5-12.3-2.5-21
	s-1.5-13.3-1.5-14c-2-19.3-12.7-32.8-32-40.5c-19.3-7.7-36.7-6.2-52,4.5c-49.3,35.3-79.3,95-90,179c-5.3,37.3-4.5,74.7,2.5,112
	s21.2,68,42.5,92c18.7,20.7,46.8,36.5,84.5,47.5c37.7,11,77.2,17.2,118.5,18.5c-0.7,2.7-1,6-1,10c45.3,2,75.7,16.3,91,43
	c10,4,20,9.7,30,17c-6.7,0.7-16.8,1.8-30.5,3.5s-23.8,2.8-30.5,3.5c-1.3-2.7-3-5-5-7c-9.3-12-29.3-19.7-60-23h-13
	c-3.3-12-9.7-22.2-19-30.5c-9.3-8.3-20.3-10.8-33-7.5c-12.7,3.3-24.7,11.2-36,23.5c-11.3,12.3-17.7,24.2-19,35.5
	c-52,22-83,53.7-93,95c-6,28.7-6,55.7,0,81c7.3,35.3,25.7,64.5,55,87.5c29.3,23,61.7,37.8,97,44.5c4.7,1.3,10.7,2,18,2v73
	c-13.3-10-26-16.3-38-19c-17.3-4.7-37.7-5.3-61-2c-18.7-18.7-35.7-24-51-16c-8.7,5.3-13,17.7-13,37c-20,9.3-39.7,20.7-59,34
	c-18.7-9.3-31.7-10.7-39-4c-6,6-6.7,18.7-2,38c-18,19.3-31.7,36.3-41,51c-16.7-6-27-5.7-31,1c-5.3,7.3-1.7,21.3,11,42
	c-3.3,12-5.7,25.3-7,40c-0.7,55.3,30.2,108.8,92.5,160.5c62.3,51.7,122.2,78.5,179.5,80.5c32.7,1.3,63.5-6,92.5-22
	s51.2-37.7,66.5-65c381.3,16.7,801,16.7,1259,0c14.7,28,36.7,49.8,66,65.5c29.3,15.7,60,22.8,92,21.5c36-1.3,75.3-13.7,118-37
	c42.7-23.3,79.2-53.8,109.5-91.5c30.3-37.7,45.2-75.2,44.5-112.5c0-11.3-2.3-24.7-7-40c12.7-20.7,16.3-34.7,11-42
	C2550.7,863.6,2540.3,863.3,2525,868.6z M2297-102.4c10.7-1.3,22.7,4.3,36,17c18.7,19.3,32.5,49.5,41.5,90.5s12.2,73.8,9.5,98.5
	C2364,37,2326.7-7,2272-28.4c6-16.7,9-34.7,9-54C2281-94.4,2286.3-101,2297-102.4z M2255-3.4c34,10.7,60.3,32.8,79,66.5
	c18.7,33.7,29,71.8,31,114.5c-3.3,9.3-9.3,18.7-18,28c-20,21.3-52.3,36.3-97,45c8.7-38.7,8.8-80.2,0.5-124.5
	c-8.3-44.3-24.2-80.5-47.5-108.5C2227.7,13.6,2245,6.6,2255-3.4z M2219,121.6c10,44.7,9.7,89.7-1,135c-14.7,2-29,3-43,3
	c-7.3-82.7-25-162.3-53-239c9.3,0.7,24,1,44,1C2191.3,43.6,2209,77,2219,121.6z M611.5,5.1c9-41,22.8-71.2,41.5-90.5
	c12.7-12.7,24.5-18.3,35.5-17s16.5,8,16.5,20c0,19.3,3,37.3,9,54C659.3-7,622,37,602,103.6C599.3,79,602.5,46.1,611.5,5.1z
	 M620,177.6c2.7-43.3,13.2-81.7,31.5-115C669.8,29.3,696,7.3,730-3.4c10,10,27.3,17,52,21l0,0c-23.3,28-39.2,64.2-47.5,108.5
	c-8.3,44.3-8.2,85.8,0.5,124.5c-45.3-9.3-77.7-24.3-97-45C632,198.3,626,189,620,177.6z M768,256.6c-17.3-71.3-10.7-136.7,20-196v1
	l45-19c24-9.3,42.3-15.3,55-18c-39.3,74-63.7,152.3-73,235C800.3,259.6,784.7,258.6,768,256.6z M1924,302.6
	c-0.7,40-8.3,81.8-23,125.5s-35.3,72.2-62,85.5c-11.3,5.3-19.2,6.8-23.5,4.5c-4.3-2.3-7.5-9.5-9.5-21.5c-2-12.7-5.8-42.5-11.5-89.5
	s-11.2-83.2-16.5-108.5C1859.3,300,1908,301.3,1924,302.6z M1695-259.9c55.3,55,83,121.2,83,198.5c0,78-27.7,144.5-83,199.5
	s-121.7,82.5-199,82.5s-143.7-27.5-199-82.5c-55.3-55-83-121.5-83-199.5c0-77.3,27.7-143.5,83-198.5c55.3-55,121.7-82.5,199-82.5
	S1639.7-314.9,1695-259.9z M1728.5,343.1c1.7,22.3,1.8,45.5,0.5,69.5s-5,37-11,39c-20.7,7.3-52.5,10.8-95.5,10.5
	s-74.2-5.2-93.5-14.5c-6.7-4.7-11.2-26.7-13.5-66s-3.2-68-2.5-86v1c70-1.3,140.3-1.3,211,0C1725.3,305.3,1726.8,320.8,1728.5,343.1z
	 M1355,505.6c-44.7-0.7-78.3-6-101-16c-7.3-3.3-12-18.7-14-46c-2-27.3-2-55,0-83s4.3-48.7,7-62c1.3,0,72.7-1,214-3v1
	c1.3,12.7,2.7,33.7,4,63s1.5,58.7,0.5,88c-1,29.3-4.2,45.3-9.5,48C1433.3,503,1399.7,506.3,1355,505.6z M1198,300.6
	c-3.3,19.3-6.7,53.7-10,103c-3.3,49.3-6,79.3-8,90c-2,12-6,19-12,21s-14,0.3-24-5c-38-16.7-63.8-44.8-77.5-84.5
	c-13.7-39.7-15.2-79.2-4.5-118.5C1106.7,304,1152,302,1198,300.6z M931,422.6c19.3-2.7,48.3-6,87-10c6,24,14.7,45.7,26,65
	c5.3,8.7,12,17.3,20,26c29.3,30.7,59.7,48.7,91,54c36,6,54.7-12,56-54c16,38,83.7,51.3,203,40h3c1.3,0,2.3-0.2,3-0.5
	c0.7-0.3,1.7-0.5,3-0.5c18.7-1.3,30.7-2.5,36-3.5s13-3.3,23-7c10-3.7,17-8.7,21-15c4-6.3,7.3-15.2,10-26.5c38,13.3,92.3,17,163,11
	c0,0.3,4.5,0.2,13.5-0.5s13.5-1,13.5-1l12-1.5c8-1.3,12-2,12-2l10-2.5c4-1,7.2-2.3,9.5-4s5-3.5,8-5.5s5.5-4.3,7.5-7s3.7-5.7,5-9
	c6.7,32.7,12.3,53.3,17,62c2.7,5.3,5.7,10,9,14c20.7,26,48,26.3,82,1c37.3-28,64.7-72,82-132c10,0.7,26,2.2,48,4.5s38.7,4.2,50,5.5
	v-1v1l-3,9c-2,14,8,25.3,30,34c-103.3,102-201.2,185.3-293.5,250S1592.7,830,1478,862.6c-110.7-36.7-212.5-88-305.5-154
	S989,562.6,901,468.6c24.7-8.7,36-20.7,34-36C933,427.3,931.7,424,931,422.6z M798,1139.6c-28.7,20-60,29.3-94,28
	c-36-1.3-75.7-15.3-119-42c-43.3-26.7-76.7-57.7-100-93c-3.3-36,9.7-71.8,39-107.5c29.3-35.7,64.2-62.3,104.5-80
	c40.3-17.7,74.2-22.5,101.5-14.5c26,7.3,50.3,30.7,73,70c22.7,39.3,39.7,82.7,51,130c0,10.7-1,20.7-3,30
	C844.3,1093.3,826.7,1119.6,798,1139.6z M819,816.6c-2-44.7-2.3-94.7-1-150h1c12.7-7.3,22.3-15.3,29-24c29.3-7.3,48-18.7,56-34
	c6-12.7-1.3-25-22-37c0-0.7,0.3-2,1-4s1-3.7,1-5c15.3-6,25-10.3,29-13c64.7,64.7,124.5,119.7,179.5,165
	c55,45.3,115.2,85.3,180.5,120c-131.3,40.7-262,98.7-392,174c-2.7-37.3-11.7-77-27-119C843.3,863.6,831.7,839.3,819,816.6z
	 M922,1056.6v-1h1c138.7-85.3,277.3-148,416-188c42.7,18.7,85.7,35,129,49c5.3,2,10.7,2,16,0c53.3-14.7,105.3-33.7,156-57
	c116,32.7,258.7,98,428,196c-408.7,14-790.3,14-1145,0C923,1056.3,922.7,1056.6,922,1056.6z M1693,833.6
	c119.3-62.7,247-157.3,383-284c8,5.3,17.3,9.3,28,12c0,3.3,0.7,6.3,2,9c-20.7,12-28,24.7-22,38c9.3,16,28,27,56,33
	c10,11.3,20,19.7,30,25c0,50.7-1,101.7-3,153l1-1c-12.7,22-23.7,45.7-33,71c-16,44-25.3,84-28,120C1963,931.6,1825,873,1693,833.6z
	 M2399,1125.6c-43.3,26.7-83,40.7-119,42c-34,1.3-65.3-8-94-28c-28.7-20-46.3-46.3-53-79c-2-9.3-3-19.3-3-30
	c11.3-46.7,28.5-89.8,51.5-129.5c23-39.7,47.2-63.2,72.5-70.5c28-8,62-3.2,102,14.5c40,17.7,74.7,44.3,104,80
	c29.3,35.7,42.3,71.5,39,107.5C2475.7,1068,2442.3,1099,2399,1125.6z"/>
</svg>
