<svg xmlns="http://www.w3.org/2000/svg" x="0px" y="0px" viewBox="596 -596 1792 1792" style="enable-background:new 596 -596 1792 1792;">
<path d="M2644-212h-384v128h-384v-128h128v-384h-384v128H724v-128H340v384h128v640H340v384h384V684h384v128H980v384h384v-128h896
	v128h384V812h-128V172h128V-212z M2516-84V44h-128V-84H2516z M1876-468v128h-128v-128H1876z M596-468v128H468v-128H596z M468,684
	V556h128v128H468z M1876,684h-128V556h128V684z M724,428H596v-640h128v-128h896v128h128v640h-128v128H724V428z M1108,1068V940h128
	v128H1108z M2388,1068V940h128v128H2388z M2260,812v128h-896V812h-128V684h384v128h384V428h-128V44h384v128h128v640H2260z"/>
</svg>
