<svg xmlns="http://www.w3.org/2000/svg" x="0px" y="0px" viewBox="596 -596 1792 1792" style="enable-background:new 596 -596 1792 1792;">
<path d="M1815.5-535.5C1713.8-575.2,1607-595.3,1495-596h-3c-121.3,0-237.3,23.7-348,71c-110.7,47.3-206,111-286,191
	S714.3-158.7,667-48s-71,226.7-71,348c0,118,22.3,231,67,339s105,201.7,181,281s166.7,143.7,272,193c105.3,49.3,216.3,76.7,333,82
	c9.3,0.7,23.7,1,43,1c112.7,0,220.2-20,322.5-60s193.8-96,274.5-168c-110,73.3-229.7,110-359,110c-103.3,0-201-24.3-293-73
	c-92-48.7-172-115.3-240-200c-50-62-89.8-134.7-119.5-218s-45.8-172-48.5-266v-42c2.7-94,18.8-182.7,48.5-266S1147-143,1197-205
	c68-84.7,148-151.3,240-200s189.7-73,293-73c129.3,0,249,36.7,359,110C2008.3-440,1917.2-495.8,1815.5-535.5z M2312.5-61
	C2262.2-174.3,2192-272.7,2102-356c-71.3-43.3-146.7-65-226-65c-90,0-174.7,27.7-254,83c102.7,38,187,116,253,234s99,252.7,99,404
	c0,152-33.2,287-99.5,405S1723.7,900.7,1621,938c78.7,56,163.7,84,255,84c78.7,0,152.7-21,222-63c90.7-84,161.7-182.8,213-296.5
	c51.3-113.7,77-234.5,77-362.5C2388,172.7,2362.8,52.3,2312.5-61z"/>
</svg>
