<svg xmlns="http://www.w3.org/2000/svg" x="0px" y="0px" viewBox="596 -596 1792 1792" style="enable-background:new 596 -596 1792 1792;">
<path d="M1815.7,848.5c-32-32.3-70.7-48.5-116-48.5s-84.2,16.2-116.5,48.5s-48.5,71.2-48.5,116.5s16.2,84,48.5,116s71.2,48,116.5,48
	s84-16,116-48s48-70.7,48-116S1847.7,880.8,1815.7,848.5z M1066.2,848.5C1033.9,816.2,995,800,949.7,800s-84,16.2-116,48.5
	s-48,71.2-48,116.5s16,84,48,116s70.7,48,116,48s84.2-16,116.5-48c32.3-32,48.5-70.7,48.5-116S1098.5,880.8,1066.2,848.5z
	 M376.2-469.5c15.7,27,29,49.7,40,68S444-360,466.7-332c22.7,28,45.3,51.8,68,71.5s53.2,41.8,91.5,66.5s79.2,45.5,122.5,62.5
	c43.3,17,96.5,34.2,159.5,51.5c63,17.3,131.2,31,204.5,41c73.3,10,158.7,17.7,256,23c97.3,5.3,202,7.3,314,6c118-2,219.3-0.3,304,5
	c84.7,5.3,152.7,13.2,204,23.5c51.3,10.3,90.2,24,116.5,41c26.3,17,41.5,35.5,45.5,55.5s-0.3,43.3-13,70
	c-12.7,26.7-30.7,53.5-54,80.5c-23.3,27-51,57.5-83,91.5s-63.5,66.8-94.5,98.5s-62.3,66.8-94,105.5c-31.7,38.7-57.2,75-76.5,109
	c67.3-60,162.7-142.3,286-247c51.3-43.3,97.7-83,139-119s80-70.8,116-104.5s65.8-64,89.5-91s42.5-52.5,56.5-76.5s20.5-45.3,19.5-64
	s-9-35.8-24-51.5c-15-15.7-38.7-28.8-71-39.5s-73.7-19.8-124-27.5s-110.7-13.2-181-16.5c-70.3-3.3-151.8-5-244.5-5
	c-144,0-268.2-0.8-372.5-2.5s-205.7-4.8-304-9.5c-98.3-4.7-181.7-10.8-250-18.5c-68.3-7.7-135-18.2-200-31.5s-120.3-28.5-166-45.5
	c-45.7-17-91-38-136-63s-85.3-52.3-121-82S377.7-489,339.7-529C348.4-516.3,360.5-496.5,376.2-469.5z"/>
</svg>
