<svg xmlns="http://www.w3.org/2000/svg" x="0px" y="0px" viewBox="596 -596 1792 1792" style="enable-background:new 596 -596 1792 1792;">
<path d="M1813,178c88.7-88.7,133-195.3,133-320c0-125.3-44.3-232.3-133-321c-88.7-88.7-195.7-133-321-133s-232.3,44.3-321,133
	s-133,195.7-133,321c0,124.7,44.3,231.3,133,320s195.7,133,321,133S1724.3,266.7,1813,178z M1649.5-300.5
	c43.7,43.7,65.5,96.5,65.5,158.5c0,61.3-21.8,113.8-65.5,157.5C1605.8,59.2,1553.3,81,1492,81c-61.3,0-113.8-21.8-157.5-65.5
	S1269-80.7,1269-142c0-62,21.8-114.8,65.5-158.5S1430.7-366,1492-366C1553.3-366,1605.8-344.2,1649.5-300.5z M1987,331
	c-12-10-26-17.3-42-22s-34.7-4-56,2s-43,17.7-65,35l-38,25c-24.7,16.7-64.7,33.5-120,50.5c-55.3,17-113.3,25.5-174,25.5
	c-38,0-75.7-3.7-113-11c-37.3-7.3-68-15.3-92-24s-47-18.8-69-30.5s-36.3-19.8-43-24.5s-11.7-8.3-15-11c-22-17.3-43.7-29-65-35
	s-40-6.7-56-2s-30,12-42,22s-21.3,21.7-28,35c-8.7,18-13.7,34.5-15,49.5c-1.3,15,0.2,28.5,4.5,40.5c4.3,12,13.2,24.8,26.5,38.5
	c13.3,13.7,27.5,26,42.5,37s35.5,24.8,61.5,41.5c76,48.7,181.7,80,317,94l-72,72l-267,267c-20.7,20.7-31,45.3-31,74s10.3,53,31,73
	l12,13c20,20,44.3,30,73,30s53.3-10,74-30l267-268c133.3,133.3,222.3,222.7,267,268c20.7,20,45.3,30,74,30c28.7,0,53.3-10,74-30
	l12-13c20-20,30-44.3,30-73s-10-53.3-30-74l-267-267l-73-72c133.3-14,238.3-45.3,315-94c26-16.7,46.5-30.5,61.5-41.5
	s29.2-23.3,42.5-37s22.2-26.5,26.5-38.5s5.8-25.5,4.5-40.5s-6.3-31.5-15-49.5C2008.3,352.7,1999,341,1987,331z"/>
</svg>
