<svg xmlns="http://www.w3.org/2000/svg" x="0px" y="0px" viewBox="596 -596 1792 1792" style="enable-background:new 596 -596 1792 1792;">
<path d="M970.5-10.5c-6.3-6.3-13.8-9.5-22.5-9.5c-9.3,0-17,3-23,9L637,277c-6,6-9,13.7-9,23s3,17,9,23l288,288c6,6,13.7,9,23,9
	c8.7,0,16.2-3.2,22.5-9.5c6.3-6.3,9.5-13.8,9.5-22.5V12C980,3.3,976.8-4.2,970.5-10.5z M2378.5,757.5c-6.3-6.3-13.8-9.5-22.5-9.5
	H628c-8.7,0-16.2,3.2-22.5,9.5S596,771.3,596,780v192c0,8.7,3.2,16.2,9.5,22.5s13.8,9.5,22.5,9.5h1728c8.7,0,16.2-3.2,22.5-9.5
	c6.3-6.3,9.5-13.8,9.5-22.5V780C2388,771.3,2384.8,763.8,2378.5,757.5z M2378.5,373.5c-6.3-6.3-13.8-9.5-22.5-9.5H1268
	c-8.7,0-16.2,3.2-22.5,9.5c-6.3,6.3-9.5,13.8-9.5,22.5v192c0,8.7,3.2,16.2,9.5,22.5c6.3,6.3,13.8,9.5,22.5,9.5h1088
	c8.7,0,16.2-3.2,22.5-9.5c6.3-6.3,9.5-13.8,9.5-22.5V396C2388,387.3,2384.8,379.8,2378.5,373.5z M2378.5-10.5
	c-6.3-6.3-13.8-9.5-22.5-9.5H1268c-8.7,0-16.2,3.2-22.5,9.5c-6.3,6.3-9.5,13.8-9.5,22.5v192c0,8.7,3.2,16.2,9.5,22.5
	c6.3,6.3,13.8,9.5,22.5,9.5h1088c8.7,0,16.2-3.2,22.5-9.5c6.3-6.3,9.5-13.8,9.5-22.5V12C2388,3.3,2384.8-4.2,2378.5-10.5z
	 M2378.5-394.5c-6.3-6.3-13.8-9.5-22.5-9.5H628c-8.7,0-16.2,3.2-22.5,9.5S596-380.7,596-372v192c0,8.7,3.2,16.2,9.5,22.5
	s13.8,9.5,22.5,9.5h1728c8.7,0,16.2-3.2,22.5-9.5c6.3-6.3,9.5-13.8,9.5-22.5v-192C2388-380.7,2384.8-388.2,2378.5-394.5z"/>
</svg>
