<svg xmlns="http://www.w3.org/2000/svg" x="0px" y="0px" viewBox="596 -596 1792 1792" style="enable-background:new 596 -596 1792 1792;">
<path d="M2516-596h-384v128H852v-128H468v384h128V812H468v384h384v-128h1280v128h384V812h-128V-212h128V-596z M2388-468v128h-128
	v-128H2388z M724-468v128H596v-128H724z M596,1068V940h128v128H596z M852,940V812H724V-212h128v-128h1280v128h128V812h-128v128H852z
	 M2260,1068V940h128v128H2260z M1748-212H852v768h384v256h896V44h-384V-212z M980-84h640v512H980V-84z M1364,684V556h384V172h256
	v512H1364z"/>
</svg>
