<svg xmlns="http://www.w3.org/2000/svg" x="0px" y="0px" viewBox="596 -596 1792 1792" style="enable-background:new 596 -596 1792 1792;">
<path d="M2092,554L1511-27c-40.7-42-90.3-63-149-63c-54.7,0-101,19-139,57s-57,84.3-57,139c0,58.7,21,108.3,63,149l410,410
	c6.7,6.7,14,10,22,10c10.7,0,26.3-10.3,47-31c20.7-20.7,31-36.3,31-47c0-8-3.3-15.3-10-22l-410-410c-16.7-18-25-37.7-25-59
	c0-19.3,6.3-35.3,19-48c12.7-12.7,28.7-19,48-19c22.7,0,42.7,8,60,24l581,581c42,42,63,90.3,63,145c0,42.7-14,78-42,106
	s-63.3,42-106,42c-54.7,0-103-21-145-63L996,97c-50.7-50.7-76-111-76-181c0-70.7,24.3-131,73-181c48.7-50,108.3-75,179-75
	c68,0,128.3,25.7,181,77l606,607c6.7,6.7,14.3,10,23,10c10.7,0,26.2-10.2,46.5-30.5c20.3-20.3,30.5-35.8,30.5-46.5
	c0-8-3.3-15.3-10-22l-605-606c-76.7-75.3-167.7-113-273-113c-106,0-195.7,37-269,111S792-189,792-83c0,104,37.7,194.3,113,271
	l777,776c66.7,66.7,145,100,235,100c78,0,143.3-26.3,196-79c52.7-52.7,79-118,79-196C2192,697.7,2158.7,619.3,2092,554z"/>
</svg>
