<svg xmlns="http://www.w3.org/2000/svg" x="0px" y="0px" viewBox="596 -596 1792 1792" style="enable-background:new 596 -596 1792 1792;">
<path d="M1396-404c-139.3,0-267.8,34.3-385.5,103S799.7-139.2,731-21.5S628,224.7,628,364s34.3,267.8,103,385.5
	s161.8,210.8,279.5,279.5s246.2,103,385.5,103c104.7,0,204.2-20,298.5-60s176.8-96,247.5-168l-546-546V-404z M2128,910
	c72-70.7,128-153.2,168-247.5s60-193.8,60-298.5h-773L2128,910z M2189-149.5c-68.7-117.7-161.8-210.8-279.5-279.5
	S1663.3-532,1524-532v768h768C2292,96.7,2257.7-31.8,2189-149.5z"/>
</svg>
