<svg xmlns="http://www.w3.org/2000/svg" x="0px" y="0px" viewBox="596 -596 1792 1792" style="enable-background:new 596 -596 1792 1792;">
<path d="M2292.2-586.5l-1664,960c-23.3,13.3-34,33-32,59c2,27.3,15.3,45.7,40,55l472,193v452c0,13.3,3.7,25.5,11,36.5
	c7.3,11,17.3,18.8,30,23.5c6,2.7,13.7,4,23,4c19.3,0,35-7,47-21l298-327l527,215c8.7,3.3,16.7,5,24,5c11.3,0,21.7-2.7,31-8
	c18-10.7,28.7-25.7,32-45l256-1536c4-26.7-5-48-27-64C2338.2-599.8,2315.5-600.5,2292.2-586.5z M1526.2,713.5l478-797l-863,639
	l-336-137l1434-827l-221,1323L1526.2,713.5z"/>
</svg>
