<svg xmlns="http://www.w3.org/2000/svg" x="0px" y="0px" viewBox="596 -596 1792 1792" style="enable-background:new 596 -596 1792 1792;">
<path d="M1012-468c-79.3,0-147.2,28.2-203.5,84.5S724-259.3,724-180v960c0,79.3,28.2,147.2,84.5,203.5
	c56.3,56.3,124.2,84.5,203.5,84.5h183c-11.3-102.7-9-187.3,7-254l98-414c-16-32.7-24-73-24-121c0-55.3,14.2-101.8,42.5-139.5
	c28.3-37.7,62.8-56.5,103.5-56.5c32.7,0,57.8,10.8,75.5,32.5c17.7,21.7,26.5,48.8,26.5,81.5c0,20.7-3.7,45.5-11,74.5
	s-17.2,63-29.5,102c-12.3,39-21.2,69.8-26.5,92.5c-9.3,40-1.7,74.5,23,103.5c24.7,29,57,43.5,97,43.5c70.7,0,128.5-39.3,173.5-118
	s67.5-174,67.5-286c0-86-27.8-156-83.5-210S1601.3-82,1502-82c-111.3,0-201.5,35.5-270.5,106.5S1128,181,1128,281
	c0,58.7,16.7,108.7,50,150c11.3,12.7,15,26.7,11,42c-3.3,11.3-8.3,31.7-15,61c-2.7,9.3-7.5,15.7-14.5,19c-7,3.3-14.8,3.3-23.5,0
	c-51.3-21.3-90.2-58-116.5-110S980,331,980,263c0-44,7.2-88.2,21.5-132.5c14.3-44.3,36.5-87,66.5-128S1133.8-75,1175.5-107
	s92.7-57.5,153-76.5c60.3-19,125.2-28.5,194.5-28.5c70.7,0,136.3,12.2,197,36.5s111.5,56.7,152.5,97c41,40.3,73.2,86.7,96.5,139
	s35,106.5,35,162.5c0,150.7-38.2,275.2-114.5,373.5S1714.7,744,1594,744c-40,0-77.5-9.3-112.5-28s-59.5-41-73.5-67
	c-29.3,116.7-47,186.3-53,209c-15.3,58.7-51.3,128.7-108,210h725c79.3,0,147.2-28.2,203.5-84.5c56.3-56.3,84.5-124.2,84.5-203.5
	v-960c0-79.3-28.2-147.2-84.5-203.5c-56.3-56.3-124.2-84.5-203.5-84.5H1012z"/>
</svg>
