<svg xmlns="http://www.w3.org/2000/svg" x="0px" y="0px" viewBox="596 -596 1792 1792" style="enable-background:new 596 -596 1792 1792;">
<path d="M1876,245L1332-75c-20.7-12.7-42-13-64-1c-21.3,12.7-32,31.3-32,56v640c0,24.7,10.7,43.3,32,56c10.7,5.3,21.3,8,32,8
	c11.3,0,22-3,32-9l544-320c21.3-12,32-30.3,32-55S1897.3,257,1876,245z M1963,573c-48.7,83.3-114.7,149.3-198,198s-174.3,73-273,73
	c-98.7,0-189.7-24.3-273-73c-83.3-48.7-149.3-114.7-198-198c-48.7-83.3-73-174.3-73-273s24.3-189.7,73-273
	c48.7-83.3,114.7-149.3,198-198s174.3-73,273-73c98.7,0,189.7,24.3,273,73c83.3,48.7,149.3,114.7,198,198s73,174.3,73,273
	S2011.7,489.7,1963,573z M2157-85.5c-68.7-117.7-161.8-210.8-279.5-279.5S1631.3-468,1492-468s-267.8,34.3-385.5,103
	S895.7-203.2,827-85.5S724,160.7,724,300s34.3,267.8,103,385.5S988.8,896.3,1106.5,965s246.2,103,385.5,103s267.8-34.3,385.5-103
	s210.8-161.8,279.5-279.5c68.7-117.7,103-246.2,103-385.5S2225.7,32.2,2157-85.5z"/>
</svg>
