<svg xmlns="http://www.w3.org/2000/svg" x="0px" y="0px" viewBox="596 -596 1792 1792" style="enable-background:new 596 -596 1792 1792;">
<path d="M2168,136c-18.7-18.7-41.3-28-68-28h-416v-416c0-26.7-9.3-49.3-28-68c-18.7-18.7-41.3-28-68-28h-192c-26.7,0-49.3,9.3-68,28
	c-18.7,18.7-28,41.3-28,68v416H884c-26.7,0-49.3,9.3-68,28s-28,41.3-28,68v192c0,26.7,9.3,49.3,28,68s41.3,28,68,28h416v416
	c0,26.7,9.3,49.3,28,68c18.7,18.7,41.3,28,68,28h192c26.7,0,49.3-9.3,68-28c18.7-18.7,28-41.3,28-68V492h416c26.7,0,49.3-9.3,68-28
	c18.7-18.7,28-41.3,28-68V204C2196,177.3,2186.7,154.7,2168,136z"/>
</svg>
