<svg xmlns="http://www.w3.org/2000/svg" x="0px" y="0px" viewBox="596 -596 1792 1792" style="enable-background:new 596 -596 1792 1792;">
<path d="M2193,687c-4-12-29.3-29.7-76-53c-12.7-7.3-30.7-17.3-54-30c-23.3-12.7-44.5-24.3-63.5-35c-19-10.7-36.8-21-53.5-31
	c-2.7-2-11-7.8-25-17.5c-14-9.7-25.8-16.8-35.5-21.5s-19.2-7-28.5-7c-13.3,0-30,9.5-50,28.5s-38.3,39.7-55,62
	c-16.7,22.3-34.3,43-53,62c-18.7,19-34,28.5-46,28.5c-6,0-13.5-1.7-22.5-5c-9-3.3-15.8-6.2-20.5-8.5c-4.7-2.3-12.7-7-24-14
	c-11.3-7-17.7-10.8-19-11.5c-91.3-50.7-169.7-108.7-235-174c-65.3-65.3-123.3-143.7-174-235c-0.7-1.3-4.5-7.7-11.5-19
	s-11.7-19.3-14-24s-5.2-11.5-8.5-20.5s-5-16.5-5-22.5c0-12,9.5-27.3,28.5-46s39.7-36.3,62-53s43-35,62-55s28.5-36.7,28.5-50
	c0-9.3-2.3-18.8-7-28.5s-11.8-21.5-21.5-35.5s-15.5-22.3-17.5-25c-10-16.7-20.3-34.5-31-53.5s-22.3-40.2-35-63.5s-22.7-41.3-30-54
	c-23.3-46.7-41-72-53-76c-4.7-2-11.7-3-21-3c-18,0-41.5,3.3-70.5,10s-51.8,13.7-68.5,21c-33.3,14-68.7,54.7-106,122
	c-34,62.7-51,124.7-51,186c0,18,1.2,35.5,3.5,52.5S798,23.7,804,45s10.8,37.2,14.5,47.5S829,121.3,839,148s16,43,18,49
	c23.3,65.3,51,123.7,83,175c52.7,85.3,124.5,173.5,215.5,264.5S1334.7,799.3,1420,852c51.3,32,109.7,59.7,175,83c6,2,22.3,8,49,18
	c26.7,10,45.2,16.8,55.5,20.5c10.3,3.7,26.2,8.5,47.5,14.5c21.3,6,40.5,10.2,57.5,12.5s34.5,3.5,52.5,3.5c61.3,0,123.3-17,186-51
	c67.3-37.3,108-72.7,122-106c7.3-16.7,14.3-39.5,21-68.5c6.7-29,10-52.5,10-70.5C2196,698.7,2195,691.7,2193,687z"/>
</svg>
