<svg xmlns="http://www.w3.org/2000/svg" x="0px" y="0px" viewBox="596 -596 1792 1792" style="enable-background:new 596 -596 1792 1792;">
<path d="M1982,698c-14,30.7-45.5,57.3-94.5,80s-92.5,34-130.5,34c-10.7,0-22-0.8-34-2.5s-22.2-3.3-30.5-5c-8.3-1.7-19.3-4.7-33-9
	c-13.7-4.3-23.5-7.7-29.5-10s-17-6.5-33-12.5s-26-9.7-30-11c-109.3-40-216.2-112.2-320.5-216.5C1142.2,441.2,1070,334.3,1030,225
	c-1.3-4-5-14-11-30s-10.2-27-12.5-33c-2.3-6-5.7-15.8-10-29.5c-4.3-13.7-7.3-24.7-9-33c-1.7-8.3-3.3-18.5-5-30.5
	c-1.7-12-2.5-23.3-2.5-34c0-38,11.3-81.5,34-130.5s49.3-80.5,80-94.5c35.3-14.7,69-22,101-22c7.3,0,12.7,0.7,16,2s8.8,7.3,16.5,18
	s16,24.2,25,40.5s17.8,32.2,26.5,47.5c8.7,15.3,17,30.5,25,45.5s13,24.5,15,28.5c2,3.3,6.3,9.7,13,19c6.7,9.3,11.7,17.7,15,25
	c3.3,7.3,5,14.3,5,21c0,10-6.8,22.2-20.5,36.5c-13.7,14.3-28.7,27.5-45,39.5c-16.3,12-31.3,24.8-45,38.5
	c-13.7,13.7-20.5,24.8-20.5,33.5c0,4.7,1.2,10.2,3.5,16.5s4.5,11.5,6.5,15.5s5.2,9.7,9.5,17c4.3,7.3,7.2,12,8.5,14
	c36.7,66,78.8,122.8,126.5,170.5c47.7,47.7,104.5,89.8,170.5,126.5c2,1.3,6.7,4.2,14,8.5c7.3,4.3,13,7.5,17,9.5s9.2,4.2,15.5,6.5
	c6.3,2.3,11.8,3.5,16.5,3.5c10.7,0,25.3-11,44-33c18.7-22,37.7-43.8,57-65.5c19.3-21.7,35-32.5,47-32.5c6.7,0,13.7,1.7,21,5
	s15.7,8.3,25,15s15.7,11,19,13l53,29c35.3,18.7,64.8,35.2,88.5,49.5c23.7,14.3,36.5,24.2,38.5,29.5c1.3,3.3,2,8.7,2,16
	C2004,629,1996.7,662.7,1982,698z M2175.5-383.5c-56.3-56.3-124.2-84.5-203.5-84.5h-960c-79.3,0-147.2,28.2-203.5,84.5
	S724-259.3,724-180v960c0,79.3,28.2,147.2,84.5,203.5c56.3,56.3,124.2,84.5,203.5,84.5h960c79.3,0,147.2-28.2,203.5-84.5
	c56.3-56.3,84.5-124.2,84.5-203.5v-960C2260-259.3,2231.8-327.2,2175.5-383.5z"/>
</svg>
