<svg xmlns="http://www.w3.org/2000/svg" x="0px" y="0px" viewBox="596 -596 1792 1792" style="enable-background:new 596 -596 1792 1792;">
<path d="M2260-404v1408c0,17.3-6.3,32.3-19,45s-27.7,19-45,19h-512c-17.3,0-32.3-6.3-45-19s-19-27.7-19-45V-404
	c0-17.3,6.3-32.3,19-45s27.7-19,45-19h512c17.3,0,32.3,6.3,45,19S2260-421.3,2260-404z M1364-404v1408c0,17.3-6.3,32.3-19,45
	s-27.7,19-45,19H788c-17.3,0-32.3-6.3-45-19s-19-27.7-19-45V-404c0-17.3,6.3-32.3,19-45s27.7-19,45-19h512c17.3,0,32.3,6.3,45,19
	S1364-421.3,1364-404z"/>
</svg>
