<svg xmlns="http://www.w3.org/2000/svg" x="0px" y="0px" viewBox="596 -596 1792 1792" style="enable-background:new 596 -596 1792 1792;">
<path d="M2157-85.5c-68.7-117.7-161.8-210.8-279.5-279.5S1631.3-468,1492-468s-267.8,34.3-385.5,103S895.7-203.2,827-85.5
	S724,160.7,724,300c0,155.3,42.3,296.3,127,423s195.7,220.3,333,281c-2.7-71.3,1.7-130.3,13-177l99-418c-16.7-32.7-25-73.3-25-122
	c0-56.7,14.3-104,43-142c28.7-38,63.7-57,105-57c33.3,0,59,11,77,33s27,49.7,27,83c0,20.7-3.8,45.8-11.5,75.5s-17.7,64-30,103
	c-12.3,39-21.2,70.2-26.5,93.5c-9.3,40.7-1.7,75.5,23,104.5c24.7,29,57.3,43.5,98,43.5c71.3,0,129.8-39.7,175.5-119
	c45.7-79.3,68.5-175.7,68.5-289c0-87.3-28.2-158.3-84.5-213c-56.3-54.7-134.8-82-235.5-82c-112.7,0-203.8,36.2-273.5,108.5
	C1156.8,101.8,1122,188.3,1122,289c0,60,17,110.3,51,151c11.3,13.3,15,27.7,11,43c-1.3,4-4,14-8,30s-6.7,26.3-8,31
	c-5.3,21.3-18,28-38,20c-51.3-21.3-90.3-58.3-117-111c-26.7-52.7-40-113.7-40-183c0-44.7,7.2-89.3,21.5-134
	c14.3-44.7,36.7-87.8,67-129.5s66.7-78.5,109-110.5s93.8-57.7,154.5-77c60.7-19.3,126-29,196-29c94.7,0,179.7,21,255,63
	c75.3,42,132.8,96.3,172.5,163s59.5,138,59.5,214c0,100-17.3,190-52,270s-83.7,142.8-147,188.5c-63.3,45.7-135.3,68.5-216,68.5
	c-40.7,0-78.7-9.5-114-28.5c-35.3-19-59.7-41.5-73-67.5c-30,118-48,188.3-54,211c-12.7,47.3-38.7,102-78,164
	c71.3,21.3,144,32,218,32c139.3,0,267.8-34.3,385.5-103s210.8-161.8,279.5-279.5c68.7-117.7,103-246.2,103-385.5
	S2225.7,32.2,2157-85.5z"/>
</svg>
