<svg xmlns="http://www.w3.org/2000/svg" x="0px" y="0px" viewBox="596 -596 1792 1792" style="enable-background:new 596 -596 1792 1792;">
<path d="M2056,429.5c-47.3-16.3-90.3-24.2-129-23.5s-77.8,7.3-117.5,20c-39.7,12.7-72.8,26.7-99.5,42
	c-26.7,15.3-52.5,32.8-77.5,52.5c-25,19.7-41.5,33.3-49.5,41c-8,7.7-14,13.8-18,18.5c33.3-90.7,57.7-185,73-283l17,3
	c11.3,2,26.8,3.5,46.5,4.5c19.7,1,42.2,1.3,67.5,1c25.3-0.3,52-3.5,80-9.5s56.2-14,84.5-24s55.5-25.2,81.5-45.5s49.2-44.2,69.5-71.5
	c20.3-27.3,37-62.2,50-104.5S2154.7-39,2156-91c-45.3-15.3-89.5-23.3-132.5-24s-80.3,4.2-112,14.5S1849.3-75.3,1820-56
	c-29.3,19.3-53,37.8-71,55.5s-34.8,37-50.5,58c-15.7,21-25.8,35.3-30.5,43c-4.7,7.7-8,13.8-10,18.5c0.7-17.3,1-41.2,1-71.5
	s-0.3-47.2-1-50.5l7-15c5.3-10,11-24,17-42s12.3-38.7,19-62c6.7-23.3,11-48.8,13-76.5s2.2-56.2,0.5-85.5c-1.7-29.3-8.5-59-20.5-89
	s-28-58.3-48-85s-48.2-52.2-84.5-76.5c-36.3-24.3-78.8-44.8-127.5-61.5c-34,45.3-57.3,91.5-70,138.5c-12.7,47-16.7,89.3-12,127
	c4.7,37.7,15.7,75.2,33,112.5c17.3,37.3,35.3,68.3,54,93c18.7,24.7,39.8,48.5,63.5,71.5c23.7,23,40,37.8,49,44.5s16.2,12,21.5,16
	c0,48.7-4,113.7-12,195l-4-16c-3.3-10-8.7-23.2-16-39.5c-7.3-16.3-16.5-35-27.5-56s-25-42-42-63s-35.7-41.3-56-61
	c-20.3-19.7-44.8-36.3-73.5-50c-28.7-13.7-59.3-23.7-92-30s-70.2-6.7-112.5-1S1050.7-96.7,1004-78c4,46.7,13.5,89.2,28.5,127.5
	s33.2,69.8,54.5,94.5s46.3,46.3,75,65s56.7,32.8,84,42.5s56.8,17.3,88.5,23c31.7,5.7,58.8,9,81.5,10c22.7,1,45.8,1.2,69.5,0.5
	c23.7-0.7,39.2-1.5,46.5-2.5c7.3-1,13.3-1.8,18-2.5c-17.3,106.7-43.7,203.7-79,291c-16.7-29.3-35.5-56.7-56.5-82
	c-21-25.3-50.5-51-88.5-77s-79.5-44.8-124.5-56.5s-100.8-14.2-167.5-7.5s-138,25.7-214,57c22,55.3,46.8,104,74.5,146
	s55.8,75.3,84.5,100c28.7,24.7,59.3,44.3,92,59s63.7,24.2,93,28.5s59.7,5.2,91,2.5s59-7,83-13s48-13.7,72-23
	c-68,125.3-151.8,223.5-251.5,294.5S951.3,1106.3,836,1107c-12.7,0-23.3,4.2-32,12.5s-13,18.8-13,31.5s4.3,23.3,13,32s19.3,13,32,13
	c138.7-0.7,266.8-44.8,384.5-132.5S1434.7,856,1510,704l17,10c10.7,6.7,26,14.2,46,22.5s43.2,17.5,69.5,27.5
	c26.3,10,55.2,17.3,86.5,22c31.3,4.7,63.5,7.5,96.5,8.5s66.8-3.8,101.5-14.5s67.7-26.2,99-46.5c31.3-20.3,61.7-49.8,91-88.5
	c29.3-38.7,54.7-84.7,76-138C2149,471.7,2103.3,445.8,2056,429.5z"/>
</svg>
