<svg xmlns="http://www.w3.org/2000/svg" x="0px" y="0px" viewBox="596 -596 1792 1792" style="enable-background:new 596 -596 1792 1792;">
<path d="M1706.5,70.5C1680.2,44.2,1648.3,31,1611,31h-253v269h253c37.3,0,69.2-13,95.5-39s39.5-57.7,39.5-95
	S1732.8,96.8,1706.5,70.5z M1833,387.5c-61.3,61-135.3,91.5-222,91.5h-253v269h-180v-896h433c87.3,0,161.5,30.7,222.5,92
	S1925,79.3,1925,166S1894.3,326.5,1833,387.5z M2317-48c-47.3-110.7-111-206-191-286s-175.3-143.7-286-191s-226.7-71-348-71
	c-121.3,0-237.3,23.7-348,71c-110.7,47.3-206,111-286,191S714.3-158.7,667-48s-71,226.7-71,348s23.7,237.3,71,348s111,206,191,286
	s175.3,143.7,286,191s226.7,71,348,71c121.3,0,237.3-23.7,348-71s206-111,286-191s143.7-175.3,191-286c47.3-110.7,71-226.7,71-348
	S2364.3,62.7,2317-48z"/>
</svg>
