<svg xmlns="http://www.w3.org/2000/svg" x="0px" y="0px" viewBox="596 -596 1792 1792" style="enable-background:new 596 -596 1792 1792;">
<path d="M2101-450c-12-12-26.3-18-43-18h-479c-204,0-343,12.3-417,37c-80.7,27.3-150.3,80.3-209,159c-58.7,80-88,175.3-88,286
	c0,94.7,21.3,181,64,259c44,80.7,108,140.3,192,179c65.3,31.3,147,51,245,59v496c0,16.7,5.8,31,17.5,43c11.7,12,26.2,18,43.5,18h108
	c17.3,0,31.8-6,43.5-18c11.7-12,17.5-26.3,17.5-43V-211h143v1218c0,16.7,6,31,18,43s26.3,18,43,18h108c16.7,0,31-6,43-18
	s18-26.3,18-43V-145c0-35.3,1-56.7,3-64c4-16.7,14.7-27,32-31c2.7-0.7,20.7-1,54-1c16,0,30.2-10.7,42.5-32
	c12.3-21.3,18.5-41.7,18.5-61v-73C2119-423.7,2113-438,2101-450z"/>
</svg>
