<svg xmlns="http://www.w3.org/2000/svg" x="0px" y="0px" viewBox="596 -596 1792 1792" style="enable-background:new 596 -596 1792 1792;">
<path d="M1694,316.5c-0.7-10,4.8-16.8,16.5-20.5s25-5.8,40-6.5s29.2-7.7,42.5-21s21-33.3,23-60l-50,25c-8-18.7-16-38.7-24-60
	s-13.7-37.2-17-47.5s-8.5-21.5-15.5-33.5S1695.7,72.3,1689,68s-17-8.8-31-13.5s-30.2-7.5-48.5-8.5s-42.2-1.5-71.5-1.5
	c-41.3,0-89.3,5.3-144,16c3.3,21.3,5,40.7,5,58c0,48.7-14.3,87.7-43,117l68,19c-6.7,12-10,23.3-10,34c0,16,7.8,27.3,23.5,34
	c15.7,6.7,32.7,10.5,51,11.5c18.3,1,35.3,7.2,51,18.5s23.5,29,23.5,53c0,32.7-24,75.7-72,129s-87.7,80-119,80
	c-14.7,0-49.5-30.5-104.5-91.5s-82.2-100.2-81.5-117.5l1-16l182-40c10-2,17.8-6.7,23.5-14c5.7-7.3,8.5-16,8.5-26
	c0-11.3-4.2-20.7-12.5-28c-8.3-7.3-18.2-11-29.5-11c-6,0-63.3,12.3-172,37c-4.7-11.3-11.3-22.3-20-33c-8.7-10.7-18-16-28-16
	c-4,0-9.8,2.2-17.5,6.5c-7.7,4.3-12.8,6.8-15.5,7.5c-3.3,1.3-9.5,2.8-18.5,4.5s-16.7,3.2-23,4.5c-6.3,1.3-13,3.7-20,7
	s-12.3,7.2-16,11.5c-3.7,4.3-5.5,10.2-5.5,17.5s2.7,15.7,8,25l-486,106c-9.3,2-16.8,6.8-22.5,14.5s-8.5,16.5-8.5,26.5
	c0,10.7,4,19.7,12,27c8,7.3,17.3,11,28,11c20.7,0,191.7-37.3,513-112c14,17.3,23,27.3,27,30c18.7,13.3,46.7,45.5,84,96.5
	c37.3,51,72.8,97.5,106.5,139.5c33.7,42,58.8,63,75.5,63c40.7,0,86.2-15.5,136.5-46.5c50.3-31,87.5-64.2,111.5-99.5
	c12.7-17.3,27-25.3,43-24c0.7,14-8.2,31.2-26.5,51.5c-18.3,20.3-37.3,40-57,59s-30.2,32.8-31.5,41.5c-2,14.7-3,46.7-3,96
	c0,20.7,0.7,36.3,2,47c22,6.7,46,10,72,10c21.3,0,54-3.5,98-10.5s77.7-10.2,101-9.5c2-10,5.8-27.7,11.5-53s9.8-44.8,12.5-58.5
	s5.2-31,7.5-52s3.2-40.2,2.5-57.5l-1-33c-0.7-14.7-2-28.2-4-40.5c-2-12.3-3.5-22.7-4.5-31c-1-8.3-4.5-17.5-10.5-27.5
	s-9.8-17-11.5-21s-7.7-10.8-18-20.5s-16.7-15.7-19-18s-10.8-9.7-25.5-22c-14.7-12.3-24-20.2-28-23.5c-6-6-10.3-10.7-13-14l6-4l10-2
	c48.7,0,89.5,16.2,122.5,48.5s57.2,73.3,72.5,123s29.5,105.8,42.5,168.5s24,122.8,33,180.5s23.5,112.5,43.5,164.5s44.7,90.3,74,115
	c24-10.7,62-26.5,114-47.5s98.2-40.7,138.5-59c40.3-18.3,76.5-37.5,108.5-57.5c-46-40.7-79-70.2-99-88.5s-45.2-45.2-75.5-80.5
	c-30.3-35.3-56.5-71.7-78.5-109c-28.7-48-53.8-88.2-75.5-120.5c-21.7-32.3-49.7-68.3-84-108c-34.3-39.7-68-71.2-101-94.5
	c-33-23.3-72.3-42.8-118-58.5s-93.5-22.5-143.5-20.5L1694,316.5z M1781,72.5c0-4.7-7.2-16-21.5-34S1737,5.2,1735-7.5
	c11.3-6,24.3-10.7,39-14s31.3-6.5,50-9.5s32.7-5.5,42-7.5c120-28.7,222-76,306-142s152.3-154,205-264c27.3-57.3,41.7-103.7,43-139
	l-7,9c-5.3,10-15.2,27.7-29.5,53c-14.3,25.3-23.3,41.2-27,47.5c-3.7,6.3-11.3,19-23,38c-11.7,19-19.8,31.3-24.5,37
	c-4.7,5.7-12.7,16-24,31c-11.3,15-21.2,26.3-29.5,34c-8.3,7.7-19.3,18-33,31c-13.7,13-27.8,25.5-42.5,37.5c-14.7,12-31.3,25-50,39
	c-82.7,63.3-206.3,126.7-371,190l-22-1v-76l-12,1c-14.7,0.7-27.3-3.7-38-13s-21.3-21.5-32-36.5s-20-25.5-28-31.5
	c-5.3,6-19.8,22.8-43.5,50.5s-40.3,46-50,55s-25,21.2-46,36.5s-42.8,27.3-65.5,36c-22.7,8.7-40.7,18.5-54,29.5
	c-13.3,11-25.3,26.5-36,46.5c60.7-28.7,133-43,217-43h37.5h32.5c6,0,13.3,0.2,22,0.5s15.5,1.2,20.5,2.5s9.8,3,14.5,5
	c6,4.7,8.8,6.2,8.5,4.5s2.3,0,8,5s8.5,7.5,8.5,7.5l8,8c2,2,5.3,5.5,10,10.5s8.2,8.8,10.5,11.5s6.3,7.5,12,14.5s10.2,12.2,13.5,15.5
	C1772.3,89.8,1781,79.8,1781,72.5z M1558,1180.5c42.7,7.3,84.3,11,125,11c82,0,163.3-15,244-45c-1.3-3.3-6.2-14.3-14.5-33
	s-16.3-35.7-24-51s-16.3-32-26-50s-19-32.2-28-42.5s-16.5-15.5-22.5-15.5c-36,0-84.8,7.2-146.5,21.5s-105.5,30.2-131.5,47.5
	L1558,1180.5z M1379,589.5l73-48l-109-177l-48,12L1379,589.5z M1782,893.5c-18.7,0-38.8,1.2-60.5,3.5s-45.7,5.7-72,10
	s-46.5,7.2-60.5,8.5l7,43c2.7-0.7,13.3-2.2,32-4.5s36.5-4.8,53.5-7.5s35-5.8,54-9.5s34.3-8,46-13s17.5-9.8,17.5-14.5c0-0.7-1-6-3-16
	H1782z M1304,255.5c-8,0-19.5,2-34.5,6s-25.8,6.3-32.5,7l6,17l96-20C1328.3,258.8,1316.7,255.5,1304,255.5z M1534,994.5l41-12
	l-10-83h-31V994.5z M2423-591.5v1V-591.5z M2421-586.5l-1,3l2-2l1-5L2421-586.5z M2424-591.5l-1,1L2424-591.5z"/>
</svg>
