<svg xmlns="http://www.w3.org/2000/svg" x="0px" y="0px" viewBox="596 -596 1792 1792" style="enable-background:new 596 -596 1792 1792;">
<path d="M2278.5,469c-30.3-39.3-72.8-59-127.5-59c-28.7,0-56.3,5-83,15c-26.7,10-48.2,21.2-64.5,33.5s-34,23.5-53,33.5
	s-35.8,15-50.5,15c-30,0-59.7-15.3-89-46c-23.3-24.7-35-63.7-35-117c0-63.3,8-145,24-245c0.7-2,1.8-9.2,3.5-21.5s3.3-23.7,5-34
	s2.8-16.2,3.5-17.5v-2c-31.3,1.3-85.7,7-163,17c-77.3,10-137.3,15-180,15c-40.7,0-75-8.8-103-26.5c-28-17.7-42-45.5-42-83.5
	c0-24.7,5.8-48.3,17.5-71c11.7-22.7,24.3-41.5,38-56.5c13.7-15,26.3-34.7,38-59c11.7-24.3,17.5-50.2,17.5-77.5
	c0-52.7-18-93.8-54-123.5s-80.7-44.5-134-44.5c-56.7,0-104.7,15.2-144,45.5s-59,72.8-59,127.5c0,28.7,5,56.3,15,83
	s21.2,48.2,33.5,64.5s23.5,34,33.5,53s15,35.8,15,50.5c0,30-15.3,59.7-46,89c-24.7,23.3-63.7,35-117,35c-63.3,0-145-8-245-24
	c-2-0.7-9.2-1.8-21.5-3.5s-23.7-3.3-34-5S661.3,26.7,660,26v1024c0,0.7,0.7,1,2,1c1.3,0.7,2.3,1,3,1l13,2c6,1.3,15.2,2.7,27.5,4
	s21.5,2.7,27.5,4c100,16,181.7,24,245,24c53.3,0,92.3-11.7,117-35c30.7-29.3,46-59,46-89c0-14.7-5-31.5-15-50.5s-21.2-36.7-33.5-53
	S1069,820.7,1059,794s-15-54.3-15-83c0-54.7,19.7-97.2,59-127.5s87-45.5,143-45.5c54,0,99,14.8,135,44.5c36,29.7,54,70.8,54,123.5
	c0,27.3-5.8,53.2-17.5,77.5c-11.7,24.3-24.3,44-38,59s-26.3,33.8-38,56.5c-11.7,22.7-17.5,46.3-17.5,71c0,38,14,65.8,42,83.5
	s62.3,26.5,103,26.5c30.7,0,63.3-1.7,98-5c34.7-3.3,73.2-7.8,115.5-13.5s74.8-9.5,97.5-11.5c7.3-0.7,18.3-1,33-1v-5
	c0.7-26-4.3-64.3-15-115s-16-89-16-115c0-82.7,36.7-124,110-124c24.7,0,48.3,5.8,71,17.5c22.7,11.7,41.5,24.3,56.5,38
	c15,13.7,34.7,26.3,59,38c24.3,11.7,50.2,17.5,77.5,17.5c52.7,0,93.8-18,123.5-54c29.7-36,44.5-81,44.5-135
	C2324,556,2308.8,508.3,2278.5,469z"/>
</svg>
