<svg xmlns="http://www.w3.org/2000/svg" x="0px" y="0px" viewBox="596 -596 1792 1792" style="enable-background:new 596 -596 1792 1792;">
<path d="M1931,245c-6-6-13.7-9-23-9h-352v-352c0-9.3-3-17-9-23s-13.7-9-23-9h-64c-9.3,0-17,3-23,9s-9,13.7-9,23v352h-352
	c-9.3,0-17,3-23,9s-9,13.7-9,23v64c0,9.3,3,17,9,23s13.7,9,23,9h352v352c0,9.3,3,17,9,23s13.7,9,23,9h64c9.3,0,17-3,23-9
	s9-13.7,9-23V364h352c9.3,0,17-3,23-9s9-13.7,9-23v-64C1940,258.7,1937,251,1931,245z M2021,829c-31.3,31.3-69,47-113,47h-832
	c-44,0-81.7-15.7-113-47s-47-69-47-113v-832c0-44,15.7-81.7,47-113s69-47,113-47h832c44,0,81.7,15.7,113,47c31.3,31.3,47,69,47,113
	v832C2068,760,2052.3,797.7,2021,829z M2111.5-319.5c-56.3-56.3-124.2-84.5-203.5-84.5h-832c-79.3,0-147.2,28.2-203.5,84.5
	S788-195.3,788-116v832c0,79.3,28.2,147.2,84.5,203.5S996.7,1004,1076,1004h832c79.3,0,147.2-28.2,203.5-84.5
	c56.3-56.3,84.5-124.2,84.5-203.5v-832C2196-195.3,2167.8-263.2,2111.5-319.5z"/>
</svg>
