<svg xmlns="http://www.w3.org/2000/svg" x="0px" y="0px" viewBox="596 -596 1792 1792" style="enable-background:new 596 -596 1792 1792;">
<path d="M2556-492.5c-22,11-52.8,28.8-92.5,53.5s-80.2,56.8-121.5,96.5c-41.3,39.7-84,86.8-128,141.5c-34.7,43.3-68.2,89-100.5,137
	c-32.3,48-60.3,92.5-84,133.5c-23.7,41-44,77.5-61,109.5s-31.8,60.8-44.5,86.5s-19.7,39.8-21,42.5l-102,177
	c-9.3-30.7-22.7-58.2-40-82.5s-35.3-44-54-59s-39.7-28.2-63-39.5s-43.8-19.5-61.5-24.5s-36-9-55-12s-31.7-4.7-38-5
	s-11.2-0.5-14.5-0.5c-134,0-261.8,52.7-383.5,158S845,700,717,944c-155.3,36.7-279,55-371,55c-4,0-6,2-6,6v2l1,1
	c8,11.3,19,22.7,33,34s34.3,24.7,61,40s62.3,27.7,107,37s94.3,13.7,149,13c90.7-1.3,221.3-16.8,392-46.5s304.7-44.5,402-44.5
	c150.7,0,268.7,8,354,24c21.3,4.7,37-2.7,47-22l194-345c4-7.3,5-14.7,3-22c-2-7.3-6.7-13-14-17c-6-2-9.3-3-10-3
	c-186-25.3-341-27.7-465-7c-50.7,8.7-98.2,19.2-142.5,31.5c-44.3,12.3-80.3,23.8-108,34.5c-27.7,10.7-72.2,28.5-133.5,53.5
	c-61.3,25-115.7,46.5-163,64.5l-15,7c-10.7,4.7-29,12-55,22s-54.7,20.3-86,31c140.7-84,241.7-143.7,303-179
	c192.7-114.7,402.7-167.3,630-158c69.3-133.3,119.7-210.3,151-231c5.3-4,21.3-13.3,48-28c26.7-14.7,50.8-28.3,72.5-41
	c21.7-12.7,44.2-29.5,67.5-50.5c23.3-21,40-41.2,50-60.5c15.3-30.7,31.5-85.5,48.5-164.5S2290.3-144,2297-156c2-4,6.7-13.8,14-29.5
	c7.3-15.7,14.7-30.5,22-44.5c7.3-14,19.8-33.2,37.5-57.5c17.7-24.3,37.5-48.2,59.5-71.5s51.7-50.3,89-81s79-61.3,125-92
	C2607.3-516.7,2578-503.5,2556-492.5z"/>
</svg>
