<svg xmlns="http://www.w3.org/2000/svg" x="0px" y="0px" viewBox="596 -596 1792 1792" style="enable-background:new 596 -596 1792 1792;">
<path d="M1985,409c-12.7,12.7-27.7,19-45,19h-320v320c0,17.3-6.3,32.3-19,45c-12.7,12.7-27.7,19-45,19h-128c-17.3,0-32.3-6.3-45-19
	c-12.7-12.7-19-27.7-19-45V428h-320c-17.3,0-32.3-6.3-45-19c-12.7-12.7-19-27.7-19-45V236c0-17.3,6.3-32.3,19-45
	c12.7-12.7,27.7-19,45-19h320v-320c0-17.3,6.3-32.3,19-45c12.7-12.7,27.7-19,45-19h128c17.3,0,32.3,6.3,45,19
	c12.7,12.7,19,27.7,19,45v320h320c17.3,0,32.3,6.3,45,19s19,27.7,19,45v128C2004,381.3,1997.7,396.3,1985,409z M2175.5-383.5
	c-56.3-56.3-124.2-84.5-203.5-84.5h-960c-79.3,0-147.2,28.2-203.5,84.5S724-259.3,724-180v960c0,79.3,28.2,147.2,84.5,203.5
	c56.3,56.3,124.2,84.5,203.5,84.5h960c79.3,0,147.2-28.2,203.5-84.5c56.3-56.3,84.5-124.2,84.5-203.5v-960
	C2260-259.3,2231.8-327.2,2175.5-383.5z"/>
</svg>
