<svg xmlns="http://www.w3.org/2000/svg" x="0px" y="0px" viewBox="596 -596 1792 1792" style="enable-background:new 596 -596 1792 1792;">
<path d="M1428,588V12c0-9.3-3-17-9-23s-13.7-9-23-9h-256c-9.3,0-17,3-23,9s-9,13.7-9,23v576c0,9.3,3,17,9,23s13.7,9,23,9h256
	c9.3,0,17-3,23-9S1428,597.3,1428,588z M1876,588V12c0-9.3-3-17-9-23s-13.7-9-23-9h-256c-9.3,0-17,3-23,9s-9,13.7-9,23v576
	c0,9.3,3,17,9,23s13.7,9,23,9h256c9.3,0,17-3,23-9S1876,597.3,1876,588z M2260,300c0,139.3-34.3,267.8-103,385.5
	S1995.2,896.3,1877.5,965s-246.2,103-385.5,103s-267.8-34.3-385.5-103C988.8,896.3,895.7,803.2,827,685.5S724,439.3,724,300
	S758.3,32.2,827-85.5S988.8-296.3,1106.5-365c117.7-68.7,246.2-103,385.5-103s267.8,34.3,385.5,103S2088.3-203.2,2157-85.5
	S2260,160.7,2260,300z"/>
</svg>
