<svg xmlns="http://www.w3.org/2000/svg" x="0px" y="0px" viewBox="596 -596 1792 1792" style="enable-background:new 596 -596 1792 1792;">
<path d="M1410-275.5c-20-51.7-50.5-96.7-91.5-135S1231.3-468,1180-468c-40.7,0-75.7,13-105,39s-50.3,56.8-63,92.5S993-263,993-223
	c0,48.7,10,99,30,151s50.7,97.2,92,135.5s87.3,57.5,138,57.5c40.7,0,75.7-13,105-39c29.3-26,50.3-56.8,63-92.5
	c12.7-35.7,19-73.5,19-113.5C1440-173.3,1430-223.8,1410-275.5z M1063,206.5c-23.3-52.3-56.8-97-100.5-134
	C918.8,35.5,871.7,17,821,17c-51.3,0-91,19.8-119,59.5s-42,86.2-42,139.5c0,49.3,11.7,100,35,152s56.8,96.5,100.5,133.5
	S886.3,557,937,557c51.3,0,91-19.7,119-59s42-85.7,42-139C1098,309.7,1086.3,258.8,1063,206.5z M1299,391
	c-69.3,39.3-131.8,88-187.5,146S1009.3,659.2,972,729.5c-37.3,70.3-56,134.2-56,191.5c0,97.3,61,146,183,146
	c49.3,0,116.2-14.8,200.5-44.5C1383.8,992.8,1448,978,1492,978c42,0,102.8,15,182.5,45c79.7,30,142.2,45,187.5,45
	c28.7,0,54-1.8,76-5.5s43.5-10.3,64.5-20s37.2-24.7,48.5-45c11.3-20.3,17-45.8,17-76.5c0-76.7-30.7-161.5-92-254.5
	s-137.7-172-229-237S1570.7,332,1492,332C1432.7,332,1368.3,351.7,1299,391z M1869,63.5c41.3-38.3,72-83.5,92-135.5s30-102.3,30-151
	c0-40-6.3-77.8-19-113.5s-33.7-66.5-63-92.5s-64.3-39-105-39c-51.3,0-97.5,19.2-138.5,57.5s-71.5,83.3-91.5,135s-30,102.2-30,151.5
	c0,40,6.3,77.8,19,113.5c12.7,35.7,33.7,66.5,63,92.5c29.3,26,64.3,39,105,39C1781.7,121,1827.7,101.8,1869,63.5z M2021.5,72.5
	c-43.7,37-77.2,81.7-100.5,134s-35,103.2-35,152.5c0,53.3,14,99.7,42,139s67.7,59,119,59c50.7,0,97.8-18.5,141.5-55.5
	c43.7-37,77.2-81.5,100.5-133.5c23.3-52,35-102.7,35-152c0-53.3-14-99.8-42-139.5S2214.3,17,2163,17
	C2112.3,17,2065.2,35.5,2021.5,72.5z"/>
</svg>
