<svg xmlns="http://www.w3.org/2000/svg" x="0px" y="0px" viewBox="596 -596 1792 1792" style="enable-background:new 596 -596 1792 1792;">
<path d="M1966,774c-25.3,25.3-55.3,38-90,38s-64.7-12.7-90-38s-38-55.3-38-90c0-34.7,12.7-64.7,38-90c25.3-25.3,55.3-38,90-38
	s64.7,12.7,90,38c25.3,25.3,38,55.3,38,90C2004,718.7,1991.3,748.7,1966,774z M1198,6c-25.3,25.3-55.3,38-90,38s-64.7-12.7-90-38
	c-25.3-25.3-38-55.3-38-90c0-34.7,12.7-64.7,38-90c25.3-25.3,55.3-38,90-38s64.7,12.7,90,38s38,55.3,38,90
	C1236-49.3,1223.3-19.3,1198,6z M2147.5,412.5c-75-75-165.5-112.5-271.5-112.5s-196.5,37.5-271.5,112.5S1492,578,1492,684
	s37.5,196.5,112.5,271.5S1770,1068,1876,1068s196.5-37.5,271.5-112.5S2260,790,2260,684S2222.5,487.5,2147.5,412.5z M2145-449
	c-12.7-12.7-27.7-19-45-19h-160c-21.3,0-38.3,8.7-51,26L833,966c-8.7,12-13,24.7-13,38c0,17.3,6.3,32.3,19,45s27.7,19,45,19h160
	c21.3,0,38.3-8.7,51-26L2151-366c8.7-12,13-24.7,13-38C2164-421.3,2157.7-436.3,2145-449z M1379.5-355.5
	c-75-75-165.5-112.5-271.5-112.5s-196.5,37.5-271.5,112.5S724-190,724-84s37.5,196.5,112.5,271.5S1002,300,1108,300
	s196.5-37.5,271.5-112.5S1492,22,1492-84S1454.5-280.5,1379.5-355.5z"/>
</svg>
