<svg xmlns="http://www.w3.org/2000/svg" x="0px" y="0px" viewBox="596 -596 1792 1792" style="enable-background:new 596 -596 1792 1792;">
<path d="M2082-542L1444,37c-61.3,56-92,126.7-92,212c0,84.7,30.2,157.8,90.5,219.5C1502.8,530.2,1575,561,1659,561
	c80.7,0,153.3-30.3,218-91c88.7-82,243.7-332.7,465-752c30-58.7,45-109,45-151c0-46.7-17.5-85.5-52.5-116.5S2258.7-596,2212-596
	C2164.7-596,2121.3-578,2082-542z M1178,448.5c-34.7,5-69,13.5-103,25.5s-63.3,27.8-88,47.5c-24.7,19.7-47.8,45-69.5,76
	c-21.7,31-40.8,68.5-57.5,112.5c-9.3,24.7-27.7,37-55,37c-10,0-25.3-5.7-46-17s-40.3-23.5-59-36.5s-39.3-27.8-62-44.5
	c-22.7-16.7-36.3-26.7-41-30c0,78.7,9.7,152,29,220s48.2,129,86.5,183s89.2,96.5,152.5,127.5s136,46.5,218,46.5
	c143.3,0,259.5-44.7,348.5-134s132.2-205,129.5-347l-1-71c-55.3-14.7-105.5-40-150.5-76S1329,488.7,1303,438
	C1254.3,440,1212.7,443.5,1178,448.5z"/>
</svg>
