<svg xmlns="http://www.w3.org/2000/svg" x="0px" y="0px" viewBox="596 -596 1792 1792" style="enable-background:new 596 -596 1792 1792;">
<path d="M1076,564v56h96v96h56l52-52l-152-152L1076,564z M1512,125l-291,291c-11.3,11.3-12.3,21.3-3,30c8.7,9.3,18.7,8.3,30-3
	l291-291c11.3-11.3,12.3-21.3,3-30C1533.3,112.7,1523.3,113.7,1512,125z M980,812V524l544-544l288,288l-544,544H980z M1588-84l92-92
	c18.7-18.7,41.3-28,68-28s49.3,9.3,68,28l152,152c18.7,18.7,28,41.3,28,68s-9.3,49.3-28,68l-92,92L1588-84z M2175.5-383.5
	c-56.3-56.3-124.2-84.5-203.5-84.5h-960c-79.3,0-147.2,28.2-203.5,84.5S724-259.3,724-180v960c0,79.3,28.2,147.2,84.5,203.5
	c56.3,56.3,124.2,84.5,203.5,84.5h960c79.3,0,147.2-28.2,203.5-84.5c56.3-56.3,84.5-124.2,84.5-203.5v-960
	C2260-259.3,2231.8-327.2,2175.5-383.5z"/>
</svg>
