<svg xmlns="http://www.w3.org/2000/svg" x="0px" y="0px" viewBox="596 -596 1792 1792" style="enable-background:new 596 -596 1792 1792;">
<path d="M2179.5,21c-53.7-107.3-129.2-197.3-226.5-270c-28-21.3-59.7-29.7-95-25s-63.3,21.3-84,50c-21.3,28-29.5,59.5-24.5,94.5
	S1771-66.3,1799-45c65.3,49.3,115.8,109.7,151.5,181s53.5,147.3,53.5,228c0,69.3-13.5,135.5-40.5,198.5S1900,680,1854,726
	s-100.5,82.5-163.5,109.5S1561.3,876,1492,876c-69.3,0-135.5-13.5-198.5-40.5S1176,772,1130,726s-82.5-100.5-109.5-163.5
	S980,433.3,980,364c0-80.7,17.8-156.7,53.5-228S1119.7,4.3,1185-45c28-21.3,44.5-49.5,49.5-84.5s-3.2-66.5-24.5-94.5
	c-20.7-28.7-48.5-45.3-83.5-50s-66.8,3.7-95.5,25C933.7-176.3,858.2-86.3,804.5,21S724,242.7,724,364c0,104,20.3,203.3,61,298
	s95.3,176.3,164,245s150.3,123.3,245,164s194,61,298,61s203.3-20.3,298-61c94.7-40.7,176.3-95.3,245-164
	c68.7-68.7,123.3-150.3,164-245c40.7-94.7,61-194,61-298C2260,242.7,2233.2,128.3,2179.5,21z M1582-494c-25.3-25.3-55.3-38-90-38
	c-34.7,0-64.7,12.7-90,38c-25.3,25.3-38,55.3-38,90v640c0,34.7,12.7,64.7,38,90c25.3,25.3,55.3,38,90,38c34.7,0,64.7-12.7,90-38
	c25.3-25.3,38-55.3,38-90v-640C1620-438.7,1607.3-468.7,1582-494z"/>
</svg>
