<svg xmlns="http://www.w3.org/2000/svg" x="0px" y="0px" viewBox="596 -596 1792 1792" style="enable-background:new 596 -596 1792 1792;">
<path d="M2019.3-387.3c-64,21.3-121.3,57.3-172,108l-160,160l-665-159c-10.7-3.3-20.7-0.7-30,8l-128,128c-7.3,7.3-10.3,16.3-9,27
	c2,10.7,7.7,18.7,17,24l508,279l-259,259l-194-53c-1.3-0.7-4-1-8-1c-9.3,0-17,3-23,9l-96,97c-6.7,8-9.7,16.3-9,25
	c1.3,10.7,5.7,18.3,13,23l252,189l189,252c6,7.3,14,11.7,24,13h2c9.3,0,17-3,23-9l96-96c8.7-9.3,11.3-19.7,8-31l-53-194l259-259
	l279,508c4,8.7,11,14,21,16c2,0.7,4.3,1,7,1c8,0,14.3-2,19-6l128-96c11.3-9.3,15.3-20.3,12-33l-160-696l161-161
	c50.7-50.7,86.7-108,108-172c21.3-64,17.3-113.3-12-148C2132.6-404.6,2083.3-408.6,2019.3-387.3z"/>
</svg>
