<svg xmlns="http://www.w3.org/2000/svg" x="0px" y="0px" viewBox="596 -596 1792 1792" style="enable-background:new 596 -596 1792 1792;">
<path d="M990.5,929.5v-128h-128v-107l91-91l235,235l-91,91H990.5z M1613.5,18.5l-542,542c-4.7,4.7-10.3,7-17,7c-14.7,0-22-7.3-22-22
	c0-6.7,2.3-12.3,7-17l542-542c4.7-4.7,10.3-7,17-7c14.7,0,22,7.3,22,22C1620.5,8.2,1618.2,13.8,1613.5,18.5z M734.5,641.5v416h416
	l832-832l-416-416L734.5,641.5z M2212.5-185.5l-235-234c-25.3-25.3-55.7-38-91-38c-36,0-66,12.7-90,38l-166,165l416,416l166-166
	c24.7-24.7,37-54.7,37-90C2249.5-129.2,2237.2-159.5,2212.5-185.5z"/>
</svg>
