<svg xmlns="http://www.w3.org/2000/svg" x="0px" y="0px" viewBox="596 -596 1792 1792" style="enable-background:new 596 -596 1792 1792;">
<path d="M2324.1-596c-11.3,0-22,3-32,9l-1664,960c-22.7,12.7-33.3,32.3-32,59c2,27.3,15.3,45.7,40,55l395,162l1069-925l-864,1059
	v349c0,13.3,3.8,25.5,11.5,36.5c7.7,11,17.8,18.8,30.5,23.5c6,2.7,13.3,4,22,4c20.7,0,37-7.7,49-23l242-295l453,185
	c8.7,3.3,16.7,5,24,5c11.3,0,21.7-2.7,31-8c18-10.7,28.7-25.7,32-45l256-1536c4-26.7-5-48-27-64C2349.4-592.3,2337.4-596,2324.1-596
	z"/>
</svg>
