<svg xmlns="http://www.w3.org/2000/svg" x="0px" y="0px" viewBox="596 -596 1792 1792" style="enable-background:new 596 -596 1792 1792;">
<path d="M1488,652l116-116l-152-152l-116,116v56h96v96H1488z M1928-68c-10.7-10.7-21.7-10.3-33,1l-350,350
	c-11.3,11.3-11.7,22.3-1,33s21.7,10.3,33-1l350-350C1938.3-46.3,1938.7-57.3,1928-68z M2008,526v190c0,79.3-28.2,147.2-84.5,203.5
	S1799.3,1004,1720,1004H888c-79.3,0-147.2-28.2-203.5-84.5S600,795.3,600,716v-832c0-79.3,28.2-147.2,84.5-203.5S808.7-404,888-404
	h832c42,0,81,8.3,117,25c10,4.7,16,12.3,18,23c2,11.3-1,21-9,29l-49,49c-9.3,9.3-20,12-32,8c-15.3-4-30.3-6-45-6H888
	c-44,0-81.7,15.7-113,47s-47,69-47,113v832c0,44,15.7,81.7,47,113s69,47,113,47h832c44,0,81.7-15.7,113-47s47-69,47-113V590
	c0-8.7,3-16,9-22l64-64c10-10,21.7-12.3,35-7C2001.3,502.3,2008,512,2008,526z M1912-212l288,288l-672,672h-288V460L1912-212z
	 M2356-80l-92,92l-288-288l92-92c18.7-18.7,41.3-28,68-28s49.3,9.3,68,28l152,152c18.7,18.7,28,41.3,28,68S2374.7-98.7,2356-80z"/>
</svg>
