<svg xmlns="http://www.w3.org/2000/svg" x="0px" y="0px" viewBox="596 -596 1792 1792" style="enable-background:new 596 -596 1792 1792;">
<path d="M2261-180c-35.3,0-65.7,12.3-91,37l-401,400L1535,23l400-401c24.7-24.7,37-54.8,37-90.5s-12.3-65.8-37-90.5s-54.7-37-90-37
	s-65.7,12.3-91,37l-400,401l-150-150l-160,160C935.3-39.3,873.2,90.5,857.5,241.5S875.3,529.7,958,653l-362,362v181h181l362-362
	c123.3,82.7,260.5,116.2,411.5,100.5S1831.3,856.7,1940,748l160-160l-150-150l401-400c24.7-25.3,37-55.7,37-91
	c0-35.3-12.3-65.3-37-90C2326.3-167.7,2296.3-180,2261-180z"/>
</svg>
