<svg xmlns="http://www.w3.org/2000/svg" x="0px" y="0px" viewBox="596 -596 1792 1792" style="enable-background:new 596 -596 1792 1792;">
<path d="M2145.2-112c-2.7-2-4.7-3.2-6-3.5c-1.3-0.3-2.5,0-3.5,1s-1.8,3.5-2.5,7.5c-7.3,42-19,86.3-35,133
	c-35.3,100.7-87,182.7-155,246c-74.7,70-170.3,118-287,144c-68.7,15.3-147.3,22.3-236,21h-131c-25.3,0-39.7,12.3-43,37
	c-6,37.3-15,93.2-27,167.5s-21,130.2-27,167.5s-14.8,93.3-26.5,168s-20.5,130.7-26.5,168c-2,14,1,26,9,36s19,15,33,15h251
	c16.7,0,31.5-5.5,44.5-16.5s21.2-25.2,24.5-42.5l2-15l55-346l4-19c3.3-17.3,11.3-31.5,24-42.5c12.7-11,27.3-16.5,44-16.5h44
	c318.7,0,507-148,565-444c14.7-80,16-148,4-204C2230.5-18.7,2197.9-72.7,2145.2-112z M2014.7-428c-37.7-54.7-92.2-95.7-163.5-123
	c-32-12.7-69.2-23.3-111.5-32s-74.8-13-97.5-13h-598c-19.3,0-36.5,6.3-51.5,19s-24.2,28.7-27.5,48l-232,1471
	c-2,14.7,1.8,27.5,11.5,38.5s21.8,16.5,36.5,16.5h295c7.3,0,11.3-3.3,12-10c55.3-348,83.7-524.7,85-530c12-64,51.3-96,118-96l90,1
	c60,0,90-0.3,90-1c92.7-1.3,176.7-15.3,252-42c148-54.7,248.7-159.7,302-315c30.7-86,46-164.7,46-236
	C2071.2-308,2052.4-373.3,2014.7-428z"/>
</svg>
