<svg xmlns="http://www.w3.org/2000/svg" x="0px" y="0px" viewBox="596 -596 1792 1792" style="enable-background:new 596 -596 1792 1792;">
<path d="M1494,427.8c-149.3,0-224,56-224,168c0,58,5.7,123.7,17,197c20.7,143.3,39,247.7,55,313c14.7,60,65.3,90,152,90
	c86.7,0,137.3-30,152-90c16-65.3,34.3-169.7,55-313c11.3-74,17-139.7,17-197C1718,483.8,1643.3,427.8,1494,427.8z M2194.5-136.7
	c-43.7-97.7-102-181.2-175-250.5c-73-69.3-160-122.8-261-160.5s-206.2-53.2-315.5-46.5c-95.3,6-186.2,29.3-272.5,70
	c-86.3,40.7-161.3,93.2-225,157.5s-115.2,140-154.5,227c-39.3,87-61.3,178.2-66,273.5c-5.3,111.3,12.2,217.8,52.5,319.5
	s98.2,189.7,173.5,264s162.3,130.8,261,169.5c5.3,2.7,10.5,2,15.5-2s7.2-9,6.5-15c-1.3-8-3.3-19.8-6-35.5c-2.7-15.7-4.3-26.5-5-32.5
	c-2-16-4-31-6-45c-1.3-6-4.3-10-9-12c-106-52.7-191.7-129.8-257-231.5s-98.3-213.8-99-336.5c-0.7-83.3,14.8-163.5,46.5-240.5
	s74.3-144.3,128-202c53.7-57.7,118.2-104.5,193.5-140.5c75.3-36,154.3-56.3,237-61c120.7-6.7,233,18,337,74s186.3,134.2,247,234.5
	s91,210.5,91,330.5c0,122.7-32.2,235-96.5,337s-149.5,180-255.5,234c-5.3,2-8.3,6-9,12c-1.3,10-3.3,25.7-6,47c-2,12-5.3,34-10,66
	c-0.7,6,1.3,11,6,15s9.7,5,15,3c144-57.3,260.7-150.7,350-280c89.3-129.3,134-274,134-434C2260,63.8,2238.1-39.1,2194.5-136.7z
	 M1652.5-18.7c-43.7-43.7-96.5-65.5-158.5-65.5s-114.8,21.8-158.5,65.5c-43.7,43.7-65.5,96.5-65.5,158.5s21.8,114.8,65.5,158.5
	c43.7,43.7,96.5,65.5,158.5,65.5s114.8-21.8,158.5-65.5c43.7-43.7,65.5-96.5,65.5-158.5S1696.1,24.9,1652.5-18.7z M1933.5-91.7
	c-48.3-80.3-113.8-142.8-196.5-187.5c-82.7-44.7-172-64.7-268-60c-86.7,4-167,28.8-241,74.5s-133,106.2-177,181.5s-67,156.7-69,244
	c-1.3,83.3,15.8,161.3,51.5,234c35.7,72.7,85.2,133.7,148.5,183c5.3,4,10.7,4.7,16,2c5.3-2.7,8.7-7,10-13c3.3-34.7,13-65.7,29-93
	c4.7-6.7,3.7-13.3-3-20c-43.3-40-76.2-88-98.5-144s-30.2-114.7-23.5-176c8.7-88.7,45-165.7,109-231s140.3-103,229-113
	c75.3-8,146,4.2,212,36.5s118.5,79.5,157.5,141.5s58.5,130,58.5,204c0,54.7-11,106.3-33,155s-52.3,91-91,127c-6.7,6.7-7.7,13.3-3,20
	c15.3,26.7,25,57.3,29,92c1.3,6.7,4.7,11.3,10,14c5.3,2.7,10.7,2,16-2c62-47.3,110.8-106.5,146.5-177.5s53.5-147.2,53.5-228.5
	C2006,76.4,1981.8-11.4,1933.5-91.7z"/>
</svg>
