<svg xmlns="http://www.w3.org/2000/svg" x="0px" y="0px" viewBox="596 -596 1792 1792" style="enable-background:new 596 -596 1792 1792;">
<path d="M1732,314.5c-25.3-30.3-55.7-45.5-91-45.5c-28,0-51.3,5.7-70,17v277c18,10,41.3,15,70,15c35.3,0,65.7-15,91-45
	s38-66.3,38-109S1757.3,344.8,1732,314.5z M1389-113c-25.3-30-55.7-45-91-45c-28,0-51.3,5.7-70,17v277c18,10,41.3,15,70,15
	c35.3,0,65.7-15.2,91-45.5c25.3-30.3,38-66.8,38-109.5S1414.3-83,1389-113z M1901,656c-58.7,63.3-129.7,95-213,95
	c-44,0-83-6.3-117-19v206l-211,41V343c82.7-4,153-37.7,211-101c36.7-38.7,62.7-84,78-136c12.7-2,25.7-3,39-3
	c83.3,0,154.3,31.7,213,95s88,139.7,88,229S1959.7,592.7,1901,656z M1557.5,229c-59,63.3-130.2,95-213.5,95c-40.7,0-79.3-6.3-116-19
	v206l-211,41v-840h186c44.7-24,91.7-36,141-36c83.3,0,154.5,31.7,213.5,95S1646-89.3,1646,0S1616.5,165.7,1557.5,229z M2175.5-383.5
	c-56.3-56.3-124.2-84.5-203.5-84.5h-960c-79.3,0-147.2,28.2-203.5,84.5S724-259.3,724-180v960c0,79.3,28.2,147.2,84.5,203.5
	c56.3,56.3,124.2,84.5,203.5,84.5h960c79.3,0,147.2-28.2,203.5-84.5c56.3-56.3,84.5-124.2,84.5-203.5v-960
	C2260-259.3,2231.8-327.2,2175.5-383.5z"/>
</svg>
