<svg xmlns="http://www.w3.org/2000/svg" x="0px" y="0px" viewBox="596 -596 1792 1792" style="enable-background:new 596 -596 1792 1792;">
<path d="M1106.5-365C988.8-296.3,895.7-203.2,827-85.5S724,160.7,724,300s34.3,267.8,103,385.5S988.8,896.3,1106.5,965
	s246.2,103,385.5,103s267.8-34.3,385.5-103s210.8-161.8,279.5-279.5c68.7-117.7,103-246.2,103-385.5s-34.3-267.8-103-385.5
	c-68.7-117.7-161.8-210.8-279.5-279.5S1631.3-468,1492-468S1224.2-433.7,1106.5-365z M1332,675c-10,6-20.7,9-32,9
	c-10.7,0-21.3-2.7-32-8c-21.3-12.7-32-31.3-32-56V-20c0-24.7,10.7-43.3,32-56c22-12,43.3-11.7,64,1l544,320c21.3,12,32,30.3,32,55
	s-10.7,43-32,55L1332,675z"/>
</svg>
