<svg xmlns="http://www.w3.org/2000/svg" x="0px" y="0px" viewBox="596 -596 1792 1792" style="enable-background:new 596 -596 1792 1792;">
<path d="M863,171.5c7.3,36.3,18.2,72.3,32.5,108s34.7,67.2,61,94.5s56.5,46,90.5,56c10,2,15.7,3,17,3c14.7,0,27-15,37-45
	s15-54.3,15-73c0-6-4.2-16.2-12.5-30.5s-17.3-29.5-27-45.5s-18.7-37.7-27-65s-12.5-55.7-12.5-85c0-132.7,44.7-242.2,134-328.5
	S1371.7-369,1505-369c117.3,0,212.5,32.2,285.5,96.5S1900-118.3,1900-3c0,31.3-2.2,64.5-6.5,99.5s-11,72-20,111s-21.7,75.8-38,110.5
	c-16.3,34.7-35,66.3-56,95s-47.2,51.3-78.5,68c-31.3,16.7-65.3,25-102,25c-42.7,0-79-13.8-109-41.5c-30-27.7-45-62.5-45-104.5
	c0-41.3,14.7-103.7,44-187c29.3-83.3,44-147,44-191c0-41.3-11.3-75.5-34-102.5c-22.7-27-54.3-40.5-95-40.5c-53.3,0-97.3,24.3-132,73
	s-52,100.7-52,156c0,69.3,10.7,125.7,32,169c-4.7,20-22,87.7-52,203s-52.2,211.2-66.5,287.5S1112,872.7,1112,934
	c0,20.7,5,83.3,15,188l9,10l14-5c24.7-33.3,45.3-62.2,62-86.5c16.7-24.3,32-50.2,46-77.5s24.7-48.2,32-62.5s16-38,26-71
	s16.8-56.7,20.5-71s11.5-46,23.5-95s21.3-86.5,28-112.5c19.3,37.3,51.3,66.7,96,88c44.7,21.3,89.7,32,135,32
	c68.7,0,131.7-12.8,189-38.5c57.3-25.7,105.7-60,145-103s72.7-92.8,100-149.5c27.3-56.7,47.3-115.7,60-177c12.7-61.3,19-124,19-188
	c0-106.7-28.3-202.3-85-287c-56.7-84.7-130.3-149.2-221-193.5S1637.3-532,1532-532c-68.7,0-136,8.7-202,26s-127.7,43.3-185,78
	s-108,75.7-152,123s-78.5,102.8-103.5,166.5S852-7,852,65C852,99.7,855.7,135.2,863,171.5z"/>
</svg>
