<svg xmlns="http://www.w3.org/2000/svg" x="0px" y="0px" viewBox="596 -596 1792 1792" style="enable-background:new 596 -596 1792 1792;">
<path d="M614,676c0,30.7,7.7,64,23,100c2,0.7,3.7,2.5,5,5.5s3.3,4.5,6,4.5h1c27.3-2.7,53.2-15.2,77.5-37.5S769,701.3,781,674
	c5.3-13.3,9.3-20,12-20l5,3c8.7,41.3,33,93.5,73,156.5s76,98.2,108,105.5l2,3c0,1.3-0.7,2.7-2,4c-6.7,1.3-11.3,2-14,2
	c-13.3,0.7-29.8,4.7-49.5,12c-19.7,7.3-33.2,11.7-40.5,13c-20.7,19.3-34.3,35.5-41,48.5s-10,32.8-10,59.5c0,24.7,10.8,46,32.5,64
	c21.7,18,46.5,31.3,74.5,40s61.7,15.5,101,20.5s70.3,8,93,9s45.7,1.5,69,1.5c54.7,0,110.8-6.7,168.5-20c57.7-13.3,100.2-35,127.5-65
	c5.3,0.7,18.7,1.2,40,1.5c21.3,0.3,36.7,1.8,46,4.5c5.3,1.3,13,3.7,23,7c42.7,12.7,77.5,22.7,104.5,30s59.7,14,98,20s75.2,9,110.5,9
	c158.7,0,259.3-32.3,302-97c3.3-4,5.7-10,7-18c1.3-8,2.7-13.3,4-16c-5.3-28-17.2-49.7-35.5-65c-18.3-15.3-41.3-29.2-69-41.5
	c-27.7-12.3-48.2-25.2-61.5-38.5c48.7-46,92.7-120.3,132-223l5-4c1.3,0,2.3,0.3,3,1c0.7,1.3,3.7,7.2,9,17.5c5.3,10.3,9.8,19,13.5,26
	c3.7,7,9,15.8,16,26.5s13.3,19.3,19,26c5.7,6.7,12,12.5,19,17.5s13.5,7.5,19.5,7.5c24,0,42.5-19,55.5-57s19.5-71.3,19.5-100
	c0-72-14.5-141.5-43.5-208.5S2257.3,298,2206,222c0-0.7-0.7-1.8-2-3.5c-1.3-1.7-2.5-3.3-3.5-5s-1.5-2.8-1.5-3.5c0-8,3-20.7,9-38
	s9-30.7,9-40c0-44.7-18.3-94.7-55-150l-1-5c-8-38.7-15.3-71.3-22-98c-6.7-26.7-15.2-56.5-25.5-89.5c-10.3-33-21.2-61.2-32.5-84.5
	c-11.3-23.3-25.3-48-42-74c-16.7-26-35-48.7-55-68s-43.7-38-71-56s-57.3-34-90-48c-88.7-36.7-177.3-55-266-55
	c-123.3,0-231.3,22-324,66c-83.3,40-155.8,109.8-217.5,209.5S923-124.7,923-32c-9.3,8-16.8,22.3-22.5,43c-5.7,20.7-8.2,38.3-7.5,53
	c-8.7,10.7-16.7,25.7-24,45c-7.3,19.3-11,35.7-11,49c0,22,2.7,39.3,8,52C698,337.3,614,492.7,614,676z"/>
</svg>
