<svg xmlns="http://www.w3.org/2000/svg" x="0px" y="0px" viewBox="596 -596 1792 1792" style="enable-background:new 596 -596 1792 1792;">
<path d="M1595,581c-6-6-13.7-9-23-9h-160c-9.3,0-17,3-23,9s-9,13.7-9,23v160c0,9.3,3,17,9,23s13.7,9,23,9h160c9.3,0,17-3,23-9
	s9-13.7,9-23V604C1604,594.7,1601,587,1595,581z M1750.5-106.5c-73-59.7-152.5-89.5-238.5-89.5c-151.3,0-267.7,64-349,192
	c-4.7,6.7-6.3,14.3-5,23s5.3,15.3,12,20l108,82c5.3,4,11.7,6,19,6c10.7,0,19-4,25-12c34-42,60.7-69.7,80-83c26-18,57.7-27,95-27
	c34.7,0,66.5,9.8,95.5,29.5S1636,78,1636,106c0,20.7-7.3,37-22,49c-14.7,12-39.7,26.3-75,43c-19.3,8.7-34.2,15.7-44.5,21
	c-10.3,5.3-24,13.8-41,25.5s-30,23.5-39,35.5s-17,27.8-24,47.5S1380,368.7,1380,392v68c0,9.3,3,17,9,23s13.7,9,23,9h160
	c9.3,0,17-3,23-9s9-13.7,9-23v-32c0-10,3.8-19.7,11.5-29c7.7-9.3,16.3-17.3,26-24c9.7-6.7,25.2-16,46.5-28c25.3-14,45.2-26,59.5-36
	s31.7-24.7,52-44s35.5-42.3,45.5-69s15-56.7,15-90C1860,24.7,1823.5-46.8,1750.5-106.5z M1740.5-289c79,34,147,79.5,204,136.5
	s102.5,125,136.5,204s51,161.8,51,248.5s-17,169.5-51,248.5s-79.5,147-136.5,204s-125,102.5-204,136.5s-161.8,51-248.5,51
	c-86.7,0-169.5-17-248.5-51s-147-79.5-204-136.5S937,627.5,903,548.5S852,386.7,852,300s17-169.5,51-248.5s79.5-147,136.5-204
	s125-102.5,204-136.5s161.8-51,248.5-51C1578.7-340,1661.5-323,1740.5-289z M2157-85.5c-68.7-117.7-161.8-210.8-279.5-279.5
	S1631.3-468,1492-468s-267.8,34.3-385.5,103S895.7-203.2,827-85.5S724,160.7,724,300s34.3,267.8,103,385.5S988.8,896.3,1106.5,965
	s246.2,103,385.5,103s267.8-34.3,385.5-103s210.8-161.8,279.5-279.5c68.7-117.7,103-246.2,103-385.5S2225.7,32.2,2157-85.5z"/>
</svg>
