<svg xmlns="http://www.w3.org/2000/svg" x="0px" y="0px" viewBox="596 -596 1792 1792" style="enable-background:new 596 -596 1792 1792;">
<path d="M1044,620v128h128V620H1044z M1044-148v128h128v-128H1044z M1812-148v128h128v-128H1812z M916,492h384v383H916V492z
	 M916-276h384v384H916V-276z M1684-276h384v384h-384V-276z M788,364v640h640V364H788z M1812,876v128h128V876H1812z M2068,876v128
	h128V876H2068z M2068,364v128h-128V364h-384v640h128V620h128v128h384V364H2068z M788-404v640h640v-640H788z M1556-404v640h640v-640
	H1556z"/>
</svg>
