<svg xmlns="http://www.w3.org/2000/svg" x="0px" y="0px" viewBox="596 -596 1792 1792" style="enable-background:new 596 -596 1792 1792;">
<path d="M1372,292c-37.3-37.3-82.7-56-136-56h-224c-26.7,0-49.3-9.3-68-28c-18.7-18.7-28-41.3-28-68v-32c0-70.7,25-131,75-181
	s110.3-75,181-75h64c17.3,0,32.3-6.3,45-19c12.7-12.7,19-27.7,19-45v-128c0-17.3-6.3-32.3-19-45c-12.7-12.7-27.7-19-45-19h-64
	c-69.3,0-135.5,13.5-198.5,40.5S856-300,810-254S727.5-153.5,700.5-90.5S660,38.7,660,108v704c0,53.3,18.7,98.7,56,136
	s82.7,56,136,56h384c53.3,0,98.7-18.7,136-56c37.3-37.3,56-82.7,56-136V428C1428,374.7,1409.3,329.3,1372,292z M2268,292
	c-37.3-37.3-82.7-56-136-56h-224c-26.7,0-49.3-9.3-68-28s-28-41.3-28-68v-32c0-70.7,25-131,75-181s110.3-75,181-75h64
	c17.3,0,32.3-6.3,45-19c12.7-12.7,19-27.7,19-45v-128c0-17.3-6.3-32.3-19-45c-12.7-12.7-27.7-19-45-19h-64
	c-69.3,0-135.5,13.5-198.5,40.5S1752-300,1706-254s-82.5,100.5-109.5,163.5S1556,38.7,1556,108v704c0,53.3,18.7,98.7,56,136
	c37.3,37.3,82.7,56,136,56h384c53.3,0,98.7-18.7,136-56c37.3-37.3,56-82.7,56-136V428C2324,374.7,2305.3,329.3,2268,292z"/>
</svg>
