<svg xmlns="http://www.w3.org/2000/svg" x="0px" y="0px" viewBox="596 -596 1792 1792" style="enable-background:new 596 -596 1792 1792;">
<path d="M1372-348c-37.3-37.3-82.7-56-136-56H852c-53.3,0-98.7,18.7-136,56s-56,82.7-56,136v384c0,53.3,18.7,98.7,56,136
	s82.7,56,136,56h224c26.7,0,49.3,9.3,68,28s28,41.3,28,68v32c0,70.7-25,131-75,181s-110.3,75-181,75h-64c-17.3,0-32.3,6.3-45,19
	s-19,27.7-19,45v128c0,17.3,6.3,32.3,19,45s27.7,19,45,19h64c69.3,0,135.5-13.5,198.5-40.5S1232,900,1278,854
	s82.5-100.5,109.5-163.5S1428,561.3,1428,492v-704C1428-265.3,1409.3-310.7,1372-348z M2268-348c-37.3-37.3-82.7-56-136-56h-384
	c-53.3,0-98.7,18.7-136,56c-37.3,37.3-56,82.7-56,136v384c0,53.3,18.7,98.7,56,136c37.3,37.3,82.7,56,136,56h224
	c26.7,0,49.3,9.3,68,28c18.7,18.7,28,41.3,28,68v32c0,70.7-25,131-75,181s-110.3,75-181,75h-64c-17.3,0-32.3,6.3-45,19
	s-19,27.7-19,45v128c0,17.3,6.3,32.3,19,45s27.7,19,45,19h64c69.3,0,135.5-13.5,198.5-40.5S2128,900,2174,854
	s82.5-100.5,109.5-163.5S2324,561.3,2324,492v-704C2324-265.3,2305.3-310.7,2268-348z"/>
</svg>
