<svg xmlns="http://www.w3.org/2000/svg" x="0px" y="0px" viewBox="596 -596 1792 1792" style="enable-background:new 596 -596 1792 1792;">
<path d="M1626,632c-8-8-17.3-12-28-12h-240c-10.7,0-20,4-28,12s-12,17.3-12,28v240c0,10.7,4,20,12,28s17.3,12,28,12h240
	c10.7,0,20-4,28-12s12-17.3,12-28V660C1638,649.3,1634,640,1626,632z M1913-98.5c-27.3-50.3-62.7-92.8-106-127.5
	c-43.3-34.7-92-62.3-146-83s-107.7-31-161-31c-202.7,0-357.3,88.7-464,266c-5.3,8.7-7.2,18-5.5,28s6.8,18.3,15.5,25l164,125
	c8.7,5.3,17,8,25,8c12,0,22.3-5.3,31-16c48-60,83.7-98.3,107-115c28.7-19.3,64.7-29,108-29c40.7,0,76.5,10.7,107.5,32
	s46.5,46,46.5,74c0,31.3-8.3,56.7-25,76c-16.7,19.3-44.7,38-84,56c-52,23.3-99.7,59.5-143,108.5s-65,101.2-65,156.5v45
	c0,12.7,3.5,25.2,10.5,37.5c7,12.3,15.5,18.5,25.5,18.5h240c10.7,0,20-5.2,28-15.5c8-10.3,12-21.2,12-32.5c0-16.7,9.2-39,27.5-67
	c18.3-28,41.2-49.7,68.5-65c26-14.7,46.3-26.5,61-35.5c14.7-9,33.8-23.5,57.5-43.5c23.7-20,42-39.8,55-59.5s24.7-45.2,35-76.5
	c10.3-31.3,15.5-65,15.5-101C1954,4.7,1940.4-48.2,1913-98.5z"/>
</svg>
