<svg xmlns="http://www.w3.org/2000/svg" x="0px" y="0px" viewBox="596 -596 1792 1792" style="enable-background:new 596 -596 1792 1792;">
<path d="M1611,803c-6,6-13.7,9-23,9h-192c-9.3,0-17-3-23-9s-9-13.7-9-23V588c0-9.3,3-17,9-23s13.7-9,23-9h192c9.3,0,17,3,23,9
	s9,13.7,9,23v192C1620,789.3,1617,797,1611,803z M1863.5,189c-8.3,24.7-17.7,44.8-28,60.5s-25.2,31.7-44.5,48s-34.7,28-46,35
	s-27.7,16.5-49,28.5c-22,12.7-40.2,29.2-54.5,49.5c-14.3,20.3-21.5,36.8-21.5,49.5c0,9.3-3,17-9,23s-13.7,9-23,9h-192
	c-9.3,0-17-3-23-9s-9-13.7-9-23v-36c0-44.7,17.5-86.5,52.5-125.5S1490,230.7,1532,212c32-14.7,54.7-29.7,68-45
	c13.3-15.3,20-35.7,20-61c0-22-12.5-41.7-37.5-59S1529,21,1497,21c-34.7,0-63.3,8-86,24c-22,16-50.7,46.7-86,92c-6,8-14.3,12-25,12
	c-8,0-14.3-2-19-6L1149,43c-15.3-12-18-26-8-42c85.3-142,209-213,371-213c58,0,114.7,13.7,170,41c55.3,27.3,101.5,66,138.5,116
	S1876,49.3,1876,108C1876,137.3,1871.8,164.3,1863.5,189z M2157-85.5c-68.7-117.7-161.8-210.8-279.5-279.5S1631.3-468,1492-468
	s-267.8,34.3-385.5,103S895.7-203.2,827-85.5S724,160.7,724,300s34.3,267.8,103,385.5S988.8,896.3,1106.5,965s246.2,103,385.5,103
	s267.8-34.3,385.5-103s210.8-161.8,279.5-279.5c68.7-117.7,103-246.2,103-385.5S2225.7,32.2,2157-85.5z"/>
</svg>
