<svg xmlns="http://www.w3.org/2000/svg" x="0px" y="0px" viewBox="596 -596 1792 1792" style="enable-background:new 596 -596 1792 1792;" xml:space="preserve">
<path d="M1783.9,593c-44.7-67.3-94.8-119-1507-36-127.5-54-215.5-54c-114,0-206,30.3-276,91l49,97c22-10.7,48.3-16,79-16
	c27.3,0,53.2,4.8,77.5,14.5c24.3,9.7,45.3,21.7,63,36c17.7,14.3,35.5,33.2,53.5,56.5c18,23.3,32.7,45,44,65c11.3,20,24.3,44.3,39,73
	c-38,11.3-81.7,17-131,17c-148,0-256.7-51.8-326-155.5c-69.3-103.7-104-260.8-104-471.5c0-211.3,34.7-369.3,104-474
	c69.3-104.7,178-157,326-157c150,0,260,52.2,330,156.5s105,262.5,105,474.5C1850.9,359.7,1828.6,493.7,1783.9,593z M2202.9,908.5
	c-22,25-53.3,37.5-94,37.5c-38.7,0-73.5-12.2-104.5-36.5s-62.2-59.8-93.5-106.5c92-71.3,164.8-159.5,218.5-264.5
	c53.7-105,80.5-220.8,80.5-347.5c0-91.3-14.3-178.5-43-261.5c-28.7-83-68.5-156-119.5-219s-109.7-117.8-176-164.5s-138.7-82-217-106
	s-157.8-36-238.5-36c-99.3,0-196.5,19.3-291.5,58s-179.5,91.7-253.5,159S737.4-228.2,692.4-128.5S624.9,77.7,624.9,191
	c0,112.7,22.5,218.5,67.5,317.5s104.3,182,178,249s158,119.8,253,158.5s192.5,58,292.5,58c72,0,140.3-9,205-27
	c22,36.7,44,68.7,66,96c22,27.3,48.3,53.3,79,78s65.8,43.3,105.5,56s83.2,19,130.5,19c61.3,0,115.5-10.8,162.5-32.5
	s82.7-47.7,107-78c24.3-30.3,43.7-63.8,58-100.5c14.3-36.7,23.2-68.3,26.5-95c3.3-26.7,4-49,2-67h-117
	C2237.6,855,2224.9,883.5,2202.9,908.5z"/>
</svg>
