<svg xmlns="http://www.w3.org/2000/svg" x="0px" y="0px" viewBox="596 -596 1792 1792" style="enable-background:new 596 -596 1792 1792;">
<path d="M2330,159.5c-38.7-39-85.7-58.5-141-58.5c-56.7,0-104.3,20.3-143,61C1900,61.3,1727,8,1527,2l104-472l334,74
	c0,41.3,14.5,76.5,43.5,105.5S2072.7-247,2114-247c41.3,0,76.7-14.7,106-44c29.3-29.3,44-64.7,44-106s-14.7-76.5-44-105.5
	c-29.3-29-64.7-43.5-106-43.5c-28.7,0-55,7.5-79,22.5s-42,34.8-54,59.5l-369-81c-9.3-2-18-0.3-26,5s-13,12.3-15,21L1455,2
	c-198,6.7-369.7,60.7-515,162c-40-42-88.3-63-145-63c-55.3,0-102.3,19.5-141,58.5s-58,85.8-58,140.5c0,38.7,10.3,74.2,31,106.5
	s48,56.8,82,73.5c-7.3,31.3-11,62.7-11,94c0,103.3,35.5,199,106.5,287s167.7,157.5,290,208.5S1350,1146,1494,1146
	s277.3-25.5,400-76.5S2113.5,949,2184.5,861S2291,677.3,2291,574c0-33.3-4-65.3-12-96c33.3-16.7,59.8-40.8,79.5-72.5
	c19.7-31.7,29.5-66.8,29.5-105.5C2388,245.3,2368.7,198.5,2330,159.5z M1058,394c29.3-29.3,64.3-44,105-44
	c41.3,0,76.7,14.5,106,43.5c29.3,29,44,64.2,44,105.5s-14.7,76.7-44,106c-29.3,29.3-64.7,44-106,44c-41.3,0-76.5-14.7-105.5-44
	c-29-29.3-43.5-64.7-43.5-106C1014,458.3,1028.7,423.3,1058,394z M1705.5,922c-50.3,16.7-91.2,26.5-122.5,29.5
	c-31.3,3-61.7,4.5-91,4.5c-29.3,0-59.7-1.5-91-4.5c-31.3-3-72.2-12.8-122.5-29.5c-50.3-16.7-89.8-39.3-118.5-68
	c-7.3-7.3-11-16.2-11-26.5s3.7-18.8,11-25.5c6.7-6.7,15-10,25-10s18.7,3.3,26,10c27.3,28,67.7,48.7,121,62
	c53.3,13.3,106.7,20,160,20c53.3,0,106.7-6.7,160-20s93.7-34,121-62c7.3-6.7,16-10,26-10s18.3,3.3,25,10c7.3,7.3,11,16,11,26
	s-3.7,18.7-11,26C1795.3,882.7,1755.8,905.3,1705.5,922z M1715,605c-29.3-29.3-44-64.7-44-106s14.7-76.5,44-105.5
	s64.7-43.5,106-43.5c40.7,0,75.7,14.7,105,44s44,64.3,44,105c0,41.3-14.5,76.7-43.5,106c-29,29.3-64.2,44-105.5,44
	S1744.3,634.3,1715,605z"/>
</svg>
