<svg xmlns="http://www.w3.org/2000/svg" x="0px" y="0px" viewBox="596 -596 1792 1792" style="enable-background:new 596 -596 1792 1792;">
<path d="M1650,527c-5.3,0-9.7,2-13,6c-28,28-76.3,42-145,42c-68.7,0-117-14-145-42c-3.3-4-7.7-6-13-6c-5.3,0-9.7,2-13,6
	c-8.7,8.7-8.7,17.3,0,26c35.3,35.3,92.3,53,171,53c78.7,0,135.7-17.7,171-53c8.7-8.7,8.7-17.3,0-26C1659.7,529,1655.3,527,1650,527z
	 M1377.5,322.5c-15-15-33.2-22.5-54.5-22.5c-21.3,0-39.5,7.5-54.5,22.5S1246,355.7,1246,377c0,20.7,7.7,38.7,23,54
	c15.3,15.3,33.3,23,54,23c20.7,0,38.7-7.7,54-23c15.3-15.3,23-33.3,23-54C1400,355.7,1392.5,337.5,1377.5,322.5z M1715.5,322.5
	c-15-15-33.2-22.5-54.5-22.5s-39.5,7.5-54.5,22.5S1584,355.7,1584,377c0,20.7,7.7,38.7,23,54c15.3,15.3,33.3,23,54,23
	c20.7,0,38.7-7.7,54-23c15.3-15.3,23-33.3,23-54C1738,355.7,1730.5,337.5,1715.5,322.5z M1937.5,328.5
	c-10.3,16.3-23.8,28.8-40.5,37.5c4,16,6,32.3,6,49c0,81.3-40,150.8-120,208.5c-80,57.7-176.7,86.5-290,86.5
	c-112.7,0-209-28.8-289-86.5c-80-57.7-120-127.2-120-208.5c0-15.3,1.7-31.3,5-48c-17.3-8.7-31.3-21.3-42-38s-16-35-16-55
	c0-28,10-52,30-72s44.3-30,73-30c29.3,0,54,10.7,74,32c74-51.3,162.3-79,265-83l60-268c2.7-12,9.7-16.3,21-13l189,42
	c14-28.7,37-43,69-43c21.3,0,39.5,7.5,54.5,22.5S1889-105.3,1889-84c0,21.3-7.5,39.5-22.5,54.5S1833.3-7,1812-7
	c-20.7,0-38.5-7.3-53.5-22s-22.8-32.7-23.5-54l-171-39l-54,243c102.7,2.7,191.7,30,267,82c20.7-20.7,45-31,73-31c28.7,0,53,10,73,30
	s30,44,30,72C1953,294,1947.8,312.2,1937.5,328.5z M2175.5-383.5c-56.3-56.3-124.2-84.5-203.5-84.5h-960
	c-79.3,0-147.2,28.2-203.5,84.5S724-259.3,724-180v960c0,79.3,28.2,147.2,84.5,203.5c56.3,56.3,124.2,84.5,203.5,84.5h960
	c79.3,0,147.2-28.2,203.5-84.5c56.3-56.3,84.5-124.2,84.5-203.5v-960C2260-259.3,2231.8-327.2,2175.5-383.5z"/>
</svg>
