<svg xmlns="http://www.w3.org/2000/svg" x="0px" y="0px" viewBox="596 -596 1792 1792" style="enable-background:new 596 -596 1792 1792;">
<path d="M923.1,587.9c-1.3,4.7-7.7,22.3-19,53c-11.3,30.7-18.5,52-21.5,64s-7,30.3-12,55c-5,24.7-6.3,46.3-4,65
	c2.3,18.7,7.2,37,14.5,55c10.7,24.7,26.3,46.5,47,65.5c20.7,19,43,29.5,67,31.5l420,29l2-22l15-368
	C1144.8,605.3,975.1,595.9,923.1,587.9z M612.1,12.9l140,86c-52.7,83.3-90.7,146-114,188l-8,18c-4.7,11.3-6.7,27-6,47
	s6.7,38.7,18,56l190,357l4-21c2-14,8.2-35,18.5-63c10.3-28,23.5-59.5,39.5-94.5s40.2-76.7,72.5-125c32.3-48.3,69.5-96.5,111.5-144.5
	l147,92l-180-379L612.1,12.9z M2220.1,568.9c-38,14.7-94.7,25.7-170,33c-75.3,7.3-169.7,5.7-283-5l-7-173l-211,362l230,367l-8-164
	c98.7-3.3,171.7-7.3,219-12l18-4c12.7-2,27.2-8.8,43.5-20.5c16.3-11.7,28.5-27.2,36.5-46.5l188-359L2220.1,568.9z M1459.1-412.1
	c-16-18-28-31.2-36-39.5s-20-19.8-36-34.5s-29.8-25.7-41.5-33c-11.7-7.3-25.7-14.3-42-21c-16.3-6.7-32.5-10.7-48.5-12
	c-26.7-2.7-53.3,0.7-80,10c-26.7,9.3-46.7,24.3-60,45l-225,356l19,12l317,187c145.3-248,233.7-393,265-435
	C1485.8-382.4,1475.1-394.1,1459.1-412.1z M2127.1-59.1l-313,195c154,242.7,242.3,388,265,436c7.3-2,22.7-6,46-12
	c23.3-6,40.5-10.7,51.5-14c11-3.3,26.7-8.7,47-16c20.3-7.3,36.5-14.7,48.5-22s24.7-16.7,38-28c13.3-11.3,24.3-23.7,33-37
	c14.7-23.3,23.8-48,27.5-74c3.7-26-0.5-51.3-12.5-76l-212-363L2127.1-59.1z M1891.1-486.1l-11-15c-8-10-21-19.5-39-28.5
	s-37.3-12.5-58-10.5l-405-1l17,13c11.3,8.7,27,24.2,47,46.5s41.5,49,64.5,80s48.2,72.2,75.5,123.5c27.3,51.3,52.3,106.7,75,166
	l-151,86l419,20l220-373l-142,83C1954.4-382.1,1917.1-445.4,1891.1-486.1z"/>
</svg>
