<svg xmlns="http://www.w3.org/2000/svg" x="0px" y="0px" viewBox="596 -596 1792 1792" style="enable-background:new 596 -596 1792 1792;">
<path d="M1198.5,774.5c-25,25-55.2,37.5-90.5,37.5s-65.5-12.5-90.5-37.5S980,719.3,980,684c0-35.3,12.5-65.5,37.5-90.5
	s55.2-37.5,90.5-37.5s65.5,12.5,90.5,37.5s37.5,55.2,37.5,90.5C1236,719.3,1223.5,749.5,1198.5,774.5z M1578,802
	c-6.7,6.7-14.3,10-23,10h-128c-8.7,0-16-2.8-22-8.5s-9.3-12.8-10-21.5c-7.3-102.7-47.7-190.7-121-264
	c-73.3-73.3-161.3-113.7-264-121c-8.7-0.7-15.8-4-21.5-10c-5.7-6-8.5-13.3-8.5-22V237c0-8.7,3.3-16.3,10-23c6.7-6.7,14.7-9.7,24-9
	c154.7,8.7,286.7,67.7,396,177s168.3,241.3,177,396C1587.7,787.3,1584.7,795.3,1578,802z M1962,802c-6.7,6.7-14.3,10-23,10h-128
	c-8.7,0-16-3-22-9s-9.3-13.3-10-22c-4.7-136-41.8-262-111.5-378S1505,194.2,1389,124.5S1147,17.7,1011,13c-8.7-0.7-16-4-22-10
	s-9-13.3-9-22v-128c0-8.7,3.3-16.3,10-23c6-6.7,13.7-9.7,23-9c102.7,3.3,201.8,22,297.5,56c95.7,34,182.3,80.5,260,139.5
	c77.7,59,146,127.3,205,205s105.5,164.3,139.5,260s52.7,194.8,56,297.5C1972.3,788.3,1969.3,796,1962,802z M2175.5-383.5
	c-56.3-56.3-124.2-84.5-203.5-84.5h-960c-79.3,0-147.2,28.2-203.5,84.5S724-259.3,724-180v960c0,79.3,28.2,147.2,84.5,203.5
	c56.3,56.3,124.2,84.5,203.5,84.5h960c79.3,0,147.2-28.2,203.5-84.5c56.3-56.3,84.5-124.2,84.5-203.5v-960
	C2260-259.3,2231.8-327.2,2175.5-383.5z"/>
</svg>
