<svg xmlns="http://www.w3.org/2000/svg" x="0px" y="0px" viewBox="596 -596 1792 1792" style="enable-background:new 596 -596 1792 1792;">
<path d="M852-276H628c-9.3,0-17,3-23,9s-9,13.7-9,23v192c0,9.3,3,17,9,23s13.7,9,23,9h224c29.3,0,56.5,4.8,81.5,14.5s46,21.3,63,35
	s34,32.5,51,56.5s30.5,45.2,40.5,63.5s22.3,42.5,37,72.5c51.3-120.7,97-211.7,137-273C1155.3-201,1018.7-276,852-276z M2379,725
	l-319-319c-8-6.7-16-10-24-10c-9.3,0-17,3-23,9s-9,13.7-9,23v192h-256c-29.3,0-56.5-4.8-81.5-14.5c-25-9.7-46-21.3-63-35
	c-17-13.7-34-32.5-51-56.5s-30.5-45.2-40.5-63.5s-22.3-42.5-37-72.5c-51.3,120-96.7,211-136,273c18,26,36.7,49.2,56,69.5
	c19.3,20.3,37.7,38.2,55,53.5c17.3,15.3,37,28.7,59,40s41.3,20.8,58,28.5c16.7,7.7,37.7,13.8,63,18.5s46.7,8.2,64,10.5s41,4,71,5
	s54.3,1.3,73,1s45.7-0.7,81-1s63.7-0.5,85-0.5v192c0,8.7,3.2,16.2,9.5,22.5s13.8,9.5,22.5,9.5c9.3,0,17-3,23-9l320-320
	c6-6,9-13.7,9-23S2385,731,2379,725z M2379-171l-319-319c-8-6.7-16-10-24-10c-9.3,0-17,3-23,9s-9,13.7-9,23v192h-256
	c-45.3,0-88,5.5-128,16.5s-75.5,25-106.5,42s-61,39.8-90,68.5s-53.7,56.3-74,83c-20.3,26.7-41.7,60-64,100c-22.3,40-40.3,75-54,105
	c-13.7,30-30.2,67-49.5,111c-30.7,72.7-56.7,129.7-78,171c-16,30.7-31,56.5-45,77.5s-31,41.5-51,61.5s-43,35-69,45s-55,15-87,15H628
	c-9.3,0-17,3-23,9s-9,13.7-9,23v192c0,9.3,3,17,9,23s13.7,9,23,9h224c45.3,0,88-5.5,128-16.5s75.5-25,106.5-42s61-39.8,90-68.5
	s53.7-56.3,74-83c20.3-26.7,41.7-60,64-100c22.3-40,40.3-75,54-105c13.7-30,30.2-67,49.5-111c30.7-72.7,56.7-129.7,78-171
	c16-30.7,31-56.5,45-77.5s31-41.5,51-61.5s43-35,69-45s55-15,87-15h256v192c0,8.7,3.2,16.2,9.5,22.5s13.8,9.5,22.5,9.5
	c9.3,0,17-3,23-9l320-320c6-6,9-13.7,9-23S2385-165,2379-171z"/>
</svg>
