<svg xmlns="http://www.w3.org/2000/svg" x="0px" y="0px" viewBox="596 -596 1792 1792" style="enable-background:new 596 -596 1792 1792;">
<path d="M2225.5,437.5c-6.3-6.3-13.8-9.5-22.5-9.5h-192c-14.7,0-24.7,7.7-30,23c-28,66.7-45.7,105.7-53,117
	c-46.7,76-108.7,135.7-186,179s-160.7,65-250,65c-64.7,0-127-12-187-36s-113.7-58-161-102l137-137c12.7-12.7,19-27.7,19-45
	s-6.3-32.3-19-45c-12.7-12.7-27.7-19-45-19H788c-17.3,0-32.3,6.3-45,19s-19,27.7-19,45v448c0,17.3,6.3,32.3,19,45s27.7,19,45,19
	s32.3-6.3,45-19l129-129c71.3,68,152.5,120.3,243.5,157c91,36.7,185.2,55,282.5,55c182.7,0,342-55.5,478-166.5
	s225.3-255.8,268-434.5c0.7-1.3,1-3.7,1-7C2235,451.3,2231.8,443.8,2225.5,437.5z M2241-385c-12.7-12.7-27.7-19-45-19
	c-17.3,0-32.3,6.3-45,19l-130,129c-71.3-67.3-153-119.5-245-156.5S1589.3-468,1492-468c-183.3,0-343.3,55.5-480,166.5
	S785.3-45.7,742,133v7c0,8.7,3.2,16.2,9.5,22.5s13.8,9.5,22.5,9.5h199c14.7,0,24.7-7.7,30-23c28-66.7,45.7-105.7,53-117
	c46.7-76,108.7-135.7,186-179s160.7-65,250-65c134,0,250.3,45.7,349,137L1703,63c-12.7,12.7-19,27.7-19,45s6.3,32.3,19,45
	c12.7,12.7,27.7,19,45,19h448c17.3,0,32.3-6.3,45-19c12.7-12.7,19-27.7,19-45v-448C2260-357.3,2253.7-372.3,2241-385z"/>
</svg>
