<svg xmlns="http://www.w3.org/2000/svg" x="0px" y="0px" viewBox="596 -596 1792 1792" style="enable-background:new 596 -596 1792 1792;">
<path d="M1156.1,953.7c-112.7-99.3-191-220-235-362c105.3,22.7,163.7,35,175,37c20.7,58,50.5,115.5,89.5,172.5s76.3,103.7,112,140
	c35.7,36.3,74.5,71.2,116.5,104.5c42,33.3,70.7,55,86,65s27.3,17.7,36,23c3.3,2,7,3.3,11,4C1399.1,1114.4,1268.7,1053,1156.1,953.7z
	 M889.1,417.7c24.7-94.7,65-169.3,121-224l4,53c2,36,8.3,84.5,19,145.5c10.7,61,24.3,116.8,41,167.5l-168-28
	C898.1,499,892.4,461,889.1,417.7z M1013.1,2.7c-20,14.7-44.7,37.3-74,68c22.7-56,48.3-105.3,77-148L1013.1,2.7z M2334.1,774.7
	c-79.3,126.7-184,223-314,289c-80,25.3-167.7,30.3-263,15l-39-12c-26-7.3-59.8-21.8-101.5-43.5s-85.2-48-130.5-79s-91-73.3-137-127
	s-82.7-112.5-110-176.5c121.3,2.7,227-2.7,317-16c172.7-24.7,328.3-69.3,467-134c35.3-16,48.3-56.3,39-121
	c-2.7-16.7-8.3-28.2-17-34.5c-8.7-6.3-18.8-8-30.5-5s-24.8,9.8-39.5,20.5l-37,24c-24.7,16.7-61.2,36.3-109.5,59
	c-48.3,22.7-102.5,45-162.5,67s-131.5,39.8-214.5,53.5c-83,13.7-165.5,18.5-247.5,14.5c-22.7-38.7-43.3-98.5-62-179.5
	c-18.7-81-30.5-140.3-35.5-178s-8.8-68.5-11.5-92.5c46.7-40,90.3-72.8,131-98.5c40.7-25.7,88.2-49.5,142.5-71.5
	c54.3-22,115.3-36.5,183-43.5s143.5-6.8,227.5,0.5c2-6.7,2.3-16.2,1-28.5s-3.5-24.7-6.5-37s-11.2-23.3-24.5-33s-31-14.8-53-15.5
	l-40-3c-27.3-2.7-63.5-3-108.5-1s-92.7,6.5-143,13.5c-50.3,7-103.2,21.3-158.5,43c-55.3,21.7-103,49.5-143,83.5
	c10-68,25-121.3,45-160c70.7-64,150.7-113.5,240-148.5c89.3-35,183-52.5,281-52.5c106,0,207.3,20.8,304,62.5
	c96.7,41.7,180.2,97.8,250.5,168.5c70.3,70.7,126.2,154.7,167.5,252c41.3,97.3,62,199.7,62,307
	C2453.1,508.7,2413.4,648,2334.1,774.7z M2440.1-154.3c-75.3-147.3-186.3-259.3-333-336c-100-52-202.2-84.3-306.5-97s-205-9-302,11
	s-198.2,54.7-303.5,104c-21.3,10-37.7,20.7-49,32c-11.3,11.3-22,26.3-32,45c-35.3,66-62.3,137.3-81,214
	c-90,108.7-148.7,230.3-176,365c-55.3,94-86.7,190.7-94,290l-2,32c-42.7-5.3-91.2-18-145.5-38c-54.3-20-92-35.2-113-45.5
	c-21-10.3-37.8-18.8-50.5-25.5c5.3,8,13.7,16.5,25,25.5c11.3,9,25.5,18,42.5,27s33.7,17.5,50,25.5s35.5,16.3,57.5,25
	s39.7,15.5,53,20.5c13.3,5,29.5,11,48.5,18s30.2,11.2,33.5,12.5l2,42c2,28,7.8,63.8,17.5,107.5c9.7,43.7,22.8,89.3,39.5,137
	c16.7,47.7,42.8,94.3,78.5,140c35.7,45.7,77.2,81.2,124.5,106.5c-30.7-46.7-48.7-74-54-82l-14-26c-8.7-17.3-19.2-41.2-31.5-71.5
	s-24.3-63-36-98c-11.7-35-20.3-73.3-26-115c-5.7-41.7-6.5-79.2-2.5-112.5c1.3,0,3,0.2,5,0.5c2,0.3,3.3,0.5,4,0.5
	c49.3,179.3,147.8,326.7,295.5,442s315.8,173,504.5,173c24.7,0,49-1,73-3c60.7,6.7,115,1.3,163-16c22.7-7.3,50-22,82-44
	c138-76.7,244.2-161.2,318.5-253.5c74.3-92.3,134.8-207.8,181.5-346.5c17.3-51.3,30.7-122,40-212C2544.4,151,2515.4-7,2440.1-154.3z
	"/>
</svg>
