<svg xmlns="http://www.w3.org/2000/svg" x="0px" y="0px" viewBox="596 -596 1792 1792" style="enable-background:new 596 -596 1792 1792;">
<path d="M1635,420c-6,5.3-13,8-21,8h-244c-8,0-15-2.7-21-8s-8.7-12-8-20v-4l24-320c0.7-8.7,4.3-16.2,11-22.5
	c6.7-6.3,14.3-9.5,23-9.5h186c8.7,0,16.3,3.2,23,9.5s10.3,13.8,11,22.5l24,320v4C1643.7,408,1641,414.7,1635,420z M2376,751
	L1959-293c-5.3-12.7-14-23.7-26-33s-24.7-14-38-14h-339c8.7,0,16.3,3.2,23,9.5s10.3,13.8,11,22.5l15,192c0.7,9.3-2,17-8,23
	s-13.3,9-22,9h-166c-8.7,0-16-3-22-9s-8.7-13.7-8-23l15-192c0.7-8.7,4.3-16.2,11-22.5c6.7-6.3,14.3-9.5,23-9.5h-339
	c-13.3,0-26,4.7-38,14s-20.7,20.3-26,33L608,751c-17.3,41.3-26,80-26,116c0,48.7,15.3,73,46,73h704c-8.7,0-16-3.2-22-9.5
	s-8.7-13.8-8-22.5l20-256c0.7-8.7,4.3-16.2,11-22.5c6.7-6.3,14.3-9.5,23-9.5h272c8.7,0,16.3,3.2,23,9.5c6.7,6.3,10.3,13.8,11,22.5
	l20,256c0.7,8.7-2,16.2-8,22.5s-13.3,9.5-22,9.5h704c30.7,0,46-24.3,46-73C2402,831,2393.3,792.3,2376,751z"/>
</svg>
