<svg xmlns="http://www.w3.org/2000/svg" x="0px" y="0px" viewBox="596 -596 1792 1792" style="enable-background:new 596 -596 1792 1792;">
<path d="M2199,2c-40.7-94.7-95.3-176.3-164-245c-68.7-68.7-150.3-123.3-245-164s-194-61-298-61c-98,0-192.8,18.5-284.5,55.5
	c-91.7,37-173.2,89.2-244.5,156.5L833-385c-20-20.7-43-25.3-69-14c-26.7,11.3-40,31-40,59v448c0,17.3,6.3,32.3,19,45s27.7,19,45,19
	h448c28,0,47.7-13.3,59-40c11.3-26,6.7-49-14-69L1144-75c46.7-44,100-77.8,160-101.5s122.7-35.5,188-35.5
	c69.3,0,135.5,13.5,198.5,40.5S1808-108,1854-62s82.5,100.5,109.5,163.5S2004,230.7,2004,300s-13.5,135.5-40.5,198.5
	S1900,616,1854,662s-100.5,82.5-163.5,109.5S1561.3,812,1492,812c-79.3,0-154.3-17.3-225-52s-130.3-83.7-179-147
	c-4.7-6.7-12.3-10.7-23-12c-10,0-18.3,3-25,9L903,748c-5.3,5.3-8.2,12.2-8.5,20.5s1.8,15.8,6.5,22.5c72.7,88,160.7,156.2,264,204.5
	c103.3,48.3,212.3,72.5,327,72.5c104,0,203.3-20.3,298-61c94.7-40.7,176.3-95.3,245-164c68.7-68.7,123.3-150.3,164-245
	c40.7-94.7,61-194,61-298S2239.7,96.7,2199,2z"/>
</svg>
