<svg xmlns="http://www.w3.org/2000/svg" x="0px" y="0px" viewBox="596 -596 1792 1792" style="enable-background:new 596 -596 1792 1792;">
<path d="M1805,823l-160-192c-6-7.3-14.3-11-25-11h-576V236h192c17.3,0,32.3-6.3,45-19c12.7-12.7,19-27.7,19-45c0-16-5-29.7-15-41
	L965-253c-12.7-14.7-29-22-49-22s-36.3,7.3-49,22L547,131c-10,11.3-15,25-15,41c0,17.3,6.3,32.3,19,45s27.7,19,45,19h192v416v160v11
	v13c0,2,0.3,5.8,1,11.5c0.7,5.7,1.7,9.5,3,11.5c1.3,2,3.2,4.7,5.5,8c2.3,3.3,5.3,5.7,9,7c3.7,1.3,8.2,2,13.5,2h960
	c8.7,0,16.2-3.2,22.5-9.5s9.5-13.8,9.5-22.5C1812,837.3,1809.7,830.3,1805,823z M2433,383c-12.7-12.7-27.7-19-45-19h-192V-52v-160
	v-11v-13c0-2-0.3-5.8-1-11.5c-0.7-5.7-1.7-9.5-3-11.5c-1.3-2-3.2-4.7-5.5-8c-2.3-3.3-5.3-5.7-9-7c-3.7-1.3-8.2-2-13.5-2h-960
	c-8.7,0-16.2,3.2-22.5,9.5c-6.3,6.3-9.5,13.8-9.5,22.5c0,7.3,2.3,14,7,20l160,192c6,8,14.3,12,25,12h576v384h-192
	c-17.3,0-32.3,6.3-45,19s-19,27.7-19,45c0,16,5,29.7,15,41l320,384c13.3,15.3,29.7,23,49,23c19.3,0,35.7-7.7,49-23l320-384
	c10-11.3,15-25,15-41C2452,410.7,2445.7,395.7,2433,383z"/>
</svg>
