<svg xmlns="http://www.w3.org/2000/svg" x="0px" y="0px" viewBox="596 -596 1792 1792" style="enable-background:new 596 -596 1792 1792;">
<path d="M1115.9,676c-37.3-37.3-82.7-56-136-56c-53.3,0-98.7,18.7-136,56c-37.3,37.3-56,82.7-56,136s18.7,98.7,56,136
	c37.3,37.3,82.7,56,136,56c53.3,0,98.7-18.7,136-56s56-82.7,56-136S1153.2,713.3,1115.9,676z M1603.4,629
	c-45-97.3-105.5-183.7-181.5-259c-75.3-76-161.7-136.5-259-181.5s-199.3-71.8-306-80.5h-5c-17.3,0-31.7,5.7-43,17
	c-14,12-21,27.7-21,47v135c0,16.7,5.5,31,16.5,43s24.8,18.7,41.5,20c152.7,14.7,283.2,76.2,391.5,184.5s169.8,238.8,184.5,391.5
	c1.3,16.7,8,30.5,20,41.5s26.3,16.5,43,16.5h135c19.3,0,35-7,47-21c12.7-13.3,18.3-29.3,17-48C1675.2,828.3,1648.4,726.3,1603.4,629
	z M2075.9,435.5c-71.3-159.7-169.3-301.5-294-425.5c-124-124.7-265.8-222.7-425.5-294s-326.8-111.3-501.5-120h-3c-17.3,0-32,6-44,18
	c-13.3,12-20,27.3-20,46v143c0,16.7,5.8,31.2,17.5,43.5c11.7,12.3,25.8,18.8,42.5,19.5c143.3,8.7,279.5,42.7,408.5,102
	c129,59.3,241,136.5,336,231.5s172.2,207,231.5,336c59.3,129,93,265.2,101,408.5c0.7,16.7,7.2,30.8,19.5,42.5s27.2,17.5,44.5,17.5
	h143c18.7,0,34-6.7,46-20c13.3-13.3,19.3-29,18-47C2187.2,762.3,2147.2,595.2,2075.9,435.5z"/>
</svg>
