<svg xmlns="http://www.w3.org/2000/svg" x="0px" y="0px" viewBox="596 -596 1792 1792" style="enable-background:new 596 -596 1792 1792;">
<path d="M2335,223c-108-268.7-399.7-403-875-403h-224v-256c0-17.3-6.3-32.3-19-45c-12.7-12.7-27.7-19-45-19c-17.3,0-32.3,6.3-45,19
	L615,31c-12.7,12.7-19,27.7-19,45s6.3,32.3,19,45l512,512c12.7,12.7,27.7,19,45,19c17.3,0,32.3-6.3,45-19c12.7-12.7,19-27.7,19-45
	V332h224c65.3,0,123.8,2,175.5,6c51.7,4,103,11.2,154,21.5s95.3,24.5,133,42.5s72.8,41.2,105.5,69.5c32.7,28.3,59.3,62,80,101
	c20.7,39,36.8,85.2,48.5,138.5c11.7,53.3,17.5,113.7,17.5,181c0,36.7-1.7,77.7-5,123c0,4-0.8,11.8-2.5,23.5
	c-1.7,11.7-2.5,20.5-2.5,26.5c0,10,2.8,18.3,8.5,25c5.7,6.7,13.5,10,23.5,10c10.7,0,20-5.7,28-17c4.7-6,9-13.3,13-22
	s8.5-18.7,13.5-30c5-11.3,8.5-19.3,10.5-24c84.7-190,127-340.3,127-451C2388,423.3,2370.3,312.3,2335,223z"/>
</svg>
