<svg xmlns="http://www.w3.org/2000/svg" x="0px" y="0px" viewBox="596 -596 1792 1792" style="enable-background:new 596 -596 1792 1792;">
<path d="M1830,195c-43.3,41.3-100.3,62-171,62h-320v-448h320c70.7,0,127.7,20.7,171,62c43.3,41.3,65,95.3,65,162
	S1873.3,153.7,1830,195z M2005.5-282c-84.3-81.3-193.2-122-326.5-122h-539c-9.3,0-17,3-23,9s-9,13.7-9,23v629H884
	c-9.3,0-17,3.2-23,9.5s-9,13.8-9,22.5v149c0,9.3,3,17,9,23s13.7,9,23,9h224v118H884c-9.3,0-17,3-23,9s-9,13.7-9,23v128
	c0,9.3,3,17,9,23s13.7,9,23,9h224v192c0,9.3,3,17,9,23s13.7,9,23,9h167c8.7,0,16.2-3,22.5-9s9.5-13.7,9.5-23V780h505
	c9.3,0,17-3,23-9s9-13.7,9-23V620c0-9.3-3-17-9-23s-13.7-9-23-9h-505V470h340c133.3,0,242.2-40.7,326.5-122
	c84.3-81.3,126.5-186.3,126.5-315S2089.8-200.7,2005.5-282z"/>
</svg>
