<svg xmlns="http://www.w3.org/2000/svg" x="0px" y="0px" viewBox="596 -596 1792 1792" style="enable-background:new 596 -596 1792 1792;">
<path d="M675.2,631c44.3,112.7,105.7,210.3,184,293s172.8,148.7,283.5,198c110.7,49.3,227.7,74,351,74c170,0,322-38.3,456-115
	s238-183.7,312-321s110-292.3,108-465c-0.7-47.3-4.2-92.7-10.5-136c-6.3-43.3-14.2-82.3-23.5-117c-9.3-34.7-22-69-38-103
	s-31.2-63.3-45.5-88c-14.3-24.7-32.8-50.3-55.5-77c-22.7-26.7-42.2-48.3-58.5-65c-16.3-16.7-37.7-36-64-58c-26.3-22-47-38.7-62-50
	s-35.8-26.7-62.5-46l-10-3c-4.7,0-2.3,4.3,7,13l13,17c9.3,11.3,20.8,27.2,34.5,47.5s28.7,44.3,45,72s31.5,58.7,45.5,93
	s26.3,70.2,37,107.5c10.7,37.3,16.7,76.7,18,118c1.3,41.3-2,81.8-10,121.5s-24.2,80.2-48.5,121.5c-24.3,41.3-56.5,79.7-96.5,115
	l-21,16c-14.7,11.3-33.8,22.5-57.5,33.5s-49,19.8-76,26.5s-55.3,4.8-85-5.5s-55.5-30.5-77.5-60.5c-31.3-42.7-50.3-94.8-57-156.5
	c-6.7-61.7-4.3-118.3,7-170s27.3-96.2,48-133.5l19-29c12.7-19.3,32.7-41,60-65s55.7-40.7,85-50l-103-115l-28,17
	c-18.7,11.3-41.2,28.8-67.5,52.5s-46.8,47.8-61.5,72.5l4-33c2-22.7,9.5-52.8,22.5-90.5s30.5-71.8,52.5-102.5l-160-181l-161,183
	l20,31c14,21.3,27.5,50.5,40.5,87.5s19.2,71.5,18.5,103.5l-19-27c-13.3-17.3-33-37.7-59-61s-52-40.7-78-52l-104,115l13,6
	c9.3,4,21,10.3,35,19s28.5,18.5,43.5,29.5s29.3,24.7,43,41c13.7,16.3,23.8,32.8,30.5,49.5l14,29c8.7,20,17.5,46.7,26.5,80
	s16,69,21,107s2.8,78.8-6.5,122.5c-9.3,43.7-27,82.5-53,116.5l-16,16c-10.7,11.3-26.3,22.2-47,32.5c-20.7,10.3-43.8,18.2-69.5,23.5
	c-25.7,5.3-55.8,1.5-90.5-11.5c-34.7-13-68.7-36.2-102-69.5c-48-47.3-84.2-98.7-108.5-154c-24.3-55.3-37.3-107.8-39-157.5
	s3-99.8,14-150.5c11-50.7,25.8-95.8,44.5-135.5c18.7-39.7,38.7-76.5,60-110.5c21.3-34,38.7-59.5,52-76.5s22.7-28.2,28-33.5
	c0.7-1.3,1-2.3,1-3h-5c-131.3,86-233,192-305,318S620,133.3,614.7,278C610.7,400.7,630.9,518.3,675.2,631z"/>
</svg>
