<svg xmlns="http://www.w3.org/2000/svg" x="0px" y="0px" viewBox="596 -596 1792 1792" style="enable-background:new 596 -596 1792 1792;">
<path d="M1691,571c10.7,10.7,10.7,21,0,31c-41.3,41.3-107.7,62-199,62s-157.7-20.7-199-62c-10.7-10-10.7-20.3,0-31c4-4,9-6,15-6
	s11,2,15,6c32,32.7,88.3,49,169,49c80,0,136.3-16.3,169-49c4-4,9-6,15-6S1687,567,1691,571z M1384,390c0,24.7-8.7,45.7-26,63
	s-38.3,26-63,26s-45.8-8.7-63.5-26s-26.5-38.3-26.5-63c0-25.3,8.8-46.7,26.5-64s38.8-26,63.5-26s45.7,8.8,63,26.5
	S1384,365.3,1384,390z M1779,390c0,24.7-8.8,45.7-26.5,63s-38.8,26-63.5,26s-45.7-8.7-63-26c-17.3-17.3-26-38.3-26-63
	s8.7-45.8,26-63.5c17.3-17.7,38.3-26.5,63-26.5s45.8,8.7,63.5,26S1779,364.7,1779,390z M2030,270c0-32.7-11.7-60.7-35-84
	s-51.7-35-85-35s-62,12-86,36c-86.7-60-190.3-92-311-96l63-283l200,45c0,24.7,8.7,45.7,26,63c17.3,17.3,38.3,26,63,26
	s45.8-8.8,63.5-26.5c17.7-17.7,26.5-38.8,26.5-63.5s-8.8-45.8-26.5-63.5S1889.7-238,1865-238c-36,0-62.7,16.7-80,50l-221-49
	c-12.7-3.3-21,2-25,16l-69,312c-120,4.7-223,37-309,97c-23.3-24.7-52.3-37-87-37c-33.3,0-61.7,11.7-85,35s-35,51.3-35,84
	c0,23.3,6.2,44.7,18.5,64s28.8,34,49.5,44c-4,18-6,36.7-6,56c0,94.7,46.7,175.7,140,243c93.3,67.3,205.7,101,337,101
	c132,0,244.7-33.7,338-101s140-148.3,140-243c0-21.3-2.3-40.3-7-57c20-10,36-24.5,48-43.5S2030,293.3,2030,270z M2388,300
	c0,121.3-23.7,237.3-71,348s-111,206-191,286s-175.3,143.7-286,191s-226.7,71-348,71s-237.3-23.7-348-71
	c-110.7-47.3-206-111-286-191S714.3,758.7,667,648s-71-226.7-71-348s23.7-237.3,71-348s111-206,191-286s175.3-143.7,286-191
	c110.7-47.3,226.7-71,348-71s237.3,23.7,348,71s206,111,286,191s143.7,175.3,191,286S2388,178.7,2388,300z"/>
</svg>
