<svg xmlns="http://www.w3.org/2000/svg" x="0px" y="0px" viewBox="596 -596 1792 1792" style="enable-background:new 596 -596 1792 1792;">
<path d="M2056.5-128c-18.7,18.7-41.3,28-68,28s-49.3-9.3-68-28c-18.7-18.7-28-41.3-28-68s9.3-49.3,28-68s41.3-28,68-28
	s49.3,9.3,68,28c18.7,18.7,28,41.3,28,68S2075.1-146.7,2056.5-128z M2298.5-506.5c-6.7-6.3-14.7-9.5-24-9.5
	c-174,0-317.7,23.7-431,71s-232.7,133.3-358,258c-53.3,54-112,119-176,195l-379,20c-10.7,1.3-19.3,6.7-26,16l-224,384
	c-8,13.3-6.3,26.3,5,39l64,64c6,6,13.7,9,23,9c4,0,7-0.3,9-1l276-85l281,281l-85,276c-3.3,12-0.7,22.7,8,32l64,64c7.3,6,15,9,23,9
	c6,0,11.3-1.3,16-4l384-224c9.3-6.7,14.7-15.3,16-26l20-379c76-64,141-122.7,195-176C2098.1,187.7,2182.6,67.5,2233-53.5
	c50.3-121,75.5-264.5,75.5-430.5C2308.5-492.7,2305.1-500.2,2298.5-506.5z"/>
</svg>
