<svg xmlns="http://www.w3.org/2000/svg" x="0px" y="0px" viewBox="596 -596 1792 1792" style="enable-background:new 596 -596 1792 1792;">
<path d="M1621.5,756c-65-82.7-109.2-172-132.5-268c-22.7,96-66.5,185.3-131.5,268S1214,909,1122,967c114,62.7,236.3,94,367,94
	c131.3,0,254-31.3,368-94C1765,909,1686.5,838.7,1621.5,756z M1037-324c-97.3,71.3-173.8,161.2-229.5,269.5S724,170.3,724,295
	c0,186.7,60.3,351.7,181,495c136-66,246.2-168.2,330.5-306.5C1319.8,345.2,1362,192,1362,24v-485C1242.7-441,1134.3-395.3,1037-324z
	 M2176.5-54.5C2120.8-162.8,2044.3-252.7,1947-324s-205.7-117-325-137V24c0,168,42.2,321.2,126.5,459.5S1943,724,2079,790
	c120.7-143.3,181-308.3,181-495C2260,170.3,2232.2,53.8,2176.5-54.5z"/>
</svg>
