<svg xmlns="http://www.w3.org/2000/svg" x="0px" y="0px" viewBox="596 -596 1792 1792" style="enable-background:new 596 -596 1792 1792;">
<path d="M1602,212c-24,24.7-58,37-102,37h-162V-32h123c56,0,95,6,117,18c40,22,60,62.3,60,121C1638,152.3,1626,187.3,1602,212z
	 M1681,376c48.7-24,87.2-60.5,115.5-109.5S1839,162.3,1839,101c0-68-16.3-128-49-180s-77.3-88.3-134-109c-41.3-16-104.7-24-190-24
	h-294c-9.3,0-17,3-23,9s-9,13.7-9,23v960c0,9.3,3,17,9,23s13.7,9,23,9h134c9.3,0,17-3,23-9s9-13.7,9-23V430h155l194,365
	c5.3,11.3,14.7,17,28,17h152c12.7,0,21.7-5.3,27-16c6-9.3,6.3-19.7,1-31l-205-373C1688,388,1685,382.7,1681,376z M1778-377.5
	c90.7,39,168.8,91.3,234.5,157c65.7,65.7,118,143.8,157,234.5s58.5,186,58.5,286s-19.5,195.3-58.5,286s-91.3,168.8-157,234.5
	c-65.7,65.7-143.8,118-234.5,157s-186,58.5-286,58.5s-195.3-19.5-286-58.5c-90.7-39-168.8-91.3-234.5-157s-118-143.8-157-234.5
	S756,400,756,300s19.5-195.3,58.5-286s91.3-168.8,157-234.5s143.8-118,234.5-157c90.7-39,186-58.5,286-58.5S1687.3-416.5,1778-377.5
	z M2317-48c-47.3-110.7-111-206-191-286s-175.3-143.7-286-191s-226.7-71-348-71c-121.3,0-237.3,23.7-348,71
	c-110.7,47.3-206,111-286,191S714.3-158.7,667-48s-71,226.7-71,348s23.7,237.3,71,348s111,206,191,286s175.3,143.7,286,191
	s226.7,71,348,71c121.3,0,237.3-23.7,348-71s206-111,286-191s143.7-175.3,191-286c47.3-110.7,71-226.7,71-348S2364.3,62.7,2317-48z"
	/>
</svg>
