<svg xmlns="http://www.w3.org/2000/svg" x="0px" y="0px" viewBox="596 -596 1792 1792" style="enable-background:new 596 -596 1792 1792;">
<path d="M2221-399c-27.3-11.3-50.7-6.7-70,14l-130,129c-71.3-67.3-152.8-119.5-244.5-156.5S1590-468,1492-468
	c-104,0-203.3,20.3-298,61c-94.7,40.7-176.3,95.3-245,164S825.7-92.7,785,2s-61,194-61,298s20.3,203.3,61,298s95.3,176.3,164,245
	s150.3,123.3,245,164c94.7,40.7,194,61,298,61c114.7,0,223.7-24.2,327-72.5c103.3-48.3,191.3-116.5,264-204.5
	c5.3-6.7,7.8-14.2,7.5-22.5c-0.3-8.3-3.5-15.2-9.5-20.5l-137-138c-7.3-6-15.7-9-25-9c-10.7,1.3-18.3,5.3-23,12
	c-48.7,63.3-108.3,112.3-179,147c-70.7,34.7-145.7,52-225,52c-69.3,0-135.5-13.5-198.5-40.5S1176,708,1130,662
	s-82.5-100.5-109.5-163.5S980,369.3,980,300s13.5-135.5,40.5-198.5S1084-16,1130-62s100.5-82.5,163.5-109.5S1422.7-212,1492-212
	c134,0,250.3,45.7,349,137L1703,63c-20.7,20-25.3,43-14,69c11.3,26.7,31,40,59,40h448c17.3,0,32.3-6.3,45-19
	c12.7-12.7,19-27.7,19-45v-448C2260-368,2247-387.7,2221-399z"/>
</svg>
