<svg xmlns="http://www.w3.org/2000/svg" x="0px" y="0px" viewBox="596 -596 1792 1792" style="enable-background:new 596 -596 1792 1792;">
<path d="M1866,621c-0.7,2-2.3,10.2-5,24.5c-2.7,14.3-6.5,24.7-11.5,31c-5,6.3-12.5,9.5-22.5,9.5c-8.7,0-21.7-1.5-39-4.5
	s-30.3-4.5-39-4.5c-23.3,0-45.8,5-67.5,15c-21.7,10-39.7,20.8-54,32.5c-14.3,11.7-33.5,22.5-57.5,32.5s-50.3,15-79,15
	c-27.3,0-52.8-5-76.5-15c-23.7-10-42.8-20.8-57.5-32.5c-14.7-11.7-32.8-22.5-54.5-32.5c-21.7-10-44.2-15-67.5-15
	c-8.7,0-21.5,1.7-38.5,5c-17,3.3-29.8,5-38.5,5c-10.7,0-18.3-3.2-23-9.5c-4.7-6.3-8.3-16.5-11-30.5s-4.7-22.7-6-26
	c-92-14.7-138-37.7-138-69c0-14.7,7.3-23.7,22-27c89.3-19.3,155.3-75,198-167c4.7-9.3,7-17.7,7-25c0-10-6.5-18.7-19.5-26
	s-27.2-13-42.5-17s-29.5-10.8-42.5-20.5S1083,248,1083,234c0-13.3,5.8-24.2,17.5-32.5s24.2-12.5,37.5-12.5c6.7,0,16.8,2.7,30.5,8
	s24.2,8,31.5,8c3.3,0,8.3-0.7,15-2c-4-50.7-6-88.7-6-114c0-51.3,6-89.7,18-115c51.3-110,143-165,275-165
	c57.3,0,108.2,14.5,152.5,43.5C1698.8-118.5,1733-78,1757-26c11.3,24,17,62,17,114c0,34.7-1.7,73-5,115c5.3,1.3,9.3,2,12,2
	c8,0,18.7-2.7,32-8s23.7-8,31-8c13.3,0,26.2,4.2,38.5,12.5s18.5,18.8,18.5,31.5c0,14.7-6.5,26.8-19.5,36.5S1854.3,286,1839,290
	s-29.5,9.7-42.5,17s-19.5,16-19.5,26c0,7.3,2.3,15.7,7,25c19.3,43.3,46,79.7,80,109s73.3,48.7,118,58c14.7,3.3,22,12.3,22,27
	C2004,583.3,1958,606.3,1866,621z M2175.5-383.5c-56.3-56.3-124.2-84.5-203.5-84.5h-960c-79.3,0-147.2,28.2-203.5,84.5
	S724-259.3,724-180v960c0,79.3,28.2,147.2,84.5,203.5c56.3,56.3,124.2,84.5,203.5,84.5h960c79.3,0,147.2-28.2,203.5-84.5
	c56.3-56.3,84.5-124.2,84.5-203.5v-960C2260-259.3,2231.8-327.2,2175.5-383.5z"/>
</svg>
