<svg xmlns="http://www.w3.org/2000/svg" x="0px" y="0px" viewBox="596 -596 1792 1792" style="enable-background:new 596 -596 1792 1792;">
<path d="M1236-340h512v128h-512V-340z M820-212c-61.3,0-114,22-158,66s-66,96.7-66,158v832c0,61.3,22,114,66,158s96.7,66,158,66h64
	V-212H820z M1876-212v-160c0-26.7-9.3-49.3-28-68s-41.3-28-68-28h-576c-26.7,0-49.3,9.3-68,28c-18.7,18.7-28,41.3-28,68v160H980
	v1280h1024V-212H1876z M2322-146c-44-44-96.7-66-158-66h-64v1280h64c61.3,0,114-22,158-66s66-96.7,66-158V12
	C2388-49.3,2366-102,2322-146z"/>
</svg>
