<svg xmlns="http://www.w3.org/2000/svg" x="0px" y="0px" viewBox="596 -596 1792 1792" style="enable-background:new 596 -596 1792 1792;">
<path d="M628,300c-9.3,0-17,3-23,9s-9,13.7-9,23v64c0,9.3,3,17,9,23s13.7,9,23,9h1728c9.3,0,17-3,23-9s9-13.7,9-23v-64
	c0-9.3-3-17-9-23s-13.7-9-23-9H628z M1822,236c-24.7-16-56.3-33.3-95-52c-69.3-30.7-127-52.7-173-66c-142-41.3-235-84.3-279-129
	s-66-91.3-66-140c0-58.7,22.3-107.3,67-146c45.3-39.3,106-59,182-59c81.3,0,151.3,30.3,210,91c35.3,37.3,69.7,105.7,103,205l14,2
	l84,6l12-3c3.3-18,5-33,5-45c0-40-4.7-101-14-183c-7.3-53.3-14.3-92.7-21-118c-74-24-133-40-177-48c-78-12.7-133.7-19-167-19
	c-173.3,0-304.3,42.3-393,127c-89.3,85.3-134,188.3-134,309c0,60.7,16,123.3,48,188c15.3,30,32.3,56.7,51,80H1822z M1723,563
	c54,48.7,81,101,81,157c0,45.3-15.7,88.3-47,129c-30,40-70.7,68.7-122,86c-50,18-96.3,27-139,27c-48.7,0-92.7-7.3-132-22
	c-41.3-14-76.3-33-105-57c-30-24.7-56.7-56-80-94c-3.3-5.3-7.5-14.3-12.5-27s-12.5-31.3-22.5-56s-20-48.3-30-71l-102,2v44l-2,37
	c-0.7,25.3-0.7,48,0,68c1.3,32,2,84,2,156v13c0,9.3,2.7,16.7,8,22c10,8,34,17.3,72,28l140,40c54,15.3,119,23,195,23
	c82,0,149.7-7,203-21c48.7-12,99.7-34,153-66c48-30.7,84.3-57.7,109-81c32-32.7,55.7-67.3,71-104c27.3-67.3,41-138,41-212
	c0-35.3-2.3-66-7-92h-411C1654.7,520,1700.3,543.7,1723,563z"/>
</svg>
