<svg xmlns="http://www.w3.org/2000/svg" x="0px" y="0px" viewBox="596 -596 1792 1792" style="enable-background:new 596 -596 1792 1792;">
<path d="M1684,524c-8,0-16-1.7-24-5c-26.7-11.3-40-31-40-59V300c-93.3,0-168,7.8-224,23.5s-99.3,40.8-130,75.5
	c-70.7,79.3-91.3,237-62,473c2,16-4.3,27-19,33c-4,2-8.3,3-13,3c-10,0-18.3-4-25-12c-111.3-148.7-167-283.3-167-404
	c0-40,1.7-76.8,5-110.5c3.3-33.7,10.5-70.8,21.5-111.5s25.8-77,44.5-109s44.2-63.8,76.5-95.5s70.3-58,114-79
	c43.7-21,97.8-38,162.5-51c64.7-13,136.7-19.5,216-19.5v-160c0-28,13.3-47.7,40-59c26-11.3,49-6.7,69,14l352,352
	c12.7,12.7,19,27.7,19,45s-6.3,32.3-19,45l-352,352C1716.3,517.7,1701.3,524,1684,524z M2175.5-383.5
	c-56.3-56.3-124.2-84.5-203.5-84.5h-960c-79.3,0-147.2,28.2-203.5,84.5S724-259.3,724-180v960c0,79.3,28.2,147.2,84.5,203.5
	c56.3,56.3,124.2,84.5,203.5,84.5h960c79.3,0,147.2-28.2,203.5-84.5c56.3-56.3,84.5-124.2,84.5-203.5v-960
	C2260-259.3,2231.8-327.2,2175.5-383.5z"/>
</svg>
