<svg xmlns="http://www.w3.org/2000/svg" x="0px" y="0px" viewBox="596 -596 1792 1792" style="enable-background:new 596 -596 1792 1792;">
<path d="M1526,255.5c-12.7-11-27.3-16.5-44-16.5c-16.7,0-30.7,6.3-42,19c-11.3,12.7-17,27.7-17,45c0,16.7,6.3,30.5,19,41.5
	c12.7,11,27.7,16.5,45,16.5c16.7,0,30.5-6.3,41.5-19s16.5-27.7,16.5-45C1545,280.3,1538.7,266.5,1526,255.5z M1510,405.5
	c-31.3,30.3-70.3,67.3-117,111c-46.7,43.7-92,86-136,127s-86,79.8-126,116.5s-62.3,57.3-67,62l349-580c2-4,18.8-21.2,50.5-51.5
	c31.7-30.3,70.7-67.2,117-110.5c46.3-43.3,91.8-85.7,136.5-127c44.7-41.3,86.5-80.2,125.5-116.5s61.5-57.2,67.5-62.5l-350,581
	C1558,358.3,1541.3,375.2,1510,405.5z M2193,160l-57,13c-2.7,0.7-5.8,0-9.5-2c-3.7-2-5.5-4.7-5.5-8c0-9.3,3.3-14.7,10-16l56-12
	c-20.7-86.7-56.5-167-107.5-241S1966-242,1892-292c-24.7,42.7-40.7,64-48,64c-8,0-12-4.3-12-13c0-6,13-27.7,39-65
	c-116.7-72.7-243-109-379-109c-42,0-86.7,4.3-134,13l15,66c0.7,3.3,0,6.8-2,10.5s-4.7,5.5-8,5.5c-8.7,0-13.7-3.3-15-10l-15-67
	c-88,20-169.3,55.7-244,107c-74.7,51.3-137.7,114.3-189,189l20,12c13.3,8,24.2,15.2,32.5,21.5C960.8-61.2,965-56,965-52
	c0,8-4.3,12-13,12c-2.7,0-8.5-2.7-17.5-8s-19-11.7-30-19S887.3-78.3,886-79C813.3,36.3,777,162.7,777,300c0,44.7,4.7,91,14,139
	l68-15c3.3-0.7,6.8,0,10.5,2c3.7,2,5.5,4.7,5.5,8c0,8-3.3,13-10,15l-69,15c20.7,88,57.3,169.5,110,244.5
	c52.7,75,116.7,137.5,192,187.5c1.3-2,5.8-9.7,13.5-23s15.2-24.8,22.5-34.5c7.3-9.7,13-14.5,17-14.5c8.7,0,13,4.3,13,13
	c0,2.7-3.2,9-9.5,19c-6.3,10-13.5,21.2-21.5,33.5s-12.3,19.2-13,20.5c115.3,70,239.3,105,372,105c49.3,0,98-5,146-15l-16-68
	c-0.7-2.7,0-5.8,2-9.5s4.7-5.5,8-5.5c9.3,0,14.3,3.3,15,10l16,67c87.3-21.3,167.8-58.2,241.5-110.5S2039.7,767.7,2089,693
	c-39.3-22.7-59-37.3-59-44c0-8.7,4.3-13,13-13c2.7,0,8.2,2.5,16.5,7.5c8.3,5,17.2,10.5,26.5,16.5c9.3,6,15,9.7,17,11
	c69.3-113.3,104-237,104-371C2207,254.7,2202.3,208,2193,160z M2228.5,611c-42.3,98.7-99.2,183.7-170.5,255
	c-71.3,71.3-156.3,128.2-255,170.5c-98.7,42.3-202.3,63.5-311,63.5c-108.7,0-212.3-21.2-311-63.5c-98.7-42.3-183.7-99.2-255-170.5
	S797.8,709.7,755.5,611S692,408.7,692,300s21.2-212.3,63.5-311S854.7-194.7,926-266s156.3-128.2,255-170.5
	c98.7-42.3,202.3-63.5,311-63.5c108.7,0,212.3,21.2,311,63.5s183.7,99.2,255,170.5c71.3,71.3,128.2,156.3,170.5,255
	c42.3,98.7,63.5,202.3,63.5,311S2270.8,512.3,2228.5,611z M2317-48c-47.3-110.7-111-206-191-286s-175.3-143.7-286-191
	s-226.7-71-348-71c-121.3,0-237.3,23.7-348,71c-110.7,47.3-206,111-286,191S714.3-158.7,667-48s-71,226.7-71,348s23.7,237.3,71,348
	s111,206,191,286s175.3,143.7,286,191s226.7,71,348,71c121.3,0,237.3-23.7,348-71s206-111,286-191s143.7-175.3,191-286
	c47.3-110.7,71-226.7,71-348S2364.3,62.7,2317-48z"/>
</svg>
