<svg xmlns="http://www.w3.org/2000/svg" x="0px" y="0px" viewBox="596 -596 1792 1792" style="enable-background:new 596 -596 1792 1792;">
<path d="M2022.5,523c-30.3,71-71.3,132.3-123,184c-51.7,51.7-113,92.7-184,123S1570,875.5,1492,875.5s-152.5-15.2-223.5-45.5
	s-132.3-71.3-184-123s-92.7-113-123-184C931.2,452,916,377.5,916,299.5S931.2,147,961.5,76c30.3-71,71.3-132.3,123-184
	c51.7-51.7,113-92.7,184-123s145.5-45.5,223.5-45.5s152.5,15.2,223.5,45.5s132.3,71.3,184,123c51.7,51.7,92.7,113,123,184
	c30.3,71,45.5,145.5,45.5,223.5S2052.8,452,2022.5,523z M2340,547.5l-180-248l180-248c6-8.7,7.3-18.3,4-29c-2.7-10-9.3-16.7-20-20
	l-292-96v-306c0-10.7-4.3-19.3-13-26c-10-6.7-19.7-8-29-4l-292,94l-180-248c-6-8-14.7-12-26-12c-11.3,0-20,4-26,12l-180,248l-292-94
	c-9.3-4-19-2.7-29,4c-8.7,6.7-13,15.3-13,26v306l-292,96c-10.7,3.3-17.3,10-20,20c-3.3,10.7-2,20.3,4,29l180,248l-180,248
	c-6,8-7.3,17.7-4,29c2.7,10,9.3,16.7,20,20l292,96v306c0,10.7,4.3,19.3,13,26c10,6.7,19.7,8,29,4l292-94l180,248
	c6.7,8.7,15.3,13,26,13c10.7,0,19.3-4.3,26-13l180-248l292,94c9.3,4,19,2.7,29-4c8.7-6.7,13-15.3,13-26v-306l292-96
	c10.7-3.3,17.3-10,20-20C2347.3,565.2,2346,555.5,2340,547.5z"/>
</svg>
