<svg xmlns="http://www.w3.org/2000/svg" x="0px" y="0px" viewBox="596 -596 1792 1792" style="enable-background:new 596 -596 1792 1792;">
<path d="M1262,786c-25.3-25.3-55.3-38-90-38s-64.7,12.7-90,38s-38,55.3-38,90s12.7,64.7,38,90s55.3,38,90,38s64.7-12.7,90-38
	c25.3-25.3,38-55.3,38-90S1287.3,811.3,1262,786z M2158,786c-25.3-25.3-55.3-38-90-38c-34.7,0-64.7,12.7-90,38s-38,55.3-38,90
	s12.7,64.7,38,90s55.3,38,90,38c34.7,0,64.7-12.7,90-38c25.3-25.3,38-55.3,38-90S2183.3,811.3,2158,786z M2305-257
	c-12.7-12.7-27.7-19-45-19H1059c-0.7-4.7-2.2-13.3-4.5-26s-4.2-22.5-5.5-29.5s-4-15.7-8-26s-8.3-18.5-13-24.5s-11.2-11.2-19.5-15.5
	c-8.3-4.3-17.8-6.5-28.5-6.5H724c-17.3,0-32.3,6.3-45,19s-19,27.7-19,45s6.3,32.3,19,45s27.7,19,45,19h204l177,823
	c-1.3,3.3-6.5,13.2-15.5,29.5c-9,16.3-16.2,29.7-21.5,40c-5.3,10.3-10.7,22.3-16,36s-8,24.2-8,31.5c0,17.3,6.3,32.3,19,45
	s27.7,19,45,19h1024c17.3,0,32.3-6.3,45-19c12.7-12.7,19-27.7,19-45s-6.3-32.3-19-45c-12.7-12.7-27.7-19-45-19h-920
	c16-32,24-53.3,24-64c0-6.7-4.3-30-13-70l1044-122c16-2,29.5-9.2,40.5-21.5S2324,316,2324,300v-512
	C2324-229.3,2317.7-244.3,2305-257z"/>
</svg>
