<svg xmlns="http://www.w3.org/2000/svg" x="0px" y="0px" viewBox="596 -596 1792 1792" style="enable-background:new 596 -596 1792 1792;">
<path d="M1106.5-365C988.8-296.3,895.7-203.2,827-85.5S724,160.7,724,300s34.3,267.8,103,385.5S988.8,896.3,1106.5,965
	s246.2,103,385.5,103s267.8-34.3,385.5-103s210.8-161.8,279.5-279.5c68.7-117.7,103-246.2,103-385.5s-34.3-267.8-103-385.5
	c-68.7-117.7-161.8-210.8-279.5-279.5S1631.3-468,1492-468S1224.2-433.7,1106.5-365z M1219,771c-83.3-48.7-149.3-114.7-198-198
	c-48.7-83.3-73-174.3-73-273s24.3-189.7,73-273c48.7-83.3,114.7-149.3,198-198s174.3-73,273-73c98.7,0,189.7,24.3,273,73
	c83.3,48.7,149.3,114.7,198,198s73,174.3,73,273s-24.3,189.7-73,273s-114.7,149.3-198,198s-174.3,73-273,73
	C1393.3,844,1302.3,819.7,1219,771z M1780,620c9.3,0,17-3,23-9s9-13.7,9-23V12c0-9.3-3-17-9-23s-13.7-9-23-9h-576c-9.3,0-17,3-23,9
	s-9,13.7-9,23v576c0,9.3,3,17,9,23s13.7,9,23,9H1780z"/>
</svg>
