<svg xmlns="http://www.w3.org/2000/svg" x="0px" y="0px" viewBox="596 -596 1792 1792" style="enable-background:new 596 -596 1792 1792;">
<path d="M1797,478.5l12,66l60,355l-318-168l-59-31v-963l159,322l30,60l66,10l356,52l-257,250L1797,478.5z M2322,110
	c-6-18.3-24-29.8-54-34.5l-502-73l-225-455c-14-27.3-30.3-41-49-41c-19.3,0-35.7,13.7-49,41l-225,455l-502,73
	c-30,4.7-48,16.2-54,34.5s1.7,38.2,23,59.5l364,354l-86,500c-3.3,22-1.3,39.2,6,51.5c7.3,12.3,18.7,18.5,34,18.5
	c11.3,0,24.7-4,40-12l449-236l449,236c15.3,8,28.7,12,40,12c15.3,0,26.7-6.2,34-18.5s9.3-29.5,6-51.5l-86-500l363-354
	C2320,148.2,2328,128.3,2322,110z"/>
</svg>
