<svg xmlns="http://www.w3.org/2000/svg" x="0px" y="0px" viewBox="596 -596 1792 1792" style="enable-background:new 596 -596 1792 1792;">
<path d="M2106.5-186.5c-47.7-47.7-105.2-71.5-172.5-71.5s-124.8,23.8-172.5,71.5S1690-81.3,1690-14s23.8,124.8,71.5,172.5
	S1866.7,230,1934,230s124.8-23.8,172.5-71.5C2154.2,110.8,2178,53.3,2178-14S2154.2-138.8,2106.5-186.5z M1335,905
	c-48.7,48.7-107.7,73-177,73c-47.3,0-90.7-12.2-130-36.5S958.3,885,937,845c13.3,5.3,33.7,13.5,61,24.5s48,19.2,62,24.5
	c50.7,20.7,101.3,20.3,152-1c50.7-21.3,86.3-57.7,107-109c20.7-50.7,20.2-101.2-1.5-151.5c-21.7-50.3-58.2-85.8-109.5-106.5l-104-42
	c18-4,36-6,54-6c69.3,0,128.3,24.3,177,73c48.7,48.7,73,107.7,73,177S1383.7,856.3,1335,905z M2148.5,203
	c-59.7,59.3-131.5,89-215.5,89c-84.7,0-156.8-29.7-216.5-89S1627,71.7,1627-13c0-84,29.8-155.8,89.5-215.5S1848.3-318,1933-318
	c84,0,155.8,29.8,215.5,89.5C2208.2-168.8,2238-97,2238-13C2238,71.7,2208.2,143.7,2148.5,203z M2254.5-334.5
	c-89-89-196.2-133.5-321.5-133.5c-124.7,0-231.5,44-320.5,132S1478.3-141.7,1477-17l-284,407c-14.7-1.3-26.3-2-35-2
	c-62.7,0-120.3,16-173,48L596,279v429l230,92c16.7,77.3,56,141.3,118,192c62,50.7,133.3,76,214,76c88,0,164.3-29.7,229-89
	c64.7-59.3,101-132,109-218l437-319c125.3,0,232.5-44.3,321.5-133S2388,113,2388-13C2388-138.3,2343.5-245.5,2254.5-334.5z"/>
</svg>
