<svg xmlns="http://www.w3.org/2000/svg" x="0px" y="0px" viewBox="596 -596 1792 1792" style="enable-background:new 596 -596 1792 1792;">
<path d="M2360,584c-18.7-18.7-41.3-28-68-28h-96V364c0-34.7-12.7-64.7-38-90c-25.3-25.3-55.3-38-90-38h-512V44h96
	c26.7,0,49.3-9.3,68-28s28-41.3,28-68v-320c0-26.7-9.3-49.3-28-68s-41.3-28-68-28h-320c-26.7,0-49.3,9.3-68,28
	c-18.7,18.7-28,41.3-28,68v320c0,26.7,9.3,49.3,28,68c18.7,18.7,41.3,28,68,28h96v192H916c-34.7,0-64.7,12.7-90,38s-38,55.3-38,90
	v192h-96c-26.7,0-49.3,9.3-68,28c-18.7,18.7-28,41.3-28,68v320c0,26.7,9.3,49.3,28,68c18.7,18.7,41.3,28,68,28h320
	c26.7,0,49.3-9.3,68-28c18.7-18.7,28-41.3,28-68V652c0-26.7-9.3-49.3-28-68c-18.7-18.7-41.3-28-68-28h-96V364h512v192h-96
	c-26.7,0-49.3,9.3-68,28c-18.7,18.7-28,41.3-28,68v320c0,26.7,9.3,49.3,28,68c18.7,18.7,41.3,28,68,28h320c26.7,0,49.3-9.3,68-28
	c18.7-18.7,28-41.3,28-68V652c0-26.7-9.3-49.3-28-68c-18.7-18.7-41.3-28-68-28h-96V364h512v192h-96c-26.7,0-49.3,9.3-68,28
	c-18.7,18.7-28,41.3-28,68v320c0,26.7,9.3,49.3,28,68c18.7,18.7,41.3,28,68,28h320c26.7,0,49.3-9.3,68-28c18.7-18.7,28-41.3,28-68
	V652C2388,625.3,2378.7,602.7,2360,584z"/>
</svg>
