<svg xmlns="http://www.w3.org/2000/svg" x="0px" y="0px" viewBox="596 -596 1792 1792" style="enable-background:new 596 -596 1792 1792;">
<path d="M1985,447c-12.7-12.7-27.7-19-45-19h-896c-17.3,0-32.3,6.3-45,19s-19,27.7-19,45s6.3,32.3,19,45l448,448
	c12.7,12.7,27.7,19,45,19c17.3,0,32.3-6.3,45-19l448-448c12.7-12.7,19-27.7,19-45S1997.7,459.7,1985,447z M1985,63l-448-448
	c-12.7-12.7-27.7-19-45-19s-32.3,6.3-45,19L999,63c-12.7,12.7-19,27.7-19,45s6.3,32.3,19,45s27.7,19,45,19h896
	c17.3,0,32.3-6.3,45-19c12.7-12.7,19-27.7,19-45S1997.7,75.7,1985,63z"/>
</svg>
