<svg xmlns="http://www.w3.org/2000/svg" x="0px" y="0px" viewBox="596 -596 1792 1792" style="enable-background:new 596 -596 1792 1792;">
<path d="M1837,648.5c-9.3,9-20.3,13.5-33,13.5c-9.3,0-20.3-3.7-33-11c-114-68.7-246.3-103-397-103c-74,0-155,9-243,27
	c-21.3,5.3-33.7,8-37,8c-14.7,0-26.5-4.8-35.5-14.5c-9-9.7-13.5-21.2-13.5-34.5c0-28.7,14-46,42-52c102.7-22.7,198.3-34,287-34
	c169.3,0,318.3,38.3,447,115c20,12.7,30,29.7,30,51C1851,628,1846.3,639.5,1837,648.5z M1929.5,441.5
	c-11.7,11.7-25.8,17.5-42.5,17.5c-9.3,0-22-4.3-38-13c-139.3-82.7-302-124-488-124c-86,0-169.7,11-251,33c-20,5.3-32.3,8-37,8
	c-16.7,0-30.8-5.8-42.5-17.5c-11.7-11.7-17.5-25.8-17.5-42.5c0-34,16-55.3,48-64c100-28,201-42,303-42c207.3,0,390,47,548,141
	c23.3,14,35,34.3,35,61C1947,415.7,1941.2,429.8,1929.5,441.5z M2033.5,202.5c-14.3,13.7-31.2,20.5-50.5,20.5c-12.7,0-26-4-40-12
	c-68.7-40.7-153.2-72.3-253.5-95C1589.2,93.3,1486,82,1380,82c-116,0-218.3,12.3-307,37c-19.3,5.3-32.7,8-40,8
	c-20.7,0-37.8-7-51.5-21S961,74.7,961,54c0-20,5.2-36.2,15.5-48.5C986.8-6.8,999.7-15.3,1015-20c106.7-31.3,228-47,364-47
	c117.3,0,231.7,12.5,343,37.5c111.3,25,209,61.8,293,110.5c26.7,15.3,40,38.7,40,70C2055,171.7,2047.8,188.8,2033.5,202.5z
	 M2157-85.5c-68.7-117.7-161.8-210.8-279.5-279.5S1631.3-468,1492-468s-267.8,34.3-385.5,103S895.7-203.2,827-85.5
	S724,160.7,724,300s34.3,267.8,103,385.5S988.8,896.3,1106.5,965s246.2,103,385.5,103s267.8-34.3,385.5-103s210.8-161.8,279.5-279.5
	c68.7-117.7,103-246.2,103-385.5S2225.7,32.2,2157-85.5z"/>
</svg>
