<svg xmlns="http://www.w3.org/2000/svg" x="0px" y="0px" viewBox="596 -596 1792 1792" style="enable-background:new 596 -596 1792 1792;">
<path d="M1909,187.5c-38,37.7-83.7,56.5-137,56.5c-53.3,0-98.8-18.8-136.5-56.5c-37.7-37.7-56.5-83.2-56.5-136.5
	c0-52.7,18.8-98,56.5-136c37.7-38,83.2-57,136.5-57c53.3,0,99,18.8,137,56.5c38,37.7,57,83.2,57,136.5S1947,149.8,1909,187.5z
	 M1298,498.5c-38.7-38.3-85.3-57.5-140-57.5c-13.3,0-27.3,1.7-42,5l82,33c40.7,16,69.5,44,86.5,84s17.5,80,1.5,120
	c-16.7,40.7-45,69.5-85,86.5s-80,17.5-120,1.5c-30.7-13.3-63.3-26.7-98-40c16.7,32,40.7,57.7,72,77s65.7,29,103,29
	c54.7,0,101.3-19.2,140-57.5c38.7-38.3,58-85.2,58-140.5C1356,583.7,1336.7,536.8,1298,498.5z M2175.5-383.5
	c-56.3-56.3-124.2-84.5-203.5-84.5h-960c-79.3,0-147.2,28.2-203.5,84.5S724-259.3,724-180v468l297,119c41.3-24.7,87-37,137-37
	c12.7,0,22,0.3,28,1l225-322c1.3-98.7,37-182.8,107-252.5S1672.3-308,1771-308c100,0,185.2,35.2,255.5,105.5
	C2096.8-132.2,2132-47,2132,53c0,99.3-35.2,184.2-105.5,254.5C1956.2,377.8,1871,413,1771,413l-345,252c-6.7,68.7-35.7,126.3-87,173
	c-51.3,46.7-111.7,70-181,70c-63.3,0-119.5-20-168.5-60s-80.2-90.7-93.5-152l-172-69v153c0,79.3,28.2,147.2,84.5,203.5
	c56.3,56.3,124.2,84.5,203.5,84.5h960c79.3,0,147.2-28.2,203.5-84.5c56.3-56.3,84.5-124.2,84.5-203.5v-960
	C2260-259.3,2231.8-327.2,2175.5-383.5z M1942.5-118.5c-47-47-104.2-70.5-171.5-70.5c-66.7,0-123.5,23.7-170.5,71
	c-47,47.3-70.5,104.3-70.5,171s23.5,123.5,70.5,170.5S1704.3,294,1771,294s123.7-23.5,171-70.5s71-103.8,71-170.5
	C2013-14.3,1989.5-71.5,1942.5-118.5z"/>
</svg>
