<svg xmlns="http://www.w3.org/2000/svg" x="0px" y="0px" viewBox="596 -596 1792 1792" style="enable-background:new 596 -596 1792 1792;">
<path d="M1315,556h355l109-336L1492,12l-287,208L1315,556z M1144-525c-110.7,47.3-206,111-286,191S714.3-158.7,667-48
	s-71,226.7-71,348s23.7,237.3,71,348s111,206,191,286s175.3,143.7,286,191s226.7,71,348,71c121.3,0,237.3-23.7,348-71
	s206-111,286-191s143.7-175.3,191-286c47.3-110.7,71-226.7,71-348s-23.7-237.3-71-348c-47.3-110.7-111-206-191-286
	s-175.3-143.7-286-191s-226.7-71-348-71C1370.7-596,1254.7-572.3,1144-525z M2081,622l-326,40l-139,298l116,69c-78,26-158,39-240,39
	s-162-13-240-39l116-69l-139-298l-326-40l-30,132c-99.3-135.3-149-286.7-149-454v-3l102,89l240-224l-62-323l-135,12
	c100-137.3,229.7-231.3,389-282l-53,124l287,159l287-159l-53-124c159.3,50.7,289,144.7,389,282l-134-12l-63,323l240,224l102-89v3
	c0,167.3-49.7,318.7-149,454L2081,622z"/>
</svg>
