<svg xmlns="http://www.w3.org/2000/svg" x="0px" y="0px" viewBox="596 -596 1792 1792" style="enable-background:new 596 -596 1792 1792;">
<path d="M1769.5-317.5c-28.3-81-67.5-147.7-117.5-200S1548.7-596,1492-596s-110,26.2-160,78.5s-89.2,119-117.5,200
	S1172-153.3,1172-68c0,96.7,19,177.8,57,243.5s88.7,110.8,152,135.5l-45,821c-1.3,17.3,4,32.3,16,45s26.7,19,44,19h192
	c17.3,0,32-6.3,44-19s17.3-27.7,16-45l-45-821c63.3-24.7,114-69.8,152-135.5s57-146.8,57-243.5
	C1812-153.3,1797.8-236.5,1769.5-317.5z"/>
</svg>
