<svg xmlns="http://www.w3.org/2000/svg" x="0px" y="0px" viewBox="596 -596 1792 1792" style="enable-background:new 596 -596 1792 1792;">
<path d="M1854,430.5c-8-15.7-20.3-26.2-37-31.5s-33-4-49,4s-26.7,20.7-32,38c-16.7,53.3-47.5,96.5-92.5,129.5S1548,620,1492,620
	s-106.5-16.5-151.5-49.5s-75.8-76.2-92.5-129.5c-5.3-17.3-15.8-30-31.5-38s-31.8-9.3-48.5-4c-17.3,5.3-30,15.8-38,31.5
	c-8,15.7-9.3,31.8-4,48.5c24.7,80.7,70.7,145.7,138,195c67.3,49.3,143.3,74,228,74c84.7,0,160.7-24.7,228-74s113.3-114.3,138-195
	C1863.3,462.3,1862,446.2,1854,430.5z M1326.5-46.5c-25-25-55.2-37.5-90.5-37.5s-65.5,12.5-90.5,37.5S1108,8.7,1108,44
	s12.5,65.5,37.5,90.5s55.2,37.5,90.5,37.5s65.5-12.5,90.5-37.5S1364,79.3,1364,44S1351.5-21.5,1326.5-46.5z M1838.5-46.5
	c-25-25-55.2-37.5-90.5-37.5c-35.3,0-65.5,12.5-90.5,37.5S1620,8.7,1620,44s12.5,65.5,37.5,90.5s55.2,37.5,90.5,37.5
	c35.3,0,65.5-12.5,90.5-37.5S1876,79.3,1876,44S1863.5-21.5,1838.5-46.5z M2081,548.5c-34,79-79.5,147-136.5,204
	s-125,102.5-204,136.5s-161.8,51-248.5,51c-86.7,0-169.5-17-248.5-51s-147-79.5-204-136.5S937,627.5,903,548.5S852,386.7,852,300
	s17-169.5,51-248.5s79.5-147,136.5-204s125-102.5,204-136.5s161.8-51,248.5-51c86.7,0,169.5,17,248.5,51s147,79.5,204,136.5
	s102.5,125,136.5,204s51,161.8,51,248.5S2115,469.5,2081,548.5z M2157-85.5c-68.7-117.7-161.8-210.8-279.5-279.5
	S1631.3-468,1492-468s-267.8,34.3-385.5,103S895.7-203.2,827-85.5S724,160.7,724,300s34.3,267.8,103,385.5S988.8,896.3,1106.5,965
	s246.2,103,385.5,103s267.8-34.3,385.5-103s210.8-161.8,279.5-279.5c68.7-117.7,103-246.2,103-385.5S2225.7,32.2,2157-85.5z"/>
</svg>
