<svg xmlns="http://www.w3.org/2000/svg" x="0px" y="0px" viewBox="596 -596 1792 1792" style="enable-background:new 596 -596 1792 1792;">
<path d="M1307.4,821c-6-6-13.7-9-23-9h-192V-564c0-9.3-3-17-9-23s-13.7-9-23-9h-192c-9.3,0-17,3-23,9s-9,13.7-9,23V812h-192
	c-14.7,0-24.7,6.7-30,20c-5.3,12.7-3,24.3,7,35l320,320c7.3,6,15,9,23,9c8.7,0,16.3-3,23-9l319-319c6.7-8,10-16,10-24
	C1316.4,834.7,1313.4,827,1307.4,821z M2363.4,949c-6-6-13.7-9-23-9h-832c-9.3,0-17,3-23,9s-9,13.7-9,23v192c0,9.3,3,17,9,23
	s13.7,9,23,9h832c9.3,0,17-3,23-9s9-13.7,9-23V972C2372.4,962.7,2369.4,955,2363.4,949z M2171.4,437c-6-6-13.7-9-23-9h-640
	c-9.3,0-17,3-23,9s-9,13.7-9,23v192c0,9.3,3,17,9,23s13.7,9,23,9h640c9.3,0,17-3,23-9s9-13.7,9-23V460
	C2180.4,450.7,2177.4,443,2171.4,437z M1979.4-75c-6-6-13.7-9-23-9h-448c-9.3,0-17,3-23,9s-9,13.7-9,23v192c0,9.3,3,17,9,23
	s13.7,9,23,9h448c9.3,0,17-3,23-9s9-13.7,9-23V-52C1988.4-61.3,1985.4-69,1979.4-75z M1787.4-587c-6-6-13.7-9-23-9h-256
	c-9.3,0-17,3-23,9s-9,13.7-9,23v192c0,9.3,3,17,9,23s13.7,9,23,9h256c9.3,0,17-3,23-9s9-13.7,9-23v-192
	C1796.4-573.3,1793.4-581,1787.4-587z"/>
</svg>
