<svg xmlns="http://www.w3.org/2000/svg" x="0px" y="0px" viewBox="596 -596 1792 1792" style="enable-background:new 596 -596 1792 1792;">
<path d="M1100,799c-6,0-11.2-2.2-15.5-6.5c-4.3-4.3-6.8-9.8-7.5-16.5l-14-241l14-523c0-6.7,2.3-12.3,7-17c4.7-4.7,10-7,16-7
	c6.7,0,12.2,2.3,16.5,7c4.3,4.7,6.8,10.3,7.5,17l16,523l-16,241C1122.7,791.3,1114.7,799,1100,799z M1419,771c0,8.7-3,15.3-9,20
	c-6,6-12.7,9-20,9c-9.3,0-17-3.7-23-11c-4-4.7-6-10.3-6-17v-1c-7.3-156.7-11-235.3-11-236l10-579l1-6c0-10.7,4.3-18.7,13-24
	c5.3-3.3,10.7-5,16-5s10.7,1.7,16,5c8.7,5.3,13,13.3,13,24l12,586l-11,211L1419,771z M366,398c-4.7,0-7.7,3-9,9l-17,128l17,126
	c1.3,6,4.3,9,9,9s7.7-3,9-9l20-126l-20-128C373.7,401,370.7,398,366,398z M451,319c-6,0-9,3-9,9l-23,207l23,202c0,6.7,3,10,9,10
	c5.3,0,8.7-3,10-9l26-203l-26-207C459.7,322,456.3,319,451,319z M542,278c-6.7,0-10.7,4-12,12l-21,245l21,237c1.3,7.3,5.3,11,12,11
	c7.3,0,11-3.7,11-11l25-237l-25-245C553,282,549.3,278,542,278z M633,270c-8.7,0-13,4.3-13,13l-21,252l21,244c0,8.7,4.3,13,13,13
	c8,0,12.7-4.3,14-13l23-244l-23-252C645.7,274.3,641,270,633,270z M725,286c-4,0-7.5,1.5-10.5,4.5S710,297,710,301l-20,234l20,246
	c0,4.7,1.5,8.5,4.5,11.5S721,797,725,797c9.3,0,14.7-5.3,16-16l21-246l-21-234C739.7,291,734.3,286,725,286z M830,142.5
	c-3.3-3.7-7.3-5.5-12-5.5c-10.7,0-16.7,6-18,18l-18,380l18,246c1.3,12,7.3,18,18,18c4.7,0,8.7-1.8,12-5.5c3.3-3.7,5-7.8,5-12.5
	l21-246l-21-380C835,150.3,833.3,146.2,830,142.5z M923.5,55.5c-3.7-3.7-8.2-5.5-13.5-5.5c-12,0-18.7,6.3-20,19l-16,468l16,244
	c1.3,12.7,8,19,20,19c5.3,0,9.8-1.8,13.5-5.5s5.5-8.2,5.5-13.5l19-244L929,69C929,63.7,927.2,59.2,923.5,55.5z M1020,13.5
	c-4-4.3-9-6.5-15-6.5c-5.3,0-10.2,2.2-14.5,6.5S984,23,984,29l-16,506l16,242c1.3,14,8.3,21,21,21c13.3,0,20.7-7,22-21l18-242
	l-18-506C1026.3,23,1024,17.8,1020,13.5z M1419,771L1419,771L1419,771z M1213.5,7c-5-4.7-10.8-7-17.5-7c-6.7,0-12.5,2.3-17.5,7
	s-7.5,10.7-7.5,18l-14,510l14,239c0.7,7.3,3.3,13.3,8,18c4.7,4.7,10.3,7,17,7c6.7,0,12.5-2.5,17.5-7.5s7.5-10.8,7.5-17.5l15-239
	l-15-510C1221,17.7,1218.5,11.7,1213.5,7z M1311.5,24c-5-5.3-11.2-8-18.5-8c-7.3,0-13.7,2.7-19,8c-5.3,5.3-8.3,12-9,20l-12,492
	l12,236c0.7,7.3,3.7,13.7,9,19c5.3,5.3,11.7,8,19,8c7.3,0,13.7-2.7,19-8c5.3-5.3,8-11.7,8-19l14-236l-14-492
	C1319.3,36,1316.5,29.3,1311.5,24z M1518-103c-1.3-12-6.7-20.7-16-26c-4.7-3.3-9.7-5-15-5c-7.3,0-14,2.3-20,7c-6.7,6-10.7,14-12,24
	v3l-12,636l6,117l6,114c0.7,8.7,4,16,10,22s13.3,9,22,9s16-3,22-9s9-13.3,9-22l0,0l14-231L1518-103z M2561,316
	c-55.3-55.3-122-83-200-83c-38,0-74.7,7.3-110,22c-11.3-128-64.7-235.8-160-323.5c-95.3-87.7-208-131.5-338-131.5
	c-64,0-124.3,11.3-181,34c-18.7,6.7-28,17.7-28,33v899c0,8.7,3,16,9,22s13.3,9.7,22,11h786c78,0,144.7-27.5,200-82.5
	s83-121.5,83-199.5C2644,438.3,2616.3,371.3,2561,316z"/>
</svg>
