<svg xmlns="http://www.w3.org/2000/svg" x="0px" y="0px" viewBox="596 -596 1792 1792" style="enable-background:new 596 -596 1792 1792;">
<path d="M724,748v128h352V748H724z M1172,620c-17.3,0-32.3,6.3-45,19s-19,27.7-19,45v256c0,17.3,6.3,32.3,19,45s27.7,19,45,19h256
	c17.3,0,32.3-6.3,45-19c12.7-12.7,19-27.7,19-45V684c0-17.3-6.3-32.3-19-45c-12.7-12.7-27.7-19-45-19H1172z M724,236v128h864V236
	H724z M724-276v128h224v-128H724z M1524,748v128h736V748H1524z M1044-404c-17.3,0-32.3,6.3-45,19c-12.7,12.7-19,27.7-19,45v256
	c0,17.3,6.3,32.3,19,45c12.7,12.7,27.7,19,45,19h256c17.3,0,32.3-6.3,45-19c12.7-12.7,19-27.7,19-45v-256c0-17.3-6.3-32.3-19-45
	c-12.7-12.7-27.7-19-45-19H1044z M1684,108c-17.3,0-32.3,6.3-45,19c-12.7,12.7-19,27.7-19,45v256c0,17.3,6.3,32.3,19,45
	c12.7,12.7,27.7,19,45,19h256c17.3,0,32.3-6.3,45-19s19-27.7,19-45V172c0-17.3-6.3-32.3-19-45s-27.7-19-45-19H1684z M2036,236v128
	h224V236H2036z M1396-276v128h864v-128H1396z"/>
</svg>
