<svg xmlns="http://www.w3.org/2000/svg" x="0px" y="0px" viewBox="596 -596 1792 1792" style="enable-background:new 596 -596 1792 1792;">
<path d="M1510.5,826.5l-204-296l184-267h125v-168h-257l-140,228l-25,42c-5.3,8-9,15-11,21h-3c-2-8-5.7-15-11-21
	c-14-25.3-21.7-39.3-23-42l-139-228h-276v168h137l185,272l-197,291h-128v167h258l155-250c10-16,18.3-30.7,25-44l9-21h3
	c2,8,5.7,15,11,21l24,42l159,252h248v-167H1510.5z M2130.5,147.5v80h-232c2-22,12.2-43,30.5-63s40.2-37.2,65.5-51.5
	s52.7-31.2,82-50.5C2105.8,43.2,2133,23.7,2158,4s45.7-45.2,62-76.5c16.3-31.3,24.5-65.7,24.5-103c0-66-22.7-118.8-68-158.5
	c-45.3-39.7-104.7-59.5-178-59.5c-70,0-132.7,21.7-188,65c-24.7,19.3-45.7,41.3-63,66l105,92c14.7-18,26.7-30.7,36-38
	c30.7-26,63-39,97-39c27.3,0,50.8,8.2,70.5,24.5c19.7,16.3,29.5,37.2,29.5,62.5c0,22-8.7,43.3-26,64c-17.3,20.7-39,38.7-65,54
	c-26,15.3-54,33.5-84,54.5s-58,42.7-84,65s-47.7,51.2-65,86.5c-17.3,35.3-26,74.3-26,117c0,12,1.3,27.3,4,46l3,27h514v-206H2130.5z"
	/>
</svg>
