<svg xmlns="http://www.w3.org/2000/svg" x="0px" y="0px" viewBox="596 -596 1792 1792" style="enable-background:new 596 -596 1792 1792;">
<path d="M724,748h1024v128H724V748z M724,236h1024v128H724V236z M2264,880c-18.7,18.7-41.3,28-68,28c-26.7,0-49.3-9.3-68-28
	c-18.7-18.7-28-41.3-28-68s9.3-49.3,28-68c18.7-18.7,41.3-28,68-28c26.7,0,49.3,9.3,68,28c18.7,18.7,28,41.3,28,68
	S2282.7,861.3,2264,880z M724-276h1024v128H724V-276z M2264,368c-18.7,18.7-41.3,28-68,28c-26.7,0-49.3-9.3-68-28
	c-18.7-18.7-28-41.3-28-68s9.3-49.3,28-68c18.7-18.7,41.3-28,68-28c26.7,0,49.3,9.3,68,28c18.7,18.7,28,41.3,28,68
	S2282.7,349.3,2264,368z M2264-144c-18.7,18.7-41.3,28-68,28c-26.7,0-49.3-9.3-68-28c-18.7-18.7-28-41.3-28-68s9.3-49.3,28-68
	c18.7-18.7,41.3-28,68-28c26.7,0,49.3,9.3,68,28c18.7,18.7,28,41.3,28,68S2282.7-162.7,2264-144z M596,620v384h1792V620H596z
	 M596,108v384h1792V108H596z M596-404v384h1792v-384H596z"/>
</svg>
