<svg xmlns="http://www.w3.org/2000/svg" x="0px" y="0px" viewBox="596 -596 1792 1792" style="enable-background:new 596 -596 1792 1792;">
<path d="M843,821c-6-6-13.7-9-23-9H628c-9.3,0-17,3-23,9s-9,13.7-9,23v192c0,9.3,3,17,9,23s13.7,9,23,9h192c9.3,0,17-3,23-9
	s9-13.7,9-23V844C852,834.7,849,827,843,821z M1227,693c-6-6-13.7-9-23-9h-192c-9.3,0-17,3-23,9s-9,13.7-9,23v320c0,9.3,3,17,9,23
	s13.7,9,23,9h192c9.3,0,17-3,23-9s9-13.7,9-23V716C1236,706.7,1233,699,1227,693z M1611,437c-6-6-13.7-9-23-9h-192c-9.3,0-17,3-23,9
	s-9,13.7-9,23v576c0,9.3,3,17,9,23s13.7,9,23,9h192c9.3,0,17-3,23-9s9-13.7,9-23V460C1620,450.7,1617,443,1611,437z M1995,53
	c-6-6-13.7-9-23-9h-192c-9.3,0-17,3-23,9s-9,13.7-9,23v960c0,9.3,3,17,9,23s13.7,9,23,9h192c9.3,0,17-3,23-9s9-13.7,9-23V76
	C2004,66.7,2001,59,1995,53z M2379-459c-6-6-13.7-9-23-9h-192c-9.3,0-17,3-23,9s-9,13.7-9,23v1472c0,9.3,3,17,9,23s13.7,9,23,9h192
	c9.3,0,17-3,23-9s9-13.7,9-23V-436C2388-445.3,2385-453,2379-459z"/>
</svg>
