<svg xmlns="http://www.w3.org/2000/svg" x="0px" y="0px" viewBox="596 -596 1792 1792" style="enable-background:new 596 -596 1792 1792;">
<path d="M1084.5,739.5c-25-25-55.2-37.5-90.5-37.5s-65.5,12.5-90.5,37.5S866,794.7,866,830c0,34.7,12.7,64.7,38,90
	c25.3,25.3,55.3,38,90,38c35.3,0,65.5-12.5,90.5-37.5s37.5-55.2,37.5-90.5S1109.5,764.5,1084.5,739.5z M1582.5,945.5
	c-25-25-55.2-37.5-90.5-37.5c-35.3,0-65.5,12.5-90.5,37.5s-37.5,55.2-37.5,90.5c0,35.3,12.5,65.5,37.5,90.5s55.2,37.5,90.5,37.5
	c35.3,0,65.5-12.5,90.5-37.5s37.5-55.2,37.5-90.5C1620,1000.7,1607.5,970.5,1582.5,945.5z M878.5,241.5c-25-25-55.2-37.5-90.5-37.5
	s-65.5,12.5-90.5,37.5S660,296.7,660,332s12.5,65.5,37.5,90.5S752.7,460,788,460s65.5-12.5,90.5-37.5S916,367.3,916,332
	S903.5,266.5,878.5,241.5z M2080.5,739.5c-25-25-55.2-37.5-90.5-37.5s-65.5,12.5-90.5,37.5S1862,794.7,1862,830s12.5,65.5,37.5,90.5
	s55.2,37.5,90.5,37.5c34.7,0,64.7-12.7,90-38c25.3-25.3,38-55.3,38-90C2118,794.7,2105.5,764.5,2080.5,739.5z M1107-279
	c-31.3-31.3-69-47-113-47s-81.7,15.7-113,47c-31.3,31.3-47,69-47,113s15.7,81.7,47,113c31.3,31.3,69,47,113,47s81.7-15.7,113-47
	c31.3-31.3,47-69,47-113S1138.3-247.7,1107-279z M2286.5,241.5c-25-25-55.2-37.5-90.5-37.5c-35.3,0-65.5,12.5-90.5,37.5
	S2068,296.7,2068,332s12.5,65.5,37.5,90.5s55.2,37.5,90.5,37.5c35.3,0,65.5-12.5,90.5-37.5s37.5-55.2,37.5-90.5
	S2311.5,266.5,2286.5,241.5z M1628-508c-37.3-37.3-82.7-56-136-56c-53.3,0-98.7,18.7-136,56c-37.3,37.3-56,82.7-56,136
	s18.7,98.7,56,136c37.3,37.3,82.7,56,136,56c53.3,0,98.7-18.7,136-56c37.3-37.3,56-82.7,56-136S1665.3-470.7,1628-508z M2148-324
	c-44-44-96.7-66-158-66c-62,0-114.8,22-158.5,66s-65.5,96.7-65.5,158c0,62,21.8,114.8,65.5,158.5S1928,58,1990,58
	c61.3,0,114-21.8,158-65.5s66-96.5,66-158.5C2214-227.3,2192-280,2148-324z"/>
</svg>
