<svg xmlns="http://www.w3.org/2000/svg" x="0px" y="0px" viewBox="596 -596 1792 1792" style="enable-background:new 596 -596 1792 1792;">
<path d="M2102,725l-185,185c-8,8-21.7,15.3-41,22V684h248C2117.3,703.3,2110,717,2102,725z M1776,584c-18.7,18.7-28,41.3-28,68v288
	H852V-340h1280v896h-288C1817.3,556,1794.7,565.3,1776,584z M2232-440c-18.7-18.7-41.3-28-68-28H820c-26.7,0-49.3,9.3-68,28
	s-28,41.3-28,68V972c0,26.7,9.3,49.3,28,68c18.7,18.7,41.3,28,68,28h1024c26.7,0,56-6.7,88-20s57.3-29.3,76-48l184-184
	c18.7-18.7,34.7-44,48-76c13.3-32,20-61.3,20-88V-372C2260-398.7,2250.7-421.3,2232-440z"/>
</svg>
