<svg xmlns="http://www.w3.org/2000/svg" x="0px" y="0px" viewBox="596 -596 1792 1792" style="enable-background:new 596 -596 1792 1792;">
<path d="M2353,812l35,313c2,18.7-3.3,35.3-16,50c-12.7,14-28.7,21-48,21H660c-19.3,0-35.3-7-48-21c-12.7-14.7-18-31.3-16-50l35-313
	H2353z M2260-27l86,775H638l86-775c2-16,9-29.5,21-40.5S771.3-84,788-84h256V44c0,35.3,12.5,65.5,37.5,90.5s55.2,37.5,90.5,37.5
	c35.3,0,65.5-12.5,90.5-37.5S1300,79.3,1300,44V-84h384V44c0,35.3,12.5,65.5,37.5,90.5s55.2,37.5,90.5,37.5s65.5-12.5,90.5-37.5
	S1940,79.3,1940,44V-84h256c16.7,0,31,5.5,43,16.5S2258-43,2260-27z M1876-212V44c0,17.3-6.3,32.3-19,45s-27.7,19-45,19
	s-32.3-6.3-45-19s-19-27.7-19-45v-256c0-70.7-25-131-75-181s-110.3-75-181-75c-70.7,0-131,25-181,75s-75,110.3-75,181V44
	c0,17.3-6.3,32.3-19,45c-12.7,12.7-27.7,19-45,19c-17.3,0-32.3-6.3-45-19c-12.7-12.7-19-27.7-19-45v-256
	c0-106,37.5-196.5,112.5-271.5S1386-596,1492-596s196.5,37.5,271.5,112.5S1876-318,1876-212z"/>
</svg>
