<svg xmlns="http://www.w3.org/2000/svg" x="0px" y="0px" viewBox="596 -596 1792 1792" style="enable-background:new 596 -596 1792 1792;">
<path d="M1864,598.5c-22,39-51.5,70.2-88.5,93.5s-77.8,41.2-122.5,53.5c-44.7,12.3-91.3,18.5-140,18.5c-112.7,0-209.7-21.8-291-65.5
	c-81.3-43.7-122-96.2-122-157.5c0-30,8.5-55,25.5-75s42.2-30,75.5-30c19.3,0,37.3,5.3,54,16c16.7,10.7,32,23.5,46,38.5
	s29.2,30,45.5,45c16.3,15,38,27.8,65,38.5c27,10.7,57.5,16,91.5,16c43.3,0,78.3-8.5,105-25.5c26.7-17,40-38.5,40-64.5
	c0-26.7-10.7-46.7-32-60c-14.7-9.3-52-21.3-112-36l-146-36c-40-9.3-74.3-20.2-103-32.5s-55.3-28.5-80-48.5s-43.3-45.2-56-75.5
	s-19-65.8-19-106.5c0-48.7,11.2-91.5,33.5-128.5s52-66,89-87s76.8-36.7,119.5-47c42.7-10.3,86.7-15.5,132-15.5
	c64,0,124.7,7.7,182,23c57.3,15.3,104.7,37.8,142,67.5c37.3,29.7,56,62.8,56,99.5c0,30-9.5,55.7-28.5,77s-44.2,32-75.5,32
	c-17.3,0-33.3-4-48-12c-14.7-8-28-17.7-40-29s-24.7-22.5-38-33.5c-13.3-11-31.3-20.5-54-28.5c-22.7-8-48.3-12-77-12
	c-96,0-144,25.7-144,77c0,11.3,2.5,21.3,7.5,30s10.5,15.7,16.5,21s16,10.7,30,16s25.7,9.2,35,11.5c9.3,2.3,24,5.8,44,10.5l104,24
	c32.7,7.3,61.8,15,87.5,23c25.7,8,53.2,19.3,82.5,34c29.3,14.7,53.7,31,73,49s35.5,40.8,48.5,68.5s19.5,58.2,19.5,91.5
	C1897,515.7,1886,559.5,1864,598.5z M2180,450c10.7-51.3,16-101.3,16-150c0-95.3-18.5-186.5-55.5-273.5s-87-162-150-225
	s-138-113-225-150S1587.3-404,1492-404c-48.7,0-98.7,5.3-150,16c-69.3-53.3-147.3-80-234-80c-106,0-196.5,37.5-271.5,112.5
	S724-190,724-84c0,86.7,26.7,164.7,80,234c-10.7,51.3-16,101.3-16,150c0,95.3,18.5,186.5,55.5,273.5s87,162,150,225s138,113,225,150
	s178.2,55.5,273.5,55.5c48.7,0,98.7-5.3,150-16c69.3,53.3,147.3,80,234,80c106,0,196.5-37.5,271.5-112.5S2260,790,2260,684
	C2260,597.3,2233.3,519.3,2180,450z"/>
</svg>
