<svg xmlns="http://www.w3.org/2000/svg" x="0px" y="0px" viewBox="596 -596 1792 1792" style="enable-background:new 596 -596 1792 1792;">
<path d="M2021-229c31.3,31.3,47,69,47,113v832c0,44-15.7,81.7-47,113c-31.3,31.3-69,47-113,47h-832c-44,0-81.7-15.7-113-47
	s-47-69-47-113v-832c0-44,15.7-81.7,47-113s69-47,113-47h832C1952-276,1989.7-260.3,2021-229z M2111.5-319.5
	c-56.3-56.3-124.2-84.5-203.5-84.5h-832c-79.3,0-147.2,28.2-203.5,84.5S788-195.3,788-116v832c0,79.3,28.2,147.2,84.5,203.5
	S996.7,1004,1076,1004h832c79.3,0,147.2-28.2,203.5-84.5c56.3-56.3,84.5-124.2,84.5-203.5v-832
	C2196-195.3,2167.8-263.2,2111.5-319.5z"/>
</svg>
