<svg xmlns="http://www.w3.org/2000/svg" x="0px" y="0px" viewBox="596 -596 1792 1792" style="enable-background:new 596 -596 1792 1792;" xml:space="preserve">
<path d="M1975,616.5c-57.3,85-132,150.2-2247,65-293,59c-78-4.7-151.8-23.8-221.5-57.5c-69.7-33.7-128.8-77.3-177.5-131
	c-48.7-53.7-86.3-116.7-113-189c-26.7-72.3-37.7-147.8-33-226.5c4.7-78,24.5-151.5,59.5-220.5s80-127.3,135-175
	c55-47.7,119-84.5,192-110.5s148.2-36.7,225.5-32c78,4.7,151.7,23.8,221,57.5s128.3,77.3,177,131c48.7,53.7,86.3,116.7,113,189
	c26.7,72.3,37.7,147.8,33,226.5C2063.7,437,2032.3,531.5,1975,616.5z M1888-530c-222,29.3-388.7,51.3-500,66
	c-121.3,16.7-232.2,58.2-332.5,124.5S874.7-188,814-84s-94.7,217.3-102,340c-6.7,110.7,10.2,217.8,50.5,321.5S863,771.7,943,849
	l-347,347l999-132c121.3-16.7,232-58.2,332-124.5S2107.3,788,2168,684c60.7-104,94.7-217,102-339c6.7-110.7-10.2-217.7-50.5-321
	C2179.2-79.3,2119-170,2039-248l349-348C2276.7-581.3,2110-559.3,1888-530z"/>
</svg>
