<svg xmlns="http://www.w3.org/2000/svg" x="0px" y="0px" viewBox="596 -596 1792 1792" style="enable-background:new 596 -596 1792 1792;">
<path d="M1251.5,627c-53,52.7-116.8,79-191.5,79s-138.3-26.3-191-79c-52.7-52.7-79-116.3-79-191s26.3-138.5,79-191.5
	c52.7-53,116.3-79.5,191-79.5s138.5,26.5,191.5,79.5S1331,361.3,1331,436S1304.5,574.3,1251.5,627z M2115,626.5
	c-52.7,53-116.3,79.5-191,79.5s-138.5-26.3-191.5-79c-53-52.7-79.5-116.7-79.5-192c0-74.7,26.5-138.3,79.5-191s116.8-79,191.5-79
	s138.3,26.3,191,79c52.7,52.7,79,116.3,79,191S2167.7,573.5,2115,626.5z M2484.5-449.5c-21-21-46.5-31.5-76.5-31.5h-431
	c-29.3,0-54.7,10.5-76,31.5s-32,46.2-32,75.5v161h-754v-161c0-29.3-10.7-54.5-32-75.5c-21.3-21-46.7-31.5-76-31.5H576
	c-30,0-55.5,10.5-76.5,31.5S468-403.3,468-374V974c0,29.3,10.5,54.5,31.5,75.5S546,1081,576,1081h1832c30,0,55.5-10.5,76.5-31.5
	s31.5-46.2,31.5-75.5V-374C2516-403.3,2505.5-428.5,2484.5-449.5z"/>
</svg>
