<svg xmlns="http://www.w3.org/2000/svg" x="0px" y="0px" viewBox="596 -596 1792 1792" style="enable-background:new 596 -596 1792 1792;">
<path d="M2369,31l-512-512c-12.7-12.7-27.7-19-45-19s-32.3,6.3-45,19s-19,27.7-19,45v256h-224c-475.3,0-767,134.3-875,403
	c-35.3,89.3-53,200.3-53,333c0,110.7,42.3,261,127,451c2,4.7,5.5,12.7,10.5,24c5,11.3,9.5,21.3,13.5,30s8.3,16,13,22
	c8,11.3,17.3,17,28,17c10,0,17.8-3.3,23.5-10s8.5-15,8.5-25c0-6-0.8-14.8-2.5-26.5S815,1019,815,1015c-3.3-45.3-5-86.3-5-123
	c0-67.3,5.8-127.7,17.5-181c11.7-53.3,27.8-99.5,48.5-138.5c20.7-39,47.3-72.7,80-101c32.7-28.3,67.8-51.5,105.5-69.5
	c37.7-18,82-32.2,133-42.5s102.3-17.5,154-21.5c51.7-4,110.2-6,175.5-6h224v256c0,17.3,6.3,32.3,19,45c12.7,12.7,27.7,19,45,19
	s32.3-6.3,45-19l512-512c12.7-12.7,19-27.7,19-45S2381.7,43.7,2369,31z"/>
</svg>
