<svg xmlns="http://www.w3.org/2000/svg" x="0px" y="0px" viewBox="596 -596 1792 1792" style="enable-background:new 596 -596 1792 1792;">
<path d="M2137,460c28-4.7,63.5-10.7,106.5-18s69.8-12,80.5-14c59.3-10,109.3-23.5,150-40.5s68.5-32.8,83.5-47.5s22.5-28,22.5-40
	s-7.5-25.3-22.5-40s-42.8-30.5-83.5-47.5c-40.7-17-90.7-30.5-150-40.5c-10.7-2-37.5-6.7-80.5-14s-78.5-13.3-106.5-18H1024
	c-73.3-42.7-162.7-64-268-64H628v64h-64c-8.7,0-16.2,7.8-22.5,23.5S532,198,532,220c0,16,2.3,32.3,7,49
	c-38.7,1.3-70.8,4.8-96.5,10.5S404,292,404,300s12.8,14.8,38.5,20.5s57.8,9.2,96.5,10.5c-4.7,16.7-7,33-7,49c0,22,3.2,40.8,9.5,56.5
	S555.3,460,564,460h64v64h128c105.3,0,194.7-21.3,268-64H2137z M2224,178c45.3,32,68,72.7,68,122s-22.7,90-68,122l-81-30
	c35.3-24,53-54.7,53-92s-17.7-68-53-92L2224,178z M756,540h-29l93,464h96c30,0,59.8-6.3,89.5-19c29.7-12.7,53.2-27.7,70.5-45
	l288-288l28-24c18-16,45.7-32,83-48s75-24,113-24c159.3-28,311.3-54.7,456-80H1029C951.7,518.7,860.7,540,756,540z M1029,124h1015
	l-456-80c-24,0-48.2-3.5-72.5-10.5s-44.8-14.7-61.5-23s-32.8-18-48.5-29c-15.7-11-25.8-18.7-30.5-23c-4.7-4.3-8.3-7.8-11-10.5
	l-288-288c-17.3-17.3-40.7-32.3-70-45c-29.3-12.7-59.3-19-90-19h-96L727,60h29C860.7,60,951.7,81.3,1029,124z"/>
</svg>
