<svg xmlns="http://www.w3.org/2000/svg" x="0px" y="0px" viewBox="596 -596 1792 1792" style="enable-background:new 596 -596 1792 1792;">
<path d="M1509.5,454l-204-296l184-267h125v-168h-257l-140,228l-25,42c-5.3,8-9,15-11,21h-3c-2-8-5.7-15-11-21
	c-14-25.3-21.7-39.3-23-42l-139-228h-276v168h137l185,272l-197,291h-128v167h258l155-250c10-16,18.3-30.7,25-44l9-21h3
	c2,8,5.7,15,11,21l24,42l159,252h248V454H1509.5z M2131.5,671v80h-232c2.7-26,16.3-50.3,41-73s53.7-43.7,87-63
	c33.3-19.3,66.5-40.2,99.5-62.5s61-51,84-86s34.5-74.5,34.5-118.5c0-66-22.7-118.8-68-158.5c-45.3-39.7-104.7-59.5-178-59.5
	c-72,0-134.7,21.7-188,65c-24.7,19.3-45.7,41.3-63,66l105,92c14.7-18,26.7-30.7,36-38c30.7-26,63-39,97-39
	c27.3,0,50.8,8.2,70.5,24.5c19.7,16.3,29.5,37.2,29.5,62.5c0,22-8.7,43.3-26,64c-17.3,20.7-39,38.7-65,54c-26,15.3-54,33.5-84,54.5
	s-58,42.7-84,65s-47.7,51.2-65,86.5s-26,74.3-26,117c0,0.7,1,16,3,46l4,27h514V671H2131.5z"/>
</svg>
