<svg xmlns="http://www.w3.org/2000/svg" x="0px" y="0px" viewBox="596 -596 1792 1792" style="enable-background:new 596 -596 1792 1792;">
<path d="M724-565h1536V827l-776,338L724,827V-565z M2160,762v-926H824v926l661,294L2160,762z M2160-264v-201H824v201H2160z M905,34
	v115h-37V34H905z M905,182v115h-37V182H905z M905,330v115h-37V330H905z M905,478v115h-37V478H905z M905,626v115h-37V626H905z
	 M931,769l15-34l105,47l-15,33L931,769z M1067,829l15-34l105,46l-15,34L1067,829z M1202,889l15-34l105,46l-15,34L1202,889z
	 M1338,948l15-33l104,46l-15,34L1338,948z M1521,961l105-46l15,33l-105,47L1521,961z M1656,901l105-46l15,34l-105,46L1656,901z
	 M1792,841l105-46l15,34l-105,46L1792,841z M1927,782l105-47l15,34l-105,46L1927,782z M983-418v36H869v-36H983z M1145-418v36h-115
	v-36H1145z M1307-418v36h-115v-36H1307z M1468-418v36h-114v-36H1468z M1630-418v36h-114v-36H1630z M1792-418v36h-115v-36H1792z
	 M1954-418v36h-115v-36H1954z M2115-418v36h-114v-36H2115z M905-78V1h-37v-115h115v36H905z M1145-114v36h-115v-36H1145z M1307-114
	v36h-115v-36H1307z M1468-114v36h-114v-36H1468z M1630-114v36h-114v-36H1630z M1792-114v36h-115v-36H1792z M1954-114v36h-115v-36
	H1954z M2079,1v-79h-78v-36h115V1H2079z M2079,149V34h37v115H2079z M2079,297V182h37v115H2079z M2079,445V330h37v115H2079z
	 M2079,593V478h37v115H2079z M2079,741V626h37v115H2079z M1484,706c-86,0-159.7-30.5-221-91.5s-92-134.8-92-221.5
	c0-86,30.7-159.7,92-221s135-92,221-92c86.7,0,160.5,30.7,221.5,92s91.5,135,91.5,221c0,86.7-30.5,160.5-91.5,221.5
	S1570.7,706,1484,706z M1319,325c0,24,6.5,42.8,19.5,56.5s29.5,22,49.5,25s41.3,5.3,64,7s44,2.3,64,2s36.5,2.7,49.5,9
	S1585,441,1585,455c0,32.7-37.3,49-112,49c-64.7,0-105.7-17-123-51h-3l-31,63c44.7,28,98.7,42,162,42c19.3,0,38.2-1.7,56.5-5
	s36.8-8.7,55.5-16s33.8-18.3,45.5-33s17.5-32.3,17.5-53c0-30.7-9.2-53.8-27.5-69.5c-18.3-15.7-40.8-24.7-67.5-27s-53.2-3.3-79.5-3
	s-48.7-1.3-67-5S1384,334.3,1384,321c0-14,6.8-25,20.5-33s27.2-13,40.5-15s27-3,41-3c22.7,0,46.2,3.7,70.5,11s41.5,18.7,51.5,34h3
	l30-58c-2-0.7-9-3.5-21-8.5s-19.5-8-22.5-9s-9.5-3.3-19.5-7s-17.3-6-22-7s-11.3-2.5-20-4.5s-16.7-3.3-24-4s-15-1-23-1
	c-19.3,0-38.2,1.7-56.5,5s-36.3,8.8-54,16.5s-32,19-43,34S1319,304.3,1319,325z"/>
</svg>
