<svg xmlns="http://www.w3.org/2000/svg" x="0px" y="0px" viewBox="596 -596 1792 1792" style="enable-background:new 596 -596 1792 1792;">
<path d="M1941.5,749.5c-41.7,41.7-91.8,62.5-150.5,62.5c-58.7,0-109-20.8-151-62.5s-63-91.8-63-150.5c0-4.7,0.7-12.3,2-23l-241-120
	c-41.3,38-89.7,57-145,57c-58.7,0-108.8-20.8-150.5-62.5C1000.8,408.8,980,358.7,980,300s20.8-108.8,62.5-150.5S1134.3,87,1193,87
	c55.3,0,103.7,19,145,57l241-120c-1.3-10.7-2-18.3-2-23c0-58.7,21-108.8,63-150.5s92.3-62.5,151-62.5s108.8,20.8,150.5,62.5
	S2004-57.7,2004,1s-20.8,109-62.5,151s-91.8,63-150.5,63c-56,0-104.3-19.3-145-58l-241,120c1.3,10.7,2,18.3,2,23s-0.7,12.3-2,23
	l241,120c40.7-38.7,89-58,145-58c58.7,0,108.8,21,150.5,63s62.5,92.3,62.5,151C2004,657.7,1983.2,707.8,1941.5,749.5z M2175.5-383.5
	c-56.3-56.3-124.2-84.5-203.5-84.5h-960c-79.3,0-147.2,28.2-203.5,84.5S724-259.3,724-180v960c0,79.3,28.2,147.2,84.5,203.5
	c56.3,56.3,124.2,84.5,203.5,84.5h960c79.3,0,147.2-28.2,203.5-84.5c56.3-56.3,84.5-124.2,84.5-203.5v-960
	C2260-259.3,2231.8-327.2,2175.5-383.5z"/>
</svg>
