<svg xmlns="http://www.w3.org/2000/svg" x="0px" y="0px" viewBox="596 -596 1792 1792" style="enable-background:new 596 -596 1792 1792;">
<path d="M1866,620c-1.3,3.3-3.3,11.7-6,25c-2.7,13.3-6.3,23.3-11,30c-4.7,6.7-12.3,10-23,10c-8.7,0-21.5-1.3-38.5-4
	c-17-2.7-30.2-4-39.5-4c-23.3,0-45.7,5-67,15c-21.3,10-39.2,20.8-53.5,32.5c-14.3,11.7-33.5,22.5-57.5,32.5s-50.3,15-79,15
	c-27.3,0-52.8-5-76.5-15c-23.7-10-42.8-20.8-57.5-32.5c-14.7-11.7-32.7-22.5-54-32.5c-21.3-10-43.7-15-67-15
	c-9.3,0-22.5,1.5-39.5,4.5S1167,686,1159,686c-10.7,0-18.5-3.2-23.5-9.5c-5-6.3-8.8-16.5-11.5-30.5s-4.7-22.7-6-26
	c-91.3-14.7-137-37.3-137-68c0-14.7,7.3-23.7,22-27c89.3-19.3,155.3-75,198-167c4.7-12.7,7-21,7-25c0-10-6.5-18.7-19.5-26
	s-27.3-13-43-17s-30-10.8-43-20.5S1083,248,1083,234c0-13.3,5.8-24,17.5-32s24.5-12,38.5-12c6.7,0,16.7,2.5,30,7.5s24,7.5,32,7.5
	c6.7,0,11.3-0.7,14-2c-3.3-63.3-5-101.3-5-114c0-52.7,5.7-90.7,17-114c50.7-110,142.3-165,275-165c56.7,0,107.3,14.5,152,43.5
	c44.7,29,79,69.5,103,121.5c11.3,23.3,17,61.3,17,114c0,12.7-1.7,50.7-5,114c5.3,1.3,9.3,2,12,2c7.3,0,17.7-2.7,31-8s24-8,32-8
	c13.3,0,26.2,4.2,38.5,12.5s18.5,18.8,18.5,31.5c0,14.7-6.5,26.8-19.5,36.5s-27.3,16.5-43,20.5s-30,9.7-43,17s-19.5,16-19.5,26
	c0,4,2.3,12.3,7,25c19.3,42.7,46,78.7,80,108s73.3,49,118,59c14.7,3.3,22,12.3,22,27C2003,582.7,1957.3,605.3,1866,620z M2157-85.5
	c-68.7-117.7-161.8-210.8-279.5-279.5S1631.3-468,1492-468s-267.8,34.3-385.5,103S895.7-203.2,827-85.5S724,160.7,724,300
	s34.3,267.8,103,385.5S988.8,896.3,1106.5,965s246.2,103,385.5,103s267.8-34.3,385.5-103s210.8-161.8,279.5-279.5
	c68.7-117.7,103-246.2,103-385.5S2225.7,32.2,2157-85.5z"/>
</svg>
