<svg xmlns="http://www.w3.org/2000/svg" x="0px" y="0px" viewBox="596 -596 1792 1792" style="enable-background:new 596 -596 1792 1792;">
<path d="M873,529v66c0,56.7,19.2,104.8,57.5,144.5S1015,799,1069,799h529v269l260-269h57c54,0,100.2-19.8,138.5-59.5
	c38.3-39.7,57.5-87.8,57.5-144.5v-66H873z M873,203v255h1238V203H873z M873-125v255h1238v-255H873z M2053.5-408.5
	C2015.2-448.2,1969-468,1915-468h-846c-54,0-100.2,19.8-138.5,59.5S873-321,873-265v67h1238v-67C2111-321,2091.8-368.8,2053.5-408.5
	z"/>
</svg>
