<svg xmlns="http://www.w3.org/2000/svg" x="0px" y="0px" viewBox="596 -596 1792 1792" style="enable-background:new 596 -596 1792 1792;" xml:space="preserve">
<path d="M2268,492c8.7-15.3,11.5-30.8,8.5-46.5s-25.5-40s-30.7-14.5-50-10.5l-310,62l-271-157l271-157l310,62
	c2.7,0.7,7,1,13,1c18,0,32.7-6,44-18c11.3-12,17.7-25.3,19-40c1.3-14.7-2.3-29-11-43c-8.7-14-22-22.7-40-26l-167-33l186-107
	c15.3-8.7,25.2-21.5,29.5-38.5c4.3-17,2.2-33.2-6.5-48.5c-9.3-15.3-22.3-25.2-39-29.5c-16.7-4.3-32.7-2.2-48,6.5L1995-65l55-160
	c8.7-25.3,4.7-46.5-12-63.5c-16.7-17-36.8-23.8-60.5-20.5s-39.8,17.3-48.5,42L1827,33l-271,156v-313l208-238c10.7-12,16.3-25,17-39
	s-3-26.2-11-36.5s-17.5-18.7-28.5-25s-23.3-8.2-37-5.5s-25.8,10-36.5,22l-112,128v-214c0-17.3-6.3-32.3-19-45
	c-12.7-12.7-27.7-19-45-19c-17.3,0-32.3,6.3-45,19c-12.7,12.7-19,27.7-19,45v214l-112-128c-10.7-12-22.8-19.3-36.5-22
	c-13.7-2.7-26-0.8-37,5.5s-20.5,14.7-28.5,25s-11.7,22.5-11,36.5c0.7,14,6.3,27,17,39l208,238v313L1157,33l-102-300
	c-8.7-24.7-24.8-38.7-48.5-42s-43.8,3.5-60.5,20.5c-16.7,17-20.7,38.2-12,63.5l55,160L803-171c-14.7-9.3-30.7-11.7-48-7
	s-30.3,14.7-39,30s-10.8,31.5-6.5,48.5S723.7-69.7,739-61L925,46L758,79c-18,3.3-31.3,12-40,26s-12.3,28.3-11,43s7.7,28,19,40
	s26,18,44,18c6,0,10.3-0.3,13-1l310-62l271,157l-271,157l-310-62c-19.3-4-36-0.5-50,10.5s-22.5,24.3-25.5,40s-0.2,31.2,8.5,46.5
	s22.7,25,42,29l167,33L739,661c-15.3,8.7-25.2,21.5-29.5,38.5s-2.2,33.2,6.5,48.5c9.3,15.3,22.3,25.2,39,29.5s32.7,2.2,48-6.5
	l186-106l-55,160c-8.7,25.3-4.7,46.5,12,63.5c16.7,17,36.8,23.8,60.5,20.5s39.8-17.3,48.5-42l102-300l271-156v313l-208,238
	c-10.7,12-16.3,25-17,39c-0.7,14,3,26.2,11,36.5s17.5,18.7,28.5,25s23.3,8.2,37,5.5c13.7-2.7,25.8-10,36.5-22l112-128v214
	c0,17.3,6.3,32.3,19,45c12.7,12.7,27.7,19,45,19c17.3,0,32.3-6.3,45-19c12.7-12.7,19-27.7,19-45V918l112,128
	c10.7,12,22.8,19.3,36.5,22s26,0.8,37-5.5s20.5-14.7,28.5-25s11.7-22.5,11-36.5s-6.3-27-17-39l-208-238V411l271,156l102,300
	c8.7,24.7,24.8,38.7,48.5,42s43.8-3.5,60.5-20.5c16.7-17,20.7-38.2,12-63.5l-55-160l186,106c15.3,8.7,31.3,10.8,48,6.5
	c16.7-4.3,29.7-14.2,39-29.5c8.7-15.3,10.8-31.5,6.5-48.5c-4.3-17-14.2-29.8-29.5-38.5l-186-107l167-33
	C2245.3,517,2259.3,507.3,2268,492z"/>
</svg>
