<svg xmlns="http://www.w3.org/2000/svg" x="0px" y="0px" viewBox="596 -596 1792 1792" style="enable-background:new 596 -596 1792 1792;">
<path d="M2047,492c-12.7-5.3-24.3-2.7-35,8c-17.3,16-35.3,28.3-54,37c-12,6.7-18,16.3-18,29v214c0,44-15.7,81.7-47,113
	s-69,47-113,47H948c-44,0-81.7-15.7-113-47s-47-69-47-113V-52c0-44,15.7-81.7,47-113s69-47,113-47h112c4,0,9.3-1.3,16-4
	c37.3-22.7,81.7-42.7,133-60c17.3-3.3,26-14,26-32c0-8.7-3.2-16.2-9.5-22.5c-6.3-6.3-13.8-9.5-22.5-9.5l0,0H948
	c-79.3,0-147.2,28.2-203.5,84.5S660-131.3,660-52v832c0,79.3,28.2,147.2,84.5,203.5c56.3,56.3,124.2,84.5,203.5,84.5h832
	c79.3,0,147.2-28.2,203.5-84.5c56.3-56.3,84.5-124.2,84.5-203.5V521C2068,507.7,2061,498,2047,492z M2324-20c0-17.3-6.3-32.3-19-45
	l-384-384c-12.7-12.7-27.7-19-45-19c-8,0-16.3,1.7-25,5c-26,11.3-39,31-39,59v192h-160c-70.7,0-136.2,3.7-196.5,11
	c-60.3,7.3-113.5,17.5-159.5,30.5s-87.5,29.2-124.5,48.5S1103-82.2,1077-60.5s-48.8,46.3-68.5,74s-35.3,54.8-47,81.5
	c-11.7,26.7-21,56-28,88s-11.7,62-14,90c-2.3,28-3.5,58.3-3.5,91c0,37.3,5.8,78,17.5,122c11.7,44,24.5,82,38.5,114
	s30.5,65.2,49.5,99.5c19,34.3,32.2,57.2,39.5,68.5c7.3,11.3,14.3,21.7,21,31c6.7,8.7,15.3,13,26,13c2.7,0,6.7-0.7,12-2
	c15.3-7.3,22-18.7,20-34c-30-224-5.3-381.7,74-473c76.7-87.3,222.7-131,438-131h160v192c0,28,13,47.7,39,59c8.7,3.3,17,5,25,5
	c18,0,33-6.3,45-19l384-384C2317.7,12.3,2324-2.7,2324-20z"/>
</svg>
