<svg xmlns="http://www.w3.org/2000/svg" x="0px" y="0px" viewBox="596 -596 1792 1792" style="enable-background:new 596 -596 1792 1792;">
<path d="M596,172c-35.3,0-65.5,12.5-90.5,37.5S468,264.7,468,300s12.5,65.5,37.5,90.5S560.7,428,596,428h15l115,662
	c5.3,30.7,20,56,44,76s51.3,30,82,30h1280c30.7,0,58-10,82-30s38.7-45.3,44-76l115-662h15c35.3,0,65.5-12.5,90.5-37.5
	s37.5-55.2,37.5-90.5s-12.5-65.5-37.5-90.5S2423.3,172,2388,172H596z M948,972c-16.7,0-31.2-5.7-43.5-17
	c-12.3-11.3-19.2-25.3-20.5-42l-32-416c-1.3-17.3,3.8-32.8,15.5-46.5c11.7-13.7,26.2-21.2,43.5-22.5c17.3-1.3,32.8,3.8,46.5,15.5
	c13.7,11.7,21.2,26.2,22.5,43.5l32,416c1.3,17.3-3.8,32.8-15.5,46.5S970.3,970.7,953,972H948z M1345,953c-12.7,12.7-27.7,19-45,19
	c-17.3,0-32.3-6.3-45-19c-12.7-12.7-19-27.7-19-45V492c0-17.3,6.3-32.3,19-45c12.7-12.7,27.7-19,45-19c17.3,0,32.3,6.3,45,19
	c12.7,12.7,19,27.7,19,45v416C1364,925.3,1357.7,940.3,1345,953z M1729,953c-12.7,12.7-27.7,19-45,19s-32.3-6.3-45-19
	s-19-27.7-19-45V492c0-17.3,6.3-32.3,19-45s27.7-19,45-19s32.3,6.3,45,19s19,27.7,19,45v416C1748,925.3,1741.7,940.3,1729,953z
	 M2079.5,955c-12.3,11.3-26.8,17-43.5,17h-5c-17.3-1.3-31.8-8.8-43.5-22.5s-16.8-29.2-15.5-46.5l32-416c1.3-17.3,8.8-31.8,22.5-43.5
	s29.2-16.8,46.5-15.5c17.3,1.3,31.8,8.8,43.5,22.5c11.7,13.7,16.8,29.2,15.5,46.5l-32,416C2098.7,929.7,2091.8,943.7,2079.5,955z
	 M989.5-376c23-18.7,49.5-28,79.5-28h167c0,17.3,6.3,32.3,19,45c12.7,12.7,27.7,19,45,19h384c17.3,0,32.3-6.3,45-19s19-27.7,19-45
	h167c30,0,56.5,9.3,79.5,28s38.2,42.7,45.5,72l93,412h132l-101-441c-12.7-58.7-42.3-106.5-89-143.5c-46.7-37-100-55.5-160-55.5h-167
	c0-17.3-6.3-32.3-19-45s-27.7-19-45-19h-384c-17.3,0-32.3,6.3-45,19c-12.7,12.7-19,27.7-19,45h-167c-60,0-113.3,18.5-160,55.5
	c-46.7,37-76.3,84.8-89,143.5L719,108h132l93-412C951.3-333.3,966.5-357.3,989.5-376z"/>
</svg>
