<svg xmlns="http://www.w3.org/2000/svg" x="0px" y="0px" viewBox="596 -596 1792 1792" style="enable-background:new 596 -596 1792 1792;">
<path d="M1812,588V12c0-9.3-3-17-9-23s-13.7-9-23-9h-576c-9.3,0-17,3-23,9s-9,13.7-9,23v576c0,9.3,3,17,9,23s13.7,9,23,9h576
	c9.3,0,17-3,23-9S1812,597.3,1812,588z M2260,300c0,139.3-34.3,267.8-103,385.5S1995.2,896.3,1877.5,965s-246.2,103-385.5,103
	s-267.8-34.3-385.5-103C988.8,896.3,895.7,803.2,827,685.5S724,439.3,724,300S758.3,32.2,827-85.5S988.8-296.3,1106.5-365
	c117.7-68.7,246.2-103,385.5-103s267.8,34.3,385.5,103S2088.3-203.2,2157-85.5S2260,160.7,2260,300z"/>
</svg>
