<svg xmlns="http://www.w3.org/2000/svg" x="0px" y="0px" viewBox="596 -596 1792 1792" style="enable-background:new 596 -596 1792 1792;">
<path d="M1556,236c17.3,0,32.3,6.3,45,19c12.7,12.7,19,27.7,19,45s-6.3,32.3-19,45c-12.7,12.7-27.7,19-45,19c-17.3,0-32.3-6.3-45-19
	c-12.7-12.7-19-27.7-19-45s6.3-32.3,19-45C1523.6,242.3,1538.6,236,1556,236z M1856,300l507,398c18.7,13.3,27,32,25,56
	c-3.3,23.3-15,40.3-35,51l-128,64c-8.7,4.7-18.3,7-29,7c-11.3,0-21.7-2.7-31-8l-690-387l-110,66c-5.3,2.7-9.3,4.3-12,5
	c9.3,32.7,12.7,65,10,97c-4.7,51.3-23.3,100.5-56,147.5c-32.7,47-76.7,88.2-132,123.5c-88,56-180.3,84-277,84
	c-90.7,0-164.7-26-222-78c-60-56-86.3-125-79-207c4.7-50.7,23.3-99.7,56-147c32.7-47.3,76.3-88.7,131-124c88-56,180.7-84,278-84
	c55.3,0,105.7,10.3,151,31c6-8.7,13.3-16,22-22l122-73l-122-73c-8.7-6-16-13.3-22-22c-45.3,20.7-95.7,31-151,31
	c-97.3,0-190-28-278-84c-54.7-35.3-98.3-76.7-131-124c-32.7-47.3-51.3-96.3-56-147c-3.3-39.3,1.8-77,15.5-113s34.8-67,63.5-93
	c56.7-52.7,130.7-79,222-79c96.7,0,189,28,277,84c55.3,34.7,99.3,75.7,132,123c32.7,47.3,51.3,96.7,56,148c2.7,32-0.7,64.3-10,97
	c2.7,0.7,6.7,2.3,12,5l110,66l690-387c9.3-5.3,19.7-8,31-8c10.7,0,20.3,2.3,29,7l128,64c20,10.7,31.7,27.7,35,51
	c2,24-6.3,42.7-25,56L1856,300z M1175,40c30.7-28,37.7-64,21-108c-16.7-44-52-83-106-117c-61.3-39.3-125.3-59-192-59
	c-49.3,0-87,12-113,36c-30.7,28-37.7,64-21,108s52,83,106,117c61.3,39.3,125.3,59,192,59C1111.3,76,1149,64,1175,40z M1090,785
	c54-34,89.3-73,106-117c16.7-44,9.7-80-21-108c-26-24-63.7-36-113-36c-66.7,0-130.7,19.7-192,59c-54,34-89.3,73-106,117
	s-9.7,80,21,108c26,24,63.7,36,113,36C964.6,844,1028.6,824.3,1090,785z M1268,172l96,58v-11c0-24,11-42.7,33-56l14-8l-79-47l-26,26
	c-2,2-5.3,5.7-10,11c-4.7,5.3-8.7,9.3-12,12c-1.3,1.3-2.7,2.5-4,3.5c-1.3,1-2.3,1.8-3,2.5L1268,172z M1492,396l96,32l736-576
	l-128-64l-768,431v113l-160,96l9,8c1.3,1.3,3.7,3.3,7,6c2.7,2.7,6.3,6.7,11,12c4.7,5.3,8.3,9.3,11,12l26,26L1492,396z M2196,812
	l128-64l-520-408l-177,138c-1.3,2-5.7,4.3-13,7L2196,812z"/>
</svg>
