<svg xmlns="http://www.w3.org/2000/svg" x="0px" y="0px" viewBox="596 -596 1792 1792" style="enable-background:new 596 -596 1792 1792;">
<path d="M1415.2,115.1c-16.7,22-22.7,46.5-18,73.5c4.7,27,18.7,48.2,42,63.5l186,125c13.3,8.7,17.5,20.7,12.5,36
	c-5,15.3-15.2,23-30.5,23c-0.7,0-1.7-0.2-3-0.5c-1.3-0.3-2.3-0.5-3-0.5l-217-37l-448-96c-9.3-1.3-16-2-20-2c-23.3,0-44,7.5-62,22.5
	s-29,34.5-33,58.5c-4,24.7,2,47.5,18,68.5s36.7,34.8,62,41.5l351,94l-481-60h-10c-24.7,0-46.5,7.5-65.5,22.5s-30.5,34.2-34.5,57.5
	c-4,27.3,2.3,51.7,19,73c16.7,21.3,38.7,33.7,66,37l521,64l-442,1c-26,0-49,8.7-69,26s-30.7,39-32,65c-1.3,27.3,7.5,51,26.5,71
	s42.2,30,69.5,30h448l-260,32c-25.3,3.3-47,14-65,32s-27,39.3-27,64c0,26.7,9.5,49.3,28.5,68s41.5,28,67.5,28h9l352-32l527-56
	c21.3-2.7,39.8-11.2,55.5-25.5s25.5-32.2,29.5-53.5l72-413c7.3-40-2.3-75.3-29-106l-146-170c-32.7-38-69.3-70.3-110-97l-222-148
	c-18-12-37.7-18-59-18C1458.5,77.1,1433.2,89.8,1415.2,115.1z M1366.2,194.1c-6-36,1.7-69,23-99c3.3-2.7,5-4,5-4l4-4l-142-147
	c-18-18.7-39.3-29.8-64-33.5c-24.7-3.7-47.3,2.2-68,17.5c-21.3,16.7-33.8,38-37.5,64c-3.7,26,2.5,49.3,18.5,70
	c0.7,0.7,1.5,1.8,2.5,3.5s1.8,2.8,2.5,3.5l238,262l36,38l5,2l218,37l-186-125C1390.5,258.5,1372.2,230.1,1366.2,194.1z
	 M2278.2-242.4c-18.7-19-41-28.5-67-28.5c-27.3,0.7-50.3,11-69,31c-18.7,20-27.3,43.7-26,71l12,224c0.7,10.7-3,19.3-11,26
	s-17,9.2-27,7.5s-17.7-7.5-23-17.5l-101-196l-193-415c-11.3-25.3-30-42.3-56-51s-51.3-6.7-76,6c-22.7,11.3-37.5,30-44.5,56
	s-5.5,50.7,4.5,74l136,337l-241-420c-13.3-22.7-32.5-38-57.5-46s-49.2-6-72.5,6c-24.7,12.7-40.5,32.3-47.5,59s-3.5,51.7,10.5,75
	l262,455l-266-352c-16-21.3-36.8-34.7-62.5-40c-25.7-5.3-49.5-0.7-71.5,14c-22.7,15.3-36.3,36.5-41,63.5c-4.7,27,1.3,51.5,18,73.5
	l235,312c24.7-24.7,54-37,88-37c28,0,53.3,7.7,76,23l222,148c42.7,28,81.7,62.3,117,103l146,170c27.3,31.3,40.3,67.7,39,109l106-54
	c36.7-18.7,59-47.7,67-87l48-219c10-49.3,13.7-98.3,11-147l-15-266C2306.8-200.9,2296.8-223.4,2278.2-242.4z"/>
</svg>
