<svg xmlns="http://www.w3.org/2000/svg" x="0px" y="0px" viewBox="596 -596 1792 1792" style="enable-background:new 596 -596 1792 1792;">
<path d="M1722,514l-360-180c1.3-14.7,2-26,2-34s-0.7-19.3-2-34l360-180c61.3,57.3,134,86,218,86c88.7,0,164.2-31.2,226.5-93.5
	S2260-59.3,2260-148s-31.2-164.2-93.5-226.5c-62.3-62.3-137.8-93.5-226.5-93.5s-164.2,31.2-226.5,93.5
	c-62.3,62.3-93.5,137.8-93.5,226.5c0,8,0.7,19.3,2,34L1262,66c-61.3-57.3-134-86-218-86c-88.7,0-164.2,31.2-226.5,93.5
	S724,211.3,724,300s31.2,164.2,93.5,226.5S955.3,620,1044,620c84,0,156.7-28.7,218-86l360,180c-1.3,14.7-2,26-2,34
	c0,88.7,31.2,164.2,93.5,226.5s137.8,93.5,226.5,93.5s164.2-31.2,226.5-93.5c62.3-62.3,93.5-137.8,93.5-226.5
	s-31.2-164.2-93.5-226.5c-62.3-62.3-137.8-93.5-226.5-93.5C1856,428,1783.3,456.7,1722,514z"/>
</svg>
