<svg xmlns="http://www.w3.org/2000/svg" x="0px" y="0px" viewBox="596 -596 1792 1792" style="enable-background:new 596 -596 1792 1792;">
<path d="M2044.4-239c-23.3,18-51.7,27-85,27c-45.3,0-80.2-12.7-104.5-38s-36.5-57-36.5-95s10.3-69.3,31-94s48.3-37,83-37
	c39.3,0,73.7,17.7,103,53c29.3,35.3,44,74,44,116C2079.4-279.7,2067.7-257,2044.4-239z M1460.4,821c-6-6-13.7-9-23-9h-192V-564
	c0-9.3-3-17-9-23s-13.7-9-23-9h-192c-9.3,0-17,3-23,9s-9,13.7-9,23V812h-192c-14.7,0-24.7,6.7-30,20c-5.3,12.7-3,24.3,7,35l320,320
	c7.3,6,15,9,23,9c8.7,0,16.3-3,23-9l319-319c6.7-8,10-16,10-24C1469.4,834.7,1466.4,827,1460.4,821z M2024.4,1082V428h-123l-192,185
	l82,86l62-58c12-12,20.7-22.3,26-31l7-12h2v16c0,3.3-0.2,9-0.5,17s-0.5,14.3-0.5,19v432h-167v114h469v-114H2024.4z M2137.4-501.5
	c-54.7-63-123-94.5-205-94.5c-72.7,0-133,24.3-181,73s-72,108-72,178c0,67.3,22.3,124.8,67,172.5c44.7,47.7,102.3,71.5,173,71.5
	c29.3,0,57.5-4.7,84.5-14s47.5-21.7,61.5-37h2c-10.7,58-32.8,106.5-66.5,145.5S1922.4,52,1866.4,52c-25.3,0-50.3-4.3-75-13
	c-10.7-2.7-21-6.3-31-11l-39,113c12,4.7,26,9.7,42,15c30.7,10.7,66.7,16,108,16c46,0,88.5-8.2,127.5-24.5s71.8-38.2,98.5-65.5
	c26.7-27.3,49.3-59.2,68-95.5c18.7-36.3,32.3-74.3,41-114c8.7-39.7,13-80.2,13-121.5C2219.4-354.3,2192.1-438.5,2137.4-501.5z"/>
</svg>
