<svg xmlns="http://www.w3.org/2000/svg" x="0px" y="0px" viewBox="596 -596 1792 1792" style="enable-background:new 596 -596 1792 1792;">
<path d="M1530,215v-54c0-12.7-4.5-23.7-13.5-33s-19.8-14-32.5-14c-13.3,0-24.5,4.7-33.5,14s-13.5,20.3-13.5,33v280
	c0,53.3-19.2,98.8-57.5,136.5C1341.2,615.2,1295,634,1241,634c-54.7,0-101.2-19-139.5-57s-57.5-84.3-57.5-139V316h151v120
	c0,13.3,4.5,24.5,13.5,33.5s19.8,13.5,32.5,13.5s23.7-4.5,33-13.5c9.3-9,14-20.2,14-33.5V153c0-52.7,19.3-97.5,58-134.5
	c38.7-37,84.7-55.5,138-55.5c53.3,0,99.3,18.7,138,56c38.7,37.3,58,82.3,58,135v62l-90,27L1530,215z M1865.5,577
	c-38.3,38-84.5,57-138.5,57s-100.3-19-139-57c-38.7-38-58-83.7-58-137V317l60,28l90-26v123c0,12.7,4.5,23.7,13.5,33s19.8,14,32.5,14
	c13.3,0,24.5-4.5,33.5-13.5s13.5-20.2,13.5-33.5V316h150v122C1923,492.7,1903.8,539,1865.5,577z M2157-85.5
	c-68.7-117.7-161.8-210.8-279.5-279.5S1631.3-468,1492-468s-267.8,34.3-385.5,103S895.7-203.2,827-85.5S724,160.7,724,300
	s34.3,267.8,103,385.5S988.8,896.3,1106.5,965s246.2,103,385.5,103s267.8-34.3,385.5-103s210.8-161.8,279.5-279.5
	c68.7-117.7,103-246.2,103-385.5S2225.7,32.2,2157-85.5z"/>
</svg>
