<svg xmlns="http://www.w3.org/2000/svg" x="0px" y="0px" viewBox="596 -596 1792 1792" style="enable-background:new 596 -596 1792 1792;">
<path d="M1909.9-406c2.7-8,5.2-17.7,7.5-29s3.5-17.3,3.5-18l3-20h4c0,2.7,0.7,9.3,2,20l12,47l72,218h-177L1909.9-406z M1372.9,821
	c-6-6-13.7-9-23-9h-192V-564c0-9.3-3-17-9-23s-13.7-9-23-9h-192c-9.3,0-17,3-23,9s-9,13.7-9,23V812h-192c-14.7,0-24.7,6.7-30,20
	c-5.3,12.7-3,24.3,7,35l320,320c7.3,6,15,9,23,9c8.7,0,16.3-3,23-9l319-319c6.7-8,10-16,10-24C1381.9,834.7,1378.9,827,1372.9,821z
	 M2096.9,963v119h-248c-14,0-24,0.7-30,2l-14,2v-2l11-11c10-12,17-20.7,21-26l369-530v-89h-567v229h120V542h232c12,0,22-1,30-3
	c2,0,4.5-0.2,7.5-0.5c3-0.3,5.2-0.5,6.5-0.5v3l-11,9c-6,6-13,15-21,27l-369,529v90h584V963H2096.9z M2236.9,66l-230-662h-162
	l-230,662h-70v106h287V66h-75l47-144h243l47,144h-75v106h288V66H2236.9z"/>
</svg>
