<svg xmlns="http://www.w3.org/2000/svg" x="0px" y="0px" viewBox="596 -596 1792 1792" style="enable-background:new 596 -596 1792 1792;">
<path d="M1953,810c-10,10-21.7,15-35,15h-93c-13.3,0-25-5-35-15s-15-21.7-15-35V42c0-14,5-26,15-36s21.7-15,35-15h93
	c13.3,0,25,5,35,15s15,22,15,36v733C1968,788.3,1963,800,1953,810z M1669,810c-10,10-21.7,15-35,15h-101c-13.3,0-25-5-35-15
	s-15-21.7-15-35V244c0-13.3,5-25,15-35s21.7-15,35-15h101c13.3,0,25,5,35,15s15,21.7,15,35v531C1684,788.3,1679,800,1669,810z
	 M1377,810c-10,10-21.7,15-35,15h-101c-13.3,0-25-5-35-15s-15-21.7-15-35V346c0-13.3,5-25,15-35s21.7-15,35-15h101
	c13.3,0,25,5,35,15s15,21.7,15,35v429C1392,788.3,1387,800,1377,810z M1085,810c-10,10-21.7,15-35,15H949c-13.3,0-25-5-35-15
	s-15-21.7-15-35V413c0-13.3,5-25,15-35s21.7-15,35-15h101c13.3,0,25,5,35,15s15,21.7,15,35v362C1100,788.3,1095,800,1085,810z
	 M2430,381.5c-57.3-73-131-120.5-221-142.5c9.3-37.3,14-78,14-122c0-99.3-24.5-191-73.5-275S2034-308.5,1950-357.5
	S1774.3-431,1675-431c-126,0-238.7,39-338,117c-99.3,78-164,178-194,300c-52-44.7-112-67-180-67c-75.3,0-139.8,26.8-193.5,80.5
	S689,117.7,689,193c0,26,3.3,50.3,10,73c-70,33.3-126,82.8-168,148.5S468,551.7,468,629c0,110.7,39.3,205.3,118,284
	s173.3,118,284,118h1244c110.7,0,205.3-39.3,284-118c78.7-78.7,118-173.3,118-284C2516,537,2487.3,454.5,2430,381.5z"/>
</svg>
