<svg xmlns="http://www.w3.org/2000/svg" x="0px" y="0px" viewBox="596 -596 1792 1792" style="enable-background:new 596 -596 1792 1792;">
<path d="M1172-596c-123.3,0-228.8,31.2-316.5,93.5S724-364.7,724-276v896c0,86.7,41.8,160.7,125.5,222s185.5,93.7,305.5,97l-213,202
	c-10.7,10-13.3,21.7-8,35s15.3,20,30,20h1056c14.7,0,24.7-6.7,30-20c5.3-13.3,2.7-25-8-35l-213-202c120-3.3,221.8-35.7,305.5-97
	c83.7-61.3,125.5-135.3,125.5-222v-896c0-88.7-43.8-164.2-131.5-226.5c-87.7-62.3-193.2-93.5-316.5-93.5H1172z M899,669
	c-31.3-31.3-47-69-47-113s15.7-81.7,47-113s69-47,113-47s81.7,15.7,113,47s47,69,47,113s-15.7,81.7-47,113c-31.3,31.3-69,47-113,47
	S930.3,700.3,899,669z M884,172v-512h544v512H884z M1859,669c-31.3-31.3-47-69-47-113s15.7-81.7,47-113s69-47,113-47
	s81.7,15.7,113,47c31.3,31.3,47,69,47,113s-15.7,81.7-47,113c-31.3,31.3-69,47-113,47S1890.3,700.3,1859,669z M1556,172v-512h576
	v512H1556z"/>
</svg>
