<svg xmlns="http://www.w3.org/2000/svg" x="0px" y="0px" viewBox="596 -596 1792 1792" style="enable-background:new 596 -596 1792 1792;">
<path d="M2049,153c-12.7,12.7-27.7,19-45,19s-32.3-6.3-45-19s-19-27.7-19-45s6.3-32.3,19-45s27.7-19,45-19s32.3,6.3,45,19
	c12.7,12.7,19,27.7,19,45S2061.7,140.3,2049,153z M2140-28c-37.3-37.3-82.7-56-136-56c-53.3,0-98.7,18.7-136,56s-56,82.7-56,136
	c0,41.3,11.8,78.3,35.5,111s54.5,56,92.5,70v395c0,70.7-31.3,131-94,181c-62.7,50-138,75-226,75s-163.3-25-226-75
	c-62.7-50-94-110.3-94-181V552c109.3-13.3,200.7-56,274-128c73.3-72,110-156,110-252v-512c0-17.3-6.3-32.3-19-45
	c-12.7-12.7-27.7-19-45-19c-4,0-9.3,0.7-16,2c-11.3-20-27-36-47-48s-41.7-18-65-18c-35.3,0-65.5,12.5-90.5,37.5S1364-375.3,1364-340
	s12.5,65.5,37.5,90.5s55.2,37.5,90.5,37.5c22,0,43.3-6,64-18v402c0,70.7-31.3,131-94,181c-62.7,50-138,75-226,75s-163.3-25-226-75
	s-94-110.3-94-181v-402c20.7,12,42,18,64,18c35.3,0,65.5-12.5,90.5-37.5s37.5-55.2,37.5-90.5s-12.5-65.5-37.5-90.5
	S1015.3-468,980-468c-23.3,0-45,6-65,18s-35.7,28-47,48c-6.7-1.3-12-2-16-2c-17.3,0-32.3,6.3-45,19s-19,27.7-19,45v512
	c0,96,36.7,180,110,252s164.7,114.7,274,128v132c0,106,43.8,196.5,131.5,271.5S1496.7,1068,1620,1068s228.8-37.5,316.5-112.5
	S2068,790,2068,684V289c38-14,68.8-37.3,92.5-70c23.7-32.7,35.5-69.7,35.5-111C2196,54.7,2177.3,9.3,2140-28z"/>
</svg>
