<svg xmlns="http://www.w3.org/2000/svg" x="0px" y="0px" viewBox="596 -596 1792 1792" style="enable-background:new 596 -596 1792 1792;">
<path d="M1680.5,488.5C1592.8,576.2,1487.3,620,1364,620s-228.8-43.8-316.5-131.5S916,295.3,916,172s43.8-228.8,131.5-316.5
	S1240.7-276,1364-276s228.8,43.8,316.5,131.5S1812,48.7,1812,172S1768.2,400.8,1680.5,488.5z M2287,914l-343-343
	c82.7-119.3,124-252.3,124-399c0-95.3-18.5-186.5-55.5-273.5s-87-162-150-225s-138-113-225-150S1459.3-532,1364-532
	c-95.3,0-186.5,18.5-273.5,55.5s-162,87-225,150s-113,138-150,225S660,76.7,660,172s18.5,186.5,55.5,273.5s87,162,150,225
	s138,113,225,150S1268.7,876,1364,876c146.7,0,279.7-41.3,399-124l343,342c24,25.3,54,38,90,38c34.7,0,64.7-12.7,90-38
	c25.3-25.3,38-55.3,38-90C2324,968.7,2311.7,938.7,2287,914z"/>
</svg>
