<svg xmlns="http://www.w3.org/2000/svg" x="0px" y="0px" viewBox="596 -596 1792 1792" style="enable-background:new 596 -596 1792 1792;">
<path d="M1725,177l195-58V-17c0-114.7-42-212.7-126-294s-184.7-122-302-122c-116.7,0-217.2,40.3-301.5,121
	C1106.2-231.3,1064-134,1064-20v620c0,28.7-10,52.8-30,72.5S990,702,962,702s-52-9.8-72-29.5s-30-43.8-30-72.5V338H532v266
	c0,118.7,41.8,219.8,125.5,303.5S842.3,1033,961,1033c118,0,219-41.3,303-124s126-182.3,126-299V-2c0-28,10-52,30-72s44-30,72-30
	s52,10,72,30s30,44,30,72v118L1725,177z M2124,613c0,28-10,51.8-30,71.5c-20,19.7-44,29.5-72,29.5s-52-9.8-72-29.5
	c-20-19.7-30-43.5-30-71.5V343l-195,58l-131-61v268c0,117.3,42,217.5,126,300.5s185,124.5,303,124.5c118.7,0,219.8-41.8,303.5-125.5
	C2410.2,823.8,2452,722.7,2452,604V338h-328V613z"/>
</svg>
