<svg xmlns="http://www.w3.org/2000/svg" x="0px" y="0px" viewBox="596 -596 1792 1792" style="enable-background:new 596 -596 1792 1792;">
<path d="M2133,252l-164,56L1864-8l157-54c29.3-10,54-27.2,74-51.5s30-51.5,30-81.5c0-39.3-14.2-72.2-42.5-98.5
	C2054.2-319.8,2020-333,1980-333c-14.7,0-29,2-43,6l-162,55l-53-161c-10-29.3-27.8-53.2-53.5-71.5S1614.3-532,1583-532
	c-39.3,0-73.2,14.3-101.5,43c-28.3,28.7-42.5,62.7-42.5,102c0,15.3,2.7,31,8,47l54,160L1191-75l-54-160c-10-30-27.7-54-53-72
	s-53.7-27-85-27c-40,0-74,14.2-102,42.5S855-229,855-189c0,15.3,2.7,31,8,47l53,159L759,70c-29.3,10-53.2,27.7-71.5,53
	S660,176.7,660,208c0,40,13.7,73.5,41,100.5S762,349,802,349c14.7,0,30.7-2.7,48-8l156-54l105,313l-156,53
	c-29.3,10-53.2,27.7-71.5,53c-18.3,25.3-27.5,53.7-27.5,85c0,40.7,13.5,74.3,40.5,101s60.8,40,101.5,40c14,0,30.7-3,50-9l153-53
	l55,163c10,30,27.7,54,53,72c25.3,18,53.7,27,85,27c40,0,74-14.3,102-43s42-62.7,42-102c0-15.3-2.7-31-8-47l-55-164l310-106l55,165
	c10,30,27.8,54,53.5,72s54.2,27,85.5,27c39.3,0,73-14.3,101-43s42-62.7,42-102c0-17.3-2.3-33-7-47l-56-167l172-59
	c62-22,93-65.3,93-130c0-40.7-13.8-74.5-41.5-101.5S2220.3,244,2179,244C2164.3,244,2149,246.7,2133,252z M1280,193l310-107l105,315
	l-310,105L1280,193z"/>
</svg>
