<svg xmlns="http://www.w3.org/2000/svg" x="0px" y="0px" viewBox="596 -596 1792 1792" style="enable-background:new 596 -596 1792 1792;">
<path d="M1889,255l-544-544c-12.7-12.7-27.7-19-45-19c-17.3,0-32.3,6.3-45,19c-12.7,12.7-19,27.7-19,45V44H788
	c-17.3,0-32.3,6.3-45,19s-19,27.7-19,45v384c0,17.3,6.3,32.3,19,45c12.7,12.7,27.7,19,45,19h448v288c0,17.3,6.3,32.3,19,45
	c12.7,12.7,27.7,19,45,19c17.3,0,32.3-6.3,45-19l544-544c12.7-12.7,19-27.7,19-45S1901.7,267.7,1889,255z M2175.5-255.5
	c-56.3-56.3-124.2-84.5-203.5-84.5h-320c-8.7,0-15.5,2.2-20.5,6.5s-8.3,10.8-10,19.5c-1.7,8.7-2.7,16.5-3,23.5
	c-0.3,7-0.2,15.8,0.5,26.5c0.7,10.7,1,17.3,1,20c2,5.3,2.7,9.8,2,13.5c-0.7,3.7,1.7,6.7,7,9c5.3,2.3,8,4.2,8,5.5s3.8,2.3,11.5,3
	c7.7,0.7,11.5,1,11.5,1h13h11h288c44,0,81.7,15.7,113,47c31.3,31.3,47,69,47,113v704c0,44-15.7,81.7-47,113c-31.3,31.3-69,47-113,47
	h-320c-8.7,0-15.5,2.2-20.5,6.5s-8.3,10.8-10,19.5c-1.7,8.7-2.7,16.5-3,23.5c-0.3,7-0.2,15.8,0.5,26.5c0.7,10.7,1,17.3,1,20
	c0,8.7,3.2,16.2,9.5,22.5c6.3,6.3,13.8,9.5,22.5,9.5h320c79.3,0,147.2-28.2,203.5-84.5c56.3-56.3,84.5-124.2,84.5-203.5V-52
	C2260-131.3,2231.8-199.2,2175.5-255.5z"/>
</svg>
