<svg xmlns="http://www.w3.org/2000/svg" x="0px" y="0px" viewBox="596 -596 1792 1792" style="enable-background:new 596 -596 1792 1792;">
<path d="M1705,724c-62.7,49.3-133.7,95-213,137V-276h448v640C1940,481.3,1861.7,601.3,1705,724z M2113-449c-12.7-12.7-27.7-19-45-19
	H916c-17.3,0-32.3,6.3-45,19s-19,27.7-19,45v768c0,57.3,11.2,114.2,33.5,170.5s50,106.3,83,150s72.3,86.2,118,127.5
	s87.8,75.7,126.5,103s79,53.2,121,77.5s71.8,40.8,89.5,49.5c17.7,8.7,31.8,15.3,42.5,20c8,4,16.7,6,26,6c9.3,0,18-2,26-6
	c10.7-4.7,24.8-11.3,42.5-20c17.7-8.7,47.5-25.2,89.5-49.5s82.3-50.2,121-77.5c38.7-27.3,80.8-61.7,126.5-103
	c45.7-41.3,85-83.8,118-127.5c33-43.7,60.7-93.7,83-150c22.3-56.3,33.5-113.2,33.5-170.5v-768C2132-421.3,2125.7-436.3,2113-449z"/>
</svg>
