<svg xmlns="http://www.w3.org/2000/svg" x="0px" y="0px" viewBox="596 -596 1792 1792" style="enable-background:new 596 -596 1792 1792;">
<path d="M1108,556h768v384h-768V556z M2004,524c0-26.7-9.3-49.3-28-68s-41.3-28-68-28h-832c-26.7,0-49.3,9.3-68,28s-28,41.3-28,68
	v416H852V-340h128V76c0,26.7,9.3,49.3,28,68s41.3,28,68,28h576c26.7,0,49.3-9.3,68-28c18.7-18.7,28-41.3,28-68v-416
	c10,0,23,3.3,39,10s27.3,13.3,34,20l281,281c6.7,6.7,13.3,18.2,20,34.5c6.7,16.3,10,29.2,10,38.5v896h-128V524z M1610.5,34.5
	c-6.3,6.3-13.8,9.5-22.5,9.5h-192c-8.7,0-16.2-3.2-22.5-9.5c-6.3-6.3-9.5-13.8-9.5-22.5v-320c0-8.7,3.2-16.2,9.5-22.5
	c6.3-6.3,13.8-9.5,22.5-9.5h192c8.7,0,16.2,3.2,22.5,9.5c6.3,6.3,9.5,13.8,9.5,22.5V12C1620,20.7,1616.8,28.2,1610.5,34.5z M2240-44
	c-13.3-32-29.3-57.3-48-76l-280-280c-18.7-18.7-44-34.7-76-48s-61.3-20-88-20H820c-26.7,0-49.3,9.3-68,28s-28,41.3-28,68V972
	c0,26.7,9.3,49.3,28,68c18.7,18.7,41.3,28,68,28h1344c26.7,0,49.3-9.3,68-28c18.7-18.7,28-41.3,28-68V44
	C2260,17.3,2253.3-12,2240-44z"/>
</svg>
