<svg xmlns="http://www.w3.org/2000/svg" x="0px" y="0px" viewBox="596 -596 1792 1792" style="enable-background:new 596 -596 1792 1792;">
<path d="M2161,799.5c-42-42.3-93-63.5-153-63.5s-111.2,21.2-153.5,63.5S1791,893,1791,953c0,59.3,21.2,110.2,63.5,152.5
	S1948,1169,2008,1169s111-21.2,153-63.5s63-93.2,63-152.5C2224,893,2203,841.8,2161,799.5z M1990,609.5c-0.7-17-2.7-37.7-6-62
	c-3.3-24.3-8.2-45.5-14.5-63.5s-15.2-38.7-26.5-62c-11.3-23.3-25-44.2-41-62.5s-36.2-38.2-60.5-59.5s-52-41-83-59
	s-67.3-36.5-109-55.5c-41.7-19-87.8-36.8-138.5-53.5c-58-19.3-108-38.8-150-58.5S1286.7,36,1264,20c-22.7-16-40.3-33-53-51
	s-20.7-33.3-24-46c-3.3-12.7-5-27-5-43c0-24.7,7-50,21-76s37.5-49.3,70.5-70s72.2-31,117.5-31l37,1c24.7,0.7,51.7,4.2,81,10.5
	c29.3,6.3,49,14.8,59,25.5c-8.7,36-5.3,68.5,10,97.5c15.3,29,23.3,52.5,24,70.5c0.7,18,13,33.3,37,46s37.7,22,41,28
	c3.3,6,18,10.7,44,14s39,5,39,5h32h8c11.3,0,24.3-1.7,39-5s31-9.8,49-19.5s34.2-21.7,48.5-36s26.5-33.7,36.5-58s15-51.8,15-82.5
	c0-34-6.3-68.5-19-103.5s-34-70.2-64-105.5s-66.5-66.7-109.5-94s-97.8-49.7-164.5-67c-66.7-17.3-140-26-220-26
	c-81.3,0-155.2,9.5-221.5,28.5s-121.8,44.7-166.5,77s-82.2,70.3-112.5,114s-52.3,89.5-66,137.5S827-141,827-89
	c0,62.7,6.8,116.8,20.5,162.5s37.7,87.5,72,125.5s75.2,72,122.5,102c47.3,30,109.7,63.3,187,100c10,4.7,24.3,11.3,43,20
	c48.7,22.7,88.5,41.5,119.5,56.5s62.2,30.8,93.5,47.5c31.3,16.7,56,31.3,74,44c18,12.7,34.5,26.3,49.5,41
	c15,14.7,25.5,29.5,31.5,44.5s9,31.2,9,48.5c0,54.7-25,99-75,133s-113.3,51-190,51l-40-1c-26-1.3-57-7-93-17s-63.3-24-82-42
	c15.3-31.3,23-58.3,23-81c0-9.3-1.3-20.5-4-33.5s-8.5-29.3-17.5-49c-9-19.7-20.8-37.3-35.5-53c-14.7-15.7-35.7-29.3-63-41
	c-27.3-11.7-58.7-17.5-94-17.5c-35.3,0-66.8,6-94.5,18s-49,26.5-64,43.5s-27.2,36.3-36.5,58s-15.5,40.3-18.5,56S760,757.3,760,770
	c0,9.3,2,22.5,6,39.5s11.8,39.2,23.5,66.5s26.5,55,44.5,83s43.3,56.3,76,85c32.7,28.7,69.5,54.2,110.5,76.5s92.2,40.5,153.5,54.5
	s128.3,21,201,21c155.3,0,281.7-26,379-78c-22-42.7-33-88.7-33-138c0-78.7,25.8-147.2,77.5-205.5S1914.3,682,1991,672
	C1991,647.3,1990.7,626.5,1990,609.5z"/>
</svg>
