<svg xmlns="http://www.w3.org/2000/svg" x="0px" y="0px" viewBox="596 -596 1792 1792" style="enable-background:new 596 -596 1792 1792;" xml:space="preserve">
<path d="M1883-429c-6.7-6.7-14.3-10-23-10s-16.310l-44,44c-54.7-43.3-116.3-69.8-185-79.5s-134.3-1.5-197,24.5
	c-47.3-49.3-102.7-87.7-166-115c-63.3-27.3-130.3-41-201-41c-69.3,0-135.5,13.5-198.5,40.5S728-492,682-446s-82.5,100.5-109.5,163.5
	S532-153.3,532-84v1280h256V-84c0-70.7,25-131,75-181s110.3-75,181-75c68,0,126.7,23.7,176,71c-37.3,66-52.8,137.7-46.5,215
	c6.3,77.3,33.5,146.3,81.5,207l-44,44c-6.7,6.7-10,14.3-10,23s3.3,16.3,10,23l82,82c6.7,6.7,14.3,10,23,10c8.7,0,16.3-3.3,23-10
	l626-626c6.7-6.7,10-14.3,10-23s-3.3-16.3-10-23L1883-429z M1831-65c-12.7,12.7-19,27.7-19,45s6.3,32.3,19,45s27.7,19,45,19
	s32.3-6.3,45-19s19-27.7,19-45s-6.3-32.3-19-45s-27.7-19-45-19S1843.7-77.7,1831-65z M2177,25c12.7-12.7,19-27.7,19-45
	s-6.3-32.3-19-45c-12.7-12.7-27.7-19-45-19c-17.3,0-32.3,6.3-45,19c-12.7,12.7-19,27.7-19,45s6.3,32.3,19,45
	c12.7,12.7,27.7,19,45,19C2149.3,44,2164.3,37.7,2177,25z M2343-65c-12.7,12.7-19,27.7-19,45s6.3,32.3,19,45
	c12.7,12.7,27.7,19,45,19c17.3,0,32.3-6.3,45-19c12.7-12.7,19-27.7,19-45s-6.3-32.3-19-45c-12.7-12.7-27.7-19-45-19
	C2370.7-84,2355.7-77.7,2343-65z M1703,63c-12.7,12.7-19,27.7-19,45s6.3,32.3,19,45s27.7,19,45,19s32.3-6.3,45-19s19-27.7,19-45
	s-6.3-32.3-19-45s-27.7-19-45-19S1715.7,50.3,1703,63z M1959,153c12.7,12.7,27.7,19,45,19s32.3-6.3,45-19c12.7-12.7,19-27.7,19-45
	s-6.3-32.3-19-45c-12.7-12.7-27.7-19-45-19s-32.3,6.3-45,19s-19,27.7-19,45S1946.3,140.3,1959,153z M2215,63
	c-12.7,12.7-19,27.7-19,45s6.3,32.3,19,45c12.7,12.7,27.7,19,45,19c17.3,0,32.3-6.3,45-19c12.7-12.7,19-27.7,19-45s-6.3-32.3-19-45
	c-12.7-12.7-27.7-19-45-19C2242.7,44,2227.7,50.3,2215,63z M1575,191c-12.7,12.7-19,27.7-19,45s6.3,32.3,19,45s27.7,19,45,19
	s32.3-6.3,45-19s19-27.7,19-45s-6.3-32.3-19-45s-27.7-19-45-19S1587.7,178.3,1575,191z M1921,281c12.7-12.7,19-27.7,19-45
	s-6.3-32.3-19-45s-27.7-19-45-19s-32.3,6.3-45,19s-19,27.7-19,45s6.3,32.3,19,45s27.7,19,45,19S1908.3,293.7,1921,281z M2087,191
	c-12.7,12.7-19,27.7-19,45s6.3,32.3,19,45c12.7,12.7,27.7,19,45,19c17.3,0,32.3-6.3,45-19c12.7-12.7,19-27.7,19-45s-6.3-32.3-19-45
	c-12.7-12.7-27.7-19-45-19C2114.7,172,2099.7,178.3,2087,191z M1793,409c12.7-12.7,19-27.7,19-45s-6.3-32.3-19-45s-27.7-19-45-19
	s-32.3,6.3-45,19s-19,27.7-19,45s6.3,32.3,19,45s27.7,19,45,19S1780.3,421.7,1793,409z M1959,319c-12.7,12.7-19,27.7-19,45
	s6.3,32.3,19,45s27.7,19,45,19s32.3-6.3,45-19c12.7-12.7,19-27.7,19-45s-6.3-32.3-19-45c-12.7-12.7-27.7-19-45-19
	S1971.7,306.3,1959,319z M1575,447c-12.7,12.7-19,27.7-19,45s6.3,32.3,19,45c12.7,12.7,27.7,19,45,19s32.3-6.3,45-19
	c12.7-12.7,19-27.7,19-45s-6.3-32.3-19-45s-27.7-19-45-19S1587.7,434.3,1575,447z M1831,447c-12.7,12.7-19,27.7-19,45
	s6.3,32.3,19,45c12.7,12.7,27.7,19,45,19s32.3-6.3,45-19c12.7-12.7,19-27.7,19-45s-6.3-32.3-19-45s-27.7-19-45-19
	S1843.7,434.3,1831,447z M1703,575c-12.7,12.7-19,27.7-19,45c0,17.3,6.3,32.3,19,45c12.7,12.7,27.7,19,45,19s32.3-6.3,45-19
	c12.7-12.7,19-27.7,19-45c0-17.3-6.3-32.3-19-45c-12.7-12.7-27.7-19-45-19S1715.7,562.3,1703,575z M1575,703
	c-12.7,12.7-19,27.7-19,45s6.3,32.3,19,45s27.7,19,45,19s32.3-6.3,45-19s19-27.7,19-45s-6.3-32.3-19-45s-27.7-19-45-19
	S1587.7,690.3,1575,703z"/>
</svg>
