<svg xmlns="http://www.w3.org/2000/svg" x="0px" y="0px" viewBox="596 -596 1792 1792" style="enable-background:new 596 -596 1792 1792;">
<path d="M1405.5,0.5c-42.3-39.3-93.2-59-152.5-59c-59.3,0-110.2,19.7-152.5,59s-63.5,87-63.5,143c0,55.3,21.2,102.8,63.5,142.5
	s93.2,59.5,152.5,59.5c59.3,0,110.2-19.8,152.5-59.5c42.3-39.7,63.5-87.2,63.5-142.5C1469,87.5,1447.8,39.9,1405.5,0.5z M1908,0.5
	c-42-39.3-93-59-153-59c-59.3,0-110.2,19.7-152.5,59c-42.3,39.3-63.5,87-63.5,143c0,55.3,21.2,102.8,63.5,142.5
	c42.3,39.7,93.2,59.5,152.5,59.5c60,0,111-19.8,153-59.5s63-87.2,63-142.5C1971,87.5,1950,39.9,1908,0.5z M2124,358
	c-24.7,10.3-47.2,19.3-67.5,27c-20.3,7.7-42.7,14.2-67,19.5s-45,9.8-62,13.5s-37.3,6.5-61,8.5s-41.8,3.5-54.5,4.5s-30.3,1.3-53,1
	s-37.8-0.7-45.5-1s-22-1-43-2s-33.2-1.5-36.5-1.5c-74-2.7-113.3,26.3-118,87c-23.3-17.3-43.7-34.3-61-51c-2.7-2-6-5-10-9
	c-18-18.7-49.7-27.7-95-27c-1.3,0-16.2,0.7-44.5,2c-28.3,1.3-47.2,2-56.5,2c-9.3,0-28.8-0.2-58.5-0.5c-29.7-0.3-53-1.7-70-4
	c-17-2.3-40.7-6-71-11c-30.3-5-57.3-11.2-81-18.5c-23.7-7.3-50.7-16.7-81-28c-30.3-11.3-59.8-24.7-88.5-40v-673
	c0-61.3,9.8-103.3,29.5-126s57.2-34,112.5-34h1112c52.7,0,89.7,12.2,111,36.5c21.3,24.3,32,65.5,32,123.5v667
	C2172.7,336.2,2148.7,347.7,2124,358z M2363,255.5c-14-17.3-34-17-60,1l-21,15v-694c0-48-15.7-89-47-123c-31.3-34-69.3-51-114-51
	H864c-44.7,0-82.7,17-114,51s-47,75-47,123v694c-2-2-5.7-4.7-11-8s-9-5.7-11-7c-26-18-46-18.3-60-1s-12.7,38.3,4,63
	c80.7,99.3,204.7,183.3,372,252c-55.3,188.7-48,343,22,463c43.3,76,104,126,182,150c69.3,21.3,130.3,16.3,183-15
	c58-33.3,85.7-88,83-164l1-338c4.7,0.7,12.5,2.3,23.5,5c11,2.7,19.2,4.7,24.5,6v1l1,326c-2.7,75.3,24.7,130,82,164
	c52,31.3,112.7,36.3,182,15c78-23.3,139-72.7,183-148c71.3-120,79-275,23-465c167.3-68.7,291.3-152.7,372-252
	C2375.7,293.9,2377,272.9,2363,255.5z"/>
</svg>
