<svg xmlns="http://www.w3.org/2000/svg" x="0px" y="0px" viewBox="596 -596 1792 1792" style="enable-background:new 596 -596 1792 1792;">
<path d="M2196,1042l-83-83c-12.7-12.7-27.7-19-45-19s-32.3,6.3-45,19l-83,83l-83-83c-12.7-12.7-27.7-19-45-19s-32.3,6.3-45,19
	l-83,83l-83-83c-12.7-12.7-27.7-19-45-19s-32.3,6.3-45,19l-83,83l-83-83c-12.7-12.7-27.7-19-45-19s-32.3,6.3-45,19l-83,83l-83-83
	c-12.7-12.7-27.7-19-45-19s-32.3,6.3-45,19l-83,83l-83-83c-12.7-12.7-27.7-19-45-19s-32.3,6.3-45,19l-83,83l-83-83l-90,90l128,128
	c12.7,12.7,27.7,19,45,19s32.3-6.3,45-19l83-83l83,83c12.7,12.7,27.7,19,45,19c17.3,0,32.3-6.3,45-19l83-83l83,83
	c12.7,12.7,27.7,19,45,19c17.3,0,32.3-6.3,45-19l83-83l83,83c12.7,12.7,27.7,19,45,19c17.3,0,32.3-6.3,45-19l83-83l83,83
	c12.7,12.7,27.7,19,45,19s32.3-6.3,45-19l83-83l83,83c12.7,12.7,27.7,19,45,19s32.3-6.3,45-19l83-83l83,83c12,12.7,27,19,45,19
	s33-6.3,45-19l83-83l83,83l90-90l-128-128c-12.7-12.7-27.7-19-45-19s-32.3,6.3-45,19L2196,1042z M788,838l83,83
	c12.7,12.7,27.7,19,45,19s32.3-6.3,45-19l83-83l83,83c12.7,12.7,27.7,19,45,19s32.3-6.3,45-19l83-83l83,83c12.7,12.7,27.7,19,45,19
	s32.3-6.3,45-19l83-83l83,83c12.7,12.7,27.7,19,45,19s32.3-6.3,45-19l83-83l83,83c12.7,12.7,27.7,19,45,19s32.3-6.3,45-19l83-83
	l83,83c12,12.7,27,19,45,19s33-6.3,45-19l83-83l83,83l90-90l-128-128c-12.7-12.7-27.7-19-45-19c-17.3,0-32.3,6.3-45,19l-83,82
	l-83-82c-12.7-12.7-27.7-19-45-19c-17.3,0-32.3,6.3-45,19l-19,18V428l210-314c11.3-17.3,13.7-36.2,7-56.5c-6.7-20.3-20-33.8-40-40.5
	l-177-58v-299h-128v-128h-256v-128h-256v128h-256v128H980v299L803,17c-20,6.7-33.3,20.2-40,40.5c-6.7,20.3-4.3,39.2,7,56.5l210,314
	v293l-64,64l-83-82c-12.7-12.7-27.7-19-45-19c-17.3,0-32.3,6.3-45,19l-83,82l-83-82l-90,90l128,128c12.7,12.7,27.7,19,45,19
	s32.3-6.3,45-19L788,838z M1236-212v-128h512v128h128v128l-384-128L1108-84v-128H1236z"/>
</svg>
