<svg xmlns="http://www.w3.org/2000/svg" x="0px" y="0px" viewBox="596 -596 1792 1792" style="enable-background:new 596 -596 1792 1792;">
<path d="M1244-405c-72,40.7-129.3,106.7-172,198c-18,38.7-27,98.7-27,180c0,32,3,95.3,9,190c-9.3,4.7-20,7-32,7
	c-13.3,0-31-4.3-53-13s-38-13-48-13c-19.3,0-37.7,6.2-55,18.5S840,190,840,208c0,20.7,10.5,38.2,31.5,52.5
	c21,14.3,44.2,24.8,69.5,31.5c25.3,6.7,48.5,16.5,69.5,29.5s31.5,28.8,31.5,47.5c0,10-4,24.3-12,43c-24,54-58.2,104-102.5,150
	C883.2,608,835,641.7,783,663c-18.7,8-45.3,15.7-80,23c-18.7,4-28,15.7-28,35c0,46.7,73,81,219,103c4.7,7.3,8.3,20.7,11,40
	s7.3,35.2,14,47.5c6.7,12.3,18.3,18.5,35,18.5c11.3,0,30.8-2.5,58.5-7.5c27.7-5,49.5-7.5,65.5-7.5c24.7,0,45.7,1.7,63,5
	c20.7,3.3,41.3,10.8,62,22.5c20.7,11.7,40,24.3,58,38c18,13.7,37.2,27.2,57.5,40.5c20.3,13.3,45.3,24.5,75,33.5
	c29.7,9,61.8,13.5,96.5,13.5c36,0,69-4.5,99-13.5s55.3-20.2,76-33.5c20.7-13.3,40-26.8,58-40.5c18-13.7,37.3-26.3,58-38
	c20.7-11.7,41.7-19.2,63-22.5c16.7-3.3,37.3-5,62-5c14.7,0,36,2.2,64,6.5c28,4.3,48.7,6.5,62,6.5c15.3,0,26.3-6.2,33-18.5
	c6.7-12.3,11.3-27.8,14-46.5c2.7-18.7,6.3-31.7,11-39c146-22,219-56.3,219-103c0-19.3-9.3-31-28-35c-34.7-7.3-61.3-15-80-23
	c-52.7-22-100.8-55.7-144.5-101c-43.7-45.3-77.8-95.3-102.5-150c-8-18.7-12-33-12-43c0-18.7,10.5-34.5,31.5-47.5s44-22.7,69-29
	s48-16.8,69-31.5c21-14.7,31.5-32.7,31.5-54c0-18.7-9-34-27-46s-36.7-18-56-18c-12,0-29,4.5-51,13.5s-39,13.5-51,13.5
	c-9.3,0-18.7-2.3-28-7c6-96,9-159.7,9-191c0-80.7-9-140.3-27-179c-38-82-92.5-146.2-163.5-192.5S1597.3-468.7,1508-468
	C1404-466.7,1316-445.7,1244-405z"/>
</svg>
