<svg xmlns="http://www.w3.org/2000/svg" x="0px" y="0px" viewBox="596 -596 1792 1792" style="enable-background:new 596 -596 1792 1792;">
<path d="M1735,345c5.3-6,9.7-12.3,13-19v678c0,17.3,6.3,32.3,19,45c12.7,12.7,27.7,19,45,19h128c17.3,0,32.3-6.3,45-19
	c12.7-12.7,19-27.7,19-45V-404c0-17.3-6.3-32.3-19-45c-12.7-12.7-27.7-19-45-19h-128c-17.3,0-32.3,6.3-45,19
	c-12.7,12.7-19,27.7-19,45v678c-3.3-7.3-7.7-13.7-13-19l-710-710c-12.7-12.7-23.3-17-32-13s-13,14.7-13,32v1472c0,17.3,4.3,28,13,32
	s19.3-0.3,32-13L1735,345z"/>
</svg>
