<svg xmlns="http://www.w3.org/2000/svg" x="0px" y="0px" viewBox="596 -596 1792 1792" style="enable-background:new 596 -596 1792 1792;">
<path d="M1353.4-202.5c-6.3-6.3-13.8-9.5-22.5-9.5H538c-9.3,0-17,3-23,9s-9,13.7-9,23v117c0,8.7,3.2,16,9.5,22c6.3,6,13.8,9,22.5,9
	h297v812c0,9.3,3.2,17,9.5,23c6.3,6,13.8,9,22.5,9h135c8.7,0,16-3.2,22-9.5c6-6.3,9-13.8,9-22.5V-32h298c8.7,0,16.2-3,22.5-9
	c6.3-6,9.5-13.3,9.5-22v-117C1362.9-188.7,1359.8-196.2,1353.4-202.5z M2390.9-203.5c-6-5.7-13.3-8.5-22-8.5h-141
	c-13.3,0-23,6.3-29,19l-221,520c-2.7,6-6.2,14.8-10.5,26.5s-7.5,19.8-9.5,24.5c-6.7-18-13.3-35-20-51l-220-520
	c-6-12.7-15.7-19-29-19h-142c-8,0-15,2.8-21,8.5s-9.3,12.5-10,20.5l-78,961c0,9.3,3,17.3,9,24c6.7,6.7,14.3,10,23,10h135
	c8,0,15-2.8,21-8.5s9.3-12.5,10-20.5l45-590l188,427c6,12.7,15.7,19,29,19h120c14,0,23.7-6.3,29-19l189-425l46,588
	c0.7,8,4,14.8,10,20.5s13,8.5,21,8.5h134c8.7,0,16.3-3.3,23-10c6-7.3,8.7-15.3,8-24l-77-961C2400.3-191,2396.9-197.8,2390.9-203.5z"
	/>
</svg>
