<svg xmlns="http://www.w3.org/2000/svg" x="0px" y="0px" viewBox="596 -596 1792 1792" style="enable-background:new 596 -596 1792 1792;">
<path d="M1454.5,742.5c-25,25-55.2,37.5-90.5,37.5s-65.5-12.5-90.5-37.5S1236,687.3,1236,652c0-24,6.7-47,20-69
	c0.7-0.7,5.8-8.2,15.5-22.5c9.7-14.3,18.2-27,25.5-38s15.7-25.7,25-44s16.3-35.2,21-50.5c2.7-10.7,9.7-16,21-16s18.3,5.3,21,16
	c4.7,15.3,11.7,32.2,21,50.5s17.7,33,25,44s15.8,23.7,25.5,38c9.7,14.3,14.8,21.8,15.5,22.5c13.3,22,20,45,20,69
	C1492,687.3,1479.5,717.5,1454.5,742.5z M1923,249c-4-6-24.8-36.2-62.5-90.5c-37.7-54.3-71.3-104.7-101-151
	c-29.7-46.3-62.8-105.7-99.5-178c-36.7-72.3-64.3-139.5-83-201.5c-5.3-20-16.5-35.7-33.5-47s-34.2-17-51.5-17s-34.3,5.7-51,17
	s-28,27-34,47c-18.7,62-46.3,129.2-83,201.5s-69.8,131.7-99.5,178c-29.7,46.3-63.3,96.7-101,151S1065,243,1061,249
	c-54,86.7-81,178.3-81,275c0,141.3,50,262,150,362s220.7,150,362,150s262-50,362-150s150-220.7,150-362
	C2004,425.3,1977,333.7,1923,249z"/>
</svg>
