<svg xmlns="http://www.w3.org/2000/svg" x="0px" y="0px" viewBox="596 -596 1792 1792" style="enable-background:new 596 -596 1792 1792;">
<path d="M2094-138c70-42,117.3-101.3,142-178c-64,38-132.3,64-205,78c-64-68-142.7-102-236-102c-89.3,0-165.5,31.5-228.5,94.5
	S1472-106.3,1472-17c0,24,2.7,48.7,8,74c-132-6.7-255.8-39.8-371.5-99.5C992.8-102.2,894.7-181.7,814-281c-29.3,50-44,104.3-44,163
	c0,55.3,13,106.7,39,154s61,85.7,105,115c-52-2-100.7-15.7-146-41v4c0,78,24.5,146.5,73.5,205.5S952.3,415.7,1027,431
	c-28,7.3-56.3,11-85,11c-18.7,0-39-1.7-61-5c20.7,64.7,58.7,117.8,114,159.5c55.3,41.7,118,63.2,188,64.5c-117.3,92-251,138-401,138
	c-28.7,0-54.7-1.3-78-4c150,96.7,315.3,145,496,145c114.7,0,222.3-18.2,323-54.5c100.7-36.3,186.7-85,258-146
	s132.8-131.2,184.5-210.5s90.2-162.2,115.5-248.5s38-172.8,38-259.5c0-18.7-0.3-32.7-1-42c63.3-46,117.3-101.7,162-167
	C2218-161.3,2156-144.7,2094-138z"/>
</svg>
