<svg xmlns="http://www.w3.org/2000/svg" x="0px" y="0px" viewBox="596 -596 1792 1792" style="enable-background:new 596 -596 1792 1792;">
<path d="M1431-339.5c-11.3-15.7-26.3-23.5-45-23.5c-18.7,0-33.7,7.8-45,23.5c-11.3,15.7-17,33.2-17,52.5s5.7,36.8,17,52.5
	c11.3,15.7,26.3,23.5,45,23.5c18.7,0,33.7-7.8,45-23.5c11.3-15.7,17-33.2,17-52.5S1442.3-323.8,1431-339.5z M1263.5,1141
	c-13.7,14.7-30.5,22-50.5,22c-19.3,0-35.8-7.3-49.5-22c-13.7-14.7-20.5-32-20.5-52V975c0-20,6.7-37.2,20-51.5
	c13.3-14.3,30-21.5,50-21.5s36.8,7.2,50.5,21.5c13.7,14.3,20.5,31.5,20.5,51.5v114C1284,1109,1277.2,1126.3,1263.5,1141z
	 M1435.5,1141c-13.7,14.7-30.2,22-49.5,22c-20,0-36.8-7.3-50.5-22c-13.7-14.7-20.5-32-20.5-52V975c0-20,6.8-37.2,20.5-51.5
	c13.7-14.3,30.5-21.5,50.5-21.5s36.7,7.2,50,21.5c13.3,14.3,20,31.5,20,51.5v114C1456,1109,1449.2,1126.3,1435.5,1141z M1609.5,1141
	c-13.7,14.7-30.5,22-50.5,22s-36.8-7.3-50.5-22c-13.7-14.7-20.5-32-20.5-52V975c0-20,6.8-37.2,20.5-51.5
	c13.7-14.3,30.5-21.5,50.5-21.5s36.8,7.2,50.5,21.5c13.7,14.3,20.5,31.5,20.5,51.5v114C1630,1109,1623.2,1126.3,1609.5,1141z
	 M1783.5,1141c-13.7,14.7-30.5,22-50.5,22s-36.8-7.3-50.5-22s-20.5-32-20.5-52V975c0-20,6.8-37.2,20.5-51.5S1713,902,1733,902
	s36.8,7.2,50.5,21.5S1804,955,1804,975v114C1804,1109,1797.2,1126.3,1783.5,1141z M1999,692.5c-43.3,91.7-102.3,168.8-177,231.5
	c-8.7-16.7-21.2-30.2-37.5-40.5S1750.7,868,1732,868c-37.3,0-66,16.7-86,50c-21.3-33.3-50.3-50-87-50c-36.7,0-65.7,16.7-87,50
	c-20-33.3-48.7-50-86-50c-36.7,0-65.7,16.7-87,50c-20-33.3-48.7-50-86-50c-40.7,0-71,19-91,57c-80-67.3-141.7-151-185-251
	c-43.3-100-65-204-65-312c0-143.3,34.7-273.3,104-390c-14,57.3-21,115.3-21,174c0,80,13.7,157.3,41,232s65,140.5,113,197.5
	s107.5,102.7,178.5,137c71,34.3,147.5,51.5,229.5,51.5c116.7,0,224.3-33.2,323-99.5s176-152.8,232-259.5
	C2066.7,505,2042.3,600.8,1999,692.5z M1909,455c-66,46.7-136,70-210,70c-97.3,0-175.7-36.8-235-110.5S1375,254,1375,154
	c0-98.7,27.7-190.3,83-275c-20,78.7-30,146.7-30,204c0,162,75.3,243,226,243c36,0,85.7-6.3,149-19c20-4,35.7-6,47-6
	c48,0,72,25,72,75C1922,396.7,1917.7,423,1909,455z M1448.5-192.5c-21,26.3-48.2,39.5-81.5,39.5c-33.3,0-60.5-13.2-81.5-39.5
	S1254-249,1254-283c0-33.3,10.7-63.2,32-89.5c21.3-26.3,48.3-39.5,81-39.5c32.7,0,59.7,13.2,81,39.5c21.3,26.3,32,56.2,32,89.5
	C1480-249,1469.5-218.8,1448.5-192.5z M2066.5,256.5c-28.3,65-67.5,120.2-117.5,165.5c2.7-13.3,4-28.7,4-46c0-34.7-8.8-61.3-26.5-80
	s-43.5-28-77.5-28c-11.3,0-29,2-53,6c-59.3,12.7-106.7,19-142,19c-68,0-117.2-17.7-147.5-53c-30.3-35.3-45.5-87.7-45.5-157
	c0-72.7,16-162,48-268c36.7-39.3,79-70.7,127-94s97.7-35,149-35c65.3,0,123.2,18,173.5,54s88,81.7,113,137
	c25,55.3,37.5,115,37.5,179C2109,124.7,2094.8,191.5,2066.5,256.5z M2298-6c-36.7-32.7-70-49-100-49c-23.3,0-43.3,10-60,30
	c-26.7-160-92.3-286-197-378c10.7-12.7,16-21,16-25c0-8-6.3-16-19-24s-24.7-14-36-18l10.5-10.5c6.3-6.3,11.7-12,16-17
	s8.5-10.3,12.5-16s6-10.2,6-13.5c0-4.7-1.7-8.7-5-12c-38-38-84.7-57-140-57c-58,0-106.7,21.3-146,64c-18-2.7-38.7-4-62-4
	c-90.7,0-177.5,22-260.5,66S1180-367,1122-293c-10.7,13.3-20,26.3-28,39s-16.3,26.7-25,42s-16.3,28-23,38c-2,4-6.3,9.3-13,16
	s-10.7,11-12,13c-15.3,16.7-29.3,34.7-42,54c-14.7-34.7-41.7-52-81-52c-44,0-84,14-120,42S713.2-38,691.5,4s-40,89-55,141
	S611,245.8,605,291.5s-9,87.5-9,125.5c0,69.3,8,122.7,24,160c32,76,112,178,240,306c-50,30.7-104.7,46-164,46c-26,0-49.7-2.3-71-7
	c46,64,106.7,106.3,182,127c-34.7,12.7-70,19.3-106,20c62,53.3,132.3,80,211,80c72,0,138-22.7,198-68c0,32,9.3,59.2,28,81.5
	c18.7,22.3,43.7,33.5,75,33.5c37.3,0,66-16.7,86-50c21.3,33.3,50.3,50,87,50c37.3,0,66-16.7,86-50c21.3,33.3,50.3,50,87,50
	c36.7,0,65.7-16.7,87-50c20,33.3,48.7,50,86,50c28.7,0,52.8-10.7,72.5-32s29.5-46.3,29.5-75V975l4-1c60.7-17.3,136.7-52.2,228-104.5
	c91.3-52.3,156.3-99.8,195-142.5c40-44,71.2-112.2,93.5-204.5C2376.8,430.2,2388,347,2388,273C2388,140.3,2358,47.3,2298-6z"/>
</svg>
