<svg xmlns="http://www.w3.org/2000/svg" x="0px" y="0px" viewBox="596 -596 1792 1792" style="enable-background:new 596 -596 1792 1792;">
<path d="M1047.5,427.5l316,316l572-572l-316-316L1047.5,427.5z M1363.5,852.5c-18,0-33-6-45-18l-362-362c-12.7-12.7-19-27.7-19-45
	c0-17.3,6.3-32.3,19-45l618-618c12-12,27-18,45-18s33,6,45,18l362,362c12.7,12.7,19,27.7,19,45s-6.3,32.3-19,45l-618,618
	C1396.5,846.5,1381.5,852.5,1363.5,852.5z M2334.5,107c0-35.7-12.3-65.8-37-90.5l-126-125c-37.3,37.3-82.7,56-136,56
	c-53.3,0-98.7-18.7-136-56c-37.3-37.3-56-82.7-56-136s18.7-98.7,56-136l-125-125c-24.7-24.7-54.8-37-90.5-37s-65.8,12.3-90.5,37
	l-907,906c-24.7,24.7-37,54.8-37,90.5s12.3,65.8,37,90.5l125,126c37.3-37.3,82.7-56,136-56c53.3,0,98.7,18.7,136,56
	c37.3,37.3,56,82.7,56,136s-18.7,98.7-56,136l126,126c24.7,24.7,54.8,37,90.5,37c35.7,0,65.8-12.3,90.5-37l907-908
	C2322.2,172.8,2334.5,142.7,2334.5,107z"/>
</svg>
