<svg xmlns="http://www.w3.org/2000/svg" x="0px" y="0px" viewBox="596 -596 1792 1792" style="enable-background:new 596 -596 1792 1792;">
<path d="M961-167c-12.7,12.7-27.7,19-45,19s-32.3-6.3-45-19s-19-27.7-19-45s6.3-32.3,19-45s27.7-19,45-19s32.3,6.3,45,19
	s19,27.7,19,45S973.7-179.7,961-167z M2093,453.5c-26,25.7-55.7,38.5-89,38.5h-352c0,38.7,16,91.8,48,159.5s48,121.2,48,160.5
	c0,65.3-10.7,113.7-32,145c-21.3,31.3-64,47-128,47c-17.3-17.3-30-45.7-38-85s-18.2-81.2-30.5-125.5
	c-12.3-44.3-32.2-80.8-59.5-109.5c-14.7-15.3-40.3-45.7-77-91c-2.7-3.3-10.3-13.3-23-30c-12.7-16.7-23.2-30.3-31.5-41
	c-8.3-10.7-19.8-24.8-34.5-42.5c-14.7-17.7-28-32.3-40-44s-24.8-23.5-38.5-35.5s-27-21-40-27s-24.8-9-35.5-9h-32v-640h32
	c8.7,0,19.2-1,31.5-3s23.3-4.2,33-6.5s22.3-6,38-11c15.7-5,27.3-8.8,35-11.5c7.7-2.7,19.5-6.8,35.5-12.5s25.7-9.2,29-10.5
	c140.7-48.7,254.7-73,342-73h128c58,0,103.3,13.7,136,41s49,69.3,49,126c0,17.3-1.7,36-5,56c20,10.7,35.8,28.2,47.5,52.5
	c11.7,24.3,17.5,48.8,17.5,73.5s-6,47.7-18,69c35.3,33.3,53,73,53,119c0,16.7-3.3,35.2-10,55.5c-6.7,20.3-15,36.2-25,47.5
	c21.3,0.7,39.2,16.3,53.5,47c14.3,30.7,21.5,57.7,21.5,81C2132,398,2119,427.8,2093,453.5z M2211,202c6-22,9-45,9-69
	c0-51.3-12.7-99.3-38-144c2-14,3-28.3,3-43c0-67.3-20-126.7-60-178v-5c0.7-91.3-27.8-163.3-85.5-216c-57.7-52.7-133.2-79-226.5-79
	h-112c-70,0-136.7,7.3-200,22c-63.3,14.7-137.7,36.7-223,66c-77.3,26.7-123.3,40-138,40H852c-35.3,0-65.5,12.5-90.5,37.5
	S724-311.3,724-276v640c0,35.3,12.5,65.5,37.5,90.5S816.7,492,852,492h274c24,16,69.7,67.7,137,155c39.3,51.3,75,93.7,107,127
	c12.7,14,23,35.3,31,64s13.8,56.8,17.5,84.5c3.7,27.7,12.2,57.8,25.5,90.5c13.3,32.7,31.3,60,54,82c26,24.7,56,37,90,37
	c56,0,106.3-10.8,151-32.5c44.7-21.7,78.7-55.5,102-101.5c23.3-45.3,35-107.3,35-186c0-62-16-126-48-192h176
	c69.3,0,129.3-25.3,180-76c50.7-50.7,76-110.3,76-179C2260,305.7,2243.7,251.3,2211,202z"/>
</svg>
