<svg xmlns="http://www.w3.org/2000/svg" x="0px" y="0px" viewBox="596 -596 1792 1792" style="enable-background:new 596 -596 1792 1792;">
<path d="M1390,402c-25.3-25.3-55.3-38-90-38H788c-34.7,0-64.7,12.7-90,38s-38,55.3-38,90v384c0,34.7,12.7,64.7,38,90s55.3,38,90,38
	h512c34.7,0,64.7-12.7,90-38c25.3-25.3,38-55.3,38-90V492C1428,457.3,1415.3,427.3,1390,402z M1390-366c-25.3-25.3-55.3-38-90-38
	H788c-34.7,0-64.7,12.7-90,38s-38,55.3-38,90v384c0,34.7,12.7,64.7,38,90s55.3,38,90,38h512c34.7,0,64.7-12.7,90-38
	c25.3-25.3,38-55.3,38-90v-384C1428-310.7,1415.3-340.7,1390-366z M2286,402c-25.3-25.3-55.3-38-90-38h-512c-34.7,0-64.7,12.7-90,38
	c-25.3,25.3-38,55.3-38,90v384c0,34.7,12.7,64.7,38,90c25.3,25.3,55.3,38,90,38h512c34.7,0,64.7-12.7,90-38c25.3-25.3,38-55.3,38-90
	V492C2324,457.3,2311.3,427.3,2286,402z M2286-366c-25.3-25.3-55.3-38-90-38h-512c-34.7,0-64.7,12.7-90,38c-25.3,25.3-38,55.3-38,90
	v384c0,34.7,12.7,64.7,38,90c25.3,25.3,55.3,38,90,38h512c34.7,0,64.7-12.7,90-38c25.3-25.3,38-55.3,38-90v-384
	C2324-310.7,2311.3-340.7,2286-366z"/>
</svg>
