<svg xmlns="http://www.w3.org/2000/svg" x="0px" y="0px" viewBox="596 -596 1792 1792" style="enable-background:new 596 -596 1792 1792;">
<path d="M1387,227c-6,6-13.7,9-23,9s-17-3-23-9s-9-13.7-9-23v-448c0-9.3,3-17,9-23s13.7-9,23-9s17,3,23,9s9,13.7,9,23v448
	C1396,213.3,1393,221,1387,227z M1989.5,334.5C1937.2,268.8,1878,236,1812,236v-512c34.7,0,64.7-12.7,90-38c25.3-25.3,38-55.3,38-90
	s-12.7-64.7-38-90c-25.3-25.3-55.3-38-90-38h-640c-34.7,0-64.7,12.7-90,38s-38,55.3-38,90s12.7,64.7,38,90s55.3,38,90,38v512
	c-66,0-125.2,32.8-177.5,98.5C942.2,400.2,916,474,916,556c0,17.3,6.3,32.3,19,45c12.7,12.7,27.7,19,45,19h404l76,485
	c3.3,18,14,27,32,27h1c8,0,14.8-2.8,20.5-8.5c5.7-5.7,9.2-12.5,10.5-20.5l51-483h429c17.3,0,32.3-6.3,45-19c12.7-12.7,19-27.7,19-45
	C2068,474,2041.8,400.2,1989.5,334.5z"/>
</svg>
