<svg xmlns="http://www.w3.org/2000/svg" x="0px" y="0px" viewBox="596 -596 1792 1792" style="enable-background:new 596 -596 1792 1792;">
<path d="M1585,638c-23.3-33.3-54.3-57-93-71V-84h-128v651c-38.7,14-69.7,37.7-93,71c-23.3,33.3-35,70-35,110
	c0,53.3,18.7,98.7,56,136s82.7,56,136,56s98.7-18.7,136-56c37.3-37.3,56-82.7,56-136C1620,708,1608.3,671.3,1585,638z M1654.5,974.5
	c-62.3,62.3-137.8,93.5-226.5,93.5s-164.2-31.2-226.5-93.5S1108,836.7,1108,748c0-51.3,11.3-99.3,34-144c22.7-44.7,54-82,94-112
	v-768c0-53.3,18.7-98.7,56-136s82.7-56,136-56s98.7,18.7,136,56c37.3,37.3,56,82.7,56,136v768c40,30,71.3,67.3,94,112
	c22.7,44.7,34,92.7,34,144C1748,836.7,1716.8,912.2,1654.5,974.5z M1748,435v-711c0-88.7-31.2-164.2-93.5-226.5
	c-62.3-62.3-137.8-93.5-226.5-93.5c-88.7,0-164.2,31.2-226.5,93.5S1108-364.7,1108-276v711c-85.3,87.3-128,191.7-128,313
	c0,123.3,43.8,228.8,131.5,316.5S1304.7,1196,1428,1196s228.8-43.8,316.5-131.5C1832.2,976.8,1876,871.3,1876,748
	C1876,626.7,1833.3,522.3,1748,435z M1812,172v128h192V172H1812z M1812-84V44h192V-84H1812z M1812-340v128h192v-128H1812z"/>
</svg>
