<svg xmlns="http://www.w3.org/2000/svg" x="0px" y="0px" viewBox="596 -596 1792 1792" style="enable-background:new 596 -596 1792 1792;">
<path d="M1537,921c-12.7,12.7-27.7,19-45,19c-17.3,0-32.3-6.3-45-19c-12.7-12.7-19-27.7-19-45s6.3-32.3,19-45
	c12.7-12.7,27.7-19,45-19c17.3,0,32.3,6.3,45,19c12.7,12.7,19,27.7,19,45S1549.7,908.3,1537,921z M1930.5,738.5
	c-6.3,6.3-13.8,9.5-22.5,9.5h-832c-8.7,0-16.2-3.2-22.5-9.5c-6.3-6.3-9.5-13.8-9.5-22.5v-960c0-8.7,3.2-16.2,9.5-22.5
	s13.8-9.5,22.5-9.5h832c8.7,0,16.2,3.2,22.5,9.5c6.3,6.3,9.5,13.8,9.5,22.5v960C1940,724.7,1936.8,732.2,1930.5,738.5z M2021-357
	c-31.3-31.3-69-47-113-47h-832c-44,0-81.7,15.7-113,47s-47,69-47,113V844c0,44,15.7,81.7,47,113s69,47,113,47h832
	c44,0,81.7-15.7,113-47c31.3-31.3,47-69,47-113V-244C2068-288,2052.3-325.7,2021-357z"/>
</svg>
