<svg xmlns="http://www.w3.org/2000/svg" x="0px" y="0px" viewBox="596 -596 1792 1792" style="enable-background:new 596 -596 1792 1792;">
<path d="M1748,735c-8.7,0-16.3-3.3-23-10l-233-233l-233,233c-6.7,6.7-14.3,10-23,10c-8.7,0-16.3-3.3-23-10l-146-146
	c-6.7-6.7-10-14.3-10-23c0-8.7,3.3-16.3,10-23l233-233L1067,67c-6.7-6.7-10-14.3-10-23s3.3-16.3,10-23l146-146
	c6.7-6.7,14.3-10,23-10c8.7,0,16.3,3.3,23,10l233,233l233-233c6.7-6.7,14.3-10,23-10s16.3,3.3,23,10l146,146c6.7,6.7,10,14.3,10,23
	s-3.3,16.3-10,23l-233,233l233,233c6.7,6.7,10,14.3,10,23c0,8.7-3.3,16.3-10,23l-146,146C1764.3,731.7,1756.7,735,1748,735z
	 M2341-421c-31.3-31.3-69-47-113-47H756c-44,0-81.7,15.7-113,47s-47,69-47,113V908c0,44,15.7,81.7,47,113c31.3,31.3,69,47,113,47
	h1472c44,0,81.7-15.7,113-47c31.3-31.3,47-69,47-113V-308C2388-352,2372.3-389.7,2341-421z"/>
</svg>
