<svg xmlns="http://www.w3.org/2000/svg" x="0px" y="0px" viewBox="596 -596 1792 1792" style="enable-background:new 596 -596 1792 1792;">
<path d="M1940-500c0,9.3,3,17,9,23s13.7,9,23,9h134l-255,254c-105.3-84-225-126-359-126s-253.7,42-359,126l-57-56l90-99
	c6-6.7,8.8-14.5,8.5-23.5s-3.8-16.2-10.5-21.5l-48-44c-6.7-5.3-14.3-7.8-23-7.5s-16,3.8-22,10.5l-86,94L879-468h133c9.3,0,17-3,23-9
	s9-13.7,9-23v-64c0-9.3-3-17-9-23s-13.7-9-23-9H724c-17.3,0-32.3,6.3-45,19s-19,27.7-19,45v288c0,9.3,3,17,9,23s13.7,9,23,9h64
	c9.3,0,17-3,23-9s9-13.7,9-23v-134l111,112L794-151c-6,6.7-8.8,14.5-8.5,23.5s3.8,16.2,10.5,21.5l48,44c6.7,5.3,14.3,7.8,23,7.5
	s16-3.8,22-10.5l101-111l52,53C958-17.7,916,102,916,236c0,147.3,49.2,275.5,147.5,384.5S1283.3,792,1428,808v132h-96
	c-9.3,0-17,3-23,9s-9,13.7-9,23v64c0,9.3,3,17,9,23s13.7,9,23,9h96v96c0,9.3,3,17,9,23s13.7,9,23,9h64c9.3,0,17-3,23-9s9-13.7,9-23
	v-96h96c9.3,0,17-3,23-9s9-13.7,9-23v-64c0-9.3-3-17-9-23s-13.7-9-23-9h-96V808c144.7-16,266.2-78.5,364.5-187.5
	S2068,383.3,2068,236c0-134-42-253.7-126-359l254-255v134c0,9.3,3,17,9,23s13.7,9,23,9h64c9.3,0,17-3,23-9s9-13.7,9-23v-288
	c0-17.3-6.3-32.3-19-45c-12.7-12.7-27.7-19-45-19h-288c-9.3,0-17,3-23,9s-9,13.7-9,23V-500z M1175.5,552.5
	C1087.8,464.8,1044,359.3,1044,236s43.8-228.8,131.5-316.5S1368.7-212,1492-212s228.8,43.8,316.5,131.5S1940,112.7,1940,236
	s-43.8,228.8-131.5,316.5S1615.3,684,1492,684S1263.2,640.2,1175.5,552.5z"/>
</svg>
