<svg xmlns="http://www.w3.org/2000/svg" x="0px" y="0px" viewBox="596 -596 1792 1792" style="enable-background:new 596 -596 1792 1792;">
<path d="M1637.5-160.5c-37.7-37.7-83.2-56.5-136.5-56.5c-53.3,0-98.8,18.8-136.5,56.5C1326.8-122.8,1308-77.3,1308-24
	c0,28,5.3,53.7,16,77c-47.3,50-91.3,105-132,165c-26.7,40-51.3,81.7-74,125s-45.7,95.2-69,155.5s-41.3,122.3-54,186
	s-22.5,136-29.5,217S959.7,1065,969,1149c1.3,13.3,7,24.5,17,33.5s21.7,13.5,35,13.5h5c14-1.3,25.5-7.5,34.5-18.5
	s13.2-23.8,12.5-38.5c-30-325.3,37.3-611.7,202-859c35.3-52.7,73.7-101.3,115-146c34,23.3,71,35,111,35c52.7,0,98-18.8,136-56.5
	s57-83.2,57-136.5S1675.2-122.8,1637.5-160.5z M1997-305.5c-52-89.7-122.8-160.5-212.5-212.5c-89.7-52-187.2-78-292.5-78
	c-78.7,0-154,15.3-226,46s-134,72-186,124s-93.5,114-124.5,186S909-92.3,909-13c0,94.7,21.3,183,64,265c6.7,12.7,16.8,21.3,30.5,26
	s26.8,3.7,39.5-3s21.2-16.7,25.5-30s3.2-26.7-3.5-40c-34.7-69.3-52-142-52-218c0-64.7,12.7-126.7,38-186s59.3-110.3,102-153
	s93.7-76.7,153-102s121.3-38,186-38c64.7,0,126.7,12.7,186,38c59.3,25.3,110.3,59.3,153,102c42.7,42.7,76.7,93.7,102,153
	s38,121.3,38,186s-12.7,126.7-38,186s-59.3,110.3-102,153c-42.7,42.7-93.7,76.7-153,102c-59.3,25.3-121.3,38-186,38
	c-38,0-74-4.3-108-13c-14-2.7-27-0.2-39,7.5s-19.7,18.2-23,31.5c-3.3,14-1.2,27.2,6.5,39.5c7.7,12.3,18.5,20.2,32.5,23.5
	c44.7,9.3,88.3,14,131,14c105.3,0,202.8-26,292.5-78c89.7-52,160.5-122.7,212.5-212s78-186.7,78-292S2049-215.8,1997-305.5z"/>
</svg>
