<svg xmlns="http://www.w3.org/2000/svg" x="0px" y="0px" viewBox="596 -596 1792 1792" style="enable-background:new 596 -596 1792 1792;">
<path d="M1163,867c-6,6-13.7,9-23,9H820c-9.3,0-17-3-23-9s-9-13.7-9-23V652c0-9.3,3-17,9-23s13.7-9,23-9h320c9.3,0,17,3,23,9
	s9,13.7,9,23v192C1172,853.3,1169,861,1163,867z M1163,483c-6,6-13.7,9-23,9H820c-9.3,0-17-3-23-9s-9-13.7-9-23V268c0-9.3,3-17,9-23
	s13.7-9,23-9h320c9.3,0,17,3,23,9s9,13.7,9,23v192C1172,469.3,1169,477,1163,483z M1675,867c-6,6-13.7,9-23,9h-320c-9.3,0-17-3-23-9
	s-9-13.7-9-23V652c0-9.3,3-17,9-23s13.7-9,23-9h320c9.3,0,17,3,23,9s9,13.7,9,23v192C1684,853.3,1681,861,1675,867z M1163,99
	c-6,6-13.7,9-23,9H820c-9.3,0-17-3-23-9s-9-13.7-9-23v-192c0-9.3,3-17,9-23s13.7-9,23-9h320c9.3,0,17,3,23,9s9,13.7,9,23V76
	C1172,85.3,1169,93,1163,99z M1675,483c-6,6-13.7,9-23,9h-320c-9.3,0-17-3-23-9s-9-13.7-9-23V268c0-9.3,3-17,9-23s13.7-9,23-9h320
	c9.3,0,17,3,23,9s9,13.7,9,23v192C1684,469.3,1681,477,1675,483z M2187,867c-6,6-13.7,9-23,9h-320c-9.3,0-17-3-23-9s-9-13.7-9-23
	V652c0-9.3,3-17,9-23s13.7-9,23-9h320c9.3,0,17,3,23,9s9,13.7,9,23v192C2196,853.3,2193,861,2187,867z M1675,99c-6,6-13.7,9-23,9
	h-320c-9.3,0-17-3-23-9s-9-13.7-9-23v-192c0-9.3,3-17,9-23s13.7-9,23-9h320c9.3,0,17,3,23,9s9,13.7,9,23V76
	C1684,85.3,1681,93,1675,99z M2187,483c-6,6-13.7,9-23,9h-320c-9.3,0-17-3-23-9s-9-13.7-9-23V268c0-9.3,3-17,9-23s13.7-9,23-9h320
	c9.3,0,17,3,23,9s9,13.7,9,23v192C2196,469.3,2193,477,2187,483z M2187,99c-6,6-13.7,9-23,9h-320c-9.3,0-17-3-23-9s-9-13.7-9-23
	v-192c0-9.3,3-17,9-23s13.7-9,23-9h320c9.3,0,17,3,23,9s9,13.7,9,23V76C2196,85.3,2193,93,2187,99z M2277-357
	c-31.3-31.3-69-47-113-47H820c-44,0-81.7,15.7-113,47s-47,69-47,113V844c0,44,15.7,81.7,47,113s69,47,113,47h1344
	c44,0,81.7-15.7,113-47c31.3-31.3,47-69,47-113V-244C2324-288,2308.3-325.7,2277-357z"/>
</svg>
