<svg xmlns="http://www.w3.org/2000/svg" x="0px" y="0px" viewBox="596 -596 1792 1792" style="enable-background:new 596 -596 1792 1792;">
<path d="M1774.5,915c-45,16-90.5,24.3-136.5,25c-66,1.3-124.8-8.8-176.5-30.5c-51.7-21.7-92-50.2-121-85.5s-50.7-72.3-65-111
	c-14.3-38.7-21.5-77-21.5-115V180h-130V15c45.3-16.7,84.8-39.3,118.5-68c33.7-28.7,59.3-60.3,77-95c17.7-34.7,30.7-66.3,39-95
	c8.3-28.7,14.2-57.7,17.5-87c0.7-6.7,3.7-10,9-10h188v326h256v194h-257v398c0,15.3,1.7,29.8,5,43.5c3.3,13.7,9.2,27.2,17.5,40.5
	c8.3,13.3,21.2,23.8,38.5,31.5c17.3,7.7,38,11.2,62,10.5c39.3,0,73.7-7.3,103-22l62,183C1848,882.3,1819.5,899,1774.5,915z
	 M2175.5-383.5c-56.3-56.3-124.2-84.5-203.5-84.5h-960c-79.3,0-147.2,28.2-203.5,84.5S724-259.3,724-180v960
	c0,79.3,28.2,147.2,84.5,203.5c56.3,56.3,124.2,84.5,203.5,84.5h960c79.3,0,147.2-28.2,203.5-84.5c56.3-56.3,84.5-124.2,84.5-203.5
	v-960C2260-259.3,2231.8-327.2,2175.5-383.5z"/>
</svg>
