<svg xmlns="http://www.w3.org/2000/svg" x="0px" y="0px" viewBox="596 -596 1792 1792" style="enable-background:new 596 -596 1792 1792;">
<path d="M2209,831l-402-403h229c17.3,0,32.3-6.3,45-19c12.7-12.7,19-27.7,19-45s-6.3-32.3-19-45L1679-84h197c17.3,0,32.3-6.3,45-19
	s19-27.7,19-45s-6.3-32.3-19-45l-384-384c-12.7-12.7-27.7-19-45-19c-17.3,0-32.3,6.3-45,19l-384,384c-12.7,12.7-19,27.7-19,45
	s6.3,32.3,19,45s27.7,19,45,19h197L903,319c-12.7,12.7-19,27.7-19,45s6.3,32.3,19,45s27.7,19,45,19h229L775,831
	c-12.7,12.7-19,27.7-19,45s6.3,32.3,19,45s27.7,19,45,19h462c-0.7,11.3-2.7,40.5-6,87.5c-3.3,47-5,83.2-5,108.5
	c0,16.7,6,30.8,18,42.5s26.3,17.5,43,17.5h320c16.7,0,31-5.8,43-17.5s18-25.8,18-42.5c0-25.3-1.7-61.5-5-108.5
	c-3.3-47-5.3-76.2-6-87.5h462c17.3,0,32.3-6.3,45-19c12.7-12.7,19-27.7,19-45S2221.7,843.7,2209,831z"/>
</svg>
