<svg xmlns="http://www.w3.org/2000/svg" x="0px" y="0px" viewBox="596 -596 1792 1792" style="enable-background:new 596 -596 1792 1792;">
<path d="M1831,460c0-8.7-3.3-16.3-10-23l-137-137l137-137c6.7-6.7,10-14.3,10-23s-3.3-16.3-10-23L1675-29c-6.7-6.7-14.3-10-23-10
	c-8.7,0-16.3,3.3-23,10l-137,137L1355-29c-6.7-6.7-14.3-10-23-10c-8.7,0-16.3,3.3-23,10l-146,146c-6.7,6.7-10,14.3-10,23
	s3.3,16.3,10,23l137,137l-137,137c-6.7,6.7-10,14.3-10,23s3.3,16.3,10,23l146,146c6.7,6.7,14.3,10,23,10c8.7,0,16.3-3.3,23-10
	l137-137l137,137c6.7,6.7,14.3,10,23,10c8.7,0,16.3-3.3,23-10l146-146C1827.7,476.3,1831,468.7,1831,460z M1963,573
	c-48.7,83.3-114.7,149.3-198,198s-174.3,73-273,73c-98.7,0-189.7-24.3-273-73c-83.3-48.7-149.3-114.7-198-198
	c-48.7-83.3-73-174.3-73-273s24.3-189.7,73-273c48.7-83.3,114.7-149.3,198-198s174.3-73,273-73c98.7,0,189.7,24.3,273,73
	c83.3,48.7,149.3,114.7,198,198s73,174.3,73,273S2011.7,489.7,1963,573z M2157-85.5c-68.7-117.7-161.8-210.8-279.5-279.5
	S1631.3-468,1492-468s-267.8,34.3-385.5,103S895.7-203.2,827-85.5S724,160.7,724,300s34.3,267.8,103,385.5S988.8,896.3,1106.5,965
	s246.2,103,385.5,103s267.8-34.3,385.5-103s210.8-161.8,279.5-279.5c68.7-117.7,103-246.2,103-385.5S2225.7,32.2,2157-85.5z"/>
</svg>
