<svg xmlns="http://www.w3.org/2000/svg" x="0px" y="0px" viewBox="596 -596 1792 1792" style="enable-background:new 596 -596 1792 1792;">
<path d="M1080,648c-18.7-18.7-41.3-28-68-28H692c-26.7,0-49.3,9.3-68,28c-18.7,18.7-28,41.3-28,68v192c0,26.7,9.3,49.3,28,68
	s41.3,28,68,28h320c26.7,0,49.3-9.3,68-28s28-41.3,28-68V716C1108,689.3,1098.7,666.7,1080,648z M1080,136c-18.7-18.7-41.3-28-68-28
	H692c-26.7,0-49.3,9.3-68,28s-28,41.3-28,68v192c0,26.7,9.3,49.3,28,68s41.3,28,68,28h320c26.7,0,49.3-9.3,68-28s28-41.3,28-68V204
	C1108,177.3,1098.7,154.7,1080,136z M2360,648c-18.7-18.7-41.3-28-68-28h-960c-26.7,0-49.3,9.3-68,28c-18.7,18.7-28,41.3-28,68v192
	c0,26.7,9.3,49.3,28,68c18.7,18.7,41.3,28,68,28h960c26.7,0,49.3-9.3,68-28c18.7-18.7,28-41.3,28-68V716
	C2388,689.3,2378.7,666.7,2360,648z M1080-376c-18.7-18.7-41.3-28-68-28H692c-26.7,0-49.3,9.3-68,28s-28,41.3-28,68v192
	c0,26.7,9.3,49.3,28,68s41.3,28,68,28h320c26.7,0,49.3-9.3,68-28s28-41.3,28-68v-192C1108-334.7,1098.7-357.3,1080-376z M2360,136
	c-18.7-18.7-41.3-28-68-28h-960c-26.7,0-49.3,9.3-68,28c-18.7,18.7-28,41.3-28,68v192c0,26.7,9.3,49.3,28,68
	c18.7,18.7,41.3,28,68,28h960c26.7,0,49.3-9.3,68-28c18.7-18.7,28-41.3,28-68V204C2388,177.3,2378.7,154.7,2360,136z M2360-376
	c-18.7-18.7-41.3-28-68-28h-960c-26.7,0-49.3,9.3-68,28c-18.7,18.7-28,41.3-28,68v192c0,26.7,9.3,49.3,28,68
	c18.7,18.7,41.3,28,68,28h960c26.7,0,49.3-9.3,68-28c18.7-18.7,28-41.3,28-68v-192C2388-334.7,2378.7-357.3,2360-376z"/>
</svg>
