<svg xmlns="http://www.w3.org/2000/svg" x="0px" y="0px" viewBox="596 -596 1792 1792" style="enable-background:new 596 -596 1792 1792;">
<path d="M1756,825.9c-32,0.7-59.2-4-81.5-14c-22.3-10-38.8-23.8-49.5-41.5c-10.7-17.7-18.2-35.2-22.5-52.5c-4.3-17.3-6.5-36-6.5-56
	v-518h334v-252h-333v-424h-244c-2.7,0-5.2,1.2-7.5,3.5s-3.8,5.2-4.5,8.5c-3.3,30-8.3,59.5-15,88.5s-18,62-34,99s-35.3,71-58,102
	s-53,61-91,90s-81,52.2-129,69.5v215h168v544c0,38.7,5.5,78,16.5,118s29.5,80,55.5,120s57.7,75.3,95,106
	c37.3,30.7,84.8,55.3,142.5,74s121.2,27.3,190.5,26c59.3-0.7,118.3-11.3,177-32c58.7-20.7,95.7-42.7,111-66l-80-237
	C1852.7,814.9,1808,824.6,1756,825.9z"/>
</svg>
