<svg xmlns="http://www.w3.org/2000/svg" x="0px" y="0px" viewBox="596 -596 1792 1792" style="enable-background:new 596 -596 1792 1792;">
<path d="M2261.6,811.8v-1024h80c22,0,36-6.2,42-18.5s2.3-27.2-11-44.5l-126-162c-13.3-17.3-29.7-26-49-26c-19.3,0-35.7,8.7-49,26
	l-126,162c-13.3,17.3-17,32.2-11,44.5s20,18.5,42,18.5h80v1024h-80c-22,0-36,6.2-42,18.5c-6,12.3-2.3,27.2,11,44.5l126,162
	c13.3,17.3,29.7,26,49,26c19.3,0,35.7-8.7,49-26l126-162c13.3-17.3,17-32.2,11-44.5c-6-12.3-20-18.5-42-18.5H2261.6z M597.6-466.2
	v383c9.3,12,28,26.7,56,44c17.3-1.3,31.5-19.2,42.5-53.5c11-34.3,21.5-71.3,31.5-111s21.3-63.8,34-72.5c13.3-9.3,40-18,80-26
	s71-12,93-12c100.7,0,154.7,4,162,12c2,2.7,3.7,7.3,5,14c1.3,6.7,2.3,14.7,3,24c0.7,9.3,1,17.8,1,25.5s-0.2,16-0.5,25
	c-0.3,9-0.5,14.2-0.5,15.5v117c0,67.3,1,168.3,3,303s3,235.7,3,303c0,227.3-6.3,355-19,383c-16,9.3-42,18.3-78,27
	c-36,8.7-68.8,18.3-98.5,29c-29.7,10.7-50.2,25-61.5,43v9c0,0.7,1,18,3,52c34,0,84.7-3,152-9s117.7-9,151-9c43.3,0,112.3,3.3,207,10
	c94.7,6.7,167.3,9.3,218,8l34-1c2-10,3-19.7,3-29c0-6.7-1.7-23.3-5-50c-24-10.7-64-23.2-120-37.5c-56-14.3-97.3-28.5-124-42.5
	c-6.7-22-10.8-45-12.5-69c-1.7-24-1.7-54.5,0-91.5c1.7-37,2.5-60.8,2.5-71.5c0-107.3-0.7-259-2-455c-1.3-196-2-325.3-2-388
	c-0.7-36.7,2-82,8-136c21.3-2.7,45-4.7,71-6s47.3-2,64-2c16.7,0,41.5,0.2,74.5,0.5s55.2,0.5,66.5,0.5c1.3,0,6.8-0.2,16.5-0.5
	s15.7-0.2,18,0.5s6.7,1.5,13,2.5s11.5,3,15.5,6s8,7.2,12,12.5c0.7,0.7,3.2,12.5,7.5,35.5s9.2,47.5,14.5,73.5s9,42,11,48
	c19.3,56,37.3,98.7,54,128c19.3-2.7,42-8.7,68-18c3.3-19.3,5-55.7,5-109c0-149.3-0.7-261.3-2-336c-2.7,0-7.3-0.2-14-0.5
	s-11.3-0.5-14-0.5l-42,1c-5.3,7.3-10.3,13.2-15,17.5s-10.5,7.3-17.5,9s-12.3,2.7-16,3s-10.5,0.3-20.5,0s-17-0.5-21-0.5h-293
	c-24,0-59.8-0.2-107.5-0.5c-47.7-0.3-83.5-0.5-107.5-0.5c-29.3,0-73.3,0.7-132,2c-58.7,1.3-102.7,2-132,2c-132.7,0-203-1.7-211-5
	l-54-27L597.6-466.2z"/>
</svg>
