<svg xmlns="http://www.w3.org/2000/svg" x="0px" y="0px" viewBox="596 -596 1792 1792" style="enable-background:new 596 -596 1792 1792;">
<path d="M953-47c-25,25-55.2,37.5-90.5,37.5C827.2-9.5,797-22,772-47s-37.5-55.2-37.5-90.5S747-203,772-228s55.2-37.5,90.5-37.5
	c35.3,0,65.5,12.5,90.5,37.5s37.5,55.2,37.5,90.5S978-72,953-47z M2020.5,347.5l-715-714c-25.3-25.3-59.3-46.8-102-64.5
	c-42.7-17.7-81.7-26.5-117-26.5h-416c-34.7,0-64.7,12.7-90,38s-38,55.3-38,90v416c0,35.3,8.8,74.3,26.5,117s39.2,76.3,64.5,101
	l715,716c24.7,24.7,54.7,37,90,37c34.7,0,65-12.3,91-37l491-492c24.7-24.7,37-54.7,37-90C2057.5,403.8,2045.2,373.5,2020.5,347.5z
	 M2404.5,347.5l-715-714c-25.3-25.3-59.3-46.8-102-64.5s-81.7-26.5-117-26.5h-224c35.3,0,74.3,8.8,117,26.5
	c42.7,17.7,76.7,39.2,102,64.5l715,714c24.7,26,37,56.3,37,91c0,35.3-12.3,65.3-37,90l-470,470c20,20.7,37.7,35.7,53,45s35,14,59,14
	c34.7,0,65-12.3,91-37l491-492c24.7-24.7,37-54.7,37-90C2441.5,403.8,2429.2,373.5,2404.5,347.5z"/>
</svg>
