<svg xmlns="http://www.w3.org/2000/svg" x="0px" y="0px" viewBox="596 -596 1792 1792" style="enable-background:new 596 -596 1792 1792;">
<path d="M1579.5,498.5c-27,63-63.5,117.5-109.5,163.5s-100.5,82.5-163.5,109.5S1177.3,812,1108,812c-69.3,0-135.5-13.5-198.5-40.5
	S792,708,746,662s-82.5-100.5-109.5-163.5S596,369.3,596,300s13.5-135.5,40.5-198.5S700-16,746-62s100.5-82.5,163.5-109.5
	S1038.7-212,1108-212c69.3,0,135.5,13.5,198.5,40.5S1424-108,1470-62s82.5,100.5,109.5,163.5S1620,230.7,1620,300
	S1606.5,435.5,1579.5,498.5z M2347.5,498.5c-27,63-63.5,117.5-109.5,163.5s-100.5,82.5-163.5,109.5S1945.3,812,1876,812h-386
	c79.3-60,142.2-134.7,188.5-224s69.5-185.3,69.5-288s-23.2-198.7-69.5-288S1569.3-152,1490-212h386c69.3,0,135.5,13.5,198.5,40.5
	S2192-108,2238-62s82.5,100.5,109.5,163.5S2388,230.7,2388,300S2374.5,435.5,2347.5,498.5z M2465,51.5c-34-79-79.5-147-136.5-204
	s-125-102.5-204-136.5s-161.8-51-248.5-51h-768c-86.7,0-169.5,17-248.5,51s-147,79.5-204,136.5S553-27.5,519,51.5S468,213.3,468,300
	s17,169.5,51,248.5s79.5,147,136.5,204s125,102.5,204,136.5s161.8,51,248.5,51h768c86.7,0,169.5-17,248.5-51s147-79.5,204-136.5
	s102.5-125,136.5-204s51-161.8,51-248.5S2499,130.5,2465,51.5z"/>
</svg>
