<svg xmlns="http://www.w3.org/2000/svg" x="0px" y="0px" viewBox="596 -596 1792 1792" style="enable-background:new 596 -596 1792 1792;">
<path d="M519,548.5c34,79,79.5,147,136.5,204s125,102.5,204,136.5s161.8,51,248.5,51h768c86.7,0,169.5-17,248.5-51
	s147-79.5,204-136.5s102.5-125,136.5-204s51-161.8,51-248.5s-17-169.5-51-248.5s-79.5-147-136.5-204s-125-102.5-204-136.5
	s-161.8-51-248.5-51h-768c-86.7,0-169.5,17-248.5,51s-147,79.5-204,136.5S553-27.5,519,51.5S468,213.3,468,300S485,469.5,519,548.5z
	 M1677.5,771.5c-63-27-117.5-63.5-163.5-109.5s-82.5-100.5-109.5-163.5S1364,369.3,1364,300s13.5-135.5,40.5-198.5S1468-16,1514-62
	s100.5-82.5,163.5-109.5S1806.7-212,1876-212s135.5,13.5,198.5,40.5S2192-108,2238-62s82.5,100.5,109.5,163.5S2388,230.7,2388,300
	s-13.5,135.5-40.5,198.5S2284,616,2238,662s-100.5,82.5-163.5,109.5S1945.3,812,1876,812S1740.5,798.5,1677.5,771.5z"/>
</svg>
