<svg xmlns="http://www.w3.org/2000/svg" x="0px" y="0px" viewBox="596 -596 1792 1792" style="enable-background:new 596 -596 1792 1792;">
<path d="M1248.5,261.5c0-8.7-3.3-16.3-10-23l-466-466c-6.7-6.7-14.3-10-23-10s-16.3,3.3-23,10l-50,50c-6.7,6.7-10,14.3-10,23
	s3.3,16.3,10,23l393,393l-393,393c-6.7,6.7-10,14.3-10,23s3.3,16.3,10,23l50,50c6.7,6.7,14.3,10,23,10s16.3-3.3,23-10l466-466
	C1245.2,277.8,1248.5,270.2,1248.5,261.5z M2308.5,718.5c-6-6-13.7-9-23-9h-960c-9.3,0-17,3-23,9s-9,13.7-9,23v64c0,9.3,3,17,9,23
	s13.7,9,23,9h960c9.3,0,17-3,23-9s9-13.7,9-23v-64C2317.5,732.2,2314.5,724.5,2308.5,718.5z"/>
</svg>
