<svg xmlns="http://www.w3.org/2000/svg" x="0px" y="0px" viewBox="596 -596 1792 1792" style="enable-background:new 596 -596 1792 1792;">
<path d="M1899,123c0.7,6,1,15,1,27c0,56-8.2,112.2-24.5,168.5s-41.3,110.3-75,162s-73.8,97.3-120.5,137
	c-46.7,39.7-102.7,71.3-168,95c-65.3,23.7-135.3,35.5-210,35.5c-116,0-223.3-31.3-322-94c16,2,32.7,3,50,3c96.7,0,183.7-30,261-90
	c-45.3-0.7-85.8-14.7-121.5-42c-35.7-27.3-60.5-62-74.5-104c17.3,2.7,30.3,4,39,4c14.7,0,31.7-2.7,51-8
	c-48.7-9.3-89.7-33.5-123-72.5s-50-83.5-50-133.5v-2c35.3,16.7,68.7,25.3,100,26c-60.7-40.7-91-99-91-175c0-37.3,9.7-72.7,29-106
	c52.7,64.7,116.7,116.3,192,155s156,60.3,242,65c-3.3-12.7-5-28.7-5-48c0-58,20.5-107.5,61.5-148.5S1631-84,1689-84
	c61.3,0,112.3,22,153,66c46-8.7,90.7-25.7,134-51c-16.7,51.3-47.7,90.3-93,117c43.3-6,83.7-17.3,121-34C1976,56.7,1941,93,1899,123z
	 M2175.5-383.5c-56.3-56.3-124.2-84.5-203.5-84.5h-960c-79.3,0-147.2,28.2-203.5,84.5S724-259.3,724-180v960
	c0,79.3,28.2,147.2,84.5,203.5c56.3,56.3,124.2,84.5,203.5,84.5h960c79.3,0,147.2-28.2,203.5-84.5c56.3-56.3,84.5-124.2,84.5-203.5
	v-960C2260-259.3,2231.8-327.2,2175.5-383.5z"/>
</svg>
