<svg xmlns="http://www.w3.org/2000/svg" x="0px" y="0px" viewBox="596 -596 1792 1792" style="enable-background:new 596 -596 1792 1792;">
<path d="M1864,455L1544,7c-12.7-18-30-27-52-27s-39.3,9-52,27l-320,448c-15.3,20.7-17,42.7-5,66c11.3,23.3,30.3,35,57,35h640
	c26.7,0,45.7-11.7,57-35C1881,497.7,1879.3,475.7,1864,455z M1994.5,802.5c-6.3,6.3-13.8,9.5-22.5,9.5h-960
	c-8.7,0-16.2-3.2-22.5-9.5c-6.3-6.3-9.5-13.8-9.5-22.5v-960c0-8.7,3.2-16.2,9.5-22.5c6.3-6.3,13.8-9.5,22.5-9.5h960
	c8.7,0,16.2,3.2,22.5,9.5s9.5,13.8,9.5,22.5v960C2004,788.7,2000.8,796.2,1994.5,802.5z M2175.5-383.5
	c-56.3-56.3-124.2-84.5-203.5-84.5h-960c-79.3,0-147.2,28.2-203.5,84.5S724-259.3,724-180v960c0,79.3,28.2,147.2,84.5,203.5
	c56.3,56.3,124.2,84.5,203.5,84.5h960c79.3,0,147.2-28.2,203.5-84.5c56.3-56.3,84.5-124.2,84.5-203.5v-960
	C2260-259.3,2231.8-327.2,2175.5-383.5z"/>
</svg>
