<svg xmlns="http://www.w3.org/2000/svg" x="0px" y="0px" viewBox="596 -596 1792 1792" style="enable-background:new 596 -596 1792 1792;">
<path d="M1811.9-500c0,9.3,3,17,9,23s13.7,9,23,9h134l-255,254c-58.7-46.7-124.7-81-198-103c-73.3-22-149.3-28.3-228-19
	c-135.3,15.3-251,72.8-347,172.5S800.6,54,789.9,190c-8,103.3,9.7,200.5,53,291.5S948.4,647,1029.4,705s171.2,92.3,270.5,103v132
	h-96c-9.3,0-17,3-23,9s-9,13.7-9,23v64c0,9.3,3,17,9,23s13.7,9,23,9h96v96c0,9.3,3,17,9,23s13.7,9,23,9h64c9.3,0,17-3,23-9
	s9-13.7,9-23v-96h96c9.3,0,17-3,23-9s9-13.7,9-23v-64c0-9.3-3-17-9-23s-13.7-9-23-9h-96V808c144.7-16,266.2-78.5,364.5-187.5
	c98.3-109,147.5-237.2,147.5-384.5c0-134-42-253.7-126-359l254-255v134c0,9.3,3,17,9,23s13.7,9,23,9h64c9.3,0,17-3,23-9s9-13.7,9-23
	v-288c0-17.3-6.3-32.3-19-45c-12.7-12.7-27.7-19-45-19h-288c-9.3,0-17,3-23,9s-9,13.7-9,23V-500z M1047.4,552.5
	C959.8,464.8,915.9,359.3,915.9,236S959.8,7.2,1047.4-80.5S1240.6-212,1363.9-212s228.8,43.8,316.5,131.5
	c87.7,87.7,131.5,193.2,131.5,316.5s-43.8,228.8-131.5,316.5c-87.7,87.7-193.2,131.5-316.5,131.5S1135.1,640.2,1047.4,552.5z"/>
</svg>
