<svg xmlns="http://www.w3.org/2000/svg" x="0px" y="0px" viewBox="596 -596 1792 1792" style="enable-background:new 596 -596 1792 1792;">
<path d="M2059,277c-6-6-13.7-9-23-9h-160c-9.3,0-17,3-23,9s-9,13.7-9,23c0,126.7-43.3,236-130,328c-86.7,92-192.7,142.3-318,151V292
	l393-121c15.3-5.3,23-15.7,23-31V12c0-10.7-4.3-19.3-13-26c-8.7-6.7-18-8.3-28-5L1396,97V4l393-121c15.3-5.3,23-15.7,23-31v-128
	c0-10.7-4.3-19.3-13-26c-8.7-6.7-18-8.3-28-5l-375,116v-181c0-9.3-3-17-9-23s-13.7-9-23-9h-160c-9.3,0-17,3-23,9s-9,13.7-9,23v250
	L939-51c-15.3,5.3-23,15.7-23,31v128c0,10.7,4.3,19.3,13,26c6,4,12.3,6,19,6c4,0,7-0.3,9-1l215-66v93l-233,71
	c-15.3,5.3-23,15.7-23,31v128c0,10.7,4.3,19.3,13,26c6,4,12.3,6,19,6c4,0,7-0.3,9-1l215-66v611c0,9.3,3,17,9,23s13.7,9,23,9h160
	c127.3,0,245-31.5,353-94.5S1910.5,761,1973.5,653s94.5-225.7,94.5-353C2068,290.7,2065,283,2059,277z"/>
</svg>
