<svg xmlns="http://www.w3.org/2000/svg" x="0px" y="0px" viewBox="596 -596 1792 1792" style="enable-background:new 596 -596 1792 1792;">
<path d="M929,793.5c-12.7,12.3-27.7,18.5-45,18.5c-18,0-33.2-6.2-45.5-18.5S820,766,820,748c0-17.3,6.2-32.3,18.5-45
	s27.5-19,45.5-19c17.3,0,32.3,6.3,45,19s19,27.7,19,45C948,766,941.7,781.2,929,793.5z M1089,191c-12.7-12.7-27.7-19-45-19H756
	c-17.3,0-32.3,6.3-45,19s-19,27.7-19,45v640c0,17.3,6.3,32.3,19,45s27.7,19,45,19h288c17.3,0,32.3-6.3,45-19s19-27.7,19-45V236
	C1108,218.7,1101.7,203.7,1089,191z M2235,101c-38-38-83-57-135-57h-277c2.7-9.3,5.3-17.3,8-24s6.3-14,11-22s8-14,10-18
	c12-22.7,21.2-41.3,27.5-56c6.3-14.7,12.7-34.7,19-60s9.5-50.7,9.5-76c0-16-0.2-29-0.5-39s-2-25-5-45s-7-36.7-12-50s-13-28.3-24-45
	s-24.3-30.2-40-40.5s-35.7-19-60-26S1714.7-468,1684-468c-17.3,0-32.3,6.3-45,19c-13.3,13.3-24.7,30-34,50
	c-9.3,20-15.8,37.3-19.5,52c-3.7,14.7-7.8,35-12.5,61c-6,28-10.5,48.2-13.5,60.5s-8.8,28.5-17.5,48.5c-8.7,20-19,36-31,48
	c-22,22-55.7,62-101,120c-32.7,42.7-66.3,83-101,121c-34.7,38-60,57.7-76,59c-16.7,1.3-31,8.2-43,20.5s-18,26.8-18,43.5v641
	c0,17.3,6.3,32.2,19,44.5s27.7,18.8,45,19.5c23.3,0.7,76,15.3,158,44c51.3,17.3,91.5,30.5,120.5,39.5s69.5,18.7,121.5,29
	s100,15.5,144,15.5h17h76h36c88.7-1.3,154.3-27.3,197-78c38.7-46,55-106.3,49-181c26-24.7,44-56,54-94c11.3-40.7,11.3-79.7,0-117
	c30.7-40.7,45-86.3,43-137c0-21.3-5-46.7-15-76c36.7-42,55-91.7,55-149C2292,184,2273,139,2235,101z"/>
</svg>
