<svg xmlns="http://www.w3.org/2000/svg" x="0px" y="0px" viewBox="596 -596 1792 1792" style="enable-background:new 596 -596 1792 1792;">
<path d="M942.5,582.5c-25,25-55.2,37.5-90.5,37.5s-65.5-12.5-90.5-37.5S724,527.3,724,492s12.5-65.5,37.5-90.5S816.7,364,852,364
	c35.3,0,65.5,12.5,90.5,37.5S980,456.7,980,492S967.5,557.5,942.5,582.5z M1134.5,134.5c-25,25-55.2,37.5-90.5,37.5
	c-35.3,0-65.5-12.5-90.5-37.5S916,79.3,916,44s12.5-65.5,37.5-90.5S1008.7-84,1044-84c35.3,0,65.5,12.5,90.5,37.5S1172,8.7,1172,44
	S1159.5,109.5,1134.5,134.5z M1672,616c14.7,38,16.7,77,6,117c-13.3,51.3-43,90.3-89,117s-94.7,33.3-146,20
	c-51.3-13.3-90.3-43-117-89c-26.7-46-33.3-94.7-20-146c10.7-40,31.7-72.8,63-98.5c31.3-25.7,67-40.2,107-43.5l101-382
	c4.7-17.3,14.7-30.5,30-39.5c15.3-9,31.3-11.2,48-6.5s29.5,14.5,38.5,29.5s11.5,31.2,7.5,48.5l-101,382
	C1633.3,547.7,1657.3,578,1672,616z M2222.5,582.5c-25,25-55.2,37.5-90.5,37.5c-35.3,0-65.5-12.5-90.5-37.5S2004,527.3,2004,492
	s12.5-65.5,37.5-90.5s55.2-37.5,90.5-37.5c35.3,0,65.5,12.5,90.5,37.5s37.5,55.2,37.5,90.5S2247.5,557.5,2222.5,582.5z M1582.5-57.5
	c-25,25-55.2,37.5-90.5,37.5c-35.3,0-65.5-12.5-90.5-37.5S1364-112.7,1364-148c0-35.3,12.5-65.5,37.5-90.5s55.2-37.5,90.5-37.5
	c35.3,0,65.5,12.5,90.5,37.5s37.5,55.2,37.5,90.5C1620-112.7,1607.5-82.5,1582.5-57.5z M2030.5,134.5c-25,25-55.2,37.5-90.5,37.5
	s-65.5-12.5-90.5-37.5S1812,79.3,1812,44s12.5-65.5,37.5-90.5S1904.7-84,1940-84s65.5,12.5,90.5,37.5S2068,8.7,2068,44
	S2055.5,109.5,2030.5,134.5z M2317,144c-47.3-110.7-111-206-191-286s-175.3-143.7-286-191s-226.7-71-348-71
	c-121.3,0-237.3,23.7-348,71c-110.7,47.3-206,111-286,191S714.3,33.3,667,144s-71,226.7-71,348c0,174.7,47,335.7,141,483
	c12.7,19.3,30.7,29,54,29h1402c23.3,0,41.3-9.7,54-29c94-148,141-309,141-483C2388,370.7,2364.3,254.7,2317,144z"/>
</svg>
