<svg xmlns="http://www.w3.org/2000/svg" x="0px" y="0px" viewBox="596 -596 1792 1792" style="enable-background:new 596 -596 1792 1792;">
<path d="M1291,803c-6,6-13.7,9-23,9h-64c-9.3,0-17-3-23-9s-9-13.7-9-23V76c0-9.3,3-17,9-23s13.7-9,23-9h64c9.3,0,17,3,23,9
	s9,13.7,9,23v704C1300,789.3,1297,797,1291,803z M1547,803c-6,6-13.7,9-23,9h-64c-9.3,0-17-3-23-9s-9-13.7-9-23V76c0-9.3,3-17,9-23
	s13.7-9,23-9h64c9.3,0,17,3,23,9s9,13.7,9,23v704C1556,789.3,1553,797,1547,803z M1803,803c-6,6-13.7,9-23,9h-64c-9.3,0-17-3-23-9
	s-9-13.7-9-23V76c0-9.3,3-17,9-23s13.7-9,23-9h64c9.3,0,17,3,23,9s9,13.7,9,23v704C1812,789.3,1809,797,1803,803z M1317-329
	c4.7-6,10.3-9.7,17-11h317c6.7,1.3,12.3,5,17,11l48,117h-448L1317-329z M2187-203c-6-6-13.7-9-23-9h-309l-70-167
	c-10-24.7-28-45.7-54-63s-52.3-26-79-26h-320c-26.7,0-53,8.7-79,26s-44,38.3-54,63l-70,167H820c-9.3,0-17,3-23,9s-9,13.7-9,23v64
	c0,9.3,3,17,9,23s13.7,9,23,9h96v952c0,55.3,15.7,102.5,47,141.5s69,58.5,113,58.5h832c44,0,81.7-20.2,113-60.5
	c31.3-40.3,47-88.2,47-143.5V-84h96c9.3,0,17-3,23-9s9-13.7,9-23v-64C2196-189.3,2193-197,2187-203z"/>
</svg>
