<svg xmlns="http://www.w3.org/2000/svg" x="0px" y="0px" viewBox="596 -596 1792 1792" style="enable-background:new 596 -596 1792 1792;">
<path d="M1166,838c-25.3,25.3-55.3,38-90,38s-64.7-12.7-90-38c-25.3-25.3-38-55.3-38-90s12.7-64.7,38-90c25.3-25.3,55.3-38,90-38
	s64.7,12.7,90,38c25.3,25.3,38,55.3,38,90S1191.3,812.7,1166,838z M820,206c0-8.7,3-16,9-22l195-195c6-6,13.3-9,22-9h158v256H820
	V206z M2062,838c-25.3,25.3-55.3,38-90,38s-64.7-12.7-90-38s-38-55.3-38-90s12.7-64.7,38-90s55.3-38,90-38s64.7,12.7,90,38
	c25.3,25.3,38,55.3,38,90S2087.3,812.7,2062,838z M2337-385c-12.7-12.7-27.7-19-45-19H1268c-17.3,0-32.3,6.3-45,19
	c-12.7,12.7-19,27.7-19,45v192h-160c-18,0-37.5,4.3-58.5,13s-37.8,19.3-50.5,32L737,95c-8.7,8.7-16.2,18.7-22.5,30s-11,21.5-14,30.5
	s-5.2,21.3-6.5,37s-2.2,27.2-2.5,34.5s-0.3,20,0,38s0.5,29.7,0.5,35v320c-17.3,0-32.3,6.3-45,19s-19,27.7-19,45
	c0,10,1.3,18.8,4,26.5s7.2,13.8,13.5,18.5s11.8,8.5,16.5,11.5s12.5,5,23.5,6s18.5,1.7,22.5,2s12.5,0.3,25.5,0S754,748,756,748h64
	c0,70.7,25,131,75,181s110.3,75,181,75s131-25,181-75s75-110.3,75-181h384c0,70.7,25,131,75,181s110.3,75,181,75s131-25,181-75
	s75-110.3,75-181c2,0,9.5,0.2,22.5,0.5s21.5,0.3,25.5,0s11.5-1,22.5-2s18.8-3,23.5-6c4.7-3,10.2-6.8,16.5-11.5
	c6.3-4.7,10.8-10.8,13.5-18.5c2.7-7.7,4-16.5,4-26.5V-340C2356-357.3,2349.7-372.3,2337-385z"/>
</svg>
