<svg xmlns="http://www.w3.org/2000/svg" x="0px" y="0px" viewBox="596 -596 1792 1792" style="enable-background:new 596 -596 1792 1792;">
<path d="M963.5,335.5C945.2,317.2,923.3,308,898,308c-26,0-48.2,9.2-66.5,27.5C813.2,353.8,804,375.7,804,401
	c0,26,9.2,48.2,27.5,66.5C849.8,485.8,872,495,898,495c25.3,0,47.2-9.2,65.5-27.5S991,427,991,401
	C991,375.7,981.8,353.8,963.5,335.5z M2117.5,334c-18.3-18-40.5-27-66.5-27s-48.2,9-66.5,27s-27.5,40-27.5,66s9.2,48.2,27.5,66.5
	S2025,494,2051,494s48.2-9.2,66.5-27.5c18.3-18.3,27.5-40.5,27.5-66.5S2135.8,352,2117.5,334z M1048.5,537.5
	C1010.8,575.2,965.3,594,912,594s-98.8-18.8-136.5-56.5C737.8,499.8,719,454.3,719,401s18.8-98.8,56.5-136.5
	C813.2,226.8,858.7,208,912,208s98.8,19,136.5,57c37.7,38,56.5,83.3,56.5,136C1105,454.3,1086.2,499.8,1048.5,537.5z M2201.5,536.5
	c-37.7,37.7-83.2,56.5-136.5,56.5c-53.3,0-98.8-18.8-136.5-56.5S1872,453.3,1872,400s19-98.8,57-136.5s83.3-56.5,136-56.5
	c53.3,0,98.8,18.8,136.5,56.5c37.7,37.7,56.5,83.2,56.5,136.5S2239.2,498.8,2201.5,536.5z M1108.5,204.5
	C1054.2,150.2,988.7,123,912,123s-142.3,27.2-197,81.5c-54.7,54.3-82,119.8-82,196.5s27.2,142.3,81.5,197
	c54.3,54.7,120.2,82,197.5,82c76.7,0,142.2-27.2,196.5-81.5c54.3-54.3,81.5-120.2,81.5-197.5C1190,324.3,1162.8,258.8,1108.5,204.5z
	 M2262.5,203.5c-54.3-54.3-120.2-81.5-197.5-81.5c-76.7,0-142.2,27.2-196.5,81.5S1787,323.3,1787,400s27.2,142.2,81.5,196.5
	c54.3,54.3,119.8,81.5,196.5,81.5c77.3,0,143.2-27.2,197.5-81.5c54.3-54.3,81.5-119.8,81.5-196.5S2316.8,257.8,2262.5,203.5z
	 M1244.5,729.5C1154.2,819.8,1045.3,865,918,865c-83.3,0-160.3-20.7-231-62s-126.7-97.5-168-168.5S457,486.3,457,403
	s20.7-160.5,62-231.5S616.3,44.3,687,3s147.7-62,231-62c127.3,0,236.2,45.2,326.5,135.5C1334.8,166.8,1380,275.7,1380,403
	S1334.8,639.2,1244.5,729.5z M1831-120c-68.7,31.3-127.8,72.3-177.5,123s-89,110.8-118,180.5S1492,326.3,1492,403
	c0-78-15.2-152.3-45.5-223s-71-131.7-122-183S1212.7-95.2,1142-125.5c-70.7-30.3-145-45.5-223-45.5c169.3-73.3,360.3-110,573-110
	c201.3,0,386.7,37,556,111C1972-168,1899.7-151.3,1831-120z M2392,729.5c-90,90.3-198.7,135.5-326,135.5s-236.2-45.2-326.5-135.5
	S1604,530.3,1604,403s45.2-236.2,135.5-326.5S1938.7-59,2066-59s236,45.2,326,135.5s135,199.2,135,326.5S2482,639.2,2392,729.5z
	 M1913-320c-131.3-37.3-271.7-56-421-56c-150.7,0-294.7,18.8-432,56.5S804.3-229.7,705-163H340c29.3,34,54.3,72.2,75,114.5
	C435.7-6.2,449,32,455,66c-73.3,100.7-110,213-110,337c0,104,25.7,200,77,288s121,157.5,209,208.5S814.7,976,918,976
	c88.7,0,171.8-18.8,249.5-56.5c77.7-37.7,143.2-89.5,196.5-155.5c21.3,24.7,46.2,57.2,74.5,97.5s46.2,67.8,53.5,82.5
	c54.7-82,97.7-141.7,129-179c53.3,66,118.7,117.7,196,155s160.3,56,249,56c103.3,0,199-25.5,287-76.5S2510.7,779,2562,691
	s77-184,77-288c0-124-36.7-236.3-110-337c6-34,19.3-72.2,40-114.5c20.7-42.3,45.7-80.5,75-114.5h-383
	C2160.3-230.3,2044.3-282.7,1913-320z"/>
</svg>
