<svg xmlns="http://www.w3.org/2000/svg" x="0px" y="0px" viewBox="596 -596 1792 1792" style="enable-background:new 596 -596 1792 1792;">
<path d="M1854,572l-90,90c-12.7,12.7-28,19-46,19c-17.3,0-32.3-6.3-45-19l-181-181l-181,181c-12.7,12.7-27.7,19-45,19
	c-18,0-33.3-6.3-46-19l-90-90c-12.7-12.7-19-28-19-46c0-17.3,6.3-32.3,19-45l181-181l-181-181c-12.7-12.7-19-27.7-19-45
	c0-18,6.3-33.3,19-46l90-90c12.7-12.7,28-19,46-19c17.3,0,32.3,6.3,45,19l181,181l181-181c12.7-12.7,27.7-19,45-19
	c18,0,33.3,6.3,46,19l90,90c12.7,12.7,19,28,19,46c0,17.3-6.3,32.3-19,45l-181,181l181,181c12.7,12.7,19,27.7,19,45
	C1873,544,1866.7,559.3,1854,572z M2157-85.5c-68.7-117.7-161.8-210.8-279.5-279.5S1631.3-468,1492-468s-267.8,34.3-385.5,103
	S895.7-203.2,827-85.5S724,160.7,724,300s34.3,267.8,103,385.5S988.8,896.3,1106.5,965s246.2,103,385.5,103s267.8-34.3,385.5-103
	s210.8-161.8,279.5-279.5c68.7-117.7,103-246.2,103-385.5S2225.7,32.2,2157-85.5z"/>
</svg>
