<svg xmlns="http://www.w3.org/2000/svg" x="0px" y="0px" viewBox="596 -596 1792 1792" style="enable-background:new 596 -596 1792 1792;">
<path d="M1620,748h640v128h-640V748z M1236,236h1024v128H1236V236z M1876-276h384v128h-384V-276z M2369,639
	c-12.7-12.7-27.7-19-45-19H660c-17.3,0-32.3,6.3-45,19c-12.7,12.7-19,27.7-19,45v256c0,17.3,6.3,32.3,19,45s27.7,19,45,19h1664
	c17.3,0,32.3-6.3,45-19c12.7-12.7,19-27.7,19-45V684C2388,666.7,2381.7,651.7,2369,639z M2369,127c-12.7-12.7-27.7-19-45-19H660
	c-17.3,0-32.3,6.3-45,19s-19,27.7-19,45v256c0,17.3,6.3,32.3,19,45s27.7,19,45,19h1664c17.3,0,32.3-6.3,45-19
	c12.7-12.7,19-27.7,19-45V172C2388,154.7,2381.7,139.7,2369,127z M2369-385c-12.7-12.7-27.7-19-45-19H660c-17.3,0-32.3,6.3-45,19
	s-19,27.7-19,45v256c0,17.3,6.3,32.3,19,45s27.7,19,45,19h1664c17.3,0,32.3-6.3,45-19c12.7-12.7,19-27.7,19-45v-256
	C2388-357.3,2381.7-372.3,2369-385z"/>
</svg>
