<svg xmlns="http://www.w3.org/2000/svg" x="0px" y="0px" viewBox="596 -596 1792 1792" style="enable-background:new 596 -596 1792 1792;">
<path d="M2314.5,674.5c-6.3,6.3-13.8,9.5-22.5,9.5H692c-8.7,0-16.2-3.2-22.5-9.5c-6.3-6.3-9.5-13.8-9.5-22.5v-960
	c0-8.7,3.2-16.2,9.5-22.5s13.8-9.5,22.5-9.5h1600c8.7,0,16.2,3.2,22.5,9.5c6.3,6.3,9.5,13.8,9.5,22.5v960
	C2324,660.7,2320.8,668.2,2314.5,674.5z M2405-421c-31.3-31.3-69-47-113-47H692c-44,0-81.7,15.7-113,47s-47,69-47,113v960
	c0,44,15.7,81.7,47,113s69,47,113,47h736v128h-352c-9.3,0-17,3-23,9s-9,13.7-9,23v64c0,9.3,3,17,9,23s13.7,9,23,9h832
	c9.3,0,17-3,23-9s9-13.7,9-23v-64c0-9.3-3-17-9-23s-13.7-9-23-9h-352V812h736c44,0,81.7-15.7,113-47c31.3-31.3,47-69,47-113v-960
	C2452-352,2436.3-389.7,2405-421z"/>
</svg>
