<svg xmlns="http://www.w3.org/2000/svg" x="0px" y="0px" viewBox="596 -596 1792 1792" style="enable-background:new 596 -596 1792 1792;" xml:space="preserve">
<path d="M1704,749l-224-165l-108,104c-14.7,14.7-45,22l16-228l0,0l0,0l415-375c7.3-6.7,8.7-11.7,4-15c-7.3-5.3-18-3.3-32,6
	l-513,323l-221-69c-16-4.7-26.7-11.2-32-19.5c-5.3-8.3-4.5-17.2,2.5-26.5s20.2-17.7,39.5-25l864-333c21.3-8,38.5-5.7,51.5,7
	s16.5,33.7,10.5,63l-147,693C1773.7,760.3,1746.7,773,1704,749z M2317-48c-47.3-110.7-111-206-191-286s-175.3-143.7-286-191
	s-226.7-71-348-71c-121.3,0-237.3,23.7-348,71c-110.7,47.3-206,111-286,191S714.3-158.7,667-48s-71,226.7-71,348s23.7,237.3,71,348
	s111,206,191,286s175.3,143.7,286,191s226.7,71,348,71c121.3,0,237.3-23.7,348-71s206-111,286-191s143.7-175.3,191-286
	c47.3-110.7,71-226.7,71-348S2364.3,62.7,2317-48z"/>
</svg>
