<svg xmlns="http://www.w3.org/2000/svg" x="0px" y="0px" viewBox="596 -596 1792 1792" style="enable-background:new 596 -596 1792 1792;">
<path d="M1145-47c-25,25-55.2,37.5-90.5,37.5C1019.2-9.5,989-22,964-47s-37.5-55.2-37.5-90.5S939-203,964-228s55.2-37.5,90.5-37.5
	c35.3,0,65.5,12.5,90.5,37.5s37.5,55.2,37.5,90.5S1170-72,1145-47z M2212.5,347.5l-715-714c-25.3-25.3-59.3-46.8-102-64.5
	c-42.7-17.7-81.7-26.5-117-26.5h-416c-34.7,0-64.7,12.7-90,38s-38,55.3-38,90v416c0,35.3,8.8,74.3,26.5,117s39.2,76.3,64.5,101
	l715,716c24.7,24.7,54.7,37,90,37c34.7,0,65-12.3,91-37l491-492c24.7-24.7,37-54.7,37-90C2249.5,403.8,2237.2,373.5,2212.5,347.5z"
	/>
</svg>
