<svg xmlns="http://www.w3.org/2000/svg" x="0px" y="0px" viewBox="596 -596 1792 1792" style="enable-background:new 596 -596 1792 1792;">
<path d="M961,857c-12.7,12.7-27.7,19-45,19s-32.3-6.3-45-19s-19-27.7-19-45s6.3-32.3,19-45s27.7-19,45-19s32.3,6.3,45,19
	s19,27.7,19,45S973.7,844.3,961,857z M2110.5,317c-14.3,30.7-32.2,46.3-53.5,47c10,11.3,18.3,27.2,25,47.5c6.7,20.3,10,38.8,10,55.5
	c0,46-17.7,85.7-53,119c12,21.3,18,44.3,18,69c0,24.7-5.8,49.2-17.5,73.5c-11.7,24.3-27.5,41.8-47.5,52.5c3.3,20,5,38.7,5,56
	c0,111.3-64,167-192,167h-121c-87.3,0-201.3-24.3-342-73c-3.3-1.3-13-4.8-29-10.5s-27.8-9.8-35.5-12.5c-7.7-2.7-19.3-6.5-35-11.5
	s-28.3-8.7-38-11s-20.7-4.5-33-6.5s-22.8-3-31.5-3h-32V236h32c10.7,0,22.5-3,35.5-9s26.3-15,40-27s26.5-23.8,38.5-35.5
	s25.3-26.3,40-44c14.7-17.7,26.2-31.8,34.5-42.5c8.3-10.7,18.8-24.3,31.5-41c12.7-16.7,20.3-26.7,23-30c36.7-45.3,62.3-75.7,77-91
	c27.3-28.7,47.2-65.2,59.5-109.5c12.3-44.3,22.5-86.2,30.5-125.5s20.7-67.7,38-85c64,0,106.7,15.7,128,47c21.3,31.3,32,79.7,32,145
	c0,39.3-16,92.8-48,160.5s-48,120.8-48,159.5h352c33.3,0,63,12.8,89,38.5s39,55.5,39,89.5C2132,259.3,2124.8,286.3,2110.5,317z
	 M2184,56c-50.7-50.7-110.7-76-180-76h-176c32-66,48-130,48-192c0-78-11.7-140-35-186s-57.3-79.8-102-101.5s-95-32.5-151-32.5
	c-34,0-64,12.3-90,37c-28.7,28-49.3,64-62,108c-12.7,44-22.8,86.2-30.5,126.5c-7.7,40.3-19.5,68.8-35.5,85.5
	c-32.7,35.3-68.3,78-107,128c-67.3,87.3-113,139-137,155H852c-35.3,0-65.5,12.5-90.5,37.5S724,200.7,724,236v640
	c0,35.3,12.5,65.5,37.5,90.5s55.2,37.5,90.5,37.5h288c14.7,0,60.7,13.3,138,40c82,28.7,154.2,50.5,216.5,65.5
	c62.3,15,125.5,22.5,189.5,22.5h93h36c94,0,169.7-26.8,227-80.5c57.3-53.7,85.7-126.8,85-219.5c40-51.3,60-110.7,60-178
	c0-14.7-1-29-3-43c25.3-44.7,38-92.7,38-144c0-24-3-47-9-69c32.7-49.3,49-103.7,49-163C2260,166.3,2234.7,106.7,2184,56z"/>
</svg>
