<svg xmlns="http://www.w3.org/2000/svg" x="0px" y="0px" viewBox="596 -596 1792 1792" style="enable-background:new 596 -596 1792 1792;">
<path d="M1291,117c-6-6-13.7-9-23-9h-64c-9.3,0-17,3-23,9s-9,13.7-9,23v576c0,9.3,3,17,9,23s13.7,9,23,9h64c9.3,0,17-3,23-9
	s9-13.7,9-23V140C1300,130.7,1297,123,1291,117z M1547,117c-6-6-13.7-9-23-9h-64c-9.3,0-17,3-23,9s-9,13.7-9,23v576c0,9.3,3,17,9,23
	s13.7,9,23,9h64c9.3,0,17-3,23-9s9-13.7,9-23V140C1556,130.7,1553,123,1547,117z M1803,117c-6-6-13.7-9-23-9h-64c-9.3,0-17,3-23,9
	s-9,13.7-9,23v576c0,9.3,3,17,9,23s13.7,9,23,9h64c9.3,0,17-3,23-9s9-13.7,9-23V140C1812,130.7,1809,123,1803,117z M1933,904.5
	c-4.7,12.3-9.5,21.3-14.5,27s-8.5,8.5-10.5,8.5h-832c-2,0-5.5-2.8-10.5-8.5s-9.8-14.7-14.5-27s-7-25.8-7-40.5V-84h896v948
	C1940,878.7,1937.7,892.2,1933,904.5z M1317-329c4.7-6,10.3-9.7,17-11h317c6.7,1.3,12.3,5,17,11l48,117h-448L1317-329z M2187-203
	c-6-6-13.7-9-23-9h-309l-70-167c-10-24.7-28-45.7-54-63s-52.3-26-79-26h-320c-26.7,0-53,8.7-79,26s-44,38.3-54,63l-70,167H820
	c-9.3,0-17,3-23,9s-9,13.7-9,23v64c0,9.3,3,17,9,23s13.7,9,23,9h96v952c0,55.3,15.7,102.5,47,141.5s69,58.5,113,58.5h832
	c44,0,81.7-20.2,113-60.5c31.3-40.3,47-88.2,47-143.5V-84h96c9.3,0,17-3,23-9s9-13.7,9-23v-64C2196-189.3,2193-197,2187-203z"/>
</svg>
