<svg xmlns="http://www.w3.org/2000/svg" x="0px" y="0px" viewBox="596 -596 1792 1792" style="enable-background:new 596 -596 1792 1792;" xml:space="preserve">
<path d="M1863,492c0-8.7-3.3-16.3-10-23l9c6.7-6.7,10-14.3,10-23s-3.3-16.3-10-23L1707-61c-6.7-6.7-14.3-10-23-10
	s-16.3,3.3-23,10l-169,169L1323-61c-6.7-6.7-14.3-10-23-10c-8.7,0-16.3,3.3-23,10L1131,85c-6.7,6.7-10,14.3-10,23s3.3,16.3,10,23
	l169,169l-169,169c-6.7,6.7-10,14.3-10,23s3.3,16.3,10,23l146,146c6.7,6.7,14.3,10,23,10c8.7,0,16.3-3.3,23-10l169-169l169,169
	c6.7,6.7,14.3,10,23,10s16.3-3.3,23-10l146-146C1859.7,508.3,1863,500.7,1863,492z M852-212h1280V812H852V-212z M2341-421
	c-31.3-31.3-69-47-113-47H756c-44,0-81.7,15.7-113,47s-47,69-47,113V908c0,44,15.7,81.7,47,113c31.3,31.3,69,47,113,47h1472
	c44,0,81.7-15.7,113-47c31.3-31.3,47-69,47-113V-308C2388-352,2372.3-389.7,2341-421z"/>
</svg>
