<svg xmlns="http://www.w3.org/2000/svg" x="0px" y="0px" viewBox="596 -596 1792 1792" style="enable-background:new 596 -596 1792 1792;">
<path d="M1035,757c-6-6-13.7-9-23-9H820c-9.3,0-17,3-23,9s-9,13.7-9,23v192c0,9.3,3,17,9,23s13.7,9,23,9h192c9.3,0,17-3,23-9
	s9-13.7,9-23V780C1044,770.7,1041,763,1035,757z M843,373c-6-6-13.7-9-23-9H628c-9.3,0-17,3-23,9s-9,13.7-9,23v192c0,9.3,3,17,9,23
	s13.7,9,23,9h192c9.3,0,17-3,23-9s9-13.7,9-23V396C852,386.7,849,379,843,373z M1419,757c-6-6-13.7-9-23-9h-192c-9.3,0-17,3-23,9
	s-9,13.7-9,23v192c0,9.3,3,17,9,23s13.7,9,23,9h192c9.3,0,17-3,23-9s9-13.7,9-23V780C1428,770.7,1425,763,1419,757z M1227,373
	c-6-6-13.7-9-23-9h-192c-9.3,0-17,3-23,9s-9,13.7-9,23v192c0,9.3,3,17,9,23s13.7,9,23,9h192c9.3,0,17-3,23-9s9-13.7,9-23V396
	C1236,386.7,1233,379,1227,373z M1045,236c18,0,33.3-6.3,46-19s19-28,19-46V42H596v129c0,18,6.3,33.3,19,46s28.3,19,47,19H1045z
	 M1803,757c-6-6-13.7-9-23-9h-192c-9.3,0-17,3-23,9s-9,13.7-9,23v192c0,9.3,3,17,9,23s13.7,9,23,9h192c9.3,0,17-3,23-9s9-13.7,9-23
	V780C1812,770.7,1809,763,1803,757z M1611,373c-6-6-13.7-9-23-9h-192c-9.3,0-17,3-23,9s-9,13.7-9,23v192c0,9.3,3,17,9,23
	s13.7,9,23,9h192c9.3,0,17-3,23-9s9-13.7,9-23V396C1620,386.7,1617,379,1611,373z M2187,757c-6-6-13.7-9-23-9h-192c-9.3,0-17,3-23,9
	s-9,13.7-9,23v192c0,9.3,3,17,9,23s13.7,9,23,9h192c9.3,0,17-3,23-9s9-13.7,9-23V780C2196,770.7,2193,763,2187,757z M1995,373
	c-6-6-13.7-9-23-9h-192c-9.3,0-17,3-23,9s-9,13.7-9,23v192c0,9.3,3,17,9,23s13.7,9,23,9h192c9.3,0,17-3,23-9s9-13.7,9-23V396
	C2004,386.7,2001,379,1995,373z M2379.5-55c-5.7-17.3-17-38.7-34-64s-38.8-50.5-65.5-75.5c-26.7-25-63.5-50.3-110.5-76
	S2069-318.7,2009-338s-134.7-35.2-224-47.5S1598-404,1492-404s-203.8,6.2-293.5,18.5c-89.7,12.3-164.3,28.2-224,47.5
	s-113,41.8-160,67.5s-83.8,51-110.5,76s-48.5,50.2-65.5,75.5s-28.3,46.7-34,64S596-23.3,596-12V1l514,0V-9
	c0-67.3,127.3-101.3,382-102c254.7-1.3,382,32.7,382,102V1h514v-13C2388-23.3,2385.2-37.7,2379.5-55z M2379,373c-6-6-13.7-9-23-9
	h-192c-9.3,0-17,3-23,9s-9,13.7-9,23v192c0,9.3,3,17,9,23s13.7,9,23,9h192c9.3,0,17-3,23-9s9-13.7,9-23V396
	C2388,386.7,2385,379,2379,373z M1874,42v129c0,18,6.3,33.3,19,46s28,19,46,19h384c18,0,33.3-6.3,46-19c12.7-12.7,19-28,19-46V42
	H1874z"/>
</svg>
