<svg xmlns="http://www.w3.org/2000/svg" x="0px" y="0px" viewBox="596 -596 1792 1792" style="enable-background:new 596 -596 1792 1792;">
<path d="M1419,771c-6,6-13.7,9-23,9H916c-9.3,0-17-3-23-9s-9-13.7-9-23V-276c0-9.3,3-17,9-23s13.7-9,23-9h480c9.3,0,17,3,23,9
	s9,13.7,9,23V748C1428,757.3,1425,765,1419,771z M2091,387c-6,6-13.7,9-23,9h-480c-9.3,0-17-3-23-9s-9-13.7-9-23v-640
	c0-9.3,3-17,9-23s13.7-9,23-9h480c9.3,0,17,3,23,9s9,13.7,9,23v640C2100,373.3,2097,381,2091,387z M2241-449
	c-12.7-12.7-27.7-19-45-19H788c-17.3,0-32.3,6.3-45,19s-19,27.7-19,45v1408c0,17.3,6.3,32.3,19,45s27.7,19,45,19h1408
	c17.3,0,32.3-6.3,45-19c12.7-12.7,19-27.7,19-45V-404C2260-421.3,2253.7-436.3,2241-449z"/>
</svg>
