<svg xmlns="http://www.w3.org/2000/svg" x="0px" y="0px" viewBox="596 -596 1792 1792" style="enable-background:new 596 -596 1792 1792;">
<path d="M724-528.5v383c9.3,12,28,26.7,56,44c17.3-1.3,31.5-19.3,42.5-54c11-34.7,21.5-71.8,31.5-111.5s21.3-63.5,34-71.5
	c10.7-7.3,56.7-15.5,138-24.5s135.7-13.5,163-13.5c100.7,0,154.7,4,162,12c2.7,3.3,4.8,14,6.5,32c1.7,18,2.7,40.5,3,67.5
	c0.3,27,0.3,52.5,0,76.5s-0.7,48.3-1,73c-0.3,24.7-0.5,39.3-0.5,44c0,5.3,0.8,12.8,2.5,22.5c1.7,9.7,2.5,16.8,2.5,21.5
	c0,2,0.2,31.7,0.5,89c0.3,57.3,0.5,108.5,0.5,153.5s-0.5,96.7-1.5,155s-3,106.8-6,145.5s-6.8,63.3-11.5,74c-16,9.3-42,18.3-78,27
	s-68.8,18.3-98.5,29s-50.2,25-61.5,43v9c0,0.7,1,18,3,52c34,0,84.7-3,152-9c67.3-6,117.7-9,151-9c43.3,0,112.3,3.3,207,10
	c94.7,6.7,167.3,9.3,218,8l34-1c2-10,3-19.7,3-29c0-6.7-1.7-23.3-5-50c-24-10.7-64-23.2-120-37.5c-56-14.3-97.3-28.5-124-42.5
	c-6.7-22-10.8-45-12.5-69c-1.7-24-1.7-54.5,0-91.5c1.7-37,2.5-60.8,2.5-71.5c0-48-0.2-99-0.5-153c-0.3-54-0.8-114-1.5-180
	c-0.7-66-1-117.3-1-154v52l-1-152c-0.7-36.7,2-82,8-136c28-3.3,60-5.7,96-7s67.3-2,94-2s61,0.3,103,1s73,1,93,1
	c40.7,0,62.7,0.7,66,2c11.3,4,20.3,10.3,27,19c0,0.7,2.3,12.7,7,36c4.7,23.3,9.7,47.8,15,73.5c5.3,25.7,9,41.5,11,47.5
	c19.3,56,37.3,98.7,54,128c19.3-2.7,42-8.7,68-18c3.3-19.3,5-55.7,5-109c0-149.3-0.7-261.3-2-336c-2.7,0-7.3-0.2-14-0.5
	c-6.7-0.3-11.3-0.5-14-0.5l-42,1c-15.3,21.3-34,31.7-56,31c-79.3-2.7-161.7-4.2-247-4.5s-186.8-0.2-304.5,0.5
	c-117.7,0.7-199.8,1-246.5,1c-29.3,0-73.3,0.7-132,2c-58.7,1.3-102.7,2-132,2c-132.7,0-203-1.7-211-5l-54-27L724-528.5z M2013.5,763
	c-5,7-8.3,16.5-10,28.5s-2.5,23.2-2.5,33.5s0.5,21.3,1.5,33s1.5,18.2,1.5,19.5H980c0-1.3,0.5-7.8,1.5-19.5s1.5-22.7,1.5-33
	s-0.8-21.5-2.5-33.5c-1.7-12-5-21.5-10-28.5s-11.8-10.5-20.5-10.5c-8,0-22,6.5-42,19.5s-39.2,26.8-57.5,41.5s-38.2,31-59.5,49
	s-33.3,28-36,30c-17.3,14-26,30.3-26,49s8.7,35,26,49c2.7,2,14.7,12,36,30s41.2,34.3,59.5,49S888,1098,908,1111s34,19.5,42,19.5
	c8.7,0,15.5-3.5,20.5-10.5s8.3-16.5,10-28.5c1.7-12,2.5-23.2,2.5-33.5s-0.5-21.3-1.5-33c-1-11.7-1.5-18.2-1.5-19.5h1024
	c0,1.3-0.5,7.8-1.5,19.5c-1,11.7-1.5,22.7-1.5,33s0.8,21.5,2.5,33.5s5,21.5,10,28.5s11.8,10.5,20.5,10.5c8,0,22-6.5,42-19.5
	s39.2-26.8,57.5-41.5c18.3-14.7,38.2-31,59.5-49c21.3-18,33.3-28,36-30c17.3-14,26-30.3,26-49s-8.7-35-26-49c-2.7-2-14.7-12-36-30
	c-21.3-18-41.2-34.3-59.5-49c-18.3-14.7-37.5-28.5-57.5-41.5s-34-19.5-42-19.5C2025.3,752.5,2018.5,756,2013.5,763z"/>
</svg>
