<svg xmlns="http://www.w3.org/2000/svg" x="0px" y="0px" viewBox="596 -596 1792 1792" style="enable-background:new 596 -596 1792 1792;">
<path d="M929-193.5c-12.7-12.3-27.7-18.5-45-18.5c-18,0-33.2,6.2-45.5,18.5S820-166,820-148c0,17.3,6.2,32.3,18.5,45S866-84,884-84
	c17.3,0,32.3-6.3,45-19s19-27.7,19-45C948-166,941.7-181.2,929-193.5z M1089,409c-12.7,12.7-27.7,19-45,19H756
	c-17.3,0-32.3-6.3-45-19s-19-27.7-19-45v-640c0-17.3,6.3-32.3,19-45s27.7-19,45-19h288c17.3,0,32.3,6.3,45,19s19,27.7,19,45v640
	C1108,381.3,1101.7,396.3,1089,409z M2252,139c2-50.7-12.3-96.3-43-137c11.3-37.3,11.3-76.3,0-117c-10-38-28-69.3-54-94
	c6-74.7-10.3-135-49-181c-42.7-50.7-108.3-76.7-197-78h-36h-76h-17c-44,0-92,5.2-144,15.5s-92.5,20-121.5,29s-69.2,22.2-120.5,39.5
	c-82,28.7-134.7,43.3-158,44c-17.3,0.7-32.3,7.2-45,19.5s-19,27.2-19,44.5v641c0,16.7,6,31.2,18,43.5s26.3,19.2,43,20.5
	c16,1.3,41.3,21,76,59c34.7,38,68.3,78.3,101,121c45.3,58,79,98,101,120c12,12,22.3,28,31,48c8.7,20,14.5,36.2,17.5,48.5
	S1567,858,1573,886c4.7,26,8.8,46.3,12.5,61c3.7,14.7,10.2,32,19.5,52c9.3,20,20.7,36.7,34,50c12.7,12.7,27.7,19,45,19
	c30.7,0,58.2-3.5,82.5-10.5s44.3-15.7,60-26c15.7-10.3,29-23.8,40-40.5s19-31.7,24-45s9-30,12-50s4.7-35,5-45s0.5-23,0.5-39
	c0-25.3-3.3-50.8-10-76.5s-13-45.2-19-58.5s-15-32.3-27-57c-2-4-5.3-10-10-18s-8.3-15.3-11-22s-5.3-14.7-8-24h277
	c52,0,96.8-19,134.5-57c37.7-38,56.8-83,57.5-135c0-58.7-18.3-108.3-55-149C2247,185.7,2252,160.3,2252,139z"/>
</svg>
