<svg xmlns="http://www.w3.org/2000/svg" x="0px" y="0px" viewBox="596 -596 1792 1792" style="enable-background:new 596 -596 1792 1792;">
<path d="M1945.5,495c-8.7-29.3-19.2-54.8-31.5-76.5c-12.3-21.7-30-42.8-53-63.5s-43.7-37.3-62-50c-18.3-12.7-43.5-26.8-75.5-42.5
	s-57.3-27.3-76-35c-18.7-7.7-45.7-18.2-81-31.5c-31.3-12-54.7-21.2-70-27.5c-15.3-6.3-35.5-15.3-60.5-27s-43.7-22-56-31
	s-25.5-20-39.5-33S1316.7,50.7,1311,36s-8.5-30.7-8.5-48c0-45.3,20-82.3,60-111s91.7-43,155-43c28,0,56.5,3.8,85.5,11.5
	s53.8,16.3,74.5,26c20.7,9.7,40.2,20.3,58.5,32c18.3,11.7,31.3,20.5,39,26.5c7.7,6,12.5,10,14.5,12c8.7,6.7,17.7,9,27,7
	c10-0.7,17.7-6,23-16l81-146c8-13.3,6.3-26-5-38c-4-4-9-8.7-15-14s-19-15-39-29s-41.2-26.5-63.5-37.5c-22.3-11-51.3-22.2-87-33.5
	c-35.7-11.3-72.5-19-110.5-23v-176c0-9.3-3-17-9-23s-13.7-9-23-9h-135c-8.7,0-16.2,3.2-22.5,9.5s-9.5,13.8-9.5,22.5v180
	c-104.7,20-189.7,64.7-255,134s-98,150-98,242c0,27.3,2.8,53.3,8.5,78s12.7,46.8,21,66.5s20.2,39,35.5,58s29.8,35.3,43.5,49
	s31.5,27.8,53.5,42.5s40.8,26.5,56.5,35.5s36.5,19.3,62.5,31S1376,373,1391,379s35.5,14.3,61.5,25c36,14,62.7,24.8,80,32.5
	c17.3,7.7,39.3,18.3,66,32c26.7,13.7,46.2,26.2,58.5,37.5c12.3,11.3,23.5,25.3,33.5,42c10,16.7,15,34.3,15,53
	c0,52.7-20.5,93.3-61.5,122s-88.5,43-142.5,43c-24.7,0-49.3-2.7-74-8c-86.7-17.3-167.7-59-243-125l-2-2c-6-7.3-14-10.3-24-9
	c-10.7,1.3-18.3,5.3-23,12l-103,135c-10,13.3-9.3,27,2,41c3.3,4,9.2,10,17.5,18s23.8,20.5,46.5,37.5s47.3,33,74,48
	S1233,943.3,1274,958s83.5,25,127.5,31v175c0,8.7,3.2,16.2,9.5,22.5s13.8,9.5,22.5,9.5h135c9.3,0,17-3,23-9s9-13.7,9-23V989
	c106-17.3,192.2-62.8,258.5-136.5c66.3-73.7,99.5-161.5,99.5-263.5C1958.5,555.7,1954.2,524.3,1945.5,495z"/>
</svg>
