<svg xmlns="http://www.w3.org/2000/svg" x="0px" y="0px" viewBox="596 -596 1792 1792" style="enable-background:new 596 -596 1792 1792;">
<path d="M1940,908c0-17.3-6.3-32.3-19-45s-27.7-19-45-19s-32.3,6.3-45,19s-19,27.7-19,45s6.3,32.3,19,45s27.7,19,45,19
	s32.3-6.3,45-19S1940,925.3,1940,908z M2196,908c0-17.3-6.3-32.3-19-45s-27.7-19-45-19s-32.3,6.3-45,19s-19,27.7-19,45
	s6.3,32.3,19,45s27.7,19,45,19s32.3-6.3,45-19S2196,925.3,2196,908z M2324,684v320c0,26.7-9.3,49.3-28,68s-41.3,28-68,28H756
	c-26.7,0-49.3-9.3-68-28s-28-41.3-28-68V684c0-26.7,9.3-49.3,28-68s41.3-28,68-28h427c14,37.3,37.5,68,70.5,92s69.8,36,110.5,36h256
	c40.7,0,77.5-12,110.5-36s56.5-54.7,70.5-92h427c26.7,0,49.3,9.3,68,28S2324,657.3,2324,684z M1999,36c-11.3,26.7-31,40-59,40h-256
	v448c0,17.3-6.3,32.3-19,45s-27.7,19-45,19h-256c-17.3,0-32.3-6.3-45-19s-19-27.7-19-45V76h-256c-28,0-47.7-13.3-59-40
	c-11.3-26-6.7-49,14-69l448-448c12-12.7,27-19,45-19s33,6.3,45,19l448,448C2005.7-13,2010.3,10,1999,36z"/>
</svg>
