<svg xmlns="http://www.w3.org/2000/svg" x="0px" y="0px" viewBox="596 -596 1792 1792" style="enable-background:new 596 -596 1792 1792;">
<path d="M2308,81c-10.7-7.3-21.3-7.7-32-1c-10.7,6.7-16,16-16,28v128H1146c24.7-38.7,52.3-93.7,83-165c10.7-24.7,18.8-43,24.5-55
	c5.7-12,13.7-28.3,24-49c10.3-20.7,19.3-36.3,27-47c7.7-10.7,16.7-22,27-34c10.3-12,20.8-20.7,31.5-26s21.7-8,33-8h107
	c14,38,37.3,68.8,70,92.5S1642.7-20,1684-20c53.3,0,98.7-18.7,136-56s56-82.7,56-136s-18.7-98.7-56-136s-82.7-56-136-56
	c-41.3,0-78.3,11.8-111,35.5s-56,54.5-70,92.5h-107c-21.3,0-41.7,3.3-61,10c-19.3,6.7-36.3,14.5-51,23.5c-14.7,9-29.7,22.5-45,40.5
	c-15.3,18-27.7,33.3-37,46c-9.3,12.7-20.5,31.7-33.5,57S1146-54.5,1140-41.5s-15.3,33.2-28,60.5c-15.3,35.3-27.7,62.5-37,81.5
	c-9.3,19-21.3,40.7-36,65c-14.7,24.3-29.5,42.2-44.5,53.5S964,236,948,236H844c-14.7-56-45-102-91-138s-98.3-54-157-54
	c-70.7,0-131,25-181,75s-75,110.3-75,181s25,131,75,181s110.3,75,181,75c58.7,0,111-18,157-54s76.3-82,91-138h360
	c16,0,31.5,5.7,46.5,17s29.8,29.2,44.5,53.5c14.7,24.3,26.7,46,36,65c9.3,19,21.7,46.2,37,81.5c12.7,27.3,22,47.5,28,60.5
	s15.5,32.2,28.5,57.5c13,25.3,24.2,44.3,33.5,57s21.7,28,37,46s30.3,31.5,45,40.5s31.7,16.8,51,23.5s39.7,10,61,10h96v96
	c0,9.3,3,17,9,23s13.7,9,23,9h320c9.3,0,17-3,23-9s9-13.7,9-23V652c0-9.3-3-17-9-23s-13.7-9-23-9h-320c-9.3,0-17,3-23,9
	s-9,13.7-9,23v96h-96c-11.3,0-22.3-2.7-33-8c-10.7-5.3-21.2-14-31.5-26s-19.3-23.3-27-34c-7.7-10.7-16.7-26.3-27-47
	c-10.3-20.7-18.3-37-24-49s-13.8-30.3-24.5-55c-30.7-71.3-58.3-126.3-83-165h858v128c0,12,5.3,21.3,16,28c4.7,2.7,10,4,16,4
	c5.3,0,10.7-1.7,16-5l320-192c10.7-5.3,16-14.3,16-27s-5.3-21.7-16-27L2308,81z"/>
</svg>
