<svg xmlns="http://www.w3.org/2000/svg" x="0px" y="0px" viewBox="596 -596 1792 1792" style="enable-background:new 596 -596 1792 1792;">
<path d="M1236,300V-20c0-70.7,25-131,75-181s110.3-75,181-75c70.7,0,131,25,181,75s75,110.3,75,181c0,17.3,6.3,32.3,19,45
	c12.7,12.7,27.7,19,45,19h64c17.3,0,32.3-6.3,45-19c12.7-12.7,19-27.7,19-45c0-123.3-43.8-228.8-131.5-316.5
	C1720.8-424.2,1615.3-468,1492-468s-228.8,43.8-316.5,131.5S1044-143.3,1044-20v320h-32c-26.7,0-49.3,9.3-68,28s-28,41.3-28,68v576
	c0,26.7,9.3,49.3,28,68c18.7,18.7,41.3,28,68,28h960c26.7,0,49.3-9.3,68-28c18.7-18.7,28-41.3,28-68V396c0-26.7-9.3-49.3-28-68
	c-18.7-18.7-41.3-28-68-28H1236z"/>
</svg>
