<svg xmlns="http://www.w3.org/2000/svg" x="0px" y="0px" viewBox="596 -596 1792 1792" style="enable-background:new 596 -596 1792 1792;">
<path d="M1443.5,187.5C1518.5,112.5,1556,22,1556-84s-37.5-196.5-112.5-271.5S1278-468,1172-468s-196.5,37.5-271.5,112.5
	S788-190,788-84s37.5,196.5,112.5,271.5S1066,300,1172,300S1368.5,262.5,1443.5,187.5z M2132,76c0-8.7-3.2-16.2-9.5-22.5
	c-6.3-6.3-13.8-9.5-22.5-9.5h-192c-8.7,0-16.2,3.2-22.5,9.5S1876,67.3,1876,76v352h-352c-8.7,0-16.2,3.2-22.5,9.5
	s-9.5,13.8-9.5,22.5v192c0,8.7,3.2,16.2,9.5,22.5c6.3,6.3,13.8,9.5,22.5,9.5h352v352c0,8.7,3.2,16.2,9.5,22.5s13.8,9.5,22.5,9.5h192
	c8.7,0,16.2-3.2,22.5-9.5c6.3-6.3,9.5-13.8,9.5-22.5V684h352c8.7,0,16.2-3.2,22.5-9.5c6.3-6.3,9.5-13.8,9.5-22.5V460
	c0-8.7-3.2-16.2-9.5-22.5c-6.3-6.3-13.8-9.5-22.5-9.5h-352V76z M1396,460c0-34.7,12.7-64.7,38-90c25.3-25.3,55.3-38,90-38h223
	c-56.7-64-129-96-217-96c-12.7,0-25.7,5.7-39,17c-52.7,40.7-104.2,71.2-154.5,91.5c-50.3,20.3-105.2,30.5-164.5,30.5
	c-59.3,0-114.2-10.2-164.5-30.5C957.2,324.2,905.7,293.7,853,253c-13.3-11.3-26.3-17-39-17c-40.7,0-77.8,6.7-111.5,20
	s-62.2,31.2-85.5,53.5s-44,49.3-62,81s-32.3,64.2-43,97.5c-10.7,33.3-19.5,69.5-26.5,108.5s-11.7,75.3-14,109S468,773.7,468,809
	c0,80.7,24.3,144,73,190s113.3,69,194,69h874c68.7,0,125.7-16.7,171-50V780h-256c-34.7,0-64.7-12.7-90-38c-25.3-25.3-38-55.3-38-90
	V460z"/>
</svg>
