<svg xmlns="http://www.w3.org/2000/svg" x="0px" y="0px" viewBox="596 -596 1792 1792" style="enable-background:new 596 -596 1792 1792;">
<path d="M1848,980.5c-110,58.3-228.7,87.5-356,87.5s-246-29.2-356-87.5C1026,922.2,935.7,843,865,743
	c14.7-103.3,43.8-189.2,87.5-257.5c43.7-68.3,105.2-107.8,184.5-118.5c44.7,49.3,97.8,87.8,159.5,115.5
	c61.7,27.7,126.8,41.5,195.5,41.5c68.7,0,133.8-13.8,195.5-41.5S1802.3,416.3,1847,367c79.3,10.7,140.8,50.2,184.5,118.5
	c43.7,68.3,72.8,154.2,87.5,257.5C2048.3,843,1958,922.2,1848,980.5z M1763.5,315.5c-75,75-165.5,112.5-271.5,112.5
	s-196.5-37.5-271.5-112.5S1108,150,1108,44s37.5-196.5,112.5-271.5S1386-340,1492-340s196.5,37.5,271.5,112.5S1876-62,1876,44
	S1838.5,240.5,1763.5,315.5z M2317-48c-47.3-110.7-111-206-191-286s-175.3-143.7-286-191s-226.7-71-348-71
	c-121.3,0-237.3,23.7-348,71c-110.7,47.3-206,111-286,191S714.3-158.7,667-48s-71,226.7-71,348s23.7,237.3,71,348s111,206,191,286
	s175.3,143.7,286,191s226.7,71,348,71c122,0,238.3-23.7,349-71s205.8-111.2,285.5-191.5c79.7-80.3,143.2-175.7,190.5-286
	c47.3-110.3,71-226.2,71-347.5S2364.3,62.7,2317-48z"/>
</svg>
