<svg xmlns="http://www.w3.org/2000/svg" x="0px" y="0px" viewBox="596 -596 1792 1792" style="enable-background:new 596 -596 1792 1792;">
<path d="M919-334c11.3,16.7,17,87.7,17,213v333c0,104.7,5.3,183.7,16,237c14.7,79.3,42.3,144.3,83,195c40,50,99.7,90.7,179,122
	c78,30.7,172.7,46,284,46c97.3,0,182.3-11,255-33c71.3-21.3,132-51,182-89c49.3-38.7,86.7-79.7,112-123c17.3-30.7,31-71.3,41-122
	c14-72.7,19-174,15-304c-9.3-251.3-16.7-383.3-22-396c0-7.3-0.5-17.7-1.5-31s-1.5-22.3-1.5-27c0-17.3,5-31,15-41c4-4,30.3-9.7,79-17
	c26-0.7,54-5,84-13c2.7-16,4-26.3,4-31c0-8.7-2-25.7-6-51l-18-2c-80,8.7-145.3,12-196,10l-205-10h-84l-2,86l14,3l100-2
	c28.7-0.7,54.3,10.7,77,34c12.7,14,20.7,43.3,24,88l4,59c4,57.3,8.5,110.5,13.5,159.5s8.7,89.8,11,122.5s3.5,75.3,3.5,128
	c0,104-7,180.3-21,229c-11.3,38.7-29,76.7-53,114c-11.3,18.7-33,40-65,64c-28.7,22-61.7,39-99,51c-58,18.7-121.7,28-191,28
	c-59.3,0-118.3-15.7-177-47c-40.7-22-72.7-52.7-96-92c-30-52-47-119.3-51-202l-14-280l-1-229c0-4-0.2-12.5-0.5-25.5
	s-0.5-23.8-0.5-32.5c0-78.7,4.3-122.7,13-132c12.7-16.7,39-25,79-25c42.7,0,84-3,124-9v-9l-2-64l1-14c-20,1.3-48.7,2-86,2
	c-20,0.7-68.7,2.3-146,5c-54.7,2-110.7,3-168,3c-22.7,0-78-2.3-166-7c-34.7-2.7-72-4-112-4c-18,0-31.3,0.3-40,1l3,88
	c5.3,1.3,20.3,2.7,45,4C853.3-371,902.3-358,919-334z M2251,1059c-6,6-13.7,9-23,9H756c-9.3,0-17-3-23-9s-9-13.7-9-23v-64
	c0-9.3,3-17,9-23s13.7-9,23-9h1472c9.3,0,17,3,23,9s9,13.7,9,23v64C2260,1045.3,2257,1053,2251,1059z"/>
</svg>
