<svg xmlns="http://www.w3.org/2000/svg" x="0px" y="0px" viewBox="596 -596 1792 1792" style="enable-background:new 596 -596 1792 1792;">
<path d="M1962.5,109.5c-9,15-22.2,24.5-39.5,28.5c-129.3,30.7-230.3,50-303,58c1.3,105.3,6.5,195,15.5,269s17.8,125.8,26.5,155.5
	c8.7,29.7,22.3,68.2,41,115.5l9,21c6.7,16.7,6.3,33-1,49s-19.3,27.3-36,34c-6,2.7-13.7,4-23,4c-29.3,0-49.3-13.7-60-41l-8-20
	c-36-92.7-59.7-179-71-259h-42c-11.3,80-35,166.3-71,259l-8,20c-10.7,27.3-30.7,41-60,41c-9.3,0-17-1.3-23-4
	c-16.7-6.7-28.7-18-36-34c-7.3-16-7.7-32.3-1-49l9-21c18.7-47.3,32.3-85.8,41-115.5c8.7-29.7,17.5-81.5,26.5-155.5
	s14.2-163.7,15.5-269c-72.7-8-173.7-27.3-303-58c-17.3-4-30.5-13.5-39.5-28.5S1010,78.3,1014,61s13.5-30.5,28.5-39.5
	S1073.7,10,1091,14c174,41.3,307.7,62,401,62c93.3,0,227-20.7,401-62c17.3-4,33.5-1.5,48.5,7.5S1966,43.7,1970,61
	S1971.5,94.5,1962.5,109.5z M1582.5,6.5c-25,25-55.2,37.5-90.5,37.5c-35.3,0-65.5-12.5-90.5-37.5S1364-48.7,1364-84
	c0-35.3,12.5-65.5,37.5-90.5s55.2-37.5,90.5-37.5c35.3,0,65.5,12.5,90.5,37.5S1620-119.3,1620-84C1620-48.7,1607.5-18.5,1582.5,6.5z
	 M2140.5,26.5c-37-87-87-162-150-225s-138-113-225-150S1587.3-404,1492-404c-95.3,0-186.5,18.5-273.5,55.5s-162,87-225,150
	s-113,138-150,225S788,204.7,788,300s18.5,186.5,55.5,273.5s87,162,150,225s138,113,225,150s178.2,55.5,273.5,55.5
	c95.3,0,186.5-18.5,273.5-55.5s162-87,225-150s113-138,150-225S2196,395.3,2196,300S2177.5,113.5,2140.5,26.5z M1790-407
	c94.7,40.7,176.3,95.3,245,164c68.7,68.7,123.3,150.3,164,245c40.7,94.7,61,194,61,298s-20.3,203.3-61,298
	c-40.7,94.7-95.3,176.3-164,245c-68.7,68.7-150.3,123.3-245,164c-94.7,40.7-194,61-298,61s-203.3-20.3-298-61
	c-94.7-40.7-176.3-95.3-245-164S825.7,692.7,785,598s-61-194-61-298S744.3,96.7,785,2s95.3-176.3,164-245s150.3-123.3,245-164
	c94.7-40.7,194-61,298-61S1695.3-447.7,1790-407z M2317-48c-47.3-110.7-111-206-191-286s-175.3-143.7-286-191s-226.7-71-348-71
	c-121.3,0-237.3,23.7-348,71c-110.7,47.3-206,111-286,191S714.3-158.7,667-48s-71,226.7-71,348s23.7,237.3,71,348s111,206,191,286
	s175.3,143.7,286,191s226.7,71,348,71c121.3,0,237.3-23.7,348-71s206-111,286-191s143.7-175.3,191-286c47.3-110.7,71-226.7,71-348
	S2364.3,62.7,2317-48z"/>
</svg>
