<svg xmlns="http://www.w3.org/2000/svg" x="0px" y="0px" viewBox="596 -596 1792 1792" style="enable-background:new 596 -596 1792 1792;">
<path d="M1448,187.5c75-75,112.5-165.5,112.5-271.5S1523-280.5,1448-355.5S1282.5-468,1176.5-468S980-430.5,905-355.5
	S792.5-190,792.5-84S830,112.5,905,187.5S1070.5,300,1176.5,300S1373,262.5,1448,187.5z M2502.5,371c6-6,9-13.7,9-23
	c0-8.7-3-16-9-22l-136-136c-6-6-13.3-9-22-9c-9.3,0-17,3-23,9l-249,249l-249-249c-6-6-13.7-9-23-9c-8.7,0-16,3-22,9l-136,136
	c-6,6-9,13.3-9,22c0,9.3,3,17,9,23l249,249l-249,249c-6,6-9,13.7-9,23c0,8.7,3,16,9,22l136,136c6,6,13.3,9,22,9c9.3,0,17-3,23-9
	l249-249l249,249c6,6,13.7,9,23,9c8.7,0,16-3,22-9l136-136c6-6,9-13.3,9-22c0-9.3-3-17-9-23l-249-249L2502.5,371z M1574.5,439
	c-24.7-24.7-37-55-37-91c0-22,4.3-40.7,13-56s22.3-32,41-50c-19.3-4-38.3-6-57-6c-12.7,0-25.7,5.7-39,17
	c-102.7,81.3-209,122-319,122s-216.3-40.7-319-122c-13.3-11.3-26.3-17-39-17c-40.7,0-77.8,6.7-111.5,20s-62.2,31.2-85.5,53.5
	s-44,49.3-62,81s-32.3,64.2-43,97.5c-10.7,33.3-19.5,69.5-26.5,108.5s-11.7,75.3-14,109s-3.5,68.2-3.5,103.5c0,80.7,24.3,144,73,190
	s113.3,69,194,69h874c15.3,0,30-1,44-3l-83-83c-24.7-24.7-37-54.7-37-90c0-36,12.3-66.3,37-91l181-181L1574.5,439z"/>
</svg>
