<svg xmlns="http://www.w3.org/2000/svg" x="0px" y="0px" viewBox="596 -596 1792 1792" style="enable-background:new 596 -596 1792 1792;">
<path d="M1144-525c-110.7,47.3-206,111-286,191S714.3-158.7,667-48s-71,226.7-71,348s23.7,237.2,71,347.5s110.8,205.7,190.5,286
	s174.8,144.2,285.5,191.5s227,71,349,71s238.3-23.8,349-71.5S2047,1013,2127,933s143.5-175.3,190.5-286s70.5-226.3,70.5-347
	c0-121.3-23.7-237.3-71-348c-47.3-110.7-111-206-191-286s-175.3-143.7-286-191s-226.7-71-348-71C1370.7-596,1254.7-572.3,1144-525z
	 M1805,428c-87.3,85.3-191.7,128-313,128c-121.3,0-225.7-42.7-313-128c-160,0-262,109-306,327c-99.3-136.7-149-288.3-149-455
	c0-104,20.3-203.3,61-298s95.3-176.3,164-245s150.3-123.3,245-164c94.7-40.7,194-61,298-61s203.3,20.3,298,61s176.3,95.3,245,164
	c68.7,68.7,123.3,150.3,164,245c40.7,94.7,61,194,61,298c0,166.7-49.7,318.3-149,455C2067,537,1965,428,1805,428z M1763.5,379.5
	c-75,75-165.5,112.5-271.5,112.5s-196.5-37.5-271.5-112.5S1108,214,1108,108s37.5-196.5,112.5-271.5S1386-276,1492-276
	s196.5,37.5,271.5,112.5S1876,2,1876,108S1838.5,304.5,1763.5,379.5z"/>
</svg>
