<svg xmlns="http://www.w3.org/2000/svg" x="0px" y="0px" viewBox="596 -596 1792 1792" style="enable-background:new 596 -596 1792 1792;">
<path d="M1153,703c-12.7-12.7-27.7-19-45-19s-32.3,6.3-45,19s-19,27.7-19,45s6.3,32.3,19,45s27.7,19,45,19s32.3-6.3,45-19
	s19-27.7,19-45S1165.7,715.7,1153,703z M2190.5,678c-3.7-42-11.7-88-24-138c-12.3-50-28.2-94.2-47.5-132.5
	c-19.3-38.3-46.3-72.7-81-103c-34.7-30.3-74.7-50.5-120-60.5c5.3,12.7,9.7,26,13,40s5.7,29.7,7,47s2.2,31.2,2.5,41.5s0.3,26.3,0,48
	c-0.3,21.7-0.5,35.8-0.5,42.5c39.3,22.7,70.5,53.8,93.5,93.5c23,39.7,34.5,82.2,34.5,127.5v89c21.3,19.3,32,43,32,71
	c0,26.7-9.3,49.3-28,68c-18.7,18.7-41.3,28-68,28s-49.3-9.3-68-28s-28-41.3-28-68c0-28,10.7-51.7,32-71v-89c0-34.7-12.7-64.7-38-90
	c-25.3-25.3-55.3-38-90-38s-64.7,12.7-90,38c-25.3,25.3-38,55.3-38,90v89c21.3,19.3,32,43,32,71c0,26.7-9.3,49.3-28,68
	c-18.7,18.7-41.3,28-68,28c-26.7,0-49.3-9.3-68-28c-18.7-18.7-28-41.3-28-68c0-28,10.7-51.7,32-71v-89c0-70.7,25-131,75-181
	s110.3-75,181-75v-64c0-41.3-8.3-72.3-25-93c-88,69.3-186.3,104-295,104c-108.7,0-207-34.7-295-104c-16.7,20.7-25,51.7-25,93v203
	c38,13.3,68.8,36.7,92.5,70c23.7,33.3,35.5,70.3,35.5,111c0,53.3-18.7,98.7-56,136s-82.7,56-136,56s-98.7-18.7-136-56
	s-56-82.7-56-136c0-40.7,11.7-77.7,35-111c23.3-33.3,54.3-56.7,93-70V364c0-45.3,7.3-85.3,22-120c-45.3,10-85.3,30.2-120,60.5
	s-61.7,64.7-81,103S829.8,490,817.5,540s-20.3,96-24,138s-5.5,85.7-5.5,131c0,80.7,24.3,144,73,190s113.3,69,194,69h874
	c80.7,0,145.3-23,194-69c48.7-46,73-109.3,73-190C2196,763.7,2194.2,720,2190.5,678z M1763.5-355.5c-75-75-165.5-112.5-271.5-112.5
	s-196.5,37.5-271.5,112.5S1108-190,1108-84s37.5,196.5,112.5,271.5S1386,300,1492,300s196.5-37.5,271.5-112.5S1876,22,1876-84
	S1838.5-280.5,1763.5-355.5z"/>
</svg>
