<svg xmlns="http://www.w3.org/2000/svg" x="0px" y="0px" viewBox="596 -596 1792 1792" style="enable-background:new 596 -596 1792 1792;">
<path d="M2192.5,705.5c-2.3-33.7-7-70-14-109s-15.8-75.2-26.5-108.5c-10.7-33.3-25-65.8-43-97.5s-38.7-58.7-62-81
	c-23.3-22.3-51.8-40.2-85.5-53.5s-70.8-20-111.5-20c-6,0-20,7.2-42,21.5s-46.8,30.3-74.5,48c-27.7,17.7-63.7,33.7-108,48
	c-44.3,14.3-88.8,21.5-133.5,21.5c-44.7,0-89.2-7.2-133.5-21.5c-44.3-14.3-80.3-30.3-108-48s-52.5-33.7-74.5-48s-36-21.5-42-21.5
	c-40.7,0-77.8,6.7-111.5,20c-33.7,13.3-62.2,31.2-85.5,53.5s-44,49.3-62,81s-32.3,64.2-43,97.5s-19.5,69.5-26.5,108.5
	s-11.7,75.3-14,109S788,773.7,788,809c0,80,24.3,143.2,73,189.5c48.7,46.3,113.3,69.5,194,69.5h874c80.7,0,145.3-23.2,194-69.5
	c48.7-46.3,73-109.5,73-189.5C2196,773.7,2194.8,739.2,2192.5,705.5z M1763.5-355.5c-75-75-165.5-112.5-271.5-112.5
	s-196.5,37.5-271.5,112.5S1108-190,1108-84s37.5,196.5,112.5,271.5S1386,300,1492,300s196.5-37.5,271.5-112.5S1876,22,1876-84
	S1838.5-280.5,1763.5-355.5z"/>
</svg>
