<svg xmlns="http://www.w3.org/2000/svg" x="0px" y="0px" viewBox="596 -596 1792 1792" style="enable-background:new 596 -596 1792 1792;">
<path d="M2192.5-272.5C2104.8-360.2,1999.3-404,1876-404s-228.8,43.8-316.5,131.5C1471.8-184.8,1428-79.3,1428,44v192H756
	c-26.7,0-49.3,9.3-68,28s-28,41.3-28,68v576c0,26.7,9.3,49.3,28,68s41.3,28,68,28h960c26.7,0,49.3-9.3,68-28s28-41.3,28-68V332
	c0-26.7-9.3-49.3-28-68s-41.3-28-68-28h-96V44c0-70.7,25-131,75-181s110.3-75,181-75s131,25,181,75s75,110.3,75,181v256
	c0,17.3,6.3,32.3,19,45c12.7,12.7,27.7,19,45,19h64c17.3,0,32.3-6.3,45-19c12.7-12.7,19-27.7,19-45V44
	C2324-79.3,2280.2-184.8,2192.5-272.5z"/>
</svg>
