<svg xmlns="http://www.w3.org/2000/svg" x="0px" y="0px" viewBox="596 -596 1792 1792" style="enable-background:new 596 -596 1792 1792;">
<path d="M2004-84c0-69.3-13.5-135.5-40.5-198.5S1900-400,1854-446s-100.5-82.5-163.5-109.5S1561.3-596,1492-596
	c-69.3,0-135.5,13.5-198.5,40.5S1176-492,1130-446s-82.5,100.5-109.5,163.5S980-153.3,980-84c0,98,26.3,188.7,79,272
	c-31.3,9.3-61.2,22-89.5,38c-28.3,16-58,40.3-89,73S823,370.2,801,414.5s-40.3,101.7-55,172S724,735.7,724,823
	c0,102.7,33.3,190.5,100,263.5S971,1196,1065,1196h854c94,0,174.3-36.5,241-109.5c66.7-73,100-160.8,100-263.5
	c0-87.3-7.3-166.2-22-236.5c-14.7-70.3-33-127.7-55-172s-48.5-82.8-79.5-115.5s-60.7-57-89-73s-58.2-28.7-89.5-38
	C1977.7,104.7,2004,14,2004-84z M1763.5-355.5c75,75,112.5,165.5,112.5,271.5s-37.5,196.5-112.5,271.5S1598,300,1492,300
	s-196.5-37.5-271.5-112.5S1108,22,1108-84s37.5-196.5,112.5-271.5S1386-468,1492-468S1688.5-430.5,1763.5-355.5z M1065,1068
	c-58.7,0-108.8-23.8-150.5-71.5C872.8,948.8,852,891,852,823c0-159.3,26.2-285,78.5-377c52.3-92,127.5-140.3,225.5-145
	c96.7,84.7,208.7,127,336,127s239.3-42.3,336-127c98,4.7,173.2,53,225.5,145c52.3,92,78.5,217.7,78.5,377
	c0,68-20.8,125.8-62.5,173.5c-41.7,47.7-91.8,71.5-150.5,71.5H1065z"/>
</svg>
