<svg xmlns="http://www.w3.org/2000/svg" x="0px" y="0px" viewBox="596 -596 1792 1792" style="enable-background:new 596 -596 1792 1792;">
<path d="M1492,253c-20.7,0-42,3.7-64,11v580c0,33.3-13,63-39,89s-55.7,39-89,39c-33.3,0-63-13-89-39s-39-55.7-39-89
	c0-17.3-6.3-32.3-19-45s-27.7-19-45-19s-32.3,6.3-45,19s-19,27.7-19,45c0,69.3,25.3,129.3,76,180c50.7,50.7,110.7,76,180,76
	c69.3,0,129.3-25.3,180-76c50.7-50.7,76-110.7,76-180V264C1534,256.7,1512.7,253,1492,253z M2323,284c-22-92-60.5-175.8-115.5-251.5
	s-119.8-138-194.5-187c-74.7-49-156.8-86.8-246.5-113.5s-181.2-40-274.5-40c-126.7,0-246.8,22.7-360.5,68
	c-113.7,45.3-213,113.5-298,204.5S691,162,661,284c-0.7,1.3-1,3.7-1,7c0,8.7,3.2,16.2,9.5,22.5s13.8,9.5,22.5,9.5
	c7.3,0,15-3.3,23-10c32.7-30.7,63.7-53.7,93-69s63.3-23,102-23c45.3,0,88,12.3,128,37s74.3,57,103,97c4.7,6.7,10.5,16,17.5,28
	s11.8,20,14.5,24c7.3,11.3,16.7,17,28,17c12,0,21.7-5.7,29-17c2.7-4,7.5-12,14.5-24s12.8-21.3,17.5-28c28.7-40,62.8-72.3,102.5-97
	c39.7-24.7,82.2-37,127.5-37c45.3,0,87.8,12.3,127.5,37c39.7,24.7,73.8,57,102.5,97c4.7,6.7,10.5,16,17.5,28s11.8,20,14.5,24
	c7.3,11.3,17,17,29,17c11.3,0,20.7-5.7,28-17c2.7-4,7.5-12,14.5-24s12.8-21.3,17.5-28c28.7-40,63-72.3,103-97s82.7-37,128-37
	c38.7,0,72.7,7.7,102,23c29.3,15.3,60.3,38.3,93,69c8,6.7,15.7,10,23,10c8.7,0,16.2-3.2,22.5-9.5c6.3-6.3,9.5-13.8,9.5-22.5
	C2324,287.7,2323.7,285.3,2323,284z M1537-481c-12.7-12.7-27.7-19-45-19c-17.3,0-32.3,6.3-45,19c-12.7,12.7-19,27.7-19,45v98
	c28-1.3,49.3-2,64-2c14.7,0,36,0.7,64,2v-98C1556-453.3,1549.7-468.3,1537-481z"/>
</svg>
