<svg xmlns="http://www.w3.org/2000/svg" x="0px" y="0px" viewBox="596 -596 1792 1792" style="enable-background:new 596 -596 1792 1792;">
<path d="M1236,364l128,64l96,128l-96,448L1236,364z M1524,556l96-128l128-64l-128,640L1524,556z M1776,21c-1.3,2-3.8,4.2-7.5,6.5
	c-3.7,2.3-6.2,5.8-7.5,10.5c-1.3,2.7-3.8,9.5-7.5,20.5c-3.7,11-6,17.8-7,20.5s-3.5,8.3-7.5,17s-6.8,14.3-8.5,17
	c-1.7,2.7-4.7,7.3-9,14c-4.3,6.7-8.3,11.2-12,13.5c-3.7,2.3-8.3,5.5-14,9.5c-5.7,4-11.5,6.7-17.5,8s-12.8,2.7-20.5,4
	c-7.7,1.3-15.8,2-24.5,2c-24,0-43.7-4.2-59-12.5c-15.3-8.3-26.2-18.3-32.5-30c-6.3-11.7-11.2-23.2-14.5-34.5
	c-3.3-11.3-7.2-21.2-11.5-29.5c-4.3-8.3-10.2-12.5-17.5-12.5h-12c-7.3,0-13.2,4.2-17.5,12.5c-4.3,8.3-8.2,18.2-11.5,29.5
	c-3.3,11.3-8.2,22.8-14.5,34.5c-6.3,11.7-17.2,21.7-32.5,30c-15.3,8.3-35,12.5-59,12.5c-8.7,0-16.8-0.7-24.5-2
	c-7.7-1.3-14.5-2.7-20.5-4s-11.8-4-17.5-8s-10.3-7.2-14-9.5s-7.7-6.8-12-13.5s-7.3-11.3-9-14s-4.5-8.3-8.5-17s-6.5-14.3-7.5-17
	s-3.3-9.5-7-20.5s-6.2-17.8-7.5-20.5c-1.3-4.7-3.8-8.2-7.5-10.5s-6.2-4.5-7.5-6.5c-1.3-6-2.7-15-4-27c1.3-2.7,2.7-4.7,4-6
	c6.7-5.3,38.7-8,96-8c46.7,0,102.3,6.3,167,19c4.7,1.3,11.7,2,21,2c9.3,0,16.3-0.7,21-2c64.7-12.7,120.3-19,167-19
	c57.3,0,89.3,2.7,96,8c1.3,1.3,2.7,3.3,4,6C1778.7,6,1777.3,15,1776,21z M2188,724.5c-5.3-47.7-15-98.2-29-151.5
	c-14-53.3-35.8-101.2-65.5-143.5C2063.8,387.2,2028,355,1986,333l82-225h-214c18-52.7,24.7-106,20-160c129.3-26.7,194-58.7,194-96
	c0-38-70-71-210-99c-11.3-41.3-28.5-86-51.5-134s-46.5-86-70.5-114c-21.3-24.7-46.7-37-76-37c-20,0-48,10.3-84,31s-64,31-84,31
	s-48-10.3-84-31s-64-31-84-31c-29.3,0-54.7,12.3-76,37c-24,28-47.5,66-70.5,114s-40.2,92.7-51.5,134c-140,28-210,61-210,99
	c0,37.3,64.7,69.3,194,96c-1.3,13.3-2,24-2,32c0,42.7,7.3,85.3,22,128H916l90,220c-35.3,17.3-66.5,42.2-93.5,74.5
	S864.3,469.3,849,506c-15.3,36.7-27.8,77.8-37.5,123.5c-9.7,45.7-16,87.5-19,125.5s-4.5,77.3-4.5,118c0,80.7,24.3,144,73,190
	s113.3,69,194,69h874c80.7,0,145.3-23,194-69c48.7-46,73-109.3,73-190C2196,821.7,2193.3,772.2,2188,724.5z"/>
</svg>
