<svg xmlns="http://www.w3.org/2000/svg" x="0px" y="0px" viewBox="596 -596 1792 1792" style="enable-background:new 596 -596 1792 1792;" xml:space="preserve">
<path d="M1483,417.5c-6-35.7-15.8-70-29.5-103s60.5-78c-26.7-19-59-28.5-97-28.5c-4,2.7-14,8.7-30,18s-28.5,16.5-37.5,21.5
	s-20.8,10.8-35.5,17.5c-14.7,6.7-29,11.5-43,14.5s-28,4.5-42,4.5s-28-1.5-42-4.5s-28.3-7.8-43-14.5c-14.7-6.7-26.5-12.5-35.5-17.5
	S966,235.3,950,226s-26-15.3-30-18c-38,0-70.3,9.5-97,28.5c-26.7,19-46.8,45-60.5,78s-23.5,67.3-29.5,103s-9,74.8-9,117.5
	s12.3,78.2,37,106.5c24.7,28.3,55,42.5,91,42.5h512c36,0,66.3-14.2,91-42.5c24.7-28.3,37-63.8,37-106.5S1489,453.2,1483,417.5z
	 M1268.5-145.5c-44.3-44.3-97.8-66.5-160.5-66.5c-62.7,0-116.2,22.2-160.5,66.5S881-47.7,881,15s22.2,116.2,66.5,160.5
	S1045.3,242,1108,242c62.7,0,116.2-22.2,160.5-66.5c44.3-44.3,66.5-97.8,66.5-160.5S1312.8-101.2,1268.5-145.5z M2251,437
	c-6-6-13.7-9-23-9h-576c-9.3,0-17,3-23,9s-9,13.7-9,23v64c0,9.3,3,17,9,23s13.7,9,23,9h576c9.3,0,17-3,23-9s9-13.7,9-23v-64
	C2260,450.7,2257,443,2251,437z M2249.5,182.5c-7-7-15.5-10.5-25.5-10.5h-568c-10,0-18.5,3.5-25.5,10.5S1620,198,1620,208v56
	c0,10,3.5,18.5,10.5,25.5S1646,300,1656,300h568c10,0,18.5-3.5,25.5-10.5S2260,274,2260,264v-56C2260,198,2256.5,189.5,2249.5,182.5
	z M2251-75c-6-6-13.7-9-23-9h-576c-9.3,0-17,3-23,9s-9,13.7-9,23v64c0,9.3,3,17,9,23s13.7,9,23,9h576c9.3,0,17-3,23-9s9-13.7,9-23
	v-64C2260-61.3,2257-69,2251-75z M2378.5,930.5c-6.3,6.3-13.8,9.5-22.5,9.5h-352v-96c0-9.3-3-17-9-23s-13.7-9-23-9h-64
	c-9.3,0-17,3-23,9s-9,13.7-9,23v96h-768v-96c0-9.3-3-17-9-23s-13.7-9-23-9h-64c-9.3,0-17,3-23,9s-9,13.7-9,23v96H628
	c-8.7,0-16.2-3.2-22.5-9.5S596,916.7,596,908V-308c0-8.7,3.2-16.2,9.5-22.5s13.8-9.5,22.5-9.5h1728c8.7,0,16.2,3.2,22.5,9.5
	c6.3,6.3,9.5,13.8,9.5,22.5V908C2388,916.7,2384.8,924.2,2378.5,930.5z M2469-421c-31.3-31.3-69-47-113-47H628
	c-44,0-81.7,15.7-113,47s-47,69-47,113V908c0,44,15.7,81.7,47,113c31.3,31.3,69,47,113,47h1728c44,0,81.7-15.7,113-47
	c31.3-31.3,47-69,47-113V-308C2516-352,2500.3-389.7,2469-421z"/>
</svg>
