<svg xmlns="http://www.w3.org/2000/svg" x="0px" y="0px" viewBox="596 -596 1792 1792" style="enable-background:new 596 -596 1792 1792;">
<path d="M1361.5,1138.5c-29,20.3-54.2,34.5-75.5,42.5c-13.3,5.3-28.3,8-45,8c-22.7,0-55.3-6-98-18l-6-2c-77.3-24-137-66.3-179-127
	c-18-26-45.7-79.7-83-161c-32.7-71.3-55.3-143.3-68-216s-19-154-19-244s6.3-171.3,19-244s35.3-144.7,68-216c2-4.7,5-11,9-19
	c20.7-44.7,35.8-76.2,45.5-94.5s25-41.7,46-70s44.7-50.3,71-66c26.3-15.7,58.5-29.2,96.5-40.5c42.7-12,75.3-18,98-18
	c16.7,0,31.7,2.7,45,8c21.3,8,46.5,22.2,75.5,42.5s43.5,37.8,43.5,52.5c0,7.3-4.3,26.7-13,58c-8.7,31.3-19,67-31,107s-18.7,63-20,69
	c-0.7,2.7-2.3,11.5-5,26.5c-2.7,15-5.5,27-8.5,36S1320,68.7,1314,74c-10,9.3-27,14-51,14c-15.3,0-38.7-1.8-70-5.5s-55-5.5-71-5.5
	c-22.7,0-38.3,3.7-47,11c-4,3.3-7.7,8.5-11,15.5s-5.8,13.7-7.5,20s-3.8,14.3-6.5,24s-4.3,15.8-5,18.5c-24.7,85.3-37,170.3-37,255
	s12.3,169.7,37,255c0.7,2.7,2.3,8.8,5,18.5s4.8,17.7,6.5,24s4.2,13,7.5,20s7,12.2,11,15.5c8.7,7.3,24.3,11,47,11
	c16,0,39.7-1.8,71-5.5s54.7-5.5,70-5.5c24,0,41,4.7,51,14c6,5.3,10.5,12.5,13.5,21.5s5.8,21,8.5,36c2.7,15,4.3,23.8,5,26.5
	c1.3,6,8,29,20,69s22.3,75.7,31,107c8.7,31.3,13,50.7,13,58C1405,1100.7,1390.5,1118.2,1361.5,1138.5z M1609,154
	c50-50,75-110.3,75-181s-25-131-75-181c-12.7-12.7-27.7-19-45-19c-17.3,0-32.3,6.3-45,19c-12.7,12.7-19,27.7-19,45s6.3,32.3,19,45
	c24.7,26,37,56.3,37,91c0,35.3-12.3,65.3-37,90c-12.7,12.7-19,27.8-19,45.5s6.3,32.8,19,45.5c12.7,12.7,27.7,19,45,19
	C1580,173,1595,166.7,1609,154z M1790,335c100-100,150-220.7,150-362s-50-262-150-362c-12.7-12.7-27.7-19-45-19
	c-17.3,0-32.3,6.3-45,19c-12.7,12.7-19,27.7-19,45s6.3,32.3,19,45c74.7,76,112,166.7,112,272s-37.3,196-112,272
	c-12.7,12.7-19,27.7-19,45s6.3,32.3,19,45c12,12.7,27,19,45,19S1778,347.7,1790,335z M1971,516c72.7-72.7,128.3-155.7,167-249
	s58-191.3,58-294s-19.3-200.7-58-294c-38.7-93.3-94.3-176.3-167-249c-12.7-12.7-27.7-19-45-19s-32.3,6.3-45,19s-19,27.7-19,45
	s6.3,32.3,19,45c60,60.7,106.2,130,138.5,208c32.3,78,48.5,159.7,48.5,245s-16.2,167-48.5,245c-32.3,78-78.5,147.3-138.5,208
	c-12.7,12.7-19,27.7-19,45s6.3,32.3,19,45c12,12.7,27,19,45,19S1959,528.7,1971,516z"/>
</svg>
