<svg xmlns="http://www.w3.org/2000/svg" x="0px" y="0px" viewBox="596 -596 1792 1792" style="enable-background:new 596 -596 1792 1792;">
<path d="M2221.5-423.4c-98.3-100.3-215.8-156.8-352.5-169.5c-137.3-14-263,17.3-377,94c-114-76.7-239.7-108-377-94
	c-136.7,12.7-254.2,69.2-352.5,169.5S609.3-204.2,598-66.9c-8,103.3,9.5,200.7,52.5,292s105,166,186,224s171.5,92.3,271.5,103v260
	H884c-9.3,0-17,3-23,9s-9,13.7-9,23v64c0,9.3,3,17,9,23s13.7,9,23,9h224v224c0,9.3,3,17,9,23s13.7,9,23,9h64c9.3,0,17-3,23-9
	s9-13.7,9-23v-224h512v224c0,9.3,3,17,9,23s13.7,9,23,9h64c9.3,0,17-3,23-9s9-13.7,9-23v-224h224c9.3,0,17-3,23-9s9-13.7,9-23v-64
	c0-9.3-3-17-9-23s-13.7-9-23-9h-224v-260c100-10.7,190.5-45,271.5-103s143-132.7,186-224s60.5-188.7,52.5-292
	C2374.7-204.2,2319.8-323,2221.5-423.4z M1364-19.9c0-121.3,42.7-225.7,128-313c85.3,87.3,128,191.7,128,313s-42.7,225.7-128,313
	C1406.7,205.8,1364,101.5,1364-19.9z M855.5,296.6C767.8,209,724,103.5,724-19.9s43.8-228.8,131.5-316.5s193.2-131.5,316.5-131.5
	c76.7,0,149.3,19,218,57c-102.7,111.3-154,241.7-154,391c0,150.7,51.3,281,154,391c-68.7,38-141.3,57-218,57
	C1048.7,428.1,943.2,384.3,855.5,296.6z M1236,812.1v-260c91.3-10,176.7-41.3,256-94c79.3,52.7,164.7,84,256,94v260H1236z
	 M1594,371.1c102.7-110,154-240.3,154-391c0-149.3-51.3-279.7-154-391c68.7-38,141.3-57,218-57c123.3,0,228.8,43.8,316.5,131.5
	c87.7,87.7,131.5,193.2,131.5,316.5s-43.8,228.8-131.5,316.5c-87.7,87.7-193.2,131.5-316.5,131.5
	C1735.3,428.1,1662.7,409.1,1594,371.1z"/>
</svg>
