<svg xmlns="http://www.w3.org/2000/svg" x="0px" y="0px" viewBox="596 -596 1792 1792" style="enable-background:new 596 -596 1792 1792;">
<path d="M1790,486c-150.7,196-278.3,294-383,294c-64,0-118.7-59.7-164-179c-10-36.7-25-91.5-45-164.5s-35-127.8-45-164.5
	c-33.3-119.3-69-179-107-179c-7.3,0-36.3,17.3-87,52l-52-67l81-72l81-72c70-62,124.7-95.3,164-100c86.7-8,140,51,160,177
	c21.3,134,36.3,219,45,255c26,112.7,53.3,169,82,169c23.3,0,58.3-36.7,105-110s71.3-129,74-167c7.3-64-17.3-96-74-96
	c-25.3,0-52.7,6.3-82,19c54-179.3,158-266.3,312-261c114,4,167.7,78,161,222C2012,149.3,1936.7,297.3,1790,486z M2175.5-383.5
	c-56.3-56.3-124.2-84.5-203.5-84.5h-960c-79.3,0-147.2,28.2-203.5,84.5S724-259.3,724-180v960c0,79.3,28.2,147.2,84.5,203.5
	c56.3,56.3,124.2,84.5,203.5,84.5h960c79.3,0,147.2-28.2,203.5-84.5c56.3-56.3,84.5-124.2,84.5-203.5v-960
	C2260-259.3,2231.8-327.2,2175.5-383.5z"/>
</svg>
