<svg xmlns="http://www.w3.org/2000/svg" x="0px" y="0px" viewBox="596 -596 1792 1792" style="enable-background:new 596 -596 1792 1792;">
<path d="M1665-289c-12.7-12.7-27.7-19-45-19c-17.3,0-32.3,6.3-45,19L1242,44H980c-17.3,0-32.3,6.3-45,19s-19,27.7-19,45v384
	c0,17.3,6.3,32.3,19,45c12.7,12.7,27.7,19,45,19h262l333,333c12.7,12.7,27.7,19,45,19c17.3,0,32.3-6.3,45-19
	c12.7-12.7,19-27.7,19-45V-244C1684-261.3,1677.7-276.3,1665-289z M2025.5,158c-28.3-44-65.8-75-112.5-93c-6.7-3.3-15-5-25-5
	c-17.3,0-32.3,6.2-45,18.5c-12.7,12.3-19,27.5-19,45.5c0,14,4,25.8,12,35.5s17.7,18,29,25c11.3,7,22.7,14.7,34,23
	c11.3,8.3,21,20.2,29,35.5s12,34.3,12,57s-4,41.7-12,57s-17.7,27.2-29,35.5s-22.7,16-34,23c-11.3,7-21,15.3-29,25s-12,21.5-12,35.5
	c0,18,6.3,33.2,19,45.5c12.7,12.3,27.7,18.5,45,18.5c10,0,18.3-1.7,25-5c46.7-18.7,84.2-49.8,112.5-93.5
	c28.3-43.7,42.5-90.8,42.5-141.5S2053.8,202,2025.5,158z"/>
</svg>
