<svg xmlns="http://www.w3.org/2000/svg" x="0px" y="0px" viewBox="596 -596 1792 1792" style="enable-background:new 596 -596 1792 1792;">
<path d="M1409-289c-12.7-12.7-27.7-19-45-19c-17.3,0-32.3,6.3-45,19L986,44H724c-17.3,0-32.3,6.3-45,19s-19,27.7-19,45v384
	c0,17.3,6.3,32.3,19,45c12.7,12.7,27.7,19,45,19h262l333,333c12.7,12.7,27.7,19,45,19c17.3,0,32.3-6.3,45-19
	c12.7-12.7,19-27.7,19-45V-244C1428-261.3,1421.7-276.3,1409-289z M1769.5,158c-28.3-44-65.8-75-112.5-93c-6.7-3.3-15-5-25-5
	c-17.3,0-32.3,6.2-45,18.5c-12.7,12.3-19,27.5-19,45.5c0,14,4,25.8,12,35.5s17.7,18,29,25c11.3,7,22.7,14.7,34,23
	c11.3,8.3,21,20.2,29,35.5s12,34.3,12,57s-4,41.7-12,57s-17.7,27.2-29,35.5s-22.7,16-34,23c-11.3,7-21,15.3-29,25s-12,21.5-12,35.5
	c0,18,6.3,33.2,19,45.5c12.7,12.3,27.7,18.5,45,18.5c10,0,18.3-1.7,25-5c46.7-18.7,84.2-49.8,112.5-93.5S1812,350.7,1812,300
	S1797.8,202,1769.5,158z M1983,17.5c-56.7-86.3-131.7-149.2-225-188.5c-8.7-3.3-17.3-5-26-5c-17.3,0-32.3,6.3-45,19s-19,27.7-19,45
	c0,26,13,45.7,39,59c37.3,19.3,62.7,34,76,44c49.3,36,87.8,81.2,115.5,135.5S1940,238.7,1940,300s-13.8,119.2-41.5,173.5
	c-27.7,54.3-66.2,99.5-115.5,135.5c-13.3,10-38.7,24.7-76,44c-26,13.3-39,33-39,59c0,17.3,6.3,32.3,19,45c12.7,12.7,28,19,46,19
	c8,0,16.3-1.7,25-5c93.3-39.3,168.3-102.2,225-188.5s85-180.5,85-282.5S2039.7,103.8,1983,17.5z M2197-122.5
	c-84.7-128.3-197.3-222.8-338-283.5c-8.7-3.3-17.3-5-26-5c-17.3,0-32.3,6.3-45,19s-19,27.7-19,45c0,24,13,43.7,39,59
	c4.7,2.7,12.2,6.2,22.5,10.5s17.8,7.8,22.5,10.5c30.7,16.7,58,33.7,82,51c82,60.7,146,136.3,192,227s69,187,69,289s-23,198.3-69,289
	s-110,166.3-192,227c-24,17.3-51.3,34.3-82,51c-4.7,2.7-12.2,6.2-22.5,10.5s-17.8,7.8-22.5,10.5c-26,15.3-39,35-39,59
	c0,17.3,6.3,32.3,19,45s27.7,19,45,19c8.7,0,17.3-1.7,26-5c140.7-60.7,253.3-155.2,338-283.5c84.7-128.3,127-269.2,127-422.5
	S2281.7,5.8,2197-122.5z"/>
</svg>
