<svg xmlns="http://www.w3.org/2000/svg" x="0px" y="0px" viewBox="596 -596 1792 1792" style="enable-background:new 596 -596 1792 1792;">
<path d="M1980.9-326c-58-92.7-136.7-163.3-236-212c-99.3-48.7-205.7-66.7-319-54c-88.7,10-170.5,39.3-245.5,88s-135.7,111.3-182,188
	c-46.3,76.7-73.2,159.7-80.5,249c-8,103.3,9.5,200.7,52.5,292s105,166,186,224s171.5,92.3,271.5,103v260h-224c-9.3,0-17,3-23,9
	s-9,13.7-9,23v64c0,9.3,3,17,9,23s13.7,9,23,9h224v224c0,9.3,3,17,9,23s13.7,9,23,9h64c9.3,0,17-3,23-9s9-13.7,9-23V940h224
	c9.3,0,17-3,23-9s9-13.7,9-23v-64c0-9.3-3-17-9-23s-13.7-9-23-9h-224V552c144.7-16,266.2-78.5,364.5-187.5
	c98.3-109,147.5-237.2,147.5-384.5C2067.9-131.4,2038.9-233.4,1980.9-326z M1175.4-336.5c87.7-87.7,193.2-131.5,316.5-131.5
	s228.8,43.8,316.5,131.5c87.7,87.7,131.5,193.2,131.5,316.5s-43.8,228.8-131.5,316.5c-87.7,87.7-193.2,131.5-316.5,131.5
	s-228.8-43.8-316.5-131.5S1043.9,103.3,1043.9-20S1087.8-248.9,1175.4-336.5z"/>
</svg>
