<svg xmlns="http://www.w3.org/2000/svg" x="0px" y="0px" viewBox="596 -596 1792 1792" style="enable-background:new 596 -596 1792 1792;">
<path d="M2349-303c-8.7-3.3-17-5-25-5c-18,0-33,6.3-45,19l-403,402V-52c0-79.3-28.2-147.2-84.5-203.5S1667.3-340,1588-340H884
	c-79.3,0-147.2,28.2-203.5,84.5S596-131.3,596-52v704c0,79.3,28.2,147.2,84.5,203.5S804.7,940,884,940h704
	c79.3,0,147.2-28.2,203.5-84.5S1876,731.3,1876,652V486l403,403c12,12.7,27,19,45,19c8,0,16.3-1.7,25-5c26-11.3,39-31,39-59V-244
	C2388-272,2375-291.7,2349-303z"/>
</svg>
