<svg xmlns="http://www.w3.org/2000/svg" x="0px" y="0px" viewBox="596 -596 1792 1792" style="enable-background:new 596 -596 1792 1792;">
<path d="M2132.1-500c0,9.3,3,17,9,23s13.7,9,23,9h134l-255,254c-105.3-84-225-126-359-126c-116,0-222.7,32.3-320,97
	c-124-82.7-260.7-112.7-410-90c-124,19.3-230.8,74.2-320.5,164.5S490.8,29.3,474.1,154c-15.3,108-2.2,210.3,39.5,307
	s104,175.8,187,237.5S876.8,796.7,980.1,808v132h-96c-9.3,0-17,3-23,9s-9,13.7-9,23v64c0,9.3,3,17,9,23s13.7,9,23,9h96v96
	c0,9.3,3,17,9,23s13.7,9,23,9h64c9.3,0,17-3,23-9s9-13.7,9-23v-96h96c9.3,0,17-3,23-9s9-13.7,9-23v-64c0-9.3-3-17-9-23s-13.7-9-23-9
	h-96V808c92.7-10,178-41,256-93c124,82.7,260.3,112.7,409,90c120.7-18,225.2-70.3,313.5-157c88.3-86.7,143.2-190,164.5-310
	c14.7-85.3,11.5-167.7-9.5-247s-56.8-150.7-107.5-214l254-255v134c0,9.3,3,17,9,23s13.7,9,23,9h64c9.3,0,17-3,23-9s9-13.7,9-23v-288
	c0-17.3-6.3-32.3-19-45c-12.7-12.7-27.7-19-45-19h-288c-9.3,0-17,3-23,9s-9,13.7-9,23V-500z M1236.1,236c0-121.3,42.7-225.7,128-313
	c85.3,87.3,128,191.7,128,313s-42.7,225.7-128,313C1278.8,461.7,1236.1,357.3,1236.1,236z M727.6-80.5
	C815.3-168.2,920.8-212,1044.1-212c78,0,150.7,19,218,57c-102.7,111.3-154,241.7-154,391s51.3,279.7,154,391c-67.3,38-140,57-218,57
	c-123.3,0-228.8-43.8-316.5-131.5S596.1,359.3,596.1,236S639.9,7.2,727.6-80.5z M1466.1,627c102.7-111.3,154-241.7,154-391
	s-51.3-279.7-154-391c67.3-38,140-57,218-57c123.3,0,228.8,43.8,316.5,131.5s131.5,193.2,131.5,316.5s-43.8,228.8-131.5,316.5
	S1807.4,684,1684.1,684C1606.1,684,1533.4,665,1466.1,627z"/>
</svg>
