<svg xmlns="http://www.w3.org/2000/svg" x="0px" y="0px" viewBox="596 -596 1792 1792" style="enable-background:new 596 -596 1792 1792;">
<path d="M2100,309.6c-108,0-197-35.8-267-107.5S1728,32.6,1728-91.4c0-60.7,10.7-107.5,32-140.5s49.7-49.5,85-49.5
	c33.3,0,59.7,15,79,45s29,74,29,132c0,54-10.3,115.3-31,184c12,21.3,28.8,38.5,50.5,51.5s42.3,21.5,62,25.5c19.7,4,40.7,6,63,6
	c22.3,0,37.7-0.7,46-2c8.3-1.3,14.8-2.3,19.5-3c38.7-84.7,58-180,58-286c0-128-31.7-227.2-95-297.5
	c-63.3-70.3-154.3-105.5-273-105.5c-120,0-214.7,40.8-284,122.5c-69.3,81.7-104,186.5-104,314.5c0,123.3,27,234.3,81,333
	s128.3,172,223,220c-78.7,158-174.3,293.3-287,406c-52.7-64-99.3-129-140-195c-40.7-66-81.2-144.5-121.5-235.5
	c-40.3-91-75.2-196.7-104.5-317s-52.7-253.2-70-398.5H763c18,138,41.5,268,70.5,390S893,335.4,925,423.1s67.2,169,105.5,244
	s74.2,136.3,107.5,184c33.3,47.7,67.5,90.5,102.5,128.5s63.3,65.8,85,83.5c21.7,17.7,41.8,32.2,60.5,43.5c54.7,32,108.7,33,162,3
	c31.3-17.3,74-52.8,128-106.5c54-53.7,114.5-125.5,181.5-215.5s122.2-180.3,165.5-271c64.7,0,130.7-7.7,198-23v-198
	C2181.7,304.9,2141.3,309.6,2100,309.6z"/>
</svg>
