<svg xmlns="http://www.w3.org/2000/svg" x="0px" y="0px" viewBox="596 -596 1792 1792" style="enable-background:new 596 -596 1792 1792;">
<path d="M1862,298c-38,24-79,40.3-123,49c21.3,51.3,32,106.7,32,166c0,113.3-37.3,209.5-112,288.5c-74.7,79-168.3,118.5-281,118.5
	s-206.5-39.5-281.5-118.5S984,626.3,984,513c0-112,37.8-209,113.5-291S1266.7,99,1378,99c51.3,0,99,9.3,143,28
	c4.7-42.7,17.7-84.7,39-126c-57.3-20.7-118-31-182-31c-98,0-187.3,24.3-268,73S966.3,157.2,921,239.5S853,412,853,510
	c0,143.3,49,268,147,374c97.3,107.3,223.3,161,378,161c153.3,0,279.3-53.7,378-161c98-106,147-230.7,147-374
	C1903,434,1889.3,363.3,1862,298z M1644-5c2,22.7,3,57,3,103c0,60.7-2.5,120.2-7.5,178.5s-15,122.5-30,192.5S1575,602,1551,658
	s-57.2,107.5-99.5,154.5c-42.3,47-91.2,81.2-146.5,102.5c22,3.3,42.7,5,62,5l14-1c106-66.7,185.5-151,238.5-253s79.5-217,79.5-345
	C1699,210.3,1680.7,101.7,1644-5z M1580.5-258.5c-36.3-85-83.8-147.2-142.5-186.5c88.7,150.7,157.3,297.3,206,440v-2
	C1638-89.7,1616.8-173.5,1580.5-258.5z M2018.5,142.5c37.7-35.7,67.2-79.2,88.5-130.5c16-40.7,24-97.3,24-170
	c0-98.7-24.7-183-74-253c-18,38.7-42.7,72.2-74,100.5s-66.7,47.8-106,58.5c-74,20-126.3,44.7-157,74c-17.3,17.3-31.7,40-43,68
	c-11.3,28-17,54.3-17,79c0,39.3,11.7,77,35,113c71.3-16.7,139.5-49.2,204.5-97.5S2011-119.3,2039-182c-1.3,12.7-8.3,31.3-21,56
	c-48,84.7-144.7,167-290,247c51.3,50,104.7,75,160,75C1937.3,196,1980.8,178.2,2018.5,142.5z"/>
</svg>
