<svg xmlns="http://www.w3.org/2000/svg" x="0px" y="0px" viewBox="596 -596 1792 1792" style="enable-background:new 596 -596 1792 1792;">
<path d="M2069.1-403.9c-226-7.3-379,120-459,382c42.7-17.3,83-26,121-26c81.3,0,117.7,46.3,109,139c-5.3,56.7-41.7,138.7-109,246
	c-68.7,107.3-120,161-154,161c-43.3,0-83.3-83-120-249c-14.7-57.3-36.7-181.7-66-373c-15.3-92.7-42.3-160.5-81-203.5
	c-38.7-43-89.7-61.5-153-55.5c-56.7,5.3-137,54-241,146c-30.7,26.7-74,65.2-130,115.5c-56,50.3-92,82.5-108,96.5l77,98
	c72.7-50.7,115-76,127-76c56.7,0,109,87.3,157,262c58.7,214.7,102.7,375.3,132,482c65.3,175.3,145.3,263,240,263
	c152.7,0,340-143.7,562-431c214.7-276.7,325.3-493.7,332-651C2315.1-289.9,2236.4-398.5,2069.1-403.9z"/>
</svg>
