<svg xmlns="http://www.w3.org/2000/svg" x="0px" y="0px" viewBox="596 -596 1792 1792" style="enable-background:new 596 -596 1792 1792;">
<path d="M2443.7-178.8c-4-6-14.3-11.5-31-16.5c-16.7-5-38-5.8-64-2.5l-288,2c-4.7-1.7-11.3-1.5-20,0.5s-13,3-13,3l-5,2.5l-4,3
	c-3.3,2-7,5.5-11,10.5s-7.3,10.8-10,17.5c-31.3,80.7-67,155.7-107,225c-24.7,41.3-47.3,77.2-68,107.5s-38,52.7-52,67
	s-26.7,25.8-38,34.5s-20,12.3-26,11s-11.7-2.7-17-4c-9.3-6-16.8-14.2-22.5-24.5s-9.5-23.3-11.5-39s-3.2-29.2-3.5-40.5
	s-0.2-27.3,0.5-48s1-34.7,1-42c0-25.3,0.5-52.8,1.5-82.5s1.8-53.2,2.5-70.5s1-35.7,1-55s-1.2-34.5-3.5-45.5s-5.8-21.7-10.5-32
	s-11.5-18.3-20.5-24s-20.2-10.2-33.5-13.5c-35.3-8-80.3-12.3-135-13c-124-1.3-203.7,6.7-239,24c-14,7.3-26.7,17.3-38,30
	c-12,14.7-13.7,22.7-5,24c40,6,68.3,20.3,85,43l6,12c4.7,8.7,9.3,24,14,46c4.7,22,7.7,46.3,9,73c3.3,48.7,3.3,90.3,0,125
	c-3.3,34.7-6.5,61.7-9.5,81s-7.5,35-13.5,47s-10,19.3-12,22s-3.7,4.3-5,5c-8.7,3.3-17.7,5-27,5c-9.3,0-20.7-4.7-34-14
	c-13.3-9.3-27.2-22.2-41.5-38.5c-14.3-16.3-30.5-39.2-48.5-68.5s-36.7-64-56-104l-16-29c-10-18.7-23.7-45.8-41-81.5
	c-17.3-35.7-32.7-70.2-46-103.5c-5.3-14-13.3-24.7-24-32l-5-3c-3.3-2.7-8.7-5.5-16-8.5c-7.3-3-15-5.2-23-6.5l-274,2
	c-28,0-47,6.3-57,19l-4,6c-2,3.3-3,8.7-3,16s2,16.3,6,27c40,94,83.5,184.7,130.5,272s87.8,157.7,122.5,211
	c34.7,53.3,70,103.7,106,151s59.8,77.7,71.5,91c11.7,13.3,20.8,23.3,27.5,30l25,24c16,16,39.5,35.2,70.5,57.5s65.3,44.3,103,66
	c37.7,21.7,81.5,39.3,131.5,53s98.7,19.2,146,16.5h115c23.3-2,41-9.3,53-22l4-5c2.7-4,5.2-10.2,7.5-18.5s3.5-17.5,3.5-27.5
	c-0.7-28.7,1.5-54.5,6.5-77.5s10.7-40.3,17-52s13.5-21.5,21.5-29.5s13.7-12.8,17-14.5s6-2.8,8-3.5c16-5.3,34.8-0.2,56.5,15.5
	s42,35,61,58s41.8,48.8,68.5,77.5s50,50,70,64l20,12c13.3,8,30.7,15.3,52,22c21.3,6.7,40,8.3,56,5l256-4c25.3,0,45-4.2,59-12.5
	s22.3-17.5,25-27.5c2.7-10,2.8-21.3,0.5-34c-2.3-12.7-4.7-21.5-7-26.5c-2.3-5-4.5-9.2-6.5-12.5c-33.3-60-97-133.7-191-221l-2-2l-1-1
	l-1-1h-1c-42.7-40.7-69.7-68-81-82c-20.7-26.7-25.3-53.7-14-81c8-20.7,38-64.3,90-131c27.3-35.3,49-63.7,65-85
	c115.3-153.3,165.3-251.3,150-294L2443.7-178.8z"/>
</svg>
