<svg xmlns="http://www.w3.org/2000/svg" x="0px" y="0px" viewBox="596 -596 1792 1792" style="enable-background:new 596 -596 1792 1792;">
<path d="M1670.5,705.5c-69,71-154.8,106.5-257.5,106.5c-102.7,0-188.5-35.3-257.5-106S1052,548.3,1052,445s34.5-191.2,103.5-263.5
	S1310.3,73,1413,73c43.3,0,85,7,125,21c-15.3,29.3-24.3,58.3-27,87c-30-12.7-62.7-19-98-19c-76.7,0-141,28.2-193,84.5
	s-78,122.8-78,199.5c0,78,25.8,144.2,77.5,198.5c51.7,54.3,116.2,81.5,193.5,81.5c77.3,0,141.7-27.2,193-81.5
	c51.3-54.3,77-120.5,77-198.5c0-42.7-7.3-80.7-22-114c29.3-6,57.7-17.3,85-34c18.7,46,28,95,28,147
	C1774,547.7,1739.5,634.5,1670.5,705.5z M1634,315c0,181.3-73,318.3-219,411h-10c-14,0-28-1-42-3c38-14.7,71.5-38.2,100.5-70.5
	s51.8-67.7,68.5-106c16.7-38.3,30.2-81.7,40.5-130c10.3-48.3,17.2-92.5,20.5-132.5s5-81,5-123c0-31.3-0.7-55-2-71
	C1621.3,162.7,1634,237.7,1634,315z M1454-212c38.7,26,71.3,69.5,98,130.5c26.7,61,41.3,118.2,44,171.5
	C1562.7-7.3,1515.3-108,1454-212z M1914,102c-14,35.3-34,65.3-60,90s-56,37-90,37c-38.7,0-75.3-17.3-110-52
	c45.3-25.3,91.5-57.8,138.5-97.5S1864.3,2.7,1867-32c-19.3,43.3-51.2,81.7-95.5,115c-44.3,33.3-91.2,55.7-140.5,67
	c-16-24.7-24-50.3-24-77c0-43.3,13.3-76.5,40-99.5c26.7-23,63-40.8,109-53.5c55.3-15.3,96.7-51.7,124-109c34,48,51,106,51,174
	C1931,34.3,1925.3,73.3,1914,102z M2175.5-383.5c-56.3-56.3-124.2-84.5-203.5-84.5h-960c-79.3,0-147.2,28.2-203.5,84.5
	S724-259.3,724-180v960c0,79.3,28.2,147.2,84.5,203.5c56.3,56.3,124.2,84.5,203.5,84.5h960c79.3,0,147.2-28.2,203.5-84.5
	c56.3-56.3,84.5-124.2,84.5-203.5v-960C2260-259.3,2231.8-327.2,2175.5-383.5z"/>
</svg>
