<svg xmlns="http://www.w3.org/2000/svg" x="0px" y="0px" viewBox="596 -596 1792 1792" style="enable-background:new 596 -596 1792 1792;">
<path d="M980,12h160v224H980V12z M1579,617c-98.7,0.7-189.3-15.2-272-47.5c-82.7-32.3-153.3-75.2-212-128.5l-1-96
	c64,50,137.5,90.8,220.5,122.5S1484,514.7,1574,514c92.7-1.3,173.7-14,243-38v92C1744.3,600.7,1665,617,1579,617z M1236,12h640v224
	h-640V12z M2268-181.5c-80-117.7-188.8-210.8-326.5-279.5S1654-564,1492-564s-311.8,34.3-449.5,103S796-299.2,716-181.5
	S596,64.7,596,204c0,124.7,33,242,99,352c-59.3,68-89,144.3-89,229c0,104.7,43.2,194,129.5,268s190.8,111,313.5,111
	c81.3,0,156.3-17.5,225-52.5c68.7-35,122.3-81.8,161-140.5c12.7,0.7,31.7,1,57,1c25.3,0,44.3-0.3,57-1
	c38.7,58.7,92.3,105.5,161,140.5s143.7,52.5,225,52.5c122.7,0,227.2-37,313.5-111c86.3-74,129.5-163.3,129.5-268
	c0-84.7-29.7-161-89-229c66-110,99-227.3,99-352C2388,64.7,2348-63.8,2268-181.5z"/>
</svg>
