<svg xmlns="http://www.w3.org/2000/svg" x="0px" y="0px" viewBox="596 -596 1792 1792" style="enable-background:new 596 -596 1792 1792;">
<path d="M1023-69.5C1006.3-53.2,984.3-45,957-45c-28.7,0-54-8.5-76-25.5S848-109,848-135c0-26.7,11-48.5,33-65.5s47.3-25.5,76-25.5
	c27.3,0,49.3,8.3,66,25c16.7,16.7,25,38.7,25,66S1039.7-85.8,1023-69.5z M1765.5,423c-17,14.7-38.8,22-65.5,22
	c-18,0-34.5-7.5-49.5-22.5S1628,390.7,1628,372c0-18,7.5-34.5,22.5-49.5S1682,300,1700,300c26.7,0,48.5,7.3,65.5,22
	s25.5,31.3,25.5,50C1791,391.3,1782.5,408.3,1765.5,423z M1530.5-69.5C1514.2-53.2,1492.3-45,1465-45c-28.7,0-54-8.5-76-25.5
	s-33-38.5-33-64.5c0-26.7,11-48.5,33-65.5s47.3-25.5,76-25.5c27.3,0,49.2,8.3,65.5,25s24.5,38.7,24.5,66S1546.8-85.8,1530.5-69.5z
	 M2164,423c-17.3,14.7-39,22-65,22c-18,0-34.5-7.5-49.5-22.5S2027,390.7,2027,372c0-18,7.5-34.5,22.5-49.5S2081,300,2099,300
	c26,0,47.7,7.3,65,22s26,31.3,26,50C2190,391.3,2181.3,408.3,2164,423z M1787.5-285.5c-70.3-77.7-157.7-138.5-262-182.5
	c-104.3-44-215.2-66-332.5-66c-131.3,0-252.5,27.2-363.5,81.5s-199,128.8-264,223.5S468-30.7,468,82c0,191.3,96.7,354.7,290,490
	l-72,218l253-127c6,1.3,22.7,4.8,50,10.5c27.3,5.7,45.5,9.2,54.5,10.5c9,1.3,23.8,3.7,44.5,7c20.7,3.3,39,5.5,55,6.5
	s32.7,1.5,50,1.5c22,0,44.7-1,68-3c-15.3-49.3-23-100-23-152c0-104,27.2-199.8,81.5-287.5S1448.3,99.3,1543,48s198.3-77,311-77
	c26,0,49.3,1.3,70,4C1903.3-121,1857.8-207.8,1787.5-285.5z M2430.5,272.5c-57-81-132.8-145-227.5-192c-94.7-47-195.7-70.5-303-70.5
	c-112.7,0-216.3,23.5-311,70.5S1419.8,191.3,1365.5,272S1284,440.7,1284,536s27.2,183.3,81.5,264c54.3,80.7,128.8,144.5,223.5,191.5
	s198.3,70.5,311,70.5c45.3,0,118-12.3,218-37l199,109l-55-181c78-58,139.8-122.5,185.5-193.5c45.7-71,68.5-145.5,68.5-223.5
	C2516,441.3,2487.5,353.5,2430.5,272.5z"/>
</svg>
