<svg xmlns="http://www.w3.org/2000/svg" x="0px" y="0px" viewBox="596 -596 1792 1792" style="enable-background:new 596 -596 1792 1792;">
<path d="M1657,426.5c-26,32.3-44,48.5-54,48.5c-6.7,0-14-2.3-22-7c-63.3-32-113.7-65.7-151-101c-45.3-42.7-79.3-88.3-102-137
	c-3.3-5.3-5-10.3-5-15c0-6.7,11.5-22.2,34.5-46.5S1392,125,1392,111c0-4.7-8.3-29.7-25-75c-16.7-45.3-27.7-74.7-33-88
	c-5.3-14-10.5-23.2-15.5-27.5S1304.7-86,1292-86c-4.7,0-11-0.5-19-1.5s-14-1.5-18-1.5c-18.7,0-36,7.3-52,22
	c-47.3,44.7-72,97.3-74,158v8c-0.7,58,23,122.7,71,194c50.7,74.7,100,136.3,148,185s104.7,88,170,118c88.7,41.3,152,62,190,62
	c31.3,0,65.3-8.8,102-26.5c36.7-17.7,60.3-39.5,71-65.5c11.3-28.7,17-54,17-76c0-6.7-0.7-11.7-2-15c-3.3-6-33.2-23.7-89.5-53
	c-56.3-29.3-88.8-44-97.5-44C1700.3,378,1683,394.2,1657,426.5z M1161,804l-242,77l79-233c-80-110-120-232.7-120-368
	c0-84.7,16.7-165.8,50-243.5S1006-108,1062-164s122.8-100.7,200.5-134c77.7-33.3,158.8-50,243.5-50c84.7,0,165.8,16.7,243.5,50
	S1894-220,1950-164s100.7,122.8,134,200.5c33.3,77.7,50,158.8,50,243.5s-16.7,165.8-50,243.5c-33.3,77.7-78,144.5-134,200.5
	s-122.8,100.7-200.5,134c-77.7,33.3-158.8,50-243.5,50C1381.3,908,1266.3,873.3,1161,804z M1213.5-414c-93,40-173.2,93.7-240.5,161
	S852-105.5,812-12.5S752,178,752,280c0,140.7,36,270.3,108,389l-136,405l417-134c113.3,62.7,235,94,365,94c102,0,199.5-20,292.5-60
	s173.2-93.7,240.5-161c67.3-67.3,121-147.5,161-240.5s60-190.5,60-292.5s-20-199.5-60-292.5s-93.7-173.2-161-240.5
	c-67.3-67.3-147.5-121-240.5-161S1608-474,1506-474S1306.5-454,1213.5-414z"/>
</svg>
