<svg xmlns="http://www.w3.org/2000/svg" x="0px" y="0px" viewBox="596 -596 1792 1792" style="enable-background:new 596 -596 1792 1792;">
<path d="M1602,457l21-50l-240-102l-21,49l78,33l-179,374h49l171-350l175,350h51l-163-329L1602,457z M1029,144l304,130l130-304
	l-304-130L1029,144z M1401,265l239,102l103-239L1503,25L1401,265z M1703,365l190,81l82-190l-191-81L1703,365z M2214,604
	c-41.3,96.7-97.2,180.2-167.5,250.5c-70.3,70.3-153.8,126.2-250.5,167.5c-96.7,41.3-198,62-304,62s-207.3-20.7-304-62
	c-96.7-41.3-180.2-97.2-250.5-167.5S811.3,700.7,770,604s-62-198-62-304S728.7,92.7,770-4s97.2-180.2,167.5-250.5
	S1091.3-380.7,1188-422c96.7-41.3,198-62,304-62s207.3,20.7,304,62s180.2,97.2,250.5,167.5C2116.8-184.2,2172.7-100.7,2214-4
	c41.3,96.7,62,198,62,304S2255.3,507.3,2214,604z M2317-48c-47.3-110.7-111-206-191-286s-175.3-143.7-286-191s-226.7-71-348-71
	c-121.3,0-237.3,23.7-348,71c-110.7,47.3-206,111-286,191S714.3-158.7,667-48s-71,226.7-71,348s23.7,237.3,71,348s111,206,191,286
	s175.3,143.7,286,191s226.7,71,348,71c121.3,0,237.3-23.7,348-71s206-111,286-191s143.7-175.3,191-286c47.3-110.7,71-226.7,71-348
	S2364.3,62.7,2317-48z"/>
</svg>
