<svg xmlns="http://www.w3.org/2000/svg" x="0px" y="0px" viewBox="596 -596 1792 1792" style="enable-background:new 596 -596 1792 1792;">
<path d="M1610.5,866.5c-6.3,6.3-13.8,9.5-22.5,9.5h-192c-8.7,0-16.2-3.2-22.5-9.5c-6.3-6.3-9.5-14.2-9.5-23.5V653
	c0-9.3,3.2-17.2,9.5-23.5c6.3-6.3,13.8-9.5,22.5-9.5h192c8.7,0,16.2,3.2,22.5,9.5c6.3,6.3,9.5,14.2,9.5,23.5v190
	C1620,852.3,1616.8,860.2,1610.5,866.5z M1607.5,485.5c-6.3,4.3-14.2,6.5-23.5,6.5h-185c-9.3,0-17.3-2.2-24-6.5
	c-6.7-4.3-10-9.8-10-16.5l-17-457c0-9.3,3.3-16.3,10-21c8.7-7.3,16.7-11,24-11h220c7.3,0,15.3,3.7,24,11c6.7,4.7,10,11,10,19
	l-18,459C1617.3,475.7,1613.8,481.2,1607.5,485.5z M1557-514c-20-12-41.7-18-65-18c-23.3,0-45,6-65,18s-35.7,28.3-47,49L612,943
	c-23.3,42-22.7,84,2,126c11.3,19.3,26.8,34.7,46.5,46s40.8,17,63.5,17h1536c22.7,0,43.8-5.7,63.5-17c19.7-11.3,35.2-26.7,46.5-46
	c24.7-42,25.3-84,2-126L1604-465C1592.7-485.7,1577-502,1557-514z"/>
</svg>
