<svg xmlns="http://www.w3.org/2000/svg" x="0px" y="0px" viewBox="596 -596 1792 1792" style="enable-background:new 596 -596 1792 1792;" xml:space="preserve">
<path d="M724,428h768v512H724V428z M1748,76c0-441.7-47-113s-69-47-113-47h-96v-256h768v768h-512V76z M2469-549
	c-31.3-31.3-69-47-113-47h-960c-44,0-81.7,15.7-113,47c-31.3,31.3-47,69-47,113v352H628c-44,0-81.7,15.7-113,47s-47,69-47,113v960
	c0,44,15.7,81.7,47,113s69,47,113,47h960c44,0,81.7-15.7,113-47s47-69,47-113V684h608c44,0,81.7-15.7,113-47c31.3-31.3,47-69,47-113
	v-960C2516-480,2500.3-517.7,2469-549z"/>
</svg>
