<svg xmlns="http://www.w3.org/2000/svg" x="0px" y="0px" viewBox="596 -596 1792 1792" style="enable-background:new 596 -596 1792 1792;">
<path d="M987,315v128h252V315H987z M987,60v127h252V60H987z M1656,571v128h341V571H1656z M1325,315v128h672V315H1325z M1325,60v127
	h672V60H1325z M2126,934c-4,4-8.7,6-14,6H872c-5.3,0-10-2-14-6s-6-8.7-6-14V-320c0-5.3,2-10,6-14s8.7-6,14-6h32l378,256l210-171
	l210,171l378-256h32c5.3,0,10,2,14,6s6,8.7,6,14V920C2132,925.3,2130,930,2126,934z M1056-340h406l-185,150L1056-340z M1522-340h406
	l-221,150L1522-340z M2217-425c-28.7-28.7-63.7-43-105-43H872c-41.3,0-76.3,14.3-105,43s-43,63.7-43,105V920
	c0,41.3,14.3,76.3,43,105c28.7,28.7,63.7,43,105,43h1240c41.3,0,76.3-14.3,105-43c28.7-28.7,43-63.7,43-105V-320
	C2260-361.3,2245.7-396.3,2217-425z"/>
</svg>
