<svg xmlns="http://www.w3.org/2000/svg" x="0px" y="0px" viewBox="596 -596 1792 1792" style="enable-background:new 596 -596 1792 1792;">
<path d="M1208.2,735.3c-27,9-51.8,8.2-74.5-2.5c-22.7-10.7-37-27.5-43-50.5s-1.7-45.8,13-68.5c14-22,34-37.3,60-46
	c26-8.7,50.3-8.3,73,1c23.3,10,38.3,26.7,45,50c6.7,23.3,3,46.3-11,69C1256,710.5,1235.2,726.3,1208.2,735.3z M1342.7,585.3
	c-10,3.7-19.7,3.8-29,0.5c-20-9.3-24.3-24.3-13-45c4.7-8.7,11.8-14.8,21.5-18.5c9.7-3.7,19.2-3.8,28.5-0.5
	c8.7,3.3,14.5,9.5,17.5,18.5s1.8,17.8-3.5,26.5C1360,575.5,1352.7,581.7,1342.7,585.3z M1536.2,483.3
	c-31.7-60.3-84.5-100.2-158.5-119.5c-70.7-18-140.8-11.7-210.5,19c-69.7,30.7-120.2,77-151.5,139c-31.3,63.3-33.5,125.8-6.5,187.5
	c27,61.7,76.2,103.8,147.5,126.5c74,24,148.7,20,224-12c75.3-32,128-82,158-150C1568.7,607.2,1567.9,543.7,1536.2,483.3z
	 M1718.2,778.3c-97.7,79-220.8,126.2-369.5,141.5c-97.3,9.3-188.8,2.3-274.5-21c-85.7-23.3-155.2-59.7-208.5-109
	c-53.3-49.3-83-106-89-170c-9.3-97.3,34.8-185.5,132.5-264.5s220.8-126.2,369.5-141.5c97.3-9.3,188.8-2.3,274.5,21
	c85.7,23.3,155.2,59.7,208.5,109s83,106,89,170C1860,611.2,1815.9,699.3,1718.2,778.3z M2124.7,401.3c-22.7-35-49.3-62.2-80-81.5
	s-65-35-103-47c-8-2.7-13.7-4.7-17-6s-7.3-3.8-12-7.5s-6.2-7.8-4.5-12.5s3.2-11.3,4.5-20c30-76.7,30-136,0-178
	c-30.7-40.7-81.7-61-153-61s-153.3,19.7-246,59l-6,2c-4,1.3-8.5,2.5-13.5,3.5s-9.8,1.2-14.5,0.5c-4.7-0.7-8-3-10-7s-1.7-10.7,1-20
	c30-96.7,23.3-166.3-20-209c-49.3-49.3-131.5-51.7-246.5-7S975.4-66.8,862.7,45.8c-85.3,85.3-151.2,171.3-197.5,258
	c-46.3,86.7-69.5,168.3-69.5,245c0,72,21.7,138.5,65,199.5c43.3,61,100.5,111.3,171.5,151c71,39.7,151.2,70.7,240.5,93
	c89.3,22.3,181,33.5,275,33.5s184.2-10.3,270.5-31c86.3-20.7,161.7-48.3,226-83c64.3-34.7,120.5-73.8,168.5-117.5
	c48-43.7,84.3-89.3,109-137c24.7-47.7,37-94.2,37-139.5C2158.7,475.2,2147.4,436.3,2124.7,401.3z M1983.7-171.7
	c-39.3-12.3-79-14.2-119-5.5c-16,3.3-28.3,11.8-37,25.5s-11.3,28.5-8,44.5c2.7,16,11,28.3,25,37s29,11.3,45,8c42-8.7,77.7,3,107,35
	s37.3,69,24,111c-4.7,15.3-3.3,30.2,4,44.5s18.7,24.2,34,29.5c15.3,4.7,30.2,3.3,44.5-4c14.3-7.3,24.2-18.7,29.5-34
	c12.7-37.3,14.8-76.5,6.5-117.5c-8.3-41-26.5-77.2-54.5-108.5C2056.7-137.5,2023-159.3,1983.7-171.7z M2057.7-403.7
	c-80.7-25-162-28.8-244-11.5c-18.7,4-33.2,13.8-43.5,29.5s-13.5,32.8-9.5,51.5s14,33.2,30,43.5s33.3,13.5,52,9.5
	c58-12,115.7-9.2,173,8.5s106.7,49.5,148,95.5c41.3,45.3,68,98,80,158s8.7,117.3-10,172c-5.3,18-3.7,35.3,5,52c8.7,16.7,22,28,40,34
	s35.3,4.7,52-4c16.7-8.7,28-22,34-40c26-76.7,30.5-157.2,13.5-241.5s-54.5-158.5-112.5-222.5
	C2207.7-333.8,2138.4-378.7,2057.7-403.7z"/>
</svg>
