<svg xmlns="http://www.w3.org/2000/svg" x="0px" y="0px" viewBox="596 -596 1792 1792" style="enable-background:new 596 -596 1792 1792;">
<path d="M2079.2,185l-371,20l205-232c28.7-33.3,37.3-72.3,26-117c-8-31.3-24-54-48-68l-488-283c-20-12-41.3-16.8-64-14.5
	c-22.7,2.3-42.7,11.2-60,26.5l-239,213c-21.3,19.3-32.8,43.7-34.5,73c-1.7,29.3,7.2,55,26.5,77c19.3,22,43.7,33.8,73,35.5
	c29.3,1.7,55-7.5,77-27.5l181-161l149,87l-264,300c-109.3,18-204,65-284,141l137,138c68-61.3,146.7-92,236-92
	c96.7,0,179.2,34.3,247.5,103c68.3,68.7,102.5,151.3,102.5,248c0,89.3-30.3,167.7-91,235l137,137c98.7-104,148-228,148-372
	c0-84.7-18.3-164.7-55-240l143-8l-35,429c-2,29.3,6.5,55.2,25.5,77.5s43.2,34.5,72.5,36.5c2,0.7,5,1,9,1c27.3,0,51.2-9.3,71.5-28
	c20.3-18.7,31.8-42,34.5-70l44-551c3.3-31.3-6.3-58.7-29-82C2139.5,193.7,2111.8,183,2079.2,185z M2090.7-292
	c35-34.7,52.5-76.7,52.5-126s-17.5-91.3-52.5-126s-77.2-52-126.5-52s-91.3,17.3-126,52s-52,76.7-52,126s17.3,91.3,52,126
	s76.7,52,126,52S2055.7-257.3,2090.7-292z M1089.7,899.5c-68.3-68.3-102.5-150.8-102.5-247.5c0-72.7,20-138.3,60-197l-139-139
	c-77.3,98.7-116,210.7-116,336c0,98.7,24.3,189.7,73,273c48.7,83.3,114.8,149.3,198.5,198c83.7,48.7,174.8,73,273.5,73
	c126,0,237.7-38.7,335-116l-139-139c-60,40.7-125.3,61-196,61C1240.5,1002,1158,967.8,1089.7,899.5z"/>
</svg>
