<svg xmlns="http://www.w3.org/2000/svg" x="0px" y="0px" viewBox="596 -596 1792 1792" style="enable-background:new 596 -596 1792 1792;">
<path d="M1883,1042.7c22-50,208.3-480.3,559-1291c41.3-94,108.3-142.3,201-145l1-44l-1-2l-460-4v50c17.3,0.7,35.8,3.3,55.5,8
	c19.7,4.7,41.3,15.2,65,31.5c23.7,16.3,40.2,37.2,49.5,62.5l-441,1017c-4.7-11.3-45.2-102.7-121.5-274s-118.8-268-127.5-290l213-442
	c22-33.3,52-60.3,90-81s77.7-31.7,119-33v-49c-12.7,0-43.5,0.2-92.5,0.5s-109,0.7-180,1s-127.8,0.5-170.5,0.5v24c0,12-0.3,20.3-1,25
	c63.3,1.3,106.3,10.2,129,26.5s26,42.8,10,79.5c-42,99.3-99.7,220.3-173,363c-21.3-45.3-50-107.8-86-187.5s-65-142.8-87-189.5
	c-14-30.7-9.8-53.7,12.5-69s53.5-23.7,93.5-25v-47l-513-1v50c108.7,1.3,175.7,25,201,71c19.3,35.3,64.7,133.7,136,295
	s113.3,255,126,281c-14.7,28-58.3,110.5-131,247.5c-72.7,137-119.3,225.8-140,266.5c-30-66.7-108.5-246.7-235.5-540
	S784.3-231,767-270.3c-10.7-23.3-7.3-44.7,10-64c17.3-19.3,39.5-33.7,66.5-43s53.5-14.7,79.5-16v-50H340c0,5.3,0.2,14.3,0.5,27
	s0.5,20.7,0.5,24c29.3,0,63.3,14.3,102,43s73.2,62.2,103.5,100.5S599-174.7,613-141.3C670.3-6.7,756.8,192,872.5,454.7
	s200.8,458.3,255.5,587c0,0.7,8.8,1.2,26.5,1.5c17.7,0.3,26.8,0.2,27.5-0.5c43.3-88.7,109.5-218.5,198.5-389.5
	s141.8-272.8,158.5-305.5l295,695H1883z"/>
</svg>
