<svg xmlns="http://www.w3.org/2000/svg" x="0px" y="0px" viewBox="596 -596 1792 1792" style="enable-background:new 596 -596 1792 1792;">
<path d="M842,711c79.3,124,184.3,217.7,315,281L790-13c-44.7,100-67,204.3-67,313C723,450,762.7,587,842,711z M1948,49
	c-2-3.3-6.7-11-14-23s-12.2-20-14.5-24S1913-9,1907-19s-10-17.5-12-22.5s-5-12-9-21s-6.7-16.7-8-23c-1.3-6.3-2.7-13.5-4-21.5
	s-2-16-2-24c0-36.7,12.3-68.5,37-95.5s55.3-40.5,92-40.5h10c-70-64-149.5-113.7-238.5-149S1590-469,1492-469
	c-132,0-254.5,31.2-367.5,93.5S920-228.7,850-122c6.7,0,15.3,0.2,26,0.5c10.7,0.3,18.3,0.5,23,0.5l205-10
	c12.7-0.7,22.2,3.8,28.5,13.5c6.3,9.7,7.2,20,2.5,31c-4.7,11-13.3,17.2-26,18.5c-28,3.3-57.3,6-88,8l280,832l168-504L1349-60l-80-8
	c-8-0.7-14.5-3.3-19.5-8s-8-10.2-9-16.5S1240-105,1242-111s5.8-11,11.5-15c5.7-4,12.5-5.7,20.5-5c84.7,6,152,9.3,202,10l205-10
	c12.7-0.7,22.2,3.8,28.5,13.5s7.2,20,2.5,31s-13.3,17.2-26,18.5c-28,3.3-57.3,6-88,8l278,826l76-256c2.7-8.7,8.5-28,17.5-58
	s14.8-49.7,17.5-59s6.5-24,11.5-44s8.3-36.5,10-49.5s2.5-25.8,2.5-38.5C2011,191,1990,120.3,1948,49z M1275,1037
	c70,21.3,142.3,32,217,32c86,0,171-14.7,255-44c-2.7-3.3-4.3-7-5-11l-237-647L1275,1037z M2172,10c0,71.3-19.7,163.3-59,276
	l-235,678c116.7-68,209.7-160.8,279-278.5c69.3-117.7,104-246.2,104-385.5c0-130-31.7-253-95-369C2170-44.3,2172-18,2172,10z
	 M1144-525c-110.7,47.3-206,111-286,191S714.3-158.7,667-48s-71,226.7-71,348s23.7,237.3,71,348s111,206,191,286
	s175.3,143.7,286,191s226.7,71,348,71c121.3,0,237.3-23.7,348-71s206-111,286-191s143.7-175.3,191-286c47.3-110.7,71-226.7,71-348
	s-23.7-237.3-71-348c-47.3-110.7-111-206-191-286s-175.3-143.7-286-191s-226.7-71-348-71C1370.7-596,1254.7-572.3,1144-525z
	 M1160.5,1087c-105.7-45.3-196.7-106.2-273-182.5S750.3,737.2,705,631.5S637,415.3,637,300s22.7-225.8,68-331.5
	s106.2-196.7,182.5-273s167.3-137.2,273-182.5c105.7-45.3,216.2-68,331.5-68c115.3,0,225.8,22.7,331.5,68s196.7,106.2,273,182.5
	c76.3,76.3,137.2,167.3,182.5,273c45.3,105.7,68,216.2,68,331.5s-22.7,225.8-68,331.5c-45.3,105.7-106.2,196.7-182.5,273
	c-76.3,76.3-167.3,137.2-273,182.5s-216.2,68-331.5,68C1376.7,1155,1266.2,1132.3,1160.5,1087z"/>
</svg>
