<svg xmlns="http://www.w3.org/2000/svg" x="0px" y="0px" viewBox="596 -596 1792 1792" style="enable-background:new 596 -596 1792 1792;">
<path d="M1585,924c48.7-49,73-80.2,73-93.5c0-21.3-20.8-39.3-62.5-54s-76.2-22-103.5-22s-61.8,7.3-103.5,22
	c-41.7,14.7-62.5,32.7-62.5,54c0,13.3,24.3,44.5,73,93.5c48.7,49,79.7,73.5,93,73.5S1536.3,973,1585,924z M1855.5,651.5
	c50.3-50,75.5-81,75.5-93c0-8.7-3.3-16.3-10-23c-52-51.3-117.3-91.7-196-121s-156.3-44-233-44c-76.7,0-154.3,14.7-233,44
	c-78.7,29.3-144,69.7-196,121c-6.7,6.7-10,14.3-10,23c0,12,25.2,43,75.5,93c50.3,50,81.5,75,93.5,75c2,0,15.5-8.3,40.5-25
	c25-16.7,58.7-33.3,101-50c42.3-16.7,85.2-25,128.5-25s86.2,8.3,128.5,25c42.3,16.7,76.2,33.3,101.5,50c25.3,16.7,38.7,25,40,25
	C1774,726.5,1805.2,701.5,1855.5,651.5z M2127,379.5c50-50,75-81,75-93c0-8-3.3-15.3-10-22c-88-88-194.7-156.3-320-205
	s-252-73-380-73s-254.7,24.3-380,73s-232,117-320,205c-6.7,6.7-10,14-10,22c0,12,25,43,75,93s80.7,75,92,75c1.3,0,11.7-7.3,31-22
	c19.3-14.7,45.7-32.3,79-53c33.3-20.7,71.2-41.3,113.5-62c42.3-20.7,92-38.3,149-53s113.8-22,170.5-22c101.3,0,190.7,16.5,268,49.5
	s161.3,84.5,252,154.5c8,5.3,15.7,8,23,8C2046.3,454.5,2077,429.5,2127,379.5z M2398.5,108.5c50.3-50,75.5-81,75.5-93
	c0-8.7-3.3-16.3-10-23c-124.7-124-273-220-445-288s-347.7-102-527-102s-355,34-527,102s-320.3,164-445,288c-6.7,6.7-10,14.3-10,23
	c0,12,25.2,43,75.5,93s81.2,75,92.5,75c7.3,0,14.7-3,22-9C819.3,69.8,943.2-9,1071.5-62s268.5-79.5,420.5-79.5S1784.2-115,1912.5-62
	S2164.7,69.8,2284,174.5c7.3,6,14.7,9,22,9C2317.3,183.5,2348.2,158.5,2398.5,108.5z"/>
</svg>
