<svg xmlns="http://www.w3.org/2000/svg" x="0px" y="0px" viewBox="596 -596 1792 1792" style="enable-background:new 596 -596 1792 1792;">
<path d="M1651,811.5c-39,73.7-94,132.2-165,175.5c-71,43.3-148.5,65-232.5,65c-123.3,0-228.8-43.8-316.5-131.5
	S805.5,727.3,805.5,604c0-88.7,24.3-170.2,73-244.5S992.2,230,1073.5,194l-17-131C943.2,104.3,851.7,174.7,782,274
	S677.5,483.3,677.5,604c0,104,25.8,200.2,77.5,288.5s121.7,158.3,210,210s184.5,77.5,288.5,77.5c124.7,0,237.7-37,339-111
	c101.3-74,171.3-170.7,210-290l-102-204C1706.5,659,1690,737.8,1651,811.5z M2050.5,774l-228-455c-11.3-23.3-30.3-35-57-35h-455
	l-16-128h407V28h-423l-37-289c45.3,4.7,85.3-9.2,120-41.5c34.7-32.3,52-71.5,52-117.5c0-44-15.7-81.7-47-113
	c-31.3-31.3-69-47-113-47c-36,0-68.3,10.5-97,31.5s-47.7,48.5-57,82.5c-5.3,17.3-7.3,31.3-6,42l96,779c2,16,9.2,29.5,21.5,40.5
	c12.3,11,26.5,16.5,42.5,16.5h472l239,477c11.3,23.3,30.3,35,57,35c10.7,0,20.3-2.3,29-7l256-128l-58-114L2050.5,774z"/>
</svg>
