<svg xmlns="http://www.w3.org/2000/svg" x="0px" y="0px" viewBox="596 -596 1792 1792" style="enable-background:new 596 -596 1792 1792;">
<path d="M1015.5,867.5c-12.7,12.7-27.7,19-45,19c-17.3,0-32.3-6.3-45-19c-12.7-12.7-19-27.7-19-45s6.3-32.3,19-45
	c12.7-12.7,27.7-19,45-19c17.3,0,32.3,6.3,45,19c12.7,12.7,19,27.7,19,45S1028.2,854.8,1015.5,867.5z M1505,288
	c-50.3-50.3-88.5-108.2-114.5-173.5l-681,681c-25.3,25.3-38,55.7-38,91c0,36,12.7,66,38,90l106,108c26,24.7,56.3,37,91,37
	c35.3,0,65.3-12.3,90-37l682-682C1613.2,376.5,1555.3,338.3,1505,288z M2304-57.5c-5.7-6.7-13.5-10-23.5-10
	c-6,0-29.5,11.8-70.5,35.5s-86.2,50.7-135.5,81c-49.3,30.3-75.7,46.5-79,48.5l-193-107v-224l293-169c10.7-7.3,16-16.7,16-28
	s-5.3-20.7-16-28c-29.3-20-65.2-35.5-107.5-46.5s-82.8-16.5-121.5-16.5c-123.3,0-228.8,43.8-316.5,131.5
	c-87.7,87.7-131.5,193.2-131.5,316.5S1462.3,155.3,1550,243c87.7,87.7,193.2,131.5,316.5,131.5c94,0,180.2-27.8,258.5-83.5
	c78.3-55.7,133.2-128.2,164.5-217.5c15.3-44.7,23-80,23-106C2312.5-42.5,2309.7-50.8,2304-57.5z"/>
</svg>
