<svg xmlns="http://www.w3.org/2000/svg" x="0px" y="0px" viewBox="596 -596 1792 1792" style="enable-background:new 596 -596 1792 1792;">
<path d="M1210,521c-12.7,24-29.3,36-50,36H975c-10.7,0-18.7-4.3-24-13c-6-9.3-6-18.7,0-28l196-346v-1L1022-47c-5.3-11.3-5.7-21-1-29
	c5.3-7.3,14-11,26-11h184c20.7,0,38,11.3,52,34c84,147.3,126,221.3,126,222L1210,521z M2033-300l-409,723v1l260,476
	c6,10,6.3,19.3,1,28c-4.7,8-13,12-25,12h-184c-21.3,0-38.7-11.7-52-35c-174-319.3-261.3-479.7-262-481l411-729
	c12.7-23.3,29-35,49-35h187c11.3,0,19.3,4,24,12C2038.3-320,2038.3-310.7,2033-300z M2175.5-383.5c-56.3-56.3-124.2-84.5-203.5-84.5
	h-960c-79.3,0-147.2,28.2-203.5,84.5S724-259.3,724-180v960c0,79.3,28.2,147.2,84.5,203.5c56.3,56.3,124.2,84.5,203.5,84.5h960
	c79.3,0,147.2-28.2,203.5-84.5c56.3-56.3,84.5-124.2,84.5-203.5v-960C2260-259.3,2231.8-327.2,2175.5-383.5z"/>
</svg>
