<svg xmlns="http://www.w3.org/2000/svg" x="0px" y="0px" viewBox="596 -596 1792 1792" style="enable-background:new 596 -596 1792 1792;">
<path d="M1220.8-156c-17.3-30-39.3-45-66-45h-239c-15.3,0-26,5-32,15c-7.3,10-7,22.3,1,37l161,279c0.7,0.7,0.7,1,0,1l-253,448
	c-6.7,12.7-6.7,24.7,0,36c6.7,11.3,17,17,31,17h239c25.3,0,47-15.3,65-46c164.7-292,250.3-444,257-456L1220.8-156z M2159.8-527h-241
	c-26,0-47.3,15-64,45c-342,606.7-519,920.7-531,942l339,622c16,30,38,45,66,45h239c14.7,0,25.3-5,32-15c6.7-11.3,6.3-23.7-1-37
	l-336-615v-1l528-934c7.3-14,7.3-26.3,0-37C2184.8-522,2174.4-527,2159.8-527z"/>
</svg>
