<svg xmlns="http://www.w3.org/2000/svg" x="0px" y="0px" viewBox="596 -596 1792 1792" style="enable-background:new 596 -596 1792 1792;">
<path d="M1484.4,681.1c-9-12.7-21.5-22.3-37.5-29c-16.7-6-33.2-7.2-49.5-3.5c-16.3,3.7-29.5,11.8-39.5,24.5
	c-39.3,46.7-59.3,70-60,70c-100.7,119.3-161,191.3-181,216c-20,24.7-31.3,40.3-34,47c-3.3,9.3-4.7,18-4,26c2.7,14,8.3,26,17,36
	c23.3,28,77.5,57.7,162.5,89c85,31.3,145.5,44,181.5,38c26-5.3,43-18.7,51-40c3.3-8.7,5.3-110.3,6-305v-127
	C1497.5,707.8,1493.4,693.8,1484.4,681.1z M1336.4,423.6c-8.3-14.3-20.2-24.5-35.5-30.5l-84-34c-30-12-68.3-27.7-115-47
	c-126-51.3-193.3-77-202-77c-23.3-1.3-42,9.3-56,32s-24,64.2-30,124.5s-6.3,115.8-1,166.5c3.3,33.3,9,58.3,17,75
	c12.7,22.7,30.7,34.7,54,36c11.3,0,108.7-29.3,292-88l120-39c32.7-10,50-33.3,52-70C1348.5,454.1,1344.7,437.9,1336.4,423.6z
	 M2151.9,708.1c-5.3-4.7-21-11.5-47-20.5s-106.7-35.5-242-79.5c-78.7-26-118.3-39.3-119-40c-32-11.3-59.7-2.7-83,26
	c-11.3,14-17.8,29.3-19.5,46c-1.7,16.7,2.2,32,11.5,46l47,77c113.3,184.7,174.7,280.3,184,287c17.3,14,38.3,16.3,63,7
	c34-13.3,79.2-55.7,135.5-127c56.3-71.3,86.8-125,91.5-161C2177.9,743.1,2170.5,722.8,2151.9,708.1z M1477.9-242.4
	c-12.7-191.7-20-293.5-22-305.5c-6-23.3-22.3-38.3-49-45c-38.7-10-113.5,0.5-224.5,31.5s-180.2,60.8-207.5,89.5
	c-18,18-24.3,38.7-19,62l378,598c37.3,58.7,75.3,82.3,114,71c39.3-13.3,57.3-54,54-122C1498.5,75.8,1490.5-50.7,1477.9-242.4z
	 M2163.9,242.1c-4-38-31-93.8-81-167.5c-50-73.7-91-118.2-123-133.5c-24.7-11.3-46.3-10.7-65,2c-6,4-17.3,17-34,39s-66.7,90-150,204
	c-49.3,67.3-74.3,101.3-75,102c-20,26.7-20,55.7,0,87c9.3,14.7,21.7,25.3,37,32c15.3,6.7,30.7,8,46,4l-1,2c16-5.3,46.3-13,91-23
	c209.3-50.7,319-79.3,329-86c19.3-13.3,28-33,26-59V242.1z"/>
</svg>
