<svg xmlns="http://www.w3.org/2000/svg" x="0px" y="0px" viewBox="596 -596 1792 1792" style="enable-background:new 596 -596 1792 1792;">
<path d="M1656,581c-15.3,0-30.3,7.3-45,22v301c14.7,14.7,29.7,22,45,22c26,0,39-22.3,39-67V648C1695,603.3,1682,581,1656,581z
	 M1988,581c-30,0-45,22.7-45,68v46h90v-46C2033,603.7,2018,581,1988,581z M1067,1000H967V431H862v-94h312v94h-107V1000z M1355,946
	c-36,40.7-70,61-102,61c-30.7,0-50-12.3-58-37c-5.3-16-8-40.3-8-73V506h89v364c0,21.3,0.3,33,1,35c2,14,9,21,21,21c18,0,37-14,57-42
	V506h89v494h-89V946z M1775,952c-11.3,36.7-35,55-71,55c-32,0-63-18.3-93-55v48h-89V337h89v217c28.7-36,59.7-54,93-54
	c36,0,59.7,18.7,71,56c6,17.3,9,50.3,9,99v197C1784,900.7,1781,934,1775,952z M2120,900c-2,18-9,36-21,54c-24,35.3-60,53-108,53
	c-46,0-82-17-108-51c-19.3-24.7-29-63.3-29-116V667c0-52.7,9.3-91.3,28-116c26-34,61.7-51,107-51c44.7,0,80,17,106,51
	c18,24.7,27,63.3,27,116v103h-179v87c0,46,15.3,69,46,69c22,0,35.3-12,40-36c1.3-6.7,2-27,2-61h91v13
	C2122,874.7,2121.3,894,2120,900z M1471-1c-28.7,0-43-23.3-43-70v-210c0-46,14.3-69,43-69c28.7,0,43,23,43,69v210
	C1514-24.3,1499.7-1,1471-1z M2207,330c-8.7-39.3-27.8-72.3-57.5-99c-29.7-26.7-63.8-42.3-102.5-47c-122.7-13.3-307.7-20-555-20
	s-432,6.7-554,20c-39.3,4.7-73.7,20.3-103,47s-48.7,59.7-58,99c-17.3,77.3-26,194-26,350c0,158.7,8.7,275.3,26,350
	c8.7,39.3,27.8,72.3,57.5,99s63.8,42,102.5,46c122.7,14,307.7,21,555,21s432.3-7,555-21c38.7-4,72.7-19.3,102-46
	c29.3-26.7,48.7-59.7,58-99c17.3-77.3,26-194,26-350C2233,521.3,2224.3,404.7,2207,330z M1167-333l-71-263H990
	c18.7,56,40.3,118.3,65,187c31.3,92,51.7,162.7,61,212V74h100v-271l121-399h-102L1167-333z M1577-380c-24.7-34-60-51-106-51
	c-44.7,0-79.7,17-105,51c-18.7,24.7-28,63.7-28,117v175c0,53.3,9.3,92.7,28,118c25.3,34,60.3,51,105,51c46,0,81.3-17,106-51
	c18.7-24.7,28-64,28-118v-175C1605-316.3,1595.7-355.3,1577-380z M1849-425v381c-20,28.7-39,43-57,43c-12,0-19-7.3-21-22
	c-0.7-1.3-1-13-1-35v-367h-91v394c0,34,2.7,59,8,75c8.7,24.7,28.3,37,59,37c33.3,0,67.7-20.7,103-62v55h91v-499H1849z"/>
</svg>
