<svg xmlns="http://www.w3.org/2000/svg" x="0px" y="0px" viewBox="596 -596 1792 1792" style="enable-background:new 596 -596 1792 1792;">
<path d="M1614,756c-11.3,0-22.3-5.3-33-16V516c10.7-10.7,21.7-16,33-16c19.3,0,29,16.7,29,50v157C1643,739.7,1633.3,756,1614,756z
	 M1827,551c0-34,11-51,33-51s33,17,33,51v34h-66V551z M1024,319v70h78v423h74V389h80v-70H1024z M1390,445v280
	c-14.7,20.7-28.7,31-42,31c-9.3,0-14.3-5-15-15c-0.7-1.3-1-10-1-26V445h-66v290c0,25.3,2,43.3,6,54c6,18.7,20,28,42,28
	c24.7,0,50-15,76-45v40h67V445H1390z M1702,482c-8-28-25.7-42-53-42c-24,0-46.7,13.3-68,40V319h-67v493h67v-36
	c22,27.3,44.7,41,68,41c27.3,0,45-14,53-42c4.7-14,7-38.3,7-73V556C1709,520.7,1706.7,496,1702,482z M1892,685v21.5
	c0,7-0.2,12.5-0.5,16.5s-0.5,6.3-0.5,7c-4,17.3-14,26-30,26c-22.7,0-34-17-34-51v-65h133v-76c0-38.7-7-67.3-21-86
	c-18-25.3-44-38-78-38s-60.7,12.7-80,38c-13.3,18-20,46.7-20,86v129c0,39.3,7,68,21,86c19.3,25.3,46.3,38,81,38
	c35.3,0,62-13.3,80-40c8-12,13-25.3,15-40c1.3-9.3,2-23.7,2-43v-9H1892z M1477-191c-21.3,0-32,17.3-32,52V17c0,34,10.7,51,32,51
	c21.3,0,32-17,32-51v-156C1509-173.7,1498.3-191,1477-191z M2022,834c-6.7,28.7-20.8,53-42.5,73s-46.8,31.7-75.5,35
	c-91.3,10-228.7,15-412,15s-320.7-5-412-15c-28.7-3.3-53.8-15-75.5-35c-21.7-20-35.8-44.3-42.5-73c-13.3-56-20-142.7-20-260
	c0-115.3,6.7-202,20-260c6.7-29.3,20.8-53.8,42.5-73.5s47.2-31.2,76.5-34.5c90.7-10,227.7-15,411-15c184,0,321.3,5,412,15
	c28.7,3.3,54,14.8,76,34.5s36.3,44.2,43,73.5c12.7,55.3,19,142,19,260C2042,691.3,2035.3,778,2022,834z M1287,124h-74V-77
	c-7.3-36.7-22.7-89.3-46-158c-15.3-46-23-69-23-69l-24-69h78l53,195l51-195h75l-90,296V124z M1555,91c-19.3,25.3-45.3,38-78,38
	c-34,0-60-12.7-78-38c-14-19.3-21-48.3-21-87v-130c0-38.7,7-67.7,21-87c18-25.3,44-38,78-38c32.7,0,58.7,12.7,78,38
	c14,19.3,21,48.3,21,87V4C1576,44,1569,73,1555,91z M1757,84c-27.3,30-53,45-77,45c-21.3,0-35.7-9-43-27c-4-12-6-30.3-6-55v-293h67
	V26c0,16,0.3,24.7,1,26c0.7,10.7,6,16,16,16c13.3,0,27.3-10.3,42-31v-283h67v370h-67V84z M2175.5-383.5
	c-56.3-56.3-124.2-84.5-203.5-84.5h-960c-79.3,0-147.2,28.2-203.5,84.5S724-259.3,724-180v960c0,79.3,28.2,147.2,84.5,203.5
	c56.3,56.3,124.2,84.5,203.5,84.5h960c79.3,0,147.2-28.2,203.5-84.5c56.3-56.3,84.5-124.2,84.5-203.5v-960
	C2260-259.3,2231.8-327.2,2175.5-383.5z"/>
</svg>
