<svg xmlns="http://www.w3.org/2000/svg" x="0px" y="0px" viewBox="596 -596 1792 1792" style="enable-background:new 596 -596 1792 1792;">
<path d="M1936-185c6.7-11.3,23-39.3,49-84s44.8-76.7,56.5-96c11.7-19.3,28.2-45.5,49.5-78.5c21.3-33,41.3-62.5,60-88.5l0,0
	c-38.7,9.3-76.7,14-114,14c-35.3,0-71-4.7-107-14c-31.3,58-67,121.2-107,189.5s-75,127-105,176s-69.2,112.3-117.5,190
	c-48.3,77.7-84.8,136.8-109.5,177.5c-28-46-74.2-121.7-138.5-227c-64.3-105.3-120-197.5-167-276.5S1094-458,1052-532
	c-45.3,10-82.3,15-111,15c-33.3,0-69.3-5-108-15c62,92.7,122.3,188.3,181,287c58.7,98.7,130.8,223.5,216.5,374.5
	S1372.3,379,1399,425l-13,707c42.7-7.3,77.7-11,105-11c28.7,0,63.7,3.7,105,11l-13-707C1721,183.7,1838.7-19.7,1936-185z"/>
</svg>
