<svg xmlns="http://www.w3.org/2000/svg" x="0px" y="0px" viewBox="596 -596 1792 1792" style="enable-background:new 596 -596 1792 1792;">
<path d="M759.5-278C693.2-211.3,660-131.3,660-38v771c0,93.3,33.2,173.3,99.5,240s146.2,100,239.5,100h45v-72c-50,0-82.7-1.7-98-5
	c-62-12.7-113.2-43.8-153.5-93.5S732,796.3,732,733V-38c0-73.3,26.2-136.3,78.5-189s115.2-79,188.5-79h665l26-72H999
	C905.7-378,825.8-344.7,759.5-278z M1470,460l-187-585h-228l285,733c13.3,34.7,20,70,20,106c0,35.3-6.7,70.3-20,105
	c-38,104-111.3,164.7-220,182v195c41.3-1.3,80-7.5,116-18.5s67.8-24.7,95.5-41c27.7-16.3,54.2-38,79.5-65
	c25.3-27,46.8-53.2,64.5-78.5c17.7-25.3,35.7-56.5,54-93.5c18.3-37,33.3-69.7,45-98c11.7-28.3,25.2-62.8,40.5-103.5l482-1294h-247
	L1470,460z M2261.5-235.5c-41.7-59.7-96.2-100.8-163.5-123.5l-25,67c53.3,19.3,96.5,52.3,129.5,99S2252-94.7,2252-38v1038h-678
	c-5.3,12-20.3,36.3-45,73h795V-38C2324-110,2303.2-175.8,2261.5-235.5z"/>
</svg>
