<svg xmlns="http://www.w3.org/2000/svg" x="0px" y="0px" viewBox="596 -596 1792 1792" style="enable-background:new 596 -596 1792 1792;">
<path d="M1846,354l-512,320c-9.3,6.7-20.7,10-34,10c-10,0-20.3-2.7-31-8c-22-12-33-30.7-33-56V-20c0-25.3,11-44,33-56
	c22.7-12,44.3-11.3,65,2l512,320c20,11.3,30,29.3,30,54S1866,342.7,1846,354z M2387,150c-0.7-36-3.5-81.5-8.5-136.5
	S2366.3-90.7,2357-134c-10.7-48.7-33.8-89.7-69.5-123c-35.7-33.3-77.2-52.7-124.5-58c-148-16.7-371.7-25-671-25s-523,8.3-671,25
	c-47.3,5.3-88.7,24.7-124,58s-58.3,74.3-69,123c-10,43.3-17.5,92.5-22.5,147.5S597.7,114,597,150s-1,86-1,150s0.3,114,1,150
	s3.5,81.5,8.5,136.5S617.7,690.7,627,734c10.7,48.7,33.8,89.7,69.5,123s77.2,52.7,124.5,58c148,16.7,371.7,25,671,25s523-8.3,671-25
	c47.3-5.3,88.7-24.7,124-58c35.3-33.3,58.3-74.3,69-123c10-43.3,17.5-92.5,22.5-147.5s7.8-100.5,8.5-136.5c0.7-36,1-86,1-150
	S2387.7,186,2387,150z"/>
</svg>
